G04 #@! TF.FileFunction,Legend,Bot*
%FSLAX46Y46*%
G04 Gerber Fmt 4.6, Leading zero omitted, Abs format (unit mm)*
G04 Created by KiCad (PCBNEW 4.0.6) date 10/04/17 00:49:36*
%MOMM*%
%LPD*%
G01*
G04 APERTURE LIST*
%ADD10C,0.100000*%
%ADD11C,0.010000*%
G04 APERTURE END LIST*
D10*
D11*
G36*
X105032613Y-30537341D02*
X103831714Y-30720100D01*
X102652811Y-31023952D01*
X101504265Y-31448258D01*
X100926424Y-31714009D01*
X99848559Y-32313856D01*
X98846788Y-33012167D01*
X97926590Y-33801992D01*
X97093446Y-34676382D01*
X96352837Y-35628387D01*
X95710244Y-36651058D01*
X95171148Y-37737444D01*
X94741028Y-38880598D01*
X94460391Y-39913000D01*
X94327052Y-40584621D01*
X94239092Y-41231139D01*
X94192915Y-41894626D01*
X94184926Y-42617157D01*
X94194481Y-43024500D01*
X94276101Y-44138989D01*
X94449571Y-45188996D01*
X94722340Y-46204321D01*
X95101859Y-47214764D01*
X95408926Y-47882250D01*
X96008069Y-48961072D01*
X96706337Y-49965357D01*
X97496852Y-50889078D01*
X98372734Y-51726206D01*
X99327106Y-52470713D01*
X100353089Y-53116571D01*
X101443805Y-53657752D01*
X102430000Y-54035401D01*
X103081110Y-54236785D01*
X103689330Y-54388437D01*
X104292377Y-54496513D01*
X104927967Y-54567167D01*
X105633817Y-54606556D01*
X105986000Y-54615750D01*
X106658488Y-54621064D01*
X107214493Y-54609334D01*
X107663422Y-54580252D01*
X107891000Y-54553532D01*
X109110448Y-54316252D01*
X110285506Y-53963434D01*
X111409256Y-53500003D01*
X112474784Y-52930885D01*
X113475171Y-52261007D01*
X114403502Y-51495293D01*
X115252860Y-50638670D01*
X116016328Y-49696062D01*
X116686990Y-48672397D01*
X117029832Y-48045225D01*
X117534846Y-46916248D01*
X117918783Y-45754620D01*
X118181088Y-44567733D01*
X118321207Y-43362978D01*
X118332808Y-42551663D01*
X117802410Y-42551663D01*
X117767706Y-43436728D01*
X117679334Y-44304130D01*
X117539424Y-45111780D01*
X117475428Y-45385431D01*
X117119358Y-46537996D01*
X116649310Y-47638106D01*
X116069475Y-48679832D01*
X115384044Y-49657245D01*
X114597210Y-50564417D01*
X113713165Y-51395419D01*
X112736099Y-52144323D01*
X112659627Y-52196716D01*
X111994220Y-52603667D01*
X111239168Y-52987476D01*
X110431586Y-53332838D01*
X109608588Y-53624444D01*
X108807288Y-53846989D01*
X108494250Y-53914598D01*
X107528525Y-54058937D01*
X106534294Y-54124106D01*
X105561045Y-54107834D01*
X105110373Y-54069832D01*
X103898482Y-53876383D01*
X102730400Y-53567144D01*
X101612745Y-53146304D01*
X100552140Y-52618056D01*
X99555204Y-51986590D01*
X98628558Y-51256098D01*
X97778823Y-50430771D01*
X97012619Y-49514800D01*
X96339502Y-48517250D01*
X95777030Y-47463565D01*
X95331219Y-46368087D01*
X95002479Y-45240159D01*
X94791221Y-44089125D01*
X94697855Y-42924326D01*
X94722793Y-41755106D01*
X94866443Y-40590807D01*
X95129217Y-39440773D01*
X95511525Y-38314346D01*
X95856863Y-37531750D01*
X96446151Y-36460625D01*
X97131015Y-35471071D01*
X97906422Y-34567153D01*
X98767337Y-33752940D01*
X99708726Y-33032499D01*
X100725555Y-32409899D01*
X101812790Y-31889207D01*
X102965396Y-31474491D01*
X103556522Y-31310188D01*
X104180311Y-31183070D01*
X104887884Y-31089820D01*
X105640045Y-31032586D01*
X106397604Y-31013520D01*
X107121366Y-31034770D01*
X107668750Y-31084618D01*
X108849377Y-31295314D01*
X109985240Y-31620386D01*
X111070003Y-32053639D01*
X112097330Y-32588874D01*
X113060884Y-33219896D01*
X113954328Y-33940507D01*
X114771326Y-34744510D01*
X115505541Y-35625709D01*
X116150637Y-36577907D01*
X116700276Y-37594906D01*
X117148123Y-38670510D01*
X117487840Y-39798522D01*
X117702309Y-40896905D01*
X117781321Y-41691026D01*
X117802410Y-42551663D01*
X118332808Y-42551663D01*
X118338584Y-42147749D01*
X118232665Y-40929436D01*
X118002894Y-39715433D01*
X117727826Y-38747086D01*
X117297949Y-37635026D01*
X116757010Y-36574120D01*
X116113185Y-35572416D01*
X115374646Y-34637962D01*
X114549570Y-33778805D01*
X113646129Y-33002992D01*
X112672500Y-32318572D01*
X111636856Y-31733591D01*
X110547372Y-31256097D01*
X109888921Y-31029994D01*
X108683662Y-30722001D01*
X107466949Y-30537653D01*
X106247146Y-30476313D01*
X105032613Y-30537341D01*
X105032613Y-30537341D01*
G37*
X105032613Y-30537341D02*
X103831714Y-30720100D01*
X102652811Y-31023952D01*
X101504265Y-31448258D01*
X100926424Y-31714009D01*
X99848559Y-32313856D01*
X98846788Y-33012167D01*
X97926590Y-33801992D01*
X97093446Y-34676382D01*
X96352837Y-35628387D01*
X95710244Y-36651058D01*
X95171148Y-37737444D01*
X94741028Y-38880598D01*
X94460391Y-39913000D01*
X94327052Y-40584621D01*
X94239092Y-41231139D01*
X94192915Y-41894626D01*
X94184926Y-42617157D01*
X94194481Y-43024500D01*
X94276101Y-44138989D01*
X94449571Y-45188996D01*
X94722340Y-46204321D01*
X95101859Y-47214764D01*
X95408926Y-47882250D01*
X96008069Y-48961072D01*
X96706337Y-49965357D01*
X97496852Y-50889078D01*
X98372734Y-51726206D01*
X99327106Y-52470713D01*
X100353089Y-53116571D01*
X101443805Y-53657752D01*
X102430000Y-54035401D01*
X103081110Y-54236785D01*
X103689330Y-54388437D01*
X104292377Y-54496513D01*
X104927967Y-54567167D01*
X105633817Y-54606556D01*
X105986000Y-54615750D01*
X106658488Y-54621064D01*
X107214493Y-54609334D01*
X107663422Y-54580252D01*
X107891000Y-54553532D01*
X109110448Y-54316252D01*
X110285506Y-53963434D01*
X111409256Y-53500003D01*
X112474784Y-52930885D01*
X113475171Y-52261007D01*
X114403502Y-51495293D01*
X115252860Y-50638670D01*
X116016328Y-49696062D01*
X116686990Y-48672397D01*
X117029832Y-48045225D01*
X117534846Y-46916248D01*
X117918783Y-45754620D01*
X118181088Y-44567733D01*
X118321207Y-43362978D01*
X118332808Y-42551663D01*
X117802410Y-42551663D01*
X117767706Y-43436728D01*
X117679334Y-44304130D01*
X117539424Y-45111780D01*
X117475428Y-45385431D01*
X117119358Y-46537996D01*
X116649310Y-47638106D01*
X116069475Y-48679832D01*
X115384044Y-49657245D01*
X114597210Y-50564417D01*
X113713165Y-51395419D01*
X112736099Y-52144323D01*
X112659627Y-52196716D01*
X111994220Y-52603667D01*
X111239168Y-52987476D01*
X110431586Y-53332838D01*
X109608588Y-53624444D01*
X108807288Y-53846989D01*
X108494250Y-53914598D01*
X107528525Y-54058937D01*
X106534294Y-54124106D01*
X105561045Y-54107834D01*
X105110373Y-54069832D01*
X103898482Y-53876383D01*
X102730400Y-53567144D01*
X101612745Y-53146304D01*
X100552140Y-52618056D01*
X99555204Y-51986590D01*
X98628558Y-51256098D01*
X97778823Y-50430771D01*
X97012619Y-49514800D01*
X96339502Y-48517250D01*
X95777030Y-47463565D01*
X95331219Y-46368087D01*
X95002479Y-45240159D01*
X94791221Y-44089125D01*
X94697855Y-42924326D01*
X94722793Y-41755106D01*
X94866443Y-40590807D01*
X95129217Y-39440773D01*
X95511525Y-38314346D01*
X95856863Y-37531750D01*
X96446151Y-36460625D01*
X97131015Y-35471071D01*
X97906422Y-34567153D01*
X98767337Y-33752940D01*
X99708726Y-33032499D01*
X100725555Y-32409899D01*
X101812790Y-31889207D01*
X102965396Y-31474491D01*
X103556522Y-31310188D01*
X104180311Y-31183070D01*
X104887884Y-31089820D01*
X105640045Y-31032586D01*
X106397604Y-31013520D01*
X107121366Y-31034770D01*
X107668750Y-31084618D01*
X108849377Y-31295314D01*
X109985240Y-31620386D01*
X111070003Y-32053639D01*
X112097330Y-32588874D01*
X113060884Y-33219896D01*
X113954328Y-33940507D01*
X114771326Y-34744510D01*
X115505541Y-35625709D01*
X116150637Y-36577907D01*
X116700276Y-37594906D01*
X117148123Y-38670510D01*
X117487840Y-39798522D01*
X117702309Y-40896905D01*
X117781321Y-41691026D01*
X117802410Y-42551663D01*
X118332808Y-42551663D01*
X118338584Y-42147749D01*
X118232665Y-40929436D01*
X118002894Y-39715433D01*
X117727826Y-38747086D01*
X117297949Y-37635026D01*
X116757010Y-36574120D01*
X116113185Y-35572416D01*
X115374646Y-34637962D01*
X114549570Y-33778805D01*
X113646129Y-33002992D01*
X112672500Y-32318572D01*
X111636856Y-31733591D01*
X110547372Y-31256097D01*
X109888921Y-31029994D01*
X108683662Y-30722001D01*
X107466949Y-30537653D01*
X106247146Y-30476313D01*
X105032613Y-30537341D01*
G36*
X105464793Y-33224270D02*
X104392478Y-33378134D01*
X103327322Y-33655895D01*
X103033250Y-33755384D01*
X102074804Y-34162839D01*
X101163589Y-34684023D01*
X100309578Y-35311257D01*
X99522748Y-36036856D01*
X98813074Y-36853141D01*
X98549234Y-37208700D01*
X98410264Y-37409069D01*
X98307456Y-37565134D01*
X98256837Y-37652233D01*
X98254618Y-37662115D01*
X98321084Y-37676208D01*
X98477471Y-37698205D01*
X98651750Y-37718984D01*
X99357832Y-37842752D01*
X99971812Y-38045904D01*
X100490184Y-38326953D01*
X100898352Y-38672601D01*
X101203910Y-39050727D01*
X101403370Y-39439127D01*
X101514676Y-39875327D01*
X101530691Y-39995009D01*
X101548108Y-40580272D01*
X101457489Y-41103540D01*
X101256176Y-41573703D01*
X100941511Y-41999650D01*
X100926367Y-42016068D01*
X100696810Y-42242575D01*
X100446465Y-42443699D01*
X100152151Y-42633909D01*
X99790684Y-42827676D01*
X99338884Y-43039470D01*
X99161256Y-43117861D01*
X98643898Y-43355693D01*
X98239472Y-43571396D01*
X97937684Y-43773572D01*
X97728240Y-43970825D01*
X97600846Y-44171759D01*
X97545209Y-44384977D01*
X97540738Y-44472278D01*
X97595963Y-44779856D01*
X97760790Y-45026185D01*
X98032797Y-45209847D01*
X98409562Y-45329423D01*
X98888663Y-45383495D01*
X99101958Y-45386529D01*
X99686482Y-45327725D01*
X100282409Y-45171349D01*
X100847610Y-44931739D01*
X101336241Y-44626076D01*
X101544231Y-44467462D01*
X101526741Y-45501766D01*
X101509250Y-46536069D01*
X101100822Y-46688743D01*
X100678679Y-46814120D01*
X100172523Y-46912828D01*
X99623520Y-46979644D01*
X99072832Y-47009343D01*
X98635875Y-47001600D01*
X98366018Y-46989442D01*
X98150766Y-46986308D01*
X98016575Y-46992178D01*
X97985000Y-47002047D01*
X98020761Y-47092901D01*
X98118322Y-47263144D01*
X98263106Y-47490705D01*
X98440532Y-47753507D01*
X98636021Y-48029478D01*
X98834995Y-48296543D01*
X98869526Y-48341284D01*
X99577842Y-49151706D01*
X100368531Y-49868711D01*
X101233267Y-50487778D01*
X102163720Y-51004382D01*
X103151564Y-51414004D01*
X104188469Y-51712119D01*
X105266109Y-51894205D01*
X105446250Y-51912690D01*
X105812166Y-51944768D01*
X106096901Y-51962323D01*
X106345442Y-51965377D01*
X106602773Y-51953953D01*
X106913878Y-51928072D01*
X107065500Y-51913476D01*
X108163073Y-51744311D01*
X109217605Y-51458469D01*
X110222105Y-51059487D01*
X111169582Y-50550900D01*
X112053044Y-49936245D01*
X112865500Y-49219057D01*
X113297995Y-48761390D01*
X113441187Y-48589483D01*
X113476863Y-48543607D01*
X110078608Y-48543607D01*
X110029241Y-48788623D01*
X109931808Y-48953369D01*
X109740604Y-49090491D01*
X109505791Y-49147748D01*
X109272900Y-49121388D01*
X109101280Y-49021818D01*
X109036401Y-48930947D01*
X109077550Y-48896606D01*
X109214890Y-48923321D01*
X109271837Y-48943336D01*
X109506972Y-48977949D01*
X109702070Y-48908440D01*
X109837004Y-48756116D01*
X109880286Y-48586729D01*
X108965186Y-48586729D01*
X108960918Y-48790034D01*
X108879681Y-48963876D01*
X108742311Y-49089590D01*
X108569644Y-49148508D01*
X108382518Y-49121964D01*
X108201766Y-48991293D01*
X108192625Y-48980947D01*
X108097492Y-48785162D01*
X108098487Y-48565153D01*
X108194268Y-48373563D01*
X108208500Y-48358500D01*
X108309804Y-48298636D01*
X108018000Y-48298636D01*
X107969570Y-48356785D01*
X107954500Y-48358500D01*
X107914366Y-48413882D01*
X107894735Y-48551159D01*
X107894807Y-48727025D01*
X107913780Y-48898175D01*
X107950851Y-49021304D01*
X107967200Y-49044299D01*
X107991046Y-49094699D01*
X107916900Y-49117084D01*
X107808450Y-49120500D01*
X107656582Y-49105354D01*
X107576962Y-49067858D01*
X107573500Y-49057000D01*
X107622282Y-48995896D01*
X107640480Y-48993500D01*
X107679051Y-48935232D01*
X107691420Y-48777460D01*
X107688105Y-48691875D01*
X107667289Y-48504611D01*
X107624676Y-48409731D01*
X107542860Y-48372695D01*
X107525875Y-48369958D01*
X107444650Y-48368764D01*
X107395780Y-48409558D01*
X107371453Y-48516298D01*
X107363858Y-48712940D01*
X107363974Y-48866500D01*
X107346363Y-49028390D01*
X107301572Y-49129864D01*
X107294771Y-49135402D01*
X107165515Y-49181515D01*
X107079830Y-49142656D01*
X107065500Y-49088750D01*
X107099789Y-49004246D01*
X107129000Y-48993500D01*
X107175531Y-48939749D01*
X107192267Y-48809149D01*
X107181700Y-48647679D01*
X107146323Y-48501317D01*
X107098059Y-48422671D01*
X106966743Y-48357513D01*
X106875236Y-48412743D01*
X106823747Y-48588081D01*
X106811500Y-48807800D01*
X106806763Y-49022361D01*
X106787971Y-49134151D01*
X106748253Y-49167196D01*
X106711057Y-49159043D01*
X106581550Y-49124518D01*
X106539607Y-49120500D01*
X106505663Y-49094404D01*
X106544800Y-49044299D01*
X106594590Y-48934481D01*
X106620115Y-48760824D01*
X106621000Y-48722625D01*
X106649166Y-48457394D01*
X106708019Y-48351135D01*
X106419411Y-48351135D01*
X106377528Y-48383743D01*
X106351190Y-48460723D01*
X106338086Y-48623978D01*
X106337453Y-48833556D01*
X106348526Y-49049506D01*
X106370541Y-49231878D01*
X106395571Y-49326875D01*
X106409332Y-49398913D01*
X106348002Y-49430324D01*
X106199169Y-49435980D01*
X106048802Y-49429809D01*
X106007374Y-49407041D01*
X106056922Y-49356081D01*
X106065375Y-49349605D01*
X106162534Y-49239059D01*
X106156508Y-49153878D01*
X106051216Y-49122023D01*
X106033625Y-49122984D01*
X105783919Y-49114082D01*
X105626590Y-49029070D01*
X105549467Y-48859472D01*
X105432099Y-48859472D01*
X105410491Y-49005408D01*
X105304912Y-49113773D01*
X105158341Y-49143484D01*
X105139054Y-49139565D01*
X104978549Y-49117576D01*
X104783741Y-49113492D01*
X104781633Y-49113576D01*
X104642601Y-49110755D01*
X104611889Y-49080524D01*
X104638758Y-49045342D01*
X104689248Y-48934771D01*
X104715111Y-48760664D01*
X104716000Y-48722625D01*
X104741439Y-48462618D01*
X104824595Y-48305752D01*
X104829898Y-48303352D01*
X104525500Y-48303352D01*
X104476937Y-48356949D01*
X104462000Y-48358500D01*
X104421866Y-48413882D01*
X104402235Y-48551159D01*
X104402307Y-48727025D01*
X104421280Y-48898175D01*
X104458351Y-49021304D01*
X104474700Y-49044300D01*
X104497664Y-49093893D01*
X104423846Y-49116556D01*
X104303250Y-49120500D01*
X104150266Y-49112306D01*
X104106296Y-49082619D01*
X104131800Y-49044300D01*
X104179671Y-48936380D01*
X104206148Y-48760025D01*
X104208000Y-48699329D01*
X104195110Y-48518353D01*
X104145491Y-48424447D01*
X104074608Y-48388221D01*
X103936473Y-48379763D01*
X103850818Y-48467139D01*
X103810828Y-48660802D01*
X103805829Y-48800424D01*
X103799756Y-48990254D01*
X103773027Y-49085323D01*
X103710733Y-49117741D01*
X103657203Y-49120500D01*
X103543260Y-49097290D01*
X103509500Y-49057000D01*
X103557822Y-48995345D01*
X103573000Y-48993500D01*
X103609607Y-48936471D01*
X103632553Y-48791008D01*
X103636500Y-48683775D01*
X103651927Y-48487804D01*
X103691183Y-48344276D01*
X103716267Y-48307850D01*
X103805422Y-48276496D01*
X103433260Y-48276496D01*
X103432212Y-48279125D01*
X103263457Y-48623250D01*
X103157338Y-48878047D01*
X103108121Y-49061214D01*
X103110074Y-49190450D01*
X103123886Y-49230981D01*
X103180622Y-49368227D01*
X103177380Y-49425942D01*
X103111375Y-49437988D01*
X103106846Y-49438000D01*
X103044252Y-49383107D01*
X102955695Y-49237783D01*
X102858315Y-49031058D01*
X102839229Y-48984751D01*
X102734281Y-48742633D01*
X102628844Y-48529639D01*
X102544381Y-48388861D01*
X102538774Y-48381501D01*
X102420783Y-48231500D01*
X102647642Y-48231500D01*
X102798326Y-48250316D01*
X102875982Y-48294974D01*
X102858984Y-48347783D01*
X102815841Y-48369083D01*
X102800450Y-48434046D01*
X102835091Y-48569178D01*
X102852369Y-48612500D01*
X102947555Y-48834750D01*
X103064422Y-48612500D01*
X103124784Y-48468371D01*
X103133110Y-48379292D01*
X103123144Y-48369083D01*
X103059671Y-48316884D01*
X103098785Y-48264153D01*
X103218148Y-48233218D01*
X103260792Y-48231500D01*
X103388722Y-48244629D01*
X103433260Y-48276496D01*
X103805422Y-48276496D01*
X103813384Y-48273696D01*
X103979350Y-48253091D01*
X104173758Y-48246258D01*
X104356199Y-48253421D01*
X104486267Y-48274806D01*
X104525500Y-48303352D01*
X104829898Y-48303352D01*
X104975726Y-48237366D01*
X105059709Y-48231500D01*
X105229351Y-48258127D01*
X105347369Y-48322515D01*
X105350084Y-48325645D01*
X105383389Y-48385380D01*
X105333294Y-48408199D01*
X105185684Y-48405020D01*
X105015871Y-48409421D01*
X104936180Y-48458030D01*
X104920169Y-48501375D01*
X104942057Y-48595792D01*
X104994107Y-48612500D01*
X105160623Y-48646891D01*
X105320783Y-48730257D01*
X105421889Y-48832884D01*
X105432099Y-48859472D01*
X105549467Y-48859472D01*
X105546793Y-48853593D01*
X105528800Y-48634842D01*
X105549729Y-48436678D01*
X105627259Y-48316442D01*
X105783505Y-48257690D01*
X106040585Y-48243977D01*
X106054241Y-48244147D01*
X106294052Y-48259364D01*
X106416984Y-48295548D01*
X106419411Y-48351135D01*
X106708019Y-48351135D01*
X106737706Y-48297536D01*
X106892688Y-48233622D01*
X106936987Y-48231500D01*
X107083522Y-48252303D01*
X107162656Y-48298083D01*
X107236791Y-48328017D01*
X107277529Y-48303997D01*
X107376012Y-48268604D01*
X107539651Y-48248012D01*
X107726362Y-48242526D01*
X107894059Y-48252451D01*
X108000657Y-48278092D01*
X108018000Y-48298636D01*
X108309804Y-48298636D01*
X108384554Y-48254464D01*
X108590730Y-48231325D01*
X108778536Y-48288051D01*
X108871650Y-48372629D01*
X108965186Y-48586729D01*
X109880286Y-48586729D01*
X109891643Y-48542287D01*
X109858158Y-48322682D01*
X109742084Y-48131220D01*
X109618127Y-48059430D01*
X109421948Y-48023460D01*
X109260197Y-48040935D01*
X109169347Y-48105373D01*
X109161000Y-48140666D01*
X109125270Y-48222296D01*
X109097500Y-48231500D01*
X109043622Y-48182771D01*
X109036425Y-48072897D01*
X109070033Y-47956349D01*
X109134444Y-47889043D01*
X109321817Y-47854449D01*
X109551495Y-47858196D01*
X109753331Y-47897141D01*
X109805551Y-47919111D01*
X109961835Y-48068480D01*
X110054497Y-48290102D01*
X110078608Y-48543607D01*
X113476863Y-48543607D01*
X113616707Y-48363787D01*
X113809287Y-48105800D01*
X114003658Y-47837021D01*
X114184551Y-47578949D01*
X114336698Y-47353083D01*
X114444831Y-47180920D01*
X114493680Y-47083961D01*
X114495000Y-47075955D01*
X114436425Y-47057040D01*
X114279877Y-47033924D01*
X114054129Y-47010499D01*
X113943916Y-47001376D01*
X113194176Y-46902456D01*
X112972862Y-46843112D01*
X109351500Y-46843112D01*
X107081375Y-46819923D01*
X106480793Y-46813446D01*
X105992778Y-46806938D01*
X105602900Y-46799509D01*
X105296730Y-46790268D01*
X105059838Y-46778324D01*
X104877793Y-46762786D01*
X104736166Y-46742763D01*
X104620528Y-46717365D01*
X104516447Y-46685701D01*
X104435325Y-46656571D01*
X103999870Y-46469610D01*
X103647609Y-46256265D01*
X103334755Y-45987914D01*
X103204936Y-45852314D01*
X102910266Y-45464965D01*
X102718685Y-45049349D01*
X102619223Y-44576668D01*
X102599373Y-44262750D01*
X102642076Y-43718835D01*
X102792399Y-43241814D01*
X103048394Y-42834361D01*
X103408112Y-42499151D01*
X103869608Y-42238858D01*
X104149573Y-42133868D01*
X104603628Y-41987870D01*
X104214762Y-41811350D01*
X103763354Y-41544658D01*
X103402967Y-41202005D01*
X103141972Y-40796624D01*
X102988741Y-40341744D01*
X102951643Y-39850597D01*
X102953450Y-39817750D01*
X103035929Y-39344015D01*
X103221409Y-38935472D01*
X103512735Y-38589192D01*
X103912751Y-38302244D01*
X104424303Y-38071699D01*
X104747750Y-37969672D01*
X104880325Y-37938959D01*
X105045017Y-37913602D01*
X105256179Y-37892817D01*
X105528163Y-37875822D01*
X105875321Y-37861836D01*
X106312005Y-37850075D01*
X106852568Y-37839758D01*
X107240125Y-37833829D01*
X109351500Y-37803682D01*
X109351500Y-46843112D01*
X112972862Y-46843112D01*
X112546829Y-46728874D01*
X112001994Y-46480704D01*
X111559786Y-46158025D01*
X111220323Y-45760913D01*
X110983722Y-45289444D01*
X110898392Y-45002362D01*
X110820615Y-44429215D01*
X110856029Y-43876336D01*
X110999525Y-43359188D01*
X111245992Y-42893232D01*
X111590323Y-42493930D01*
X111778937Y-42337805D01*
X111954340Y-42213680D01*
X112145922Y-42092241D01*
X112372550Y-41963378D01*
X112653095Y-41816978D01*
X113006425Y-41642932D01*
X113451410Y-41431127D01*
X113609428Y-41356918D01*
X114098399Y-41104519D01*
X114464575Y-40861327D01*
X114711448Y-40623102D01*
X114842508Y-40385605D01*
X114861246Y-40144597D01*
X114787639Y-39926320D01*
X114610754Y-39681166D01*
X114362110Y-39504016D01*
X114028938Y-39389631D01*
X113598471Y-39332772D01*
X113320250Y-39324139D01*
X112866547Y-39346943D01*
X112429095Y-39425261D01*
X111975811Y-39567966D01*
X111474612Y-39783933D01*
X111240625Y-39899371D01*
X111224071Y-39848282D01*
X111210017Y-39691444D01*
X111199558Y-39450098D01*
X111193786Y-39145488D01*
X111193000Y-38974159D01*
X111193000Y-38024735D01*
X111560805Y-37921534D01*
X112170515Y-37790512D01*
X112850568Y-37714482D01*
X113554580Y-37698396D01*
X113632034Y-37700516D01*
X114298515Y-37722250D01*
X114197365Y-37563500D01*
X113751794Y-36934035D01*
X113226304Y-36308268D01*
X112650905Y-35717479D01*
X112055608Y-35192946D01*
X111588572Y-34844335D01*
X110645974Y-34276790D01*
X109661199Y-33826863D01*
X108642471Y-33495601D01*
X107598013Y-33284050D01*
X106536046Y-33193258D01*
X105464793Y-33224270D01*
X105464793Y-33224270D01*
G37*
X105464793Y-33224270D02*
X104392478Y-33378134D01*
X103327322Y-33655895D01*
X103033250Y-33755384D01*
X102074804Y-34162839D01*
X101163589Y-34684023D01*
X100309578Y-35311257D01*
X99522748Y-36036856D01*
X98813074Y-36853141D01*
X98549234Y-37208700D01*
X98410264Y-37409069D01*
X98307456Y-37565134D01*
X98256837Y-37652233D01*
X98254618Y-37662115D01*
X98321084Y-37676208D01*
X98477471Y-37698205D01*
X98651750Y-37718984D01*
X99357832Y-37842752D01*
X99971812Y-38045904D01*
X100490184Y-38326953D01*
X100898352Y-38672601D01*
X101203910Y-39050727D01*
X101403370Y-39439127D01*
X101514676Y-39875327D01*
X101530691Y-39995009D01*
X101548108Y-40580272D01*
X101457489Y-41103540D01*
X101256176Y-41573703D01*
X100941511Y-41999650D01*
X100926367Y-42016068D01*
X100696810Y-42242575D01*
X100446465Y-42443699D01*
X100152151Y-42633909D01*
X99790684Y-42827676D01*
X99338884Y-43039470D01*
X99161256Y-43117861D01*
X98643898Y-43355693D01*
X98239472Y-43571396D01*
X97937684Y-43773572D01*
X97728240Y-43970825D01*
X97600846Y-44171759D01*
X97545209Y-44384977D01*
X97540738Y-44472278D01*
X97595963Y-44779856D01*
X97760790Y-45026185D01*
X98032797Y-45209847D01*
X98409562Y-45329423D01*
X98888663Y-45383495D01*
X99101958Y-45386529D01*
X99686482Y-45327725D01*
X100282409Y-45171349D01*
X100847610Y-44931739D01*
X101336241Y-44626076D01*
X101544231Y-44467462D01*
X101526741Y-45501766D01*
X101509250Y-46536069D01*
X101100822Y-46688743D01*
X100678679Y-46814120D01*
X100172523Y-46912828D01*
X99623520Y-46979644D01*
X99072832Y-47009343D01*
X98635875Y-47001600D01*
X98366018Y-46989442D01*
X98150766Y-46986308D01*
X98016575Y-46992178D01*
X97985000Y-47002047D01*
X98020761Y-47092901D01*
X98118322Y-47263144D01*
X98263106Y-47490705D01*
X98440532Y-47753507D01*
X98636021Y-48029478D01*
X98834995Y-48296543D01*
X98869526Y-48341284D01*
X99577842Y-49151706D01*
X100368531Y-49868711D01*
X101233267Y-50487778D01*
X102163720Y-51004382D01*
X103151564Y-51414004D01*
X104188469Y-51712119D01*
X105266109Y-51894205D01*
X105446250Y-51912690D01*
X105812166Y-51944768D01*
X106096901Y-51962323D01*
X106345442Y-51965377D01*
X106602773Y-51953953D01*
X106913878Y-51928072D01*
X107065500Y-51913476D01*
X108163073Y-51744311D01*
X109217605Y-51458469D01*
X110222105Y-51059487D01*
X111169582Y-50550900D01*
X112053044Y-49936245D01*
X112865500Y-49219057D01*
X113297995Y-48761390D01*
X113441187Y-48589483D01*
X113476863Y-48543607D01*
X110078608Y-48543607D01*
X110029241Y-48788623D01*
X109931808Y-48953369D01*
X109740604Y-49090491D01*
X109505791Y-49147748D01*
X109272900Y-49121388D01*
X109101280Y-49021818D01*
X109036401Y-48930947D01*
X109077550Y-48896606D01*
X109214890Y-48923321D01*
X109271837Y-48943336D01*
X109506972Y-48977949D01*
X109702070Y-48908440D01*
X109837004Y-48756116D01*
X109880286Y-48586729D01*
X108965186Y-48586729D01*
X108960918Y-48790034D01*
X108879681Y-48963876D01*
X108742311Y-49089590D01*
X108569644Y-49148508D01*
X108382518Y-49121964D01*
X108201766Y-48991293D01*
X108192625Y-48980947D01*
X108097492Y-48785162D01*
X108098487Y-48565153D01*
X108194268Y-48373563D01*
X108208500Y-48358500D01*
X108309804Y-48298636D01*
X108018000Y-48298636D01*
X107969570Y-48356785D01*
X107954500Y-48358500D01*
X107914366Y-48413882D01*
X107894735Y-48551159D01*
X107894807Y-48727025D01*
X107913780Y-48898175D01*
X107950851Y-49021304D01*
X107967200Y-49044299D01*
X107991046Y-49094699D01*
X107916900Y-49117084D01*
X107808450Y-49120500D01*
X107656582Y-49105354D01*
X107576962Y-49067858D01*
X107573500Y-49057000D01*
X107622282Y-48995896D01*
X107640480Y-48993500D01*
X107679051Y-48935232D01*
X107691420Y-48777460D01*
X107688105Y-48691875D01*
X107667289Y-48504611D01*
X107624676Y-48409731D01*
X107542860Y-48372695D01*
X107525875Y-48369958D01*
X107444650Y-48368764D01*
X107395780Y-48409558D01*
X107371453Y-48516298D01*
X107363858Y-48712940D01*
X107363974Y-48866500D01*
X107346363Y-49028390D01*
X107301572Y-49129864D01*
X107294771Y-49135402D01*
X107165515Y-49181515D01*
X107079830Y-49142656D01*
X107065500Y-49088750D01*
X107099789Y-49004246D01*
X107129000Y-48993500D01*
X107175531Y-48939749D01*
X107192267Y-48809149D01*
X107181700Y-48647679D01*
X107146323Y-48501317D01*
X107098059Y-48422671D01*
X106966743Y-48357513D01*
X106875236Y-48412743D01*
X106823747Y-48588081D01*
X106811500Y-48807800D01*
X106806763Y-49022361D01*
X106787971Y-49134151D01*
X106748253Y-49167196D01*
X106711057Y-49159043D01*
X106581550Y-49124518D01*
X106539607Y-49120500D01*
X106505663Y-49094404D01*
X106544800Y-49044299D01*
X106594590Y-48934481D01*
X106620115Y-48760824D01*
X106621000Y-48722625D01*
X106649166Y-48457394D01*
X106708019Y-48351135D01*
X106419411Y-48351135D01*
X106377528Y-48383743D01*
X106351190Y-48460723D01*
X106338086Y-48623978D01*
X106337453Y-48833556D01*
X106348526Y-49049506D01*
X106370541Y-49231878D01*
X106395571Y-49326875D01*
X106409332Y-49398913D01*
X106348002Y-49430324D01*
X106199169Y-49435980D01*
X106048802Y-49429809D01*
X106007374Y-49407041D01*
X106056922Y-49356081D01*
X106065375Y-49349605D01*
X106162534Y-49239059D01*
X106156508Y-49153878D01*
X106051216Y-49122023D01*
X106033625Y-49122984D01*
X105783919Y-49114082D01*
X105626590Y-49029070D01*
X105549467Y-48859472D01*
X105432099Y-48859472D01*
X105410491Y-49005408D01*
X105304912Y-49113773D01*
X105158341Y-49143484D01*
X105139054Y-49139565D01*
X104978549Y-49117576D01*
X104783741Y-49113492D01*
X104781633Y-49113576D01*
X104642601Y-49110755D01*
X104611889Y-49080524D01*
X104638758Y-49045342D01*
X104689248Y-48934771D01*
X104715111Y-48760664D01*
X104716000Y-48722625D01*
X104741439Y-48462618D01*
X104824595Y-48305752D01*
X104829898Y-48303352D01*
X104525500Y-48303352D01*
X104476937Y-48356949D01*
X104462000Y-48358500D01*
X104421866Y-48413882D01*
X104402235Y-48551159D01*
X104402307Y-48727025D01*
X104421280Y-48898175D01*
X104458351Y-49021304D01*
X104474700Y-49044300D01*
X104497664Y-49093893D01*
X104423846Y-49116556D01*
X104303250Y-49120500D01*
X104150266Y-49112306D01*
X104106296Y-49082619D01*
X104131800Y-49044300D01*
X104179671Y-48936380D01*
X104206148Y-48760025D01*
X104208000Y-48699329D01*
X104195110Y-48518353D01*
X104145491Y-48424447D01*
X104074608Y-48388221D01*
X103936473Y-48379763D01*
X103850818Y-48467139D01*
X103810828Y-48660802D01*
X103805829Y-48800424D01*
X103799756Y-48990254D01*
X103773027Y-49085323D01*
X103710733Y-49117741D01*
X103657203Y-49120500D01*
X103543260Y-49097290D01*
X103509500Y-49057000D01*
X103557822Y-48995345D01*
X103573000Y-48993500D01*
X103609607Y-48936471D01*
X103632553Y-48791008D01*
X103636500Y-48683775D01*
X103651927Y-48487804D01*
X103691183Y-48344276D01*
X103716267Y-48307850D01*
X103805422Y-48276496D01*
X103433260Y-48276496D01*
X103432212Y-48279125D01*
X103263457Y-48623250D01*
X103157338Y-48878047D01*
X103108121Y-49061214D01*
X103110074Y-49190450D01*
X103123886Y-49230981D01*
X103180622Y-49368227D01*
X103177380Y-49425942D01*
X103111375Y-49437988D01*
X103106846Y-49438000D01*
X103044252Y-49383107D01*
X102955695Y-49237783D01*
X102858315Y-49031058D01*
X102839229Y-48984751D01*
X102734281Y-48742633D01*
X102628844Y-48529639D01*
X102544381Y-48388861D01*
X102538774Y-48381501D01*
X102420783Y-48231500D01*
X102647642Y-48231500D01*
X102798326Y-48250316D01*
X102875982Y-48294974D01*
X102858984Y-48347783D01*
X102815841Y-48369083D01*
X102800450Y-48434046D01*
X102835091Y-48569178D01*
X102852369Y-48612500D01*
X102947555Y-48834750D01*
X103064422Y-48612500D01*
X103124784Y-48468371D01*
X103133110Y-48379292D01*
X103123144Y-48369083D01*
X103059671Y-48316884D01*
X103098785Y-48264153D01*
X103218148Y-48233218D01*
X103260792Y-48231500D01*
X103388722Y-48244629D01*
X103433260Y-48276496D01*
X103805422Y-48276496D01*
X103813384Y-48273696D01*
X103979350Y-48253091D01*
X104173758Y-48246258D01*
X104356199Y-48253421D01*
X104486267Y-48274806D01*
X104525500Y-48303352D01*
X104829898Y-48303352D01*
X104975726Y-48237366D01*
X105059709Y-48231500D01*
X105229351Y-48258127D01*
X105347369Y-48322515D01*
X105350084Y-48325645D01*
X105383389Y-48385380D01*
X105333294Y-48408199D01*
X105185684Y-48405020D01*
X105015871Y-48409421D01*
X104936180Y-48458030D01*
X104920169Y-48501375D01*
X104942057Y-48595792D01*
X104994107Y-48612500D01*
X105160623Y-48646891D01*
X105320783Y-48730257D01*
X105421889Y-48832884D01*
X105432099Y-48859472D01*
X105549467Y-48859472D01*
X105546793Y-48853593D01*
X105528800Y-48634842D01*
X105549729Y-48436678D01*
X105627259Y-48316442D01*
X105783505Y-48257690D01*
X106040585Y-48243977D01*
X106054241Y-48244147D01*
X106294052Y-48259364D01*
X106416984Y-48295548D01*
X106419411Y-48351135D01*
X106708019Y-48351135D01*
X106737706Y-48297536D01*
X106892688Y-48233622D01*
X106936987Y-48231500D01*
X107083522Y-48252303D01*
X107162656Y-48298083D01*
X107236791Y-48328017D01*
X107277529Y-48303997D01*
X107376012Y-48268604D01*
X107539651Y-48248012D01*
X107726362Y-48242526D01*
X107894059Y-48252451D01*
X108000657Y-48278092D01*
X108018000Y-48298636D01*
X108309804Y-48298636D01*
X108384554Y-48254464D01*
X108590730Y-48231325D01*
X108778536Y-48288051D01*
X108871650Y-48372629D01*
X108965186Y-48586729D01*
X109880286Y-48586729D01*
X109891643Y-48542287D01*
X109858158Y-48322682D01*
X109742084Y-48131220D01*
X109618127Y-48059430D01*
X109421948Y-48023460D01*
X109260197Y-48040935D01*
X109169347Y-48105373D01*
X109161000Y-48140666D01*
X109125270Y-48222296D01*
X109097500Y-48231500D01*
X109043622Y-48182771D01*
X109036425Y-48072897D01*
X109070033Y-47956349D01*
X109134444Y-47889043D01*
X109321817Y-47854449D01*
X109551495Y-47858196D01*
X109753331Y-47897141D01*
X109805551Y-47919111D01*
X109961835Y-48068480D01*
X110054497Y-48290102D01*
X110078608Y-48543607D01*
X113476863Y-48543607D01*
X113616707Y-48363787D01*
X113809287Y-48105800D01*
X114003658Y-47837021D01*
X114184551Y-47578949D01*
X114336698Y-47353083D01*
X114444831Y-47180920D01*
X114493680Y-47083961D01*
X114495000Y-47075955D01*
X114436425Y-47057040D01*
X114279877Y-47033924D01*
X114054129Y-47010499D01*
X113943916Y-47001376D01*
X113194176Y-46902456D01*
X112972862Y-46843112D01*
X109351500Y-46843112D01*
X107081375Y-46819923D01*
X106480793Y-46813446D01*
X105992778Y-46806938D01*
X105602900Y-46799509D01*
X105296730Y-46790268D01*
X105059838Y-46778324D01*
X104877793Y-46762786D01*
X104736166Y-46742763D01*
X104620528Y-46717365D01*
X104516447Y-46685701D01*
X104435325Y-46656571D01*
X103999870Y-46469610D01*
X103647609Y-46256265D01*
X103334755Y-45987914D01*
X103204936Y-45852314D01*
X102910266Y-45464965D01*
X102718685Y-45049349D01*
X102619223Y-44576668D01*
X102599373Y-44262750D01*
X102642076Y-43718835D01*
X102792399Y-43241814D01*
X103048394Y-42834361D01*
X103408112Y-42499151D01*
X103869608Y-42238858D01*
X104149573Y-42133868D01*
X104603628Y-41987870D01*
X104214762Y-41811350D01*
X103763354Y-41544658D01*
X103402967Y-41202005D01*
X103141972Y-40796624D01*
X102988741Y-40341744D01*
X102951643Y-39850597D01*
X102953450Y-39817750D01*
X103035929Y-39344015D01*
X103221409Y-38935472D01*
X103512735Y-38589192D01*
X103912751Y-38302244D01*
X104424303Y-38071699D01*
X104747750Y-37969672D01*
X104880325Y-37938959D01*
X105045017Y-37913602D01*
X105256179Y-37892817D01*
X105528163Y-37875822D01*
X105875321Y-37861836D01*
X106312005Y-37850075D01*
X106852568Y-37839758D01*
X107240125Y-37833829D01*
X109351500Y-37803682D01*
X109351500Y-46843112D01*
X112972862Y-46843112D01*
X112546829Y-46728874D01*
X112001994Y-46480704D01*
X111559786Y-46158025D01*
X111220323Y-45760913D01*
X110983722Y-45289444D01*
X110898392Y-45002362D01*
X110820615Y-44429215D01*
X110856029Y-43876336D01*
X110999525Y-43359188D01*
X111245992Y-42893232D01*
X111590323Y-42493930D01*
X111778937Y-42337805D01*
X111954340Y-42213680D01*
X112145922Y-42092241D01*
X112372550Y-41963378D01*
X112653095Y-41816978D01*
X113006425Y-41642932D01*
X113451410Y-41431127D01*
X113609428Y-41356918D01*
X114098399Y-41104519D01*
X114464575Y-40861327D01*
X114711448Y-40623102D01*
X114842508Y-40385605D01*
X114861246Y-40144597D01*
X114787639Y-39926320D01*
X114610754Y-39681166D01*
X114362110Y-39504016D01*
X114028938Y-39389631D01*
X113598471Y-39332772D01*
X113320250Y-39324139D01*
X112866547Y-39346943D01*
X112429095Y-39425261D01*
X111975811Y-39567966D01*
X111474612Y-39783933D01*
X111240625Y-39899371D01*
X111224071Y-39848282D01*
X111210017Y-39691444D01*
X111199558Y-39450098D01*
X111193786Y-39145488D01*
X111193000Y-38974159D01*
X111193000Y-38024735D01*
X111560805Y-37921534D01*
X112170515Y-37790512D01*
X112850568Y-37714482D01*
X113554580Y-37698396D01*
X113632034Y-37700516D01*
X114298515Y-37722250D01*
X114197365Y-37563500D01*
X113751794Y-36934035D01*
X113226304Y-36308268D01*
X112650905Y-35717479D01*
X112055608Y-35192946D01*
X111588572Y-34844335D01*
X110645974Y-34276790D01*
X109661199Y-33826863D01*
X108642471Y-33495601D01*
X107598013Y-33284050D01*
X106536046Y-33193258D01*
X105464793Y-33224270D01*
G36*
X114741169Y-43059466D02*
X114230164Y-43297234D01*
X113826857Y-43503384D01*
X113518890Y-43687714D01*
X113293906Y-43860023D01*
X113139547Y-44030112D01*
X113043456Y-44207780D01*
X112993273Y-44402826D01*
X112987003Y-44450493D01*
X112980380Y-44634209D01*
X113025504Y-44773908D01*
X113143395Y-44930833D01*
X113157363Y-44946836D01*
X113417605Y-45154018D01*
X113770113Y-45301304D01*
X114192451Y-45383310D01*
X114662182Y-45394655D01*
X114922446Y-45370211D01*
X115095843Y-45340502D01*
X115208684Y-45309366D01*
X115225278Y-45299889D01*
X115265588Y-45208771D01*
X115318111Y-45017906D01*
X115377884Y-44753382D01*
X115439945Y-44441286D01*
X115499330Y-44107705D01*
X115551077Y-43778725D01*
X115590224Y-43480435D01*
X115609057Y-43282506D01*
X115654087Y-42647358D01*
X114741169Y-43059466D01*
X114741169Y-43059466D01*
G37*
X114741169Y-43059466D02*
X114230164Y-43297234D01*
X113826857Y-43503384D01*
X113518890Y-43687714D01*
X113293906Y-43860023D01*
X113139547Y-44030112D01*
X113043456Y-44207780D01*
X112993273Y-44402826D01*
X112987003Y-44450493D01*
X112980380Y-44634209D01*
X113025504Y-44773908D01*
X113143395Y-44930833D01*
X113157363Y-44946836D01*
X113417605Y-45154018D01*
X113770113Y-45301304D01*
X114192451Y-45383310D01*
X114662182Y-45394655D01*
X114922446Y-45370211D01*
X115095843Y-45340502D01*
X115208684Y-45309366D01*
X115225278Y-45299889D01*
X115265588Y-45208771D01*
X115318111Y-45017906D01*
X115377884Y-44753382D01*
X115439945Y-44441286D01*
X115499330Y-44107705D01*
X115551077Y-43778725D01*
X115590224Y-43480435D01*
X115609057Y-43282506D01*
X115654087Y-42647358D01*
X114741169Y-43059466D01*
G36*
X97704422Y-39312293D02*
X97429847Y-39353468D01*
X97263517Y-39903109D01*
X97175898Y-40221377D01*
X97092777Y-40574510D01*
X97019617Y-40932850D01*
X96961885Y-41266738D01*
X96925044Y-41546516D01*
X96914560Y-41742526D01*
X96917458Y-41781219D01*
X96937250Y-41928707D01*
X97191250Y-41811932D01*
X97353368Y-41737294D01*
X97595255Y-41625804D01*
X97881379Y-41493844D01*
X98117260Y-41385003D01*
X98618700Y-41127973D01*
X98995874Y-40875960D01*
X99251270Y-40626110D01*
X99387379Y-40375568D01*
X99406689Y-40121482D01*
X99360562Y-39959635D01*
X99245956Y-39772083D01*
X99094087Y-39618433D01*
X99087560Y-39613753D01*
X98775583Y-39452896D01*
X98395155Y-39343475D01*
X97998328Y-39296835D01*
X97704422Y-39312293D01*
X97704422Y-39312293D01*
G37*
X97704422Y-39312293D02*
X97429847Y-39353468D01*
X97263517Y-39903109D01*
X97175898Y-40221377D01*
X97092777Y-40574510D01*
X97019617Y-40932850D01*
X96961885Y-41266738D01*
X96925044Y-41546516D01*
X96914560Y-41742526D01*
X96917458Y-41781219D01*
X96937250Y-41928707D01*
X97191250Y-41811932D01*
X97353368Y-41737294D01*
X97595255Y-41625804D01*
X97881379Y-41493844D01*
X98117260Y-41385003D01*
X98618700Y-41127973D01*
X98995874Y-40875960D01*
X99251270Y-40626110D01*
X99387379Y-40375568D01*
X99406689Y-40121482D01*
X99360562Y-39959635D01*
X99245956Y-39772083D01*
X99094087Y-39618433D01*
X99087560Y-39613753D01*
X98775583Y-39452896D01*
X98395155Y-39343475D01*
X97998328Y-39296835D01*
X97704422Y-39312293D01*
G36*
X105827066Y-48417691D02*
X105738222Y-48535463D01*
X105703117Y-48697242D01*
X105742167Y-48875441D01*
X105745489Y-48882375D01*
X105844107Y-48964210D01*
X105992332Y-48995102D01*
X106120498Y-48962721D01*
X106134167Y-48951166D01*
X106173206Y-48841211D01*
X106172180Y-48674449D01*
X106136923Y-48512487D01*
X106084301Y-48424531D01*
X105949231Y-48371517D01*
X105827066Y-48417691D01*
X105827066Y-48417691D01*
G37*
X105827066Y-48417691D02*
X105738222Y-48535463D01*
X105703117Y-48697242D01*
X105742167Y-48875441D01*
X105745489Y-48882375D01*
X105844107Y-48964210D01*
X105992332Y-48995102D01*
X106120498Y-48962721D01*
X106134167Y-48951166D01*
X106173206Y-48841211D01*
X106172180Y-48674449D01*
X106136923Y-48512487D01*
X106084301Y-48424531D01*
X105949231Y-48371517D01*
X105827066Y-48417691D01*
G36*
X108369668Y-48423502D02*
X108295348Y-48566622D01*
X108285048Y-48764476D01*
X108299337Y-48839772D01*
X108360517Y-48954993D01*
X108490403Y-48992705D01*
X108526000Y-48993500D01*
X108673587Y-48967130D01*
X108744430Y-48868705D01*
X108752664Y-48839772D01*
X108770548Y-48600392D01*
X108685276Y-48434496D01*
X108637125Y-48397380D01*
X108489698Y-48359094D01*
X108369668Y-48423502D01*
X108369668Y-48423502D01*
G37*
X108369668Y-48423502D02*
X108295348Y-48566622D01*
X108285048Y-48764476D01*
X108299337Y-48839772D01*
X108360517Y-48954993D01*
X108490403Y-48992705D01*
X108526000Y-48993500D01*
X108673587Y-48967130D01*
X108744430Y-48868705D01*
X108752664Y-48839772D01*
X108770548Y-48600392D01*
X108685276Y-48434496D01*
X108637125Y-48397380D01*
X108489698Y-48359094D01*
X108369668Y-48423502D01*
G36*
X104927449Y-48760885D02*
X104914861Y-48843748D01*
X104928413Y-48895511D01*
X105005527Y-48967967D01*
X105127139Y-48992964D01*
X105239157Y-48969907D01*
X105287500Y-48899459D01*
X105234157Y-48823100D01*
X105114286Y-48762249D01*
X104988129Y-48740090D01*
X104927449Y-48760885D01*
X104927449Y-48760885D01*
G37*
X104927449Y-48760885D02*
X104914861Y-48843748D01*
X104928413Y-48895511D01*
X105005527Y-48967967D01*
X105127139Y-48992964D01*
X105239157Y-48969907D01*
X105287500Y-48899459D01*
X105234157Y-48823100D01*
X105114286Y-48762249D01*
X104988129Y-48740090D01*
X104927449Y-48760885D01*
G36*
X106481478Y-43007988D02*
X105992011Y-43028748D01*
X105610165Y-43079890D01*
X105318583Y-43169233D01*
X105099904Y-43304596D01*
X104936772Y-43493799D01*
X104811828Y-43744661D01*
X104804582Y-43763374D01*
X104727916Y-44125043D01*
X104770440Y-44470235D01*
X104924368Y-44779993D01*
X105181912Y-45035359D01*
X105374255Y-45150374D01*
X105531987Y-45221214D01*
X105683194Y-45269188D01*
X105859743Y-45299368D01*
X106093499Y-45316829D01*
X106416330Y-45326644D01*
X106490305Y-45328062D01*
X106849516Y-45329241D01*
X107110335Y-45318538D01*
X107262140Y-45296630D01*
X107297395Y-45276519D01*
X107304665Y-45194200D01*
X107309113Y-45006901D01*
X107310591Y-44736616D01*
X107308955Y-44405336D01*
X107305184Y-44103385D01*
X107287750Y-42995982D01*
X106481478Y-43007988D01*
X106481478Y-43007988D01*
G37*
X106481478Y-43007988D02*
X105992011Y-43028748D01*
X105610165Y-43079890D01*
X105318583Y-43169233D01*
X105099904Y-43304596D01*
X104936772Y-43493799D01*
X104811828Y-43744661D01*
X104804582Y-43763374D01*
X104727916Y-44125043D01*
X104770440Y-44470235D01*
X104924368Y-44779993D01*
X105181912Y-45035359D01*
X105374255Y-45150374D01*
X105531987Y-45221214D01*
X105683194Y-45269188D01*
X105859743Y-45299368D01*
X106093499Y-45316829D01*
X106416330Y-45326644D01*
X106490305Y-45328062D01*
X106849516Y-45329241D01*
X107110335Y-45318538D01*
X107262140Y-45296630D01*
X107297395Y-45276519D01*
X107304665Y-45194200D01*
X107309113Y-45006901D01*
X107310591Y-44736616D01*
X107308955Y-44405336D01*
X107305184Y-44103385D01*
X107287750Y-42995982D01*
X106481478Y-43007988D01*
G36*
X106605125Y-39354194D02*
X106146801Y-39389166D01*
X105794346Y-39457103D01*
X105529347Y-39564843D01*
X105333390Y-39719224D01*
X105221747Y-39867936D01*
X105108745Y-40166564D01*
X105103477Y-40485605D01*
X105196757Y-40795882D01*
X105379401Y-41068217D01*
X105642224Y-41273434D01*
X105668500Y-41287115D01*
X105833108Y-41357109D01*
X106016487Y-41403836D01*
X106252914Y-41433172D01*
X106576663Y-41450990D01*
X106636875Y-41453100D01*
X107319500Y-41475759D01*
X107319500Y-39325518D01*
X106605125Y-39354194D01*
X106605125Y-39354194D01*
G37*
X106605125Y-39354194D02*
X106146801Y-39389166D01*
X105794346Y-39457103D01*
X105529347Y-39564843D01*
X105333390Y-39719224D01*
X105221747Y-39867936D01*
X105108745Y-40166564D01*
X105103477Y-40485605D01*
X105196757Y-40795882D01*
X105379401Y-41068217D01*
X105642224Y-41273434D01*
X105668500Y-41287115D01*
X105833108Y-41357109D01*
X106016487Y-41403836D01*
X106252914Y-41433172D01*
X106576663Y-41450990D01*
X106636875Y-41453100D01*
X107319500Y-41475759D01*
X107319500Y-39325518D01*
X106605125Y-39354194D01*
G36*
X129647832Y-34706386D02*
X129457892Y-34710788D01*
X129284831Y-34718791D01*
X129144403Y-34729940D01*
X129052362Y-34743778D01*
X129028497Y-34752102D01*
X129022658Y-34770435D01*
X129017316Y-34819641D01*
X129012453Y-34902332D01*
X129008049Y-35021117D01*
X129004087Y-35178605D01*
X129000548Y-35377408D01*
X128997414Y-35620136D01*
X128994667Y-35909398D01*
X128992287Y-36247804D01*
X128990257Y-36637965D01*
X128988558Y-37082490D01*
X128987172Y-37583990D01*
X128986080Y-38145076D01*
X128985264Y-38768356D01*
X128984705Y-39456441D01*
X128984385Y-40211942D01*
X128984286Y-41016286D01*
X128984442Y-41683443D01*
X128984898Y-42330930D01*
X128985639Y-42955026D01*
X128986648Y-43552016D01*
X128987909Y-44118180D01*
X128989407Y-44649801D01*
X128991124Y-45143162D01*
X128993044Y-45594543D01*
X128995152Y-46000228D01*
X128997431Y-46356499D01*
X128999865Y-46659638D01*
X129002438Y-46905927D01*
X129005134Y-47091647D01*
X129007936Y-47213083D01*
X129010828Y-47266514D01*
X129011500Y-47268791D01*
X129064753Y-47279535D01*
X129174902Y-47288991D01*
X129326279Y-47296764D01*
X129503214Y-47302462D01*
X129690038Y-47305690D01*
X129871081Y-47306056D01*
X130030676Y-47303166D01*
X130145429Y-47297266D01*
X130417572Y-47275571D01*
X130426746Y-41010320D01*
X130435920Y-34745068D01*
X130161379Y-34719342D01*
X130015330Y-34710207D01*
X129838896Y-34706040D01*
X129647832Y-34706386D01*
X129647832Y-34706386D01*
G37*
X129647832Y-34706386D02*
X129457892Y-34710788D01*
X129284831Y-34718791D01*
X129144403Y-34729940D01*
X129052362Y-34743778D01*
X129028497Y-34752102D01*
X129022658Y-34770435D01*
X129017316Y-34819641D01*
X129012453Y-34902332D01*
X129008049Y-35021117D01*
X129004087Y-35178605D01*
X129000548Y-35377408D01*
X128997414Y-35620136D01*
X128994667Y-35909398D01*
X128992287Y-36247804D01*
X128990257Y-36637965D01*
X128988558Y-37082490D01*
X128987172Y-37583990D01*
X128986080Y-38145076D01*
X128985264Y-38768356D01*
X128984705Y-39456441D01*
X128984385Y-40211942D01*
X128984286Y-41016286D01*
X128984442Y-41683443D01*
X128984898Y-42330930D01*
X128985639Y-42955026D01*
X128986648Y-43552016D01*
X128987909Y-44118180D01*
X128989407Y-44649801D01*
X128991124Y-45143162D01*
X128993044Y-45594543D01*
X128995152Y-46000228D01*
X128997431Y-46356499D01*
X128999865Y-46659638D01*
X129002438Y-46905927D01*
X129005134Y-47091647D01*
X129007936Y-47213083D01*
X129010828Y-47266514D01*
X129011500Y-47268791D01*
X129064753Y-47279535D01*
X129174902Y-47288991D01*
X129326279Y-47296764D01*
X129503214Y-47302462D01*
X129690038Y-47305690D01*
X129871081Y-47306056D01*
X130030676Y-47303166D01*
X130145429Y-47297266D01*
X130417572Y-47275571D01*
X130426746Y-41010320D01*
X130435920Y-34745068D01*
X130161379Y-34719342D01*
X130015330Y-34710207D01*
X129838896Y-34706040D01*
X129647832Y-34706386D01*
G36*
X130878201Y-34820198D02*
X130872328Y-34848499D01*
X130866992Y-34899322D01*
X130862167Y-34975656D01*
X130857830Y-35080491D01*
X130853957Y-35216816D01*
X130850524Y-35387622D01*
X130847506Y-35595898D01*
X130844880Y-35844634D01*
X130842621Y-36136820D01*
X130840706Y-36475445D01*
X130839110Y-36863498D01*
X130837810Y-37303971D01*
X130836781Y-37799852D01*
X130835999Y-38354131D01*
X130835440Y-38969798D01*
X130835080Y-39649842D01*
X130834896Y-40397254D01*
X130834858Y-40996001D01*
X130835015Y-41660318D01*
X130835475Y-42304947D01*
X130836222Y-42926155D01*
X130837239Y-43520209D01*
X130838510Y-44083374D01*
X130840019Y-44611919D01*
X130841749Y-45102108D01*
X130843684Y-45550209D01*
X130845807Y-45952488D01*
X130848102Y-46305211D01*
X130850553Y-46604645D01*
X130853143Y-46847057D01*
X130855856Y-47028712D01*
X130858676Y-47145878D01*
X130861585Y-47194821D01*
X130862072Y-47196080D01*
X130907021Y-47194427D01*
X131004913Y-47177095D01*
X131138636Y-47147363D01*
X131215858Y-47128292D01*
X131833772Y-46935942D01*
X132431079Y-46681285D01*
X132997671Y-46369804D01*
X133523441Y-46006980D01*
X133946358Y-45647669D01*
X134136858Y-45468901D01*
X134136858Y-36533001D01*
X133928215Y-36350338D01*
X133755229Y-36204068D01*
X133567054Y-36053733D01*
X133373729Y-35906448D01*
X133185294Y-35769325D01*
X133011788Y-35649477D01*
X132863251Y-35554018D01*
X132749723Y-35490060D01*
X132681244Y-35464718D01*
X132678026Y-35464571D01*
X132674494Y-35500150D01*
X132671076Y-35604060D01*
X132667799Y-35772061D01*
X132664689Y-35999912D01*
X132661771Y-36283372D01*
X132659073Y-36618203D01*
X132656621Y-37000162D01*
X132654440Y-37425010D01*
X132652558Y-37888507D01*
X132651000Y-38386411D01*
X132649793Y-38914483D01*
X132648964Y-39468483D01*
X132648537Y-40044169D01*
X132648491Y-40227071D01*
X132647839Y-44989571D01*
X132467191Y-45107694D01*
X132286542Y-45225817D01*
X132277343Y-40233448D01*
X132268143Y-35241079D01*
X131941572Y-35113658D01*
X131787773Y-35057690D01*
X131607069Y-34998163D01*
X131415922Y-34939785D01*
X131230796Y-34887263D01*
X131068155Y-34845305D01*
X130944463Y-34818618D01*
X130884633Y-34811428D01*
X130878201Y-34820198D01*
X130878201Y-34820198D01*
G37*
X130878201Y-34820198D02*
X130872328Y-34848499D01*
X130866992Y-34899322D01*
X130862167Y-34975656D01*
X130857830Y-35080491D01*
X130853957Y-35216816D01*
X130850524Y-35387622D01*
X130847506Y-35595898D01*
X130844880Y-35844634D01*
X130842621Y-36136820D01*
X130840706Y-36475445D01*
X130839110Y-36863498D01*
X130837810Y-37303971D01*
X130836781Y-37799852D01*
X130835999Y-38354131D01*
X130835440Y-38969798D01*
X130835080Y-39649842D01*
X130834896Y-40397254D01*
X130834858Y-40996001D01*
X130835015Y-41660318D01*
X130835475Y-42304947D01*
X130836222Y-42926155D01*
X130837239Y-43520209D01*
X130838510Y-44083374D01*
X130840019Y-44611919D01*
X130841749Y-45102108D01*
X130843684Y-45550209D01*
X130845807Y-45952488D01*
X130848102Y-46305211D01*
X130850553Y-46604645D01*
X130853143Y-46847057D01*
X130855856Y-47028712D01*
X130858676Y-47145878D01*
X130861585Y-47194821D01*
X130862072Y-47196080D01*
X130907021Y-47194427D01*
X131004913Y-47177095D01*
X131138636Y-47147363D01*
X131215858Y-47128292D01*
X131833772Y-46935942D01*
X132431079Y-46681285D01*
X132997671Y-46369804D01*
X133523441Y-46006980D01*
X133946358Y-45647669D01*
X134136858Y-45468901D01*
X134136858Y-36533001D01*
X133928215Y-36350338D01*
X133755229Y-36204068D01*
X133567054Y-36053733D01*
X133373729Y-35906448D01*
X133185294Y-35769325D01*
X133011788Y-35649477D01*
X132863251Y-35554018D01*
X132749723Y-35490060D01*
X132681244Y-35464718D01*
X132678026Y-35464571D01*
X132674494Y-35500150D01*
X132671076Y-35604060D01*
X132667799Y-35772061D01*
X132664689Y-35999912D01*
X132661771Y-36283372D01*
X132659073Y-36618203D01*
X132656621Y-37000162D01*
X132654440Y-37425010D01*
X132652558Y-37888507D01*
X132651000Y-38386411D01*
X132649793Y-38914483D01*
X132648964Y-39468483D01*
X132648537Y-40044169D01*
X132648491Y-40227071D01*
X132647839Y-44989571D01*
X132467191Y-45107694D01*
X132286542Y-45225817D01*
X132277343Y-40233448D01*
X132268143Y-35241079D01*
X131941572Y-35113658D01*
X131787773Y-35057690D01*
X131607069Y-34998163D01*
X131415922Y-34939785D01*
X131230796Y-34887263D01*
X131068155Y-34845305D01*
X130944463Y-34818618D01*
X130884633Y-34811428D01*
X130878201Y-34820198D01*
G36*
X128451759Y-34818934D02*
X128317346Y-34847333D01*
X128227985Y-34869482D01*
X127641157Y-35052135D01*
X127071888Y-35287211D01*
X126532073Y-35568353D01*
X126033608Y-35889206D01*
X125588387Y-36243415D01*
X125492467Y-36331095D01*
X125246132Y-36562618D01*
X125265000Y-39873286D01*
X126017929Y-39883093D01*
X126770858Y-39892901D01*
X126770858Y-37005551D01*
X126950107Y-36888204D01*
X127049247Y-36825383D01*
X127122534Y-36782798D01*
X127149679Y-36770857D01*
X127153716Y-36805980D01*
X127157487Y-36906699D01*
X127160910Y-37066037D01*
X127163905Y-37277020D01*
X127166392Y-37532672D01*
X127168290Y-37826017D01*
X127169518Y-38150080D01*
X127169997Y-38497884D01*
X127170000Y-38530714D01*
X127170000Y-40290571D01*
X125246857Y-40290571D01*
X125246857Y-42828209D01*
X125247309Y-43252801D01*
X125248612Y-43657498D01*
X125250694Y-44036232D01*
X125253480Y-44382936D01*
X125256895Y-44691540D01*
X125260864Y-44955978D01*
X125265314Y-45170180D01*
X125270169Y-45328079D01*
X125275355Y-45423605D01*
X125279038Y-45449852D01*
X125319201Y-45507722D01*
X125402258Y-45597685D01*
X125514857Y-45705981D01*
X125607045Y-45787857D01*
X126140141Y-46198045D01*
X126713520Y-46548349D01*
X127324575Y-46837423D01*
X127970699Y-47063926D01*
X128210418Y-47129643D01*
X128362788Y-47167844D01*
X128488430Y-47198193D01*
X128571045Y-47216819D01*
X128594215Y-47220812D01*
X128598737Y-47185550D01*
X128603024Y-47083522D01*
X128607015Y-46920534D01*
X128610645Y-46702390D01*
X128613854Y-46434897D01*
X128616580Y-46123859D01*
X128618759Y-45775082D01*
X128620330Y-45394371D01*
X128621231Y-44987532D01*
X128621429Y-44681143D01*
X128621429Y-42141143D01*
X127170000Y-42141143D01*
X127170000Y-45259267D01*
X127042654Y-45184130D01*
X126983443Y-45150070D01*
X126934207Y-45119582D01*
X126894069Y-45086051D01*
X126862152Y-45042865D01*
X126837578Y-44983408D01*
X126819469Y-44901068D01*
X126806949Y-44789231D01*
X126799141Y-44641282D01*
X126795166Y-44450607D01*
X126794148Y-44210594D01*
X126795209Y-43914628D01*
X126797473Y-43556096D01*
X126798814Y-43345871D01*
X126808628Y-41743264D01*
X127705957Y-41733561D01*
X128603286Y-41723857D01*
X128612543Y-38278714D01*
X128613587Y-37784832D01*
X128614035Y-37311587D01*
X128613915Y-36864014D01*
X128613252Y-36447150D01*
X128612073Y-36066032D01*
X128610404Y-35725696D01*
X128608271Y-35431178D01*
X128605701Y-35187514D01*
X128602720Y-34999741D01*
X128599355Y-34872895D01*
X128595631Y-34812012D01*
X128594400Y-34807312D01*
X128549663Y-34804651D01*
X128451759Y-34818934D01*
X128451759Y-34818934D01*
G37*
X128451759Y-34818934D02*
X128317346Y-34847333D01*
X128227985Y-34869482D01*
X127641157Y-35052135D01*
X127071888Y-35287211D01*
X126532073Y-35568353D01*
X126033608Y-35889206D01*
X125588387Y-36243415D01*
X125492467Y-36331095D01*
X125246132Y-36562618D01*
X125265000Y-39873286D01*
X126017929Y-39883093D01*
X126770858Y-39892901D01*
X126770858Y-37005551D01*
X126950107Y-36888204D01*
X127049247Y-36825383D01*
X127122534Y-36782798D01*
X127149679Y-36770857D01*
X127153716Y-36805980D01*
X127157487Y-36906699D01*
X127160910Y-37066037D01*
X127163905Y-37277020D01*
X127166392Y-37532672D01*
X127168290Y-37826017D01*
X127169518Y-38150080D01*
X127169997Y-38497884D01*
X127170000Y-38530714D01*
X127170000Y-40290571D01*
X125246857Y-40290571D01*
X125246857Y-42828209D01*
X125247309Y-43252801D01*
X125248612Y-43657498D01*
X125250694Y-44036232D01*
X125253480Y-44382936D01*
X125256895Y-44691540D01*
X125260864Y-44955978D01*
X125265314Y-45170180D01*
X125270169Y-45328079D01*
X125275355Y-45423605D01*
X125279038Y-45449852D01*
X125319201Y-45507722D01*
X125402258Y-45597685D01*
X125514857Y-45705981D01*
X125607045Y-45787857D01*
X126140141Y-46198045D01*
X126713520Y-46548349D01*
X127324575Y-46837423D01*
X127970699Y-47063926D01*
X128210418Y-47129643D01*
X128362788Y-47167844D01*
X128488430Y-47198193D01*
X128571045Y-47216819D01*
X128594215Y-47220812D01*
X128598737Y-47185550D01*
X128603024Y-47083522D01*
X128607015Y-46920534D01*
X128610645Y-46702390D01*
X128613854Y-46434897D01*
X128616580Y-46123859D01*
X128618759Y-45775082D01*
X128620330Y-45394371D01*
X128621231Y-44987532D01*
X128621429Y-44681143D01*
X128621429Y-42141143D01*
X127170000Y-42141143D01*
X127170000Y-45259267D01*
X127042654Y-45184130D01*
X126983443Y-45150070D01*
X126934207Y-45119582D01*
X126894069Y-45086051D01*
X126862152Y-45042865D01*
X126837578Y-44983408D01*
X126819469Y-44901068D01*
X126806949Y-44789231D01*
X126799141Y-44641282D01*
X126795166Y-44450607D01*
X126794148Y-44210594D01*
X126795209Y-43914628D01*
X126797473Y-43556096D01*
X126798814Y-43345871D01*
X126808628Y-41743264D01*
X127705957Y-41733561D01*
X128603286Y-41723857D01*
X128612543Y-38278714D01*
X128613587Y-37784832D01*
X128614035Y-37311587D01*
X128613915Y-36864014D01*
X128613252Y-36447150D01*
X128612073Y-36066032D01*
X128610404Y-35725696D01*
X128608271Y-35431178D01*
X128605701Y-35187514D01*
X128602720Y-34999741D01*
X128599355Y-34872895D01*
X128595631Y-34812012D01*
X128594400Y-34807312D01*
X128549663Y-34804651D01*
X128451759Y-34818934D01*
G36*
X143333138Y-39555269D02*
X143257163Y-39557239D01*
X143200490Y-39560676D01*
X143173142Y-39564642D01*
X143138876Y-39575602D01*
X143120894Y-39592293D01*
X143112961Y-39624839D01*
X143109749Y-39667566D01*
X143104630Y-39755466D01*
X143292667Y-39755466D01*
X143292667Y-39619999D01*
X143682133Y-39619999D01*
X143682133Y-40111066D01*
X143292667Y-40111066D01*
X143292667Y-39975600D01*
X143106400Y-39975600D01*
X143106400Y-40066921D01*
X143109500Y-40125833D01*
X143119980Y-40158050D01*
X143133185Y-40168521D01*
X143158125Y-40171666D01*
X143210404Y-40174105D01*
X143283572Y-40175848D01*
X143371182Y-40176901D01*
X143466785Y-40177275D01*
X143563933Y-40176977D01*
X143656177Y-40176016D01*
X143737069Y-40174400D01*
X143800160Y-40172138D01*
X143839002Y-40169238D01*
X143847233Y-40167585D01*
X143855578Y-40154682D01*
X143861620Y-40121420D01*
X143865606Y-40064372D01*
X143867783Y-39980115D01*
X143868400Y-39873588D01*
X143867633Y-39759112D01*
X143865178Y-39675172D01*
X143860799Y-39618467D01*
X143854264Y-39585696D01*
X143847233Y-39574432D01*
X143822208Y-39568839D01*
X143769968Y-39564037D01*
X143697159Y-39560122D01*
X143610426Y-39557191D01*
X143516415Y-39555341D01*
X143421770Y-39554668D01*
X143333138Y-39555269D01*
X143333138Y-39555269D01*
G37*
X143333138Y-39555269D02*
X143257163Y-39557239D01*
X143200490Y-39560676D01*
X143173142Y-39564642D01*
X143138876Y-39575602D01*
X143120894Y-39592293D01*
X143112961Y-39624839D01*
X143109749Y-39667566D01*
X143104630Y-39755466D01*
X143292667Y-39755466D01*
X143292667Y-39619999D01*
X143682133Y-39619999D01*
X143682133Y-40111066D01*
X143292667Y-40111066D01*
X143292667Y-39975600D01*
X143106400Y-39975600D01*
X143106400Y-40066921D01*
X143109500Y-40125833D01*
X143119980Y-40158050D01*
X143133185Y-40168521D01*
X143158125Y-40171666D01*
X143210404Y-40174105D01*
X143283572Y-40175848D01*
X143371182Y-40176901D01*
X143466785Y-40177275D01*
X143563933Y-40176977D01*
X143656177Y-40176016D01*
X143737069Y-40174400D01*
X143800160Y-40172138D01*
X143839002Y-40169238D01*
X143847233Y-40167585D01*
X143855578Y-40154682D01*
X143861620Y-40121420D01*
X143865606Y-40064372D01*
X143867783Y-39980115D01*
X143868400Y-39873588D01*
X143867633Y-39759112D01*
X143865178Y-39675172D01*
X143860799Y-39618467D01*
X143854264Y-39585696D01*
X143847233Y-39574432D01*
X143822208Y-39568839D01*
X143769968Y-39564037D01*
X143697159Y-39560122D01*
X143610426Y-39557191D01*
X143516415Y-39555341D01*
X143421770Y-39554668D01*
X143333138Y-39555269D01*
G36*
X142412139Y-39552419D02*
X142331409Y-39553204D01*
X142275473Y-39555113D01*
X142239796Y-39558634D01*
X142219841Y-39564259D01*
X142211074Y-39572479D01*
X142208958Y-39583782D01*
X142208933Y-39586133D01*
X142210801Y-39599959D01*
X142220000Y-39609405D01*
X142241929Y-39615302D01*
X142281984Y-39618479D01*
X142345562Y-39619768D01*
X142429067Y-39619999D01*
X142649200Y-39619999D01*
X142649200Y-39823199D01*
X142242800Y-39823199D01*
X142242800Y-39907866D01*
X142649200Y-39907866D01*
X142649200Y-40111066D01*
X142420600Y-40111066D01*
X142328743Y-40111334D01*
X142265453Y-40112663D01*
X142225432Y-40115835D01*
X142203382Y-40121638D01*
X142194005Y-40130855D01*
X142192002Y-40144272D01*
X142192000Y-40144933D01*
X142193385Y-40156695D01*
X142200525Y-40165364D01*
X142217895Y-40171410D01*
X142249972Y-40175304D01*
X142301232Y-40177519D01*
X142376152Y-40178525D01*
X142479208Y-40178792D01*
X142513734Y-40178800D01*
X142835467Y-40178800D01*
X142835467Y-39552266D01*
X142522200Y-39552266D01*
X142412139Y-39552419D01*
X142412139Y-39552419D01*
G37*
X142412139Y-39552419D02*
X142331409Y-39553204D01*
X142275473Y-39555113D01*
X142239796Y-39558634D01*
X142219841Y-39564259D01*
X142211074Y-39572479D01*
X142208958Y-39583782D01*
X142208933Y-39586133D01*
X142210801Y-39599959D01*
X142220000Y-39609405D01*
X142241929Y-39615302D01*
X142281984Y-39618479D01*
X142345562Y-39619768D01*
X142429067Y-39619999D01*
X142649200Y-39619999D01*
X142649200Y-39823199D01*
X142242800Y-39823199D01*
X142242800Y-39907866D01*
X142649200Y-39907866D01*
X142649200Y-40111066D01*
X142420600Y-40111066D01*
X142328743Y-40111334D01*
X142265453Y-40112663D01*
X142225432Y-40115835D01*
X142203382Y-40121638D01*
X142194005Y-40130855D01*
X142192002Y-40144272D01*
X142192000Y-40144933D01*
X142193385Y-40156695D01*
X142200525Y-40165364D01*
X142217895Y-40171410D01*
X142249972Y-40175304D01*
X142301232Y-40177519D01*
X142376152Y-40178525D01*
X142479208Y-40178792D01*
X142513734Y-40178800D01*
X142835467Y-40178800D01*
X142835467Y-39552266D01*
X142522200Y-39552266D01*
X142412139Y-39552419D01*
G36*
X141648429Y-39734299D02*
X141596237Y-39802330D01*
X141551043Y-39861001D01*
X141517038Y-39904889D01*
X141498413Y-39928570D01*
X141496716Y-39930623D01*
X141482730Y-39923030D01*
X141452506Y-39892543D01*
X141409925Y-39843511D01*
X141358866Y-39780283D01*
X141334430Y-39748715D01*
X141184467Y-39552518D01*
X141006667Y-39552266D01*
X141006667Y-40178800D01*
X141191824Y-40178800D01*
X141201400Y-39806036D01*
X141328368Y-39967018D01*
X141379770Y-40029438D01*
X141426018Y-40080581D01*
X141462063Y-40115188D01*
X141482856Y-40127999D01*
X141482923Y-40128000D01*
X141503647Y-40115467D01*
X141540098Y-40081282D01*
X141587258Y-40030562D01*
X141640112Y-39968424D01*
X141643822Y-39963870D01*
X141777133Y-39799740D01*
X141786709Y-40178800D01*
X141954933Y-40178800D01*
X141954933Y-39552266D01*
X141787820Y-39552266D01*
X141648429Y-39734299D01*
X141648429Y-39734299D01*
G37*
X141648429Y-39734299D02*
X141596237Y-39802330D01*
X141551043Y-39861001D01*
X141517038Y-39904889D01*
X141498413Y-39928570D01*
X141496716Y-39930623D01*
X141482730Y-39923030D01*
X141452506Y-39892543D01*
X141409925Y-39843511D01*
X141358866Y-39780283D01*
X141334430Y-39748715D01*
X141184467Y-39552518D01*
X141006667Y-39552266D01*
X141006667Y-40178800D01*
X141191824Y-40178800D01*
X141201400Y-39806036D01*
X141328368Y-39967018D01*
X141379770Y-40029438D01*
X141426018Y-40080581D01*
X141462063Y-40115188D01*
X141482856Y-40127999D01*
X141482923Y-40128000D01*
X141503647Y-40115467D01*
X141540098Y-40081282D01*
X141587258Y-40030562D01*
X141640112Y-39968424D01*
X141643822Y-39963870D01*
X141777133Y-39799740D01*
X141786709Y-40178800D01*
X141954933Y-40178800D01*
X141954933Y-39552266D01*
X141787820Y-39552266D01*
X141648429Y-39734299D01*
G36*
X140222705Y-39561308D02*
X140126393Y-39562912D01*
X140045991Y-39565365D01*
X139987091Y-39568487D01*
X139955286Y-39572096D01*
X139952567Y-39572901D01*
X139941653Y-39580377D01*
X139933776Y-39595712D01*
X139928452Y-39623785D01*
X139925198Y-39669474D01*
X139923529Y-39737657D01*
X139922961Y-39833213D01*
X139922934Y-39871656D01*
X139923322Y-39978305D01*
X139924772Y-40055803D01*
X139927709Y-40108862D01*
X139932556Y-40142192D01*
X139939740Y-40160504D01*
X139949685Y-40168508D01*
X139949718Y-40168521D01*
X139974355Y-40171559D01*
X140026583Y-40173944D01*
X140100202Y-40175683D01*
X140189012Y-40176785D01*
X140286813Y-40177257D01*
X140387403Y-40177106D01*
X140484582Y-40176341D01*
X140572150Y-40174968D01*
X140643906Y-40172995D01*
X140693649Y-40170430D01*
X140714567Y-40167585D01*
X140722890Y-40154713D01*
X140728923Y-40121525D01*
X140732911Y-40064597D01*
X140735099Y-39980509D01*
X140735733Y-39872057D01*
X140735425Y-39766297D01*
X140734176Y-39689525D01*
X140731505Y-39636868D01*
X140729196Y-39619999D01*
X140549467Y-39619999D01*
X140549467Y-40111066D01*
X140109200Y-40111066D01*
X140109200Y-39619999D01*
X140549467Y-39619999D01*
X140729196Y-39619999D01*
X140726929Y-39603450D01*
X140719965Y-39584397D01*
X140710129Y-39574835D01*
X140706100Y-39572901D01*
X140680716Y-39569213D01*
X140627058Y-39565973D01*
X140550721Y-39563364D01*
X140457295Y-39561566D01*
X140352375Y-39560759D01*
X140329333Y-39560733D01*
X140222705Y-39561308D01*
X140222705Y-39561308D01*
G37*
X140222705Y-39561308D02*
X140126393Y-39562912D01*
X140045991Y-39565365D01*
X139987091Y-39568487D01*
X139955286Y-39572096D01*
X139952567Y-39572901D01*
X139941653Y-39580377D01*
X139933776Y-39595712D01*
X139928452Y-39623785D01*
X139925198Y-39669474D01*
X139923529Y-39737657D01*
X139922961Y-39833213D01*
X139922934Y-39871656D01*
X139923322Y-39978305D01*
X139924772Y-40055803D01*
X139927709Y-40108862D01*
X139932556Y-40142192D01*
X139939740Y-40160504D01*
X139949685Y-40168508D01*
X139949718Y-40168521D01*
X139974355Y-40171559D01*
X140026583Y-40173944D01*
X140100202Y-40175683D01*
X140189012Y-40176785D01*
X140286813Y-40177257D01*
X140387403Y-40177106D01*
X140484582Y-40176341D01*
X140572150Y-40174968D01*
X140643906Y-40172995D01*
X140693649Y-40170430D01*
X140714567Y-40167585D01*
X140722890Y-40154713D01*
X140728923Y-40121525D01*
X140732911Y-40064597D01*
X140735099Y-39980509D01*
X140735733Y-39872057D01*
X140735425Y-39766297D01*
X140734176Y-39689525D01*
X140731505Y-39636868D01*
X140729196Y-39619999D01*
X140549467Y-39619999D01*
X140549467Y-40111066D01*
X140109200Y-40111066D01*
X140109200Y-39619999D01*
X140549467Y-39619999D01*
X140729196Y-39619999D01*
X140726929Y-39603450D01*
X140719965Y-39584397D01*
X140710129Y-39574835D01*
X140706100Y-39572901D01*
X140680716Y-39569213D01*
X140627058Y-39565973D01*
X140550721Y-39563364D01*
X140457295Y-39561566D01*
X140352375Y-39560759D01*
X140329333Y-39560733D01*
X140222705Y-39561308D01*
G36*
X139224784Y-39555175D02*
X139110712Y-39557467D01*
X139026093Y-39560675D01*
X138966522Y-39566492D01*
X138927594Y-39576606D01*
X138904903Y-39592706D01*
X138894045Y-39616484D01*
X138890614Y-39649628D01*
X138890259Y-39683499D01*
X138890000Y-39755466D01*
X139076267Y-39755466D01*
X139076267Y-39619999D01*
X139465734Y-39619999D01*
X139465734Y-39733393D01*
X139215967Y-39830692D01*
X139106888Y-39873360D01*
X139025342Y-39906466D01*
X138967324Y-39932795D01*
X138928830Y-39955131D01*
X138905855Y-39976256D01*
X138894394Y-39998955D01*
X138890444Y-40026010D01*
X138890000Y-40057270D01*
X138894025Y-40109479D01*
X138904213Y-40148617D01*
X138910320Y-40158479D01*
X138930011Y-40166135D01*
X138973322Y-40171726D01*
X139042807Y-40175388D01*
X139141022Y-40177254D01*
X139270153Y-40177463D01*
X139374922Y-40176644D01*
X139468707Y-40175142D01*
X139546018Y-40173106D01*
X139601360Y-40170688D01*
X139629243Y-40168038D01*
X139630834Y-40167585D01*
X139644450Y-40145044D01*
X139651359Y-40094262D01*
X139652000Y-40067322D01*
X139652000Y-39975600D01*
X139465734Y-39975600D01*
X139465734Y-40111066D01*
X139076267Y-40111066D01*
X139076267Y-39996163D01*
X139342967Y-39890080D01*
X139432724Y-39853907D01*
X139512272Y-39820964D01*
X139575898Y-39793686D01*
X139617887Y-39774509D01*
X139631624Y-39767002D01*
X139645922Y-39736332D01*
X139649143Y-39677223D01*
X139648557Y-39664837D01*
X139644007Y-39613919D01*
X139633799Y-39586507D01*
X139611394Y-39572254D01*
X139585258Y-39564642D01*
X139549453Y-39560031D01*
X139486628Y-39556641D01*
X139403615Y-39554651D01*
X139307244Y-39554240D01*
X139224784Y-39555175D01*
X139224784Y-39555175D01*
G37*
X139224784Y-39555175D02*
X139110712Y-39557467D01*
X139026093Y-39560675D01*
X138966522Y-39566492D01*
X138927594Y-39576606D01*
X138904903Y-39592706D01*
X138894045Y-39616484D01*
X138890614Y-39649628D01*
X138890259Y-39683499D01*
X138890000Y-39755466D01*
X139076267Y-39755466D01*
X139076267Y-39619999D01*
X139465734Y-39619999D01*
X139465734Y-39733393D01*
X139215967Y-39830692D01*
X139106888Y-39873360D01*
X139025342Y-39906466D01*
X138967324Y-39932795D01*
X138928830Y-39955131D01*
X138905855Y-39976256D01*
X138894394Y-39998955D01*
X138890444Y-40026010D01*
X138890000Y-40057270D01*
X138894025Y-40109479D01*
X138904213Y-40148617D01*
X138910320Y-40158479D01*
X138930011Y-40166135D01*
X138973322Y-40171726D01*
X139042807Y-40175388D01*
X139141022Y-40177254D01*
X139270153Y-40177463D01*
X139374922Y-40176644D01*
X139468707Y-40175142D01*
X139546018Y-40173106D01*
X139601360Y-40170688D01*
X139629243Y-40168038D01*
X139630834Y-40167585D01*
X139644450Y-40145044D01*
X139651359Y-40094262D01*
X139652000Y-40067322D01*
X139652000Y-39975600D01*
X139465734Y-39975600D01*
X139465734Y-40111066D01*
X139076267Y-40111066D01*
X139076267Y-39996163D01*
X139342967Y-39890080D01*
X139432724Y-39853907D01*
X139512272Y-39820964D01*
X139575898Y-39793686D01*
X139617887Y-39774509D01*
X139631624Y-39767002D01*
X139645922Y-39736332D01*
X139649143Y-39677223D01*
X139648557Y-39664837D01*
X139644007Y-39613919D01*
X139633799Y-39586507D01*
X139611394Y-39572254D01*
X139585258Y-39564642D01*
X139549453Y-39560031D01*
X139486628Y-39556641D01*
X139403615Y-39554651D01*
X139307244Y-39554240D01*
X139224784Y-39555175D01*
G36*
X138466251Y-37245100D02*
X138523439Y-37404353D01*
X138600247Y-37575354D01*
X138691875Y-37749786D01*
X138793521Y-37919331D01*
X138900385Y-38075674D01*
X139007666Y-38210496D01*
X139050867Y-38257841D01*
X139083802Y-38293361D01*
X139124220Y-38338366D01*
X139135561Y-38351241D01*
X139182530Y-38400501D01*
X139247314Y-38462622D01*
X139321157Y-38529468D01*
X139395301Y-38592904D01*
X139398851Y-38595834D01*
X139433083Y-38622148D01*
X139484838Y-38659816D01*
X139543599Y-38701200D01*
X139550400Y-38705900D01*
X139603314Y-38742853D01*
X139644710Y-38772630D01*
X139667206Y-38789897D01*
X139668934Y-38791541D01*
X139688021Y-38805280D01*
X139724959Y-38827339D01*
X139736667Y-38833875D01*
X139776367Y-38856585D01*
X139801586Y-38872637D01*
X139804400Y-38874933D01*
X139822098Y-38885348D01*
X139863887Y-38907337D01*
X139923424Y-38937623D01*
X139990667Y-38971108D01*
X140191349Y-39061453D01*
X140397224Y-39138111D01*
X140597906Y-39197536D01*
X140752667Y-39231158D01*
X140820868Y-39243802D01*
X140884840Y-39256812D01*
X140922000Y-39265269D01*
X140959879Y-39270740D01*
X141024654Y-39275952D01*
X141109356Y-39280697D01*
X141207014Y-39284769D01*
X141310659Y-39287958D01*
X141413320Y-39290057D01*
X141508028Y-39290858D01*
X141587813Y-39290153D01*
X141645704Y-39287735D01*
X141653493Y-39287080D01*
X141701816Y-39280335D01*
X141723143Y-39269879D01*
X141724344Y-39252174D01*
X141723926Y-39250807D01*
X141707909Y-39206039D01*
X141681199Y-39137544D01*
X141646774Y-39052580D01*
X141607609Y-38958405D01*
X141566681Y-38862278D01*
X141532390Y-38783691D01*
X141508918Y-38727849D01*
X141494022Y-38681407D01*
X141485919Y-38633666D01*
X141482827Y-38573932D01*
X141482963Y-38491508D01*
X141483013Y-38487357D01*
X141485113Y-38394861D01*
X141488873Y-38298245D01*
X141493640Y-38212858D01*
X141496069Y-38180666D01*
X141506912Y-38053666D01*
X141534418Y-38112933D01*
X141552606Y-38151818D01*
X141581232Y-38212665D01*
X141616223Y-38286836D01*
X141650091Y-38358466D01*
X141714387Y-38494338D01*
X141766411Y-38604382D01*
X141808404Y-38693366D01*
X141842608Y-38766062D01*
X141871263Y-38827240D01*
X141896612Y-38881671D01*
X141920896Y-38934123D01*
X141938498Y-38972299D01*
X141980203Y-39061870D01*
X142011365Y-39125170D01*
X142035114Y-39166914D01*
X142054581Y-39191813D01*
X142072895Y-39204582D01*
X142093187Y-39209934D01*
X142096615Y-39210391D01*
X142132978Y-39207971D01*
X142191948Y-39196849D01*
X142264117Y-39179366D01*
X142340075Y-39157864D01*
X142410415Y-39134685D01*
X142429687Y-39127495D01*
X142472641Y-39110884D01*
X142112535Y-38387542D01*
X142040215Y-38242229D01*
X141972557Y-38106199D01*
X141911049Y-37982449D01*
X141857179Y-37873979D01*
X141812437Y-37783789D01*
X141778310Y-37714876D01*
X141756289Y-37670241D01*
X141747862Y-37652882D01*
X141747848Y-37652850D01*
X141730195Y-37649714D01*
X141687191Y-37651274D01*
X141626966Y-37657127D01*
X141604470Y-37659962D01*
X141491758Y-37669647D01*
X141386916Y-37665558D01*
X141333537Y-37658812D01*
X141257852Y-37647858D01*
X141184077Y-37637643D01*
X141127619Y-37630298D01*
X141125563Y-37630049D01*
X141075900Y-37621038D01*
X141040404Y-37609160D01*
X141033276Y-37604449D01*
X141003784Y-37590452D01*
X140982114Y-37587468D01*
X140947290Y-37579027D01*
X140891309Y-37556742D01*
X140822064Y-37524174D01*
X140747448Y-37484886D01*
X140718800Y-37468629D01*
X140655322Y-37426493D01*
X140581122Y-37369350D01*
X140508477Y-37307055D01*
X140461894Y-37262366D01*
X140399722Y-37198533D01*
X138452098Y-37198533D01*
X138466251Y-37245100D01*
X138466251Y-37245100D01*
G37*
X138466251Y-37245100D02*
X138523439Y-37404353D01*
X138600247Y-37575354D01*
X138691875Y-37749786D01*
X138793521Y-37919331D01*
X138900385Y-38075674D01*
X139007666Y-38210496D01*
X139050867Y-38257841D01*
X139083802Y-38293361D01*
X139124220Y-38338366D01*
X139135561Y-38351241D01*
X139182530Y-38400501D01*
X139247314Y-38462622D01*
X139321157Y-38529468D01*
X139395301Y-38592904D01*
X139398851Y-38595834D01*
X139433083Y-38622148D01*
X139484838Y-38659816D01*
X139543599Y-38701200D01*
X139550400Y-38705900D01*
X139603314Y-38742853D01*
X139644710Y-38772630D01*
X139667206Y-38789897D01*
X139668934Y-38791541D01*
X139688021Y-38805280D01*
X139724959Y-38827339D01*
X139736667Y-38833875D01*
X139776367Y-38856585D01*
X139801586Y-38872637D01*
X139804400Y-38874933D01*
X139822098Y-38885348D01*
X139863887Y-38907337D01*
X139923424Y-38937623D01*
X139990667Y-38971108D01*
X140191349Y-39061453D01*
X140397224Y-39138111D01*
X140597906Y-39197536D01*
X140752667Y-39231158D01*
X140820868Y-39243802D01*
X140884840Y-39256812D01*
X140922000Y-39265269D01*
X140959879Y-39270740D01*
X141024654Y-39275952D01*
X141109356Y-39280697D01*
X141207014Y-39284769D01*
X141310659Y-39287958D01*
X141413320Y-39290057D01*
X141508028Y-39290858D01*
X141587813Y-39290153D01*
X141645704Y-39287735D01*
X141653493Y-39287080D01*
X141701816Y-39280335D01*
X141723143Y-39269879D01*
X141724344Y-39252174D01*
X141723926Y-39250807D01*
X141707909Y-39206039D01*
X141681199Y-39137544D01*
X141646774Y-39052580D01*
X141607609Y-38958405D01*
X141566681Y-38862278D01*
X141532390Y-38783691D01*
X141508918Y-38727849D01*
X141494022Y-38681407D01*
X141485919Y-38633666D01*
X141482827Y-38573932D01*
X141482963Y-38491508D01*
X141483013Y-38487357D01*
X141485113Y-38394861D01*
X141488873Y-38298245D01*
X141493640Y-38212858D01*
X141496069Y-38180666D01*
X141506912Y-38053666D01*
X141534418Y-38112933D01*
X141552606Y-38151818D01*
X141581232Y-38212665D01*
X141616223Y-38286836D01*
X141650091Y-38358466D01*
X141714387Y-38494338D01*
X141766411Y-38604382D01*
X141808404Y-38693366D01*
X141842608Y-38766062D01*
X141871263Y-38827240D01*
X141896612Y-38881671D01*
X141920896Y-38934123D01*
X141938498Y-38972299D01*
X141980203Y-39061870D01*
X142011365Y-39125170D01*
X142035114Y-39166914D01*
X142054581Y-39191813D01*
X142072895Y-39204582D01*
X142093187Y-39209934D01*
X142096615Y-39210391D01*
X142132978Y-39207971D01*
X142191948Y-39196849D01*
X142264117Y-39179366D01*
X142340075Y-39157864D01*
X142410415Y-39134685D01*
X142429687Y-39127495D01*
X142472641Y-39110884D01*
X142112535Y-38387542D01*
X142040215Y-38242229D01*
X141972557Y-38106199D01*
X141911049Y-37982449D01*
X141857179Y-37873979D01*
X141812437Y-37783789D01*
X141778310Y-37714876D01*
X141756289Y-37670241D01*
X141747862Y-37652882D01*
X141747848Y-37652850D01*
X141730195Y-37649714D01*
X141687191Y-37651274D01*
X141626966Y-37657127D01*
X141604470Y-37659962D01*
X141491758Y-37669647D01*
X141386916Y-37665558D01*
X141333537Y-37658812D01*
X141257852Y-37647858D01*
X141184077Y-37637643D01*
X141127619Y-37630298D01*
X141125563Y-37630049D01*
X141075900Y-37621038D01*
X141040404Y-37609160D01*
X141033276Y-37604449D01*
X141003784Y-37590452D01*
X140982114Y-37587468D01*
X140947290Y-37579027D01*
X140891309Y-37556742D01*
X140822064Y-37524174D01*
X140747448Y-37484886D01*
X140718800Y-37468629D01*
X140655322Y-37426493D01*
X140581122Y-37369350D01*
X140508477Y-37307055D01*
X140461894Y-37262366D01*
X140399722Y-37198533D01*
X138452098Y-37198533D01*
X138466251Y-37245100D01*
G36*
X142221669Y-37450530D02*
X142210022Y-37460015D01*
X142178944Y-37481020D01*
X142161033Y-37486400D01*
X142142335Y-37497701D01*
X142141200Y-37503333D01*
X142127082Y-37517284D01*
X142108745Y-37520266D01*
X142078562Y-37529447D01*
X142069526Y-37540556D01*
X142075203Y-37560066D01*
X142094430Y-37606112D01*
X142125487Y-37674998D01*
X142166655Y-37763032D01*
X142216213Y-37866518D01*
X142272444Y-37981764D01*
X142313648Y-38065032D01*
X142373637Y-38186094D01*
X142428486Y-38297753D01*
X142476425Y-38396337D01*
X142515689Y-38478169D01*
X142544508Y-38539576D01*
X142561117Y-38576882D01*
X142564534Y-38586609D01*
X142574679Y-38603445D01*
X142578065Y-38603999D01*
X142592309Y-38618215D01*
X142609425Y-38653037D01*
X142611695Y-38659033D01*
X142634507Y-38713875D01*
X142665056Y-38777250D01*
X142699312Y-38841990D01*
X142733242Y-38900926D01*
X142762813Y-38946892D01*
X142783994Y-38972719D01*
X142789920Y-38975861D01*
X142814717Y-38967923D01*
X142858564Y-38948009D01*
X142901384Y-38926030D01*
X142952676Y-38897249D01*
X142992376Y-38872845D01*
X143008989Y-38860584D01*
X143010501Y-38835952D01*
X142992061Y-38787677D01*
X142970014Y-38745315D01*
X142934907Y-38681179D01*
X142901105Y-38617388D01*
X142881345Y-38578599D01*
X142858768Y-38535643D01*
X142841239Y-38507201D01*
X142837066Y-38502399D01*
X142824403Y-38484202D01*
X142801125Y-38444098D01*
X142772005Y-38390349D01*
X142768602Y-38383866D01*
X142735480Y-38321023D01*
X142704464Y-38262945D01*
X142682706Y-38222999D01*
X142629711Y-38127958D01*
X142589682Y-38056372D01*
X142559151Y-38002083D01*
X142534651Y-37958933D01*
X142512715Y-37920766D01*
X142506328Y-37909733D01*
X142473540Y-37851353D01*
X142442675Y-37793533D01*
X142432913Y-37774266D01*
X142412111Y-37734160D01*
X142397202Y-37709025D01*
X142395200Y-37706533D01*
X142382671Y-37687235D01*
X142362156Y-37649923D01*
X142356389Y-37638800D01*
X142328311Y-37586514D01*
X142294235Y-37526361D01*
X142282611Y-37506581D01*
X142255890Y-37464329D01*
X142238001Y-37447201D01*
X142221669Y-37450530D01*
X142221669Y-37450530D01*
G37*
X142221669Y-37450530D02*
X142210022Y-37460015D01*
X142178944Y-37481020D01*
X142161033Y-37486400D01*
X142142335Y-37497701D01*
X142141200Y-37503333D01*
X142127082Y-37517284D01*
X142108745Y-37520266D01*
X142078562Y-37529447D01*
X142069526Y-37540556D01*
X142075203Y-37560066D01*
X142094430Y-37606112D01*
X142125487Y-37674998D01*
X142166655Y-37763032D01*
X142216213Y-37866518D01*
X142272444Y-37981764D01*
X142313648Y-38065032D01*
X142373637Y-38186094D01*
X142428486Y-38297753D01*
X142476425Y-38396337D01*
X142515689Y-38478169D01*
X142544508Y-38539576D01*
X142561117Y-38576882D01*
X142564534Y-38586609D01*
X142574679Y-38603445D01*
X142578065Y-38603999D01*
X142592309Y-38618215D01*
X142609425Y-38653037D01*
X142611695Y-38659033D01*
X142634507Y-38713875D01*
X142665056Y-38777250D01*
X142699312Y-38841990D01*
X142733242Y-38900926D01*
X142762813Y-38946892D01*
X142783994Y-38972719D01*
X142789920Y-38975861D01*
X142814717Y-38967923D01*
X142858564Y-38948009D01*
X142901384Y-38926030D01*
X142952676Y-38897249D01*
X142992376Y-38872845D01*
X143008989Y-38860584D01*
X143010501Y-38835952D01*
X142992061Y-38787677D01*
X142970014Y-38745315D01*
X142934907Y-38681179D01*
X142901105Y-38617388D01*
X142881345Y-38578599D01*
X142858768Y-38535643D01*
X142841239Y-38507201D01*
X142837066Y-38502399D01*
X142824403Y-38484202D01*
X142801125Y-38444098D01*
X142772005Y-38390349D01*
X142768602Y-38383866D01*
X142735480Y-38321023D01*
X142704464Y-38262945D01*
X142682706Y-38222999D01*
X142629711Y-38127958D01*
X142589682Y-38056372D01*
X142559151Y-38002083D01*
X142534651Y-37958933D01*
X142512715Y-37920766D01*
X142506328Y-37909733D01*
X142473540Y-37851353D01*
X142442675Y-37793533D01*
X142432913Y-37774266D01*
X142412111Y-37734160D01*
X142397202Y-37709025D01*
X142395200Y-37706533D01*
X142382671Y-37687235D01*
X142362156Y-37649923D01*
X142356389Y-37638800D01*
X142328311Y-37586514D01*
X142294235Y-37526361D01*
X142282611Y-37506581D01*
X142255890Y-37464329D01*
X142238001Y-37447201D01*
X142221669Y-37450530D01*
G36*
X142587829Y-37155161D02*
X142550560Y-37179254D01*
X142500011Y-37226567D01*
X142489526Y-37237372D01*
X142400736Y-37329779D01*
X142493520Y-37480056D01*
X142602088Y-37655821D01*
X142695307Y-37806560D01*
X142775551Y-37936104D01*
X142845192Y-38048287D01*
X142906518Y-38146799D01*
X142949103Y-38215280D01*
X142986618Y-38275938D01*
X143014455Y-38321307D01*
X143026636Y-38341533D01*
X143045182Y-38372114D01*
X143075655Y-38421255D01*
X143111831Y-38478925D01*
X143115958Y-38485466D01*
X143154041Y-38545941D01*
X143188759Y-38601364D01*
X143212976Y-38640341D01*
X143214057Y-38642099D01*
X143237643Y-38673631D01*
X143262107Y-38684450D01*
X143294712Y-38673827D01*
X143342721Y-38641032D01*
X143360400Y-38627396D01*
X143417730Y-38580314D01*
X143475961Y-38529005D01*
X143498936Y-38507435D01*
X143561271Y-38447001D01*
X143498260Y-38360400D01*
X143452151Y-38295755D01*
X143401579Y-38222978D01*
X143372847Y-38180666D01*
X143317723Y-38099145D01*
X143265467Y-38023227D01*
X143219691Y-37958030D01*
X143184006Y-37908672D01*
X143162021Y-37880268D01*
X143157802Y-37875866D01*
X143143015Y-37857277D01*
X143118673Y-37820547D01*
X143108081Y-37803450D01*
X143079164Y-37758877D01*
X143053942Y-37724898D01*
X143048043Y-37718328D01*
X143031264Y-37697203D01*
X142999629Y-37653631D01*
X142957161Y-37593282D01*
X142907883Y-37521826D01*
X142889206Y-37494411D01*
X142817188Y-37388525D01*
X142761454Y-37307351D01*
X142719346Y-37247527D01*
X142688206Y-37205693D01*
X142665374Y-37178486D01*
X142648194Y-37162546D01*
X142634005Y-37154511D01*
X142620150Y-37151019D01*
X142617270Y-37150582D01*
X142587829Y-37155161D01*
X142587829Y-37155161D01*
G37*
X142587829Y-37155161D02*
X142550560Y-37179254D01*
X142500011Y-37226567D01*
X142489526Y-37237372D01*
X142400736Y-37329779D01*
X142493520Y-37480056D01*
X142602088Y-37655821D01*
X142695307Y-37806560D01*
X142775551Y-37936104D01*
X142845192Y-38048287D01*
X142906518Y-38146799D01*
X142949103Y-38215280D01*
X142986618Y-38275938D01*
X143014455Y-38321307D01*
X143026636Y-38341533D01*
X143045182Y-38372114D01*
X143075655Y-38421255D01*
X143111831Y-38478925D01*
X143115958Y-38485466D01*
X143154041Y-38545941D01*
X143188759Y-38601364D01*
X143212976Y-38640341D01*
X143214057Y-38642099D01*
X143237643Y-38673631D01*
X143262107Y-38684450D01*
X143294712Y-38673827D01*
X143342721Y-38641032D01*
X143360400Y-38627396D01*
X143417730Y-38580314D01*
X143475961Y-38529005D01*
X143498936Y-38507435D01*
X143561271Y-38447001D01*
X143498260Y-38360400D01*
X143452151Y-38295755D01*
X143401579Y-38222978D01*
X143372847Y-38180666D01*
X143317723Y-38099145D01*
X143265467Y-38023227D01*
X143219691Y-37958030D01*
X143184006Y-37908672D01*
X143162021Y-37880268D01*
X143157802Y-37875866D01*
X143143015Y-37857277D01*
X143118673Y-37820547D01*
X143108081Y-37803450D01*
X143079164Y-37758877D01*
X143053942Y-37724898D01*
X143048043Y-37718328D01*
X143031264Y-37697203D01*
X142999629Y-37653631D01*
X142957161Y-37593282D01*
X142907883Y-37521826D01*
X142889206Y-37494411D01*
X142817188Y-37388525D01*
X142761454Y-37307351D01*
X142719346Y-37247527D01*
X142688206Y-37205693D01*
X142665374Y-37178486D01*
X142648194Y-37162546D01*
X142634005Y-37154511D01*
X142620150Y-37151019D01*
X142617270Y-37150582D01*
X142587829Y-37155161D01*
G36*
X142796193Y-36843852D02*
X142762708Y-36850141D01*
X142741674Y-36867096D01*
X142722384Y-36900015D01*
X142717278Y-36909992D01*
X142694755Y-36954574D01*
X142686056Y-36980076D01*
X142690721Y-36998121D01*
X142708289Y-37020335D01*
X142712700Y-37025570D01*
X142733704Y-37052865D01*
X142769142Y-37101193D01*
X142814111Y-37163784D01*
X142863705Y-37233871D01*
X142864915Y-37235594D01*
X142927827Y-37324965D01*
X143000035Y-37427165D01*
X143071130Y-37527481D01*
X143114163Y-37588000D01*
X143163992Y-37658050D01*
X143208221Y-37720424D01*
X143242295Y-37768685D01*
X143261657Y-37796392D01*
X143262515Y-37797648D01*
X143281854Y-37825109D01*
X143315376Y-37871823D01*
X143357268Y-37929709D01*
X143378225Y-37958515D01*
X143425009Y-38023858D01*
X143468738Y-38086924D01*
X143502203Y-38137249D01*
X143510718Y-38150836D01*
X143548086Y-38197216D01*
X143592572Y-38232943D01*
X143602960Y-38238390D01*
X143662412Y-38263686D01*
X143703425Y-38272811D01*
X143736278Y-38263155D01*
X143771249Y-38232112D01*
X143811570Y-38185470D01*
X143852721Y-38137636D01*
X143886036Y-38101071D01*
X143905185Y-38082678D01*
X143906500Y-38081888D01*
X143919008Y-38062356D01*
X143919671Y-38056488D01*
X143929519Y-38032282D01*
X143954021Y-37993011D01*
X143970471Y-37970216D01*
X143999743Y-37928916D01*
X144017893Y-37898276D01*
X144020800Y-37889783D01*
X144005147Y-37883564D01*
X143963296Y-37878750D01*
X143902909Y-37876068D01*
X143872633Y-37875750D01*
X143724467Y-37875635D01*
X143682133Y-37812265D01*
X143646170Y-37762659D01*
X143609641Y-37718477D01*
X143601700Y-37710011D01*
X143575269Y-37679686D01*
X143563608Y-37659677D01*
X143563579Y-37659196D01*
X143553619Y-37639426D01*
X143529286Y-37606833D01*
X143525479Y-37602276D01*
X143490694Y-37558921D01*
X143462000Y-37519768D01*
X143434326Y-37482309D01*
X143415433Y-37460134D01*
X143397302Y-37435903D01*
X143394267Y-37427133D01*
X143384333Y-37406781D01*
X143373100Y-37392517D01*
X143350846Y-37365227D01*
X143318374Y-37322880D01*
X143301134Y-37299695D01*
X143260414Y-37246333D01*
X143211338Y-37184758D01*
X143182600Y-37149908D01*
X143138041Y-37094483D01*
X143085465Y-37025707D01*
X143036009Y-36958158D01*
X143034526Y-36956072D01*
X142954185Y-36842933D01*
X142852837Y-36842933D01*
X142796193Y-36843852D01*
X142796193Y-36843852D01*
G37*
X142796193Y-36843852D02*
X142762708Y-36850141D01*
X142741674Y-36867096D01*
X142722384Y-36900015D01*
X142717278Y-36909992D01*
X142694755Y-36954574D01*
X142686056Y-36980076D01*
X142690721Y-36998121D01*
X142708289Y-37020335D01*
X142712700Y-37025570D01*
X142733704Y-37052865D01*
X142769142Y-37101193D01*
X142814111Y-37163784D01*
X142863705Y-37233871D01*
X142864915Y-37235594D01*
X142927827Y-37324965D01*
X143000035Y-37427165D01*
X143071130Y-37527481D01*
X143114163Y-37588000D01*
X143163992Y-37658050D01*
X143208221Y-37720424D01*
X143242295Y-37768685D01*
X143261657Y-37796392D01*
X143262515Y-37797648D01*
X143281854Y-37825109D01*
X143315376Y-37871823D01*
X143357268Y-37929709D01*
X143378225Y-37958515D01*
X143425009Y-38023858D01*
X143468738Y-38086924D01*
X143502203Y-38137249D01*
X143510718Y-38150836D01*
X143548086Y-38197216D01*
X143592572Y-38232943D01*
X143602960Y-38238390D01*
X143662412Y-38263686D01*
X143703425Y-38272811D01*
X143736278Y-38263155D01*
X143771249Y-38232112D01*
X143811570Y-38185470D01*
X143852721Y-38137636D01*
X143886036Y-38101071D01*
X143905185Y-38082678D01*
X143906500Y-38081888D01*
X143919008Y-38062356D01*
X143919671Y-38056488D01*
X143929519Y-38032282D01*
X143954021Y-37993011D01*
X143970471Y-37970216D01*
X143999743Y-37928916D01*
X144017893Y-37898276D01*
X144020800Y-37889783D01*
X144005147Y-37883564D01*
X143963296Y-37878750D01*
X143902909Y-37876068D01*
X143872633Y-37875750D01*
X143724467Y-37875635D01*
X143682133Y-37812265D01*
X143646170Y-37762659D01*
X143609641Y-37718477D01*
X143601700Y-37710011D01*
X143575269Y-37679686D01*
X143563608Y-37659677D01*
X143563579Y-37659196D01*
X143553619Y-37639426D01*
X143529286Y-37606833D01*
X143525479Y-37602276D01*
X143490694Y-37558921D01*
X143462000Y-37519768D01*
X143434326Y-37482309D01*
X143415433Y-37460134D01*
X143397302Y-37435903D01*
X143394267Y-37427133D01*
X143384333Y-37406781D01*
X143373100Y-37392517D01*
X143350846Y-37365227D01*
X143318374Y-37322880D01*
X143301134Y-37299695D01*
X143260414Y-37246333D01*
X143211338Y-37184758D01*
X143182600Y-37149908D01*
X143138041Y-37094483D01*
X143085465Y-37025707D01*
X143036009Y-36958158D01*
X143034526Y-36956072D01*
X142954185Y-36842933D01*
X142852837Y-36842933D01*
X142796193Y-36843852D01*
G36*
X141211958Y-33471199D02*
X141133715Y-33472228D01*
X141077434Y-33474277D01*
X141039150Y-33477509D01*
X141014897Y-33482087D01*
X141000707Y-33488170D01*
X140998200Y-33490000D01*
X140972865Y-33499150D01*
X140925849Y-33508002D01*
X140888133Y-33512543D01*
X140771001Y-33526719D01*
X140684197Y-33544057D01*
X140642600Y-33557859D01*
X140605418Y-33568944D01*
X140551620Y-33579666D01*
X140528695Y-33583083D01*
X140479532Y-33592442D01*
X140445938Y-33604106D01*
X140438796Y-33609645D01*
X140415970Y-33621982D01*
X140387601Y-33625600D01*
X140356259Y-33631523D01*
X140346267Y-33642533D01*
X140331552Y-33654422D01*
X140296099Y-33659465D01*
X140295467Y-33659466D01*
X140259798Y-33664371D01*
X140244671Y-33676189D01*
X140244667Y-33676400D01*
X140230176Y-33689129D01*
X140202333Y-33693333D01*
X140170511Y-33699129D01*
X140160000Y-33710266D01*
X140145818Y-33724024D01*
X140126133Y-33727200D01*
X140098617Y-33734291D01*
X140092267Y-33744133D01*
X140078129Y-33758027D01*
X140059400Y-33761066D01*
X140027413Y-33768213D01*
X140016872Y-33776697D01*
X139994813Y-33791165D01*
X139956606Y-33803442D01*
X139921139Y-33815727D01*
X139906007Y-33829889D01*
X139906000Y-33830145D01*
X139892265Y-33843981D01*
X139880600Y-33845733D01*
X139858043Y-33853194D01*
X139855200Y-33859506D01*
X139841032Y-33873976D01*
X139805966Y-33892398D01*
X139795934Y-33896533D01*
X139757586Y-33914872D01*
X139737522Y-33930893D01*
X139736667Y-33933560D01*
X139723145Y-33946229D01*
X139714460Y-33947333D01*
X139686750Y-33958070D01*
X139655901Y-33981200D01*
X139624040Y-34005743D01*
X139601908Y-34015066D01*
X139584882Y-34026218D01*
X139584267Y-34030164D01*
X139569900Y-34045007D01*
X139541241Y-34056060D01*
X139513037Y-34069201D01*
X139508374Y-34083296D01*
X139506664Y-34098544D01*
X139500793Y-34099733D01*
X139472305Y-34111871D01*
X139427426Y-34145541D01*
X139388853Y-34180166D01*
X139365975Y-34198193D01*
X139358416Y-34201333D01*
X139342066Y-34212879D01*
X139307564Y-34244175D01*
X139259857Y-34290202D01*
X139203893Y-34345944D01*
X139144619Y-34406385D01*
X139086984Y-34466508D01*
X139035934Y-34521295D01*
X138996419Y-34565730D01*
X138982682Y-34582310D01*
X138938621Y-34637638D01*
X138907950Y-34675801D01*
X138883059Y-34706200D01*
X138860367Y-34733430D01*
X138842685Y-34759002D01*
X138839200Y-34768570D01*
X138830275Y-34787252D01*
X138808829Y-34821143D01*
X138782857Y-34858509D01*
X138760354Y-34887614D01*
X138752663Y-34895599D01*
X138736512Y-34917854D01*
X138714177Y-34958014D01*
X138692450Y-35002703D01*
X138678123Y-35038545D01*
X138676150Y-35046304D01*
X138662468Y-35074775D01*
X138656422Y-35080171D01*
X138634222Y-35107298D01*
X138604822Y-35162308D01*
X138570207Y-35240484D01*
X138532357Y-35337111D01*
X138493257Y-35447474D01*
X138463476Y-35539066D01*
X138444591Y-35598884D01*
X138428787Y-35647938D01*
X138419857Y-35674533D01*
X138410177Y-35711092D01*
X138404470Y-35742266D01*
X138395692Y-35784757D01*
X138381084Y-35840669D01*
X138375190Y-35860800D01*
X138360254Y-35927307D01*
X138351023Y-36000777D01*
X138349954Y-36021693D01*
X138346849Y-36080990D01*
X138341487Y-36132717D01*
X138338764Y-36148693D01*
X138333639Y-36191895D01*
X138330925Y-36256692D01*
X138330387Y-36335826D01*
X138331789Y-36422037D01*
X138334895Y-36508067D01*
X138339469Y-36586655D01*
X138345274Y-36650543D01*
X138352075Y-36692472D01*
X138356838Y-36704427D01*
X138374049Y-36705186D01*
X138423196Y-36706144D01*
X138502351Y-36707282D01*
X138609584Y-36708584D01*
X138742965Y-36710030D01*
X138900566Y-36711605D01*
X139080457Y-36713289D01*
X139280709Y-36715065D01*
X139499392Y-36716915D01*
X139734577Y-36718823D01*
X139984335Y-36720769D01*
X140246737Y-36722736D01*
X140519852Y-36724708D01*
X140712939Y-36726056D01*
X143064067Y-36742258D01*
X143115154Y-36796829D01*
X143149775Y-36836185D01*
X143196191Y-36892066D01*
X143245749Y-36954002D01*
X143258181Y-36969933D01*
X143302935Y-37026892D01*
X143342550Y-37075993D01*
X143370484Y-37109173D01*
X143376427Y-37115674D01*
X143392397Y-37132670D01*
X143411281Y-37154061D01*
X143436998Y-37184540D01*
X143473471Y-37228802D01*
X143524620Y-37291541D01*
X143569755Y-37347116D01*
X143669043Y-37469466D01*
X144253371Y-37469466D01*
X144304996Y-37329766D01*
X144336005Y-37244834D01*
X144357333Y-37183232D01*
X144371564Y-37136722D01*
X144381282Y-37097066D01*
X144386763Y-37069084D01*
X144394937Y-37024011D01*
X144066182Y-37033540D01*
X143737427Y-37043070D01*
X143637814Y-36932197D01*
X143589370Y-36877766D01*
X143547187Y-36829455D01*
X143518318Y-36795369D01*
X143512800Y-36788476D01*
X143487861Y-36758423D01*
X143449340Y-36714304D01*
X143415433Y-36676550D01*
X143378025Y-36633795D01*
X143352002Y-36600900D01*
X143343467Y-36586224D01*
X143332816Y-36577157D01*
X143299304Y-36569249D01*
X143240592Y-36562269D01*
X143154341Y-36555988D01*
X143038212Y-36550175D01*
X142937067Y-36546232D01*
X142834035Y-36541790D01*
X142734426Y-36536135D01*
X142646873Y-36529852D01*
X142580006Y-36523528D01*
X142556067Y-36520384D01*
X142493727Y-36513241D01*
X142410999Y-36507270D01*
X142321360Y-36503338D01*
X142276667Y-36502391D01*
X142196865Y-36500434D01*
X142150879Y-36496883D01*
X142138694Y-36491735D01*
X142149667Y-36487333D01*
X142176966Y-36484568D01*
X142234384Y-36481914D01*
X142318174Y-36479442D01*
X142424586Y-36477223D01*
X142549874Y-36475326D01*
X142690289Y-36473824D01*
X142842084Y-36472785D01*
X142941300Y-36472403D01*
X143682133Y-36470400D01*
X143682133Y-36622800D01*
X144456833Y-36622800D01*
X144467417Y-36569883D01*
X144472716Y-36525686D01*
X144476123Y-36461959D01*
X144477630Y-36388369D01*
X144477231Y-36314582D01*
X144474916Y-36250264D01*
X144470678Y-36205081D01*
X144467722Y-36192384D01*
X144460787Y-36183689D01*
X144444823Y-36177071D01*
X144415777Y-36172259D01*
X144369595Y-36168978D01*
X144302226Y-36166957D01*
X144209617Y-36165923D01*
X144087714Y-36165603D01*
X144069788Y-36165600D01*
X143682133Y-36165600D01*
X143682133Y-36318000D01*
X142934245Y-36318000D01*
X142779077Y-36317851D01*
X142635107Y-36317427D01*
X142505702Y-36316758D01*
X142394232Y-36315875D01*
X142304065Y-36314808D01*
X142238569Y-36313589D01*
X142201113Y-36312248D01*
X142193411Y-36311211D01*
X142213538Y-36306610D01*
X142263619Y-36300446D01*
X142339795Y-36293032D01*
X142438205Y-36284679D01*
X142554989Y-36275698D01*
X142686287Y-36266402D01*
X142828239Y-36257101D01*
X142970934Y-36248458D01*
X143318067Y-36228283D01*
X143379287Y-36163429D01*
X143425295Y-36112788D01*
X143469601Y-36061058D01*
X143484052Y-36043187D01*
X143517067Y-36003436D01*
X143563876Y-35949814D01*
X143615049Y-35893098D01*
X143621400Y-35886200D01*
X143664912Y-35837665D01*
X143697807Y-35798299D01*
X143714554Y-35774812D01*
X143715602Y-35771900D01*
X143731826Y-35768093D01*
X143776914Y-35764743D01*
X143845864Y-35762030D01*
X143933676Y-35760137D01*
X144035348Y-35759245D01*
X144064945Y-35759200D01*
X144182006Y-35759028D01*
X144269310Y-35758274D01*
X144330965Y-35756575D01*
X144371082Y-35753570D01*
X144393769Y-35748899D01*
X144403134Y-35742199D01*
X144403288Y-35733110D01*
X144402034Y-35729566D01*
X144391237Y-35697078D01*
X144376192Y-35645331D01*
X144365771Y-35606799D01*
X144344870Y-35535375D01*
X144318540Y-35456166D01*
X144303935Y-35416299D01*
X144266506Y-35318933D01*
X143969616Y-35318933D01*
X143862574Y-35319110D01*
X143784208Y-35320041D01*
X143729328Y-35322328D01*
X143692743Y-35326573D01*
X143669263Y-35333377D01*
X143653698Y-35343342D01*
X143640888Y-35357033D01*
X143609480Y-35393957D01*
X143569535Y-35440107D01*
X143556691Y-35454790D01*
X143513113Y-35506363D01*
X143470580Y-35559586D01*
X143462000Y-35570848D01*
X143425423Y-35617995D01*
X143390474Y-35660661D01*
X143385800Y-35666085D01*
X143350481Y-35706519D01*
X143311367Y-35751211D01*
X143309600Y-35753227D01*
X143271808Y-35798728D01*
X143230344Y-35851953D01*
X143220315Y-35865418D01*
X143184906Y-35911968D01*
X143152577Y-35951876D01*
X143144115Y-35961571D01*
X143112054Y-35997951D01*
X143093033Y-36020452D01*
X143086589Y-36025144D01*
X143074062Y-36029257D01*
X143053363Y-36032829D01*
X143022406Y-36035897D01*
X142979104Y-36038497D01*
X142921370Y-36040669D01*
X142847116Y-36042448D01*
X142754256Y-36043873D01*
X142640703Y-36044980D01*
X142504370Y-36045807D01*
X142343170Y-36046392D01*
X142155015Y-36046771D01*
X141937819Y-36046982D01*
X141689495Y-36047062D01*
X141605297Y-36047066D01*
X140139395Y-36047066D01*
X140150005Y-36000500D01*
X140179932Y-35912406D01*
X140230548Y-35810729D01*
X140296764Y-35703852D01*
X140373492Y-35600158D01*
X140437723Y-35526500D01*
X140579824Y-35392467D01*
X140728406Y-35286204D01*
X140891405Y-35202982D01*
X141076758Y-35138074D01*
X141101577Y-35131100D01*
X141171859Y-35114385D01*
X141243672Y-35103551D01*
X141327107Y-35097582D01*
X141432252Y-35095464D01*
X141456089Y-35095413D01*
X141542778Y-35096230D01*
X141619571Y-35098466D01*
X141678872Y-35101792D01*
X141713087Y-35105883D01*
X141715669Y-35106569D01*
X141724818Y-35107032D01*
X141735553Y-35101207D01*
X141749229Y-35086654D01*
X141767197Y-35060934D01*
X141790813Y-35021610D01*
X141821430Y-34966241D01*
X141860401Y-34892389D01*
X141909080Y-34797616D01*
X141968820Y-34679482D01*
X142040975Y-34535549D01*
X142115799Y-34385644D01*
X142200990Y-34214636D01*
X142271973Y-34071452D01*
X142329677Y-33953618D01*
X142375030Y-33858663D01*
X142408958Y-33784113D01*
X142432390Y-33727496D01*
X142446254Y-33686338D01*
X142451476Y-33658166D01*
X142448986Y-33640509D01*
X142439711Y-33630892D01*
X142424577Y-33626843D01*
X142404514Y-33625890D01*
X142400845Y-33625859D01*
X142369200Y-33619163D01*
X142358511Y-33609481D01*
X142340121Y-33598155D01*
X142298026Y-33584990D01*
X142251267Y-33574783D01*
X142188210Y-33563071D01*
X142132250Y-33552369D01*
X142104773Y-33546892D01*
X142069348Y-33545790D01*
X142051078Y-33567110D01*
X142047486Y-33577356D01*
X142035847Y-33606287D01*
X142012191Y-33659047D01*
X141979527Y-33729117D01*
X141940869Y-33809978D01*
X141923499Y-33845733D01*
X141884096Y-33927501D01*
X141850307Y-33999609D01*
X141824860Y-34056078D01*
X141810486Y-34090928D01*
X141808346Y-34098038D01*
X141792464Y-34127939D01*
X141785280Y-34133798D01*
X141768282Y-34151646D01*
X141767414Y-34156740D01*
X141762515Y-34178063D01*
X141748321Y-34217042D01*
X141744196Y-34227121D01*
X141729042Y-34266668D01*
X141722613Y-34290186D01*
X141722836Y-34292171D01*
X141716258Y-34307731D01*
X141701676Y-34327439D01*
X141679943Y-34362753D01*
X141673168Y-34383379D01*
X141656442Y-34415699D01*
X141647026Y-34423745D01*
X141634264Y-34435987D01*
X141637778Y-34438140D01*
X141638978Y-34451513D01*
X141626633Y-34484865D01*
X141618427Y-34501900D01*
X141598853Y-34543667D01*
X141588813Y-34571866D01*
X141588449Y-34576322D01*
X141580454Y-34596006D01*
X141563508Y-34618655D01*
X141538937Y-34658599D01*
X141522977Y-34700866D01*
X141509805Y-34751666D01*
X141496990Y-34709333D01*
X141492602Y-34678617D01*
X141488651Y-34620704D01*
X141485434Y-34542267D01*
X141483245Y-34449974D01*
X141482488Y-34381746D01*
X141482604Y-34265442D01*
X141484720Y-34178483D01*
X141489136Y-34116392D01*
X141496151Y-34074691D01*
X141504583Y-34051546D01*
X141521719Y-34015664D01*
X141547019Y-33958516D01*
X141576026Y-33890263D01*
X141587447Y-33862666D01*
X141622163Y-33778463D01*
X141659927Y-33687452D01*
X141693435Y-33607224D01*
X141698164Y-33595966D01*
X141749801Y-33473200D01*
X141450201Y-33471559D01*
X141316131Y-33471030D01*
X141211958Y-33471199D01*
X141211958Y-33471199D01*
G37*
X141211958Y-33471199D02*
X141133715Y-33472228D01*
X141077434Y-33474277D01*
X141039150Y-33477509D01*
X141014897Y-33482087D01*
X141000707Y-33488170D01*
X140998200Y-33490000D01*
X140972865Y-33499150D01*
X140925849Y-33508002D01*
X140888133Y-33512543D01*
X140771001Y-33526719D01*
X140684197Y-33544057D01*
X140642600Y-33557859D01*
X140605418Y-33568944D01*
X140551620Y-33579666D01*
X140528695Y-33583083D01*
X140479532Y-33592442D01*
X140445938Y-33604106D01*
X140438796Y-33609645D01*
X140415970Y-33621982D01*
X140387601Y-33625600D01*
X140356259Y-33631523D01*
X140346267Y-33642533D01*
X140331552Y-33654422D01*
X140296099Y-33659465D01*
X140295467Y-33659466D01*
X140259798Y-33664371D01*
X140244671Y-33676189D01*
X140244667Y-33676400D01*
X140230176Y-33689129D01*
X140202333Y-33693333D01*
X140170511Y-33699129D01*
X140160000Y-33710266D01*
X140145818Y-33724024D01*
X140126133Y-33727200D01*
X140098617Y-33734291D01*
X140092267Y-33744133D01*
X140078129Y-33758027D01*
X140059400Y-33761066D01*
X140027413Y-33768213D01*
X140016872Y-33776697D01*
X139994813Y-33791165D01*
X139956606Y-33803442D01*
X139921139Y-33815727D01*
X139906007Y-33829889D01*
X139906000Y-33830145D01*
X139892265Y-33843981D01*
X139880600Y-33845733D01*
X139858043Y-33853194D01*
X139855200Y-33859506D01*
X139841032Y-33873976D01*
X139805966Y-33892398D01*
X139795934Y-33896533D01*
X139757586Y-33914872D01*
X139737522Y-33930893D01*
X139736667Y-33933560D01*
X139723145Y-33946229D01*
X139714460Y-33947333D01*
X139686750Y-33958070D01*
X139655901Y-33981200D01*
X139624040Y-34005743D01*
X139601908Y-34015066D01*
X139584882Y-34026218D01*
X139584267Y-34030164D01*
X139569900Y-34045007D01*
X139541241Y-34056060D01*
X139513037Y-34069201D01*
X139508374Y-34083296D01*
X139506664Y-34098544D01*
X139500793Y-34099733D01*
X139472305Y-34111871D01*
X139427426Y-34145541D01*
X139388853Y-34180166D01*
X139365975Y-34198193D01*
X139358416Y-34201333D01*
X139342066Y-34212879D01*
X139307564Y-34244175D01*
X139259857Y-34290202D01*
X139203893Y-34345944D01*
X139144619Y-34406385D01*
X139086984Y-34466508D01*
X139035934Y-34521295D01*
X138996419Y-34565730D01*
X138982682Y-34582310D01*
X138938621Y-34637638D01*
X138907950Y-34675801D01*
X138883059Y-34706200D01*
X138860367Y-34733430D01*
X138842685Y-34759002D01*
X138839200Y-34768570D01*
X138830275Y-34787252D01*
X138808829Y-34821143D01*
X138782857Y-34858509D01*
X138760354Y-34887614D01*
X138752663Y-34895599D01*
X138736512Y-34917854D01*
X138714177Y-34958014D01*
X138692450Y-35002703D01*
X138678123Y-35038545D01*
X138676150Y-35046304D01*
X138662468Y-35074775D01*
X138656422Y-35080171D01*
X138634222Y-35107298D01*
X138604822Y-35162308D01*
X138570207Y-35240484D01*
X138532357Y-35337111D01*
X138493257Y-35447474D01*
X138463476Y-35539066D01*
X138444591Y-35598884D01*
X138428787Y-35647938D01*
X138419857Y-35674533D01*
X138410177Y-35711092D01*
X138404470Y-35742266D01*
X138395692Y-35784757D01*
X138381084Y-35840669D01*
X138375190Y-35860800D01*
X138360254Y-35927307D01*
X138351023Y-36000777D01*
X138349954Y-36021693D01*
X138346849Y-36080990D01*
X138341487Y-36132717D01*
X138338764Y-36148693D01*
X138333639Y-36191895D01*
X138330925Y-36256692D01*
X138330387Y-36335826D01*
X138331789Y-36422037D01*
X138334895Y-36508067D01*
X138339469Y-36586655D01*
X138345274Y-36650543D01*
X138352075Y-36692472D01*
X138356838Y-36704427D01*
X138374049Y-36705186D01*
X138423196Y-36706144D01*
X138502351Y-36707282D01*
X138609584Y-36708584D01*
X138742965Y-36710030D01*
X138900566Y-36711605D01*
X139080457Y-36713289D01*
X139280709Y-36715065D01*
X139499392Y-36716915D01*
X139734577Y-36718823D01*
X139984335Y-36720769D01*
X140246737Y-36722736D01*
X140519852Y-36724708D01*
X140712939Y-36726056D01*
X143064067Y-36742258D01*
X143115154Y-36796829D01*
X143149775Y-36836185D01*
X143196191Y-36892066D01*
X143245749Y-36954002D01*
X143258181Y-36969933D01*
X143302935Y-37026892D01*
X143342550Y-37075993D01*
X143370484Y-37109173D01*
X143376427Y-37115674D01*
X143392397Y-37132670D01*
X143411281Y-37154061D01*
X143436998Y-37184540D01*
X143473471Y-37228802D01*
X143524620Y-37291541D01*
X143569755Y-37347116D01*
X143669043Y-37469466D01*
X144253371Y-37469466D01*
X144304996Y-37329766D01*
X144336005Y-37244834D01*
X144357333Y-37183232D01*
X144371564Y-37136722D01*
X144381282Y-37097066D01*
X144386763Y-37069084D01*
X144394937Y-37024011D01*
X144066182Y-37033540D01*
X143737427Y-37043070D01*
X143637814Y-36932197D01*
X143589370Y-36877766D01*
X143547187Y-36829455D01*
X143518318Y-36795369D01*
X143512800Y-36788476D01*
X143487861Y-36758423D01*
X143449340Y-36714304D01*
X143415433Y-36676550D01*
X143378025Y-36633795D01*
X143352002Y-36600900D01*
X143343467Y-36586224D01*
X143332816Y-36577157D01*
X143299304Y-36569249D01*
X143240592Y-36562269D01*
X143154341Y-36555988D01*
X143038212Y-36550175D01*
X142937067Y-36546232D01*
X142834035Y-36541790D01*
X142734426Y-36536135D01*
X142646873Y-36529852D01*
X142580006Y-36523528D01*
X142556067Y-36520384D01*
X142493727Y-36513241D01*
X142410999Y-36507270D01*
X142321360Y-36503338D01*
X142276667Y-36502391D01*
X142196865Y-36500434D01*
X142150879Y-36496883D01*
X142138694Y-36491735D01*
X142149667Y-36487333D01*
X142176966Y-36484568D01*
X142234384Y-36481914D01*
X142318174Y-36479442D01*
X142424586Y-36477223D01*
X142549874Y-36475326D01*
X142690289Y-36473824D01*
X142842084Y-36472785D01*
X142941300Y-36472403D01*
X143682133Y-36470400D01*
X143682133Y-36622800D01*
X144456833Y-36622800D01*
X144467417Y-36569883D01*
X144472716Y-36525686D01*
X144476123Y-36461959D01*
X144477630Y-36388369D01*
X144477231Y-36314582D01*
X144474916Y-36250264D01*
X144470678Y-36205081D01*
X144467722Y-36192384D01*
X144460787Y-36183689D01*
X144444823Y-36177071D01*
X144415777Y-36172259D01*
X144369595Y-36168978D01*
X144302226Y-36166957D01*
X144209617Y-36165923D01*
X144087714Y-36165603D01*
X144069788Y-36165600D01*
X143682133Y-36165600D01*
X143682133Y-36318000D01*
X142934245Y-36318000D01*
X142779077Y-36317851D01*
X142635107Y-36317427D01*
X142505702Y-36316758D01*
X142394232Y-36315875D01*
X142304065Y-36314808D01*
X142238569Y-36313589D01*
X142201113Y-36312248D01*
X142193411Y-36311211D01*
X142213538Y-36306610D01*
X142263619Y-36300446D01*
X142339795Y-36293032D01*
X142438205Y-36284679D01*
X142554989Y-36275698D01*
X142686287Y-36266402D01*
X142828239Y-36257101D01*
X142970934Y-36248458D01*
X143318067Y-36228283D01*
X143379287Y-36163429D01*
X143425295Y-36112788D01*
X143469601Y-36061058D01*
X143484052Y-36043187D01*
X143517067Y-36003436D01*
X143563876Y-35949814D01*
X143615049Y-35893098D01*
X143621400Y-35886200D01*
X143664912Y-35837665D01*
X143697807Y-35798299D01*
X143714554Y-35774812D01*
X143715602Y-35771900D01*
X143731826Y-35768093D01*
X143776914Y-35764743D01*
X143845864Y-35762030D01*
X143933676Y-35760137D01*
X144035348Y-35759245D01*
X144064945Y-35759200D01*
X144182006Y-35759028D01*
X144269310Y-35758274D01*
X144330965Y-35756575D01*
X144371082Y-35753570D01*
X144393769Y-35748899D01*
X144403134Y-35742199D01*
X144403288Y-35733110D01*
X144402034Y-35729566D01*
X144391237Y-35697078D01*
X144376192Y-35645331D01*
X144365771Y-35606799D01*
X144344870Y-35535375D01*
X144318540Y-35456166D01*
X144303935Y-35416299D01*
X144266506Y-35318933D01*
X143969616Y-35318933D01*
X143862574Y-35319110D01*
X143784208Y-35320041D01*
X143729328Y-35322328D01*
X143692743Y-35326573D01*
X143669263Y-35333377D01*
X143653698Y-35343342D01*
X143640888Y-35357033D01*
X143609480Y-35393957D01*
X143569535Y-35440107D01*
X143556691Y-35454790D01*
X143513113Y-35506363D01*
X143470580Y-35559586D01*
X143462000Y-35570848D01*
X143425423Y-35617995D01*
X143390474Y-35660661D01*
X143385800Y-35666085D01*
X143350481Y-35706519D01*
X143311367Y-35751211D01*
X143309600Y-35753227D01*
X143271808Y-35798728D01*
X143230344Y-35851953D01*
X143220315Y-35865418D01*
X143184906Y-35911968D01*
X143152577Y-35951876D01*
X143144115Y-35961571D01*
X143112054Y-35997951D01*
X143093033Y-36020452D01*
X143086589Y-36025144D01*
X143074062Y-36029257D01*
X143053363Y-36032829D01*
X143022406Y-36035897D01*
X142979104Y-36038497D01*
X142921370Y-36040669D01*
X142847116Y-36042448D01*
X142754256Y-36043873D01*
X142640703Y-36044980D01*
X142504370Y-36045807D01*
X142343170Y-36046392D01*
X142155015Y-36046771D01*
X141937819Y-36046982D01*
X141689495Y-36047062D01*
X141605297Y-36047066D01*
X140139395Y-36047066D01*
X140150005Y-36000500D01*
X140179932Y-35912406D01*
X140230548Y-35810729D01*
X140296764Y-35703852D01*
X140373492Y-35600158D01*
X140437723Y-35526500D01*
X140579824Y-35392467D01*
X140728406Y-35286204D01*
X140891405Y-35202982D01*
X141076758Y-35138074D01*
X141101577Y-35131100D01*
X141171859Y-35114385D01*
X141243672Y-35103551D01*
X141327107Y-35097582D01*
X141432252Y-35095464D01*
X141456089Y-35095413D01*
X141542778Y-35096230D01*
X141619571Y-35098466D01*
X141678872Y-35101792D01*
X141713087Y-35105883D01*
X141715669Y-35106569D01*
X141724818Y-35107032D01*
X141735553Y-35101207D01*
X141749229Y-35086654D01*
X141767197Y-35060934D01*
X141790813Y-35021610D01*
X141821430Y-34966241D01*
X141860401Y-34892389D01*
X141909080Y-34797616D01*
X141968820Y-34679482D01*
X142040975Y-34535549D01*
X142115799Y-34385644D01*
X142200990Y-34214636D01*
X142271973Y-34071452D01*
X142329677Y-33953618D01*
X142375030Y-33858663D01*
X142408958Y-33784113D01*
X142432390Y-33727496D01*
X142446254Y-33686338D01*
X142451476Y-33658166D01*
X142448986Y-33640509D01*
X142439711Y-33630892D01*
X142424577Y-33626843D01*
X142404514Y-33625890D01*
X142400845Y-33625859D01*
X142369200Y-33619163D01*
X142358511Y-33609481D01*
X142340121Y-33598155D01*
X142298026Y-33584990D01*
X142251267Y-33574783D01*
X142188210Y-33563071D01*
X142132250Y-33552369D01*
X142104773Y-33546892D01*
X142069348Y-33545790D01*
X142051078Y-33567110D01*
X142047486Y-33577356D01*
X142035847Y-33606287D01*
X142012191Y-33659047D01*
X141979527Y-33729117D01*
X141940869Y-33809978D01*
X141923499Y-33845733D01*
X141884096Y-33927501D01*
X141850307Y-33999609D01*
X141824860Y-34056078D01*
X141810486Y-34090928D01*
X141808346Y-34098038D01*
X141792464Y-34127939D01*
X141785280Y-34133798D01*
X141768282Y-34151646D01*
X141767414Y-34156740D01*
X141762515Y-34178063D01*
X141748321Y-34217042D01*
X141744196Y-34227121D01*
X141729042Y-34266668D01*
X141722613Y-34290186D01*
X141722836Y-34292171D01*
X141716258Y-34307731D01*
X141701676Y-34327439D01*
X141679943Y-34362753D01*
X141673168Y-34383379D01*
X141656442Y-34415699D01*
X141647026Y-34423745D01*
X141634264Y-34435987D01*
X141637778Y-34438140D01*
X141638978Y-34451513D01*
X141626633Y-34484865D01*
X141618427Y-34501900D01*
X141598853Y-34543667D01*
X141588813Y-34571866D01*
X141588449Y-34576322D01*
X141580454Y-34596006D01*
X141563508Y-34618655D01*
X141538937Y-34658599D01*
X141522977Y-34700866D01*
X141509805Y-34751666D01*
X141496990Y-34709333D01*
X141492602Y-34678617D01*
X141488651Y-34620704D01*
X141485434Y-34542267D01*
X141483245Y-34449974D01*
X141482488Y-34381746D01*
X141482604Y-34265442D01*
X141484720Y-34178483D01*
X141489136Y-34116392D01*
X141496151Y-34074691D01*
X141504583Y-34051546D01*
X141521719Y-34015664D01*
X141547019Y-33958516D01*
X141576026Y-33890263D01*
X141587447Y-33862666D01*
X141622163Y-33778463D01*
X141659927Y-33687452D01*
X141693435Y-33607224D01*
X141698164Y-33595966D01*
X141749801Y-33473200D01*
X141450201Y-33471559D01*
X141316131Y-33471030D01*
X141211958Y-33471199D01*
G36*
X142586053Y-37120569D02*
X142591103Y-37128265D01*
X142608278Y-37129463D01*
X142626346Y-37125327D01*
X142618509Y-37119232D01*
X142592044Y-37117213D01*
X142586053Y-37120569D01*
X142586053Y-37120569D01*
G37*
X142586053Y-37120569D02*
X142591103Y-37128265D01*
X142608278Y-37129463D01*
X142626346Y-37125327D01*
X142618509Y-37119232D01*
X142592044Y-37117213D01*
X142586053Y-37120569D01*
G36*
X143696149Y-34513044D02*
X143658995Y-34533275D01*
X143633411Y-34540000D01*
X143607341Y-34552842D01*
X143567866Y-34587243D01*
X143520996Y-34637013D01*
X143472740Y-34695962D01*
X143445067Y-34733965D01*
X143405240Y-34788452D01*
X143362597Y-34842506D01*
X143356646Y-34849620D01*
X143321669Y-34896738D01*
X143294468Y-34943166D01*
X143291092Y-34950633D01*
X143272942Y-34983737D01*
X143257181Y-34997199D01*
X143240634Y-35010765D01*
X143218595Y-35044137D01*
X143214706Y-35051405D01*
X143189235Y-35094814D01*
X143165253Y-35126982D01*
X143163775Y-35128510D01*
X143142248Y-35154232D01*
X143109662Y-35197703D01*
X143080118Y-35239405D01*
X143039614Y-35298082D01*
X142999855Y-35355708D01*
X142978507Y-35386666D01*
X142948729Y-35428833D01*
X142924865Y-35460884D01*
X142920427Y-35466385D01*
X142904835Y-35495060D01*
X142903200Y-35504485D01*
X142891555Y-35521511D01*
X142887408Y-35522133D01*
X142869667Y-35535965D01*
X142862195Y-35551766D01*
X142844631Y-35584878D01*
X142815310Y-35623697D01*
X142814487Y-35624631D01*
X142746502Y-35714388D01*
X142715070Y-35769755D01*
X142706577Y-35800358D01*
X142713408Y-35839126D01*
X142731174Y-35884055D01*
X142753140Y-35930270D01*
X142773588Y-35953411D01*
X142804515Y-35961461D01*
X142848918Y-35962400D01*
X142894637Y-35960851D01*
X142926372Y-35952146D01*
X142954610Y-35930197D01*
X142989836Y-35888915D01*
X143002036Y-35873500D01*
X143029881Y-35837518D01*
X143074837Y-35778653D01*
X143133709Y-35701125D01*
X143203300Y-35609153D01*
X143280414Y-35506956D01*
X143361856Y-35398755D01*
X143390025Y-35361266D01*
X143707984Y-34937933D01*
X143881325Y-34933107D01*
X143962160Y-34929927D01*
X144014400Y-34925180D01*
X144043308Y-34917968D01*
X144054150Y-34907389D01*
X144054667Y-34903474D01*
X144045334Y-34881322D01*
X144037733Y-34878666D01*
X144022477Y-34865055D01*
X144020800Y-34854677D01*
X144011476Y-34829393D01*
X144005137Y-34825044D01*
X143987178Y-34805488D01*
X143983970Y-34796496D01*
X143969455Y-34769394D01*
X143941057Y-34732891D01*
X143936133Y-34727406D01*
X143896715Y-34681582D01*
X143856061Y-34630331D01*
X143851467Y-34624200D01*
X143813953Y-34576110D01*
X143776859Y-34532136D01*
X143771883Y-34526634D01*
X143744146Y-34500157D01*
X143722889Y-34497221D01*
X143696149Y-34513044D01*
X143696149Y-34513044D01*
G37*
X143696149Y-34513044D02*
X143658995Y-34533275D01*
X143633411Y-34540000D01*
X143607341Y-34552842D01*
X143567866Y-34587243D01*
X143520996Y-34637013D01*
X143472740Y-34695962D01*
X143445067Y-34733965D01*
X143405240Y-34788452D01*
X143362597Y-34842506D01*
X143356646Y-34849620D01*
X143321669Y-34896738D01*
X143294468Y-34943166D01*
X143291092Y-34950633D01*
X143272942Y-34983737D01*
X143257181Y-34997199D01*
X143240634Y-35010765D01*
X143218595Y-35044137D01*
X143214706Y-35051405D01*
X143189235Y-35094814D01*
X143165253Y-35126982D01*
X143163775Y-35128510D01*
X143142248Y-35154232D01*
X143109662Y-35197703D01*
X143080118Y-35239405D01*
X143039614Y-35298082D01*
X142999855Y-35355708D01*
X142978507Y-35386666D01*
X142948729Y-35428833D01*
X142924865Y-35460884D01*
X142920427Y-35466385D01*
X142904835Y-35495060D01*
X142903200Y-35504485D01*
X142891555Y-35521511D01*
X142887408Y-35522133D01*
X142869667Y-35535965D01*
X142862195Y-35551766D01*
X142844631Y-35584878D01*
X142815310Y-35623697D01*
X142814487Y-35624631D01*
X142746502Y-35714388D01*
X142715070Y-35769755D01*
X142706577Y-35800358D01*
X142713408Y-35839126D01*
X142731174Y-35884055D01*
X142753140Y-35930270D01*
X142773588Y-35953411D01*
X142804515Y-35961461D01*
X142848918Y-35962400D01*
X142894637Y-35960851D01*
X142926372Y-35952146D01*
X142954610Y-35930197D01*
X142989836Y-35888915D01*
X143002036Y-35873500D01*
X143029881Y-35837518D01*
X143074837Y-35778653D01*
X143133709Y-35701125D01*
X143203300Y-35609153D01*
X143280414Y-35506956D01*
X143361856Y-35398755D01*
X143390025Y-35361266D01*
X143707984Y-34937933D01*
X143881325Y-34933107D01*
X143962160Y-34929927D01*
X144014400Y-34925180D01*
X144043308Y-34917968D01*
X144054150Y-34907389D01*
X144054667Y-34903474D01*
X144045334Y-34881322D01*
X144037733Y-34878666D01*
X144022477Y-34865055D01*
X144020800Y-34854677D01*
X144011476Y-34829393D01*
X144005137Y-34825044D01*
X143987178Y-34805488D01*
X143983970Y-34796496D01*
X143969455Y-34769394D01*
X143941057Y-34732891D01*
X143936133Y-34727406D01*
X143896715Y-34681582D01*
X143856061Y-34630331D01*
X143851467Y-34624200D01*
X143813953Y-34576110D01*
X143776859Y-34532136D01*
X143771883Y-34526634D01*
X143744146Y-34500157D01*
X143722889Y-34497221D01*
X143696149Y-34513044D01*
G36*
X143248741Y-34074075D02*
X143250334Y-34082800D01*
X143250167Y-34098454D01*
X143244921Y-34099733D01*
X143228167Y-34113730D01*
X143209207Y-34147665D01*
X143208176Y-34150107D01*
X143181567Y-34200316D01*
X143153853Y-34239007D01*
X143131572Y-34269406D01*
X143097694Y-34321228D01*
X143057344Y-34386451D01*
X143026466Y-34438400D01*
X142977506Y-34521054D01*
X142926210Y-34605627D01*
X142876841Y-34685283D01*
X142833663Y-34753186D01*
X142800940Y-34802502D01*
X142788811Y-34819399D01*
X142774013Y-34843240D01*
X142750207Y-34885863D01*
X142733728Y-34916766D01*
X142708075Y-34961586D01*
X142687190Y-34990785D01*
X142678863Y-34997199D01*
X142667555Y-35010972D01*
X142666134Y-35022599D01*
X142656462Y-35045126D01*
X142648201Y-35047999D01*
X142638088Y-35058373D01*
X142640734Y-35064933D01*
X142640868Y-35080600D01*
X142635838Y-35081866D01*
X142620178Y-35095896D01*
X142598797Y-35131225D01*
X142589934Y-35149599D01*
X142568413Y-35190735D01*
X142550090Y-35214771D01*
X142545028Y-35217333D01*
X142532276Y-35231085D01*
X142530667Y-35242733D01*
X142521523Y-35265267D01*
X142513734Y-35268133D01*
X142498175Y-35281598D01*
X142496800Y-35290340D01*
X142486061Y-35317926D01*
X142462274Y-35349607D01*
X142441454Y-35375348D01*
X142438576Y-35386644D01*
X142438947Y-35386666D01*
X142439385Y-35397113D01*
X142429492Y-35411553D01*
X142422741Y-35428497D01*
X142430573Y-35451998D01*
X142456225Y-35487925D01*
X142499386Y-35538159D01*
X142545330Y-35586008D01*
X142586141Y-35621871D01*
X142614481Y-35639465D01*
X142618662Y-35640272D01*
X142642781Y-35627291D01*
X142676732Y-35592979D01*
X142708224Y-35551766D01*
X142743131Y-35501154D01*
X142790786Y-35432595D01*
X142844413Y-35355816D01*
X142888102Y-35293533D01*
X142944790Y-35212807D01*
X143004224Y-35128026D01*
X143058267Y-35050802D01*
X143089783Y-35005666D01*
X143138956Y-34935360D01*
X143197320Y-34852249D01*
X143254466Y-34771145D01*
X143270644Y-34748251D01*
X143361005Y-34620123D01*
X143432962Y-34517209D01*
X143487981Y-34437297D01*
X143527532Y-34378180D01*
X143553082Y-34337647D01*
X143566102Y-34313490D01*
X143568057Y-34303499D01*
X143566623Y-34302933D01*
X143546641Y-34292134D01*
X143511251Y-34264197D01*
X143478933Y-34235200D01*
X143438466Y-34198743D01*
X143407809Y-34174153D01*
X143395912Y-34167466D01*
X143378645Y-34155309D01*
X143360400Y-34133600D01*
X143333496Y-34107369D01*
X143314329Y-34099733D01*
X143294307Y-34089245D01*
X143292667Y-34082800D01*
X143278884Y-34067939D01*
X143266267Y-34065866D01*
X143248741Y-34074075D01*
X143248741Y-34074075D01*
G37*
X143248741Y-34074075D02*
X143250334Y-34082800D01*
X143250167Y-34098454D01*
X143244921Y-34099733D01*
X143228167Y-34113730D01*
X143209207Y-34147665D01*
X143208176Y-34150107D01*
X143181567Y-34200316D01*
X143153853Y-34239007D01*
X143131572Y-34269406D01*
X143097694Y-34321228D01*
X143057344Y-34386451D01*
X143026466Y-34438400D01*
X142977506Y-34521054D01*
X142926210Y-34605627D01*
X142876841Y-34685283D01*
X142833663Y-34753186D01*
X142800940Y-34802502D01*
X142788811Y-34819399D01*
X142774013Y-34843240D01*
X142750207Y-34885863D01*
X142733728Y-34916766D01*
X142708075Y-34961586D01*
X142687190Y-34990785D01*
X142678863Y-34997199D01*
X142667555Y-35010972D01*
X142666134Y-35022599D01*
X142656462Y-35045126D01*
X142648201Y-35047999D01*
X142638088Y-35058373D01*
X142640734Y-35064933D01*
X142640868Y-35080600D01*
X142635838Y-35081866D01*
X142620178Y-35095896D01*
X142598797Y-35131225D01*
X142589934Y-35149599D01*
X142568413Y-35190735D01*
X142550090Y-35214771D01*
X142545028Y-35217333D01*
X142532276Y-35231085D01*
X142530667Y-35242733D01*
X142521523Y-35265267D01*
X142513734Y-35268133D01*
X142498175Y-35281598D01*
X142496800Y-35290340D01*
X142486061Y-35317926D01*
X142462274Y-35349607D01*
X142441454Y-35375348D01*
X142438576Y-35386644D01*
X142438947Y-35386666D01*
X142439385Y-35397113D01*
X142429492Y-35411553D01*
X142422741Y-35428497D01*
X142430573Y-35451998D01*
X142456225Y-35487925D01*
X142499386Y-35538159D01*
X142545330Y-35586008D01*
X142586141Y-35621871D01*
X142614481Y-35639465D01*
X142618662Y-35640272D01*
X142642781Y-35627291D01*
X142676732Y-35592979D01*
X142708224Y-35551766D01*
X142743131Y-35501154D01*
X142790786Y-35432595D01*
X142844413Y-35355816D01*
X142888102Y-35293533D01*
X142944790Y-35212807D01*
X143004224Y-35128026D01*
X143058267Y-35050802D01*
X143089783Y-35005666D01*
X143138956Y-34935360D01*
X143197320Y-34852249D01*
X143254466Y-34771145D01*
X143270644Y-34748251D01*
X143361005Y-34620123D01*
X143432962Y-34517209D01*
X143487981Y-34437297D01*
X143527532Y-34378180D01*
X143553082Y-34337647D01*
X143566102Y-34313490D01*
X143568057Y-34303499D01*
X143566623Y-34302933D01*
X143546641Y-34292134D01*
X143511251Y-34264197D01*
X143478933Y-34235200D01*
X143438466Y-34198743D01*
X143407809Y-34174153D01*
X143395912Y-34167466D01*
X143378645Y-34155309D01*
X143360400Y-34133600D01*
X143333496Y-34107369D01*
X143314329Y-34099733D01*
X143294307Y-34089245D01*
X143292667Y-34082800D01*
X143278884Y-34067939D01*
X143266267Y-34065866D01*
X143248741Y-34074075D01*
G36*
X142618109Y-34102640D02*
X142571245Y-34197493D01*
X142530060Y-34282730D01*
X142496829Y-34353485D01*
X142473830Y-34404889D01*
X142463338Y-34432077D01*
X142462934Y-34434401D01*
X142452135Y-34453903D01*
X142446000Y-34455333D01*
X142431766Y-34469354D01*
X142429067Y-34485813D01*
X142420967Y-34520697D01*
X142413311Y-34532380D01*
X142395429Y-34557622D01*
X142370091Y-34601729D01*
X142341338Y-34656505D01*
X142313208Y-34713751D01*
X142289741Y-34765269D01*
X142274976Y-34802864D01*
X142272525Y-34818080D01*
X142269126Y-34827021D01*
X142261556Y-34827866D01*
X142248385Y-34837183D01*
X142250544Y-34843629D01*
X142248195Y-34865247D01*
X142242032Y-34870674D01*
X142224088Y-34892573D01*
X142203073Y-34931054D01*
X142187067Y-34970722D01*
X142184512Y-34980266D01*
X142174782Y-34999027D01*
X142154690Y-35031066D01*
X142133769Y-35068037D01*
X142111246Y-35115552D01*
X142091220Y-35163683D01*
X142077792Y-35202501D01*
X142075062Y-35222080D01*
X142075580Y-35222626D01*
X142125603Y-35250847D01*
X142178119Y-35276866D01*
X142222211Y-35295590D01*
X142245812Y-35301999D01*
X142265752Y-35288005D01*
X142292943Y-35251759D01*
X142315113Y-35213099D01*
X142350319Y-35146742D01*
X142388666Y-35077995D01*
X142406173Y-35047999D01*
X142441812Y-34987087D01*
X142477391Y-34924300D01*
X142488525Y-34904066D01*
X142515192Y-34854985D01*
X142550649Y-34789743D01*
X142587508Y-34721934D01*
X142589756Y-34717799D01*
X142632118Y-34640699D01*
X142679130Y-34556372D01*
X142717129Y-34489200D01*
X142758992Y-34415501D01*
X142804081Y-34335390D01*
X142836343Y-34277533D01*
X142873187Y-34211267D01*
X142917594Y-34131750D01*
X142960492Y-34055227D01*
X142964030Y-34048933D01*
X142998112Y-33986821D01*
X143016730Y-33947101D01*
X143021841Y-33923122D01*
X143015399Y-33908232D01*
X143007419Y-33901344D01*
X142973425Y-33875154D01*
X142958948Y-33863244D01*
X142925576Y-33847246D01*
X142913793Y-33845733D01*
X142888132Y-33836151D01*
X142883445Y-33829183D01*
X142864498Y-33814619D01*
X142826615Y-33802438D01*
X142825543Y-33802221D01*
X142773285Y-33791810D01*
X142618109Y-34102640D01*
X142618109Y-34102640D01*
G37*
X142618109Y-34102640D02*
X142571245Y-34197493D01*
X142530060Y-34282730D01*
X142496829Y-34353485D01*
X142473830Y-34404889D01*
X142463338Y-34432077D01*
X142462934Y-34434401D01*
X142452135Y-34453903D01*
X142446000Y-34455333D01*
X142431766Y-34469354D01*
X142429067Y-34485813D01*
X142420967Y-34520697D01*
X142413311Y-34532380D01*
X142395429Y-34557622D01*
X142370091Y-34601729D01*
X142341338Y-34656505D01*
X142313208Y-34713751D01*
X142289741Y-34765269D01*
X142274976Y-34802864D01*
X142272525Y-34818080D01*
X142269126Y-34827021D01*
X142261556Y-34827866D01*
X142248385Y-34837183D01*
X142250544Y-34843629D01*
X142248195Y-34865247D01*
X142242032Y-34870674D01*
X142224088Y-34892573D01*
X142203073Y-34931054D01*
X142187067Y-34970722D01*
X142184512Y-34980266D01*
X142174782Y-34999027D01*
X142154690Y-35031066D01*
X142133769Y-35068037D01*
X142111246Y-35115552D01*
X142091220Y-35163683D01*
X142077792Y-35202501D01*
X142075062Y-35222080D01*
X142075580Y-35222626D01*
X142125603Y-35250847D01*
X142178119Y-35276866D01*
X142222211Y-35295590D01*
X142245812Y-35301999D01*
X142265752Y-35288005D01*
X142292943Y-35251759D01*
X142315113Y-35213099D01*
X142350319Y-35146742D01*
X142388666Y-35077995D01*
X142406173Y-35047999D01*
X142441812Y-34987087D01*
X142477391Y-34924300D01*
X142488525Y-34904066D01*
X142515192Y-34854985D01*
X142550649Y-34789743D01*
X142587508Y-34721934D01*
X142589756Y-34717799D01*
X142632118Y-34640699D01*
X142679130Y-34556372D01*
X142717129Y-34489200D01*
X142758992Y-34415501D01*
X142804081Y-34335390D01*
X142836343Y-34277533D01*
X142873187Y-34211267D01*
X142917594Y-34131750D01*
X142960492Y-34055227D01*
X142964030Y-34048933D01*
X142998112Y-33986821D01*
X143016730Y-33947101D01*
X143021841Y-33923122D01*
X143015399Y-33908232D01*
X143007419Y-33901344D01*
X142973425Y-33875154D01*
X142958948Y-33863244D01*
X142925576Y-33847246D01*
X142913793Y-33845733D01*
X142888132Y-33836151D01*
X142883445Y-33829183D01*
X142864498Y-33814619D01*
X142826615Y-33802438D01*
X142825543Y-33802221D01*
X142773285Y-33791810D01*
X142618109Y-34102640D01*
G36*
X127662744Y-50942900D02*
X127655987Y-51577900D01*
X128081844Y-51580419D01*
X128250486Y-51582346D01*
X128380965Y-51586702D01*
X128485902Y-51594756D01*
X128577920Y-51607777D01*
X128669642Y-51627033D01*
X128750874Y-51647670D01*
X129129773Y-51772964D01*
X129477744Y-51938144D01*
X129793300Y-52141701D01*
X130074956Y-52382123D01*
X130321225Y-52657900D01*
X130530622Y-52967522D01*
X130701662Y-53309476D01*
X130832857Y-53682253D01*
X130863045Y-53795132D01*
X130891762Y-53952016D01*
X130910667Y-54143093D01*
X130919605Y-54352705D01*
X130918422Y-54565191D01*
X130906966Y-54764892D01*
X130885081Y-54936146D01*
X130874757Y-54987222D01*
X130763793Y-55366140D01*
X130611303Y-55717858D01*
X130418921Y-56040281D01*
X130188280Y-56331315D01*
X129921014Y-56588865D01*
X129618755Y-56810837D01*
X129324108Y-56975572D01*
X128992427Y-57110611D01*
X128639713Y-57205421D01*
X128278092Y-57257633D01*
X127919692Y-57264876D01*
X127860857Y-57261527D01*
X127656800Y-57247541D01*
X127656800Y-58517895D01*
X127774646Y-58534047D01*
X127911376Y-58545135D01*
X128082540Y-58547347D01*
X128272632Y-58541117D01*
X128466146Y-58526884D01*
X128609300Y-58510532D01*
X129062562Y-58425938D01*
X129490241Y-58298023D01*
X129894375Y-58125770D01*
X130277002Y-57908166D01*
X130640160Y-57644195D01*
X130985886Y-57332841D01*
X130998634Y-57320135D01*
X131306978Y-56979850D01*
X131568250Y-56622013D01*
X131783964Y-56243690D01*
X131955634Y-55841947D01*
X132084774Y-55413852D01*
X132153046Y-55083100D01*
X132174258Y-54950356D01*
X132188756Y-54835176D01*
X132197294Y-54723554D01*
X132200626Y-54601487D01*
X132199508Y-54454968D01*
X132195472Y-54295700D01*
X132174244Y-53938505D01*
X132130816Y-53614425D01*
X132061705Y-53309349D01*
X131963431Y-53009166D01*
X131832513Y-52699766D01*
X131769351Y-52568500D01*
X131547254Y-52176804D01*
X131285665Y-51815406D01*
X130987364Y-51486429D01*
X130655130Y-51191999D01*
X130291745Y-50934242D01*
X129899988Y-50715281D01*
X129482641Y-50537244D01*
X129042483Y-50402253D01*
X128888700Y-50366663D01*
X128779368Y-50345653D01*
X128671105Y-50330466D01*
X128552136Y-50320202D01*
X128410683Y-50313957D01*
X128234971Y-50310829D01*
X128152100Y-50310247D01*
X127669500Y-50307900D01*
X127662744Y-50942900D01*
X127662744Y-50942900D01*
G37*
X127662744Y-50942900D02*
X127655987Y-51577900D01*
X128081844Y-51580419D01*
X128250486Y-51582346D01*
X128380965Y-51586702D01*
X128485902Y-51594756D01*
X128577920Y-51607777D01*
X128669642Y-51627033D01*
X128750874Y-51647670D01*
X129129773Y-51772964D01*
X129477744Y-51938144D01*
X129793300Y-52141701D01*
X130074956Y-52382123D01*
X130321225Y-52657900D01*
X130530622Y-52967522D01*
X130701662Y-53309476D01*
X130832857Y-53682253D01*
X130863045Y-53795132D01*
X130891762Y-53952016D01*
X130910667Y-54143093D01*
X130919605Y-54352705D01*
X130918422Y-54565191D01*
X130906966Y-54764892D01*
X130885081Y-54936146D01*
X130874757Y-54987222D01*
X130763793Y-55366140D01*
X130611303Y-55717858D01*
X130418921Y-56040281D01*
X130188280Y-56331315D01*
X129921014Y-56588865D01*
X129618755Y-56810837D01*
X129324108Y-56975572D01*
X128992427Y-57110611D01*
X128639713Y-57205421D01*
X128278092Y-57257633D01*
X127919692Y-57264876D01*
X127860857Y-57261527D01*
X127656800Y-57247541D01*
X127656800Y-58517895D01*
X127774646Y-58534047D01*
X127911376Y-58545135D01*
X128082540Y-58547347D01*
X128272632Y-58541117D01*
X128466146Y-58526884D01*
X128609300Y-58510532D01*
X129062562Y-58425938D01*
X129490241Y-58298023D01*
X129894375Y-58125770D01*
X130277002Y-57908166D01*
X130640160Y-57644195D01*
X130985886Y-57332841D01*
X130998634Y-57320135D01*
X131306978Y-56979850D01*
X131568250Y-56622013D01*
X131783964Y-56243690D01*
X131955634Y-55841947D01*
X132084774Y-55413852D01*
X132153046Y-55083100D01*
X132174258Y-54950356D01*
X132188756Y-54835176D01*
X132197294Y-54723554D01*
X132200626Y-54601487D01*
X132199508Y-54454968D01*
X132195472Y-54295700D01*
X132174244Y-53938505D01*
X132130816Y-53614425D01*
X132061705Y-53309349D01*
X131963431Y-53009166D01*
X131832513Y-52699766D01*
X131769351Y-52568500D01*
X131547254Y-52176804D01*
X131285665Y-51815406D01*
X130987364Y-51486429D01*
X130655130Y-51191999D01*
X130291745Y-50934242D01*
X129899988Y-50715281D01*
X129482641Y-50537244D01*
X129042483Y-50402253D01*
X128888700Y-50366663D01*
X128779368Y-50345653D01*
X128671105Y-50330466D01*
X128552136Y-50320202D01*
X128410683Y-50313957D01*
X128234971Y-50310829D01*
X128152100Y-50310247D01*
X127669500Y-50307900D01*
X127662744Y-50942900D01*
G36*
X120670970Y-51577900D02*
X121096835Y-51579943D01*
X121264683Y-51581643D01*
X121394306Y-51585749D01*
X121498268Y-51593524D01*
X121589130Y-51606231D01*
X121679456Y-51625132D01*
X121765874Y-51647195D01*
X122114796Y-51759630D01*
X122427833Y-51901730D01*
X122713251Y-52078027D01*
X122979312Y-52293055D01*
X123030939Y-52341117D01*
X123193848Y-52502898D01*
X123325928Y-52651135D01*
X123438743Y-52800274D01*
X123543858Y-52964757D01*
X123579928Y-53026796D01*
X123651059Y-53164212D01*
X123722971Y-53324608D01*
X123787978Y-53489128D01*
X123838396Y-53638917D01*
X123856397Y-53705150D01*
X123873168Y-53774999D01*
X122678448Y-53775000D01*
X121483728Y-53775000D01*
X121497300Y-55057700D01*
X122684750Y-55064301D01*
X122924904Y-55065795D01*
X123148795Y-55067495D01*
X123351450Y-55069341D01*
X123527896Y-55071274D01*
X123673160Y-55073234D01*
X123782268Y-55075160D01*
X123850246Y-55076994D01*
X123872200Y-55078586D01*
X123864618Y-55104398D01*
X123844302Y-55167122D01*
X123814901Y-55255586D01*
X123798213Y-55305153D01*
X123652530Y-55659757D01*
X123466181Y-55986267D01*
X123242283Y-56282029D01*
X122983948Y-56544393D01*
X122694293Y-56770705D01*
X122376432Y-56958316D01*
X122033478Y-57104572D01*
X121668547Y-57206821D01*
X121535400Y-57231854D01*
X121445839Y-57242099D01*
X121321438Y-57250306D01*
X121178143Y-57255683D01*
X121031899Y-57257439D01*
X121021050Y-57257402D01*
X120671800Y-57255773D01*
X120671800Y-58517895D01*
X120789646Y-58534047D01*
X120925131Y-58545060D01*
X121094796Y-58547377D01*
X121282845Y-58541431D01*
X121473486Y-58527657D01*
X121617320Y-58511284D01*
X122066289Y-58425452D01*
X122496917Y-58294249D01*
X122906395Y-58120101D01*
X123291911Y-57905433D01*
X123650654Y-57652669D01*
X123979815Y-57364234D01*
X124276582Y-57042554D01*
X124538145Y-56690053D01*
X124761692Y-56309157D01*
X124944413Y-55902289D01*
X125066061Y-55535945D01*
X125137545Y-55248411D01*
X125184462Y-54975176D01*
X125208939Y-54697740D01*
X125213102Y-54397605D01*
X125210127Y-54283000D01*
X125176853Y-53854566D01*
X125106340Y-53453514D01*
X124996222Y-53070286D01*
X124844132Y-52695321D01*
X124788325Y-52579732D01*
X124559745Y-52177880D01*
X124293730Y-51810291D01*
X123990945Y-51477632D01*
X123652057Y-51180566D01*
X123277731Y-50919759D01*
X122932400Y-50727184D01*
X122600995Y-50575571D01*
X122282183Y-50461270D01*
X121962578Y-50381135D01*
X121628794Y-50332021D01*
X121267443Y-50310782D01*
X121154400Y-50309384D01*
X120684500Y-50307900D01*
X120670970Y-51577900D01*
X120670970Y-51577900D01*
G37*
X120670970Y-51577900D02*
X121096835Y-51579943D01*
X121264683Y-51581643D01*
X121394306Y-51585749D01*
X121498268Y-51593524D01*
X121589130Y-51606231D01*
X121679456Y-51625132D01*
X121765874Y-51647195D01*
X122114796Y-51759630D01*
X122427833Y-51901730D01*
X122713251Y-52078027D01*
X122979312Y-52293055D01*
X123030939Y-52341117D01*
X123193848Y-52502898D01*
X123325928Y-52651135D01*
X123438743Y-52800274D01*
X123543858Y-52964757D01*
X123579928Y-53026796D01*
X123651059Y-53164212D01*
X123722971Y-53324608D01*
X123787978Y-53489128D01*
X123838396Y-53638917D01*
X123856397Y-53705150D01*
X123873168Y-53774999D01*
X122678448Y-53775000D01*
X121483728Y-53775000D01*
X121497300Y-55057700D01*
X122684750Y-55064301D01*
X122924904Y-55065795D01*
X123148795Y-55067495D01*
X123351450Y-55069341D01*
X123527896Y-55071274D01*
X123673160Y-55073234D01*
X123782268Y-55075160D01*
X123850246Y-55076994D01*
X123872200Y-55078586D01*
X123864618Y-55104398D01*
X123844302Y-55167122D01*
X123814901Y-55255586D01*
X123798213Y-55305153D01*
X123652530Y-55659757D01*
X123466181Y-55986267D01*
X123242283Y-56282029D01*
X122983948Y-56544393D01*
X122694293Y-56770705D01*
X122376432Y-56958316D01*
X122033478Y-57104572D01*
X121668547Y-57206821D01*
X121535400Y-57231854D01*
X121445839Y-57242099D01*
X121321438Y-57250306D01*
X121178143Y-57255683D01*
X121031899Y-57257439D01*
X121021050Y-57257402D01*
X120671800Y-57255773D01*
X120671800Y-58517895D01*
X120789646Y-58534047D01*
X120925131Y-58545060D01*
X121094796Y-58547377D01*
X121282845Y-58541431D01*
X121473486Y-58527657D01*
X121617320Y-58511284D01*
X122066289Y-58425452D01*
X122496917Y-58294249D01*
X122906395Y-58120101D01*
X123291911Y-57905433D01*
X123650654Y-57652669D01*
X123979815Y-57364234D01*
X124276582Y-57042554D01*
X124538145Y-56690053D01*
X124761692Y-56309157D01*
X124944413Y-55902289D01*
X125066061Y-55535945D01*
X125137545Y-55248411D01*
X125184462Y-54975176D01*
X125208939Y-54697740D01*
X125213102Y-54397605D01*
X125210127Y-54283000D01*
X125176853Y-53854566D01*
X125106340Y-53453514D01*
X124996222Y-53070286D01*
X124844132Y-52695321D01*
X124788325Y-52579732D01*
X124559745Y-52177880D01*
X124293730Y-51810291D01*
X123990945Y-51477632D01*
X123652057Y-51180566D01*
X123277731Y-50919759D01*
X122932400Y-50727184D01*
X122600995Y-50575571D01*
X122282183Y-50461270D01*
X121962578Y-50381135D01*
X121628794Y-50332021D01*
X121267443Y-50310782D01*
X121154400Y-50309384D01*
X120684500Y-50307900D01*
X120670970Y-51577900D01*
M02*
