M48
;DRILL file {KiCad 4.0.6} date 10/03/17 07:00:39
;FORMAT={-:-/ absolute / metric / decimal}
FMAT,2
METRIC,TZ
T1C0.400
T2C0.500
T3C1.016
T4C1.801
%
G90
G05
M71
T1
X118.39Y-51.63
X119.12Y-49.56
X119.12Y-50.89
X142.97Y-52.72
X145.18Y-58.13
X145.36Y-57.14
X151.3Y-47.21
X157.6Y-59.24
X161.02Y-34.62
X162.83Y-37.69
X163.07Y-50.62
X163.82Y-55.05
X165.86Y-59.64
X171.75Y-25.64
T2
X88.69Y-46.69
X136.08Y-50.04
X136.28Y-61.2
X136.3Y-63.37
X138.18Y-56.89
X138.23Y-59.02
X151.46Y-45.11
X151.49Y-35.36
X162.46Y-102.7
X162.57Y-105.61
X163.36Y-61.93
T3
X98.09Y-24.54
X100.63Y-24.54
X106.79Y-24.53
X106.79Y-27.07
X108.65Y-54.03
X109.33Y-24.53
X109.33Y-27.07
X111.19Y-54.03
X111.87Y-24.53
X111.87Y-27.07
X114.41Y-24.53
X114.41Y-27.07
X116.95Y-24.53
X116.95Y-27.07
X119.49Y-24.53
X119.49Y-27.07
X122.03Y-24.53
X122.03Y-27.07
X124.57Y-24.53
X124.57Y-27.07
X127.11Y-24.53
X127.11Y-27.07
X129.65Y-24.53
X129.65Y-27.07
X131.73Y-54.13
X134.27Y-54.13
X136.35Y-25.31
X138.89Y-25.31
X141.43Y-25.31
X148.08Y-25.4
X148.08Y-27.94
X150.62Y-25.4
X150.62Y-27.94
X158.24Y-25.07
X158.24Y-27.61
X160.78Y-25.07
X160.78Y-27.61
X163.32Y-25.07
X163.32Y-27.61
X165.86Y-25.07
X165.86Y-27.61
X173.99Y-33.78
X173.99Y-36.32
X173.99Y-38.86
X173.99Y-41.4
X173.99Y-43.94
X173.99Y-46.48
X173.99Y-49.02
X173.99Y-51.56
X173.99Y-54.1
X173.99Y-56.64
X174.37Y-80.54
X174.37Y-83.08
X174.37Y-85.62
X174.37Y-88.16
X174.37Y-90.7
X174.37Y-93.24
X174.37Y-95.78
X174.37Y-98.32
X174.37Y-100.86
X174.37Y-103.4
X176.47Y-66.43
X176.47Y-68.97
X176.47Y-71.51
X176.47Y-74.05
X176.53Y-33.78
X176.53Y-36.32
X176.53Y-38.86
X176.53Y-41.4
X176.53Y-43.94
X176.53Y-46.48
X176.53Y-49.02
X176.53Y-51.56
X176.53Y-54.1
X176.53Y-56.64
X176.91Y-80.54
X176.91Y-83.08
X176.91Y-85.62
X176.91Y-88.16
X176.91Y-90.7
X176.91Y-93.24
X176.91Y-95.78
X176.91Y-98.32
X176.91Y-100.86
X176.91Y-103.4
T4
X86.32Y-49.269
X86.32Y-53.229
X86.32Y-57.191
X86.32Y-61.151
X158.309Y-115.25
X162.269Y-115.25
X166.231Y-115.25
X170.191Y-115.25
T0
M30
