G04 #@! TF.FileFunction,Soldermask,Top*
%FSLAX46Y46*%
G04 Gerber Fmt 4.6, Leading zero omitted, Abs format (unit mm)*
G04 Created by KiCad (PCBNEW 4.0.6) date 10/05/17 08:54:31*
%MOMM*%
%LPD*%
G01*
G04 APERTURE LIST*
%ADD10C,0.100000*%
%ADD11C,6.800000*%
%ADD12C,1.000000*%
%ADD13R,2.432000X4.057600*%
%ADD14R,2.432000X1.416000*%
%ADD15R,1.650000X1.900000*%
%ADD16R,1.700000X1.900000*%
%ADD17R,2.000000X0.950000*%
%ADD18R,0.950000X2.000000*%
%ADD19R,1.900000X1.700000*%
%ADD20R,2.432000X2.432000*%
%ADD21O,2.432000X2.432000*%
%ADD22R,2.127200X2.127200*%
%ADD23O,2.127200X2.127200*%
%ADD24R,2.432000X2.127200*%
%ADD25O,2.432000X2.127200*%
%ADD26R,2.700000X1.600000*%
%ADD27R,1.400000X1.400000*%
%ADD28R,1.500000X2.200000*%
%ADD29O,5.401260X3.399740*%
%ADD30O,3.399740X5.401260*%
%ADD31R,2.127200X2.432000*%
%ADD32O,2.127200X2.432000*%
%ADD33R,1.900000X1.650000*%
%ADD34R,2.600000X2.600000*%
G04 APERTURE END LIST*
D10*
D11*
X175000000Y-117000000D03*
D12*
X177400000Y-117000000D03*
X176697056Y-118697056D03*
X175000000Y-119400000D03*
X173302944Y-118697056D03*
X172600000Y-117000000D03*
X173302944Y-115302944D03*
X175000000Y-114600000D03*
X176697056Y-115302944D03*
D11*
X85000000Y-27000000D03*
D12*
X87400000Y-27000000D03*
X86697056Y-28697056D03*
X85000000Y-29400000D03*
X83302944Y-28697056D03*
X82600000Y-27000000D03*
X83302944Y-25302944D03*
X85000000Y-24600000D03*
X86697056Y-25302944D03*
D13*
X127632000Y-54260000D03*
D14*
X121028000Y-54260000D03*
X121028000Y-56546000D03*
X121028000Y-51974000D03*
D15*
X98000000Y-53940000D03*
X98000000Y-56440000D03*
X94220000Y-53920000D03*
X94220000Y-56420000D03*
D16*
X84380000Y-42290000D03*
X84380000Y-44990000D03*
X88450000Y-45000000D03*
X88450000Y-42300000D03*
D17*
X147590000Y-57120000D03*
X147590000Y-57920000D03*
X147590000Y-58720000D03*
X147590000Y-59520000D03*
X147590000Y-60320000D03*
X147590000Y-61120000D03*
X147590000Y-61920000D03*
X147590000Y-62720000D03*
D18*
X149040000Y-64170000D03*
X149840000Y-64170000D03*
X150640000Y-64170000D03*
X151440000Y-64170000D03*
X152240000Y-64170000D03*
X153040000Y-64170000D03*
X153840000Y-64170000D03*
X154640000Y-64170000D03*
D17*
X156090000Y-62720000D03*
X156090000Y-61920000D03*
X156090000Y-61120000D03*
X156090000Y-60320000D03*
X156090000Y-59520000D03*
X156090000Y-58720000D03*
X156090000Y-57920000D03*
X156090000Y-57120000D03*
D18*
X154640000Y-55670000D03*
X153840000Y-55670000D03*
X153040000Y-55670000D03*
X152240000Y-55670000D03*
X151440000Y-55670000D03*
X150640000Y-55670000D03*
X149840000Y-55670000D03*
X149040000Y-55670000D03*
D16*
X118380000Y-55810000D03*
X118380000Y-53110000D03*
D19*
X123800000Y-49560000D03*
X121100000Y-49560000D03*
X158140000Y-106570000D03*
X160840000Y-106570000D03*
X160910000Y-102680000D03*
X158210000Y-102680000D03*
X158860000Y-61940000D03*
X161560000Y-61940000D03*
X142880000Y-59010000D03*
X140180000Y-59010000D03*
X142860000Y-56900000D03*
X140160000Y-56900000D03*
D20*
X108650000Y-54030000D03*
D21*
X111190000Y-54030000D03*
D20*
X131730000Y-54130000D03*
D21*
X134270000Y-54130000D03*
D19*
X140770000Y-61180000D03*
X138070000Y-61180000D03*
X140770000Y-63360000D03*
X138070000Y-63360000D03*
D16*
X133610000Y-45560000D03*
X133610000Y-48260000D03*
D19*
X130930000Y-42410000D03*
X133630000Y-42410000D03*
D22*
X173990000Y-56640000D03*
D23*
X176530000Y-56640000D03*
X173990000Y-54100000D03*
X176530000Y-54100000D03*
X173990000Y-51560000D03*
X176530000Y-51560000D03*
X173990000Y-49020000D03*
X176530000Y-49020000D03*
X173990000Y-46480000D03*
X176530000Y-46480000D03*
X173990000Y-43940000D03*
X176530000Y-43940000D03*
X173990000Y-41400000D03*
X176530000Y-41400000D03*
X173990000Y-38860000D03*
X176530000Y-38860000D03*
X173990000Y-36320000D03*
X176530000Y-36320000D03*
X173990000Y-33780000D03*
X176530000Y-33780000D03*
D22*
X176910000Y-80540000D03*
D23*
X174370000Y-80540000D03*
X176910000Y-83080000D03*
X174370000Y-83080000D03*
X176910000Y-85620000D03*
X174370000Y-85620000D03*
X176910000Y-88160000D03*
X174370000Y-88160000D03*
X176910000Y-90700000D03*
X174370000Y-90700000D03*
X176910000Y-93240000D03*
X174370000Y-93240000D03*
X176910000Y-95780000D03*
X174370000Y-95780000D03*
X176910000Y-98320000D03*
X174370000Y-98320000D03*
X176910000Y-100860000D03*
X174370000Y-100860000D03*
X176910000Y-103400000D03*
X174370000Y-103400000D03*
D22*
X106790000Y-24530000D03*
D23*
X106790000Y-27070000D03*
X109330000Y-24530000D03*
X109330000Y-27070000D03*
X111870000Y-24530000D03*
X111870000Y-27070000D03*
X114410000Y-24530000D03*
X114410000Y-27070000D03*
X116950000Y-24530000D03*
X116950000Y-27070000D03*
X119490000Y-24530000D03*
X119490000Y-27070000D03*
X122030000Y-24530000D03*
X122030000Y-27070000D03*
X124570000Y-24530000D03*
X124570000Y-27070000D03*
X127110000Y-24530000D03*
X127110000Y-27070000D03*
X129650000Y-24530000D03*
X129650000Y-27070000D03*
D24*
X176470000Y-74050000D03*
D25*
X176470000Y-71510000D03*
X176470000Y-68970000D03*
X176470000Y-66430000D03*
D22*
X158240000Y-25070000D03*
D23*
X158240000Y-27610000D03*
X160780000Y-25070000D03*
X160780000Y-27610000D03*
X163320000Y-25070000D03*
X163320000Y-27610000D03*
X165860000Y-25070000D03*
X165860000Y-27610000D03*
D26*
X143620000Y-61490000D03*
X143620000Y-63090000D03*
D27*
X151200000Y-49620000D03*
X151200000Y-51620000D03*
D28*
X147730000Y-37020000D03*
X147730000Y-43220000D03*
X151430000Y-43220000D03*
X151430000Y-37020000D03*
D29*
X86320000Y-53228800D03*
X86320000Y-57191200D03*
X86320000Y-49268940D03*
X86320000Y-61151060D03*
D30*
X162581200Y-115500000D03*
X158618800Y-115500000D03*
X166541060Y-115500000D03*
X154658940Y-115500000D03*
D31*
X136350000Y-25310000D03*
D32*
X138890000Y-25310000D03*
X141430000Y-25310000D03*
D20*
X100630000Y-24540000D03*
D21*
X98090000Y-24540000D03*
D33*
X167020000Y-102640000D03*
X164520000Y-102640000D03*
X166950000Y-106490000D03*
X164450000Y-106490000D03*
D19*
X150740000Y-33190000D03*
X148040000Y-33190000D03*
D22*
X148080000Y-25400000D03*
D23*
X148080000Y-27940000D03*
X150620000Y-25400000D03*
X150620000Y-27940000D03*
D19*
X161580000Y-59740000D03*
X158880000Y-59740000D03*
D11*
X85000000Y-117000000D03*
D12*
X87400000Y-117000000D03*
X86697056Y-118697056D03*
X85000000Y-119400000D03*
X83302944Y-118697056D03*
X82600000Y-117000000D03*
X83302944Y-115302944D03*
X85000000Y-114600000D03*
X86697056Y-115302944D03*
D11*
X175000000Y-27000000D03*
D12*
X177400000Y-27000000D03*
X176697056Y-28697056D03*
X175000000Y-29400000D03*
X173302944Y-28697056D03*
X172600000Y-27000000D03*
X173302944Y-25302944D03*
X175000000Y-24600000D03*
X176697056Y-25302944D03*
D34*
X89810000Y-73760000D03*
X92350000Y-73760000D03*
X94890000Y-73760000D03*
X97430000Y-73760000D03*
X99970000Y-73760000D03*
X102510000Y-73760000D03*
X105050000Y-73760000D03*
X107590000Y-73760000D03*
X110130000Y-73760000D03*
X112670000Y-73760000D03*
X115210000Y-73760000D03*
X117750000Y-73760000D03*
X120290000Y-73760000D03*
X122830000Y-73760000D03*
X125370000Y-73760000D03*
X127910000Y-73760000D03*
X130450000Y-73760000D03*
X132990000Y-73760000D03*
X135530000Y-73760000D03*
X138070000Y-73760000D03*
X140610000Y-73760000D03*
X143150000Y-73760000D03*
X89810000Y-76300000D03*
X92350000Y-76300000D03*
X94890000Y-76300000D03*
X97430000Y-76300000D03*
X99970000Y-76300000D03*
X102510000Y-76300000D03*
X105050000Y-76300000D03*
X107590000Y-76300000D03*
X110130000Y-76300000D03*
X112670000Y-76300000D03*
X115210000Y-76300000D03*
X117750000Y-76300000D03*
X120290000Y-76300000D03*
X122830000Y-76300000D03*
X125370000Y-76300000D03*
X127910000Y-76300000D03*
X130450000Y-76300000D03*
X132990000Y-76300000D03*
X135530000Y-76300000D03*
X138070000Y-76300000D03*
X140610000Y-76300000D03*
X143150000Y-76300000D03*
X89810000Y-78840000D03*
X92350000Y-78840000D03*
X94890000Y-78840000D03*
X97430000Y-78840000D03*
X99970000Y-78840000D03*
X102510000Y-78840000D03*
X105050000Y-78840000D03*
X107590000Y-78840000D03*
X110130000Y-78840000D03*
X112670000Y-78840000D03*
X115210000Y-78840000D03*
X117750000Y-78840000D03*
X120290000Y-78840000D03*
X122830000Y-78840000D03*
X125370000Y-78840000D03*
X127910000Y-78840000D03*
X130450000Y-78840000D03*
X132990000Y-78840000D03*
X135530000Y-78840000D03*
X138070000Y-78840000D03*
X140610000Y-78840000D03*
X143150000Y-78840000D03*
X89810000Y-81380000D03*
X92350000Y-81380000D03*
X94890000Y-81380000D03*
X97430000Y-81380000D03*
X99970000Y-81380000D03*
X102510000Y-81380000D03*
X105050000Y-81380000D03*
X107590000Y-81380000D03*
X110130000Y-81380000D03*
X112670000Y-81380000D03*
X115210000Y-81380000D03*
X117750000Y-81380000D03*
X120290000Y-81380000D03*
X122830000Y-81380000D03*
X125370000Y-81380000D03*
X127910000Y-81380000D03*
X130450000Y-81380000D03*
X132990000Y-81380000D03*
X135530000Y-81380000D03*
X138070000Y-81380000D03*
X140610000Y-81380000D03*
X143150000Y-81380000D03*
X89810000Y-83920000D03*
X92350000Y-83920000D03*
X94890000Y-83920000D03*
X97430000Y-83920000D03*
X99970000Y-83920000D03*
X102510000Y-83920000D03*
X105050000Y-83920000D03*
X107590000Y-83920000D03*
X110130000Y-83920000D03*
X112670000Y-83920000D03*
X115210000Y-83920000D03*
X117750000Y-83920000D03*
X120290000Y-83920000D03*
X122830000Y-83920000D03*
X125370000Y-83920000D03*
X127910000Y-83920000D03*
X130450000Y-83920000D03*
X132990000Y-83920000D03*
X135530000Y-83920000D03*
X138070000Y-83920000D03*
X140610000Y-83920000D03*
X143150000Y-83920000D03*
X89810000Y-86460000D03*
X92350000Y-86460000D03*
X94890000Y-86460000D03*
X97430000Y-86460000D03*
X99970000Y-86460000D03*
X102510000Y-86460000D03*
X105050000Y-86460000D03*
X107590000Y-86460000D03*
X110130000Y-86460000D03*
X112670000Y-86460000D03*
X115210000Y-86460000D03*
X117750000Y-86460000D03*
X120290000Y-86460000D03*
X122830000Y-86460000D03*
X125370000Y-86460000D03*
X127910000Y-86460000D03*
X130450000Y-86460000D03*
X132990000Y-86460000D03*
X135530000Y-86460000D03*
X138070000Y-86460000D03*
X140610000Y-86460000D03*
X143150000Y-86460000D03*
X89810000Y-89000000D03*
X92350000Y-89000000D03*
X94890000Y-89000000D03*
X97430000Y-89000000D03*
X99970000Y-89000000D03*
X102510000Y-89000000D03*
X105050000Y-89000000D03*
X107590000Y-89000000D03*
X110130000Y-89000000D03*
X112670000Y-89000000D03*
X115210000Y-89000000D03*
X117750000Y-89000000D03*
X120290000Y-89000000D03*
X122830000Y-89000000D03*
X125370000Y-89000000D03*
X127910000Y-89000000D03*
X130450000Y-89000000D03*
X132990000Y-89000000D03*
X135530000Y-89000000D03*
X138070000Y-89000000D03*
X140610000Y-89000000D03*
X143150000Y-89000000D03*
X89810000Y-91540000D03*
X92350000Y-91540000D03*
X94890000Y-91540000D03*
X97430000Y-91540000D03*
X99970000Y-91540000D03*
X102510000Y-91540000D03*
X105050000Y-91540000D03*
X107590000Y-91540000D03*
X110130000Y-91540000D03*
X112670000Y-91540000D03*
X115210000Y-91540000D03*
X117750000Y-91540000D03*
X120290000Y-91540000D03*
X122830000Y-91540000D03*
X125370000Y-91540000D03*
X127910000Y-91540000D03*
X130450000Y-91540000D03*
X132990000Y-91540000D03*
X135530000Y-91540000D03*
X138070000Y-91540000D03*
X140610000Y-91540000D03*
X143150000Y-91540000D03*
X89810000Y-94080000D03*
X92350000Y-94080000D03*
X94890000Y-94080000D03*
X97430000Y-94080000D03*
X99970000Y-94080000D03*
X102510000Y-94080000D03*
X105050000Y-94080000D03*
X107590000Y-94080000D03*
X110130000Y-94080000D03*
X112670000Y-94080000D03*
X115210000Y-94080000D03*
X117750000Y-94080000D03*
X120290000Y-94080000D03*
X122830000Y-94080000D03*
X125370000Y-94080000D03*
X127910000Y-94080000D03*
X130450000Y-94080000D03*
X132990000Y-94080000D03*
X135530000Y-94080000D03*
X138070000Y-94080000D03*
X140610000Y-94080000D03*
X143150000Y-94080000D03*
X89810000Y-96620000D03*
X92350000Y-96620000D03*
X94890000Y-96620000D03*
X97430000Y-96620000D03*
X99970000Y-96620000D03*
X102510000Y-96620000D03*
X105050000Y-96620000D03*
X107590000Y-96620000D03*
X110130000Y-96620000D03*
X112670000Y-96620000D03*
X115210000Y-96620000D03*
X117750000Y-96620000D03*
X120290000Y-96620000D03*
X122830000Y-96620000D03*
X125370000Y-96620000D03*
X127910000Y-96620000D03*
X130450000Y-96620000D03*
X132990000Y-96620000D03*
X135530000Y-96620000D03*
X138070000Y-96620000D03*
X140610000Y-96620000D03*
X143150000Y-96620000D03*
X89810000Y-99160000D03*
X92350000Y-99160000D03*
X94890000Y-99160000D03*
X97430000Y-99160000D03*
X99970000Y-99160000D03*
X102510000Y-99160000D03*
X105050000Y-99160000D03*
X107590000Y-99160000D03*
X110130000Y-99160000D03*
X112670000Y-99160000D03*
X115210000Y-99160000D03*
X117750000Y-99160000D03*
X120290000Y-99160000D03*
X122830000Y-99160000D03*
X125370000Y-99160000D03*
X127910000Y-99160000D03*
X130450000Y-99160000D03*
X132990000Y-99160000D03*
X135530000Y-99160000D03*
X138070000Y-99160000D03*
X140610000Y-99160000D03*
X143150000Y-99160000D03*
X89810000Y-101700000D03*
X92350000Y-101700000D03*
X94890000Y-101700000D03*
X97430000Y-101700000D03*
X99970000Y-101700000D03*
X102510000Y-101700000D03*
X105050000Y-101700000D03*
X107590000Y-101700000D03*
X110130000Y-101700000D03*
X112670000Y-101700000D03*
X115210000Y-101700000D03*
X117750000Y-101700000D03*
X120290000Y-101700000D03*
X122830000Y-101700000D03*
X125370000Y-101700000D03*
X127910000Y-101700000D03*
X130450000Y-101700000D03*
X132990000Y-101700000D03*
X135530000Y-101700000D03*
X138070000Y-101700000D03*
X140610000Y-101700000D03*
X143150000Y-101700000D03*
X89810000Y-104240000D03*
X92350000Y-104240000D03*
X94890000Y-104240000D03*
X97430000Y-104240000D03*
X99970000Y-104240000D03*
X102510000Y-104240000D03*
X105050000Y-104240000D03*
X107590000Y-104240000D03*
X110130000Y-104240000D03*
X112670000Y-104240000D03*
X115210000Y-104240000D03*
X117750000Y-104240000D03*
X120290000Y-104240000D03*
X122830000Y-104240000D03*
X125370000Y-104240000D03*
X127910000Y-104240000D03*
X130450000Y-104240000D03*
X132990000Y-104240000D03*
X135530000Y-104240000D03*
X138070000Y-104240000D03*
X140610000Y-104240000D03*
X143150000Y-104240000D03*
X89810000Y-106780000D03*
X92350000Y-106780000D03*
X94890000Y-106780000D03*
X97430000Y-106780000D03*
X99970000Y-106780000D03*
X102510000Y-106780000D03*
X105050000Y-106780000D03*
X107590000Y-106780000D03*
X110130000Y-106780000D03*
X112670000Y-106780000D03*
X115210000Y-106780000D03*
X117750000Y-106780000D03*
X120290000Y-106780000D03*
X122830000Y-106780000D03*
X125370000Y-106780000D03*
X127910000Y-106780000D03*
X130450000Y-106780000D03*
X132990000Y-106780000D03*
X135530000Y-106780000D03*
X138070000Y-106780000D03*
X140610000Y-106780000D03*
X143150000Y-106780000D03*
X89810000Y-109320000D03*
X92350000Y-109320000D03*
X94890000Y-109320000D03*
X97430000Y-109320000D03*
X99970000Y-109320000D03*
X102510000Y-109320000D03*
X105050000Y-109320000D03*
X107590000Y-109320000D03*
X110130000Y-109320000D03*
X112670000Y-109320000D03*
X115210000Y-109320000D03*
X117750000Y-109320000D03*
X120290000Y-109320000D03*
X122830000Y-109320000D03*
X125370000Y-109320000D03*
X127910000Y-109320000D03*
X130450000Y-109320000D03*
X132990000Y-109320000D03*
X135530000Y-109320000D03*
X138070000Y-109320000D03*
X140610000Y-109320000D03*
X143150000Y-109320000D03*
D19*
X87750000Y-31850000D03*
X90450000Y-31850000D03*
D16*
X85425000Y-36575000D03*
X85425000Y-33875000D03*
D20*
X94300000Y-27275000D03*
D21*
X91760000Y-27275000D03*
M02*
