G04 #@! TF.FileFunction,Copper,L1,Top,Signal*
%FSLAX46Y46*%
G04 Gerber Fmt 4.6, Leading zero omitted, Abs format (unit mm)*
G04 Created by KiCad (PCBNEW 4.0.6) date 10/03/17 07:00:37*
%MOMM*%
%LPD*%
G01*
G04 APERTURE LIST*
%ADD10C,0.100000*%
%ADD11R,2.032000X3.657600*%
%ADD12R,2.032000X1.016000*%
%ADD13R,1.250000X1.500000*%
%ADD14R,1.300000X1.500000*%
%ADD15R,1.600000X0.550000*%
%ADD16R,0.550000X1.600000*%
%ADD17R,1.500000X1.300000*%
%ADD18R,2.032000X2.032000*%
%ADD19O,2.032000X2.032000*%
%ADD20R,1.727200X1.727200*%
%ADD21O,1.727200X1.727200*%
%ADD22R,2.032000X1.727200*%
%ADD23O,2.032000X1.727200*%
%ADD24R,2.300000X1.200000*%
%ADD25R,1.000000X1.000000*%
%ADD26R,1.100000X1.800000*%
%ADD27O,5.001260X2.999740*%
%ADD28O,2.999740X5.001260*%
%ADD29R,1.727200X2.032000*%
%ADD30O,1.727200X2.032000*%
%ADD31R,1.500000X1.250000*%
%ADD32C,0.600000*%
%ADD33C,0.800000*%
%ADD34C,1.000000*%
%ADD35C,0.500000*%
%ADD36C,0.450000*%
%ADD37C,2.000000*%
%ADD38C,0.550000*%
%ADD39C,0.300000*%
G04 APERTURE END LIST*
D10*
D11*
X127632000Y-54260000D03*
D12*
X121028000Y-54260000D03*
X121028000Y-56546000D03*
X121028000Y-51974000D03*
D13*
X98000000Y-53940000D03*
X98000000Y-56440000D03*
X94220000Y-53920000D03*
X94220000Y-56420000D03*
D14*
X84380000Y-42290000D03*
X84380000Y-44990000D03*
X88450000Y-45000000D03*
X88450000Y-42300000D03*
D15*
X147590000Y-57120000D03*
X147590000Y-57920000D03*
X147590000Y-58720000D03*
X147590000Y-59520000D03*
X147590000Y-60320000D03*
X147590000Y-61120000D03*
X147590000Y-61920000D03*
X147590000Y-62720000D03*
D16*
X149040000Y-64170000D03*
X149840000Y-64170000D03*
X150640000Y-64170000D03*
X151440000Y-64170000D03*
X152240000Y-64170000D03*
X153040000Y-64170000D03*
X153840000Y-64170000D03*
X154640000Y-64170000D03*
D15*
X156090000Y-62720000D03*
X156090000Y-61920000D03*
X156090000Y-61120000D03*
X156090000Y-60320000D03*
X156090000Y-59520000D03*
X156090000Y-58720000D03*
X156090000Y-57920000D03*
X156090000Y-57120000D03*
D16*
X154640000Y-55670000D03*
X153840000Y-55670000D03*
X153040000Y-55670000D03*
X152240000Y-55670000D03*
X151440000Y-55670000D03*
X150640000Y-55670000D03*
X149840000Y-55670000D03*
X149040000Y-55670000D03*
D14*
X118380000Y-55810000D03*
X118380000Y-53110000D03*
D17*
X123800000Y-49560000D03*
X121100000Y-49560000D03*
X158140000Y-106570000D03*
X160840000Y-106570000D03*
X160910000Y-102680000D03*
X158210000Y-102680000D03*
X158860000Y-61940000D03*
X161560000Y-61940000D03*
X142880000Y-59010000D03*
X140180000Y-59010000D03*
X142860000Y-56900000D03*
X140160000Y-56900000D03*
D18*
X108650000Y-54030000D03*
D19*
X111190000Y-54030000D03*
D18*
X131730000Y-54130000D03*
D19*
X134270000Y-54130000D03*
D17*
X140770000Y-61180000D03*
X138070000Y-61180000D03*
X140770000Y-63360000D03*
X138070000Y-63360000D03*
D14*
X133610000Y-45560000D03*
X133610000Y-48260000D03*
X136080000Y-48300000D03*
X136080000Y-45600000D03*
D20*
X173990000Y-56640000D03*
D21*
X176530000Y-56640000D03*
X173990000Y-54100000D03*
X176530000Y-54100000D03*
X173990000Y-51560000D03*
X176530000Y-51560000D03*
X173990000Y-49020000D03*
X176530000Y-49020000D03*
X173990000Y-46480000D03*
X176530000Y-46480000D03*
X173990000Y-43940000D03*
X176530000Y-43940000D03*
X173990000Y-41400000D03*
X176530000Y-41400000D03*
X173990000Y-38860000D03*
X176530000Y-38860000D03*
X173990000Y-36320000D03*
X176530000Y-36320000D03*
X173990000Y-33780000D03*
X176530000Y-33780000D03*
D20*
X176910000Y-80540000D03*
D21*
X174370000Y-80540000D03*
X176910000Y-83080000D03*
X174370000Y-83080000D03*
X176910000Y-85620000D03*
X174370000Y-85620000D03*
X176910000Y-88160000D03*
X174370000Y-88160000D03*
X176910000Y-90700000D03*
X174370000Y-90700000D03*
X176910000Y-93240000D03*
X174370000Y-93240000D03*
X176910000Y-95780000D03*
X174370000Y-95780000D03*
X176910000Y-98320000D03*
X174370000Y-98320000D03*
X176910000Y-100860000D03*
X174370000Y-100860000D03*
X176910000Y-103400000D03*
X174370000Y-103400000D03*
D20*
X106790000Y-24530000D03*
D21*
X106790000Y-27070000D03*
X109330000Y-24530000D03*
X109330000Y-27070000D03*
X111870000Y-24530000D03*
X111870000Y-27070000D03*
X114410000Y-24530000D03*
X114410000Y-27070000D03*
X116950000Y-24530000D03*
X116950000Y-27070000D03*
X119490000Y-24530000D03*
X119490000Y-27070000D03*
X122030000Y-24530000D03*
X122030000Y-27070000D03*
X124570000Y-24530000D03*
X124570000Y-27070000D03*
X127110000Y-24530000D03*
X127110000Y-27070000D03*
X129650000Y-24530000D03*
X129650000Y-27070000D03*
D22*
X176470000Y-74050000D03*
D23*
X176470000Y-71510000D03*
X176470000Y-68970000D03*
X176470000Y-66430000D03*
D20*
X158240000Y-25070000D03*
D21*
X158240000Y-27610000D03*
X160780000Y-25070000D03*
X160780000Y-27610000D03*
X163320000Y-25070000D03*
X163320000Y-27610000D03*
X165860000Y-25070000D03*
X165860000Y-27610000D03*
D24*
X143620000Y-61490000D03*
X143620000Y-63090000D03*
D25*
X151200000Y-49620000D03*
X151200000Y-51620000D03*
D26*
X147730000Y-37020000D03*
X147730000Y-43220000D03*
X151430000Y-43220000D03*
X151430000Y-37020000D03*
D27*
X86320000Y-53228800D03*
X86320000Y-57191200D03*
X86320000Y-49268940D03*
X86320000Y-61151060D03*
D28*
X166231200Y-115250000D03*
X162268800Y-115250000D03*
X170191060Y-115250000D03*
X158308940Y-115250000D03*
D29*
X136350000Y-25310000D03*
D30*
X138890000Y-25310000D03*
X141430000Y-25310000D03*
D18*
X100630000Y-24540000D03*
D19*
X98090000Y-24540000D03*
D31*
X167020000Y-102640000D03*
X164520000Y-102640000D03*
X166950000Y-106490000D03*
X164450000Y-106490000D03*
D17*
X150740000Y-33190000D03*
X148040000Y-33190000D03*
D20*
X148080000Y-25400000D03*
D21*
X148080000Y-27940000D03*
X150620000Y-25400000D03*
X150620000Y-27940000D03*
D17*
X161580000Y-59740000D03*
X158880000Y-59740000D03*
D32*
X163070000Y-50620000D03*
X163820000Y-55050000D03*
D33*
X151490000Y-35360000D03*
D32*
X161020000Y-34620000D03*
X162830000Y-37690000D03*
X119120000Y-50890000D03*
X119120000Y-49560000D03*
X118390000Y-51630000D03*
D33*
X136080000Y-50040000D03*
X88690000Y-46690000D03*
X151460000Y-45110000D03*
X162460000Y-102700000D03*
X162570000Y-105610000D03*
X163360000Y-61930000D03*
D32*
X157600000Y-59240000D03*
X145180000Y-58130000D03*
D33*
X136300000Y-63370000D03*
X136280000Y-61200000D03*
X138230000Y-59020000D03*
X138180000Y-56890000D03*
D32*
X145360000Y-57140000D03*
X171750000Y-25640000D03*
X165860000Y-59640000D03*
X151300000Y-47210000D03*
X142970000Y-52720000D03*
D34*
X161580000Y-52110000D02*
X163070000Y-50620000D01*
X161580000Y-52810000D02*
X161580000Y-52110000D01*
X163820000Y-55050000D02*
X161580000Y-52810000D01*
X151430000Y-35420000D02*
X151490000Y-35360000D01*
X151430000Y-35420000D02*
X151430000Y-37020000D01*
X162810000Y-36410000D02*
X161020000Y-34620000D01*
X162810000Y-37670000D02*
X162810000Y-36410000D01*
X162830000Y-37690000D02*
X162810000Y-37670000D01*
X121028000Y-51974000D02*
X120204000Y-51974000D01*
X120204000Y-51974000D02*
X119120000Y-50890000D01*
X121100000Y-49560000D02*
X119120000Y-49560000D01*
D35*
X118380000Y-53110000D02*
X118380000Y-51640000D01*
X118380000Y-51640000D02*
X118390000Y-51630000D01*
D36*
X147590000Y-60320000D02*
X152810000Y-60320000D01*
X153610000Y-59520000D02*
X156090000Y-59520000D01*
X152810000Y-60320000D02*
X153610000Y-59520000D01*
D34*
X136080000Y-48300000D02*
X136080000Y-50040000D01*
X98000000Y-56440000D02*
X94240000Y-56440000D01*
X94240000Y-56440000D02*
X94220000Y-56420000D01*
X86320000Y-57191200D02*
X93448800Y-57191200D01*
X93448800Y-57191200D02*
X94220000Y-56420000D01*
X88450000Y-45000000D02*
X88450000Y-46450000D01*
X88450000Y-46450000D02*
X88690000Y-46690000D01*
X151430000Y-43220000D02*
X151430000Y-45080000D01*
X151430000Y-45080000D02*
X151460000Y-45110000D01*
X164520000Y-102640000D02*
X162520000Y-102640000D01*
X162440000Y-102680000D02*
X160910000Y-102680000D01*
X162440000Y-102680000D02*
X162460000Y-102700000D01*
X162520000Y-102640000D02*
X162460000Y-102700000D01*
X164450000Y-106490000D02*
X163450000Y-106490000D01*
X163450000Y-106490000D02*
X162570000Y-105610000D01*
X161560000Y-61940000D02*
X163350000Y-61940000D01*
X163350000Y-61940000D02*
X163360000Y-61930000D01*
D36*
X156090000Y-59520000D02*
X157320000Y-59520000D01*
X157320000Y-59520000D02*
X157600000Y-59240000D01*
X147590000Y-58720000D02*
X145770000Y-58720000D01*
X145770000Y-58720000D02*
X145180000Y-58130000D01*
D34*
X138070000Y-63360000D02*
X136310000Y-63360000D01*
X136310000Y-63360000D02*
X136300000Y-63370000D01*
X138070000Y-61180000D02*
X136300000Y-61180000D01*
X136300000Y-61180000D02*
X136280000Y-61200000D01*
X140180000Y-59010000D02*
X138240000Y-59010000D01*
X138240000Y-59010000D02*
X138230000Y-59020000D01*
X140160000Y-56900000D02*
X138190000Y-56900000D01*
X138190000Y-56900000D02*
X138180000Y-56890000D01*
X138070000Y-61180000D02*
X138070000Y-63360000D01*
X138070000Y-61180000D02*
X138070000Y-61120000D01*
X140160000Y-56900000D02*
X140160000Y-58990000D01*
X140160000Y-58990000D02*
X140180000Y-59010000D01*
D36*
X87091200Y-56420000D02*
X86320000Y-57191200D01*
X94240000Y-56440000D02*
X94220000Y-56420000D01*
X106790000Y-24530000D02*
X106320000Y-24530000D01*
X106320000Y-24530000D02*
X104470000Y-22680000D01*
X98090000Y-23200000D02*
X98090000Y-24540000D01*
X98610000Y-22680000D02*
X98090000Y-23200000D01*
X104470000Y-22680000D02*
X98610000Y-22680000D01*
D34*
X164450000Y-106490000D02*
X164450000Y-102710000D01*
X164450000Y-102710000D02*
X164520000Y-102640000D01*
X164480000Y-102680000D02*
X164520000Y-102640000D01*
X151430000Y-37020000D02*
X151430000Y-43220000D01*
D37*
X86320000Y-61151060D02*
X86320000Y-57191200D01*
X158308940Y-115250000D02*
X162268800Y-115250000D01*
D35*
X174370000Y-80540000D02*
X176910000Y-80540000D01*
X106790000Y-27070000D02*
X106790000Y-24530000D01*
X176530000Y-56640000D02*
X173990000Y-56640000D01*
D34*
X88450000Y-42300000D02*
X84390000Y-42300000D01*
X84390000Y-42300000D02*
X84380000Y-42290000D01*
D35*
X150640000Y-55670000D02*
X150640000Y-53280000D01*
X138890000Y-41530000D02*
X138890000Y-25310000D01*
X150640000Y-53280000D02*
X138890000Y-41530000D01*
X149840000Y-55670000D02*
X149840000Y-53441668D01*
X136350000Y-39951668D02*
X136350000Y-25310000D01*
X149840000Y-53441668D02*
X136350000Y-39951668D01*
D34*
X148080000Y-25400000D02*
X148080000Y-27940000D01*
X148080000Y-27940000D02*
X148080000Y-33150000D01*
X148080000Y-33150000D02*
X148040000Y-33190000D01*
X147730000Y-37020000D02*
X147730000Y-33500000D01*
X147730000Y-33500000D02*
X148040000Y-33190000D01*
X147730000Y-37020000D02*
X147730000Y-43220000D01*
D35*
X147730000Y-33500000D02*
X148040000Y-33190000D01*
X151200000Y-51620000D02*
X151140000Y-51620000D01*
X151140000Y-51620000D02*
X147730000Y-48210000D01*
X147730000Y-48210000D02*
X147730000Y-43220000D01*
X151440000Y-55670000D02*
X151440000Y-51860000D01*
X151440000Y-51860000D02*
X151200000Y-51620000D01*
X148040000Y-27980000D02*
X148080000Y-27940000D01*
X153040000Y-55670000D02*
X153040000Y-53181668D01*
X156970002Y-28879998D02*
X158240000Y-27610000D01*
X156970002Y-49251666D02*
X156970002Y-28879998D01*
X153040000Y-53181668D02*
X156970002Y-49251666D01*
X163320000Y-27610000D02*
X165860000Y-27610000D01*
X160780000Y-27610000D02*
X163320000Y-27610000D01*
X160780000Y-27610000D02*
X158240000Y-27610000D01*
X163320000Y-25070000D02*
X165860000Y-25070000D01*
X160780000Y-25070000D02*
X163320000Y-25070000D01*
X158240000Y-25070000D02*
X160780000Y-25070000D01*
X152240000Y-55670000D02*
X152240000Y-53020000D01*
X156930000Y-25070000D02*
X158240000Y-25070000D01*
X156290000Y-25710000D02*
X156930000Y-25070000D01*
X156290000Y-48970000D02*
X156290000Y-25710000D01*
X152240000Y-53020000D02*
X156290000Y-48970000D01*
X153040000Y-64170000D02*
X153040000Y-66173336D01*
X171870004Y-70330004D02*
X175590000Y-74050000D01*
X157196668Y-70330004D02*
X171870004Y-70330004D01*
X153040000Y-66173336D02*
X157196668Y-70330004D01*
X175590000Y-74050000D02*
X176470000Y-74050000D01*
X153840000Y-64170000D02*
X153840000Y-66011668D01*
X175250000Y-71510000D02*
X176470000Y-71510000D01*
X173390002Y-69650002D02*
X175250000Y-71510000D01*
X157478334Y-69650002D02*
X173390002Y-69650002D01*
X153840000Y-66011668D02*
X157478334Y-69650002D01*
X154640000Y-64170000D02*
X154640000Y-65850000D01*
X157760000Y-68970000D02*
X176470000Y-68970000D01*
X154640000Y-65850000D02*
X157760000Y-68970000D01*
X156090000Y-62720000D02*
X157360000Y-62720000D01*
X174550000Y-66430000D02*
X176470000Y-66430000D01*
X172690002Y-68289998D02*
X174550000Y-66430000D01*
X162929998Y-68289998D02*
X172690002Y-68289998D01*
X157360000Y-62720000D02*
X162929998Y-68289998D01*
X176910000Y-85620000D02*
X174370000Y-85620000D01*
X151440000Y-64170000D02*
X151440000Y-66496672D01*
X170563328Y-85620000D02*
X174370000Y-85620000D01*
X151440000Y-66496672D02*
X170563328Y-85620000D01*
X174370000Y-88160000D02*
X176910000Y-88160000D01*
X150640000Y-64170000D02*
X150640000Y-66658340D01*
X172141660Y-88160000D02*
X174370000Y-88160000D01*
X150640000Y-66658340D02*
X172141660Y-88160000D01*
X174370000Y-90700000D02*
X176910000Y-90700000D01*
X149840000Y-64170000D02*
X149840000Y-66820008D01*
X149840000Y-66820008D02*
X173719992Y-90700000D01*
X173719992Y-90700000D02*
X174370000Y-90700000D01*
X176910000Y-95780000D02*
X174370000Y-95780000D01*
X176910000Y-93240000D02*
X176910000Y-95780000D01*
X174370000Y-93240000D02*
X174370000Y-95780000D01*
X174370000Y-93240000D02*
X176910000Y-93240000D01*
X149040000Y-64170000D02*
X149040000Y-66981676D01*
X172530000Y-93240000D02*
X174370000Y-93240000D01*
X170730000Y-91440000D02*
X172530000Y-93240000D01*
X170730000Y-88671676D02*
X170730000Y-91440000D01*
X149040000Y-66981676D02*
X170730000Y-88671676D01*
X147590000Y-57920000D02*
X146140000Y-57920000D01*
X146140000Y-57920000D02*
X145360000Y-57140000D01*
X176910000Y-98320000D02*
X176910000Y-100860000D01*
X174370000Y-100860000D02*
X176910000Y-100860000D01*
X174370000Y-98320000D02*
X174370000Y-100860000D01*
X174370000Y-98320000D02*
X176910000Y-98320000D01*
X173990000Y-54100000D02*
X176530000Y-54100000D01*
X156090000Y-57920000D02*
X165380000Y-57920000D01*
X169200000Y-54100000D02*
X173990000Y-54100000D01*
X165380000Y-57920000D02*
X169200000Y-54100000D01*
X173990000Y-51560000D02*
X176530000Y-51560000D01*
X156090000Y-57120000D02*
X165218332Y-57120000D01*
X170778332Y-51560000D02*
X173990000Y-51560000D01*
X165218332Y-57120000D02*
X170778332Y-51560000D01*
X173990000Y-49020000D02*
X176530000Y-49020000D01*
X154640000Y-55670000D02*
X154640000Y-54510000D01*
X160130000Y-49020000D02*
X173990000Y-49020000D01*
X154640000Y-54510000D02*
X160130000Y-49020000D01*
X173990000Y-46480000D02*
X176530000Y-46480000D01*
X153840000Y-55670000D02*
X153840000Y-53930000D01*
X161290000Y-46480000D02*
X173990000Y-46480000D01*
X153840000Y-53930000D02*
X161290000Y-46480000D01*
D38*
X173990000Y-38860000D02*
X173090000Y-38860000D01*
X171750000Y-37520000D02*
X171750000Y-25640000D01*
X173090000Y-38860000D02*
X171750000Y-37520000D01*
D36*
X149040000Y-55670000D02*
X149040000Y-54180000D01*
X119490000Y-29780000D02*
X119490000Y-27070000D01*
X120539998Y-30829998D02*
X119490000Y-29780000D01*
X126302018Y-30829998D02*
X120539998Y-30829998D01*
X149040000Y-53567980D02*
X126302018Y-30829998D01*
X149040000Y-54180000D02*
X149040000Y-53567980D01*
D35*
X114410000Y-24530000D02*
X114410000Y-27070000D01*
X116950000Y-24530000D02*
X119490000Y-24530000D01*
X116950000Y-27070000D02*
X119490000Y-27070000D01*
X114410000Y-27070000D02*
X116950000Y-27070000D01*
X114410000Y-24530000D02*
X116950000Y-24530000D01*
X116950000Y-27070000D02*
X116950000Y-24530000D01*
X119490000Y-27070000D02*
X119490000Y-24530000D01*
X176530000Y-38860000D02*
X176530000Y-41400000D01*
X173990000Y-38860000D02*
X173990000Y-41400000D01*
X173990000Y-38860000D02*
X176530000Y-38860000D01*
X173990000Y-41400000D02*
X176530000Y-41400000D01*
D34*
X140710000Y-54200000D02*
X134340000Y-54200000D01*
X134340000Y-54200000D02*
X134270000Y-54130000D01*
X133610000Y-48260000D02*
X133610000Y-51920000D01*
X134270000Y-52580000D02*
X134270000Y-54130000D01*
X133610000Y-51920000D02*
X134270000Y-52580000D01*
X142880000Y-59010000D02*
X142880000Y-56920000D01*
X142880000Y-56920000D02*
X142860000Y-56900000D01*
X161580000Y-59740000D02*
X161320000Y-59740000D01*
X161320000Y-59740000D02*
X159120000Y-61940000D01*
X159120000Y-61940000D02*
X158860000Y-61940000D01*
X165760000Y-59740000D02*
X161580000Y-59740000D01*
X165860000Y-59640000D02*
X165760000Y-59740000D01*
D37*
X140710000Y-54200000D02*
X141490000Y-54200000D01*
D34*
X151200000Y-47310000D02*
X151200000Y-49620000D01*
X151300000Y-47210000D02*
X151200000Y-47310000D01*
D37*
X141490000Y-54200000D02*
X142970000Y-52720000D01*
X142860000Y-56900000D02*
X142860000Y-55590000D01*
X141470000Y-54200000D02*
X140710000Y-54200000D01*
X142860000Y-55590000D02*
X141470000Y-54200000D01*
D36*
X147590000Y-59520000D02*
X145530000Y-59520000D01*
X144170000Y-56900000D02*
X142860000Y-56900000D01*
X144420000Y-57150000D02*
X144170000Y-56900000D01*
X144420000Y-58410000D02*
X144420000Y-57150000D01*
X145530000Y-59520000D02*
X144420000Y-58410000D01*
X142880000Y-59010000D02*
X143800000Y-59010000D01*
X145910000Y-61120000D02*
X147590000Y-61120000D01*
X143800000Y-59010000D02*
X145910000Y-61120000D01*
D35*
X161580000Y-59740000D02*
X161060000Y-59740000D01*
X156090000Y-61920000D02*
X158840000Y-61920000D01*
X158840000Y-61920000D02*
X158860000Y-61940000D01*
X176910000Y-83080000D02*
X174370000Y-83080000D01*
X152240000Y-64170000D02*
X152240000Y-66335004D01*
X168984996Y-83080000D02*
X174370000Y-83080000D01*
X152240000Y-66335004D02*
X168984996Y-83080000D01*
D34*
X84380000Y-44990000D02*
X84380000Y-47328940D01*
X84380000Y-47328940D02*
X86320000Y-49268940D01*
D37*
X94220000Y-53920000D02*
X97980000Y-53920000D01*
X97980000Y-53920000D02*
X98000000Y-53940000D01*
X86320000Y-53228800D02*
X93528800Y-53228800D01*
X93528800Y-53228800D02*
X94220000Y-53920000D01*
X86320000Y-49268940D02*
X86320000Y-53228800D01*
D34*
X158210000Y-102680000D02*
X158210000Y-106500000D01*
X158210000Y-106500000D02*
X158140000Y-106570000D01*
D35*
X121028000Y-56546000D02*
X119116000Y-56546000D01*
X119116000Y-56546000D02*
X118380000Y-55810000D01*
D34*
X127632000Y-54260000D02*
X131600000Y-54260000D01*
X131600000Y-54260000D02*
X131730000Y-54130000D01*
X127632000Y-54260000D02*
X126240000Y-54260000D01*
X126240000Y-54260000D02*
X123800000Y-51820000D01*
X121028000Y-54260000D02*
X122700000Y-54260000D01*
X123800000Y-53160000D02*
X123800000Y-51820000D01*
X123800000Y-51820000D02*
X123800000Y-49560000D01*
X122700000Y-54260000D02*
X123800000Y-53160000D01*
D35*
X143620000Y-61490000D02*
X141080000Y-61490000D01*
X141080000Y-61490000D02*
X140770000Y-61180000D01*
X143620000Y-61490000D02*
X145110000Y-61490000D01*
X145540000Y-61920000D02*
X147590000Y-61920000D01*
X145110000Y-61490000D02*
X145540000Y-61920000D01*
X143620000Y-63090000D02*
X141040000Y-63090000D01*
X141040000Y-63090000D02*
X140770000Y-63360000D01*
X143620000Y-63090000D02*
X145030000Y-63090000D01*
X145400000Y-62720000D02*
X147590000Y-62720000D01*
X145030000Y-63090000D02*
X145400000Y-62720000D01*
X156090000Y-60320000D02*
X158300000Y-60320000D01*
X158300000Y-60320000D02*
X158880000Y-59740000D01*
D34*
X129650000Y-24530000D02*
X131830000Y-24530000D01*
X178960000Y-24620000D02*
X178960000Y-36210000D01*
X177420000Y-23080000D02*
X178960000Y-24620000D01*
X133280000Y-23080000D02*
X177420000Y-23080000D01*
X131830000Y-24530000D02*
X133280000Y-23080000D01*
X176910000Y-103400000D02*
X178390000Y-103400000D01*
X178390000Y-103400000D02*
X178960000Y-102830000D01*
X178960000Y-102830000D02*
X178960000Y-36210000D01*
X178960000Y-36210000D02*
X176530000Y-33780000D01*
D37*
X167020000Y-102640000D02*
X170940000Y-102640000D01*
X171700000Y-103400000D02*
X174370000Y-103400000D01*
X170940000Y-102640000D02*
X171700000Y-103400000D01*
X167020000Y-102640000D02*
X167020000Y-106420000D01*
X167020000Y-106420000D02*
X166950000Y-106490000D01*
X166231200Y-115250000D02*
X166231200Y-111061200D01*
X163060000Y-108790000D02*
X160840000Y-106570000D01*
X163960000Y-108790000D02*
X163060000Y-108790000D01*
X166231200Y-111061200D02*
X163960000Y-108790000D01*
X170191060Y-115250000D02*
X170191060Y-109731060D01*
X170191060Y-109731060D02*
X166950000Y-106490000D01*
X166231200Y-115250000D02*
X170191060Y-115250000D01*
D35*
X174370000Y-103400000D02*
X176910000Y-103400000D01*
X129650000Y-24530000D02*
X129650000Y-27070000D01*
X176530000Y-33780000D02*
X173990000Y-33780000D01*
D34*
X133610000Y-45560000D02*
X136040000Y-45560000D01*
X136040000Y-45560000D02*
X136080000Y-45600000D01*
D35*
X173990000Y-43940000D02*
X176530000Y-43940000D01*
X173990000Y-36320000D02*
X176530000Y-36320000D01*
X109330000Y-24530000D02*
X109330000Y-27070000D01*
X111870000Y-24530000D02*
X111870000Y-27070000D01*
X122030000Y-24530000D02*
X122030000Y-27070000D01*
X124570000Y-24530000D02*
X124570000Y-27070000D01*
X127110000Y-24530000D02*
X127110000Y-27070000D01*
D36*
X147590000Y-57120000D02*
X146470000Y-57120000D01*
X100630000Y-27460000D02*
X100630000Y-24540000D01*
X104630000Y-31460000D02*
X100630000Y-27460000D01*
X125910000Y-31460000D02*
X104630000Y-31460000D01*
X145710000Y-51260000D02*
X125910000Y-31460000D01*
X145710000Y-56360000D02*
X145710000Y-51260000D01*
X146470000Y-57120000D02*
X145710000Y-56360000D01*
D34*
X150620000Y-25400000D02*
X150620000Y-27940000D01*
X150620000Y-27940000D02*
X150620000Y-33070000D01*
X150620000Y-33070000D02*
X150740000Y-33190000D01*
D35*
X150740000Y-28060000D02*
X150620000Y-27940000D01*
D39*
G36*
X83357273Y-46297825D02*
X83599115Y-46398000D01*
X84111500Y-46398000D01*
X84276000Y-46233500D01*
X84276000Y-46220000D01*
X84484000Y-46220000D01*
X84484000Y-46233500D01*
X84648500Y-46398000D01*
X85160885Y-46398000D01*
X85402727Y-46297825D01*
X85480552Y-46220000D01*
X87400000Y-46220000D01*
X87400000Y-46450000D01*
X87479926Y-46851818D01*
X87698847Y-47179455D01*
X87424760Y-47111070D01*
X86424000Y-47111070D01*
X86424000Y-49164940D01*
X89311415Y-49164940D01*
X89433317Y-48829048D01*
X89354171Y-48539243D01*
X88920144Y-47816635D01*
X88789796Y-47720150D01*
X89091817Y-47660074D01*
X89432462Y-47432462D01*
X89660074Y-47091817D01*
X89740000Y-46690000D01*
X89660074Y-46288182D01*
X89614516Y-46220000D01*
X109720000Y-46220000D01*
X109720000Y-52356000D01*
X108918500Y-52356000D01*
X108754000Y-52520500D01*
X108754000Y-53926000D01*
X108774000Y-53926000D01*
X108774000Y-54134000D01*
X108754000Y-54134000D01*
X108754000Y-54154000D01*
X108546000Y-54154000D01*
X108546000Y-54134000D01*
X107140500Y-54134000D01*
X106976000Y-54298500D01*
X106976000Y-55176885D01*
X106981834Y-55190970D01*
X99051917Y-55193635D01*
X99182826Y-55062727D01*
X99283000Y-54820884D01*
X99283000Y-54208500D01*
X99118500Y-54044000D01*
X98104000Y-54044000D01*
X98104000Y-54064000D01*
X97896000Y-54064000D01*
X97896000Y-54044000D01*
X96881500Y-54044000D01*
X96717000Y-54208500D01*
X96717000Y-54820884D01*
X96817174Y-55062727D01*
X96948789Y-55194342D01*
X95250640Y-55194912D01*
X95402826Y-55042727D01*
X95503000Y-54800884D01*
X95503000Y-54188500D01*
X95338500Y-54024000D01*
X94324000Y-54024000D01*
X94324000Y-54044000D01*
X94116000Y-54044000D01*
X94116000Y-54024000D01*
X93101500Y-54024000D01*
X92937000Y-54188500D01*
X92937000Y-54800884D01*
X93037174Y-55042727D01*
X93190053Y-55195605D01*
X88183811Y-55197287D01*
X88242625Y-55182613D01*
X88920144Y-54681105D01*
X89354171Y-53958497D01*
X89433317Y-53668692D01*
X89311415Y-53332800D01*
X86424000Y-53332800D01*
X86424000Y-53352800D01*
X86216000Y-53352800D01*
X86216000Y-53332800D01*
X83328585Y-53332800D01*
X83206683Y-53668692D01*
X83285829Y-53958497D01*
X83719856Y-54681105D01*
X84397375Y-55182613D01*
X84461203Y-55198538D01*
X80625000Y-55199827D01*
X80625000Y-49708832D01*
X83206683Y-49708832D01*
X83285829Y-49998637D01*
X83719856Y-50721245D01*
X84397375Y-51222753D01*
X84502053Y-51248870D01*
X84397375Y-51274987D01*
X83719856Y-51776495D01*
X83285829Y-52499103D01*
X83206683Y-52788908D01*
X83328585Y-53124800D01*
X86216000Y-53124800D01*
X86216000Y-49372940D01*
X86424000Y-49372940D01*
X86424000Y-53124800D01*
X89311415Y-53124800D01*
X89342511Y-53039116D01*
X92937000Y-53039116D01*
X92937000Y-53651500D01*
X93101500Y-53816000D01*
X94116000Y-53816000D01*
X94116000Y-52676500D01*
X94324000Y-52676500D01*
X94324000Y-53816000D01*
X95338500Y-53816000D01*
X95503000Y-53651500D01*
X95503000Y-53059116D01*
X96717000Y-53059116D01*
X96717000Y-53671500D01*
X96881500Y-53836000D01*
X97896000Y-53836000D01*
X97896000Y-52696500D01*
X98104000Y-52696500D01*
X98104000Y-53836000D01*
X99118500Y-53836000D01*
X99283000Y-53671500D01*
X99283000Y-53059116D01*
X99210099Y-52883115D01*
X106976000Y-52883115D01*
X106976000Y-53761500D01*
X107140500Y-53926000D01*
X108546000Y-53926000D01*
X108546000Y-52520500D01*
X108381500Y-52356000D01*
X107503116Y-52356000D01*
X107261273Y-52456174D01*
X107076175Y-52641273D01*
X106976000Y-52883115D01*
X99210099Y-52883115D01*
X99182826Y-52817273D01*
X98997727Y-52632175D01*
X98755885Y-52532000D01*
X98268500Y-52532000D01*
X98104000Y-52696500D01*
X97896000Y-52696500D01*
X97731500Y-52532000D01*
X97244115Y-52532000D01*
X97002273Y-52632175D01*
X96817174Y-52817273D01*
X96717000Y-53059116D01*
X95503000Y-53059116D01*
X95503000Y-53039116D01*
X95402826Y-52797273D01*
X95217727Y-52612175D01*
X94975885Y-52512000D01*
X94488500Y-52512000D01*
X94324000Y-52676500D01*
X94116000Y-52676500D01*
X93951500Y-52512000D01*
X93464115Y-52512000D01*
X93222273Y-52612175D01*
X93037174Y-52797273D01*
X92937000Y-53039116D01*
X89342511Y-53039116D01*
X89433317Y-52788908D01*
X89354171Y-52499103D01*
X88920144Y-51776495D01*
X88242625Y-51274987D01*
X88137947Y-51248870D01*
X88242625Y-51222753D01*
X88920144Y-50721245D01*
X89354171Y-49998637D01*
X89433317Y-49708832D01*
X89311415Y-49372940D01*
X86424000Y-49372940D01*
X86216000Y-49372940D01*
X83328585Y-49372940D01*
X83206683Y-49708832D01*
X80625000Y-49708832D01*
X80625000Y-48829048D01*
X83206683Y-48829048D01*
X83328585Y-49164940D01*
X86216000Y-49164940D01*
X86216000Y-47111070D01*
X85215240Y-47111070D01*
X84397375Y-47315127D01*
X83719856Y-47816635D01*
X83285829Y-48539243D01*
X83206683Y-48829048D01*
X80625000Y-48829048D01*
X80625000Y-46220000D01*
X83279448Y-46220000D01*
X83357273Y-46297825D01*
X83357273Y-46297825D01*
G37*
X83357273Y-46297825D02*
X83599115Y-46398000D01*
X84111500Y-46398000D01*
X84276000Y-46233500D01*
X84276000Y-46220000D01*
X84484000Y-46220000D01*
X84484000Y-46233500D01*
X84648500Y-46398000D01*
X85160885Y-46398000D01*
X85402727Y-46297825D01*
X85480552Y-46220000D01*
X87400000Y-46220000D01*
X87400000Y-46450000D01*
X87479926Y-46851818D01*
X87698847Y-47179455D01*
X87424760Y-47111070D01*
X86424000Y-47111070D01*
X86424000Y-49164940D01*
X89311415Y-49164940D01*
X89433317Y-48829048D01*
X89354171Y-48539243D01*
X88920144Y-47816635D01*
X88789796Y-47720150D01*
X89091817Y-47660074D01*
X89432462Y-47432462D01*
X89660074Y-47091817D01*
X89740000Y-46690000D01*
X89660074Y-46288182D01*
X89614516Y-46220000D01*
X109720000Y-46220000D01*
X109720000Y-52356000D01*
X108918500Y-52356000D01*
X108754000Y-52520500D01*
X108754000Y-53926000D01*
X108774000Y-53926000D01*
X108774000Y-54134000D01*
X108754000Y-54134000D01*
X108754000Y-54154000D01*
X108546000Y-54154000D01*
X108546000Y-54134000D01*
X107140500Y-54134000D01*
X106976000Y-54298500D01*
X106976000Y-55176885D01*
X106981834Y-55190970D01*
X99051917Y-55193635D01*
X99182826Y-55062727D01*
X99283000Y-54820884D01*
X99283000Y-54208500D01*
X99118500Y-54044000D01*
X98104000Y-54044000D01*
X98104000Y-54064000D01*
X97896000Y-54064000D01*
X97896000Y-54044000D01*
X96881500Y-54044000D01*
X96717000Y-54208500D01*
X96717000Y-54820884D01*
X96817174Y-55062727D01*
X96948789Y-55194342D01*
X95250640Y-55194912D01*
X95402826Y-55042727D01*
X95503000Y-54800884D01*
X95503000Y-54188500D01*
X95338500Y-54024000D01*
X94324000Y-54024000D01*
X94324000Y-54044000D01*
X94116000Y-54044000D01*
X94116000Y-54024000D01*
X93101500Y-54024000D01*
X92937000Y-54188500D01*
X92937000Y-54800884D01*
X93037174Y-55042727D01*
X93190053Y-55195605D01*
X88183811Y-55197287D01*
X88242625Y-55182613D01*
X88920144Y-54681105D01*
X89354171Y-53958497D01*
X89433317Y-53668692D01*
X89311415Y-53332800D01*
X86424000Y-53332800D01*
X86424000Y-53352800D01*
X86216000Y-53352800D01*
X86216000Y-53332800D01*
X83328585Y-53332800D01*
X83206683Y-53668692D01*
X83285829Y-53958497D01*
X83719856Y-54681105D01*
X84397375Y-55182613D01*
X84461203Y-55198538D01*
X80625000Y-55199827D01*
X80625000Y-49708832D01*
X83206683Y-49708832D01*
X83285829Y-49998637D01*
X83719856Y-50721245D01*
X84397375Y-51222753D01*
X84502053Y-51248870D01*
X84397375Y-51274987D01*
X83719856Y-51776495D01*
X83285829Y-52499103D01*
X83206683Y-52788908D01*
X83328585Y-53124800D01*
X86216000Y-53124800D01*
X86216000Y-49372940D01*
X86424000Y-49372940D01*
X86424000Y-53124800D01*
X89311415Y-53124800D01*
X89342511Y-53039116D01*
X92937000Y-53039116D01*
X92937000Y-53651500D01*
X93101500Y-53816000D01*
X94116000Y-53816000D01*
X94116000Y-52676500D01*
X94324000Y-52676500D01*
X94324000Y-53816000D01*
X95338500Y-53816000D01*
X95503000Y-53651500D01*
X95503000Y-53059116D01*
X96717000Y-53059116D01*
X96717000Y-53671500D01*
X96881500Y-53836000D01*
X97896000Y-53836000D01*
X97896000Y-52696500D01*
X98104000Y-52696500D01*
X98104000Y-53836000D01*
X99118500Y-53836000D01*
X99283000Y-53671500D01*
X99283000Y-53059116D01*
X99210099Y-52883115D01*
X106976000Y-52883115D01*
X106976000Y-53761500D01*
X107140500Y-53926000D01*
X108546000Y-53926000D01*
X108546000Y-52520500D01*
X108381500Y-52356000D01*
X107503116Y-52356000D01*
X107261273Y-52456174D01*
X107076175Y-52641273D01*
X106976000Y-52883115D01*
X99210099Y-52883115D01*
X99182826Y-52817273D01*
X98997727Y-52632175D01*
X98755885Y-52532000D01*
X98268500Y-52532000D01*
X98104000Y-52696500D01*
X97896000Y-52696500D01*
X97731500Y-52532000D01*
X97244115Y-52532000D01*
X97002273Y-52632175D01*
X96817174Y-52817273D01*
X96717000Y-53059116D01*
X95503000Y-53059116D01*
X95503000Y-53039116D01*
X95402826Y-52797273D01*
X95217727Y-52612175D01*
X94975885Y-52512000D01*
X94488500Y-52512000D01*
X94324000Y-52676500D01*
X94116000Y-52676500D01*
X93951500Y-52512000D01*
X93464115Y-52512000D01*
X93222273Y-52612175D01*
X93037174Y-52797273D01*
X92937000Y-53039116D01*
X89342511Y-53039116D01*
X89433317Y-52788908D01*
X89354171Y-52499103D01*
X88920144Y-51776495D01*
X88242625Y-51274987D01*
X88137947Y-51248870D01*
X88242625Y-51222753D01*
X88920144Y-50721245D01*
X89354171Y-49998637D01*
X89433317Y-49708832D01*
X89311415Y-49372940D01*
X86424000Y-49372940D01*
X86216000Y-49372940D01*
X83328585Y-49372940D01*
X83206683Y-49708832D01*
X80625000Y-49708832D01*
X80625000Y-48829048D01*
X83206683Y-48829048D01*
X83328585Y-49164940D01*
X86216000Y-49164940D01*
X86216000Y-47111070D01*
X85215240Y-47111070D01*
X84397375Y-47315127D01*
X83719856Y-47816635D01*
X83285829Y-48539243D01*
X83206683Y-48829048D01*
X80625000Y-48829048D01*
X80625000Y-46220000D01*
X83279448Y-46220000D01*
X83357273Y-46297825D01*
G36*
X117539853Y-51798334D02*
X117553912Y-51832358D01*
X117526182Y-51837576D01*
X117338988Y-51958032D01*
X117213406Y-52141827D01*
X117169225Y-52360000D01*
X117169225Y-53860000D01*
X117207576Y-54063818D01*
X117328032Y-54251012D01*
X117496250Y-54365950D01*
X117494427Y-54445363D01*
X117357273Y-54502175D01*
X117172174Y-54687273D01*
X117072000Y-54929116D01*
X117072000Y-55541500D01*
X117236500Y-55706000D01*
X118276000Y-55706000D01*
X118276000Y-55686000D01*
X118484000Y-55686000D01*
X118484000Y-55706000D01*
X118504000Y-55706000D01*
X118504000Y-55914000D01*
X118484000Y-55914000D01*
X118484000Y-57053500D01*
X118648500Y-57218000D01*
X119160885Y-57218000D01*
X119354000Y-57138009D01*
X119354000Y-57184884D01*
X119418251Y-57340000D01*
X110717970Y-57340000D01*
X110700778Y-56078500D01*
X117072000Y-56078500D01*
X117072000Y-56690884D01*
X117172174Y-56932727D01*
X117357273Y-57117825D01*
X117599115Y-57218000D01*
X118111500Y-57218000D01*
X118276000Y-57053500D01*
X118276000Y-55914000D01*
X117236500Y-55914000D01*
X117072000Y-56078500D01*
X110700778Y-56078500D01*
X110694336Y-55605869D01*
X110825914Y-55663934D01*
X111086000Y-55536273D01*
X111086000Y-54134000D01*
X111294000Y-54134000D01*
X111294000Y-55536273D01*
X111554086Y-55663934D01*
X112151651Y-55400228D01*
X112602813Y-54927918D01*
X112823927Y-54394085D01*
X112695913Y-54134000D01*
X111294000Y-54134000D01*
X111086000Y-54134000D01*
X111066000Y-54134000D01*
X111066000Y-53926000D01*
X111086000Y-53926000D01*
X111086000Y-52523727D01*
X111294000Y-52523727D01*
X111294000Y-53926000D01*
X112695913Y-53926000D01*
X112823927Y-53665915D01*
X112602813Y-53132082D01*
X112151651Y-52659772D01*
X111554086Y-52396066D01*
X111294000Y-52523727D01*
X111086000Y-52523727D01*
X110825914Y-52396066D01*
X110651639Y-52472974D01*
X110642050Y-51769370D01*
X117539903Y-51740708D01*
X117539853Y-51798334D01*
X117539853Y-51798334D01*
G37*
X117539853Y-51798334D02*
X117553912Y-51832358D01*
X117526182Y-51837576D01*
X117338988Y-51958032D01*
X117213406Y-52141827D01*
X117169225Y-52360000D01*
X117169225Y-53860000D01*
X117207576Y-54063818D01*
X117328032Y-54251012D01*
X117496250Y-54365950D01*
X117494427Y-54445363D01*
X117357273Y-54502175D01*
X117172174Y-54687273D01*
X117072000Y-54929116D01*
X117072000Y-55541500D01*
X117236500Y-55706000D01*
X118276000Y-55706000D01*
X118276000Y-55686000D01*
X118484000Y-55686000D01*
X118484000Y-55706000D01*
X118504000Y-55706000D01*
X118504000Y-55914000D01*
X118484000Y-55914000D01*
X118484000Y-57053500D01*
X118648500Y-57218000D01*
X119160885Y-57218000D01*
X119354000Y-57138009D01*
X119354000Y-57184884D01*
X119418251Y-57340000D01*
X110717970Y-57340000D01*
X110700778Y-56078500D01*
X117072000Y-56078500D01*
X117072000Y-56690884D01*
X117172174Y-56932727D01*
X117357273Y-57117825D01*
X117599115Y-57218000D01*
X118111500Y-57218000D01*
X118276000Y-57053500D01*
X118276000Y-55914000D01*
X117236500Y-55914000D01*
X117072000Y-56078500D01*
X110700778Y-56078500D01*
X110694336Y-55605869D01*
X110825914Y-55663934D01*
X111086000Y-55536273D01*
X111086000Y-54134000D01*
X111294000Y-54134000D01*
X111294000Y-55536273D01*
X111554086Y-55663934D01*
X112151651Y-55400228D01*
X112602813Y-54927918D01*
X112823927Y-54394085D01*
X112695913Y-54134000D01*
X111294000Y-54134000D01*
X111086000Y-54134000D01*
X111066000Y-54134000D01*
X111066000Y-53926000D01*
X111086000Y-53926000D01*
X111086000Y-52523727D01*
X111294000Y-52523727D01*
X111294000Y-53926000D01*
X112695913Y-53926000D01*
X112823927Y-53665915D01*
X112602813Y-53132082D01*
X112151651Y-52659772D01*
X111554086Y-52396066D01*
X111294000Y-52523727D01*
X111086000Y-52523727D01*
X110825914Y-52396066D01*
X110651639Y-52472974D01*
X110642050Y-51769370D01*
X117539903Y-51740708D01*
X117539853Y-51798334D01*
G36*
X121132000Y-56442000D02*
X121152000Y-56442000D01*
X121152000Y-56650000D01*
X121132000Y-56650000D01*
X121132000Y-56670000D01*
X120924000Y-56670000D01*
X120924000Y-56650000D01*
X120904000Y-56650000D01*
X120904000Y-56442000D01*
X120924000Y-56442000D01*
X120924000Y-56422000D01*
X121132000Y-56422000D01*
X121132000Y-56442000D01*
X121132000Y-56442000D01*
G37*
X121132000Y-56442000D02*
X121152000Y-56442000D01*
X121152000Y-56650000D01*
X121132000Y-56650000D01*
X121132000Y-56670000D01*
X120924000Y-56670000D01*
X120924000Y-56650000D01*
X120904000Y-56650000D01*
X120904000Y-56442000D01*
X120924000Y-56442000D01*
X120924000Y-56422000D01*
X121132000Y-56422000D01*
X121132000Y-56442000D01*
G36*
X132012060Y-52456000D02*
X131998500Y-52456000D01*
X131834000Y-52620500D01*
X131834000Y-54026000D01*
X131854000Y-54026000D01*
X131854000Y-54234000D01*
X131834000Y-54234000D01*
X131834000Y-55639500D01*
X131998500Y-55804000D01*
X132039060Y-55804000D01*
X132048768Y-57007858D01*
X123107861Y-56882066D01*
X123079984Y-54967816D01*
X123067318Y-54909636D01*
X123033014Y-54860967D01*
X122982478Y-54829479D01*
X122931053Y-54820004D01*
X122702000Y-54818397D01*
X122702000Y-54528500D01*
X125958000Y-54528500D01*
X125958000Y-56219684D01*
X126058174Y-56461527D01*
X126243273Y-56646625D01*
X126485115Y-56746800D01*
X127363500Y-56746800D01*
X127528000Y-56582300D01*
X127528000Y-54364000D01*
X127736000Y-54364000D01*
X127736000Y-56582300D01*
X127900500Y-56746800D01*
X128778885Y-56746800D01*
X129020727Y-56646625D01*
X129205826Y-56461527D01*
X129306000Y-56219684D01*
X129306000Y-54528500D01*
X129176000Y-54398500D01*
X130056000Y-54398500D01*
X130056000Y-55276885D01*
X130156175Y-55518727D01*
X130341273Y-55703826D01*
X130583116Y-55804000D01*
X131461500Y-55804000D01*
X131626000Y-55639500D01*
X131626000Y-54234000D01*
X130220500Y-54234000D01*
X130056000Y-54398500D01*
X129176000Y-54398500D01*
X129141500Y-54364000D01*
X127736000Y-54364000D01*
X127528000Y-54364000D01*
X126122500Y-54364000D01*
X125958000Y-54528500D01*
X122702000Y-54528500D01*
X122537500Y-54364000D01*
X121132000Y-54364000D01*
X121132000Y-54384000D01*
X120924000Y-54384000D01*
X120924000Y-54364000D01*
X120904000Y-54364000D01*
X120904000Y-54156000D01*
X120924000Y-54156000D01*
X120924000Y-54136000D01*
X121132000Y-54136000D01*
X121132000Y-54156000D01*
X122537500Y-54156000D01*
X122702000Y-53991500D01*
X122702000Y-53621116D01*
X122655319Y-53508417D01*
X122737149Y-53509973D01*
X122795721Y-53499266D01*
X122845514Y-53466615D01*
X122878680Y-53417165D01*
X122889997Y-53359066D01*
X122883408Y-52300316D01*
X125958000Y-52300316D01*
X125958000Y-53991500D01*
X126122500Y-54156000D01*
X127528000Y-54156000D01*
X127528000Y-51937700D01*
X127736000Y-51937700D01*
X127736000Y-54156000D01*
X129141500Y-54156000D01*
X129306000Y-53991500D01*
X129306000Y-52983115D01*
X130056000Y-52983115D01*
X130056000Y-53861500D01*
X130220500Y-54026000D01*
X131626000Y-54026000D01*
X131626000Y-52620500D01*
X131461500Y-52456000D01*
X130583116Y-52456000D01*
X130341273Y-52556174D01*
X130156175Y-52741273D01*
X130056000Y-52983115D01*
X129306000Y-52983115D01*
X129306000Y-52300316D01*
X129205826Y-52058473D01*
X129020727Y-51873375D01*
X128778885Y-51773200D01*
X127900500Y-51773200D01*
X127736000Y-51937700D01*
X127528000Y-51937700D01*
X127363500Y-51773200D01*
X126485115Y-51773200D01*
X126243273Y-51873375D01*
X126058174Y-52058473D01*
X125958000Y-52300316D01*
X122883408Y-52300316D01*
X122874377Y-50849469D01*
X122919116Y-50868000D01*
X123531500Y-50868000D01*
X123696000Y-50703500D01*
X123696000Y-49664000D01*
X123904000Y-49664000D01*
X123904000Y-50703500D01*
X124068500Y-50868000D01*
X124680884Y-50868000D01*
X124922727Y-50767826D01*
X125107825Y-50582727D01*
X125208000Y-50340885D01*
X125208000Y-49828500D01*
X125043500Y-49664000D01*
X123904000Y-49664000D01*
X123696000Y-49664000D01*
X123676000Y-49664000D01*
X123676000Y-49456000D01*
X123696000Y-49456000D01*
X123696000Y-49436000D01*
X123904000Y-49436000D01*
X123904000Y-49456000D01*
X125043500Y-49456000D01*
X125208000Y-49291500D01*
X125208000Y-48779115D01*
X125164612Y-48674369D01*
X131981213Y-48630951D01*
X132012060Y-52456000D01*
X132012060Y-52456000D01*
G37*
X132012060Y-52456000D02*
X131998500Y-52456000D01*
X131834000Y-52620500D01*
X131834000Y-54026000D01*
X131854000Y-54026000D01*
X131854000Y-54234000D01*
X131834000Y-54234000D01*
X131834000Y-55639500D01*
X131998500Y-55804000D01*
X132039060Y-55804000D01*
X132048768Y-57007858D01*
X123107861Y-56882066D01*
X123079984Y-54967816D01*
X123067318Y-54909636D01*
X123033014Y-54860967D01*
X122982478Y-54829479D01*
X122931053Y-54820004D01*
X122702000Y-54818397D01*
X122702000Y-54528500D01*
X125958000Y-54528500D01*
X125958000Y-56219684D01*
X126058174Y-56461527D01*
X126243273Y-56646625D01*
X126485115Y-56746800D01*
X127363500Y-56746800D01*
X127528000Y-56582300D01*
X127528000Y-54364000D01*
X127736000Y-54364000D01*
X127736000Y-56582300D01*
X127900500Y-56746800D01*
X128778885Y-56746800D01*
X129020727Y-56646625D01*
X129205826Y-56461527D01*
X129306000Y-56219684D01*
X129306000Y-54528500D01*
X129176000Y-54398500D01*
X130056000Y-54398500D01*
X130056000Y-55276885D01*
X130156175Y-55518727D01*
X130341273Y-55703826D01*
X130583116Y-55804000D01*
X131461500Y-55804000D01*
X131626000Y-55639500D01*
X131626000Y-54234000D01*
X130220500Y-54234000D01*
X130056000Y-54398500D01*
X129176000Y-54398500D01*
X129141500Y-54364000D01*
X127736000Y-54364000D01*
X127528000Y-54364000D01*
X126122500Y-54364000D01*
X125958000Y-54528500D01*
X122702000Y-54528500D01*
X122537500Y-54364000D01*
X121132000Y-54364000D01*
X121132000Y-54384000D01*
X120924000Y-54384000D01*
X120924000Y-54364000D01*
X120904000Y-54364000D01*
X120904000Y-54156000D01*
X120924000Y-54156000D01*
X120924000Y-54136000D01*
X121132000Y-54136000D01*
X121132000Y-54156000D01*
X122537500Y-54156000D01*
X122702000Y-53991500D01*
X122702000Y-53621116D01*
X122655319Y-53508417D01*
X122737149Y-53509973D01*
X122795721Y-53499266D01*
X122845514Y-53466615D01*
X122878680Y-53417165D01*
X122889997Y-53359066D01*
X122883408Y-52300316D01*
X125958000Y-52300316D01*
X125958000Y-53991500D01*
X126122500Y-54156000D01*
X127528000Y-54156000D01*
X127528000Y-51937700D01*
X127736000Y-51937700D01*
X127736000Y-54156000D01*
X129141500Y-54156000D01*
X129306000Y-53991500D01*
X129306000Y-52983115D01*
X130056000Y-52983115D01*
X130056000Y-53861500D01*
X130220500Y-54026000D01*
X131626000Y-54026000D01*
X131626000Y-52620500D01*
X131461500Y-52456000D01*
X130583116Y-52456000D01*
X130341273Y-52556174D01*
X130156175Y-52741273D01*
X130056000Y-52983115D01*
X129306000Y-52983115D01*
X129306000Y-52300316D01*
X129205826Y-52058473D01*
X129020727Y-51873375D01*
X128778885Y-51773200D01*
X127900500Y-51773200D01*
X127736000Y-51937700D01*
X127528000Y-51937700D01*
X127363500Y-51773200D01*
X126485115Y-51773200D01*
X126243273Y-51873375D01*
X126058174Y-52058473D01*
X125958000Y-52300316D01*
X122883408Y-52300316D01*
X122874377Y-50849469D01*
X122919116Y-50868000D01*
X123531500Y-50868000D01*
X123696000Y-50703500D01*
X123696000Y-49664000D01*
X123904000Y-49664000D01*
X123904000Y-50703500D01*
X124068500Y-50868000D01*
X124680884Y-50868000D01*
X124922727Y-50767826D01*
X125107825Y-50582727D01*
X125208000Y-50340885D01*
X125208000Y-49828500D01*
X125043500Y-49664000D01*
X123904000Y-49664000D01*
X123696000Y-49664000D01*
X123676000Y-49664000D01*
X123676000Y-49456000D01*
X123696000Y-49456000D01*
X123696000Y-49436000D01*
X123904000Y-49436000D01*
X123904000Y-49456000D01*
X125043500Y-49456000D01*
X125208000Y-49291500D01*
X125208000Y-48779115D01*
X125164612Y-48674369D01*
X131981213Y-48630951D01*
X132012060Y-52456000D01*
G36*
X141045514Y-47691530D02*
X144935000Y-51581015D01*
X144935000Y-56360000D01*
X144941600Y-56393178D01*
X144879143Y-56418985D01*
X144639826Y-56657885D01*
X144510148Y-56970183D01*
X144509853Y-57308334D01*
X144594573Y-57513373D01*
X144459826Y-57647885D01*
X144330148Y-57960183D01*
X144329853Y-58298334D01*
X144458985Y-58610857D01*
X144697885Y-58850174D01*
X144879622Y-58925638D01*
X145221992Y-59268008D01*
X145473420Y-59436007D01*
X145770000Y-59495000D01*
X146430825Y-59495000D01*
X146431374Y-59622192D01*
X146428565Y-59624000D01*
X146296500Y-59624000D01*
X146132000Y-59788500D01*
X146132000Y-59925885D01*
X146229225Y-60160605D01*
X146229225Y-60479395D01*
X146132000Y-60714115D01*
X146132000Y-60851500D01*
X146296500Y-61016000D01*
X146431921Y-61016000D01*
X146437407Y-61019748D01*
X146437839Y-61120000D01*
X145871370Y-61120000D01*
X145675685Y-60924315D01*
X145416147Y-60750896D01*
X145300264Y-60727846D01*
X145292424Y-60686182D01*
X145171968Y-60498988D01*
X144988173Y-60373406D01*
X144770000Y-60329225D01*
X143367636Y-60329225D01*
X143352038Y-60318000D01*
X143760884Y-60318000D01*
X144002727Y-60217826D01*
X144187825Y-60032727D01*
X144288000Y-59790885D01*
X144288000Y-59278500D01*
X144123500Y-59114000D01*
X142984000Y-59114000D01*
X142984000Y-59134000D01*
X142776000Y-59134000D01*
X142776000Y-59114000D01*
X142756000Y-59114000D01*
X142756000Y-58906000D01*
X142776000Y-58906000D01*
X142776000Y-57866500D01*
X142756000Y-57846500D01*
X142756000Y-57004000D01*
X142964000Y-57004000D01*
X142964000Y-58043500D01*
X142984000Y-58063500D01*
X142984000Y-58906000D01*
X144123500Y-58906000D01*
X144288000Y-58741500D01*
X144288000Y-58229115D01*
X144187825Y-57987273D01*
X144145552Y-57945000D01*
X144167825Y-57922727D01*
X144268000Y-57680885D01*
X144268000Y-57168500D01*
X144103500Y-57004000D01*
X142964000Y-57004000D01*
X142756000Y-57004000D01*
X142736000Y-57004000D01*
X142736000Y-56796000D01*
X142756000Y-56796000D01*
X142756000Y-55756500D01*
X142964000Y-55756500D01*
X142964000Y-56796000D01*
X144103500Y-56796000D01*
X144268000Y-56631500D01*
X144268000Y-56119115D01*
X144167825Y-55877273D01*
X143982727Y-55692174D01*
X143740884Y-55592000D01*
X143128500Y-55592000D01*
X142964000Y-55756500D01*
X142756000Y-55756500D01*
X142591500Y-55592000D01*
X141979116Y-55592000D01*
X141737273Y-55692174D01*
X141552175Y-55877273D01*
X141452000Y-56119115D01*
X141452000Y-56150219D01*
X141432424Y-56046182D01*
X141375038Y-55957001D01*
X141369903Y-55814595D01*
X141355989Y-55756700D01*
X141320648Y-55708780D01*
X141269448Y-55678385D01*
X141219458Y-55670001D01*
X134794317Y-55693224D01*
X135231651Y-55500228D01*
X135682813Y-55027918D01*
X135903927Y-54494085D01*
X135775913Y-54234000D01*
X134374000Y-54234000D01*
X134374000Y-54254000D01*
X134166000Y-54254000D01*
X134166000Y-54234000D01*
X134146000Y-54234000D01*
X134146000Y-54026000D01*
X134166000Y-54026000D01*
X134166000Y-52623727D01*
X134374000Y-52623727D01*
X134374000Y-54026000D01*
X135775913Y-54026000D01*
X135903927Y-53765915D01*
X135682813Y-53232082D01*
X135231651Y-52759772D01*
X134634086Y-52496066D01*
X134374000Y-52623727D01*
X134166000Y-52623727D01*
X133905914Y-52496066D01*
X133308349Y-52759772D01*
X133226664Y-52845286D01*
X133147968Y-52722988D01*
X133125917Y-52707921D01*
X133076443Y-49668000D01*
X133341500Y-49668000D01*
X133506000Y-49503500D01*
X133506000Y-48364000D01*
X133486000Y-48364000D01*
X133486000Y-48156000D01*
X133506000Y-48156000D01*
X133506000Y-48136000D01*
X133714000Y-48136000D01*
X133714000Y-48156000D01*
X133734000Y-48156000D01*
X133734000Y-48364000D01*
X133714000Y-48364000D01*
X133714000Y-49503500D01*
X133878500Y-49668000D01*
X134390885Y-49668000D01*
X134632727Y-49567825D01*
X134817826Y-49382727D01*
X134896220Y-49193466D01*
X134907576Y-49253818D01*
X135028032Y-49441012D01*
X135030000Y-49442357D01*
X135030000Y-50040000D01*
X135109926Y-50441818D01*
X135337538Y-50782462D01*
X135678182Y-51010074D01*
X136080000Y-51090000D01*
X136481818Y-51010074D01*
X136822462Y-50782462D01*
X137050074Y-50441818D01*
X137130000Y-50040000D01*
X137130000Y-49438814D01*
X137246594Y-49268173D01*
X137290775Y-49050000D01*
X137290775Y-47640189D01*
X141045514Y-47691530D01*
X141045514Y-47691530D01*
G37*
X141045514Y-47691530D02*
X144935000Y-51581015D01*
X144935000Y-56360000D01*
X144941600Y-56393178D01*
X144879143Y-56418985D01*
X144639826Y-56657885D01*
X144510148Y-56970183D01*
X144509853Y-57308334D01*
X144594573Y-57513373D01*
X144459826Y-57647885D01*
X144330148Y-57960183D01*
X144329853Y-58298334D01*
X144458985Y-58610857D01*
X144697885Y-58850174D01*
X144879622Y-58925638D01*
X145221992Y-59268008D01*
X145473420Y-59436007D01*
X145770000Y-59495000D01*
X146430825Y-59495000D01*
X146431374Y-59622192D01*
X146428565Y-59624000D01*
X146296500Y-59624000D01*
X146132000Y-59788500D01*
X146132000Y-59925885D01*
X146229225Y-60160605D01*
X146229225Y-60479395D01*
X146132000Y-60714115D01*
X146132000Y-60851500D01*
X146296500Y-61016000D01*
X146431921Y-61016000D01*
X146437407Y-61019748D01*
X146437839Y-61120000D01*
X145871370Y-61120000D01*
X145675685Y-60924315D01*
X145416147Y-60750896D01*
X145300264Y-60727846D01*
X145292424Y-60686182D01*
X145171968Y-60498988D01*
X144988173Y-60373406D01*
X144770000Y-60329225D01*
X143367636Y-60329225D01*
X143352038Y-60318000D01*
X143760884Y-60318000D01*
X144002727Y-60217826D01*
X144187825Y-60032727D01*
X144288000Y-59790885D01*
X144288000Y-59278500D01*
X144123500Y-59114000D01*
X142984000Y-59114000D01*
X142984000Y-59134000D01*
X142776000Y-59134000D01*
X142776000Y-59114000D01*
X142756000Y-59114000D01*
X142756000Y-58906000D01*
X142776000Y-58906000D01*
X142776000Y-57866500D01*
X142756000Y-57846500D01*
X142756000Y-57004000D01*
X142964000Y-57004000D01*
X142964000Y-58043500D01*
X142984000Y-58063500D01*
X142984000Y-58906000D01*
X144123500Y-58906000D01*
X144288000Y-58741500D01*
X144288000Y-58229115D01*
X144187825Y-57987273D01*
X144145552Y-57945000D01*
X144167825Y-57922727D01*
X144268000Y-57680885D01*
X144268000Y-57168500D01*
X144103500Y-57004000D01*
X142964000Y-57004000D01*
X142756000Y-57004000D01*
X142736000Y-57004000D01*
X142736000Y-56796000D01*
X142756000Y-56796000D01*
X142756000Y-55756500D01*
X142964000Y-55756500D01*
X142964000Y-56796000D01*
X144103500Y-56796000D01*
X144268000Y-56631500D01*
X144268000Y-56119115D01*
X144167825Y-55877273D01*
X143982727Y-55692174D01*
X143740884Y-55592000D01*
X143128500Y-55592000D01*
X142964000Y-55756500D01*
X142756000Y-55756500D01*
X142591500Y-55592000D01*
X141979116Y-55592000D01*
X141737273Y-55692174D01*
X141552175Y-55877273D01*
X141452000Y-56119115D01*
X141452000Y-56150219D01*
X141432424Y-56046182D01*
X141375038Y-55957001D01*
X141369903Y-55814595D01*
X141355989Y-55756700D01*
X141320648Y-55708780D01*
X141269448Y-55678385D01*
X141219458Y-55670001D01*
X134794317Y-55693224D01*
X135231651Y-55500228D01*
X135682813Y-55027918D01*
X135903927Y-54494085D01*
X135775913Y-54234000D01*
X134374000Y-54234000D01*
X134374000Y-54254000D01*
X134166000Y-54254000D01*
X134166000Y-54234000D01*
X134146000Y-54234000D01*
X134146000Y-54026000D01*
X134166000Y-54026000D01*
X134166000Y-52623727D01*
X134374000Y-52623727D01*
X134374000Y-54026000D01*
X135775913Y-54026000D01*
X135903927Y-53765915D01*
X135682813Y-53232082D01*
X135231651Y-52759772D01*
X134634086Y-52496066D01*
X134374000Y-52623727D01*
X134166000Y-52623727D01*
X133905914Y-52496066D01*
X133308349Y-52759772D01*
X133226664Y-52845286D01*
X133147968Y-52722988D01*
X133125917Y-52707921D01*
X133076443Y-49668000D01*
X133341500Y-49668000D01*
X133506000Y-49503500D01*
X133506000Y-48364000D01*
X133486000Y-48364000D01*
X133486000Y-48156000D01*
X133506000Y-48156000D01*
X133506000Y-48136000D01*
X133714000Y-48136000D01*
X133714000Y-48156000D01*
X133734000Y-48156000D01*
X133734000Y-48364000D01*
X133714000Y-48364000D01*
X133714000Y-49503500D01*
X133878500Y-49668000D01*
X134390885Y-49668000D01*
X134632727Y-49567825D01*
X134817826Y-49382727D01*
X134896220Y-49193466D01*
X134907576Y-49253818D01*
X135028032Y-49441012D01*
X135030000Y-49442357D01*
X135030000Y-50040000D01*
X135109926Y-50441818D01*
X135337538Y-50782462D01*
X135678182Y-51010074D01*
X136080000Y-51090000D01*
X136481818Y-51010074D01*
X136822462Y-50782462D01*
X137050074Y-50441818D01*
X137130000Y-50040000D01*
X137130000Y-49438814D01*
X137246594Y-49268173D01*
X137290775Y-49050000D01*
X137290775Y-47640189D01*
X141045514Y-47691530D01*
G36*
X83591667Y-55952316D02*
X83285829Y-56461503D01*
X83206683Y-56751308D01*
X83328585Y-57087200D01*
X86216000Y-57087200D01*
X86216000Y-57067200D01*
X86424000Y-57067200D01*
X86424000Y-57087200D01*
X89311415Y-57087200D01*
X89433317Y-56751308D01*
X89416165Y-56688500D01*
X92937000Y-56688500D01*
X92937000Y-57300884D01*
X93037174Y-57542727D01*
X93222273Y-57727825D01*
X93464115Y-57828000D01*
X93951500Y-57828000D01*
X94116000Y-57663500D01*
X94116000Y-56524000D01*
X94324000Y-56524000D01*
X94324000Y-57663500D01*
X94488500Y-57828000D01*
X94975885Y-57828000D01*
X95217727Y-57727825D01*
X95402826Y-57542727D01*
X95503000Y-57300884D01*
X95503000Y-56708500D01*
X96717000Y-56708500D01*
X96717000Y-57320884D01*
X96817174Y-57562727D01*
X97002273Y-57747825D01*
X97244115Y-57848000D01*
X97731500Y-57848000D01*
X97896000Y-57683500D01*
X97896000Y-56544000D01*
X98104000Y-56544000D01*
X98104000Y-57683500D01*
X98268500Y-57848000D01*
X98755885Y-57848000D01*
X98997727Y-57747825D01*
X99182826Y-57562727D01*
X99283000Y-57320884D01*
X99283000Y-56708500D01*
X99118500Y-56544000D01*
X98104000Y-56544000D01*
X97896000Y-56544000D01*
X96881500Y-56544000D01*
X96717000Y-56708500D01*
X95503000Y-56708500D01*
X95503000Y-56688500D01*
X95338500Y-56524000D01*
X94324000Y-56524000D01*
X94116000Y-56524000D01*
X93101500Y-56524000D01*
X92937000Y-56688500D01*
X89416165Y-56688500D01*
X89354171Y-56461503D01*
X89050533Y-55955979D01*
X92937000Y-55958586D01*
X92937000Y-56151500D01*
X93101500Y-56316000D01*
X94116000Y-56316000D01*
X94116000Y-56296000D01*
X94324000Y-56296000D01*
X94324000Y-56316000D01*
X95338500Y-56316000D01*
X95503000Y-56151500D01*
X95503000Y-55960308D01*
X96717000Y-55961122D01*
X96717000Y-56171500D01*
X96881500Y-56336000D01*
X97896000Y-56336000D01*
X97896000Y-56316000D01*
X98104000Y-56316000D01*
X98104000Y-56336000D01*
X99118500Y-56336000D01*
X99283000Y-56171500D01*
X99283000Y-55962844D01*
X109800771Y-55969900D01*
X109810002Y-57760773D01*
X109810111Y-57765765D01*
X109820111Y-58025765D01*
X109834163Y-58083626D01*
X109869619Y-58131461D01*
X109920892Y-58161734D01*
X109968204Y-58169989D01*
X111638204Y-58189989D01*
X111638779Y-58189995D01*
X122698779Y-58279995D01*
X122757232Y-58268652D01*
X122816691Y-58224251D01*
X123188957Y-57763350D01*
X132191707Y-58179777D01*
X132500343Y-58199689D01*
X132514476Y-58199933D01*
X133184476Y-58179933D01*
X133242455Y-58166379D01*
X133290594Y-58131336D01*
X133321306Y-58080325D01*
X133329873Y-58023841D01*
X133269888Y-56564215D01*
X133265749Y-56452463D01*
X138752000Y-56538553D01*
X138752000Y-56631500D01*
X138916500Y-56796000D01*
X139940496Y-56796000D01*
X139948311Y-57004000D01*
X138916500Y-57004000D01*
X138752000Y-57168500D01*
X138752000Y-57680885D01*
X138852175Y-57922727D01*
X138894448Y-57965000D01*
X138872175Y-57987273D01*
X138772000Y-58229115D01*
X138772000Y-58741500D01*
X138936500Y-58906000D01*
X140019773Y-58906000D01*
X140027588Y-59114000D01*
X138936500Y-59114000D01*
X138772000Y-59278500D01*
X138772000Y-59790885D01*
X138805599Y-59872000D01*
X138338500Y-59872000D01*
X138174000Y-60036500D01*
X138174000Y-61076000D01*
X138194000Y-61076000D01*
X138194000Y-61284000D01*
X138174000Y-61284000D01*
X138174000Y-63256000D01*
X138194000Y-63256000D01*
X138194000Y-63464000D01*
X138174000Y-63464000D01*
X138174000Y-64503500D01*
X138338500Y-64668000D01*
X138950884Y-64668000D01*
X139192727Y-64567826D01*
X139377825Y-64382727D01*
X139478000Y-64140885D01*
X139478000Y-64109781D01*
X139497576Y-64213818D01*
X139618032Y-64401012D01*
X139801827Y-64526594D01*
X140020000Y-64570775D01*
X141520000Y-64570775D01*
X141723818Y-64532424D01*
X141911012Y-64411968D01*
X142036594Y-64228173D01*
X142066787Y-64079077D01*
X142068032Y-64081012D01*
X142251827Y-64206594D01*
X142470000Y-64250775D01*
X144770000Y-64250775D01*
X144973818Y-64212424D01*
X145161012Y-64091968D01*
X145286594Y-63908173D01*
X145301198Y-63836056D01*
X145336147Y-63829104D01*
X145595685Y-63655685D01*
X145731370Y-63520000D01*
X146613337Y-63520000D01*
X146790000Y-63555775D01*
X148204225Y-63555775D01*
X148204225Y-64970000D01*
X148240000Y-65160128D01*
X148240000Y-66981676D01*
X148290543Y-67235776D01*
X148300896Y-67287823D01*
X148474315Y-67547361D01*
X169930000Y-89003047D01*
X169930000Y-91440000D01*
X169941935Y-91500000D01*
X169990896Y-91746147D01*
X170164315Y-92005685D01*
X171964314Y-93805685D01*
X172223853Y-93979104D01*
X172530000Y-94040000D01*
X173218584Y-94040000D01*
X173370434Y-94267260D01*
X173570000Y-94400606D01*
X173570000Y-94619394D01*
X173370434Y-94752740D01*
X173064004Y-95211345D01*
X172956400Y-95752306D01*
X172956400Y-95807694D01*
X173064004Y-96348655D01*
X173370434Y-96807260D01*
X173733720Y-97050000D01*
X173370434Y-97292740D01*
X173064004Y-97751345D01*
X172956400Y-98292306D01*
X172956400Y-98347694D01*
X173064004Y-98888655D01*
X173370434Y-99347260D01*
X173570000Y-99480606D01*
X173570000Y-99699394D01*
X173370434Y-99832740D01*
X173064004Y-100291345D01*
X172956400Y-100832306D01*
X172956400Y-100887694D01*
X173064004Y-101428655D01*
X173345538Y-101850000D01*
X172342032Y-101850000D01*
X172036016Y-101543984D01*
X171533159Y-101207987D01*
X170940000Y-101089999D01*
X170939995Y-101090000D01*
X167020000Y-101090000D01*
X166426841Y-101207987D01*
X165923984Y-101543984D01*
X165839491Y-101670437D01*
X165827825Y-101642273D01*
X165642727Y-101457174D01*
X165400884Y-101357000D01*
X164788500Y-101357000D01*
X164624000Y-101521500D01*
X164624000Y-102536000D01*
X164644000Y-102536000D01*
X164644000Y-102744000D01*
X164624000Y-102744000D01*
X164624000Y-103758500D01*
X164788500Y-103923000D01*
X165400884Y-103923000D01*
X165470000Y-103894371D01*
X165470000Y-105264623D01*
X165330884Y-105207000D01*
X164718500Y-105207000D01*
X164554000Y-105371500D01*
X164554000Y-106386000D01*
X164574000Y-106386000D01*
X164574000Y-106594000D01*
X164554000Y-106594000D01*
X164554000Y-106614000D01*
X164346000Y-106614000D01*
X164346000Y-106594000D01*
X163206500Y-106594000D01*
X163131266Y-106669234D01*
X162196147Y-105734115D01*
X163042000Y-105734115D01*
X163042000Y-106221500D01*
X163206500Y-106386000D01*
X164346000Y-106386000D01*
X164346000Y-105371500D01*
X164181500Y-105207000D01*
X163569116Y-105207000D01*
X163327273Y-105307174D01*
X163142175Y-105492273D01*
X163042000Y-105734115D01*
X162196147Y-105734115D01*
X161993679Y-105531647D01*
X161991968Y-105528988D01*
X161988975Y-105526943D01*
X161936016Y-105473984D01*
X161433159Y-105137987D01*
X160840000Y-105019999D01*
X160246841Y-105137987D01*
X159743984Y-105473984D01*
X159726292Y-105500463D01*
X159698988Y-105518032D01*
X159573406Y-105701827D01*
X159565431Y-105741208D01*
X159449718Y-105914385D01*
X159412424Y-105716182D01*
X159291968Y-105528988D01*
X159260000Y-105507145D01*
X159260000Y-103790533D01*
X159351012Y-103731968D01*
X159476594Y-103548173D01*
X159502000Y-103422714D01*
X159502000Y-103460885D01*
X159602175Y-103702727D01*
X159787273Y-103887826D01*
X160029116Y-103988000D01*
X160641500Y-103988000D01*
X160806000Y-103823500D01*
X160806000Y-102784000D01*
X161014000Y-102784000D01*
X161014000Y-103823500D01*
X161178500Y-103988000D01*
X161790884Y-103988000D01*
X162032727Y-103887826D01*
X162217825Y-103702727D01*
X162318000Y-103460885D01*
X162318000Y-102948500D01*
X162278000Y-102908500D01*
X163112000Y-102908500D01*
X163112000Y-103395885D01*
X163212175Y-103637727D01*
X163397273Y-103822826D01*
X163639116Y-103923000D01*
X164251500Y-103923000D01*
X164416000Y-103758500D01*
X164416000Y-102744000D01*
X163276500Y-102744000D01*
X163112000Y-102908500D01*
X162278000Y-102908500D01*
X162153500Y-102784000D01*
X161014000Y-102784000D01*
X160806000Y-102784000D01*
X160786000Y-102784000D01*
X160786000Y-102576000D01*
X160806000Y-102576000D01*
X160806000Y-101536500D01*
X161014000Y-101536500D01*
X161014000Y-102576000D01*
X162153500Y-102576000D01*
X162318000Y-102411500D01*
X162318000Y-101899115D01*
X162311787Y-101884115D01*
X163112000Y-101884115D01*
X163112000Y-102371500D01*
X163276500Y-102536000D01*
X164416000Y-102536000D01*
X164416000Y-101521500D01*
X164251500Y-101357000D01*
X163639116Y-101357000D01*
X163397273Y-101457174D01*
X163212175Y-101642273D01*
X163112000Y-101884115D01*
X162311787Y-101884115D01*
X162217825Y-101657273D01*
X162032727Y-101472174D01*
X161790884Y-101372000D01*
X161178500Y-101372000D01*
X161014000Y-101536500D01*
X160806000Y-101536500D01*
X160641500Y-101372000D01*
X160029116Y-101372000D01*
X159787273Y-101472174D01*
X159602175Y-101657273D01*
X159502000Y-101899115D01*
X159502000Y-101930219D01*
X159482424Y-101826182D01*
X159361968Y-101638988D01*
X159178173Y-101513406D01*
X158960000Y-101469225D01*
X157460000Y-101469225D01*
X157256182Y-101507576D01*
X157068988Y-101628032D01*
X156943406Y-101811827D01*
X156899225Y-102030000D01*
X156899225Y-103330000D01*
X156937576Y-103533818D01*
X157058032Y-103721012D01*
X157160000Y-103790684D01*
X157160000Y-105414424D01*
X156998988Y-105518032D01*
X156873406Y-105701827D01*
X156829225Y-105920000D01*
X156829225Y-107220000D01*
X156867576Y-107423818D01*
X156988032Y-107611012D01*
X157171827Y-107736594D01*
X157390000Y-107780775D01*
X158890000Y-107780775D01*
X159093818Y-107742424D01*
X159281012Y-107621968D01*
X159406594Y-107438173D01*
X159449657Y-107225522D01*
X159561862Y-107393450D01*
X159567576Y-107423818D01*
X159688032Y-107611012D01*
X159723361Y-107635151D01*
X159743984Y-107666016D01*
X161963982Y-109886013D01*
X161963984Y-109886016D01*
X162466841Y-110222013D01*
X163060000Y-110340001D01*
X163060005Y-110340000D01*
X163317968Y-110340000D01*
X164681200Y-111703231D01*
X164681200Y-112890441D01*
X164337367Y-113405024D01*
X164295057Y-113617732D01*
X164222613Y-113327375D01*
X163721105Y-112649856D01*
X162998497Y-112215829D01*
X162708692Y-112136683D01*
X162372800Y-112258585D01*
X162372800Y-115146000D01*
X162392800Y-115146000D01*
X162392800Y-115354000D01*
X162372800Y-115354000D01*
X162372800Y-118241415D01*
X162708692Y-118363317D01*
X162998497Y-118284171D01*
X163721105Y-117850144D01*
X164222613Y-117172625D01*
X164295057Y-116882268D01*
X164337367Y-117094976D01*
X164781723Y-117760002D01*
X165446749Y-118204358D01*
X166231200Y-118360395D01*
X167015651Y-118204358D01*
X167680677Y-117760002D01*
X168125033Y-117094976D01*
X168183707Y-116800000D01*
X168238553Y-116800000D01*
X168297227Y-117094976D01*
X168741583Y-117760002D01*
X169406609Y-118204358D01*
X170191060Y-118360395D01*
X170975511Y-118204358D01*
X171640537Y-117760002D01*
X172084893Y-117094976D01*
X172240930Y-116310525D01*
X172240930Y-114189475D01*
X172084893Y-113405024D01*
X171741060Y-112890441D01*
X171741060Y-109731065D01*
X171741061Y-109731060D01*
X171623073Y-109137901D01*
X171287076Y-108635044D01*
X168570000Y-105917968D01*
X168570000Y-104190000D01*
X170297969Y-104190000D01*
X170603982Y-104496013D01*
X170603984Y-104496016D01*
X170905425Y-104697431D01*
X171106840Y-104832013D01*
X171700000Y-104950000D01*
X174370000Y-104950000D01*
X174963159Y-104832013D01*
X175466016Y-104496016D01*
X175663807Y-104200000D01*
X175758584Y-104200000D01*
X175910434Y-104427260D01*
X176369039Y-104733690D01*
X176910000Y-104841294D01*
X177450961Y-104733690D01*
X177875533Y-104450000D01*
X178390000Y-104450000D01*
X178791818Y-104370074D01*
X179132462Y-104142462D01*
X179375000Y-103899924D01*
X179375000Y-121375000D01*
X80625000Y-121375000D01*
X80625000Y-115354000D01*
X156151070Y-115354000D01*
X156151070Y-116354760D01*
X156355127Y-117172625D01*
X156856635Y-117850144D01*
X157579243Y-118284171D01*
X157869048Y-118363317D01*
X158204940Y-118241415D01*
X158204940Y-115354000D01*
X158412940Y-115354000D01*
X158412940Y-118241415D01*
X158748832Y-118363317D01*
X159038637Y-118284171D01*
X159761245Y-117850144D01*
X160262753Y-117172625D01*
X160288870Y-117067947D01*
X160314987Y-117172625D01*
X160816495Y-117850144D01*
X161539103Y-118284171D01*
X161828908Y-118363317D01*
X162164800Y-118241415D01*
X162164800Y-115354000D01*
X158412940Y-115354000D01*
X158204940Y-115354000D01*
X156151070Y-115354000D01*
X80625000Y-115354000D01*
X80625000Y-114145240D01*
X156151070Y-114145240D01*
X156151070Y-115146000D01*
X158204940Y-115146000D01*
X158204940Y-112258585D01*
X158412940Y-112258585D01*
X158412940Y-115146000D01*
X162164800Y-115146000D01*
X162164800Y-112258585D01*
X161828908Y-112136683D01*
X161539103Y-112215829D01*
X160816495Y-112649856D01*
X160314987Y-113327375D01*
X160288870Y-113432053D01*
X160262753Y-113327375D01*
X159761245Y-112649856D01*
X159038637Y-112215829D01*
X158748832Y-112136683D01*
X158412940Y-112258585D01*
X158204940Y-112258585D01*
X157869048Y-112136683D01*
X157579243Y-112215829D01*
X156856635Y-112649856D01*
X156355127Y-113327375D01*
X156151070Y-114145240D01*
X80625000Y-114145240D01*
X80625000Y-63628500D01*
X136662000Y-63628500D01*
X136662000Y-64140885D01*
X136762175Y-64382727D01*
X136947273Y-64567826D01*
X137189116Y-64668000D01*
X137801500Y-64668000D01*
X137966000Y-64503500D01*
X137966000Y-63464000D01*
X136826500Y-63464000D01*
X136662000Y-63628500D01*
X80625000Y-63628500D01*
X80625000Y-61590952D01*
X83206683Y-61590952D01*
X83285829Y-61880757D01*
X83719856Y-62603365D01*
X84397375Y-63104873D01*
X85215240Y-63308930D01*
X86216000Y-63308930D01*
X86216000Y-61255060D01*
X86424000Y-61255060D01*
X86424000Y-63308930D01*
X87424760Y-63308930D01*
X88242625Y-63104873D01*
X88920144Y-62603365D01*
X89354171Y-61880757D01*
X89433317Y-61590952D01*
X89381619Y-61448500D01*
X136662000Y-61448500D01*
X136662000Y-61960885D01*
X136762175Y-62202727D01*
X136829448Y-62270000D01*
X136762175Y-62337273D01*
X136662000Y-62579115D01*
X136662000Y-63091500D01*
X136826500Y-63256000D01*
X137966000Y-63256000D01*
X137966000Y-61284000D01*
X136826500Y-61284000D01*
X136662000Y-61448500D01*
X89381619Y-61448500D01*
X89311415Y-61255060D01*
X86424000Y-61255060D01*
X86216000Y-61255060D01*
X83328585Y-61255060D01*
X83206683Y-61590952D01*
X80625000Y-61590952D01*
X80625000Y-57631092D01*
X83206683Y-57631092D01*
X83285829Y-57920897D01*
X83719856Y-58643505D01*
X84397375Y-59145013D01*
X84502053Y-59171130D01*
X84397375Y-59197247D01*
X83719856Y-59698755D01*
X83285829Y-60421363D01*
X83206683Y-60711168D01*
X83328585Y-61047060D01*
X86216000Y-61047060D01*
X86216000Y-57295200D01*
X86424000Y-57295200D01*
X86424000Y-61047060D01*
X89311415Y-61047060D01*
X89433317Y-60711168D01*
X89354171Y-60421363D01*
X89340808Y-60399115D01*
X136662000Y-60399115D01*
X136662000Y-60911500D01*
X136826500Y-61076000D01*
X137966000Y-61076000D01*
X137966000Y-60036500D01*
X137801500Y-59872000D01*
X137189116Y-59872000D01*
X136947273Y-59972174D01*
X136762175Y-60157273D01*
X136662000Y-60399115D01*
X89340808Y-60399115D01*
X88920144Y-59698755D01*
X88242625Y-59197247D01*
X88137947Y-59171130D01*
X88242625Y-59145013D01*
X88920144Y-58643505D01*
X89354171Y-57920897D01*
X89433317Y-57631092D01*
X89311415Y-57295200D01*
X86424000Y-57295200D01*
X86216000Y-57295200D01*
X83328585Y-57295200D01*
X83206683Y-57631092D01*
X80625000Y-57631092D01*
X80625000Y-55950326D01*
X83591667Y-55952316D01*
X83591667Y-55952316D01*
G37*
X83591667Y-55952316D02*
X83285829Y-56461503D01*
X83206683Y-56751308D01*
X83328585Y-57087200D01*
X86216000Y-57087200D01*
X86216000Y-57067200D01*
X86424000Y-57067200D01*
X86424000Y-57087200D01*
X89311415Y-57087200D01*
X89433317Y-56751308D01*
X89416165Y-56688500D01*
X92937000Y-56688500D01*
X92937000Y-57300884D01*
X93037174Y-57542727D01*
X93222273Y-57727825D01*
X93464115Y-57828000D01*
X93951500Y-57828000D01*
X94116000Y-57663500D01*
X94116000Y-56524000D01*
X94324000Y-56524000D01*
X94324000Y-57663500D01*
X94488500Y-57828000D01*
X94975885Y-57828000D01*
X95217727Y-57727825D01*
X95402826Y-57542727D01*
X95503000Y-57300884D01*
X95503000Y-56708500D01*
X96717000Y-56708500D01*
X96717000Y-57320884D01*
X96817174Y-57562727D01*
X97002273Y-57747825D01*
X97244115Y-57848000D01*
X97731500Y-57848000D01*
X97896000Y-57683500D01*
X97896000Y-56544000D01*
X98104000Y-56544000D01*
X98104000Y-57683500D01*
X98268500Y-57848000D01*
X98755885Y-57848000D01*
X98997727Y-57747825D01*
X99182826Y-57562727D01*
X99283000Y-57320884D01*
X99283000Y-56708500D01*
X99118500Y-56544000D01*
X98104000Y-56544000D01*
X97896000Y-56544000D01*
X96881500Y-56544000D01*
X96717000Y-56708500D01*
X95503000Y-56708500D01*
X95503000Y-56688500D01*
X95338500Y-56524000D01*
X94324000Y-56524000D01*
X94116000Y-56524000D01*
X93101500Y-56524000D01*
X92937000Y-56688500D01*
X89416165Y-56688500D01*
X89354171Y-56461503D01*
X89050533Y-55955979D01*
X92937000Y-55958586D01*
X92937000Y-56151500D01*
X93101500Y-56316000D01*
X94116000Y-56316000D01*
X94116000Y-56296000D01*
X94324000Y-56296000D01*
X94324000Y-56316000D01*
X95338500Y-56316000D01*
X95503000Y-56151500D01*
X95503000Y-55960308D01*
X96717000Y-55961122D01*
X96717000Y-56171500D01*
X96881500Y-56336000D01*
X97896000Y-56336000D01*
X97896000Y-56316000D01*
X98104000Y-56316000D01*
X98104000Y-56336000D01*
X99118500Y-56336000D01*
X99283000Y-56171500D01*
X99283000Y-55962844D01*
X109800771Y-55969900D01*
X109810002Y-57760773D01*
X109810111Y-57765765D01*
X109820111Y-58025765D01*
X109834163Y-58083626D01*
X109869619Y-58131461D01*
X109920892Y-58161734D01*
X109968204Y-58169989D01*
X111638204Y-58189989D01*
X111638779Y-58189995D01*
X122698779Y-58279995D01*
X122757232Y-58268652D01*
X122816691Y-58224251D01*
X123188957Y-57763350D01*
X132191707Y-58179777D01*
X132500343Y-58199689D01*
X132514476Y-58199933D01*
X133184476Y-58179933D01*
X133242455Y-58166379D01*
X133290594Y-58131336D01*
X133321306Y-58080325D01*
X133329873Y-58023841D01*
X133269888Y-56564215D01*
X133265749Y-56452463D01*
X138752000Y-56538553D01*
X138752000Y-56631500D01*
X138916500Y-56796000D01*
X139940496Y-56796000D01*
X139948311Y-57004000D01*
X138916500Y-57004000D01*
X138752000Y-57168500D01*
X138752000Y-57680885D01*
X138852175Y-57922727D01*
X138894448Y-57965000D01*
X138872175Y-57987273D01*
X138772000Y-58229115D01*
X138772000Y-58741500D01*
X138936500Y-58906000D01*
X140019773Y-58906000D01*
X140027588Y-59114000D01*
X138936500Y-59114000D01*
X138772000Y-59278500D01*
X138772000Y-59790885D01*
X138805599Y-59872000D01*
X138338500Y-59872000D01*
X138174000Y-60036500D01*
X138174000Y-61076000D01*
X138194000Y-61076000D01*
X138194000Y-61284000D01*
X138174000Y-61284000D01*
X138174000Y-63256000D01*
X138194000Y-63256000D01*
X138194000Y-63464000D01*
X138174000Y-63464000D01*
X138174000Y-64503500D01*
X138338500Y-64668000D01*
X138950884Y-64668000D01*
X139192727Y-64567826D01*
X139377825Y-64382727D01*
X139478000Y-64140885D01*
X139478000Y-64109781D01*
X139497576Y-64213818D01*
X139618032Y-64401012D01*
X139801827Y-64526594D01*
X140020000Y-64570775D01*
X141520000Y-64570775D01*
X141723818Y-64532424D01*
X141911012Y-64411968D01*
X142036594Y-64228173D01*
X142066787Y-64079077D01*
X142068032Y-64081012D01*
X142251827Y-64206594D01*
X142470000Y-64250775D01*
X144770000Y-64250775D01*
X144973818Y-64212424D01*
X145161012Y-64091968D01*
X145286594Y-63908173D01*
X145301198Y-63836056D01*
X145336147Y-63829104D01*
X145595685Y-63655685D01*
X145731370Y-63520000D01*
X146613337Y-63520000D01*
X146790000Y-63555775D01*
X148204225Y-63555775D01*
X148204225Y-64970000D01*
X148240000Y-65160128D01*
X148240000Y-66981676D01*
X148290543Y-67235776D01*
X148300896Y-67287823D01*
X148474315Y-67547361D01*
X169930000Y-89003047D01*
X169930000Y-91440000D01*
X169941935Y-91500000D01*
X169990896Y-91746147D01*
X170164315Y-92005685D01*
X171964314Y-93805685D01*
X172223853Y-93979104D01*
X172530000Y-94040000D01*
X173218584Y-94040000D01*
X173370434Y-94267260D01*
X173570000Y-94400606D01*
X173570000Y-94619394D01*
X173370434Y-94752740D01*
X173064004Y-95211345D01*
X172956400Y-95752306D01*
X172956400Y-95807694D01*
X173064004Y-96348655D01*
X173370434Y-96807260D01*
X173733720Y-97050000D01*
X173370434Y-97292740D01*
X173064004Y-97751345D01*
X172956400Y-98292306D01*
X172956400Y-98347694D01*
X173064004Y-98888655D01*
X173370434Y-99347260D01*
X173570000Y-99480606D01*
X173570000Y-99699394D01*
X173370434Y-99832740D01*
X173064004Y-100291345D01*
X172956400Y-100832306D01*
X172956400Y-100887694D01*
X173064004Y-101428655D01*
X173345538Y-101850000D01*
X172342032Y-101850000D01*
X172036016Y-101543984D01*
X171533159Y-101207987D01*
X170940000Y-101089999D01*
X170939995Y-101090000D01*
X167020000Y-101090000D01*
X166426841Y-101207987D01*
X165923984Y-101543984D01*
X165839491Y-101670437D01*
X165827825Y-101642273D01*
X165642727Y-101457174D01*
X165400884Y-101357000D01*
X164788500Y-101357000D01*
X164624000Y-101521500D01*
X164624000Y-102536000D01*
X164644000Y-102536000D01*
X164644000Y-102744000D01*
X164624000Y-102744000D01*
X164624000Y-103758500D01*
X164788500Y-103923000D01*
X165400884Y-103923000D01*
X165470000Y-103894371D01*
X165470000Y-105264623D01*
X165330884Y-105207000D01*
X164718500Y-105207000D01*
X164554000Y-105371500D01*
X164554000Y-106386000D01*
X164574000Y-106386000D01*
X164574000Y-106594000D01*
X164554000Y-106594000D01*
X164554000Y-106614000D01*
X164346000Y-106614000D01*
X164346000Y-106594000D01*
X163206500Y-106594000D01*
X163131266Y-106669234D01*
X162196147Y-105734115D01*
X163042000Y-105734115D01*
X163042000Y-106221500D01*
X163206500Y-106386000D01*
X164346000Y-106386000D01*
X164346000Y-105371500D01*
X164181500Y-105207000D01*
X163569116Y-105207000D01*
X163327273Y-105307174D01*
X163142175Y-105492273D01*
X163042000Y-105734115D01*
X162196147Y-105734115D01*
X161993679Y-105531647D01*
X161991968Y-105528988D01*
X161988975Y-105526943D01*
X161936016Y-105473984D01*
X161433159Y-105137987D01*
X160840000Y-105019999D01*
X160246841Y-105137987D01*
X159743984Y-105473984D01*
X159726292Y-105500463D01*
X159698988Y-105518032D01*
X159573406Y-105701827D01*
X159565431Y-105741208D01*
X159449718Y-105914385D01*
X159412424Y-105716182D01*
X159291968Y-105528988D01*
X159260000Y-105507145D01*
X159260000Y-103790533D01*
X159351012Y-103731968D01*
X159476594Y-103548173D01*
X159502000Y-103422714D01*
X159502000Y-103460885D01*
X159602175Y-103702727D01*
X159787273Y-103887826D01*
X160029116Y-103988000D01*
X160641500Y-103988000D01*
X160806000Y-103823500D01*
X160806000Y-102784000D01*
X161014000Y-102784000D01*
X161014000Y-103823500D01*
X161178500Y-103988000D01*
X161790884Y-103988000D01*
X162032727Y-103887826D01*
X162217825Y-103702727D01*
X162318000Y-103460885D01*
X162318000Y-102948500D01*
X162278000Y-102908500D01*
X163112000Y-102908500D01*
X163112000Y-103395885D01*
X163212175Y-103637727D01*
X163397273Y-103822826D01*
X163639116Y-103923000D01*
X164251500Y-103923000D01*
X164416000Y-103758500D01*
X164416000Y-102744000D01*
X163276500Y-102744000D01*
X163112000Y-102908500D01*
X162278000Y-102908500D01*
X162153500Y-102784000D01*
X161014000Y-102784000D01*
X160806000Y-102784000D01*
X160786000Y-102784000D01*
X160786000Y-102576000D01*
X160806000Y-102576000D01*
X160806000Y-101536500D01*
X161014000Y-101536500D01*
X161014000Y-102576000D01*
X162153500Y-102576000D01*
X162318000Y-102411500D01*
X162318000Y-101899115D01*
X162311787Y-101884115D01*
X163112000Y-101884115D01*
X163112000Y-102371500D01*
X163276500Y-102536000D01*
X164416000Y-102536000D01*
X164416000Y-101521500D01*
X164251500Y-101357000D01*
X163639116Y-101357000D01*
X163397273Y-101457174D01*
X163212175Y-101642273D01*
X163112000Y-101884115D01*
X162311787Y-101884115D01*
X162217825Y-101657273D01*
X162032727Y-101472174D01*
X161790884Y-101372000D01*
X161178500Y-101372000D01*
X161014000Y-101536500D01*
X160806000Y-101536500D01*
X160641500Y-101372000D01*
X160029116Y-101372000D01*
X159787273Y-101472174D01*
X159602175Y-101657273D01*
X159502000Y-101899115D01*
X159502000Y-101930219D01*
X159482424Y-101826182D01*
X159361968Y-101638988D01*
X159178173Y-101513406D01*
X158960000Y-101469225D01*
X157460000Y-101469225D01*
X157256182Y-101507576D01*
X157068988Y-101628032D01*
X156943406Y-101811827D01*
X156899225Y-102030000D01*
X156899225Y-103330000D01*
X156937576Y-103533818D01*
X157058032Y-103721012D01*
X157160000Y-103790684D01*
X157160000Y-105414424D01*
X156998988Y-105518032D01*
X156873406Y-105701827D01*
X156829225Y-105920000D01*
X156829225Y-107220000D01*
X156867576Y-107423818D01*
X156988032Y-107611012D01*
X157171827Y-107736594D01*
X157390000Y-107780775D01*
X158890000Y-107780775D01*
X159093818Y-107742424D01*
X159281012Y-107621968D01*
X159406594Y-107438173D01*
X159449657Y-107225522D01*
X159561862Y-107393450D01*
X159567576Y-107423818D01*
X159688032Y-107611012D01*
X159723361Y-107635151D01*
X159743984Y-107666016D01*
X161963982Y-109886013D01*
X161963984Y-109886016D01*
X162466841Y-110222013D01*
X163060000Y-110340001D01*
X163060005Y-110340000D01*
X163317968Y-110340000D01*
X164681200Y-111703231D01*
X164681200Y-112890441D01*
X164337367Y-113405024D01*
X164295057Y-113617732D01*
X164222613Y-113327375D01*
X163721105Y-112649856D01*
X162998497Y-112215829D01*
X162708692Y-112136683D01*
X162372800Y-112258585D01*
X162372800Y-115146000D01*
X162392800Y-115146000D01*
X162392800Y-115354000D01*
X162372800Y-115354000D01*
X162372800Y-118241415D01*
X162708692Y-118363317D01*
X162998497Y-118284171D01*
X163721105Y-117850144D01*
X164222613Y-117172625D01*
X164295057Y-116882268D01*
X164337367Y-117094976D01*
X164781723Y-117760002D01*
X165446749Y-118204358D01*
X166231200Y-118360395D01*
X167015651Y-118204358D01*
X167680677Y-117760002D01*
X168125033Y-117094976D01*
X168183707Y-116800000D01*
X168238553Y-116800000D01*
X168297227Y-117094976D01*
X168741583Y-117760002D01*
X169406609Y-118204358D01*
X170191060Y-118360395D01*
X170975511Y-118204358D01*
X171640537Y-117760002D01*
X172084893Y-117094976D01*
X172240930Y-116310525D01*
X172240930Y-114189475D01*
X172084893Y-113405024D01*
X171741060Y-112890441D01*
X171741060Y-109731065D01*
X171741061Y-109731060D01*
X171623073Y-109137901D01*
X171287076Y-108635044D01*
X168570000Y-105917968D01*
X168570000Y-104190000D01*
X170297969Y-104190000D01*
X170603982Y-104496013D01*
X170603984Y-104496016D01*
X170905425Y-104697431D01*
X171106840Y-104832013D01*
X171700000Y-104950000D01*
X174370000Y-104950000D01*
X174963159Y-104832013D01*
X175466016Y-104496016D01*
X175663807Y-104200000D01*
X175758584Y-104200000D01*
X175910434Y-104427260D01*
X176369039Y-104733690D01*
X176910000Y-104841294D01*
X177450961Y-104733690D01*
X177875533Y-104450000D01*
X178390000Y-104450000D01*
X178791818Y-104370074D01*
X179132462Y-104142462D01*
X179375000Y-103899924D01*
X179375000Y-121375000D01*
X80625000Y-121375000D01*
X80625000Y-115354000D01*
X156151070Y-115354000D01*
X156151070Y-116354760D01*
X156355127Y-117172625D01*
X156856635Y-117850144D01*
X157579243Y-118284171D01*
X157869048Y-118363317D01*
X158204940Y-118241415D01*
X158204940Y-115354000D01*
X158412940Y-115354000D01*
X158412940Y-118241415D01*
X158748832Y-118363317D01*
X159038637Y-118284171D01*
X159761245Y-117850144D01*
X160262753Y-117172625D01*
X160288870Y-117067947D01*
X160314987Y-117172625D01*
X160816495Y-117850144D01*
X161539103Y-118284171D01*
X161828908Y-118363317D01*
X162164800Y-118241415D01*
X162164800Y-115354000D01*
X158412940Y-115354000D01*
X158204940Y-115354000D01*
X156151070Y-115354000D01*
X80625000Y-115354000D01*
X80625000Y-114145240D01*
X156151070Y-114145240D01*
X156151070Y-115146000D01*
X158204940Y-115146000D01*
X158204940Y-112258585D01*
X158412940Y-112258585D01*
X158412940Y-115146000D01*
X162164800Y-115146000D01*
X162164800Y-112258585D01*
X161828908Y-112136683D01*
X161539103Y-112215829D01*
X160816495Y-112649856D01*
X160314987Y-113327375D01*
X160288870Y-113432053D01*
X160262753Y-113327375D01*
X159761245Y-112649856D01*
X159038637Y-112215829D01*
X158748832Y-112136683D01*
X158412940Y-112258585D01*
X158204940Y-112258585D01*
X157869048Y-112136683D01*
X157579243Y-112215829D01*
X156856635Y-112649856D01*
X156355127Y-113327375D01*
X156151070Y-114145240D01*
X80625000Y-114145240D01*
X80625000Y-63628500D01*
X136662000Y-63628500D01*
X136662000Y-64140885D01*
X136762175Y-64382727D01*
X136947273Y-64567826D01*
X137189116Y-64668000D01*
X137801500Y-64668000D01*
X137966000Y-64503500D01*
X137966000Y-63464000D01*
X136826500Y-63464000D01*
X136662000Y-63628500D01*
X80625000Y-63628500D01*
X80625000Y-61590952D01*
X83206683Y-61590952D01*
X83285829Y-61880757D01*
X83719856Y-62603365D01*
X84397375Y-63104873D01*
X85215240Y-63308930D01*
X86216000Y-63308930D01*
X86216000Y-61255060D01*
X86424000Y-61255060D01*
X86424000Y-63308930D01*
X87424760Y-63308930D01*
X88242625Y-63104873D01*
X88920144Y-62603365D01*
X89354171Y-61880757D01*
X89433317Y-61590952D01*
X89381619Y-61448500D01*
X136662000Y-61448500D01*
X136662000Y-61960885D01*
X136762175Y-62202727D01*
X136829448Y-62270000D01*
X136762175Y-62337273D01*
X136662000Y-62579115D01*
X136662000Y-63091500D01*
X136826500Y-63256000D01*
X137966000Y-63256000D01*
X137966000Y-61284000D01*
X136826500Y-61284000D01*
X136662000Y-61448500D01*
X89381619Y-61448500D01*
X89311415Y-61255060D01*
X86424000Y-61255060D01*
X86216000Y-61255060D01*
X83328585Y-61255060D01*
X83206683Y-61590952D01*
X80625000Y-61590952D01*
X80625000Y-57631092D01*
X83206683Y-57631092D01*
X83285829Y-57920897D01*
X83719856Y-58643505D01*
X84397375Y-59145013D01*
X84502053Y-59171130D01*
X84397375Y-59197247D01*
X83719856Y-59698755D01*
X83285829Y-60421363D01*
X83206683Y-60711168D01*
X83328585Y-61047060D01*
X86216000Y-61047060D01*
X86216000Y-57295200D01*
X86424000Y-57295200D01*
X86424000Y-61047060D01*
X89311415Y-61047060D01*
X89433317Y-60711168D01*
X89354171Y-60421363D01*
X89340808Y-60399115D01*
X136662000Y-60399115D01*
X136662000Y-60911500D01*
X136826500Y-61076000D01*
X137966000Y-61076000D01*
X137966000Y-60036500D01*
X137801500Y-59872000D01*
X137189116Y-59872000D01*
X136947273Y-59972174D01*
X136762175Y-60157273D01*
X136662000Y-60399115D01*
X89340808Y-60399115D01*
X88920144Y-59698755D01*
X88242625Y-59197247D01*
X88137947Y-59171130D01*
X88242625Y-59145013D01*
X88920144Y-58643505D01*
X89354171Y-57920897D01*
X89433317Y-57631092D01*
X89311415Y-57295200D01*
X86424000Y-57295200D01*
X86216000Y-57295200D01*
X83328585Y-57295200D01*
X83206683Y-57631092D01*
X80625000Y-57631092D01*
X80625000Y-55950326D01*
X83591667Y-55952316D01*
G36*
X174893225Y-74484596D02*
X174893225Y-74913600D01*
X174931576Y-75117418D01*
X175052032Y-75304612D01*
X175235827Y-75430194D01*
X175454000Y-75474375D01*
X177486000Y-75474375D01*
X177689818Y-75436024D01*
X177877012Y-75315568D01*
X177910000Y-75267289D01*
X177910000Y-79020684D01*
X177904485Y-79018400D01*
X177178500Y-79018400D01*
X177014000Y-79182900D01*
X177014000Y-80436000D01*
X177034000Y-80436000D01*
X177034000Y-80644000D01*
X177014000Y-80644000D01*
X177014000Y-80664000D01*
X176806000Y-80664000D01*
X176806000Y-80644000D01*
X174474000Y-80644000D01*
X174474000Y-80664000D01*
X174266000Y-80664000D01*
X174266000Y-80644000D01*
X173016451Y-80644000D01*
X172886910Y-80880195D01*
X173129990Y-81421853D01*
X173561851Y-81829257D01*
X173650159Y-81865834D01*
X173370434Y-82052740D01*
X173218584Y-82280000D01*
X169316367Y-82280000D01*
X167236172Y-80199805D01*
X172886910Y-80199805D01*
X173016451Y-80436000D01*
X174266000Y-80436000D01*
X174266000Y-79186891D01*
X174474000Y-79186891D01*
X174474000Y-80436000D01*
X176806000Y-80436000D01*
X176806000Y-79182900D01*
X176641500Y-79018400D01*
X175915515Y-79018400D01*
X175673673Y-79118575D01*
X175488574Y-79303673D01*
X175417120Y-79476180D01*
X175178149Y-79250743D01*
X174710194Y-79056917D01*
X174474000Y-79186891D01*
X174266000Y-79186891D01*
X174029806Y-79056917D01*
X173561851Y-79250743D01*
X173129990Y-79658147D01*
X172886910Y-80199805D01*
X167236172Y-80199805D01*
X158166370Y-71130004D01*
X171538634Y-71130004D01*
X174893225Y-74484596D01*
X174893225Y-74484596D01*
G37*
X174893225Y-74484596D02*
X174893225Y-74913600D01*
X174931576Y-75117418D01*
X175052032Y-75304612D01*
X175235827Y-75430194D01*
X175454000Y-75474375D01*
X177486000Y-75474375D01*
X177689818Y-75436024D01*
X177877012Y-75315568D01*
X177910000Y-75267289D01*
X177910000Y-79020684D01*
X177904485Y-79018400D01*
X177178500Y-79018400D01*
X177014000Y-79182900D01*
X177014000Y-80436000D01*
X177034000Y-80436000D01*
X177034000Y-80644000D01*
X177014000Y-80644000D01*
X177014000Y-80664000D01*
X176806000Y-80664000D01*
X176806000Y-80644000D01*
X174474000Y-80644000D01*
X174474000Y-80664000D01*
X174266000Y-80664000D01*
X174266000Y-80644000D01*
X173016451Y-80644000D01*
X172886910Y-80880195D01*
X173129990Y-81421853D01*
X173561851Y-81829257D01*
X173650159Y-81865834D01*
X173370434Y-82052740D01*
X173218584Y-82280000D01*
X169316367Y-82280000D01*
X167236172Y-80199805D01*
X172886910Y-80199805D01*
X173016451Y-80436000D01*
X174266000Y-80436000D01*
X174266000Y-79186891D01*
X174474000Y-79186891D01*
X174474000Y-80436000D01*
X176806000Y-80436000D01*
X176806000Y-79182900D01*
X176641500Y-79018400D01*
X175915515Y-79018400D01*
X175673673Y-79118575D01*
X175488574Y-79303673D01*
X175417120Y-79476180D01*
X175178149Y-79250743D01*
X174710194Y-79056917D01*
X174474000Y-79186891D01*
X174266000Y-79186891D01*
X174029806Y-79056917D01*
X173561851Y-79250743D01*
X173129990Y-79658147D01*
X172886910Y-80199805D01*
X167236172Y-80199805D01*
X158166370Y-71130004D01*
X171538634Y-71130004D01*
X174893225Y-74484596D01*
G36*
X172986899Y-55121969D02*
X172753673Y-55218575D01*
X172568574Y-55403673D01*
X172468400Y-55645516D01*
X172468400Y-56371500D01*
X172632900Y-56536000D01*
X173886000Y-56536000D01*
X173886000Y-56516000D01*
X174094000Y-56516000D01*
X174094000Y-56536000D01*
X176426000Y-56536000D01*
X176426000Y-56516000D01*
X176634000Y-56516000D01*
X176634000Y-56536000D01*
X176654000Y-56536000D01*
X176654000Y-56744000D01*
X176634000Y-56744000D01*
X176634000Y-57993109D01*
X176870194Y-58123083D01*
X177338149Y-57929257D01*
X177770010Y-57521853D01*
X177910000Y-57209912D01*
X177910000Y-65815592D01*
X177652646Y-65430434D01*
X177194041Y-65124004D01*
X176653080Y-65016400D01*
X176286920Y-65016400D01*
X175745959Y-65124004D01*
X175287354Y-65430434D01*
X175154008Y-65630000D01*
X174550000Y-65630000D01*
X174243853Y-65690896D01*
X173984314Y-65864315D01*
X172358632Y-67489998D01*
X163261369Y-67489998D01*
X158922145Y-63150775D01*
X159610000Y-63150775D01*
X159813818Y-63112424D01*
X160001012Y-62991968D01*
X160126594Y-62808173D01*
X160152000Y-62682714D01*
X160152000Y-62720885D01*
X160252175Y-62962727D01*
X160437273Y-63147826D01*
X160679116Y-63248000D01*
X161291500Y-63248000D01*
X161456000Y-63083500D01*
X161456000Y-62044000D01*
X161664000Y-62044000D01*
X161664000Y-63083500D01*
X161828500Y-63248000D01*
X162440884Y-63248000D01*
X162682727Y-63147826D01*
X162867825Y-62962727D01*
X162968000Y-62720885D01*
X162968000Y-62208500D01*
X162803500Y-62044000D01*
X161664000Y-62044000D01*
X161456000Y-62044000D01*
X161436000Y-62044000D01*
X161436000Y-61836000D01*
X161456000Y-61836000D01*
X161456000Y-61816000D01*
X161664000Y-61816000D01*
X161664000Y-61836000D01*
X162803500Y-61836000D01*
X162968000Y-61671500D01*
X162968000Y-61159115D01*
X162867825Y-60917273D01*
X162740553Y-60790000D01*
X165760000Y-60790000D01*
X166161818Y-60710074D01*
X166502462Y-60482462D01*
X166602462Y-60382462D01*
X166830074Y-60041818D01*
X166910000Y-59640000D01*
X166830074Y-59238183D01*
X166602462Y-58897538D01*
X166261817Y-58669926D01*
X165860000Y-58590000D01*
X165759713Y-58609948D01*
X165945685Y-58485685D01*
X167522870Y-56908500D01*
X172468400Y-56908500D01*
X172468400Y-57634484D01*
X172568574Y-57876327D01*
X172753673Y-58061425D01*
X172995515Y-58161600D01*
X173721500Y-58161600D01*
X173886000Y-57997100D01*
X173886000Y-56744000D01*
X174094000Y-56744000D01*
X174094000Y-57997100D01*
X174258500Y-58161600D01*
X174984485Y-58161600D01*
X175226327Y-58061425D01*
X175411426Y-57876327D01*
X175482880Y-57703820D01*
X175721851Y-57929257D01*
X176189806Y-58123083D01*
X176426000Y-57993109D01*
X176426000Y-56744000D01*
X174094000Y-56744000D01*
X173886000Y-56744000D01*
X172632900Y-56744000D01*
X172468400Y-56908500D01*
X167522870Y-56908500D01*
X169531371Y-54900000D01*
X172838584Y-54900000D01*
X172986899Y-55121969D01*
X172986899Y-55121969D01*
G37*
X172986899Y-55121969D02*
X172753673Y-55218575D01*
X172568574Y-55403673D01*
X172468400Y-55645516D01*
X172468400Y-56371500D01*
X172632900Y-56536000D01*
X173886000Y-56536000D01*
X173886000Y-56516000D01*
X174094000Y-56516000D01*
X174094000Y-56536000D01*
X176426000Y-56536000D01*
X176426000Y-56516000D01*
X176634000Y-56516000D01*
X176634000Y-56536000D01*
X176654000Y-56536000D01*
X176654000Y-56744000D01*
X176634000Y-56744000D01*
X176634000Y-57993109D01*
X176870194Y-58123083D01*
X177338149Y-57929257D01*
X177770010Y-57521853D01*
X177910000Y-57209912D01*
X177910000Y-65815592D01*
X177652646Y-65430434D01*
X177194041Y-65124004D01*
X176653080Y-65016400D01*
X176286920Y-65016400D01*
X175745959Y-65124004D01*
X175287354Y-65430434D01*
X175154008Y-65630000D01*
X174550000Y-65630000D01*
X174243853Y-65690896D01*
X173984314Y-65864315D01*
X172358632Y-67489998D01*
X163261369Y-67489998D01*
X158922145Y-63150775D01*
X159610000Y-63150775D01*
X159813818Y-63112424D01*
X160001012Y-62991968D01*
X160126594Y-62808173D01*
X160152000Y-62682714D01*
X160152000Y-62720885D01*
X160252175Y-62962727D01*
X160437273Y-63147826D01*
X160679116Y-63248000D01*
X161291500Y-63248000D01*
X161456000Y-63083500D01*
X161456000Y-62044000D01*
X161664000Y-62044000D01*
X161664000Y-63083500D01*
X161828500Y-63248000D01*
X162440884Y-63248000D01*
X162682727Y-63147826D01*
X162867825Y-62962727D01*
X162968000Y-62720885D01*
X162968000Y-62208500D01*
X162803500Y-62044000D01*
X161664000Y-62044000D01*
X161456000Y-62044000D01*
X161436000Y-62044000D01*
X161436000Y-61836000D01*
X161456000Y-61836000D01*
X161456000Y-61816000D01*
X161664000Y-61816000D01*
X161664000Y-61836000D01*
X162803500Y-61836000D01*
X162968000Y-61671500D01*
X162968000Y-61159115D01*
X162867825Y-60917273D01*
X162740553Y-60790000D01*
X165760000Y-60790000D01*
X166161818Y-60710074D01*
X166502462Y-60482462D01*
X166602462Y-60382462D01*
X166830074Y-60041818D01*
X166910000Y-59640000D01*
X166830074Y-59238183D01*
X166602462Y-58897538D01*
X166261817Y-58669926D01*
X165860000Y-58590000D01*
X165759713Y-58609948D01*
X165945685Y-58485685D01*
X167522870Y-56908500D01*
X172468400Y-56908500D01*
X172468400Y-57634484D01*
X172568574Y-57876327D01*
X172753673Y-58061425D01*
X172995515Y-58161600D01*
X173721500Y-58161600D01*
X173886000Y-57997100D01*
X173886000Y-56744000D01*
X174094000Y-56744000D01*
X174094000Y-57997100D01*
X174258500Y-58161600D01*
X174984485Y-58161600D01*
X175226327Y-58061425D01*
X175411426Y-57876327D01*
X175482880Y-57703820D01*
X175721851Y-57929257D01*
X176189806Y-58123083D01*
X176426000Y-57993109D01*
X176426000Y-56744000D01*
X174094000Y-56744000D01*
X173886000Y-56744000D01*
X172632900Y-56744000D01*
X172468400Y-56908500D01*
X167522870Y-56908500D01*
X169531371Y-54900000D01*
X172838584Y-54900000D01*
X172986899Y-55121969D01*
G36*
X154365000Y-57030775D02*
X154729225Y-57030775D01*
X154729225Y-57395000D01*
X154753609Y-57524589D01*
X154729225Y-57645000D01*
X154729225Y-58195000D01*
X154753609Y-58324589D01*
X154729225Y-58445000D01*
X154729225Y-58879395D01*
X154632000Y-59114115D01*
X154632000Y-59251500D01*
X154796500Y-59416000D01*
X154931921Y-59416000D01*
X155071827Y-59511594D01*
X155106852Y-59518687D01*
X155086182Y-59522576D01*
X154928565Y-59624000D01*
X154796500Y-59624000D01*
X154632000Y-59788500D01*
X154632000Y-59925885D01*
X154729225Y-60160605D01*
X154729225Y-60595000D01*
X154753609Y-60724589D01*
X154729225Y-60845000D01*
X154729225Y-61395000D01*
X154753609Y-61524589D01*
X154729225Y-61645000D01*
X154729225Y-62195000D01*
X154753609Y-62324589D01*
X154729225Y-62445000D01*
X154729225Y-62809225D01*
X154365000Y-62809225D01*
X154235411Y-62833609D01*
X154115000Y-62809225D01*
X153565000Y-62809225D01*
X153435411Y-62833609D01*
X153315000Y-62809225D01*
X152765000Y-62809225D01*
X152635411Y-62833609D01*
X152515000Y-62809225D01*
X151965000Y-62809225D01*
X151835411Y-62833609D01*
X151715000Y-62809225D01*
X151165000Y-62809225D01*
X151035411Y-62833609D01*
X150915000Y-62809225D01*
X150365000Y-62809225D01*
X150235411Y-62833609D01*
X150115000Y-62809225D01*
X149565000Y-62809225D01*
X149435411Y-62833609D01*
X149315000Y-62809225D01*
X148950775Y-62809225D01*
X148950775Y-62445000D01*
X148926391Y-62315411D01*
X148950775Y-62195000D01*
X148950775Y-61645000D01*
X148926391Y-61515411D01*
X148950775Y-61395000D01*
X148950775Y-60960605D01*
X149048000Y-60725885D01*
X149048000Y-60588500D01*
X148883500Y-60424000D01*
X148748079Y-60424000D01*
X148608173Y-60328406D01*
X148573148Y-60321313D01*
X148593818Y-60317424D01*
X148751435Y-60216000D01*
X148883500Y-60216000D01*
X149048000Y-60051500D01*
X149048000Y-59914115D01*
X148950775Y-59679395D01*
X148950775Y-59360605D01*
X149048000Y-59125885D01*
X149048000Y-58988500D01*
X148883500Y-58824000D01*
X148748079Y-58824000D01*
X148608173Y-58728406D01*
X148573148Y-58721313D01*
X148593818Y-58717424D01*
X148751435Y-58616000D01*
X148883500Y-58616000D01*
X149048000Y-58451500D01*
X149048000Y-58314115D01*
X148950775Y-58079395D01*
X148950775Y-57645000D01*
X148926391Y-57515411D01*
X148950775Y-57395000D01*
X148950775Y-57030775D01*
X149315000Y-57030775D01*
X149444589Y-57006391D01*
X149565000Y-57030775D01*
X150115000Y-57030775D01*
X150244589Y-57006391D01*
X150365000Y-57030775D01*
X150915000Y-57030775D01*
X151044589Y-57006391D01*
X151165000Y-57030775D01*
X151715000Y-57030775D01*
X151844589Y-57006391D01*
X151965000Y-57030775D01*
X152515000Y-57030775D01*
X152644589Y-57006391D01*
X152765000Y-57030775D01*
X153315000Y-57030775D01*
X153444589Y-57006391D01*
X153565000Y-57030775D01*
X154115000Y-57030775D01*
X154244589Y-57006391D01*
X154365000Y-57030775D01*
X154365000Y-57030775D01*
G37*
X154365000Y-57030775D02*
X154729225Y-57030775D01*
X154729225Y-57395000D01*
X154753609Y-57524589D01*
X154729225Y-57645000D01*
X154729225Y-58195000D01*
X154753609Y-58324589D01*
X154729225Y-58445000D01*
X154729225Y-58879395D01*
X154632000Y-59114115D01*
X154632000Y-59251500D01*
X154796500Y-59416000D01*
X154931921Y-59416000D01*
X155071827Y-59511594D01*
X155106852Y-59518687D01*
X155086182Y-59522576D01*
X154928565Y-59624000D01*
X154796500Y-59624000D01*
X154632000Y-59788500D01*
X154632000Y-59925885D01*
X154729225Y-60160605D01*
X154729225Y-60595000D01*
X154753609Y-60724589D01*
X154729225Y-60845000D01*
X154729225Y-61395000D01*
X154753609Y-61524589D01*
X154729225Y-61645000D01*
X154729225Y-62195000D01*
X154753609Y-62324589D01*
X154729225Y-62445000D01*
X154729225Y-62809225D01*
X154365000Y-62809225D01*
X154235411Y-62833609D01*
X154115000Y-62809225D01*
X153565000Y-62809225D01*
X153435411Y-62833609D01*
X153315000Y-62809225D01*
X152765000Y-62809225D01*
X152635411Y-62833609D01*
X152515000Y-62809225D01*
X151965000Y-62809225D01*
X151835411Y-62833609D01*
X151715000Y-62809225D01*
X151165000Y-62809225D01*
X151035411Y-62833609D01*
X150915000Y-62809225D01*
X150365000Y-62809225D01*
X150235411Y-62833609D01*
X150115000Y-62809225D01*
X149565000Y-62809225D01*
X149435411Y-62833609D01*
X149315000Y-62809225D01*
X148950775Y-62809225D01*
X148950775Y-62445000D01*
X148926391Y-62315411D01*
X148950775Y-62195000D01*
X148950775Y-61645000D01*
X148926391Y-61515411D01*
X148950775Y-61395000D01*
X148950775Y-60960605D01*
X149048000Y-60725885D01*
X149048000Y-60588500D01*
X148883500Y-60424000D01*
X148748079Y-60424000D01*
X148608173Y-60328406D01*
X148573148Y-60321313D01*
X148593818Y-60317424D01*
X148751435Y-60216000D01*
X148883500Y-60216000D01*
X149048000Y-60051500D01*
X149048000Y-59914115D01*
X148950775Y-59679395D01*
X148950775Y-59360605D01*
X149048000Y-59125885D01*
X149048000Y-58988500D01*
X148883500Y-58824000D01*
X148748079Y-58824000D01*
X148608173Y-58728406D01*
X148573148Y-58721313D01*
X148593818Y-58717424D01*
X148751435Y-58616000D01*
X148883500Y-58616000D01*
X149048000Y-58451500D01*
X149048000Y-58314115D01*
X148950775Y-58079395D01*
X148950775Y-57645000D01*
X148926391Y-57515411D01*
X148950775Y-57395000D01*
X148950775Y-57030775D01*
X149315000Y-57030775D01*
X149444589Y-57006391D01*
X149565000Y-57030775D01*
X150115000Y-57030775D01*
X150244589Y-57006391D01*
X150365000Y-57030775D01*
X150915000Y-57030775D01*
X151044589Y-57006391D01*
X151165000Y-57030775D01*
X151715000Y-57030775D01*
X151844589Y-57006391D01*
X151965000Y-57030775D01*
X152515000Y-57030775D01*
X152644589Y-57006391D01*
X152765000Y-57030775D01*
X153315000Y-57030775D01*
X153444589Y-57006391D01*
X153565000Y-57030775D01*
X154115000Y-57030775D01*
X154244589Y-57006391D01*
X154365000Y-57030775D01*
G36*
X157613406Y-58871827D02*
X157569225Y-59090000D01*
X157569225Y-59520000D01*
X157080128Y-59520000D01*
X157093818Y-59517424D01*
X157251435Y-59416000D01*
X157383500Y-59416000D01*
X157548000Y-59251500D01*
X157548000Y-59114115D01*
X157450775Y-58879395D01*
X157450775Y-58720000D01*
X157717145Y-58720000D01*
X157613406Y-58871827D01*
X157613406Y-58871827D01*
G37*
X157613406Y-58871827D02*
X157569225Y-59090000D01*
X157569225Y-59520000D01*
X157080128Y-59520000D01*
X157093818Y-59517424D01*
X157251435Y-59416000D01*
X157383500Y-59416000D01*
X157548000Y-59251500D01*
X157548000Y-59114115D01*
X157450775Y-58879395D01*
X157450775Y-58720000D01*
X157717145Y-58720000D01*
X157613406Y-58871827D01*
G36*
X172990434Y-50047260D02*
X173353720Y-50290000D01*
X172990434Y-50532740D01*
X172838584Y-50760000D01*
X170778332Y-50760000D01*
X170476690Y-50820000D01*
X170472185Y-50820896D01*
X170212646Y-50994315D01*
X164886962Y-56320000D01*
X157066663Y-56320000D01*
X156890000Y-56284225D01*
X155475775Y-56284225D01*
X155475775Y-54870000D01*
X155465576Y-54815795D01*
X160461371Y-49820000D01*
X172838584Y-49820000D01*
X172990434Y-50047260D01*
X172990434Y-50047260D01*
G37*
X172990434Y-50047260D02*
X173353720Y-50290000D01*
X172990434Y-50532740D01*
X172838584Y-50760000D01*
X170778332Y-50760000D01*
X170476690Y-50820000D01*
X170472185Y-50820896D01*
X170212646Y-50994315D01*
X164886962Y-56320000D01*
X157066663Y-56320000D01*
X156890000Y-56284225D01*
X155475775Y-56284225D01*
X155475775Y-54870000D01*
X155465576Y-54815795D01*
X160461371Y-49820000D01*
X172838584Y-49820000D01*
X172990434Y-50047260D01*
G36*
X131395076Y-23480000D02*
X130601780Y-23480000D01*
X130218655Y-23224004D01*
X129677694Y-23116400D01*
X129622306Y-23116400D01*
X129081345Y-23224004D01*
X128622740Y-23530434D01*
X128380000Y-23893720D01*
X128137260Y-23530434D01*
X127678655Y-23224004D01*
X127137694Y-23116400D01*
X127082306Y-23116400D01*
X126541345Y-23224004D01*
X126082740Y-23530434D01*
X125840000Y-23893720D01*
X125597260Y-23530434D01*
X125138655Y-23224004D01*
X124597694Y-23116400D01*
X124542306Y-23116400D01*
X124001345Y-23224004D01*
X123542740Y-23530434D01*
X123300000Y-23893720D01*
X123057260Y-23530434D01*
X122598655Y-23224004D01*
X122057694Y-23116400D01*
X122002306Y-23116400D01*
X121461345Y-23224004D01*
X121002740Y-23530434D01*
X120760000Y-23893720D01*
X120517260Y-23530434D01*
X120058655Y-23224004D01*
X119517694Y-23116400D01*
X119462306Y-23116400D01*
X118921345Y-23224004D01*
X118462740Y-23530434D01*
X118329394Y-23730000D01*
X118110606Y-23730000D01*
X117977260Y-23530434D01*
X117518655Y-23224004D01*
X116977694Y-23116400D01*
X116922306Y-23116400D01*
X116381345Y-23224004D01*
X115922740Y-23530434D01*
X115789394Y-23730000D01*
X115570606Y-23730000D01*
X115437260Y-23530434D01*
X114978655Y-23224004D01*
X114437694Y-23116400D01*
X114382306Y-23116400D01*
X113841345Y-23224004D01*
X113382740Y-23530434D01*
X113140000Y-23893720D01*
X112897260Y-23530434D01*
X112438655Y-23224004D01*
X111897694Y-23116400D01*
X111842306Y-23116400D01*
X111301345Y-23224004D01*
X110842740Y-23530434D01*
X110600000Y-23893720D01*
X110357260Y-23530434D01*
X109898655Y-23224004D01*
X109357694Y-23116400D01*
X109302306Y-23116400D01*
X108761345Y-23224004D01*
X108308031Y-23526899D01*
X108211425Y-23293673D01*
X108026327Y-23108574D01*
X107784484Y-23008400D01*
X107058500Y-23008400D01*
X106894000Y-23172900D01*
X106894000Y-24426000D01*
X106914000Y-24426000D01*
X106914000Y-24634000D01*
X106894000Y-24634000D01*
X106894000Y-26966000D01*
X106914000Y-26966000D01*
X106914000Y-27174000D01*
X106894000Y-27174000D01*
X106894000Y-28423549D01*
X107130195Y-28553090D01*
X107671853Y-28310010D01*
X108079257Y-27878149D01*
X108115834Y-27789841D01*
X108302740Y-28069566D01*
X108761345Y-28375996D01*
X109302306Y-28483600D01*
X109357694Y-28483600D01*
X109898655Y-28375996D01*
X110357260Y-28069566D01*
X110600000Y-27706280D01*
X110842740Y-28069566D01*
X111301345Y-28375996D01*
X111842306Y-28483600D01*
X111897694Y-28483600D01*
X112438655Y-28375996D01*
X112897260Y-28069566D01*
X113140000Y-27706280D01*
X113382740Y-28069566D01*
X113841345Y-28375996D01*
X114382306Y-28483600D01*
X114437694Y-28483600D01*
X114978655Y-28375996D01*
X115437260Y-28069566D01*
X115570606Y-27870000D01*
X115789394Y-27870000D01*
X115922740Y-28069566D01*
X116381345Y-28375996D01*
X116922306Y-28483600D01*
X116977694Y-28483600D01*
X117518655Y-28375996D01*
X117977260Y-28069566D01*
X118110606Y-27870000D01*
X118329394Y-27870000D01*
X118462740Y-28069566D01*
X118715000Y-28238121D01*
X118715000Y-29780000D01*
X118773993Y-30076580D01*
X118941992Y-30328008D01*
X119298984Y-30685000D01*
X104951016Y-30685000D01*
X101676210Y-27410194D01*
X105306917Y-27410194D01*
X105500743Y-27878149D01*
X105908147Y-28310010D01*
X106449805Y-28553090D01*
X106686000Y-28423549D01*
X106686000Y-27174000D01*
X105436891Y-27174000D01*
X105306917Y-27410194D01*
X101676210Y-27410194D01*
X101405000Y-27138984D01*
X101405000Y-26116775D01*
X101646000Y-26116775D01*
X101849818Y-26078424D01*
X102037012Y-25957968D01*
X102162594Y-25774173D01*
X102206775Y-25556000D01*
X102206775Y-24798500D01*
X105268400Y-24798500D01*
X105268400Y-25524485D01*
X105368575Y-25766327D01*
X105553673Y-25951426D01*
X105726180Y-26022880D01*
X105500743Y-26261851D01*
X105306917Y-26729806D01*
X105436891Y-26966000D01*
X106686000Y-26966000D01*
X106686000Y-24634000D01*
X105432900Y-24634000D01*
X105268400Y-24798500D01*
X102206775Y-24798500D01*
X102206775Y-23535515D01*
X105268400Y-23535515D01*
X105268400Y-24261500D01*
X105432900Y-24426000D01*
X106686000Y-24426000D01*
X106686000Y-23172900D01*
X106521500Y-23008400D01*
X105795516Y-23008400D01*
X105553673Y-23108574D01*
X105368575Y-23293673D01*
X105268400Y-23535515D01*
X102206775Y-23535515D01*
X102206775Y-23524000D01*
X102168424Y-23320182D01*
X102047968Y-23132988D01*
X101864173Y-23007406D01*
X101646000Y-22963225D01*
X99614000Y-22963225D01*
X99410182Y-23001576D01*
X99222988Y-23122032D01*
X99132522Y-23254434D01*
X99051651Y-23169772D01*
X98454086Y-22906066D01*
X98194000Y-23033727D01*
X98194000Y-24436000D01*
X98214000Y-24436000D01*
X98214000Y-24644000D01*
X98194000Y-24644000D01*
X98194000Y-26046273D01*
X98454086Y-26173934D01*
X99051651Y-25910228D01*
X99133336Y-25824714D01*
X99212032Y-25947012D01*
X99395827Y-26072594D01*
X99614000Y-26116775D01*
X99855000Y-26116775D01*
X99855000Y-27460000D01*
X99913993Y-27756580D01*
X100081992Y-28008008D01*
X104081992Y-32008008D01*
X104333420Y-32176007D01*
X104630000Y-32235000D01*
X125588984Y-32235000D01*
X140051191Y-46697206D01*
X137154933Y-46702323D01*
X137246594Y-46568173D01*
X137290775Y-46350000D01*
X137290775Y-44850000D01*
X137252424Y-44646182D01*
X137131968Y-44458988D01*
X136948173Y-44333406D01*
X136730000Y-44289225D01*
X135430000Y-44289225D01*
X135226182Y-44327576D01*
X135038988Y-44448032D01*
X134996647Y-44510000D01*
X134720533Y-44510000D01*
X134661968Y-44418988D01*
X134478173Y-44293406D01*
X134260000Y-44249225D01*
X132960000Y-44249225D01*
X132756182Y-44287576D01*
X132568988Y-44408032D01*
X132443406Y-44591827D01*
X132399225Y-44810000D01*
X132399225Y-46310000D01*
X132437576Y-46513818D01*
X132558032Y-46701012D01*
X132566719Y-46706947D01*
X132011875Y-46700012D01*
X131953373Y-46711099D01*
X131903795Y-46744074D01*
X131870951Y-46793739D01*
X131860355Y-46860320D01*
X131929376Y-47861125D01*
X122128946Y-47930004D01*
X122070672Y-47942231D01*
X122021746Y-47976168D01*
X121989879Y-48026465D01*
X121980000Y-48080000D01*
X121980000Y-48252000D01*
X121368500Y-48252000D01*
X121204000Y-48416500D01*
X121204000Y-49456000D01*
X121224000Y-49456000D01*
X121224000Y-49664000D01*
X121204000Y-49664000D01*
X121204000Y-50703500D01*
X121308500Y-50808000D01*
X121296500Y-50808000D01*
X121132000Y-50972500D01*
X121132000Y-51870000D01*
X121152000Y-51870000D01*
X121152000Y-52078000D01*
X121132000Y-52078000D01*
X121132000Y-52098000D01*
X120924000Y-52098000D01*
X120924000Y-52078000D01*
X120904000Y-52078000D01*
X120904000Y-51870000D01*
X120924000Y-51870000D01*
X120924000Y-50972500D01*
X120819500Y-50868000D01*
X120831500Y-50868000D01*
X120996000Y-50703500D01*
X120996000Y-49664000D01*
X119856500Y-49664000D01*
X119692000Y-49828500D01*
X119692000Y-50340885D01*
X119792175Y-50582727D01*
X119977273Y-50767826D01*
X120074262Y-50808000D01*
X119881115Y-50808000D01*
X119639273Y-50908175D01*
X119454174Y-51093273D01*
X119354000Y-51335116D01*
X119354000Y-51705500D01*
X119518498Y-51869998D01*
X119470550Y-51869998D01*
X119402727Y-51802175D01*
X119160885Y-51702000D01*
X118648500Y-51702000D01*
X118615194Y-51735306D01*
X118659583Y-51141176D01*
X118652146Y-51082099D01*
X118622311Y-51030570D01*
X118574779Y-50994709D01*
X118510000Y-50980000D01*
X110472688Y-50980000D01*
X110511779Y-48779115D01*
X119692000Y-48779115D01*
X119692000Y-49291500D01*
X119856500Y-49456000D01*
X120996000Y-49456000D01*
X120996000Y-48416500D01*
X120831500Y-48252000D01*
X120219116Y-48252000D01*
X119977273Y-48352174D01*
X119792175Y-48537273D01*
X119692000Y-48779115D01*
X110511779Y-48779115D01*
X110569976Y-45502664D01*
X110559197Y-45444105D01*
X110526484Y-45394353D01*
X110476992Y-45361249D01*
X110419703Y-45350000D01*
X89758000Y-45390887D01*
X89758000Y-45268500D01*
X89593500Y-45104000D01*
X88554000Y-45104000D01*
X88554000Y-45124000D01*
X88346000Y-45124000D01*
X88346000Y-45104000D01*
X87306500Y-45104000D01*
X87142000Y-45268500D01*
X87142000Y-45396064D01*
X85590775Y-45399134D01*
X85590775Y-44240000D01*
X85552424Y-44036182D01*
X85431968Y-43848988D01*
X85248173Y-43723406D01*
X85030000Y-43679225D01*
X83730000Y-43679225D01*
X83526182Y-43717576D01*
X83338988Y-43838032D01*
X83213406Y-44021827D01*
X83169225Y-44240000D01*
X83169225Y-45403926D01*
X80625000Y-45408961D01*
X80625000Y-41540000D01*
X83169225Y-41540000D01*
X83169225Y-43040000D01*
X83207576Y-43243818D01*
X83328032Y-43431012D01*
X83511827Y-43556594D01*
X83730000Y-43600775D01*
X85030000Y-43600775D01*
X85233818Y-43562424D01*
X85421012Y-43441968D01*
X85483851Y-43350000D01*
X87339467Y-43350000D01*
X87398032Y-43441012D01*
X87581827Y-43566594D01*
X87707286Y-43592000D01*
X87669115Y-43592000D01*
X87427273Y-43692175D01*
X87242174Y-43877273D01*
X87142000Y-44119116D01*
X87142000Y-44731500D01*
X87306500Y-44896000D01*
X88346000Y-44896000D01*
X88346000Y-44876000D01*
X88554000Y-44876000D01*
X88554000Y-44896000D01*
X89593500Y-44896000D01*
X89758000Y-44731500D01*
X89758000Y-44119116D01*
X89657826Y-43877273D01*
X89472727Y-43692175D01*
X89230885Y-43592000D01*
X89199781Y-43592000D01*
X89303818Y-43572424D01*
X89491012Y-43451968D01*
X89616594Y-43268173D01*
X89660775Y-43050000D01*
X89660775Y-41550000D01*
X89622424Y-41346182D01*
X89501968Y-41158988D01*
X89318173Y-41033406D01*
X89100000Y-40989225D01*
X87800000Y-40989225D01*
X87596182Y-41027576D01*
X87408988Y-41148032D01*
X87339316Y-41250000D01*
X85496967Y-41250000D01*
X85431968Y-41148988D01*
X85248173Y-41023406D01*
X85030000Y-40979225D01*
X83730000Y-40979225D01*
X83526182Y-41017576D01*
X83338988Y-41138032D01*
X83213406Y-41321827D01*
X83169225Y-41540000D01*
X80625000Y-41540000D01*
X80625000Y-24904085D01*
X96456073Y-24904085D01*
X96677187Y-25437918D01*
X97128349Y-25910228D01*
X97725914Y-26173934D01*
X97986000Y-26046273D01*
X97986000Y-24644000D01*
X96584087Y-24644000D01*
X96456073Y-24904085D01*
X80625000Y-24904085D01*
X80625000Y-24175915D01*
X96456073Y-24175915D01*
X96584087Y-24436000D01*
X97986000Y-24436000D01*
X97986000Y-23033727D01*
X97725914Y-22906066D01*
X97128349Y-23169772D01*
X96677187Y-23642082D01*
X96456073Y-24175915D01*
X80625000Y-24175915D01*
X80625000Y-22625000D01*
X132250076Y-22625000D01*
X131395076Y-23480000D01*
X131395076Y-23480000D01*
G37*
X131395076Y-23480000D02*
X130601780Y-23480000D01*
X130218655Y-23224004D01*
X129677694Y-23116400D01*
X129622306Y-23116400D01*
X129081345Y-23224004D01*
X128622740Y-23530434D01*
X128380000Y-23893720D01*
X128137260Y-23530434D01*
X127678655Y-23224004D01*
X127137694Y-23116400D01*
X127082306Y-23116400D01*
X126541345Y-23224004D01*
X126082740Y-23530434D01*
X125840000Y-23893720D01*
X125597260Y-23530434D01*
X125138655Y-23224004D01*
X124597694Y-23116400D01*
X124542306Y-23116400D01*
X124001345Y-23224004D01*
X123542740Y-23530434D01*
X123300000Y-23893720D01*
X123057260Y-23530434D01*
X122598655Y-23224004D01*
X122057694Y-23116400D01*
X122002306Y-23116400D01*
X121461345Y-23224004D01*
X121002740Y-23530434D01*
X120760000Y-23893720D01*
X120517260Y-23530434D01*
X120058655Y-23224004D01*
X119517694Y-23116400D01*
X119462306Y-23116400D01*
X118921345Y-23224004D01*
X118462740Y-23530434D01*
X118329394Y-23730000D01*
X118110606Y-23730000D01*
X117977260Y-23530434D01*
X117518655Y-23224004D01*
X116977694Y-23116400D01*
X116922306Y-23116400D01*
X116381345Y-23224004D01*
X115922740Y-23530434D01*
X115789394Y-23730000D01*
X115570606Y-23730000D01*
X115437260Y-23530434D01*
X114978655Y-23224004D01*
X114437694Y-23116400D01*
X114382306Y-23116400D01*
X113841345Y-23224004D01*
X113382740Y-23530434D01*
X113140000Y-23893720D01*
X112897260Y-23530434D01*
X112438655Y-23224004D01*
X111897694Y-23116400D01*
X111842306Y-23116400D01*
X111301345Y-23224004D01*
X110842740Y-23530434D01*
X110600000Y-23893720D01*
X110357260Y-23530434D01*
X109898655Y-23224004D01*
X109357694Y-23116400D01*
X109302306Y-23116400D01*
X108761345Y-23224004D01*
X108308031Y-23526899D01*
X108211425Y-23293673D01*
X108026327Y-23108574D01*
X107784484Y-23008400D01*
X107058500Y-23008400D01*
X106894000Y-23172900D01*
X106894000Y-24426000D01*
X106914000Y-24426000D01*
X106914000Y-24634000D01*
X106894000Y-24634000D01*
X106894000Y-26966000D01*
X106914000Y-26966000D01*
X106914000Y-27174000D01*
X106894000Y-27174000D01*
X106894000Y-28423549D01*
X107130195Y-28553090D01*
X107671853Y-28310010D01*
X108079257Y-27878149D01*
X108115834Y-27789841D01*
X108302740Y-28069566D01*
X108761345Y-28375996D01*
X109302306Y-28483600D01*
X109357694Y-28483600D01*
X109898655Y-28375996D01*
X110357260Y-28069566D01*
X110600000Y-27706280D01*
X110842740Y-28069566D01*
X111301345Y-28375996D01*
X111842306Y-28483600D01*
X111897694Y-28483600D01*
X112438655Y-28375996D01*
X112897260Y-28069566D01*
X113140000Y-27706280D01*
X113382740Y-28069566D01*
X113841345Y-28375996D01*
X114382306Y-28483600D01*
X114437694Y-28483600D01*
X114978655Y-28375996D01*
X115437260Y-28069566D01*
X115570606Y-27870000D01*
X115789394Y-27870000D01*
X115922740Y-28069566D01*
X116381345Y-28375996D01*
X116922306Y-28483600D01*
X116977694Y-28483600D01*
X117518655Y-28375996D01*
X117977260Y-28069566D01*
X118110606Y-27870000D01*
X118329394Y-27870000D01*
X118462740Y-28069566D01*
X118715000Y-28238121D01*
X118715000Y-29780000D01*
X118773993Y-30076580D01*
X118941992Y-30328008D01*
X119298984Y-30685000D01*
X104951016Y-30685000D01*
X101676210Y-27410194D01*
X105306917Y-27410194D01*
X105500743Y-27878149D01*
X105908147Y-28310010D01*
X106449805Y-28553090D01*
X106686000Y-28423549D01*
X106686000Y-27174000D01*
X105436891Y-27174000D01*
X105306917Y-27410194D01*
X101676210Y-27410194D01*
X101405000Y-27138984D01*
X101405000Y-26116775D01*
X101646000Y-26116775D01*
X101849818Y-26078424D01*
X102037012Y-25957968D01*
X102162594Y-25774173D01*
X102206775Y-25556000D01*
X102206775Y-24798500D01*
X105268400Y-24798500D01*
X105268400Y-25524485D01*
X105368575Y-25766327D01*
X105553673Y-25951426D01*
X105726180Y-26022880D01*
X105500743Y-26261851D01*
X105306917Y-26729806D01*
X105436891Y-26966000D01*
X106686000Y-26966000D01*
X106686000Y-24634000D01*
X105432900Y-24634000D01*
X105268400Y-24798500D01*
X102206775Y-24798500D01*
X102206775Y-23535515D01*
X105268400Y-23535515D01*
X105268400Y-24261500D01*
X105432900Y-24426000D01*
X106686000Y-24426000D01*
X106686000Y-23172900D01*
X106521500Y-23008400D01*
X105795516Y-23008400D01*
X105553673Y-23108574D01*
X105368575Y-23293673D01*
X105268400Y-23535515D01*
X102206775Y-23535515D01*
X102206775Y-23524000D01*
X102168424Y-23320182D01*
X102047968Y-23132988D01*
X101864173Y-23007406D01*
X101646000Y-22963225D01*
X99614000Y-22963225D01*
X99410182Y-23001576D01*
X99222988Y-23122032D01*
X99132522Y-23254434D01*
X99051651Y-23169772D01*
X98454086Y-22906066D01*
X98194000Y-23033727D01*
X98194000Y-24436000D01*
X98214000Y-24436000D01*
X98214000Y-24644000D01*
X98194000Y-24644000D01*
X98194000Y-26046273D01*
X98454086Y-26173934D01*
X99051651Y-25910228D01*
X99133336Y-25824714D01*
X99212032Y-25947012D01*
X99395827Y-26072594D01*
X99614000Y-26116775D01*
X99855000Y-26116775D01*
X99855000Y-27460000D01*
X99913993Y-27756580D01*
X100081992Y-28008008D01*
X104081992Y-32008008D01*
X104333420Y-32176007D01*
X104630000Y-32235000D01*
X125588984Y-32235000D01*
X140051191Y-46697206D01*
X137154933Y-46702323D01*
X137246594Y-46568173D01*
X137290775Y-46350000D01*
X137290775Y-44850000D01*
X137252424Y-44646182D01*
X137131968Y-44458988D01*
X136948173Y-44333406D01*
X136730000Y-44289225D01*
X135430000Y-44289225D01*
X135226182Y-44327576D01*
X135038988Y-44448032D01*
X134996647Y-44510000D01*
X134720533Y-44510000D01*
X134661968Y-44418988D01*
X134478173Y-44293406D01*
X134260000Y-44249225D01*
X132960000Y-44249225D01*
X132756182Y-44287576D01*
X132568988Y-44408032D01*
X132443406Y-44591827D01*
X132399225Y-44810000D01*
X132399225Y-46310000D01*
X132437576Y-46513818D01*
X132558032Y-46701012D01*
X132566719Y-46706947D01*
X132011875Y-46700012D01*
X131953373Y-46711099D01*
X131903795Y-46744074D01*
X131870951Y-46793739D01*
X131860355Y-46860320D01*
X131929376Y-47861125D01*
X122128946Y-47930004D01*
X122070672Y-47942231D01*
X122021746Y-47976168D01*
X121989879Y-48026465D01*
X121980000Y-48080000D01*
X121980000Y-48252000D01*
X121368500Y-48252000D01*
X121204000Y-48416500D01*
X121204000Y-49456000D01*
X121224000Y-49456000D01*
X121224000Y-49664000D01*
X121204000Y-49664000D01*
X121204000Y-50703500D01*
X121308500Y-50808000D01*
X121296500Y-50808000D01*
X121132000Y-50972500D01*
X121132000Y-51870000D01*
X121152000Y-51870000D01*
X121152000Y-52078000D01*
X121132000Y-52078000D01*
X121132000Y-52098000D01*
X120924000Y-52098000D01*
X120924000Y-52078000D01*
X120904000Y-52078000D01*
X120904000Y-51870000D01*
X120924000Y-51870000D01*
X120924000Y-50972500D01*
X120819500Y-50868000D01*
X120831500Y-50868000D01*
X120996000Y-50703500D01*
X120996000Y-49664000D01*
X119856500Y-49664000D01*
X119692000Y-49828500D01*
X119692000Y-50340885D01*
X119792175Y-50582727D01*
X119977273Y-50767826D01*
X120074262Y-50808000D01*
X119881115Y-50808000D01*
X119639273Y-50908175D01*
X119454174Y-51093273D01*
X119354000Y-51335116D01*
X119354000Y-51705500D01*
X119518498Y-51869998D01*
X119470550Y-51869998D01*
X119402727Y-51802175D01*
X119160885Y-51702000D01*
X118648500Y-51702000D01*
X118615194Y-51735306D01*
X118659583Y-51141176D01*
X118652146Y-51082099D01*
X118622311Y-51030570D01*
X118574779Y-50994709D01*
X118510000Y-50980000D01*
X110472688Y-50980000D01*
X110511779Y-48779115D01*
X119692000Y-48779115D01*
X119692000Y-49291500D01*
X119856500Y-49456000D01*
X120996000Y-49456000D01*
X120996000Y-48416500D01*
X120831500Y-48252000D01*
X120219116Y-48252000D01*
X119977273Y-48352174D01*
X119792175Y-48537273D01*
X119692000Y-48779115D01*
X110511779Y-48779115D01*
X110569976Y-45502664D01*
X110559197Y-45444105D01*
X110526484Y-45394353D01*
X110476992Y-45361249D01*
X110419703Y-45350000D01*
X89758000Y-45390887D01*
X89758000Y-45268500D01*
X89593500Y-45104000D01*
X88554000Y-45104000D01*
X88554000Y-45124000D01*
X88346000Y-45124000D01*
X88346000Y-45104000D01*
X87306500Y-45104000D01*
X87142000Y-45268500D01*
X87142000Y-45396064D01*
X85590775Y-45399134D01*
X85590775Y-44240000D01*
X85552424Y-44036182D01*
X85431968Y-43848988D01*
X85248173Y-43723406D01*
X85030000Y-43679225D01*
X83730000Y-43679225D01*
X83526182Y-43717576D01*
X83338988Y-43838032D01*
X83213406Y-44021827D01*
X83169225Y-44240000D01*
X83169225Y-45403926D01*
X80625000Y-45408961D01*
X80625000Y-41540000D01*
X83169225Y-41540000D01*
X83169225Y-43040000D01*
X83207576Y-43243818D01*
X83328032Y-43431012D01*
X83511827Y-43556594D01*
X83730000Y-43600775D01*
X85030000Y-43600775D01*
X85233818Y-43562424D01*
X85421012Y-43441968D01*
X85483851Y-43350000D01*
X87339467Y-43350000D01*
X87398032Y-43441012D01*
X87581827Y-43566594D01*
X87707286Y-43592000D01*
X87669115Y-43592000D01*
X87427273Y-43692175D01*
X87242174Y-43877273D01*
X87142000Y-44119116D01*
X87142000Y-44731500D01*
X87306500Y-44896000D01*
X88346000Y-44896000D01*
X88346000Y-44876000D01*
X88554000Y-44876000D01*
X88554000Y-44896000D01*
X89593500Y-44896000D01*
X89758000Y-44731500D01*
X89758000Y-44119116D01*
X89657826Y-43877273D01*
X89472727Y-43692175D01*
X89230885Y-43592000D01*
X89199781Y-43592000D01*
X89303818Y-43572424D01*
X89491012Y-43451968D01*
X89616594Y-43268173D01*
X89660775Y-43050000D01*
X89660775Y-41550000D01*
X89622424Y-41346182D01*
X89501968Y-41158988D01*
X89318173Y-41033406D01*
X89100000Y-40989225D01*
X87800000Y-40989225D01*
X87596182Y-41027576D01*
X87408988Y-41148032D01*
X87339316Y-41250000D01*
X85496967Y-41250000D01*
X85431968Y-41148988D01*
X85248173Y-41023406D01*
X85030000Y-40979225D01*
X83730000Y-40979225D01*
X83526182Y-41017576D01*
X83338988Y-41138032D01*
X83213406Y-41321827D01*
X83169225Y-41540000D01*
X80625000Y-41540000D01*
X80625000Y-24904085D01*
X96456073Y-24904085D01*
X96677187Y-25437918D01*
X97128349Y-25910228D01*
X97725914Y-26173934D01*
X97986000Y-26046273D01*
X97986000Y-24644000D01*
X96584087Y-24644000D01*
X96456073Y-24904085D01*
X80625000Y-24904085D01*
X80625000Y-24175915D01*
X96456073Y-24175915D01*
X96584087Y-24436000D01*
X97986000Y-24436000D01*
X97986000Y-23033727D01*
X97725914Y-22906066D01*
X97128349Y-23169772D01*
X96677187Y-23642082D01*
X96456073Y-24175915D01*
X80625000Y-24175915D01*
X80625000Y-22625000D01*
X132250076Y-22625000D01*
X131395076Y-23480000D01*
G36*
X156815625Y-24206400D02*
X156815625Y-24292750D01*
X156623853Y-24330896D01*
X156364315Y-24504314D01*
X155724315Y-25144315D01*
X155550896Y-25403853D01*
X155490000Y-25710000D01*
X155490000Y-48638630D01*
X152260775Y-51867855D01*
X152260775Y-51120000D01*
X152222424Y-50916182D01*
X152101968Y-50728988D01*
X151940619Y-50618743D01*
X152091012Y-50521968D01*
X152216594Y-50338173D01*
X152260775Y-50120000D01*
X152260775Y-49120000D01*
X152250000Y-49062736D01*
X152250000Y-47641861D01*
X152270074Y-47611818D01*
X152350000Y-47210000D01*
X152270074Y-46808183D01*
X152042462Y-46467538D01*
X151701817Y-46239926D01*
X151300000Y-46160000D01*
X150898182Y-46239926D01*
X150557538Y-46467538D01*
X150457538Y-46567538D01*
X150229926Y-46908182D01*
X150150000Y-47310000D01*
X150150000Y-49066791D01*
X150139225Y-49120000D01*
X150139225Y-49487854D01*
X148530000Y-47878630D01*
X148530000Y-44612707D01*
X148671012Y-44521968D01*
X148796594Y-44338173D01*
X148840775Y-44120000D01*
X148840775Y-43488500D01*
X150222000Y-43488500D01*
X150222000Y-44250884D01*
X150322174Y-44492727D01*
X150507273Y-44677825D01*
X150749115Y-44778000D01*
X151161500Y-44778000D01*
X151326000Y-44613500D01*
X151326000Y-43324000D01*
X151534000Y-43324000D01*
X151534000Y-44613500D01*
X151698500Y-44778000D01*
X152110885Y-44778000D01*
X152352727Y-44677825D01*
X152537826Y-44492727D01*
X152638000Y-44250884D01*
X152638000Y-43488500D01*
X152473500Y-43324000D01*
X151534000Y-43324000D01*
X151326000Y-43324000D01*
X150386500Y-43324000D01*
X150222000Y-43488500D01*
X148840775Y-43488500D01*
X148840775Y-42320000D01*
X148816148Y-42189116D01*
X150222000Y-42189116D01*
X150222000Y-42951500D01*
X150386500Y-43116000D01*
X151326000Y-43116000D01*
X151326000Y-41826500D01*
X151534000Y-41826500D01*
X151534000Y-43116000D01*
X152473500Y-43116000D01*
X152638000Y-42951500D01*
X152638000Y-42189116D01*
X152537826Y-41947273D01*
X152352727Y-41762175D01*
X152110885Y-41662000D01*
X151698500Y-41662000D01*
X151534000Y-41826500D01*
X151326000Y-41826500D01*
X151161500Y-41662000D01*
X150749115Y-41662000D01*
X150507273Y-41762175D01*
X150322174Y-41947273D01*
X150222000Y-42189116D01*
X148816148Y-42189116D01*
X148802424Y-42116182D01*
X148780000Y-42081334D01*
X148780000Y-38162459D01*
X148796594Y-38138173D01*
X148840775Y-37920000D01*
X148840775Y-37288500D01*
X150222000Y-37288500D01*
X150222000Y-38050884D01*
X150322174Y-38292727D01*
X150507273Y-38477825D01*
X150749115Y-38578000D01*
X151161500Y-38578000D01*
X151326000Y-38413500D01*
X151326000Y-37124000D01*
X151534000Y-37124000D01*
X151534000Y-38413500D01*
X151698500Y-38578000D01*
X152110885Y-38578000D01*
X152352727Y-38477825D01*
X152537826Y-38292727D01*
X152638000Y-38050884D01*
X152638000Y-37288500D01*
X152473500Y-37124000D01*
X151534000Y-37124000D01*
X151326000Y-37124000D01*
X150386500Y-37124000D01*
X150222000Y-37288500D01*
X148840775Y-37288500D01*
X148840775Y-36120000D01*
X148816148Y-35989116D01*
X150222000Y-35989116D01*
X150222000Y-36751500D01*
X150386500Y-36916000D01*
X151326000Y-36916000D01*
X151326000Y-35626500D01*
X151534000Y-35626500D01*
X151534000Y-36916000D01*
X152473500Y-36916000D01*
X152638000Y-36751500D01*
X152638000Y-35989116D01*
X152537826Y-35747273D01*
X152352727Y-35562175D01*
X152110885Y-35462000D01*
X151698500Y-35462000D01*
X151534000Y-35626500D01*
X151326000Y-35626500D01*
X151161500Y-35462000D01*
X150749115Y-35462000D01*
X150507273Y-35562175D01*
X150322174Y-35747273D01*
X150222000Y-35989116D01*
X148816148Y-35989116D01*
X148802424Y-35916182D01*
X148780000Y-35881334D01*
X148780000Y-34400775D01*
X148790000Y-34400775D01*
X148993818Y-34362424D01*
X149181012Y-34241968D01*
X149306594Y-34058173D01*
X149350775Y-33840000D01*
X149350775Y-32540000D01*
X149312424Y-32336182D01*
X149191968Y-32148988D01*
X149130000Y-32106647D01*
X149130000Y-28905533D01*
X149350000Y-28576280D01*
X149570000Y-28905533D01*
X149570000Y-32180457D01*
X149473406Y-32321827D01*
X149429225Y-32540000D01*
X149429225Y-33840000D01*
X149467576Y-34043818D01*
X149588032Y-34231012D01*
X149771827Y-34356594D01*
X149990000Y-34400775D01*
X151490000Y-34400775D01*
X151693818Y-34362424D01*
X151881012Y-34241968D01*
X152006594Y-34058173D01*
X152050775Y-33840000D01*
X152050775Y-32540000D01*
X152012424Y-32336182D01*
X151891968Y-32148988D01*
X151708173Y-32023406D01*
X151670000Y-32015676D01*
X151670000Y-28905533D01*
X151953690Y-28480961D01*
X152061294Y-27940000D01*
X151953690Y-27399039D01*
X151670000Y-26974467D01*
X151670000Y-26365533D01*
X151953690Y-25940961D01*
X152061294Y-25400000D01*
X151953690Y-24859039D01*
X151647260Y-24400434D01*
X151242527Y-24130000D01*
X156831096Y-24130000D01*
X156815625Y-24206400D01*
X156815625Y-24206400D01*
G37*
X156815625Y-24206400D02*
X156815625Y-24292750D01*
X156623853Y-24330896D01*
X156364315Y-24504314D01*
X155724315Y-25144315D01*
X155550896Y-25403853D01*
X155490000Y-25710000D01*
X155490000Y-48638630D01*
X152260775Y-51867855D01*
X152260775Y-51120000D01*
X152222424Y-50916182D01*
X152101968Y-50728988D01*
X151940619Y-50618743D01*
X152091012Y-50521968D01*
X152216594Y-50338173D01*
X152260775Y-50120000D01*
X152260775Y-49120000D01*
X152250000Y-49062736D01*
X152250000Y-47641861D01*
X152270074Y-47611818D01*
X152350000Y-47210000D01*
X152270074Y-46808183D01*
X152042462Y-46467538D01*
X151701817Y-46239926D01*
X151300000Y-46160000D01*
X150898182Y-46239926D01*
X150557538Y-46467538D01*
X150457538Y-46567538D01*
X150229926Y-46908182D01*
X150150000Y-47310000D01*
X150150000Y-49066791D01*
X150139225Y-49120000D01*
X150139225Y-49487854D01*
X148530000Y-47878630D01*
X148530000Y-44612707D01*
X148671012Y-44521968D01*
X148796594Y-44338173D01*
X148840775Y-44120000D01*
X148840775Y-43488500D01*
X150222000Y-43488500D01*
X150222000Y-44250884D01*
X150322174Y-44492727D01*
X150507273Y-44677825D01*
X150749115Y-44778000D01*
X151161500Y-44778000D01*
X151326000Y-44613500D01*
X151326000Y-43324000D01*
X151534000Y-43324000D01*
X151534000Y-44613500D01*
X151698500Y-44778000D01*
X152110885Y-44778000D01*
X152352727Y-44677825D01*
X152537826Y-44492727D01*
X152638000Y-44250884D01*
X152638000Y-43488500D01*
X152473500Y-43324000D01*
X151534000Y-43324000D01*
X151326000Y-43324000D01*
X150386500Y-43324000D01*
X150222000Y-43488500D01*
X148840775Y-43488500D01*
X148840775Y-42320000D01*
X148816148Y-42189116D01*
X150222000Y-42189116D01*
X150222000Y-42951500D01*
X150386500Y-43116000D01*
X151326000Y-43116000D01*
X151326000Y-41826500D01*
X151534000Y-41826500D01*
X151534000Y-43116000D01*
X152473500Y-43116000D01*
X152638000Y-42951500D01*
X152638000Y-42189116D01*
X152537826Y-41947273D01*
X152352727Y-41762175D01*
X152110885Y-41662000D01*
X151698500Y-41662000D01*
X151534000Y-41826500D01*
X151326000Y-41826500D01*
X151161500Y-41662000D01*
X150749115Y-41662000D01*
X150507273Y-41762175D01*
X150322174Y-41947273D01*
X150222000Y-42189116D01*
X148816148Y-42189116D01*
X148802424Y-42116182D01*
X148780000Y-42081334D01*
X148780000Y-38162459D01*
X148796594Y-38138173D01*
X148840775Y-37920000D01*
X148840775Y-37288500D01*
X150222000Y-37288500D01*
X150222000Y-38050884D01*
X150322174Y-38292727D01*
X150507273Y-38477825D01*
X150749115Y-38578000D01*
X151161500Y-38578000D01*
X151326000Y-38413500D01*
X151326000Y-37124000D01*
X151534000Y-37124000D01*
X151534000Y-38413500D01*
X151698500Y-38578000D01*
X152110885Y-38578000D01*
X152352727Y-38477825D01*
X152537826Y-38292727D01*
X152638000Y-38050884D01*
X152638000Y-37288500D01*
X152473500Y-37124000D01*
X151534000Y-37124000D01*
X151326000Y-37124000D01*
X150386500Y-37124000D01*
X150222000Y-37288500D01*
X148840775Y-37288500D01*
X148840775Y-36120000D01*
X148816148Y-35989116D01*
X150222000Y-35989116D01*
X150222000Y-36751500D01*
X150386500Y-36916000D01*
X151326000Y-36916000D01*
X151326000Y-35626500D01*
X151534000Y-35626500D01*
X151534000Y-36916000D01*
X152473500Y-36916000D01*
X152638000Y-36751500D01*
X152638000Y-35989116D01*
X152537826Y-35747273D01*
X152352727Y-35562175D01*
X152110885Y-35462000D01*
X151698500Y-35462000D01*
X151534000Y-35626500D01*
X151326000Y-35626500D01*
X151161500Y-35462000D01*
X150749115Y-35462000D01*
X150507273Y-35562175D01*
X150322174Y-35747273D01*
X150222000Y-35989116D01*
X148816148Y-35989116D01*
X148802424Y-35916182D01*
X148780000Y-35881334D01*
X148780000Y-34400775D01*
X148790000Y-34400775D01*
X148993818Y-34362424D01*
X149181012Y-34241968D01*
X149306594Y-34058173D01*
X149350775Y-33840000D01*
X149350775Y-32540000D01*
X149312424Y-32336182D01*
X149191968Y-32148988D01*
X149130000Y-32106647D01*
X149130000Y-28905533D01*
X149350000Y-28576280D01*
X149570000Y-28905533D01*
X149570000Y-32180457D01*
X149473406Y-32321827D01*
X149429225Y-32540000D01*
X149429225Y-33840000D01*
X149467576Y-34043818D01*
X149588032Y-34231012D01*
X149771827Y-34356594D01*
X149990000Y-34400775D01*
X151490000Y-34400775D01*
X151693818Y-34362424D01*
X151881012Y-34241968D01*
X152006594Y-34058173D01*
X152050775Y-33840000D01*
X152050775Y-32540000D01*
X152012424Y-32336182D01*
X151891968Y-32148988D01*
X151708173Y-32023406D01*
X151670000Y-32015676D01*
X151670000Y-28905533D01*
X151953690Y-28480961D01*
X152061294Y-27940000D01*
X151953690Y-27399039D01*
X151670000Y-26974467D01*
X151670000Y-26365533D01*
X151953690Y-25940961D01*
X152061294Y-25400000D01*
X151953690Y-24859039D01*
X151647260Y-24400434D01*
X151242527Y-24130000D01*
X156831096Y-24130000D01*
X156815625Y-24206400D01*
G36*
X177910000Y-25054924D02*
X177910000Y-33583388D01*
X177835996Y-33211345D01*
X177529566Y-32752740D01*
X177070961Y-32446310D01*
X176530000Y-32338706D01*
X175989039Y-32446310D01*
X175530434Y-32752740D01*
X175378584Y-32980000D01*
X175141416Y-32980000D01*
X174989566Y-32752740D01*
X174530961Y-32446310D01*
X173990000Y-32338706D01*
X173449039Y-32446310D01*
X172990434Y-32752740D01*
X172684004Y-33211345D01*
X172576400Y-33752306D01*
X172576400Y-33807694D01*
X172684004Y-34348655D01*
X172990434Y-34807260D01*
X173353720Y-35050000D01*
X172990434Y-35292740D01*
X172684004Y-35751345D01*
X172576400Y-36292306D01*
X172576400Y-36347694D01*
X172684004Y-36888655D01*
X172990434Y-37347260D01*
X173353720Y-37590000D01*
X173133723Y-37736997D01*
X172575000Y-37178274D01*
X172575000Y-25869667D01*
X172599852Y-25809817D01*
X172600147Y-25471666D01*
X172471015Y-25159143D01*
X172232115Y-24919826D01*
X171919817Y-24790148D01*
X171581666Y-24789853D01*
X171269143Y-24918985D01*
X171029826Y-25157885D01*
X170900148Y-25470183D01*
X170899853Y-25808334D01*
X170925000Y-25869194D01*
X170925000Y-37520000D01*
X170987799Y-37835714D01*
X171166637Y-38103363D01*
X172506637Y-39443363D01*
X172774286Y-39622201D01*
X172819312Y-39631157D01*
X172990434Y-39887260D01*
X173190000Y-40020606D01*
X173190000Y-40239394D01*
X172990434Y-40372740D01*
X172684004Y-40831345D01*
X172576400Y-41372306D01*
X172576400Y-41427694D01*
X172684004Y-41968655D01*
X172990434Y-42427260D01*
X173353720Y-42670000D01*
X172990434Y-42912740D01*
X172684004Y-43371345D01*
X172576400Y-43912306D01*
X172576400Y-43967694D01*
X172684004Y-44508655D01*
X172990434Y-44967260D01*
X173353720Y-45210000D01*
X172990434Y-45452740D01*
X172838584Y-45680000D01*
X161290000Y-45680000D01*
X160988358Y-45740000D01*
X160983853Y-45740896D01*
X160724315Y-45914315D01*
X157770002Y-48868628D01*
X157770002Y-29211368D01*
X158000001Y-28981370D01*
X158212306Y-29023600D01*
X158267694Y-29023600D01*
X158808655Y-28915996D01*
X159267260Y-28609566D01*
X159400606Y-28410000D01*
X159619394Y-28410000D01*
X159752740Y-28609566D01*
X160211345Y-28915996D01*
X160752306Y-29023600D01*
X160807694Y-29023600D01*
X161348655Y-28915996D01*
X161807260Y-28609566D01*
X161940606Y-28410000D01*
X162159394Y-28410000D01*
X162292740Y-28609566D01*
X162751345Y-28915996D01*
X163292306Y-29023600D01*
X163347694Y-29023600D01*
X163888655Y-28915996D01*
X164347260Y-28609566D01*
X164480606Y-28410000D01*
X164699394Y-28410000D01*
X164832740Y-28609566D01*
X165291345Y-28915996D01*
X165832306Y-29023600D01*
X165887694Y-29023600D01*
X166428655Y-28915996D01*
X166887260Y-28609566D01*
X167193690Y-28150961D01*
X167301294Y-27610000D01*
X167193690Y-27069039D01*
X166887260Y-26610434D01*
X166482527Y-26340000D01*
X166887260Y-26069566D01*
X167193690Y-25610961D01*
X167301294Y-25070000D01*
X167193690Y-24529039D01*
X166927061Y-24130000D01*
X176985076Y-24130000D01*
X177910000Y-25054924D01*
X177910000Y-25054924D01*
G37*
X177910000Y-25054924D02*
X177910000Y-33583388D01*
X177835996Y-33211345D01*
X177529566Y-32752740D01*
X177070961Y-32446310D01*
X176530000Y-32338706D01*
X175989039Y-32446310D01*
X175530434Y-32752740D01*
X175378584Y-32980000D01*
X175141416Y-32980000D01*
X174989566Y-32752740D01*
X174530961Y-32446310D01*
X173990000Y-32338706D01*
X173449039Y-32446310D01*
X172990434Y-32752740D01*
X172684004Y-33211345D01*
X172576400Y-33752306D01*
X172576400Y-33807694D01*
X172684004Y-34348655D01*
X172990434Y-34807260D01*
X173353720Y-35050000D01*
X172990434Y-35292740D01*
X172684004Y-35751345D01*
X172576400Y-36292306D01*
X172576400Y-36347694D01*
X172684004Y-36888655D01*
X172990434Y-37347260D01*
X173353720Y-37590000D01*
X173133723Y-37736997D01*
X172575000Y-37178274D01*
X172575000Y-25869667D01*
X172599852Y-25809817D01*
X172600147Y-25471666D01*
X172471015Y-25159143D01*
X172232115Y-24919826D01*
X171919817Y-24790148D01*
X171581666Y-24789853D01*
X171269143Y-24918985D01*
X171029826Y-25157885D01*
X170900148Y-25470183D01*
X170899853Y-25808334D01*
X170925000Y-25869194D01*
X170925000Y-37520000D01*
X170987799Y-37835714D01*
X171166637Y-38103363D01*
X172506637Y-39443363D01*
X172774286Y-39622201D01*
X172819312Y-39631157D01*
X172990434Y-39887260D01*
X173190000Y-40020606D01*
X173190000Y-40239394D01*
X172990434Y-40372740D01*
X172684004Y-40831345D01*
X172576400Y-41372306D01*
X172576400Y-41427694D01*
X172684004Y-41968655D01*
X172990434Y-42427260D01*
X173353720Y-42670000D01*
X172990434Y-42912740D01*
X172684004Y-43371345D01*
X172576400Y-43912306D01*
X172576400Y-43967694D01*
X172684004Y-44508655D01*
X172990434Y-44967260D01*
X173353720Y-45210000D01*
X172990434Y-45452740D01*
X172838584Y-45680000D01*
X161290000Y-45680000D01*
X160988358Y-45740000D01*
X160983853Y-45740896D01*
X160724315Y-45914315D01*
X157770002Y-48868628D01*
X157770002Y-29211368D01*
X158000001Y-28981370D01*
X158212306Y-29023600D01*
X158267694Y-29023600D01*
X158808655Y-28915996D01*
X159267260Y-28609566D01*
X159400606Y-28410000D01*
X159619394Y-28410000D01*
X159752740Y-28609566D01*
X160211345Y-28915996D01*
X160752306Y-29023600D01*
X160807694Y-29023600D01*
X161348655Y-28915996D01*
X161807260Y-28609566D01*
X161940606Y-28410000D01*
X162159394Y-28410000D01*
X162292740Y-28609566D01*
X162751345Y-28915996D01*
X163292306Y-29023600D01*
X163347694Y-29023600D01*
X163888655Y-28915996D01*
X164347260Y-28609566D01*
X164480606Y-28410000D01*
X164699394Y-28410000D01*
X164832740Y-28609566D01*
X165291345Y-28915996D01*
X165832306Y-29023600D01*
X165887694Y-29023600D01*
X166428655Y-28915996D01*
X166887260Y-28609566D01*
X167193690Y-28150961D01*
X167301294Y-27610000D01*
X167193690Y-27069039D01*
X166887260Y-26610434D01*
X166482527Y-26340000D01*
X166887260Y-26069566D01*
X167193690Y-25610961D01*
X167301294Y-25070000D01*
X167193690Y-24529039D01*
X166927061Y-24130000D01*
X176985076Y-24130000D01*
X177910000Y-25054924D01*
G36*
X146825388Y-24134432D02*
X146699806Y-24318227D01*
X146655625Y-24536400D01*
X146655625Y-26263600D01*
X146693976Y-26467418D01*
X146814432Y-26654612D01*
X146998227Y-26780194D01*
X147030000Y-26786628D01*
X147030000Y-26974467D01*
X146746310Y-27399039D01*
X146638706Y-27940000D01*
X146746310Y-28480961D01*
X147030000Y-28905533D01*
X147030000Y-32053728D01*
X146898988Y-32138032D01*
X146773406Y-32321827D01*
X146729225Y-32540000D01*
X146729225Y-33252527D01*
X146680000Y-33500000D01*
X146680000Y-35877541D01*
X146663406Y-35901827D01*
X146619225Y-36120000D01*
X146619225Y-37920000D01*
X146657576Y-38123818D01*
X146680000Y-38158666D01*
X146680000Y-42077541D01*
X146663406Y-42101827D01*
X146619225Y-42320000D01*
X146619225Y-44120000D01*
X146657576Y-44323818D01*
X146778032Y-44511012D01*
X146930000Y-44614847D01*
X146930000Y-48210000D01*
X146971075Y-48416500D01*
X146986769Y-48495398D01*
X139690000Y-41198630D01*
X139690000Y-26625992D01*
X139889566Y-26492646D01*
X140095212Y-26184875D01*
X140105927Y-26217029D01*
X140495500Y-26666287D01*
X141027342Y-26932264D01*
X141089806Y-26945483D01*
X141326000Y-26815509D01*
X141326000Y-25414000D01*
X141534000Y-25414000D01*
X141534000Y-26815509D01*
X141770194Y-26945483D01*
X141832658Y-26932264D01*
X142364500Y-26666287D01*
X142754073Y-26217029D01*
X142942068Y-25652885D01*
X142788750Y-25414000D01*
X141534000Y-25414000D01*
X141326000Y-25414000D01*
X141306000Y-25414000D01*
X141306000Y-25206000D01*
X141326000Y-25206000D01*
X141326000Y-25186000D01*
X141534000Y-25186000D01*
X141534000Y-25206000D01*
X142788750Y-25206000D01*
X142942068Y-24967115D01*
X142754073Y-24402971D01*
X142517367Y-24130000D01*
X146832276Y-24130000D01*
X146825388Y-24134432D01*
X146825388Y-24134432D01*
G37*
X146825388Y-24134432D02*
X146699806Y-24318227D01*
X146655625Y-24536400D01*
X146655625Y-26263600D01*
X146693976Y-26467418D01*
X146814432Y-26654612D01*
X146998227Y-26780194D01*
X147030000Y-26786628D01*
X147030000Y-26974467D01*
X146746310Y-27399039D01*
X146638706Y-27940000D01*
X146746310Y-28480961D01*
X147030000Y-28905533D01*
X147030000Y-32053728D01*
X146898988Y-32138032D01*
X146773406Y-32321827D01*
X146729225Y-32540000D01*
X146729225Y-33252527D01*
X146680000Y-33500000D01*
X146680000Y-35877541D01*
X146663406Y-35901827D01*
X146619225Y-36120000D01*
X146619225Y-37920000D01*
X146657576Y-38123818D01*
X146680000Y-38158666D01*
X146680000Y-42077541D01*
X146663406Y-42101827D01*
X146619225Y-42320000D01*
X146619225Y-44120000D01*
X146657576Y-44323818D01*
X146778032Y-44511012D01*
X146930000Y-44614847D01*
X146930000Y-48210000D01*
X146971075Y-48416500D01*
X146986769Y-48495398D01*
X139690000Y-41198630D01*
X139690000Y-26625992D01*
X139889566Y-26492646D01*
X140095212Y-26184875D01*
X140105927Y-26217029D01*
X140495500Y-26666287D01*
X141027342Y-26932264D01*
X141089806Y-26945483D01*
X141326000Y-26815509D01*
X141326000Y-25414000D01*
X141534000Y-25414000D01*
X141534000Y-26815509D01*
X141770194Y-26945483D01*
X141832658Y-26932264D01*
X142364500Y-26666287D01*
X142754073Y-26217029D01*
X142942068Y-25652885D01*
X142788750Y-25414000D01*
X141534000Y-25414000D01*
X141326000Y-25414000D01*
X141306000Y-25414000D01*
X141306000Y-25206000D01*
X141326000Y-25206000D01*
X141326000Y-25186000D01*
X141534000Y-25186000D01*
X141534000Y-25206000D01*
X142788750Y-25206000D01*
X142942068Y-24967115D01*
X142754073Y-24402971D01*
X142517367Y-24130000D01*
X146832276Y-24130000D01*
X146825388Y-24134432D01*
M02*
