G04 #@! TF.FileFunction,Soldermask,Bot*
%FSLAX46Y46*%
G04 Gerber Fmt 4.6, Leading zero omitted, Abs format (unit mm)*
G04 Created by KiCad (PCBNEW 4.0.6) date 10/03/17 08:50:29*
%MOMM*%
%LPD*%
G01*
G04 APERTURE LIST*
%ADD10C,0.100000*%
%ADD11R,2.432000X2.432000*%
%ADD12O,2.432000X2.432000*%
%ADD13R,2.127200X2.127200*%
%ADD14O,2.127200X2.127200*%
%ADD15R,2.432000X2.127200*%
%ADD16O,2.432000X2.127200*%
%ADD17O,5.401260X3.399740*%
%ADD18O,3.399740X5.401260*%
%ADD19R,2.127200X2.432000*%
%ADD20O,2.127200X2.432000*%
%ADD21R,2.700000X2.700000*%
G04 APERTURE END LIST*
D10*
D11*
X108650000Y-54030000D03*
D12*
X111190000Y-54030000D03*
D11*
X131730000Y-54130000D03*
D12*
X134270000Y-54130000D03*
D13*
X173990000Y-56640000D03*
D14*
X176530000Y-56640000D03*
X173990000Y-54100000D03*
X176530000Y-54100000D03*
X173990000Y-51560000D03*
X176530000Y-51560000D03*
X173990000Y-49020000D03*
X176530000Y-49020000D03*
X173990000Y-46480000D03*
X176530000Y-46480000D03*
X173990000Y-43940000D03*
X176530000Y-43940000D03*
X173990000Y-41400000D03*
X176530000Y-41400000D03*
X173990000Y-38860000D03*
X176530000Y-38860000D03*
X173990000Y-36320000D03*
X176530000Y-36320000D03*
X173990000Y-33780000D03*
X176530000Y-33780000D03*
D13*
X176910000Y-80540000D03*
D14*
X174370000Y-80540000D03*
X176910000Y-83080000D03*
X174370000Y-83080000D03*
X176910000Y-85620000D03*
X174370000Y-85620000D03*
X176910000Y-88160000D03*
X174370000Y-88160000D03*
X176910000Y-90700000D03*
X174370000Y-90700000D03*
X176910000Y-93240000D03*
X174370000Y-93240000D03*
X176910000Y-95780000D03*
X174370000Y-95780000D03*
X176910000Y-98320000D03*
X174370000Y-98320000D03*
X176910000Y-100860000D03*
X174370000Y-100860000D03*
X176910000Y-103400000D03*
X174370000Y-103400000D03*
D13*
X106790000Y-24530000D03*
D14*
X106790000Y-27070000D03*
X109330000Y-24530000D03*
X109330000Y-27070000D03*
X111870000Y-24530000D03*
X111870000Y-27070000D03*
X114410000Y-24530000D03*
X114410000Y-27070000D03*
X116950000Y-24530000D03*
X116950000Y-27070000D03*
X119490000Y-24530000D03*
X119490000Y-27070000D03*
X122030000Y-24530000D03*
X122030000Y-27070000D03*
X124570000Y-24530000D03*
X124570000Y-27070000D03*
X127110000Y-24530000D03*
X127110000Y-27070000D03*
X129650000Y-24530000D03*
X129650000Y-27070000D03*
D15*
X176470000Y-74050000D03*
D16*
X176470000Y-71510000D03*
X176470000Y-68970000D03*
X176470000Y-66430000D03*
D13*
X158240000Y-25070000D03*
D14*
X158240000Y-27610000D03*
X160780000Y-25070000D03*
X160780000Y-27610000D03*
X163320000Y-25070000D03*
X163320000Y-27610000D03*
X165860000Y-25070000D03*
X165860000Y-27610000D03*
D17*
X86320000Y-53228800D03*
X86320000Y-57191200D03*
X86320000Y-49268940D03*
X86320000Y-61151060D03*
D18*
X166231200Y-115250000D03*
X162268800Y-115250000D03*
X170191060Y-115250000D03*
X158308940Y-115250000D03*
D19*
X136350000Y-25310000D03*
D20*
X138890000Y-25310000D03*
X141430000Y-25310000D03*
D11*
X100630000Y-24540000D03*
D12*
X98090000Y-24540000D03*
D13*
X148080000Y-25400000D03*
D14*
X148080000Y-27940000D03*
X150620000Y-25400000D03*
X150620000Y-27940000D03*
D21*
X84330000Y-70100000D03*
X86870000Y-70100000D03*
X89410000Y-70100000D03*
X91950000Y-70100000D03*
X94490000Y-70100000D03*
X97030000Y-70100000D03*
X99570000Y-70100000D03*
X102110000Y-70100000D03*
X104650000Y-70100000D03*
X107190000Y-70100000D03*
X109730000Y-70100000D03*
X112270000Y-70100000D03*
X114810000Y-70100000D03*
X117350000Y-70100000D03*
X119890000Y-70100000D03*
X122430000Y-70100000D03*
X124970000Y-70100000D03*
X127510000Y-70100000D03*
X130050000Y-70100000D03*
X132590000Y-70100000D03*
X135130000Y-70100000D03*
X137670000Y-70100000D03*
X140210000Y-70100000D03*
X142750000Y-70100000D03*
X145290000Y-70100000D03*
X84330000Y-72640000D03*
X86870000Y-72640000D03*
X89410000Y-72640000D03*
X91950000Y-72640000D03*
X94490000Y-72640000D03*
X97030000Y-72640000D03*
X99570000Y-72640000D03*
X102110000Y-72640000D03*
X104650000Y-72640000D03*
X107190000Y-72640000D03*
X109730000Y-72640000D03*
X112270000Y-72640000D03*
X114810000Y-72640000D03*
X117350000Y-72640000D03*
X119890000Y-72640000D03*
X122430000Y-72640000D03*
X124970000Y-72640000D03*
X127510000Y-72640000D03*
X130050000Y-72640000D03*
X132590000Y-72640000D03*
X135130000Y-72640000D03*
X137670000Y-72640000D03*
X140210000Y-72640000D03*
X142750000Y-72640000D03*
X145290000Y-72640000D03*
X84330000Y-75180000D03*
X86870000Y-75180000D03*
X89410000Y-75180000D03*
X91950000Y-75180000D03*
X94490000Y-75180000D03*
X97030000Y-75180000D03*
X99570000Y-75180000D03*
X102110000Y-75180000D03*
X104650000Y-75180000D03*
X107190000Y-75180000D03*
X109730000Y-75180000D03*
X112270000Y-75180000D03*
X114810000Y-75180000D03*
X117350000Y-75180000D03*
X119890000Y-75180000D03*
X122430000Y-75180000D03*
X124970000Y-75180000D03*
X127510000Y-75180000D03*
X130050000Y-75180000D03*
X132590000Y-75180000D03*
X135130000Y-75180000D03*
X137670000Y-75180000D03*
X140210000Y-75180000D03*
X142750000Y-75180000D03*
X145290000Y-75180000D03*
X84330000Y-77720000D03*
X86870000Y-77720000D03*
X89410000Y-77720000D03*
X91950000Y-77720000D03*
X94490000Y-77720000D03*
X97030000Y-77720000D03*
X99570000Y-77720000D03*
X102110000Y-77720000D03*
X104650000Y-77720000D03*
X107190000Y-77720000D03*
X109730000Y-77720000D03*
X112270000Y-77720000D03*
X114810000Y-77720000D03*
X117350000Y-77720000D03*
X119890000Y-77720000D03*
X122430000Y-77720000D03*
X124970000Y-77720000D03*
X127510000Y-77720000D03*
X130050000Y-77720000D03*
X132590000Y-77720000D03*
X135130000Y-77720000D03*
X137670000Y-77720000D03*
X140210000Y-77720000D03*
X142750000Y-77720000D03*
X145290000Y-77720000D03*
X84330000Y-80260000D03*
X86870000Y-80260000D03*
X89410000Y-80260000D03*
X91950000Y-80260000D03*
X94490000Y-80260000D03*
X97030000Y-80260000D03*
X99570000Y-80260000D03*
X102110000Y-80260000D03*
X104650000Y-80260000D03*
X107190000Y-80260000D03*
X109730000Y-80260000D03*
X112270000Y-80260000D03*
X114810000Y-80260000D03*
X117350000Y-80260000D03*
X119890000Y-80260000D03*
X122430000Y-80260000D03*
X124970000Y-80260000D03*
X127510000Y-80260000D03*
X130050000Y-80260000D03*
X132590000Y-80260000D03*
X135130000Y-80260000D03*
X137670000Y-80260000D03*
X140210000Y-80260000D03*
X142750000Y-80260000D03*
X145290000Y-80260000D03*
X84330000Y-82800000D03*
X86870000Y-82800000D03*
X89410000Y-82800000D03*
X91950000Y-82800000D03*
X94490000Y-82800000D03*
X97030000Y-82800000D03*
X99570000Y-82800000D03*
X102110000Y-82800000D03*
X104650000Y-82800000D03*
X107190000Y-82800000D03*
X109730000Y-82800000D03*
X112270000Y-82800000D03*
X114810000Y-82800000D03*
X117350000Y-82800000D03*
X119890000Y-82800000D03*
X122430000Y-82800000D03*
X124970000Y-82800000D03*
X127510000Y-82800000D03*
X130050000Y-82800000D03*
X132590000Y-82800000D03*
X135130000Y-82800000D03*
X137670000Y-82800000D03*
X140210000Y-82800000D03*
X142750000Y-82800000D03*
X145290000Y-82800000D03*
X84330000Y-85340000D03*
X86870000Y-85340000D03*
X89410000Y-85340000D03*
X91950000Y-85340000D03*
X94490000Y-85340000D03*
X97030000Y-85340000D03*
X99570000Y-85340000D03*
X102110000Y-85340000D03*
X104650000Y-85340000D03*
X107190000Y-85340000D03*
X109730000Y-85340000D03*
X112270000Y-85340000D03*
X114810000Y-85340000D03*
X117350000Y-85340000D03*
X119890000Y-85340000D03*
X122430000Y-85340000D03*
X124970000Y-85340000D03*
X127510000Y-85340000D03*
X130050000Y-85340000D03*
X132590000Y-85340000D03*
X135130000Y-85340000D03*
X137670000Y-85340000D03*
X140210000Y-85340000D03*
X142750000Y-85340000D03*
X145290000Y-85340000D03*
X84330000Y-87880000D03*
X86870000Y-87880000D03*
X89410000Y-87880000D03*
X91950000Y-87880000D03*
X94490000Y-87880000D03*
X97030000Y-87880000D03*
X99570000Y-87880000D03*
X102110000Y-87880000D03*
X104650000Y-87880000D03*
X107190000Y-87880000D03*
X109730000Y-87880000D03*
X112270000Y-87880000D03*
X114810000Y-87880000D03*
X117350000Y-87880000D03*
X119890000Y-87880000D03*
X122430000Y-87880000D03*
X124970000Y-87880000D03*
X127510000Y-87880000D03*
X130050000Y-87880000D03*
X132590000Y-87880000D03*
X135130000Y-87880000D03*
X137670000Y-87880000D03*
X140210000Y-87880000D03*
X142750000Y-87880000D03*
X145290000Y-87880000D03*
X84330000Y-90420000D03*
X86870000Y-90420000D03*
X89410000Y-90420000D03*
X91950000Y-90420000D03*
X94490000Y-90420000D03*
X97030000Y-90420000D03*
X99570000Y-90420000D03*
X102110000Y-90420000D03*
X104650000Y-90420000D03*
X107190000Y-90420000D03*
X109730000Y-90420000D03*
X112270000Y-90420000D03*
X114810000Y-90420000D03*
X117350000Y-90420000D03*
X119890000Y-90420000D03*
X122430000Y-90420000D03*
X124970000Y-90420000D03*
X127510000Y-90420000D03*
X130050000Y-90420000D03*
X132590000Y-90420000D03*
X135130000Y-90420000D03*
X137670000Y-90420000D03*
X140210000Y-90420000D03*
X142750000Y-90420000D03*
X145290000Y-90420000D03*
X84330000Y-92960000D03*
X86870000Y-92960000D03*
X89410000Y-92960000D03*
X91950000Y-92960000D03*
X94490000Y-92960000D03*
X97030000Y-92960000D03*
X99570000Y-92960000D03*
X102110000Y-92960000D03*
X104650000Y-92960000D03*
X107190000Y-92960000D03*
X109730000Y-92960000D03*
X112270000Y-92960000D03*
X114810000Y-92960000D03*
X117350000Y-92960000D03*
X119890000Y-92960000D03*
X122430000Y-92960000D03*
X124970000Y-92960000D03*
X127510000Y-92960000D03*
X130050000Y-92960000D03*
X132590000Y-92960000D03*
X135130000Y-92960000D03*
X137670000Y-92960000D03*
X140210000Y-92960000D03*
X142750000Y-92960000D03*
X145290000Y-92960000D03*
X84330000Y-95500000D03*
X86870000Y-95500000D03*
X89410000Y-95500000D03*
X91950000Y-95500000D03*
X94490000Y-95500000D03*
X97030000Y-95500000D03*
X99570000Y-95500000D03*
X102110000Y-95500000D03*
X104650000Y-95500000D03*
X107190000Y-95500000D03*
X109730000Y-95500000D03*
X112270000Y-95500000D03*
X114810000Y-95500000D03*
X117350000Y-95500000D03*
X119890000Y-95500000D03*
X122430000Y-95500000D03*
X124970000Y-95500000D03*
X127510000Y-95500000D03*
X130050000Y-95500000D03*
X132590000Y-95500000D03*
X135130000Y-95500000D03*
X137670000Y-95500000D03*
X140210000Y-95500000D03*
X142750000Y-95500000D03*
X145290000Y-95500000D03*
X84330000Y-98040000D03*
X86870000Y-98040000D03*
X89410000Y-98040000D03*
X91950000Y-98040000D03*
X94490000Y-98040000D03*
X97030000Y-98040000D03*
X99570000Y-98040000D03*
X102110000Y-98040000D03*
X104650000Y-98040000D03*
X107190000Y-98040000D03*
X109730000Y-98040000D03*
X112270000Y-98040000D03*
X114810000Y-98040000D03*
X117350000Y-98040000D03*
X119890000Y-98040000D03*
X122430000Y-98040000D03*
X124970000Y-98040000D03*
X127510000Y-98040000D03*
X130050000Y-98040000D03*
X132590000Y-98040000D03*
X135130000Y-98040000D03*
X137670000Y-98040000D03*
X140210000Y-98040000D03*
X142750000Y-98040000D03*
X145290000Y-98040000D03*
X84330000Y-100580000D03*
X86870000Y-100580000D03*
X89410000Y-100580000D03*
X91950000Y-100580000D03*
X94490000Y-100580000D03*
X97030000Y-100580000D03*
X99570000Y-100580000D03*
X102110000Y-100580000D03*
X104650000Y-100580000D03*
X107190000Y-100580000D03*
X109730000Y-100580000D03*
X112270000Y-100580000D03*
X114810000Y-100580000D03*
X117350000Y-100580000D03*
X119890000Y-100580000D03*
X122430000Y-100580000D03*
X124970000Y-100580000D03*
X127510000Y-100580000D03*
X130050000Y-100580000D03*
X132590000Y-100580000D03*
X135130000Y-100580000D03*
X137670000Y-100580000D03*
X140210000Y-100580000D03*
X142750000Y-100580000D03*
X145290000Y-100580000D03*
X84330000Y-103120000D03*
X86870000Y-103120000D03*
X89410000Y-103120000D03*
X91950000Y-103120000D03*
X94490000Y-103120000D03*
X97030000Y-103120000D03*
X99570000Y-103120000D03*
X102110000Y-103120000D03*
X104650000Y-103120000D03*
X107190000Y-103120000D03*
X109730000Y-103120000D03*
X112270000Y-103120000D03*
X114810000Y-103120000D03*
X117350000Y-103120000D03*
X119890000Y-103120000D03*
X122430000Y-103120000D03*
X124970000Y-103120000D03*
X127510000Y-103120000D03*
X130050000Y-103120000D03*
X132590000Y-103120000D03*
X135130000Y-103120000D03*
X137670000Y-103120000D03*
X140210000Y-103120000D03*
X142750000Y-103120000D03*
X145290000Y-103120000D03*
X84330000Y-105660000D03*
X86870000Y-105660000D03*
X89410000Y-105660000D03*
X91950000Y-105660000D03*
X94490000Y-105660000D03*
X97030000Y-105660000D03*
X99570000Y-105660000D03*
X102110000Y-105660000D03*
X104650000Y-105660000D03*
X107190000Y-105660000D03*
X109730000Y-105660000D03*
X112270000Y-105660000D03*
X114810000Y-105660000D03*
X117350000Y-105660000D03*
X119890000Y-105660000D03*
X122430000Y-105660000D03*
X124970000Y-105660000D03*
X127510000Y-105660000D03*
X130050000Y-105660000D03*
X132590000Y-105660000D03*
X135130000Y-105660000D03*
X137670000Y-105660000D03*
X140210000Y-105660000D03*
X142750000Y-105660000D03*
X145290000Y-105660000D03*
X84330000Y-108200000D03*
X86870000Y-108200000D03*
X89410000Y-108200000D03*
X91950000Y-108200000D03*
X94490000Y-108200000D03*
X97030000Y-108200000D03*
X99570000Y-108200000D03*
X102110000Y-108200000D03*
X104650000Y-108200000D03*
X107190000Y-108200000D03*
X109730000Y-108200000D03*
X112270000Y-108200000D03*
X114810000Y-108200000D03*
X117350000Y-108200000D03*
X119890000Y-108200000D03*
X122430000Y-108200000D03*
X124970000Y-108200000D03*
X127510000Y-108200000D03*
X130050000Y-108200000D03*
X132590000Y-108200000D03*
X135130000Y-108200000D03*
X137670000Y-108200000D03*
X140210000Y-108200000D03*
X142750000Y-108200000D03*
X145290000Y-108200000D03*
X84330000Y-110740000D03*
X86870000Y-110740000D03*
X89410000Y-110740000D03*
X91950000Y-110740000D03*
X94490000Y-110740000D03*
X97030000Y-110740000D03*
X99570000Y-110740000D03*
X102110000Y-110740000D03*
X104650000Y-110740000D03*
X107190000Y-110740000D03*
X109730000Y-110740000D03*
X112270000Y-110740000D03*
X114810000Y-110740000D03*
X117350000Y-110740000D03*
X119890000Y-110740000D03*
X122430000Y-110740000D03*
X124970000Y-110740000D03*
X127510000Y-110740000D03*
X130050000Y-110740000D03*
X132590000Y-110740000D03*
X135130000Y-110740000D03*
X137670000Y-110740000D03*
X140210000Y-110740000D03*
X142750000Y-110740000D03*
X145290000Y-110740000D03*
X84330000Y-113280000D03*
X86870000Y-113280000D03*
X89410000Y-113280000D03*
X91950000Y-113280000D03*
X94490000Y-113280000D03*
X97030000Y-113280000D03*
X99570000Y-113280000D03*
X102110000Y-113280000D03*
X104650000Y-113280000D03*
X107190000Y-113280000D03*
X109730000Y-113280000D03*
X112270000Y-113280000D03*
X114810000Y-113280000D03*
X117350000Y-113280000D03*
X119890000Y-113280000D03*
X122430000Y-113280000D03*
X124970000Y-113280000D03*
X127510000Y-113280000D03*
X130050000Y-113280000D03*
X132590000Y-113280000D03*
X135130000Y-113280000D03*
X137670000Y-113280000D03*
X140210000Y-113280000D03*
X142750000Y-113280000D03*
X145290000Y-113280000D03*
X84330000Y-115820000D03*
X86870000Y-115820000D03*
X89410000Y-115820000D03*
X91950000Y-115820000D03*
X94490000Y-115820000D03*
X97030000Y-115820000D03*
X99570000Y-115820000D03*
X102110000Y-115820000D03*
X104650000Y-115820000D03*
X107190000Y-115820000D03*
X109730000Y-115820000D03*
X112270000Y-115820000D03*
X114810000Y-115820000D03*
X117350000Y-115820000D03*
X119890000Y-115820000D03*
X122430000Y-115820000D03*
X124970000Y-115820000D03*
X127510000Y-115820000D03*
X130050000Y-115820000D03*
X132590000Y-115820000D03*
X135130000Y-115820000D03*
X137670000Y-115820000D03*
X140210000Y-115820000D03*
X142750000Y-115820000D03*
X145290000Y-115820000D03*
X84330000Y-118360000D03*
X86870000Y-118360000D03*
X89410000Y-118360000D03*
X91950000Y-118360000D03*
X94490000Y-118360000D03*
X97030000Y-118360000D03*
X99570000Y-118360000D03*
X102110000Y-118360000D03*
X104650000Y-118360000D03*
X107190000Y-118360000D03*
X109730000Y-118360000D03*
X112270000Y-118360000D03*
X114810000Y-118360000D03*
X117350000Y-118360000D03*
X119890000Y-118360000D03*
X122430000Y-118360000D03*
X124970000Y-118360000D03*
X127510000Y-118360000D03*
X130050000Y-118360000D03*
X132590000Y-118360000D03*
X135130000Y-118360000D03*
X137670000Y-118360000D03*
X140210000Y-118360000D03*
X142750000Y-118360000D03*
X145290000Y-118360000D03*
M02*
