G04 #@! TF.FileFunction,Copper,L2,Bot,Signal*
%FSLAX46Y46*%
G04 Gerber Fmt 4.6, Leading zero omitted, Abs format (unit mm)*
G04 Created by KiCad (PCBNEW 4.0.6) date 10/05/17 08:54:31*
%MOMM*%
%LPD*%
G01*
G04 APERTURE LIST*
%ADD10C,0.100000*%
%ADD11C,6.400000*%
%ADD12C,0.600000*%
%ADD13R,2.032000X2.032000*%
%ADD14O,2.032000X2.032000*%
%ADD15R,1.727200X1.727200*%
%ADD16O,1.727200X1.727200*%
%ADD17R,2.032000X1.727200*%
%ADD18O,2.032000X1.727200*%
%ADD19O,5.001260X2.999740*%
%ADD20O,2.999740X5.001260*%
%ADD21R,1.727200X2.032000*%
%ADD22O,1.727200X2.032000*%
%ADD23R,2.200000X2.200000*%
%ADD24C,0.800000*%
%ADD25C,0.700000*%
%ADD26C,0.500000*%
%ADD27C,0.450000*%
%ADD28C,1.000000*%
%ADD29C,2.000000*%
%ADD30C,0.300000*%
G04 APERTURE END LIST*
D10*
D11*
X175000000Y-117000000D03*
D12*
X177400000Y-117000000D03*
X176697056Y-118697056D03*
X175000000Y-119400000D03*
X173302944Y-118697056D03*
X172600000Y-117000000D03*
X173302944Y-115302944D03*
X175000000Y-114600000D03*
X176697056Y-115302944D03*
D11*
X85000000Y-27000000D03*
D12*
X87400000Y-27000000D03*
X86697056Y-28697056D03*
X85000000Y-29400000D03*
X83302944Y-28697056D03*
X82600000Y-27000000D03*
X83302944Y-25302944D03*
X85000000Y-24600000D03*
X86697056Y-25302944D03*
D13*
X108650000Y-54030000D03*
D14*
X111190000Y-54030000D03*
D13*
X131730000Y-54130000D03*
D14*
X134270000Y-54130000D03*
D15*
X173990000Y-56640000D03*
D16*
X176530000Y-56640000D03*
X173990000Y-54100000D03*
X176530000Y-54100000D03*
X173990000Y-51560000D03*
X176530000Y-51560000D03*
X173990000Y-49020000D03*
X176530000Y-49020000D03*
X173990000Y-46480000D03*
X176530000Y-46480000D03*
X173990000Y-43940000D03*
X176530000Y-43940000D03*
X173990000Y-41400000D03*
X176530000Y-41400000D03*
X173990000Y-38860000D03*
X176530000Y-38860000D03*
X173990000Y-36320000D03*
X176530000Y-36320000D03*
X173990000Y-33780000D03*
X176530000Y-33780000D03*
D15*
X176910000Y-80540000D03*
D16*
X174370000Y-80540000D03*
X176910000Y-83080000D03*
X174370000Y-83080000D03*
X176910000Y-85620000D03*
X174370000Y-85620000D03*
X176910000Y-88160000D03*
X174370000Y-88160000D03*
X176910000Y-90700000D03*
X174370000Y-90700000D03*
X176910000Y-93240000D03*
X174370000Y-93240000D03*
X176910000Y-95780000D03*
X174370000Y-95780000D03*
X176910000Y-98320000D03*
X174370000Y-98320000D03*
X176910000Y-100860000D03*
X174370000Y-100860000D03*
X176910000Y-103400000D03*
X174370000Y-103400000D03*
D15*
X106790000Y-24530000D03*
D16*
X106790000Y-27070000D03*
X109330000Y-24530000D03*
X109330000Y-27070000D03*
X111870000Y-24530000D03*
X111870000Y-27070000D03*
X114410000Y-24530000D03*
X114410000Y-27070000D03*
X116950000Y-24530000D03*
X116950000Y-27070000D03*
X119490000Y-24530000D03*
X119490000Y-27070000D03*
X122030000Y-24530000D03*
X122030000Y-27070000D03*
X124570000Y-24530000D03*
X124570000Y-27070000D03*
X127110000Y-24530000D03*
X127110000Y-27070000D03*
X129650000Y-24530000D03*
X129650000Y-27070000D03*
D17*
X176470000Y-74050000D03*
D18*
X176470000Y-71510000D03*
X176470000Y-68970000D03*
X176470000Y-66430000D03*
D15*
X158240000Y-25070000D03*
D16*
X158240000Y-27610000D03*
X160780000Y-25070000D03*
X160780000Y-27610000D03*
X163320000Y-25070000D03*
X163320000Y-27610000D03*
X165860000Y-25070000D03*
X165860000Y-27610000D03*
D19*
X86320000Y-53228800D03*
X86320000Y-57191200D03*
X86320000Y-49268940D03*
X86320000Y-61151060D03*
D20*
X162581200Y-115500000D03*
X158618800Y-115500000D03*
X166541060Y-115500000D03*
X154658940Y-115500000D03*
D21*
X136350000Y-25310000D03*
D22*
X138890000Y-25310000D03*
X141430000Y-25310000D03*
D13*
X100630000Y-24540000D03*
D14*
X98090000Y-24540000D03*
D15*
X148080000Y-25400000D03*
D16*
X148080000Y-27940000D03*
X150620000Y-25400000D03*
X150620000Y-27940000D03*
D11*
X85000000Y-117000000D03*
D12*
X87400000Y-117000000D03*
X86697056Y-118697056D03*
X85000000Y-119400000D03*
X83302944Y-118697056D03*
X82600000Y-117000000D03*
X83302944Y-115302944D03*
X85000000Y-114600000D03*
X86697056Y-115302944D03*
D11*
X175000000Y-27000000D03*
D12*
X177400000Y-27000000D03*
X176697056Y-28697056D03*
X175000000Y-29400000D03*
X173302944Y-28697056D03*
X172600000Y-27000000D03*
X173302944Y-25302944D03*
X175000000Y-24600000D03*
X176697056Y-25302944D03*
D23*
X89810000Y-73760000D03*
X92350000Y-73760000D03*
X94890000Y-73760000D03*
X97430000Y-73760000D03*
X99970000Y-73760000D03*
X102510000Y-73760000D03*
X105050000Y-73760000D03*
X107590000Y-73760000D03*
X110130000Y-73760000D03*
X112670000Y-73760000D03*
X115210000Y-73760000D03*
X117750000Y-73760000D03*
X120290000Y-73760000D03*
X122830000Y-73760000D03*
X125370000Y-73760000D03*
X127910000Y-73760000D03*
X130450000Y-73760000D03*
X132990000Y-73760000D03*
X135530000Y-73760000D03*
X138070000Y-73760000D03*
X140610000Y-73760000D03*
X143150000Y-73760000D03*
X89810000Y-76300000D03*
X92350000Y-76300000D03*
X94890000Y-76300000D03*
X97430000Y-76300000D03*
X99970000Y-76300000D03*
X102510000Y-76300000D03*
X105050000Y-76300000D03*
X107590000Y-76300000D03*
X110130000Y-76300000D03*
X112670000Y-76300000D03*
X115210000Y-76300000D03*
X117750000Y-76300000D03*
X120290000Y-76300000D03*
X122830000Y-76300000D03*
X125370000Y-76300000D03*
X127910000Y-76300000D03*
X130450000Y-76300000D03*
X132990000Y-76300000D03*
X135530000Y-76300000D03*
X138070000Y-76300000D03*
X140610000Y-76300000D03*
X143150000Y-76300000D03*
X89810000Y-78840000D03*
X92350000Y-78840000D03*
X94890000Y-78840000D03*
X97430000Y-78840000D03*
X99970000Y-78840000D03*
X102510000Y-78840000D03*
X105050000Y-78840000D03*
X107590000Y-78840000D03*
X110130000Y-78840000D03*
X112670000Y-78840000D03*
X115210000Y-78840000D03*
X117750000Y-78840000D03*
X120290000Y-78840000D03*
X122830000Y-78840000D03*
X125370000Y-78840000D03*
X127910000Y-78840000D03*
X130450000Y-78840000D03*
X132990000Y-78840000D03*
X135530000Y-78840000D03*
X138070000Y-78840000D03*
X140610000Y-78840000D03*
X143150000Y-78840000D03*
X89810000Y-81380000D03*
X92350000Y-81380000D03*
X94890000Y-81380000D03*
X97430000Y-81380000D03*
X99970000Y-81380000D03*
X102510000Y-81380000D03*
X105050000Y-81380000D03*
X107590000Y-81380000D03*
X110130000Y-81380000D03*
X112670000Y-81380000D03*
X115210000Y-81380000D03*
X117750000Y-81380000D03*
X120290000Y-81380000D03*
X122830000Y-81380000D03*
X125370000Y-81380000D03*
X127910000Y-81380000D03*
X130450000Y-81380000D03*
X132990000Y-81380000D03*
X135530000Y-81380000D03*
X138070000Y-81380000D03*
X140610000Y-81380000D03*
X143150000Y-81380000D03*
X89810000Y-83920000D03*
X92350000Y-83920000D03*
X94890000Y-83920000D03*
X97430000Y-83920000D03*
X99970000Y-83920000D03*
X102510000Y-83920000D03*
X105050000Y-83920000D03*
X107590000Y-83920000D03*
X110130000Y-83920000D03*
X112670000Y-83920000D03*
X115210000Y-83920000D03*
X117750000Y-83920000D03*
X120290000Y-83920000D03*
X122830000Y-83920000D03*
X125370000Y-83920000D03*
X127910000Y-83920000D03*
X130450000Y-83920000D03*
X132990000Y-83920000D03*
X135530000Y-83920000D03*
X138070000Y-83920000D03*
X140610000Y-83920000D03*
X143150000Y-83920000D03*
X89810000Y-86460000D03*
X92350000Y-86460000D03*
X94890000Y-86460000D03*
X97430000Y-86460000D03*
X99970000Y-86460000D03*
X102510000Y-86460000D03*
X105050000Y-86460000D03*
X107590000Y-86460000D03*
X110130000Y-86460000D03*
X112670000Y-86460000D03*
X115210000Y-86460000D03*
X117750000Y-86460000D03*
X120290000Y-86460000D03*
X122830000Y-86460000D03*
X125370000Y-86460000D03*
X127910000Y-86460000D03*
X130450000Y-86460000D03*
X132990000Y-86460000D03*
X135530000Y-86460000D03*
X138070000Y-86460000D03*
X140610000Y-86460000D03*
X143150000Y-86460000D03*
X89810000Y-89000000D03*
X92350000Y-89000000D03*
X94890000Y-89000000D03*
X97430000Y-89000000D03*
X99970000Y-89000000D03*
X102510000Y-89000000D03*
X105050000Y-89000000D03*
X107590000Y-89000000D03*
X110130000Y-89000000D03*
X112670000Y-89000000D03*
X115210000Y-89000000D03*
X117750000Y-89000000D03*
X120290000Y-89000000D03*
X122830000Y-89000000D03*
X125370000Y-89000000D03*
X127910000Y-89000000D03*
X130450000Y-89000000D03*
X132990000Y-89000000D03*
X135530000Y-89000000D03*
X138070000Y-89000000D03*
X140610000Y-89000000D03*
X143150000Y-89000000D03*
X89810000Y-91540000D03*
X92350000Y-91540000D03*
X94890000Y-91540000D03*
X97430000Y-91540000D03*
X99970000Y-91540000D03*
X102510000Y-91540000D03*
X105050000Y-91540000D03*
X107590000Y-91540000D03*
X110130000Y-91540000D03*
X112670000Y-91540000D03*
X115210000Y-91540000D03*
X117750000Y-91540000D03*
X120290000Y-91540000D03*
X122830000Y-91540000D03*
X125370000Y-91540000D03*
X127910000Y-91540000D03*
X130450000Y-91540000D03*
X132990000Y-91540000D03*
X135530000Y-91540000D03*
X138070000Y-91540000D03*
X140610000Y-91540000D03*
X143150000Y-91540000D03*
X89810000Y-94080000D03*
X92350000Y-94080000D03*
X94890000Y-94080000D03*
X97430000Y-94080000D03*
X99970000Y-94080000D03*
X102510000Y-94080000D03*
X105050000Y-94080000D03*
X107590000Y-94080000D03*
X110130000Y-94080000D03*
X112670000Y-94080000D03*
X115210000Y-94080000D03*
X117750000Y-94080000D03*
X120290000Y-94080000D03*
X122830000Y-94080000D03*
X125370000Y-94080000D03*
X127910000Y-94080000D03*
X130450000Y-94080000D03*
X132990000Y-94080000D03*
X135530000Y-94080000D03*
X138070000Y-94080000D03*
X140610000Y-94080000D03*
X143150000Y-94080000D03*
X89810000Y-96620000D03*
X92350000Y-96620000D03*
X94890000Y-96620000D03*
X97430000Y-96620000D03*
X99970000Y-96620000D03*
X102510000Y-96620000D03*
X105050000Y-96620000D03*
X107590000Y-96620000D03*
X110130000Y-96620000D03*
X112670000Y-96620000D03*
X115210000Y-96620000D03*
X117750000Y-96620000D03*
X120290000Y-96620000D03*
X122830000Y-96620000D03*
X125370000Y-96620000D03*
X127910000Y-96620000D03*
X130450000Y-96620000D03*
X132990000Y-96620000D03*
X135530000Y-96620000D03*
X138070000Y-96620000D03*
X140610000Y-96620000D03*
X143150000Y-96620000D03*
X89810000Y-99160000D03*
X92350000Y-99160000D03*
X94890000Y-99160000D03*
X97430000Y-99160000D03*
X99970000Y-99160000D03*
X102510000Y-99160000D03*
X105050000Y-99160000D03*
X107590000Y-99160000D03*
X110130000Y-99160000D03*
X112670000Y-99160000D03*
X115210000Y-99160000D03*
X117750000Y-99160000D03*
X120290000Y-99160000D03*
X122830000Y-99160000D03*
X125370000Y-99160000D03*
X127910000Y-99160000D03*
X130450000Y-99160000D03*
X132990000Y-99160000D03*
X135530000Y-99160000D03*
X138070000Y-99160000D03*
X140610000Y-99160000D03*
X143150000Y-99160000D03*
X89810000Y-101700000D03*
X92350000Y-101700000D03*
X94890000Y-101700000D03*
X97430000Y-101700000D03*
X99970000Y-101700000D03*
X102510000Y-101700000D03*
X105050000Y-101700000D03*
X107590000Y-101700000D03*
X110130000Y-101700000D03*
X112670000Y-101700000D03*
X115210000Y-101700000D03*
X117750000Y-101700000D03*
X120290000Y-101700000D03*
X122830000Y-101700000D03*
X125370000Y-101700000D03*
X127910000Y-101700000D03*
X130450000Y-101700000D03*
X132990000Y-101700000D03*
X135530000Y-101700000D03*
X138070000Y-101700000D03*
X140610000Y-101700000D03*
X143150000Y-101700000D03*
X89810000Y-104240000D03*
X92350000Y-104240000D03*
X94890000Y-104240000D03*
X97430000Y-104240000D03*
X99970000Y-104240000D03*
X102510000Y-104240000D03*
X105050000Y-104240000D03*
X107590000Y-104240000D03*
X110130000Y-104240000D03*
X112670000Y-104240000D03*
X115210000Y-104240000D03*
X117750000Y-104240000D03*
X120290000Y-104240000D03*
X122830000Y-104240000D03*
X125370000Y-104240000D03*
X127910000Y-104240000D03*
X130450000Y-104240000D03*
X132990000Y-104240000D03*
X135530000Y-104240000D03*
X138070000Y-104240000D03*
X140610000Y-104240000D03*
X143150000Y-104240000D03*
X89810000Y-106780000D03*
X92350000Y-106780000D03*
X94890000Y-106780000D03*
X97430000Y-106780000D03*
X99970000Y-106780000D03*
X102510000Y-106780000D03*
X105050000Y-106780000D03*
X107590000Y-106780000D03*
X110130000Y-106780000D03*
X112670000Y-106780000D03*
X115210000Y-106780000D03*
X117750000Y-106780000D03*
X120290000Y-106780000D03*
X122830000Y-106780000D03*
X125370000Y-106780000D03*
X127910000Y-106780000D03*
X130450000Y-106780000D03*
X132990000Y-106780000D03*
X135530000Y-106780000D03*
X138070000Y-106780000D03*
X140610000Y-106780000D03*
X143150000Y-106780000D03*
X89810000Y-109320000D03*
X92350000Y-109320000D03*
X94890000Y-109320000D03*
X97430000Y-109320000D03*
X99970000Y-109320000D03*
X102510000Y-109320000D03*
X105050000Y-109320000D03*
X107590000Y-109320000D03*
X110130000Y-109320000D03*
X112670000Y-109320000D03*
X115210000Y-109320000D03*
X117750000Y-109320000D03*
X120290000Y-109320000D03*
X122830000Y-109320000D03*
X125370000Y-109320000D03*
X127910000Y-109320000D03*
X130450000Y-109320000D03*
X132990000Y-109320000D03*
X135530000Y-109320000D03*
X138070000Y-109320000D03*
X140610000Y-109320000D03*
X143150000Y-109320000D03*
D13*
X94300000Y-27275000D03*
D14*
X91760000Y-27275000D03*
D12*
X175450000Y-26290000D03*
X86925000Y-36600000D03*
X176550000Y-31400000D03*
X171875000Y-35225000D03*
X170375000Y-35200000D03*
X171675000Y-29500000D03*
X168720000Y-41980000D03*
X168030000Y-45230000D03*
X171280000Y-45050000D03*
X169730000Y-43300000D03*
X171260000Y-40600000D03*
X168870000Y-39730000D03*
X166580000Y-34650000D03*
X162610000Y-31960000D03*
X162780000Y-34310000D03*
X158920000Y-32970000D03*
X159760000Y-30230000D03*
X163670000Y-29780000D03*
X166860000Y-31520000D03*
X167420000Y-29500000D03*
X167420000Y-33470000D03*
X170300000Y-28000000D03*
X171030000Y-24350000D03*
X156130000Y-111760000D03*
X157970000Y-109580000D03*
X112400000Y-47750000D03*
X90125000Y-24200000D03*
X94725000Y-23900000D03*
X118575000Y-34200000D03*
X113800000Y-32300000D03*
X115150000Y-41875000D03*
X120650000Y-34850000D03*
X128975000Y-38525000D03*
X128600000Y-44100000D03*
X130225000Y-46325000D03*
X124225000Y-46275000D03*
X115200000Y-49825000D03*
X117700000Y-46100000D03*
X117450000Y-36400000D03*
X115400000Y-33125000D03*
X120500000Y-32850000D03*
X125350000Y-33000000D03*
X126325000Y-35450000D03*
X130325000Y-37500000D03*
X83650000Y-74925000D03*
X87275000Y-77000000D03*
X84825000Y-81450000D03*
X86625000Y-84050000D03*
X87400000Y-87125000D03*
X85250000Y-91400000D03*
X86575000Y-96650000D03*
X84350000Y-103700000D03*
X87525000Y-108725000D03*
X101975000Y-118725000D03*
X102400000Y-114725000D03*
X105050000Y-111975000D03*
X108925000Y-115975000D03*
X113350000Y-113650000D03*
X115950000Y-117625000D03*
X119900000Y-119225000D03*
X118450000Y-115100000D03*
X123525000Y-112625000D03*
X123825000Y-118300000D03*
X120275000Y-116925000D03*
X127325000Y-116900000D03*
X131100000Y-113075000D03*
X135625000Y-117700000D03*
X146800000Y-96700000D03*
X148350000Y-103675000D03*
X145350000Y-103125000D03*
X147875000Y-109625000D03*
X147475000Y-113500000D03*
X151025000Y-115950000D03*
X145550000Y-119125000D03*
X133275000Y-117575000D03*
X130750000Y-115400000D03*
X128225000Y-118825000D03*
X138475000Y-118950000D03*
X140625000Y-112525000D03*
X143575000Y-116175000D03*
X138650000Y-113300000D03*
X90225000Y-115050000D03*
X91300000Y-112475000D03*
X93925000Y-116025000D03*
X99100000Y-116925000D03*
X98175000Y-114425000D03*
X95300000Y-115900000D03*
X96275000Y-118350000D03*
X90680000Y-118070000D03*
X87550000Y-112360000D03*
X84010000Y-108430000D03*
X87120000Y-101030000D03*
X84490000Y-94830000D03*
X87120000Y-90970000D03*
X84270000Y-85270000D03*
X88010000Y-81140000D03*
X83260000Y-77280000D03*
X86790000Y-74880000D03*
X84250000Y-72080000D03*
X100160000Y-117320000D03*
X100360000Y-113000000D03*
X95290000Y-113000000D03*
X83675000Y-120850000D03*
X81080000Y-114690000D03*
X82360000Y-111520000D03*
X81140000Y-108610000D03*
X82280000Y-105220000D03*
X80860000Y-102230000D03*
X82120000Y-100160000D03*
X81050000Y-96280000D03*
X82230000Y-93210000D03*
X81110000Y-89490000D03*
X82310000Y-85750000D03*
X81190000Y-82950000D03*
X82450000Y-78450000D03*
X81270000Y-75630000D03*
X82520000Y-72430000D03*
X81190000Y-70640000D03*
X82220000Y-68540000D03*
X81200000Y-65460000D03*
X83250000Y-64350000D03*
X86720000Y-63740000D03*
X177200000Y-77730000D03*
X176750000Y-76610000D03*
X174960000Y-77730000D03*
X173620000Y-75490000D03*
X172780000Y-77780000D03*
X170940000Y-78680000D03*
X170660000Y-81640000D03*
X167750000Y-80410000D03*
X169260000Y-80360000D03*
X169990000Y-73480000D03*
X168900000Y-74850000D03*
X166910000Y-78510000D03*
X167840000Y-77980000D03*
X170430000Y-76560000D03*
X171610000Y-76020000D03*
X172330000Y-73820000D03*
X169540000Y-71530000D03*
X167750000Y-72730000D03*
X166610000Y-74740000D03*
X165430000Y-77200000D03*
X163670000Y-76020000D03*
X164210000Y-74010000D03*
X165890000Y-71770000D03*
X162260000Y-71550000D03*
X161180000Y-73560000D03*
X159370000Y-71530000D03*
X164330000Y-62890000D03*
X163090000Y-63540000D03*
X160830000Y-63910000D03*
X159590000Y-66200000D03*
X158090000Y-65080000D03*
X156570000Y-63870000D03*
X156440000Y-65800000D03*
X157500000Y-67060000D03*
X160410000Y-67870000D03*
X174490000Y-59480000D03*
X177220000Y-59740000D03*
X177470000Y-62700000D03*
X175660000Y-63790000D03*
X175260000Y-61830000D03*
X173490000Y-61240000D03*
X172210000Y-59860000D03*
X170690000Y-58500000D03*
X169020000Y-57400000D03*
X167600000Y-58460000D03*
X169610000Y-59960000D03*
X169530000Y-61730000D03*
X171810000Y-62770000D03*
X172820000Y-64270000D03*
X171480000Y-65840000D03*
X169320000Y-67280000D03*
X170350000Y-64770000D03*
X168100000Y-65420000D03*
X167530000Y-62900000D03*
X166760000Y-60430000D03*
X165470000Y-62180000D03*
X165960000Y-64080000D03*
X165770000Y-66520000D03*
X164020000Y-65910000D03*
X164250000Y-63930000D03*
X162190000Y-64730000D03*
X162990000Y-66710000D03*
X164520000Y-67210000D03*
X166680000Y-67500000D03*
X86910000Y-70840000D03*
X92960000Y-69270000D03*
X99280000Y-71380000D03*
X105500000Y-69350000D03*
X112430000Y-71190000D03*
X118070000Y-69010000D03*
X125900000Y-71250000D03*
X132040000Y-68730000D03*
X137740000Y-71360000D03*
X140930000Y-68730000D03*
X146350000Y-70240000D03*
X146520000Y-79290000D03*
X145570000Y-85270000D03*
X146180000Y-91310000D03*
X145690000Y-98960000D03*
X146710000Y-106880000D03*
X146570000Y-116510000D03*
X143710000Y-112850000D03*
X141390000Y-118410000D03*
X135030000Y-113000000D03*
X131750000Y-118530000D03*
X126950000Y-112930000D03*
X122720000Y-115560000D03*
X118220000Y-112660000D03*
X114220000Y-118610000D03*
X108770000Y-112570000D03*
X105470000Y-115560000D03*
X110110000Y-118690000D03*
X167330000Y-40120000D03*
X165450000Y-38080000D03*
X163710000Y-35940000D03*
X158340000Y-37070000D03*
X161050000Y-37110000D03*
X160970000Y-40040000D03*
X157920000Y-39320000D03*
X159790000Y-42900000D03*
X163600000Y-41450000D03*
X165240000Y-43610000D03*
X163530000Y-45430000D03*
X161600000Y-44120000D03*
X159710000Y-46160000D03*
X157970000Y-44960000D03*
X158220000Y-47830000D03*
X138640000Y-45840000D03*
X137140000Y-44560000D03*
X135580000Y-45460000D03*
X136020000Y-43710000D03*
X133300000Y-40450000D03*
X131690000Y-39410000D03*
X129940000Y-40710000D03*
X147500000Y-120400000D03*
X143380000Y-120700000D03*
X140030000Y-120230000D03*
X138440000Y-120990000D03*
X134610000Y-120360000D03*
X130260000Y-120850000D03*
X126030000Y-120360000D03*
X122720000Y-120850000D03*
X117040000Y-120360000D03*
X113920000Y-121040000D03*
X108810000Y-120430000D03*
X105160000Y-120850000D03*
X101770000Y-120400000D03*
X95580000Y-120980000D03*
X90750000Y-120280000D03*
X86840000Y-121040000D03*
X81840000Y-120920000D03*
X82030000Y-61490000D03*
X81610000Y-57300000D03*
X82750000Y-56770000D03*
X151140000Y-98960000D03*
X147870000Y-98350000D03*
X147520000Y-94060000D03*
X148700000Y-92820000D03*
X151830000Y-93940000D03*
X153860000Y-95520000D03*
X152610000Y-90640000D03*
X163950000Y-85360000D03*
X165990000Y-87370000D03*
X164200000Y-89720000D03*
X162020000Y-88590000D03*
X159720000Y-89520000D03*
X157890000Y-89030000D03*
X155210000Y-116900000D03*
X154420000Y-119720000D03*
X149620000Y-119600000D03*
X148780000Y-116320000D03*
X151680000Y-117730000D03*
X153280000Y-114190000D03*
X150380000Y-113690000D03*
X148210000Y-111440000D03*
X152650000Y-110870000D03*
X154810000Y-106550000D03*
X149480000Y-108840000D03*
X148720000Y-105540000D03*
X152150000Y-106050000D03*
X155190000Y-102110000D03*
X151000000Y-101090000D03*
X151260000Y-104650000D03*
X149100000Y-101350000D03*
X149100000Y-94110000D03*
X153040000Y-98430000D03*
X156970000Y-99190000D03*
X155830000Y-94490000D03*
X151260000Y-92330000D03*
X148320000Y-91290000D03*
X147940000Y-87670000D03*
X152360000Y-89190000D03*
X155940000Y-89000000D03*
X154000000Y-86490000D03*
X150040000Y-85690000D03*
X148110000Y-84280000D03*
X148290000Y-79030000D03*
X151750000Y-82050000D03*
X151840000Y-78050000D03*
X147930000Y-75480000D03*
X147930000Y-73080000D03*
X148200000Y-70940000D03*
X151930000Y-73520000D03*
X153710000Y-76100000D03*
X156290000Y-80900000D03*
X155310000Y-83120000D03*
X152820000Y-82680000D03*
X149800000Y-78770000D03*
X153350000Y-79210000D03*
X159310000Y-80990000D03*
X162600000Y-84460000D03*
X158690000Y-85080000D03*
X158510000Y-83390000D03*
X156020000Y-85340000D03*
X158860000Y-87830000D03*
X163930000Y-87030000D03*
X167310000Y-89080000D03*
X167750000Y-92460000D03*
X163580000Y-91480000D03*
X161180000Y-90590000D03*
X158150000Y-91740000D03*
X155660000Y-90410000D03*
X159310000Y-94680000D03*
X160990000Y-95330000D03*
X164260000Y-93120000D03*
X162280000Y-92010000D03*
X160660000Y-93180000D03*
X163000000Y-94160000D03*
X164850000Y-95890000D03*
X166830000Y-93460000D03*
X168250000Y-95390000D03*
X168090000Y-97870000D03*
X169820000Y-99100000D03*
X168340000Y-100560000D03*
X164540000Y-100030000D03*
X166130000Y-97930000D03*
X162330000Y-96200000D03*
X161830000Y-100390000D03*
X158640000Y-99800000D03*
X157160000Y-96390000D03*
X160240000Y-98880000D03*
X128520000Y-59180000D03*
X131770000Y-59180000D03*
X135290000Y-58840000D03*
X132490000Y-63200000D03*
X136850000Y-65940000D03*
X133940000Y-67780000D03*
X130420000Y-64150000D03*
X131600000Y-60800000D03*
X126740000Y-60130000D03*
X127850000Y-63870000D03*
X128860000Y-67110000D03*
X124330000Y-66780000D03*
X124890000Y-62470000D03*
X121260000Y-59960000D03*
X121260000Y-65160000D03*
X119690000Y-67390000D03*
X116290000Y-65380000D03*
X118630000Y-61920000D03*
X113830000Y-59900000D03*
X112150000Y-63370000D03*
X112320000Y-66890000D03*
X108180000Y-68170000D03*
X108520000Y-64260000D03*
X109800000Y-60350000D03*
X105670000Y-61920000D03*
X106730000Y-58560000D03*
X101590000Y-57780000D03*
X102430000Y-61940000D03*
X104580000Y-64320000D03*
X105080000Y-67450000D03*
X101460000Y-67130000D03*
X100050000Y-62560000D03*
X97650000Y-58670000D03*
X96810000Y-62220000D03*
X98680000Y-66260000D03*
X94910000Y-67210000D03*
X93540000Y-63440000D03*
X94830000Y-59280000D03*
X90600000Y-59820000D03*
X90940000Y-63700000D03*
X90220000Y-67320000D03*
X88240000Y-64430000D03*
X85800000Y-67630000D03*
X84920000Y-64850000D03*
X82180000Y-67250000D03*
X82370000Y-63060000D03*
X82260000Y-58900000D03*
X104670000Y-24220000D03*
X103190000Y-23970000D03*
X104380000Y-25440000D03*
X104710000Y-26960000D03*
X102960000Y-27800000D03*
X105120000Y-30320000D03*
X107430000Y-28850000D03*
X109280000Y-30150000D03*
X112270000Y-28960000D03*
X113930000Y-30270000D03*
X116690000Y-28970000D03*
X118060000Y-30400000D03*
X120590000Y-28500000D03*
X121290000Y-29250000D03*
X123830000Y-29700000D03*
X126200000Y-29810000D03*
X127630000Y-29030000D03*
X130310000Y-28970000D03*
X130150000Y-30370000D03*
X128050000Y-30940000D03*
X129770000Y-32690000D03*
X131900000Y-33830000D03*
X131670000Y-31050000D03*
X132510000Y-28690000D03*
X133270000Y-30330000D03*
X133310000Y-32690000D03*
X133160000Y-35090000D03*
X135160000Y-37030000D03*
X135100000Y-33970000D03*
X134940000Y-31440000D03*
X135010000Y-29120000D03*
X133750000Y-27450000D03*
X131530000Y-26840000D03*
X132610000Y-25420000D03*
X134290000Y-25340000D03*
X135190000Y-27130000D03*
X137300000Y-27130000D03*
X137950000Y-27940000D03*
X137200000Y-28960000D03*
X138140000Y-30950000D03*
X137120000Y-32720000D03*
X137970000Y-34460000D03*
X137220000Y-37020000D03*
X137910000Y-39950000D03*
X139780000Y-31610000D03*
X155150000Y-46210000D03*
X155120000Y-43250000D03*
X153980000Y-45260000D03*
X153330000Y-42890000D03*
X152990000Y-36620000D03*
X153360000Y-39480000D03*
X155100000Y-41130000D03*
X154940000Y-37530000D03*
X152440000Y-33050000D03*
X152520000Y-30620000D03*
X153110000Y-27380000D03*
X153470000Y-24840000D03*
X155180000Y-24890000D03*
X155010000Y-27940000D03*
X154290000Y-30400000D03*
X153900000Y-33530000D03*
X145280000Y-39200000D03*
X145450000Y-35110000D03*
X145620000Y-31150000D03*
X145680000Y-26820000D03*
X143780000Y-25120000D03*
X143410000Y-29570000D03*
X143140000Y-33190000D03*
X142890000Y-37200000D03*
X142830000Y-41070000D03*
X146040000Y-41240000D03*
X145650000Y-45850000D03*
X143030000Y-43780000D03*
X140780000Y-41800000D03*
X140280000Y-39890000D03*
X140700000Y-36880000D03*
X140680000Y-33000000D03*
X141240000Y-29280000D03*
X171980000Y-47240000D03*
X171850000Y-48280000D03*
X170260000Y-47340000D03*
X168600000Y-47980000D03*
X166780000Y-47240000D03*
X165980000Y-48200000D03*
X164970000Y-47320000D03*
X161790000Y-47840000D03*
X163250000Y-48050000D03*
X157700000Y-56160000D03*
X158940000Y-56010000D03*
X158150000Y-54560000D03*
X157380000Y-55140000D03*
X156040000Y-55720000D03*
X156820000Y-54000000D03*
X164100000Y-56070000D03*
X161830000Y-53900000D03*
X164150000Y-53720000D03*
X165060000Y-55340000D03*
X165250000Y-52830000D03*
X166310000Y-54280000D03*
X166990000Y-53320000D03*
X167720000Y-51710000D03*
X168870000Y-52050000D03*
X169360000Y-50700000D03*
X171050000Y-50530000D03*
X171160000Y-49950000D03*
X169450000Y-49800000D03*
X167980000Y-50460000D03*
X166340000Y-51390000D03*
X165520000Y-49930000D03*
X162260000Y-49930000D03*
X161680000Y-50400000D03*
X160400000Y-49990000D03*
X160080000Y-51500000D03*
X163310000Y-52870000D03*
X164210000Y-51910000D03*
X152180000Y-60450000D03*
X151950000Y-59330000D03*
X153560000Y-59440000D03*
X153380000Y-58280000D03*
X150610000Y-58240000D03*
X150610000Y-59620000D03*
X150790000Y-61390000D03*
X153210000Y-61260000D03*
X154110000Y-60230000D03*
X154170000Y-62380000D03*
X151610000Y-62410000D03*
X149500000Y-62330000D03*
X154500000Y-59520000D03*
X149530000Y-60290000D03*
X149550000Y-58800000D03*
X154370000Y-57350000D03*
X152200000Y-57380000D03*
X149540000Y-57400000D03*
X163070000Y-50620000D03*
X163820000Y-55050000D03*
D24*
X151490000Y-35360000D03*
D12*
X161020000Y-34620000D03*
X162830000Y-37690000D03*
X119120000Y-50890000D03*
X119120000Y-49560000D03*
X118390000Y-51630000D03*
D24*
X88690000Y-46690000D03*
X151460000Y-45110000D03*
X162460000Y-102700000D03*
X162570000Y-105610000D03*
X163360000Y-61930000D03*
D12*
X157600000Y-59240000D03*
X145180000Y-58130000D03*
D24*
X136300000Y-63370000D03*
X136280000Y-61200000D03*
X138230000Y-59020000D03*
X138180000Y-56890000D03*
D12*
X110900000Y-33450000D03*
X114700000Y-44150000D03*
X113275000Y-41400000D03*
X112775000Y-37775000D03*
X108050000Y-43175000D03*
X104225000Y-38050000D03*
X100600000Y-42200000D03*
X96975000Y-40400000D03*
X108775000Y-32525000D03*
X104275000Y-32425000D03*
X97075000Y-38150000D03*
X97125000Y-33450000D03*
X102000000Y-33025000D03*
X100050000Y-30700000D03*
X95000000Y-33350000D03*
X94375000Y-36825000D03*
X94325000Y-43150000D03*
X91650000Y-40850000D03*
X91850000Y-36500000D03*
X87550000Y-34100000D03*
X87450000Y-37575000D03*
X82900000Y-37800000D03*
X83550000Y-32150000D03*
X92625000Y-31025000D03*
X98500000Y-29175000D03*
D24*
X147500000Y-67180000D03*
X145300000Y-57130000D03*
D25*
X168450000Y-24510000D03*
D12*
X163790000Y-58700000D03*
X142660000Y-53720000D03*
X141390000Y-53630000D03*
D24*
X165200000Y-59620000D03*
D12*
X152480000Y-46740000D03*
X149780000Y-46710000D03*
X151300000Y-47210000D03*
X142970000Y-52720000D03*
D26*
X175490000Y-26330000D02*
X175490000Y-29380000D01*
X175450000Y-26290000D02*
X175490000Y-26330000D01*
X177320000Y-25460000D02*
X177320000Y-27280000D01*
X176170000Y-24310000D02*
X177320000Y-25460000D01*
X172590000Y-25910000D02*
X173700000Y-25910000D01*
D27*
X98500000Y-29175000D02*
X89750000Y-29175000D01*
X89600000Y-29025000D02*
X89600000Y-27900000D01*
X89750000Y-29175000D02*
X89600000Y-29025000D01*
D26*
X172500000Y-31400000D02*
X176550000Y-31400000D01*
X172450000Y-31350000D02*
X172500000Y-31400000D01*
X172450000Y-34650000D02*
X172450000Y-31350000D01*
X171875000Y-35225000D02*
X172450000Y-34650000D01*
X170375000Y-30800000D02*
X170375000Y-35200000D01*
X171675000Y-29500000D02*
X170375000Y-30800000D01*
X168720000Y-41980000D02*
X168030000Y-42670000D01*
X168030000Y-42670000D02*
X168030000Y-45230000D01*
X171280000Y-45050000D02*
X169730000Y-43500000D01*
X169730000Y-43500000D02*
X169730000Y-43300000D01*
X171260000Y-40600000D02*
X170390000Y-39730000D01*
X170390000Y-39730000D02*
X168870000Y-39730000D01*
X166580000Y-34650000D02*
X163890000Y-31960000D01*
X163890000Y-31960000D02*
X162610000Y-31960000D01*
X162780000Y-34310000D02*
X161440000Y-32970000D01*
X161440000Y-32970000D02*
X158920000Y-32970000D01*
X159760000Y-30230000D02*
X160210000Y-29780000D01*
X160210000Y-29780000D02*
X163670000Y-29780000D01*
X166860000Y-31520000D02*
X167420000Y-30960000D01*
X167420000Y-30960000D02*
X167420000Y-29500000D01*
X167420000Y-33470000D02*
X170300000Y-30590000D01*
X170300000Y-30590000D02*
X170300000Y-28000000D01*
D27*
X158618800Y-112675000D02*
X158618800Y-110228800D01*
D26*
X156130000Y-111420000D02*
X156130000Y-111760000D01*
X157970000Y-109580000D02*
X156130000Y-111420000D01*
D27*
X158618800Y-110228800D02*
X157970000Y-109580000D01*
X158618800Y-112656200D02*
X158618800Y-112675000D01*
X158618800Y-112675000D02*
X158618800Y-115500000D01*
X112400000Y-44625000D02*
X112400000Y-47750000D01*
X115150000Y-41875000D02*
X112400000Y-44625000D01*
X95365000Y-24540000D02*
X94725000Y-23900000D01*
X89600000Y-24725000D02*
X89600000Y-27900000D01*
X90125000Y-24200000D02*
X89600000Y-24725000D01*
X98090000Y-24540000D02*
X95365000Y-24540000D01*
X118575000Y-34200000D02*
X116675000Y-32300000D01*
X116675000Y-32300000D02*
X113800000Y-32300000D01*
X128975000Y-43725000D02*
X128975000Y-38525000D01*
X128600000Y-44100000D02*
X128975000Y-43725000D01*
X124275000Y-46325000D02*
X130225000Y-46325000D01*
X124225000Y-46275000D02*
X124275000Y-46325000D01*
X115200000Y-48600000D02*
X115200000Y-49825000D01*
X117700000Y-46100000D02*
X115200000Y-48600000D01*
X117450000Y-35175000D02*
X117450000Y-36400000D01*
X115400000Y-33125000D02*
X117450000Y-35175000D01*
X125200000Y-32850000D02*
X120500000Y-32850000D01*
X125350000Y-33000000D02*
X125200000Y-32850000D01*
X128275000Y-35450000D02*
X126325000Y-35450000D01*
X130325000Y-37500000D02*
X128275000Y-35450000D01*
X84010000Y-108430000D02*
X87230000Y-108430000D01*
X85200000Y-74925000D02*
X83650000Y-74925000D01*
X87275000Y-77000000D02*
X85200000Y-74925000D01*
X84825000Y-82250000D02*
X84825000Y-81450000D01*
X86625000Y-84050000D02*
X84825000Y-82250000D01*
X87400000Y-89250000D02*
X87400000Y-87125000D01*
X85250000Y-91400000D02*
X87400000Y-89250000D01*
X86575000Y-101475000D02*
X86575000Y-96650000D01*
X84350000Y-103700000D02*
X86575000Y-101475000D01*
X87230000Y-108430000D02*
X87525000Y-108725000D01*
X135625000Y-117700000D02*
X135625000Y-116325000D01*
X101770000Y-118930000D02*
X101975000Y-118725000D01*
X102400000Y-114725000D02*
X105050000Y-112075000D01*
X105050000Y-112075000D02*
X105050000Y-111975000D01*
X108925000Y-115975000D02*
X111250000Y-113650000D01*
X111250000Y-113650000D02*
X113350000Y-113650000D01*
X115950000Y-117625000D02*
X117550000Y-119225000D01*
X117550000Y-119225000D02*
X119900000Y-119225000D01*
X118450000Y-115100000D02*
X120925000Y-112625000D01*
X120925000Y-112625000D02*
X123525000Y-112625000D01*
X123825000Y-118300000D02*
X122450000Y-116925000D01*
X122450000Y-116925000D02*
X120275000Y-116925000D01*
X127325000Y-116900000D02*
X131100000Y-113125000D01*
X131100000Y-113125000D02*
X131100000Y-113075000D01*
X101770000Y-120400000D02*
X101770000Y-118930000D01*
X145900000Y-103675000D02*
X148350000Y-103675000D01*
X145350000Y-103125000D02*
X145900000Y-103675000D01*
X147875000Y-113100000D02*
X147875000Y-109625000D01*
X147475000Y-113500000D02*
X147875000Y-113100000D01*
X148725000Y-115950000D02*
X151025000Y-115950000D01*
X145550000Y-119125000D02*
X148725000Y-115950000D01*
X132925000Y-117575000D02*
X133275000Y-117575000D01*
X130750000Y-115400000D02*
X132925000Y-117575000D01*
X138350000Y-118825000D02*
X128225000Y-118825000D01*
X138475000Y-118950000D02*
X138350000Y-118825000D01*
X140625000Y-113225000D02*
X140625000Y-112525000D01*
X143575000Y-116175000D02*
X140625000Y-113225000D01*
X135625000Y-116325000D02*
X138650000Y-113300000D01*
X90680000Y-115505000D02*
X90680000Y-118070000D01*
X90225000Y-115050000D02*
X90680000Y-115505000D01*
X91300000Y-113400000D02*
X91300000Y-112475000D01*
X93925000Y-116025000D02*
X91300000Y-113400000D01*
X99100000Y-115350000D02*
X99100000Y-116925000D01*
X98175000Y-114425000D02*
X99100000Y-115350000D01*
X95300000Y-117375000D02*
X95300000Y-115900000D01*
X96275000Y-118350000D02*
X95300000Y-117375000D01*
X87550000Y-112360000D02*
X84010000Y-108820000D01*
X84010000Y-108820000D02*
X84010000Y-108430000D01*
X87120000Y-101030000D02*
X84490000Y-98400000D01*
X84490000Y-98400000D02*
X84490000Y-94830000D01*
X87120000Y-90970000D02*
X84270000Y-88120000D01*
X84270000Y-88120000D02*
X84270000Y-85270000D01*
X88010000Y-81140000D02*
X84150000Y-77280000D01*
X84150000Y-77280000D02*
X83260000Y-77280000D01*
X86790000Y-74880000D02*
X84250000Y-72340000D01*
X84250000Y-72340000D02*
X84250000Y-72080000D01*
X90680000Y-117610000D02*
X90680000Y-118070000D01*
X100160000Y-117320000D02*
X100360000Y-117120000D01*
X100360000Y-117120000D02*
X100360000Y-113000000D01*
X95290000Y-113000000D02*
X90680000Y-117610000D01*
X86840000Y-121040000D02*
X83865000Y-121040000D01*
X83865000Y-121040000D02*
X83675000Y-120850000D01*
X81140000Y-119560000D02*
X81140000Y-115450000D01*
D26*
X81080000Y-115390000D02*
X81080000Y-114690000D01*
X82360000Y-111520000D02*
X81140000Y-110300000D01*
X81140000Y-110300000D02*
X81140000Y-108610000D01*
X82280000Y-105220000D02*
X80860000Y-103800000D01*
X80860000Y-103800000D02*
X80860000Y-102230000D01*
X82120000Y-100160000D02*
X81050000Y-99090000D01*
X81050000Y-99090000D02*
X81050000Y-96280000D01*
X82230000Y-93210000D02*
X81110000Y-92090000D01*
X81110000Y-92090000D02*
X81110000Y-89490000D01*
X82310000Y-85750000D02*
X81190000Y-84630000D01*
X81190000Y-84630000D02*
X81190000Y-82950000D01*
X82450000Y-78450000D02*
X81270000Y-77270000D01*
X81270000Y-77270000D02*
X81270000Y-75630000D01*
X82520000Y-72430000D02*
X81190000Y-71100000D01*
X81190000Y-71100000D02*
X81190000Y-70640000D01*
X82220000Y-68540000D02*
X81200000Y-67520000D01*
X81200000Y-67520000D02*
X81200000Y-65460000D01*
X83250000Y-64350000D02*
X83860000Y-63740000D01*
X83860000Y-63740000D02*
X86720000Y-63740000D01*
D27*
X81140000Y-115450000D02*
X81080000Y-115390000D01*
X81080000Y-119500000D02*
X81140000Y-119560000D01*
X177200000Y-77730000D02*
X177200000Y-80250000D01*
X177200000Y-80250000D02*
X176910000Y-80540000D01*
X177210000Y-77600000D02*
X177210000Y-77720000D01*
X177200000Y-77730000D02*
X177210000Y-77720000D01*
X176080000Y-76610000D02*
X176750000Y-76610000D01*
X174960000Y-77730000D02*
X176080000Y-76610000D01*
X173620000Y-76940000D02*
X173620000Y-75490000D01*
X172780000Y-77780000D02*
X173620000Y-76940000D01*
X170940000Y-81360000D02*
X170940000Y-78680000D01*
X170660000Y-81640000D02*
X170940000Y-81360000D01*
X169210000Y-80410000D02*
X167750000Y-80410000D01*
X169260000Y-80360000D02*
X169210000Y-80410000D01*
X169990000Y-73760000D02*
X169990000Y-73480000D01*
X168900000Y-74850000D02*
X169990000Y-73760000D01*
X167310000Y-78510000D02*
X166910000Y-78510000D01*
X167840000Y-77980000D02*
X167310000Y-78510000D01*
X171070000Y-76560000D02*
X170430000Y-76560000D01*
X171610000Y-76020000D02*
X171070000Y-76560000D01*
X171830000Y-73820000D02*
X172330000Y-73820000D01*
X169540000Y-71530000D02*
X171830000Y-73820000D01*
X167750000Y-73600000D02*
X167750000Y-72730000D01*
X166610000Y-74740000D02*
X167750000Y-73600000D01*
X164850000Y-77200000D02*
X165430000Y-77200000D01*
X163670000Y-76020000D02*
X164850000Y-77200000D01*
X164210000Y-73450000D02*
X164210000Y-74010000D01*
X165890000Y-71770000D02*
X164210000Y-73450000D01*
X162260000Y-72480000D02*
X162260000Y-71550000D01*
X161180000Y-73560000D02*
X162260000Y-72480000D01*
X160410000Y-70490000D02*
X159370000Y-71530000D01*
X163740000Y-62890000D02*
X164330000Y-62890000D01*
X163090000Y-63540000D02*
X163740000Y-62890000D01*
X160830000Y-64960000D02*
X160830000Y-63910000D01*
X159590000Y-66200000D02*
X160830000Y-64960000D01*
X157780000Y-65080000D02*
X158090000Y-65080000D01*
X156570000Y-63870000D02*
X157780000Y-65080000D01*
X156440000Y-66000000D02*
X156440000Y-65800000D01*
X157500000Y-67060000D02*
X156440000Y-66000000D01*
X160410000Y-67870000D02*
X160410000Y-70490000D01*
X174490000Y-59480000D02*
X174750000Y-59740000D01*
X174750000Y-59740000D02*
X177220000Y-59740000D01*
X177470000Y-62700000D02*
X176380000Y-63790000D01*
X176380000Y-63790000D02*
X175660000Y-63790000D01*
X175260000Y-61830000D02*
X174670000Y-61240000D01*
X174670000Y-61240000D02*
X173490000Y-61240000D01*
X172210000Y-59860000D02*
X170850000Y-58500000D01*
X170850000Y-58500000D02*
X170690000Y-58500000D01*
X169020000Y-57400000D02*
X167960000Y-58460000D01*
X167960000Y-58460000D02*
X167600000Y-58460000D01*
X169610000Y-59960000D02*
X169530000Y-60040000D01*
X169530000Y-60040000D02*
X169530000Y-61730000D01*
X171810000Y-62770000D02*
X172820000Y-63780000D01*
X172820000Y-63780000D02*
X172820000Y-64270000D01*
X171480000Y-65840000D02*
X170040000Y-67280000D01*
X170040000Y-67280000D02*
X169320000Y-67280000D01*
X170350000Y-64770000D02*
X169700000Y-65420000D01*
X169700000Y-65420000D02*
X168100000Y-65420000D01*
X167530000Y-62900000D02*
X166760000Y-62130000D01*
X166760000Y-62130000D02*
X166760000Y-60430000D01*
X165470000Y-62180000D02*
X165960000Y-62670000D01*
X165960000Y-62670000D02*
X165960000Y-64080000D01*
X165770000Y-66520000D02*
X165160000Y-65910000D01*
X165160000Y-65910000D02*
X164020000Y-65910000D01*
X164250000Y-63930000D02*
X163450000Y-64730000D01*
X163450000Y-64730000D02*
X162190000Y-64730000D01*
X162990000Y-66710000D02*
X163490000Y-67210000D01*
X163490000Y-67210000D02*
X164520000Y-67210000D01*
X166680000Y-67500000D02*
X166310000Y-67870000D01*
X166310000Y-67870000D02*
X160410000Y-67870000D01*
X86910000Y-70840000D02*
X88480000Y-69270000D01*
X88480000Y-69270000D02*
X92960000Y-69270000D01*
X99280000Y-71380000D02*
X101310000Y-69350000D01*
X101310000Y-69350000D02*
X105500000Y-69350000D01*
X112430000Y-71190000D02*
X114610000Y-69010000D01*
X114610000Y-69010000D02*
X118070000Y-69010000D01*
X125900000Y-71250000D02*
X128420000Y-68730000D01*
X128420000Y-68730000D02*
X132040000Y-68730000D01*
X137740000Y-71360000D02*
X140370000Y-68730000D01*
X140370000Y-68730000D02*
X140930000Y-68730000D01*
X146350000Y-70240000D02*
X146520000Y-70410000D01*
X146520000Y-70410000D02*
X146520000Y-79290000D01*
X145570000Y-85270000D02*
X146180000Y-85880000D01*
X146180000Y-85880000D02*
X146180000Y-91310000D01*
X145690000Y-98960000D02*
X146710000Y-99980000D01*
X146710000Y-99980000D02*
X146710000Y-106880000D01*
X146570000Y-116510000D02*
X143710000Y-113650000D01*
X143710000Y-113650000D02*
X143710000Y-112850000D01*
X141390000Y-118410000D02*
X135980000Y-113000000D01*
X135980000Y-113000000D02*
X135030000Y-113000000D01*
X131750000Y-118530000D02*
X126950000Y-113730000D01*
X126950000Y-113730000D02*
X126950000Y-112930000D01*
X122720000Y-115560000D02*
X119820000Y-112660000D01*
X119820000Y-112660000D02*
X118220000Y-112660000D01*
X114220000Y-118610000D02*
X108770000Y-113160000D01*
X108770000Y-113160000D02*
X108770000Y-112570000D01*
X105470000Y-115560000D02*
X108600000Y-118690000D01*
X108600000Y-118690000D02*
X110110000Y-118690000D01*
D26*
X161790000Y-47840000D02*
X158230000Y-47840000D01*
X167330000Y-39960000D02*
X167330000Y-40120000D01*
X165450000Y-38080000D02*
X167330000Y-39960000D01*
X162910000Y-36740000D02*
X163710000Y-35940000D01*
X158670000Y-36740000D02*
X162910000Y-36740000D01*
X158340000Y-37070000D02*
X158670000Y-36740000D01*
X161050000Y-39960000D02*
X161050000Y-37110000D01*
X160970000Y-40040000D02*
X161050000Y-39960000D01*
X157920000Y-41030000D02*
X157920000Y-39320000D01*
X159790000Y-42900000D02*
X157920000Y-41030000D01*
X163600000Y-41970000D02*
X163600000Y-41450000D01*
X165240000Y-43610000D02*
X163600000Y-41970000D01*
X162910000Y-45430000D02*
X163530000Y-45430000D01*
X161600000Y-44120000D02*
X162910000Y-45430000D01*
X159170000Y-46160000D02*
X159710000Y-46160000D01*
X157970000Y-44960000D02*
X159170000Y-46160000D01*
X158230000Y-47840000D02*
X158220000Y-47830000D01*
X136480000Y-44560000D02*
X137140000Y-44560000D01*
X135580000Y-45460000D02*
X136480000Y-44560000D01*
X136020000Y-43170000D02*
X136020000Y-43710000D01*
X133300000Y-40450000D02*
X136020000Y-43170000D01*
X131240000Y-39410000D02*
X131690000Y-39410000D01*
X129940000Y-40710000D02*
X131240000Y-39410000D01*
X149620000Y-119600000D02*
X148300000Y-119600000D01*
X148300000Y-119600000D02*
X147500000Y-120400000D01*
X143380000Y-120700000D02*
X142910000Y-120230000D01*
X142910000Y-120230000D02*
X140030000Y-120230000D01*
X138440000Y-120990000D02*
X137810000Y-120360000D01*
X137810000Y-120360000D02*
X134610000Y-120360000D01*
X130260000Y-120850000D02*
X129770000Y-120360000D01*
X129770000Y-120360000D02*
X126030000Y-120360000D01*
X122720000Y-120850000D02*
X122230000Y-120360000D01*
X122230000Y-120360000D02*
X117040000Y-120360000D01*
X113920000Y-121040000D02*
X113310000Y-120430000D01*
X113310000Y-120430000D02*
X108810000Y-120430000D01*
X105160000Y-120850000D02*
X104710000Y-120400000D01*
X104710000Y-120400000D02*
X101770000Y-120400000D01*
X95580000Y-120980000D02*
X94880000Y-120280000D01*
X94880000Y-120280000D02*
X90750000Y-120280000D01*
X81840000Y-120920000D02*
X81140000Y-120220000D01*
X81140000Y-120220000D02*
X81140000Y-119560000D01*
X82030000Y-61490000D02*
X81610000Y-61070000D01*
X81610000Y-61070000D02*
X81610000Y-57300000D01*
X82750000Y-56770000D02*
X82790000Y-56730000D01*
X153040000Y-98430000D02*
X153040000Y-96340000D01*
X147870000Y-94410000D02*
X147870000Y-98350000D01*
X147520000Y-94060000D02*
X147870000Y-94410000D01*
X150710000Y-92820000D02*
X148700000Y-92820000D01*
X151830000Y-93940000D02*
X150710000Y-92820000D01*
X153040000Y-96340000D02*
X153860000Y-95520000D01*
X155660000Y-90410000D02*
X152840000Y-90410000D01*
X152840000Y-90410000D02*
X152610000Y-90640000D01*
X155660000Y-90410000D02*
X156510000Y-90410000D01*
X163950000Y-85360000D02*
X163950000Y-85330000D01*
X165990000Y-87930000D02*
X165990000Y-87370000D01*
X164200000Y-89720000D02*
X165990000Y-87930000D01*
X160650000Y-88590000D02*
X162020000Y-88590000D01*
X159720000Y-89520000D02*
X160650000Y-88590000D01*
X156510000Y-90410000D02*
X157890000Y-89030000D01*
X159310000Y-94680000D02*
X159310000Y-97950000D01*
X155210000Y-116900000D02*
X154420000Y-117690000D01*
X154420000Y-117690000D02*
X154420000Y-119720000D01*
X149620000Y-119600000D02*
X148780000Y-118760000D01*
X148780000Y-118760000D02*
X148780000Y-116320000D01*
X151680000Y-117730000D02*
X153280000Y-116130000D01*
X153280000Y-116130000D02*
X153280000Y-114190000D01*
X150380000Y-113690000D02*
X148210000Y-111520000D01*
X148210000Y-111520000D02*
X148210000Y-111440000D01*
X152650000Y-110870000D02*
X154810000Y-108710000D01*
X154810000Y-108710000D02*
X154810000Y-106550000D01*
X149480000Y-108840000D02*
X148720000Y-108080000D01*
X148720000Y-108080000D02*
X148720000Y-105540000D01*
X152150000Y-106050000D02*
X155190000Y-103010000D01*
X155190000Y-103010000D02*
X155190000Y-102110000D01*
X151000000Y-101090000D02*
X151260000Y-101350000D01*
X151260000Y-101350000D02*
X151260000Y-104650000D01*
X149100000Y-101350000D02*
X149100000Y-94110000D01*
X153040000Y-98430000D02*
X153800000Y-99190000D01*
X153800000Y-99190000D02*
X156970000Y-99190000D01*
X155830000Y-94490000D02*
X153670000Y-92330000D01*
X153670000Y-92330000D02*
X151260000Y-92330000D01*
X148320000Y-91290000D02*
X147940000Y-90910000D01*
X147940000Y-90910000D02*
X147940000Y-87670000D01*
X152360000Y-89190000D02*
X152550000Y-89000000D01*
X152550000Y-89000000D02*
X155940000Y-89000000D01*
X154000000Y-86490000D02*
X153200000Y-85690000D01*
X153200000Y-85690000D02*
X150040000Y-85690000D01*
X148110000Y-84280000D02*
X148290000Y-84100000D01*
X148290000Y-84100000D02*
X148290000Y-79030000D01*
X151750000Y-82050000D02*
X151840000Y-81960000D01*
X151840000Y-81960000D02*
X151840000Y-78050000D01*
X147930000Y-75480000D02*
X147930000Y-73080000D01*
X148200000Y-70940000D02*
X150780000Y-73520000D01*
X150780000Y-73520000D02*
X151930000Y-73520000D01*
X153710000Y-76100000D02*
X156290000Y-78680000D01*
X156290000Y-78680000D02*
X156290000Y-80900000D01*
X155310000Y-83120000D02*
X154870000Y-82680000D01*
X154870000Y-82680000D02*
X152820000Y-82680000D01*
X149800000Y-78770000D02*
X150240000Y-79210000D01*
X150240000Y-79210000D02*
X153350000Y-79210000D01*
X159310000Y-80990000D02*
X162600000Y-84280000D01*
X162600000Y-84280000D02*
X162600000Y-84460000D01*
X158690000Y-85080000D02*
X158510000Y-84900000D01*
X158510000Y-84900000D02*
X158510000Y-83390000D01*
X156020000Y-85340000D02*
X158510000Y-87830000D01*
X158510000Y-87830000D02*
X158860000Y-87830000D01*
X163930000Y-87030000D02*
X165980000Y-89080000D01*
X165980000Y-89080000D02*
X167310000Y-89080000D01*
X167750000Y-92460000D02*
X166770000Y-91480000D01*
X166770000Y-91480000D02*
X163580000Y-91480000D01*
X161180000Y-90590000D02*
X160030000Y-91740000D01*
X160030000Y-91740000D02*
X158150000Y-91740000D01*
X155660000Y-90410000D02*
X159310000Y-94060000D01*
X159310000Y-94060000D02*
X159310000Y-94680000D01*
X163390000Y-93120000D02*
X164260000Y-93120000D01*
X162280000Y-92010000D02*
X163390000Y-93120000D01*
X162020000Y-93180000D02*
X160660000Y-93180000D01*
X163000000Y-94160000D02*
X162020000Y-93180000D01*
X164850000Y-95440000D02*
X164850000Y-95890000D01*
X166830000Y-93460000D02*
X164850000Y-95440000D01*
X168250000Y-97710000D02*
X168250000Y-95390000D01*
X168090000Y-97870000D02*
X168250000Y-97710000D01*
X169800000Y-99100000D02*
X169820000Y-99100000D01*
X168340000Y-100560000D02*
X169800000Y-99100000D01*
X164540000Y-99520000D02*
X164540000Y-100030000D01*
X166130000Y-97930000D02*
X164540000Y-99520000D01*
X162330000Y-99890000D02*
X162330000Y-96200000D01*
X161830000Y-100390000D02*
X162330000Y-99890000D01*
X158640000Y-97870000D02*
X158640000Y-99800000D01*
X157160000Y-96390000D02*
X158640000Y-97870000D01*
X159310000Y-97950000D02*
X160240000Y-98880000D01*
X134950000Y-59180000D02*
X131770000Y-59180000D01*
X135290000Y-58840000D02*
X134950000Y-59180000D01*
X134110000Y-63200000D02*
X132490000Y-63200000D01*
X136850000Y-65940000D02*
X134110000Y-63200000D01*
X133940000Y-67670000D02*
X133940000Y-67780000D01*
X130420000Y-64150000D02*
X133940000Y-67670000D01*
X127410000Y-60800000D02*
X131600000Y-60800000D01*
X126740000Y-60130000D02*
X127410000Y-60800000D01*
X127850000Y-66100000D02*
X127850000Y-63870000D01*
X128860000Y-67110000D02*
X127850000Y-66100000D01*
X124330000Y-63030000D02*
X124330000Y-66780000D01*
X124890000Y-62470000D02*
X124330000Y-63030000D01*
X121260000Y-65160000D02*
X121260000Y-59960000D01*
X118300000Y-67390000D02*
X119690000Y-67390000D01*
X116290000Y-65380000D02*
X118300000Y-67390000D01*
X115850000Y-61920000D02*
X118630000Y-61920000D01*
X113830000Y-59900000D02*
X115850000Y-61920000D01*
X112150000Y-66720000D02*
X112150000Y-63370000D01*
X112320000Y-66890000D02*
X112150000Y-66720000D01*
X108180000Y-64600000D02*
X108180000Y-68170000D01*
X108520000Y-64260000D02*
X108180000Y-64600000D01*
X107240000Y-60350000D02*
X109800000Y-60350000D01*
X105670000Y-61920000D02*
X107240000Y-60350000D01*
X102370000Y-58560000D02*
X106730000Y-58560000D01*
X101590000Y-57780000D02*
X102370000Y-58560000D01*
X102430000Y-62170000D02*
X102430000Y-61940000D01*
X104580000Y-64320000D02*
X102430000Y-62170000D01*
X101780000Y-67450000D02*
X105080000Y-67450000D01*
X101460000Y-67130000D02*
X101780000Y-67450000D01*
X100050000Y-61070000D02*
X100050000Y-62560000D01*
X97650000Y-58670000D02*
X100050000Y-61070000D01*
X96810000Y-64390000D02*
X96810000Y-62220000D01*
X98680000Y-66260000D02*
X96810000Y-64390000D01*
X94910000Y-64810000D02*
X94910000Y-67210000D01*
X93540000Y-63440000D02*
X94910000Y-64810000D01*
X91140000Y-59280000D02*
X94830000Y-59280000D01*
X90600000Y-59820000D02*
X91140000Y-59280000D01*
X90940000Y-66600000D02*
X90940000Y-63700000D01*
X90220000Y-67320000D02*
X90940000Y-66600000D01*
X88240000Y-65190000D02*
X88240000Y-64430000D01*
X85800000Y-67630000D02*
X88240000Y-65190000D01*
X84580000Y-64850000D02*
X84920000Y-64850000D01*
X82180000Y-67250000D02*
X84580000Y-64850000D01*
X82370000Y-59010000D02*
X82370000Y-63060000D01*
X82260000Y-58900000D02*
X82370000Y-59010000D01*
X104670000Y-24220000D02*
X104680000Y-24220000D01*
X103190000Y-24250000D02*
X103190000Y-23970000D01*
X104380000Y-25440000D02*
X103190000Y-24250000D01*
X103800000Y-26960000D02*
X104710000Y-26960000D01*
X102960000Y-27800000D02*
X103800000Y-26960000D01*
X105960000Y-30320000D02*
X105120000Y-30320000D01*
X107430000Y-28850000D02*
X105960000Y-30320000D01*
X111080000Y-30150000D02*
X109280000Y-30150000D01*
X112270000Y-28960000D02*
X111080000Y-30150000D01*
X115390000Y-30270000D02*
X113930000Y-30270000D01*
X116690000Y-28970000D02*
X115390000Y-30270000D01*
X118690000Y-30400000D02*
X118060000Y-30400000D01*
X120590000Y-28500000D02*
X118690000Y-30400000D01*
X123380000Y-29250000D02*
X121290000Y-29250000D01*
X123830000Y-29700000D02*
X123380000Y-29250000D01*
X126850000Y-29810000D02*
X126200000Y-29810000D01*
X127630000Y-29030000D02*
X126850000Y-29810000D01*
X130310000Y-30210000D02*
X130310000Y-28970000D01*
X130150000Y-30370000D02*
X130310000Y-30210000D01*
X128050000Y-30970000D02*
X128050000Y-30940000D01*
X129770000Y-32690000D02*
X128050000Y-30970000D01*
X131900000Y-31280000D02*
X131900000Y-33830000D01*
X131670000Y-31050000D02*
X131900000Y-31280000D01*
X132510000Y-29570000D02*
X132510000Y-28690000D01*
X133270000Y-30330000D02*
X132510000Y-29570000D01*
X133310000Y-34940000D02*
X133310000Y-32690000D01*
X133160000Y-35090000D02*
X133310000Y-34940000D01*
X135160000Y-34030000D02*
X135160000Y-37030000D01*
X135100000Y-33970000D02*
X135160000Y-34030000D01*
X134940000Y-29190000D02*
X134940000Y-31440000D01*
X135010000Y-29120000D02*
X134940000Y-29190000D01*
X132140000Y-27450000D02*
X133750000Y-27450000D01*
X131530000Y-26840000D02*
X132140000Y-27450000D01*
X134210000Y-25420000D02*
X132610000Y-25420000D01*
X134290000Y-25340000D02*
X134210000Y-25420000D01*
X137300000Y-27130000D02*
X135190000Y-27130000D01*
X137950000Y-28210000D02*
X137950000Y-27940000D01*
X137200000Y-28960000D02*
X137950000Y-28210000D01*
X138140000Y-31700000D02*
X138140000Y-30950000D01*
X137120000Y-32720000D02*
X138140000Y-31700000D01*
X137970000Y-36270000D02*
X137970000Y-34460000D01*
X137220000Y-37020000D02*
X137970000Y-36270000D01*
X137910000Y-33480000D02*
X137910000Y-39950000D01*
X139780000Y-31610000D02*
X137910000Y-33480000D01*
X155150000Y-43280000D02*
X155150000Y-46210000D01*
X155120000Y-43250000D02*
X155150000Y-43280000D01*
X153980000Y-43540000D02*
X153980000Y-45260000D01*
X153330000Y-42890000D02*
X153980000Y-43540000D01*
X152990000Y-39110000D02*
X152990000Y-36620000D01*
X153360000Y-39480000D02*
X152990000Y-39110000D01*
X155100000Y-37690000D02*
X155100000Y-41130000D01*
X154940000Y-37530000D02*
X155100000Y-37690000D01*
X152440000Y-30700000D02*
X152440000Y-33050000D01*
X152520000Y-30620000D02*
X152440000Y-30700000D01*
X153110000Y-25200000D02*
X153110000Y-27380000D01*
X153470000Y-24840000D02*
X153110000Y-25200000D01*
X155180000Y-27770000D02*
X155180000Y-24890000D01*
X155010000Y-27940000D02*
X155180000Y-27770000D01*
X154290000Y-33140000D02*
X154290000Y-30400000D01*
X153900000Y-33530000D02*
X154290000Y-33140000D01*
X141430000Y-25310000D02*
X141430000Y-29090000D01*
X145280000Y-35280000D02*
X145280000Y-39200000D01*
X145450000Y-35110000D02*
X145280000Y-35280000D01*
X145620000Y-26880000D02*
X145620000Y-31150000D01*
X145680000Y-26820000D02*
X145620000Y-26880000D01*
X143780000Y-29200000D02*
X143780000Y-25120000D01*
X143410000Y-29570000D02*
X143780000Y-29200000D01*
X143140000Y-36950000D02*
X143140000Y-33190000D01*
X142890000Y-37200000D02*
X143140000Y-36950000D01*
X145870000Y-41070000D02*
X142830000Y-41070000D01*
X146040000Y-41240000D02*
X145870000Y-41070000D01*
X145100000Y-45850000D02*
X145650000Y-45850000D01*
X143030000Y-43780000D02*
X145100000Y-45850000D01*
X140780000Y-40390000D02*
X140780000Y-41800000D01*
X140280000Y-39890000D02*
X140780000Y-40390000D01*
X140700000Y-33020000D02*
X140700000Y-36880000D01*
X140680000Y-33000000D02*
X140700000Y-33020000D01*
X141430000Y-29090000D02*
X141240000Y-29280000D01*
D27*
X165520000Y-49930000D02*
X165520000Y-49570000D01*
X171980000Y-48150000D02*
X171980000Y-47240000D01*
X171850000Y-48280000D02*
X171980000Y-48150000D01*
X169240000Y-47340000D02*
X170260000Y-47340000D01*
X168600000Y-47980000D02*
X169240000Y-47340000D01*
X166780000Y-47400000D02*
X166780000Y-47240000D01*
X165980000Y-48200000D02*
X166780000Y-47400000D01*
X162310000Y-47320000D02*
X164970000Y-47320000D01*
X161790000Y-47840000D02*
X162310000Y-47320000D01*
X164000000Y-48050000D02*
X163250000Y-48050000D01*
X165520000Y-49570000D02*
X164000000Y-48050000D01*
X158790000Y-56160000D02*
X157700000Y-56160000D01*
X158940000Y-56010000D02*
X158790000Y-56160000D01*
X157960000Y-54560000D02*
X158150000Y-54560000D01*
X157380000Y-55140000D02*
X157960000Y-54560000D01*
X156040000Y-54780000D02*
X156040000Y-55720000D01*
X156820000Y-54000000D02*
X156040000Y-54780000D01*
X164000000Y-56070000D02*
X164100000Y-56070000D01*
X161830000Y-53900000D02*
X164000000Y-56070000D01*
X164150000Y-54430000D02*
X164150000Y-53720000D01*
X165060000Y-55340000D02*
X164150000Y-54430000D01*
X165250000Y-53220000D02*
X165250000Y-52830000D01*
X166310000Y-54280000D02*
X165250000Y-53220000D01*
X166990000Y-52440000D02*
X166990000Y-53320000D01*
X167720000Y-51710000D02*
X166990000Y-52440000D01*
X168870000Y-51190000D02*
X168870000Y-52050000D01*
X169360000Y-50700000D02*
X168870000Y-51190000D01*
X171050000Y-50060000D02*
X171050000Y-50530000D01*
X171160000Y-49950000D02*
X171050000Y-50060000D01*
X168640000Y-49800000D02*
X169450000Y-49800000D01*
X167980000Y-50460000D02*
X168640000Y-49800000D01*
X166340000Y-50750000D02*
X166340000Y-51390000D01*
X165520000Y-49930000D02*
X166340000Y-50750000D01*
X162150000Y-49930000D02*
X162260000Y-49930000D01*
X161680000Y-50400000D02*
X162150000Y-49930000D01*
X160400000Y-51180000D02*
X160400000Y-49990000D01*
X160080000Y-51500000D02*
X160400000Y-51180000D01*
X163660000Y-52520000D02*
X163310000Y-52870000D01*
X163660000Y-52460000D02*
X163660000Y-52520000D01*
X164210000Y-51910000D02*
X163660000Y-52460000D01*
X152180000Y-59560000D02*
X152180000Y-60450000D01*
X151950000Y-59330000D02*
X152180000Y-59560000D01*
X153560000Y-58460000D02*
X153560000Y-59440000D01*
X153380000Y-58280000D02*
X153560000Y-58460000D01*
X150610000Y-59620000D02*
X150610000Y-58240000D01*
X153080000Y-61390000D02*
X150790000Y-61390000D01*
X153210000Y-61260000D02*
X153080000Y-61390000D01*
X154110000Y-62320000D02*
X154110000Y-60230000D01*
X154170000Y-62380000D02*
X154110000Y-62320000D01*
X149580000Y-62410000D02*
X151610000Y-62410000D01*
X149500000Y-62330000D02*
X149580000Y-62410000D01*
X154500000Y-59520000D02*
X154500000Y-59530000D01*
X149550000Y-60270000D02*
X149550000Y-58800000D01*
X149530000Y-60290000D02*
X149550000Y-60270000D01*
X149550000Y-57410000D02*
X149550000Y-58800000D01*
X154370000Y-57350000D02*
X154340000Y-57380000D01*
X154340000Y-57380000D02*
X152200000Y-57380000D01*
X149540000Y-57400000D02*
X149550000Y-57410000D01*
D28*
X167255000Y-52725000D02*
X166145000Y-52725000D01*
X163440000Y-50250000D02*
X166780000Y-50250000D01*
X163070000Y-50620000D02*
X163440000Y-50250000D01*
X166145000Y-52725000D02*
X163820000Y-55050000D01*
X173990000Y-56640000D02*
X171170000Y-56640000D01*
X160280000Y-35360000D02*
X151490000Y-35360000D01*
X161020000Y-34620000D02*
X160280000Y-35360000D01*
X166780000Y-41640000D02*
X162830000Y-37690000D01*
X166780000Y-50250000D02*
X166780000Y-41640000D01*
X171170000Y-56640000D02*
X167255000Y-52725000D01*
X136300000Y-63370000D02*
X136290000Y-63370000D01*
D27*
X110900000Y-33450000D02*
X109700000Y-33450000D01*
X115300000Y-45175000D02*
X116775000Y-45175000D01*
X113900000Y-46575000D02*
X115300000Y-45175000D01*
X113900000Y-44950000D02*
X113900000Y-46575000D01*
X114700000Y-44150000D02*
X113900000Y-44950000D01*
X113275000Y-38275000D02*
X113275000Y-41400000D01*
X112775000Y-37775000D02*
X113275000Y-38275000D01*
X108050000Y-41875000D02*
X108050000Y-43175000D01*
X104225000Y-38050000D02*
X108050000Y-41875000D01*
X98775000Y-42200000D02*
X100600000Y-42200000D01*
X96975000Y-40400000D02*
X98775000Y-42200000D01*
X109700000Y-33450000D02*
X108775000Y-32525000D01*
X104275000Y-32425000D02*
X98550000Y-38150000D01*
X98550000Y-38150000D02*
X97075000Y-38150000D01*
X97125000Y-33450000D02*
X97550000Y-33025000D01*
X97550000Y-33025000D02*
X102000000Y-33025000D01*
X102000000Y-32650000D02*
X102000000Y-33025000D01*
X100050000Y-30700000D02*
X102000000Y-32650000D01*
X95000000Y-36200000D02*
X95000000Y-33350000D01*
X94375000Y-36825000D02*
X95000000Y-36200000D01*
X93950000Y-43150000D02*
X94325000Y-43150000D01*
X91650000Y-40850000D02*
X93950000Y-43150000D01*
X89950000Y-36500000D02*
X91850000Y-36500000D01*
X87550000Y-34100000D02*
X89950000Y-36500000D01*
X83125000Y-37575000D02*
X87450000Y-37575000D01*
X82900000Y-37800000D02*
X83125000Y-37575000D01*
X91500000Y-32150000D02*
X83550000Y-32150000D01*
X92625000Y-31025000D02*
X91500000Y-32150000D01*
D26*
X140940000Y-67180000D02*
X147500000Y-67180000D01*
X139140000Y-65380000D02*
X140940000Y-67180000D01*
X139140000Y-59000000D02*
X139140000Y-65380000D01*
X141370000Y-56770000D02*
X139140000Y-59000000D01*
X144940000Y-56770000D02*
X141370000Y-56770000D01*
X145300000Y-57130000D02*
X144940000Y-56770000D01*
X119490000Y-23570000D02*
X119490000Y-24530000D01*
X119900000Y-23160000D02*
X119490000Y-23570000D01*
X167100000Y-23160000D02*
X119900000Y-23160000D01*
X168450000Y-24510000D02*
X167100000Y-23160000D01*
D29*
X142970000Y-52720000D02*
X141990000Y-53700000D01*
D27*
X163790000Y-58700000D02*
X164035000Y-58455000D01*
X164035000Y-58455000D02*
X163790000Y-58700000D01*
X163790000Y-58700000D02*
X163790000Y-58210000D01*
X142970000Y-52720000D02*
X142300000Y-52720000D01*
X142300000Y-52720000D02*
X141390000Y-53630000D01*
X152480000Y-47210000D02*
X153210000Y-47210000D01*
X152480000Y-46740000D02*
X152480000Y-47210000D01*
X153210000Y-47210000D02*
X153000000Y-47000000D01*
X152690000Y-47000000D02*
X152690000Y-47210000D01*
X153000000Y-47000000D02*
X152690000Y-47000000D01*
D29*
X151300000Y-47210000D02*
X152690000Y-47210000D01*
X152690000Y-47210000D02*
X153210000Y-47210000D01*
D27*
X149780000Y-46710000D02*
X149780000Y-47210000D01*
X149780000Y-47210000D02*
X149780000Y-46710000D01*
X149780000Y-46710000D02*
X149780000Y-47210000D01*
D29*
X153210000Y-47210000D02*
X159960000Y-53960000D01*
X159960000Y-54380000D02*
X163790000Y-58210000D01*
X163790000Y-58210000D02*
X165200000Y-59620000D01*
X159960000Y-53960000D02*
X159960000Y-54380000D01*
X148480000Y-47210000D02*
X149780000Y-47210000D01*
X149780000Y-47210000D02*
X151300000Y-47210000D01*
X142970000Y-52720000D02*
X148480000Y-47210000D01*
D30*
G36*
X118924315Y-23004315D02*
X118750896Y-23263853D01*
X118733911Y-23349243D01*
X118462740Y-23530434D01*
X118220000Y-23893720D01*
X117977260Y-23530434D01*
X117518655Y-23224004D01*
X116977694Y-23116400D01*
X116922306Y-23116400D01*
X116381345Y-23224004D01*
X115922740Y-23530434D01*
X115680000Y-23893720D01*
X115437260Y-23530434D01*
X114978655Y-23224004D01*
X114437694Y-23116400D01*
X114382306Y-23116400D01*
X113841345Y-23224004D01*
X113382740Y-23530434D01*
X113140000Y-23893720D01*
X112897260Y-23530434D01*
X112438655Y-23224004D01*
X111897694Y-23116400D01*
X111842306Y-23116400D01*
X111301345Y-23224004D01*
X110842740Y-23530434D01*
X110600000Y-23893720D01*
X110357260Y-23530434D01*
X109898655Y-23224004D01*
X109357694Y-23116400D01*
X109302306Y-23116400D01*
X108761345Y-23224004D01*
X108308031Y-23526899D01*
X108211425Y-23293673D01*
X108026327Y-23108574D01*
X107784484Y-23008400D01*
X107058500Y-23008400D01*
X106894000Y-23172900D01*
X106894000Y-24426000D01*
X106914000Y-24426000D01*
X106914000Y-24634000D01*
X106894000Y-24634000D01*
X106894000Y-26966000D01*
X106914000Y-26966000D01*
X106914000Y-27174000D01*
X106894000Y-27174000D01*
X106894000Y-28423549D01*
X107130195Y-28553090D01*
X107671853Y-28310010D01*
X108079257Y-27878149D01*
X108115834Y-27789841D01*
X108302740Y-28069566D01*
X108761345Y-28375996D01*
X109302306Y-28483600D01*
X109357694Y-28483600D01*
X109898655Y-28375996D01*
X110357260Y-28069566D01*
X110600000Y-27706280D01*
X110842740Y-28069566D01*
X111301345Y-28375996D01*
X111842306Y-28483600D01*
X111897694Y-28483600D01*
X112438655Y-28375996D01*
X112897260Y-28069566D01*
X113140000Y-27706280D01*
X113382740Y-28069566D01*
X113841345Y-28375996D01*
X114382306Y-28483600D01*
X114437694Y-28483600D01*
X114978655Y-28375996D01*
X115437260Y-28069566D01*
X115680000Y-27706280D01*
X115922740Y-28069566D01*
X116381345Y-28375996D01*
X116922306Y-28483600D01*
X116977694Y-28483600D01*
X117518655Y-28375996D01*
X117977260Y-28069566D01*
X118220000Y-27706280D01*
X118462740Y-28069566D01*
X118921345Y-28375996D01*
X119462306Y-28483600D01*
X119517694Y-28483600D01*
X120058655Y-28375996D01*
X120517260Y-28069566D01*
X120760000Y-27706280D01*
X121002740Y-28069566D01*
X121461345Y-28375996D01*
X122002306Y-28483600D01*
X122057694Y-28483600D01*
X122598655Y-28375996D01*
X123057260Y-28069566D01*
X123300000Y-27706280D01*
X123542740Y-28069566D01*
X124001345Y-28375996D01*
X124542306Y-28483600D01*
X124597694Y-28483600D01*
X125138655Y-28375996D01*
X125597260Y-28069566D01*
X125840000Y-27706280D01*
X126082740Y-28069566D01*
X126541345Y-28375996D01*
X127082306Y-28483600D01*
X127137694Y-28483600D01*
X127678655Y-28375996D01*
X128137260Y-28069566D01*
X128380000Y-27706280D01*
X128622740Y-28069566D01*
X129081345Y-28375996D01*
X129622306Y-28483600D01*
X129677694Y-28483600D01*
X130218655Y-28375996D01*
X130677260Y-28069566D01*
X130763833Y-27940000D01*
X146638706Y-27940000D01*
X146746310Y-28480961D01*
X147052740Y-28939566D01*
X147511345Y-29245996D01*
X148052306Y-29353600D01*
X148107694Y-29353600D01*
X148648655Y-29245996D01*
X149107260Y-28939566D01*
X149350000Y-28576280D01*
X149592740Y-28939566D01*
X150051345Y-29245996D01*
X150592306Y-29353600D01*
X150647694Y-29353600D01*
X151188655Y-29245996D01*
X151647260Y-28939566D01*
X151953690Y-28480961D01*
X152061294Y-27940000D01*
X151953690Y-27399039D01*
X151647260Y-26940434D01*
X151242527Y-26670000D01*
X151647260Y-26399566D01*
X151953690Y-25940961D01*
X152061294Y-25400000D01*
X151953690Y-24859039D01*
X151647260Y-24400434D01*
X151188655Y-24094004D01*
X150647694Y-23986400D01*
X150592306Y-23986400D01*
X150051345Y-24094004D01*
X149592740Y-24400434D01*
X149503829Y-24533499D01*
X149466024Y-24332582D01*
X149345568Y-24145388D01*
X149161773Y-24019806D01*
X148943600Y-23975625D01*
X147216400Y-23975625D01*
X147012582Y-24013976D01*
X146825388Y-24134432D01*
X146699806Y-24318227D01*
X146655625Y-24536400D01*
X146655625Y-26263600D01*
X146693976Y-26467418D01*
X146814432Y-26654612D01*
X146998227Y-26780194D01*
X147216400Y-26824375D01*
X147226435Y-26824375D01*
X147052740Y-26940434D01*
X146746310Y-27399039D01*
X146638706Y-27940000D01*
X130763833Y-27940000D01*
X130983690Y-27610961D01*
X131091294Y-27070000D01*
X130983690Y-26529039D01*
X130677260Y-26070434D01*
X130272527Y-25800000D01*
X130677260Y-25529566D01*
X130983690Y-25070961D01*
X131091294Y-24530000D01*
X130983690Y-23989039D01*
X130964287Y-23960000D01*
X135048947Y-23960000D01*
X134969806Y-24075827D01*
X134925625Y-24294000D01*
X134925625Y-26326000D01*
X134963976Y-26529818D01*
X135084432Y-26717012D01*
X135268227Y-26842594D01*
X135486400Y-26886775D01*
X137213600Y-26886775D01*
X137417418Y-26848424D01*
X137604612Y-26727968D01*
X137730194Y-26544173D01*
X137774375Y-26326000D01*
X137774375Y-26318951D01*
X137890434Y-26492646D01*
X138349039Y-26799076D01*
X138890000Y-26906680D01*
X139430961Y-26799076D01*
X139889566Y-26492646D01*
X140095212Y-26184875D01*
X140105927Y-26217029D01*
X140495500Y-26666287D01*
X141027342Y-26932264D01*
X141089806Y-26945483D01*
X141326000Y-26815509D01*
X141326000Y-25414000D01*
X141534000Y-25414000D01*
X141534000Y-26815509D01*
X141770194Y-26945483D01*
X141832658Y-26932264D01*
X142364500Y-26666287D01*
X142754073Y-26217029D01*
X142942068Y-25652885D01*
X142788750Y-25414000D01*
X141534000Y-25414000D01*
X141326000Y-25414000D01*
X141306000Y-25414000D01*
X141306000Y-25206000D01*
X141326000Y-25206000D01*
X141326000Y-25186000D01*
X141534000Y-25186000D01*
X141534000Y-25206000D01*
X142788750Y-25206000D01*
X142942068Y-24967115D01*
X142754073Y-24402971D01*
X142369952Y-23960000D01*
X156879093Y-23960000D01*
X156859806Y-23988227D01*
X156815625Y-24206400D01*
X156815625Y-25933600D01*
X156853976Y-26137418D01*
X156974432Y-26324612D01*
X157158227Y-26450194D01*
X157376400Y-26494375D01*
X157386435Y-26494375D01*
X157212740Y-26610434D01*
X156906310Y-27069039D01*
X156798706Y-27610000D01*
X156906310Y-28150961D01*
X157212740Y-28609566D01*
X157671345Y-28915996D01*
X158212306Y-29023600D01*
X158267694Y-29023600D01*
X158808655Y-28915996D01*
X159267260Y-28609566D01*
X159510000Y-28246280D01*
X159752740Y-28609566D01*
X160211345Y-28915996D01*
X160752306Y-29023600D01*
X160807694Y-29023600D01*
X161348655Y-28915996D01*
X161807260Y-28609566D01*
X162050000Y-28246280D01*
X162292740Y-28609566D01*
X162751345Y-28915996D01*
X163292306Y-29023600D01*
X163347694Y-29023600D01*
X163888655Y-28915996D01*
X164347260Y-28609566D01*
X164590000Y-28246280D01*
X164832740Y-28609566D01*
X165291345Y-28915996D01*
X165832306Y-29023600D01*
X165887694Y-29023600D01*
X166428655Y-28915996D01*
X166887260Y-28609566D01*
X167193690Y-28150961D01*
X167274908Y-27742649D01*
X171249350Y-27742649D01*
X171819051Y-29121429D01*
X172873022Y-30177242D01*
X174250806Y-30749348D01*
X175742649Y-30750650D01*
X177121429Y-30180949D01*
X178177242Y-29126978D01*
X178749348Y-27749194D01*
X178750650Y-26257351D01*
X178180949Y-24878571D01*
X177126978Y-23822758D01*
X175749194Y-23250652D01*
X174257351Y-23249350D01*
X172878571Y-23819051D01*
X171822758Y-24873022D01*
X171250652Y-26250806D01*
X171249350Y-27742649D01*
X167274908Y-27742649D01*
X167301294Y-27610000D01*
X167193690Y-27069039D01*
X166887260Y-26610434D01*
X166482527Y-26340000D01*
X166887260Y-26069566D01*
X167193690Y-25610961D01*
X167301294Y-25070000D01*
X167193690Y-24529039D01*
X166903765Y-24095135D01*
X167587148Y-24778519D01*
X167686572Y-25019143D01*
X167939525Y-25272538D01*
X168270194Y-25409843D01*
X168628236Y-25410156D01*
X168959143Y-25273428D01*
X169212538Y-25020475D01*
X169349843Y-24689806D01*
X169350156Y-24331764D01*
X169213428Y-24000857D01*
X168960475Y-23747462D01*
X168718255Y-23646884D01*
X167696370Y-22625000D01*
X179375000Y-22625000D01*
X179375000Y-121375000D01*
X80625000Y-121375000D01*
X80625000Y-117742649D01*
X81249350Y-117742649D01*
X81819051Y-119121429D01*
X82873022Y-120177242D01*
X84250806Y-120749348D01*
X85742649Y-120750650D01*
X87121429Y-120180949D01*
X88177242Y-119126978D01*
X88749348Y-117749194D01*
X88750650Y-116257351D01*
X88480691Y-115604000D01*
X152501070Y-115604000D01*
X152501070Y-116604760D01*
X152705127Y-117422625D01*
X153206635Y-118100144D01*
X153929243Y-118534171D01*
X154219048Y-118613317D01*
X154554940Y-118491415D01*
X154554940Y-115604000D01*
X154762940Y-115604000D01*
X154762940Y-118491415D01*
X155098832Y-118613317D01*
X155388637Y-118534171D01*
X156111245Y-118100144D01*
X156612753Y-117422625D01*
X156638870Y-117317947D01*
X156664987Y-117422625D01*
X157166495Y-118100144D01*
X157889103Y-118534171D01*
X158178908Y-118613317D01*
X158514800Y-118491415D01*
X158514800Y-115604000D01*
X154762940Y-115604000D01*
X154554940Y-115604000D01*
X152501070Y-115604000D01*
X88480691Y-115604000D01*
X88180949Y-114878571D01*
X87698462Y-114395240D01*
X152501070Y-114395240D01*
X152501070Y-115396000D01*
X154554940Y-115396000D01*
X154554940Y-112508585D01*
X154762940Y-112508585D01*
X154762940Y-115396000D01*
X158514800Y-115396000D01*
X158514800Y-112508585D01*
X158722800Y-112508585D01*
X158722800Y-115396000D01*
X158742800Y-115396000D01*
X158742800Y-115604000D01*
X158722800Y-115604000D01*
X158722800Y-118491415D01*
X159058692Y-118613317D01*
X159348497Y-118534171D01*
X160071105Y-118100144D01*
X160572613Y-117422625D01*
X160645057Y-117132268D01*
X160687367Y-117344976D01*
X161131723Y-118010002D01*
X161796749Y-118454358D01*
X162581200Y-118610395D01*
X163365651Y-118454358D01*
X164030677Y-118010002D01*
X164475033Y-117344976D01*
X164561130Y-116912137D01*
X164647227Y-117344976D01*
X165091583Y-118010002D01*
X165756609Y-118454358D01*
X166541060Y-118610395D01*
X167325511Y-118454358D01*
X167990537Y-118010002D01*
X168169176Y-117742649D01*
X171249350Y-117742649D01*
X171819051Y-119121429D01*
X172873022Y-120177242D01*
X174250806Y-120749348D01*
X175742649Y-120750650D01*
X177121429Y-120180949D01*
X178177242Y-119126978D01*
X178749348Y-117749194D01*
X178750650Y-116257351D01*
X178180949Y-114878571D01*
X177126978Y-113822758D01*
X175749194Y-113250652D01*
X174257351Y-113249350D01*
X172878571Y-113819051D01*
X171822758Y-114873022D01*
X171250652Y-116250806D01*
X171249350Y-117742649D01*
X168169176Y-117742649D01*
X168434893Y-117344976D01*
X168590930Y-116560525D01*
X168590930Y-114439475D01*
X168434893Y-113655024D01*
X167990537Y-112989998D01*
X167325511Y-112545642D01*
X166541060Y-112389605D01*
X165756609Y-112545642D01*
X165091583Y-112989998D01*
X164647227Y-113655024D01*
X164561130Y-114087863D01*
X164475033Y-113655024D01*
X164030677Y-112989998D01*
X163365651Y-112545642D01*
X162581200Y-112389605D01*
X161796749Y-112545642D01*
X161131723Y-112989998D01*
X160687367Y-113655024D01*
X160645057Y-113867732D01*
X160572613Y-113577375D01*
X160071105Y-112899856D01*
X159348497Y-112465829D01*
X159058692Y-112386683D01*
X158722800Y-112508585D01*
X158514800Y-112508585D01*
X158178908Y-112386683D01*
X157889103Y-112465829D01*
X157166495Y-112899856D01*
X156664987Y-113577375D01*
X156638870Y-113682053D01*
X156612753Y-113577375D01*
X156111245Y-112899856D01*
X155388637Y-112465829D01*
X155098832Y-112386683D01*
X154762940Y-112508585D01*
X154554940Y-112508585D01*
X154219048Y-112386683D01*
X153929243Y-112465829D01*
X153206635Y-112899856D01*
X152705127Y-113577375D01*
X152501070Y-114395240D01*
X87698462Y-114395240D01*
X87126978Y-113822758D01*
X85749194Y-113250652D01*
X84257351Y-113249350D01*
X82878571Y-113819051D01*
X81822758Y-114873022D01*
X81250652Y-116250806D01*
X81249350Y-117742649D01*
X80625000Y-117742649D01*
X80625000Y-72660000D01*
X88149225Y-72660000D01*
X88149225Y-74860000D01*
X88182387Y-75036241D01*
X88149225Y-75200000D01*
X88149225Y-77400000D01*
X88182387Y-77576241D01*
X88149225Y-77740000D01*
X88149225Y-79940000D01*
X88182387Y-80116241D01*
X88149225Y-80280000D01*
X88149225Y-82480000D01*
X88182387Y-82656241D01*
X88149225Y-82820000D01*
X88149225Y-85020000D01*
X88182387Y-85196241D01*
X88149225Y-85360000D01*
X88149225Y-87560000D01*
X88182387Y-87736241D01*
X88149225Y-87900000D01*
X88149225Y-90100000D01*
X88182387Y-90276241D01*
X88149225Y-90440000D01*
X88149225Y-92640000D01*
X88182387Y-92816241D01*
X88149225Y-92980000D01*
X88149225Y-95180000D01*
X88182387Y-95356241D01*
X88149225Y-95520000D01*
X88149225Y-97720000D01*
X88182387Y-97896241D01*
X88149225Y-98060000D01*
X88149225Y-100260000D01*
X88182387Y-100436241D01*
X88149225Y-100600000D01*
X88149225Y-102800000D01*
X88182387Y-102976241D01*
X88149225Y-103140000D01*
X88149225Y-105340000D01*
X88182387Y-105516241D01*
X88149225Y-105680000D01*
X88149225Y-107880000D01*
X88182387Y-108056241D01*
X88149225Y-108220000D01*
X88149225Y-110420000D01*
X88187576Y-110623818D01*
X88308032Y-110811012D01*
X88491827Y-110936594D01*
X88710000Y-110980775D01*
X90910000Y-110980775D01*
X91086241Y-110947613D01*
X91250000Y-110980775D01*
X93450000Y-110980775D01*
X93626241Y-110947613D01*
X93790000Y-110980775D01*
X95990000Y-110980775D01*
X96166241Y-110947613D01*
X96330000Y-110980775D01*
X98530000Y-110980775D01*
X98706241Y-110947613D01*
X98870000Y-110980775D01*
X101070000Y-110980775D01*
X101246241Y-110947613D01*
X101410000Y-110980775D01*
X103610000Y-110980775D01*
X103786241Y-110947613D01*
X103950000Y-110980775D01*
X106150000Y-110980775D01*
X106326241Y-110947613D01*
X106490000Y-110980775D01*
X108690000Y-110980775D01*
X108866241Y-110947613D01*
X109030000Y-110980775D01*
X111230000Y-110980775D01*
X111406241Y-110947613D01*
X111570000Y-110980775D01*
X113770000Y-110980775D01*
X113946241Y-110947613D01*
X114110000Y-110980775D01*
X116310000Y-110980775D01*
X116486241Y-110947613D01*
X116650000Y-110980775D01*
X118850000Y-110980775D01*
X119026241Y-110947613D01*
X119190000Y-110980775D01*
X121390000Y-110980775D01*
X121566241Y-110947613D01*
X121730000Y-110980775D01*
X123930000Y-110980775D01*
X124106241Y-110947613D01*
X124270000Y-110980775D01*
X126470000Y-110980775D01*
X126646241Y-110947613D01*
X126810000Y-110980775D01*
X129010000Y-110980775D01*
X129186241Y-110947613D01*
X129350000Y-110980775D01*
X131550000Y-110980775D01*
X131726241Y-110947613D01*
X131890000Y-110980775D01*
X134090000Y-110980775D01*
X134266241Y-110947613D01*
X134430000Y-110980775D01*
X136630000Y-110980775D01*
X136806241Y-110947613D01*
X136970000Y-110980775D01*
X139170000Y-110980775D01*
X139346241Y-110947613D01*
X139510000Y-110980775D01*
X141710000Y-110980775D01*
X141886241Y-110947613D01*
X142050000Y-110980775D01*
X144250000Y-110980775D01*
X144453818Y-110942424D01*
X144641012Y-110821968D01*
X144766594Y-110638173D01*
X144810775Y-110420000D01*
X144810775Y-108220000D01*
X144777613Y-108043759D01*
X144810775Y-107880000D01*
X144810775Y-105680000D01*
X144777613Y-105503759D01*
X144810775Y-105340000D01*
X144810775Y-103140000D01*
X144777613Y-102963759D01*
X144810775Y-102800000D01*
X144810775Y-100600000D01*
X144777613Y-100423759D01*
X144810775Y-100260000D01*
X144810775Y-98060000D01*
X144777613Y-97883759D01*
X144810775Y-97720000D01*
X144810775Y-95520000D01*
X144777613Y-95343759D01*
X144810775Y-95180000D01*
X144810775Y-92980000D01*
X144777613Y-92803759D01*
X144810775Y-92640000D01*
X144810775Y-90440000D01*
X144777613Y-90263759D01*
X144810775Y-90100000D01*
X144810775Y-87900000D01*
X144777613Y-87723759D01*
X144810775Y-87560000D01*
X144810775Y-85360000D01*
X144777613Y-85183759D01*
X144810775Y-85020000D01*
X144810775Y-82820000D01*
X144777613Y-82643759D01*
X144810775Y-82480000D01*
X144810775Y-80880195D01*
X172886910Y-80880195D01*
X173129990Y-81421853D01*
X173561851Y-81829257D01*
X173650159Y-81865834D01*
X173370434Y-82052740D01*
X173064004Y-82511345D01*
X172956400Y-83052306D01*
X172956400Y-83107694D01*
X173064004Y-83648655D01*
X173370434Y-84107260D01*
X173733720Y-84350000D01*
X173370434Y-84592740D01*
X173064004Y-85051345D01*
X172956400Y-85592306D01*
X172956400Y-85647694D01*
X173064004Y-86188655D01*
X173370434Y-86647260D01*
X173733720Y-86890000D01*
X173370434Y-87132740D01*
X173064004Y-87591345D01*
X172956400Y-88132306D01*
X172956400Y-88187694D01*
X173064004Y-88728655D01*
X173370434Y-89187260D01*
X173733720Y-89430000D01*
X173370434Y-89672740D01*
X173064004Y-90131345D01*
X172956400Y-90672306D01*
X172956400Y-90727694D01*
X173064004Y-91268655D01*
X173370434Y-91727260D01*
X173733720Y-91970000D01*
X173370434Y-92212740D01*
X173064004Y-92671345D01*
X172956400Y-93212306D01*
X172956400Y-93267694D01*
X173064004Y-93808655D01*
X173370434Y-94267260D01*
X173733720Y-94510000D01*
X173370434Y-94752740D01*
X173064004Y-95211345D01*
X172956400Y-95752306D01*
X172956400Y-95807694D01*
X173064004Y-96348655D01*
X173370434Y-96807260D01*
X173733720Y-97050000D01*
X173370434Y-97292740D01*
X173064004Y-97751345D01*
X172956400Y-98292306D01*
X172956400Y-98347694D01*
X173064004Y-98888655D01*
X173370434Y-99347260D01*
X173733720Y-99590000D01*
X173370434Y-99832740D01*
X173064004Y-100291345D01*
X172956400Y-100832306D01*
X172956400Y-100887694D01*
X173064004Y-101428655D01*
X173370434Y-101887260D01*
X173733720Y-102130000D01*
X173370434Y-102372740D01*
X173064004Y-102831345D01*
X172956400Y-103372306D01*
X172956400Y-103427694D01*
X173064004Y-103968655D01*
X173370434Y-104427260D01*
X173829039Y-104733690D01*
X174370000Y-104841294D01*
X174910961Y-104733690D01*
X175369566Y-104427260D01*
X175640000Y-104022527D01*
X175910434Y-104427260D01*
X176369039Y-104733690D01*
X176910000Y-104841294D01*
X177450961Y-104733690D01*
X177909566Y-104427260D01*
X178215996Y-103968655D01*
X178323600Y-103427694D01*
X178323600Y-103372306D01*
X178215996Y-102831345D01*
X177909566Y-102372740D01*
X177546280Y-102130000D01*
X177909566Y-101887260D01*
X178215996Y-101428655D01*
X178323600Y-100887694D01*
X178323600Y-100832306D01*
X178215996Y-100291345D01*
X177909566Y-99832740D01*
X177546280Y-99590000D01*
X177909566Y-99347260D01*
X178215996Y-98888655D01*
X178323600Y-98347694D01*
X178323600Y-98292306D01*
X178215996Y-97751345D01*
X177909566Y-97292740D01*
X177546280Y-97050000D01*
X177909566Y-96807260D01*
X178215996Y-96348655D01*
X178323600Y-95807694D01*
X178323600Y-95752306D01*
X178215996Y-95211345D01*
X177909566Y-94752740D01*
X177546280Y-94510000D01*
X177909566Y-94267260D01*
X178215996Y-93808655D01*
X178323600Y-93267694D01*
X178323600Y-93212306D01*
X178215996Y-92671345D01*
X177909566Y-92212740D01*
X177546280Y-91970000D01*
X177909566Y-91727260D01*
X178215996Y-91268655D01*
X178323600Y-90727694D01*
X178323600Y-90672306D01*
X178215996Y-90131345D01*
X177909566Y-89672740D01*
X177546280Y-89430000D01*
X177909566Y-89187260D01*
X178215996Y-88728655D01*
X178323600Y-88187694D01*
X178323600Y-88132306D01*
X178215996Y-87591345D01*
X177909566Y-87132740D01*
X177546280Y-86890000D01*
X177909566Y-86647260D01*
X178215996Y-86188655D01*
X178323600Y-85647694D01*
X178323600Y-85592306D01*
X178215996Y-85051345D01*
X177909566Y-84592740D01*
X177546280Y-84350000D01*
X177909566Y-84107260D01*
X178215996Y-83648655D01*
X178323600Y-83107694D01*
X178323600Y-83052306D01*
X178215996Y-82511345D01*
X177913101Y-82058031D01*
X178146327Y-81961425D01*
X178331426Y-81776327D01*
X178431600Y-81534484D01*
X178431600Y-80808500D01*
X178267100Y-80644000D01*
X177014000Y-80644000D01*
X177014000Y-80664000D01*
X176806000Y-80664000D01*
X176806000Y-80644000D01*
X174474000Y-80644000D01*
X174474000Y-80664000D01*
X174266000Y-80664000D01*
X174266000Y-80644000D01*
X173016451Y-80644000D01*
X172886910Y-80880195D01*
X144810775Y-80880195D01*
X144810775Y-80280000D01*
X144795686Y-80199805D01*
X172886910Y-80199805D01*
X173016451Y-80436000D01*
X174266000Y-80436000D01*
X174266000Y-79186891D01*
X174474000Y-79186891D01*
X174474000Y-80436000D01*
X176806000Y-80436000D01*
X176806000Y-79182900D01*
X177014000Y-79182900D01*
X177014000Y-80436000D01*
X178267100Y-80436000D01*
X178431600Y-80271500D01*
X178431600Y-79545516D01*
X178331426Y-79303673D01*
X178146327Y-79118575D01*
X177904485Y-79018400D01*
X177178500Y-79018400D01*
X177014000Y-79182900D01*
X176806000Y-79182900D01*
X176641500Y-79018400D01*
X175915515Y-79018400D01*
X175673673Y-79118575D01*
X175488574Y-79303673D01*
X175417120Y-79476180D01*
X175178149Y-79250743D01*
X174710194Y-79056917D01*
X174474000Y-79186891D01*
X174266000Y-79186891D01*
X174029806Y-79056917D01*
X173561851Y-79250743D01*
X173129990Y-79658147D01*
X172886910Y-80199805D01*
X144795686Y-80199805D01*
X144777613Y-80103759D01*
X144810775Y-79940000D01*
X144810775Y-77740000D01*
X144777613Y-77563759D01*
X144810775Y-77400000D01*
X144810775Y-75200000D01*
X144777613Y-75023759D01*
X144810775Y-74860000D01*
X144810775Y-72660000D01*
X144772424Y-72456182D01*
X144651968Y-72268988D01*
X144468173Y-72143406D01*
X144250000Y-72099225D01*
X142050000Y-72099225D01*
X141873759Y-72132387D01*
X141710000Y-72099225D01*
X139510000Y-72099225D01*
X139333759Y-72132387D01*
X139170000Y-72099225D01*
X136970000Y-72099225D01*
X136793759Y-72132387D01*
X136630000Y-72099225D01*
X134430000Y-72099225D01*
X134253759Y-72132387D01*
X134090000Y-72099225D01*
X131890000Y-72099225D01*
X131713759Y-72132387D01*
X131550000Y-72099225D01*
X129350000Y-72099225D01*
X129173759Y-72132387D01*
X129010000Y-72099225D01*
X126810000Y-72099225D01*
X126633759Y-72132387D01*
X126470000Y-72099225D01*
X124270000Y-72099225D01*
X124093759Y-72132387D01*
X123930000Y-72099225D01*
X121730000Y-72099225D01*
X121553759Y-72132387D01*
X121390000Y-72099225D01*
X119190000Y-72099225D01*
X119013759Y-72132387D01*
X118850000Y-72099225D01*
X116650000Y-72099225D01*
X116473759Y-72132387D01*
X116310000Y-72099225D01*
X114110000Y-72099225D01*
X113933759Y-72132387D01*
X113770000Y-72099225D01*
X111570000Y-72099225D01*
X111393759Y-72132387D01*
X111230000Y-72099225D01*
X109030000Y-72099225D01*
X108853759Y-72132387D01*
X108690000Y-72099225D01*
X106490000Y-72099225D01*
X106313759Y-72132387D01*
X106150000Y-72099225D01*
X103950000Y-72099225D01*
X103773759Y-72132387D01*
X103610000Y-72099225D01*
X101410000Y-72099225D01*
X101233759Y-72132387D01*
X101070000Y-72099225D01*
X98870000Y-72099225D01*
X98693759Y-72132387D01*
X98530000Y-72099225D01*
X96330000Y-72099225D01*
X96153759Y-72132387D01*
X95990000Y-72099225D01*
X93790000Y-72099225D01*
X93613759Y-72132387D01*
X93450000Y-72099225D01*
X91250000Y-72099225D01*
X91073759Y-72132387D01*
X90910000Y-72099225D01*
X88710000Y-72099225D01*
X88506182Y-72137576D01*
X88318988Y-72258032D01*
X88193406Y-72441827D01*
X88149225Y-72660000D01*
X80625000Y-72660000D01*
X80625000Y-61590952D01*
X83206683Y-61590952D01*
X83285829Y-61880757D01*
X83719856Y-62603365D01*
X84397375Y-63104873D01*
X85215240Y-63308930D01*
X86216000Y-63308930D01*
X86216000Y-61255060D01*
X86424000Y-61255060D01*
X86424000Y-63308930D01*
X87424760Y-63308930D01*
X88242625Y-63104873D01*
X88920144Y-62603365D01*
X89354171Y-61880757D01*
X89433317Y-61590952D01*
X89311415Y-61255060D01*
X86424000Y-61255060D01*
X86216000Y-61255060D01*
X83328585Y-61255060D01*
X83206683Y-61590952D01*
X80625000Y-61590952D01*
X80625000Y-57631092D01*
X83206683Y-57631092D01*
X83285829Y-57920897D01*
X83719856Y-58643505D01*
X84397375Y-59145013D01*
X84502053Y-59171130D01*
X84397375Y-59197247D01*
X83719856Y-59698755D01*
X83285829Y-60421363D01*
X83206683Y-60711168D01*
X83328585Y-61047060D01*
X86216000Y-61047060D01*
X86216000Y-57295200D01*
X86424000Y-57295200D01*
X86424000Y-61047060D01*
X89311415Y-61047060D01*
X89433317Y-60711168D01*
X89354171Y-60421363D01*
X88920144Y-59698755D01*
X88242625Y-59197247D01*
X88137947Y-59171130D01*
X88242625Y-59145013D01*
X88438532Y-59000000D01*
X138340000Y-59000000D01*
X138340000Y-65380000D01*
X138400896Y-65686147D01*
X138574315Y-65945685D01*
X140374314Y-67745685D01*
X140520854Y-67843600D01*
X140633853Y-67919104D01*
X140940000Y-67980000D01*
X146956272Y-67980000D01*
X146961165Y-67984902D01*
X147310204Y-68129835D01*
X147688138Y-68130165D01*
X148037429Y-67985841D01*
X148304902Y-67718835D01*
X148449835Y-67369796D01*
X148450165Y-66991862D01*
X148305841Y-66642571D01*
X148093642Y-66430000D01*
X174873320Y-66430000D01*
X174980924Y-66970961D01*
X175287354Y-67429566D01*
X175692087Y-67700000D01*
X175287354Y-67970434D01*
X174980924Y-68429039D01*
X174873320Y-68970000D01*
X174980924Y-69510961D01*
X175287354Y-69969566D01*
X175692087Y-70240000D01*
X175287354Y-70510434D01*
X174980924Y-70969039D01*
X174873320Y-71510000D01*
X174980924Y-72050961D01*
X175287354Y-72509566D01*
X175461049Y-72625625D01*
X175454000Y-72625625D01*
X175250182Y-72663976D01*
X175062988Y-72784432D01*
X174937406Y-72968227D01*
X174893225Y-73186400D01*
X174893225Y-74913600D01*
X174931576Y-75117418D01*
X175052032Y-75304612D01*
X175235827Y-75430194D01*
X175454000Y-75474375D01*
X177486000Y-75474375D01*
X177689818Y-75436024D01*
X177877012Y-75315568D01*
X178002594Y-75131773D01*
X178046775Y-74913600D01*
X178046775Y-73186400D01*
X178008424Y-72982582D01*
X177887968Y-72795388D01*
X177704173Y-72669806D01*
X177486000Y-72625625D01*
X177478951Y-72625625D01*
X177652646Y-72509566D01*
X177959076Y-72050961D01*
X178066680Y-71510000D01*
X177959076Y-70969039D01*
X177652646Y-70510434D01*
X177247913Y-70240000D01*
X177652646Y-69969566D01*
X177959076Y-69510961D01*
X178066680Y-68970000D01*
X177959076Y-68429039D01*
X177652646Y-67970434D01*
X177247913Y-67700000D01*
X177652646Y-67429566D01*
X177959076Y-66970961D01*
X178066680Y-66430000D01*
X177959076Y-65889039D01*
X177652646Y-65430434D01*
X177194041Y-65124004D01*
X176653080Y-65016400D01*
X176286920Y-65016400D01*
X175745959Y-65124004D01*
X175287354Y-65430434D01*
X174980924Y-65889039D01*
X174873320Y-66430000D01*
X148093642Y-66430000D01*
X148038835Y-66375098D01*
X147689796Y-66230165D01*
X147311862Y-66229835D01*
X146962571Y-66374159D01*
X146956720Y-66380000D01*
X141271371Y-66380000D01*
X139940000Y-65048630D01*
X139940000Y-59331370D01*
X141701371Y-57570000D01*
X144453902Y-57570000D01*
X144494159Y-57667429D01*
X144761165Y-57934902D01*
X145110204Y-58079835D01*
X145488138Y-58080165D01*
X145837429Y-57935841D01*
X146104902Y-57668835D01*
X146249835Y-57319796D01*
X146250165Y-56941862D01*
X146105841Y-56592571D01*
X145838835Y-56325098D01*
X145489796Y-56180165D01*
X145469516Y-56180147D01*
X145246147Y-56030896D01*
X144940000Y-55970000D01*
X141370000Y-55970000D01*
X141063853Y-56030896D01*
X140804314Y-56204315D01*
X138574315Y-58434315D01*
X138400896Y-58693853D01*
X138340000Y-59000000D01*
X88438532Y-59000000D01*
X88920144Y-58643505D01*
X89354171Y-57920897D01*
X89433317Y-57631092D01*
X89311415Y-57295200D01*
X86424000Y-57295200D01*
X86216000Y-57295200D01*
X83328585Y-57295200D01*
X83206683Y-57631092D01*
X80625000Y-57631092D01*
X80625000Y-56751308D01*
X83206683Y-56751308D01*
X83328585Y-57087200D01*
X86216000Y-57087200D01*
X86216000Y-57067200D01*
X86424000Y-57067200D01*
X86424000Y-57087200D01*
X89311415Y-57087200D01*
X89433317Y-56751308D01*
X89354171Y-56461503D01*
X88920144Y-55738895D01*
X88242625Y-55237387D01*
X87952268Y-55164943D01*
X88164976Y-55122633D01*
X88830002Y-54678277D01*
X89274358Y-54013251D01*
X89430395Y-53228800D01*
X89387669Y-53014000D01*
X107073225Y-53014000D01*
X107073225Y-55046000D01*
X107111576Y-55249818D01*
X107232032Y-55437012D01*
X107415827Y-55562594D01*
X107634000Y-55606775D01*
X109666000Y-55606775D01*
X109869818Y-55568424D01*
X110057012Y-55447968D01*
X110182594Y-55264173D01*
X110189653Y-55229312D01*
X110560038Y-55476795D01*
X111159320Y-55596000D01*
X111220680Y-55596000D01*
X111819962Y-55476795D01*
X112328009Y-55137329D01*
X112667475Y-54629282D01*
X112786680Y-54030000D01*
X112667475Y-53430718D01*
X112455851Y-53114000D01*
X130153225Y-53114000D01*
X130153225Y-55146000D01*
X130191576Y-55349818D01*
X130312032Y-55537012D01*
X130495827Y-55662594D01*
X130714000Y-55706775D01*
X132746000Y-55706775D01*
X132949818Y-55668424D01*
X133137012Y-55547968D01*
X133262594Y-55364173D01*
X133269653Y-55329312D01*
X133640038Y-55576795D01*
X134239320Y-55696000D01*
X134300680Y-55696000D01*
X134899962Y-55576795D01*
X135408009Y-55237329D01*
X135747475Y-54729282D01*
X135866680Y-54130000D01*
X135781148Y-53700000D01*
X140439999Y-53700000D01*
X140557987Y-54293159D01*
X140893984Y-54796016D01*
X141396841Y-55132013D01*
X141990000Y-55250001D01*
X142583159Y-55132013D01*
X143086016Y-54796016D01*
X144066013Y-53816018D01*
X144066016Y-53816016D01*
X149122031Y-48760000D01*
X152567968Y-48760000D01*
X158465130Y-54657162D01*
X158527987Y-54973159D01*
X158863984Y-55476016D01*
X162693982Y-59306013D01*
X162693984Y-59306016D01*
X164103984Y-60716015D01*
X164606841Y-61052013D01*
X165200000Y-61170001D01*
X165793159Y-61052013D01*
X166296015Y-60716015D01*
X166632013Y-60213159D01*
X166750001Y-59620000D01*
X166632013Y-59026841D01*
X166296015Y-58523984D01*
X164886016Y-57113984D01*
X164886013Y-57113982D01*
X164680532Y-56908500D01*
X172468400Y-56908500D01*
X172468400Y-57634484D01*
X172568574Y-57876327D01*
X172753673Y-58061425D01*
X172995515Y-58161600D01*
X173721500Y-58161600D01*
X173886000Y-57997100D01*
X173886000Y-56744000D01*
X174094000Y-56744000D01*
X174094000Y-57997100D01*
X174258500Y-58161600D01*
X174984485Y-58161600D01*
X175226327Y-58061425D01*
X175411426Y-57876327D01*
X175482880Y-57703820D01*
X175721851Y-57929257D01*
X176189806Y-58123083D01*
X176426000Y-57993109D01*
X176426000Y-56744000D01*
X176634000Y-56744000D01*
X176634000Y-57993109D01*
X176870194Y-58123083D01*
X177338149Y-57929257D01*
X177770010Y-57521853D01*
X178013090Y-56980195D01*
X177883549Y-56744000D01*
X176634000Y-56744000D01*
X176426000Y-56744000D01*
X174094000Y-56744000D01*
X173886000Y-56744000D01*
X172632900Y-56744000D01*
X172468400Y-56908500D01*
X164680532Y-56908500D01*
X163417548Y-55645516D01*
X172468400Y-55645516D01*
X172468400Y-56371500D01*
X172632900Y-56536000D01*
X173886000Y-56536000D01*
X173886000Y-56516000D01*
X174094000Y-56516000D01*
X174094000Y-56536000D01*
X176426000Y-56536000D01*
X176426000Y-56516000D01*
X176634000Y-56516000D01*
X176634000Y-56536000D01*
X177883549Y-56536000D01*
X178013090Y-56299805D01*
X177770010Y-55758147D01*
X177338149Y-55350743D01*
X177249841Y-55314166D01*
X177529566Y-55127260D01*
X177835996Y-54668655D01*
X177943600Y-54127694D01*
X177943600Y-54072306D01*
X177835996Y-53531345D01*
X177529566Y-53072740D01*
X177166280Y-52830000D01*
X177529566Y-52587260D01*
X177835996Y-52128655D01*
X177943600Y-51587694D01*
X177943600Y-51532306D01*
X177835996Y-50991345D01*
X177529566Y-50532740D01*
X177166280Y-50290000D01*
X177529566Y-50047260D01*
X177835996Y-49588655D01*
X177943600Y-49047694D01*
X177943600Y-48992306D01*
X177835996Y-48451345D01*
X177529566Y-47992740D01*
X177166280Y-47750000D01*
X177529566Y-47507260D01*
X177835996Y-47048655D01*
X177943600Y-46507694D01*
X177943600Y-46452306D01*
X177835996Y-45911345D01*
X177529566Y-45452740D01*
X177166280Y-45210000D01*
X177529566Y-44967260D01*
X177835996Y-44508655D01*
X177943600Y-43967694D01*
X177943600Y-43912306D01*
X177835996Y-43371345D01*
X177529566Y-42912740D01*
X177166280Y-42670000D01*
X177529566Y-42427260D01*
X177835996Y-41968655D01*
X177943600Y-41427694D01*
X177943600Y-41372306D01*
X177835996Y-40831345D01*
X177529566Y-40372740D01*
X177166280Y-40130000D01*
X177529566Y-39887260D01*
X177835996Y-39428655D01*
X177943600Y-38887694D01*
X177943600Y-38832306D01*
X177835996Y-38291345D01*
X177529566Y-37832740D01*
X177166280Y-37590000D01*
X177529566Y-37347260D01*
X177835996Y-36888655D01*
X177943600Y-36347694D01*
X177943600Y-36292306D01*
X177835996Y-35751345D01*
X177529566Y-35292740D01*
X177166280Y-35050000D01*
X177529566Y-34807260D01*
X177835996Y-34348655D01*
X177943600Y-33807694D01*
X177943600Y-33752306D01*
X177835996Y-33211345D01*
X177529566Y-32752740D01*
X177070961Y-32446310D01*
X176530000Y-32338706D01*
X175989039Y-32446310D01*
X175530434Y-32752740D01*
X175260000Y-33157473D01*
X174989566Y-32752740D01*
X174530961Y-32446310D01*
X173990000Y-32338706D01*
X173449039Y-32446310D01*
X172990434Y-32752740D01*
X172684004Y-33211345D01*
X172576400Y-33752306D01*
X172576400Y-33807694D01*
X172684004Y-34348655D01*
X172990434Y-34807260D01*
X173353720Y-35050000D01*
X172990434Y-35292740D01*
X172684004Y-35751345D01*
X172576400Y-36292306D01*
X172576400Y-36347694D01*
X172684004Y-36888655D01*
X172990434Y-37347260D01*
X173353720Y-37590000D01*
X172990434Y-37832740D01*
X172684004Y-38291345D01*
X172576400Y-38832306D01*
X172576400Y-38887694D01*
X172684004Y-39428655D01*
X172990434Y-39887260D01*
X173353720Y-40130000D01*
X172990434Y-40372740D01*
X172684004Y-40831345D01*
X172576400Y-41372306D01*
X172576400Y-41427694D01*
X172684004Y-41968655D01*
X172990434Y-42427260D01*
X173353720Y-42670000D01*
X172990434Y-42912740D01*
X172684004Y-43371345D01*
X172576400Y-43912306D01*
X172576400Y-43967694D01*
X172684004Y-44508655D01*
X172990434Y-44967260D01*
X173353720Y-45210000D01*
X172990434Y-45452740D01*
X172684004Y-45911345D01*
X172576400Y-46452306D01*
X172576400Y-46507694D01*
X172684004Y-47048655D01*
X172990434Y-47507260D01*
X173353720Y-47750000D01*
X172990434Y-47992740D01*
X172684004Y-48451345D01*
X172576400Y-48992306D01*
X172576400Y-49047694D01*
X172684004Y-49588655D01*
X172990434Y-50047260D01*
X173353720Y-50290000D01*
X172990434Y-50532740D01*
X172684004Y-50991345D01*
X172576400Y-51532306D01*
X172576400Y-51587694D01*
X172684004Y-52128655D01*
X172990434Y-52587260D01*
X173353720Y-52830000D01*
X172990434Y-53072740D01*
X172684004Y-53531345D01*
X172576400Y-54072306D01*
X172576400Y-54127694D01*
X172684004Y-54668655D01*
X172986899Y-55121969D01*
X172753673Y-55218575D01*
X172568574Y-55403673D01*
X172468400Y-55645516D01*
X163417548Y-55645516D01*
X161454869Y-53682837D01*
X161392013Y-53366841D01*
X161245712Y-53147885D01*
X161056016Y-52863984D01*
X161056013Y-52863982D01*
X154306016Y-46113984D01*
X153803159Y-45777987D01*
X153210000Y-45659999D01*
X153209995Y-45660000D01*
X148480005Y-45660000D01*
X148480000Y-45659999D01*
X147886841Y-45777987D01*
X147383984Y-46113984D01*
X147383982Y-46113987D01*
X141873984Y-51623984D01*
X141873982Y-51623987D01*
X140893984Y-52603984D01*
X140557987Y-53106841D01*
X140439999Y-53700000D01*
X135781148Y-53700000D01*
X135747475Y-53530718D01*
X135408009Y-53022671D01*
X134899962Y-52683205D01*
X134300680Y-52564000D01*
X134239320Y-52564000D01*
X133640038Y-52683205D01*
X133271989Y-52929127D01*
X133268424Y-52910182D01*
X133147968Y-52722988D01*
X132964173Y-52597406D01*
X132746000Y-52553225D01*
X130714000Y-52553225D01*
X130510182Y-52591576D01*
X130322988Y-52712032D01*
X130197406Y-52895827D01*
X130153225Y-53114000D01*
X112455851Y-53114000D01*
X112328009Y-52922671D01*
X111819962Y-52583205D01*
X111220680Y-52464000D01*
X111159320Y-52464000D01*
X110560038Y-52583205D01*
X110191989Y-52829127D01*
X110188424Y-52810182D01*
X110067968Y-52622988D01*
X109884173Y-52497406D01*
X109666000Y-52453225D01*
X107634000Y-52453225D01*
X107430182Y-52491576D01*
X107242988Y-52612032D01*
X107117406Y-52795827D01*
X107073225Y-53014000D01*
X89387669Y-53014000D01*
X89274358Y-52444349D01*
X88830002Y-51779323D01*
X88164976Y-51334967D01*
X87732137Y-51248870D01*
X88164976Y-51162773D01*
X88830002Y-50718417D01*
X89274358Y-50053391D01*
X89430395Y-49268940D01*
X89274358Y-48484489D01*
X88830002Y-47819463D01*
X88164976Y-47375107D01*
X87380525Y-47219070D01*
X85259475Y-47219070D01*
X84475024Y-47375107D01*
X83809998Y-47819463D01*
X83365642Y-48484489D01*
X83209605Y-49268940D01*
X83365642Y-50053391D01*
X83809998Y-50718417D01*
X84475024Y-51162773D01*
X84907863Y-51248870D01*
X84475024Y-51334967D01*
X83809998Y-51779323D01*
X83365642Y-52444349D01*
X83209605Y-53228800D01*
X83365642Y-54013251D01*
X83809998Y-54678277D01*
X84475024Y-55122633D01*
X84687732Y-55164943D01*
X84397375Y-55237387D01*
X83719856Y-55738895D01*
X83285829Y-56461503D01*
X83206683Y-56751308D01*
X80625000Y-56751308D01*
X80625000Y-27742649D01*
X81249350Y-27742649D01*
X81819051Y-29121429D01*
X82873022Y-30177242D01*
X84250806Y-30749348D01*
X85742649Y-30750650D01*
X87121429Y-30180949D01*
X88177242Y-29126978D01*
X88749348Y-27749194D01*
X88749788Y-27244320D01*
X90194000Y-27244320D01*
X90194000Y-27305680D01*
X90313205Y-27904962D01*
X90652671Y-28413009D01*
X91160718Y-28752475D01*
X91760000Y-28871680D01*
X92359282Y-28752475D01*
X92759713Y-28484916D01*
X92761576Y-28494818D01*
X92882032Y-28682012D01*
X93065827Y-28807594D01*
X93284000Y-28851775D01*
X95316000Y-28851775D01*
X95519818Y-28813424D01*
X95707012Y-28692968D01*
X95832594Y-28509173D01*
X95876775Y-28291000D01*
X95876775Y-27410194D01*
X105306917Y-27410194D01*
X105500743Y-27878149D01*
X105908147Y-28310010D01*
X106449805Y-28553090D01*
X106686000Y-28423549D01*
X106686000Y-27174000D01*
X105436891Y-27174000D01*
X105306917Y-27410194D01*
X95876775Y-27410194D01*
X95876775Y-26259000D01*
X95838424Y-26055182D01*
X95717968Y-25867988D01*
X95534173Y-25742406D01*
X95316000Y-25698225D01*
X93284000Y-25698225D01*
X93080182Y-25736576D01*
X92892988Y-25857032D01*
X92767406Y-26040827D01*
X92762162Y-26066721D01*
X92359282Y-25797525D01*
X91760000Y-25678320D01*
X91160718Y-25797525D01*
X90652671Y-26136991D01*
X90313205Y-26645038D01*
X90194000Y-27244320D01*
X88749788Y-27244320D01*
X88750650Y-26257351D01*
X88191492Y-24904085D01*
X96456073Y-24904085D01*
X96677187Y-25437918D01*
X97128349Y-25910228D01*
X97725914Y-26173934D01*
X97986000Y-26046273D01*
X97986000Y-24644000D01*
X96584087Y-24644000D01*
X96456073Y-24904085D01*
X88191492Y-24904085D01*
X88180949Y-24878571D01*
X87479519Y-24175915D01*
X96456073Y-24175915D01*
X96584087Y-24436000D01*
X97986000Y-24436000D01*
X97986000Y-23033727D01*
X98194000Y-23033727D01*
X98194000Y-24436000D01*
X98214000Y-24436000D01*
X98214000Y-24644000D01*
X98194000Y-24644000D01*
X98194000Y-26046273D01*
X98454086Y-26173934D01*
X99051651Y-25910228D01*
X99133336Y-25824714D01*
X99212032Y-25947012D01*
X99395827Y-26072594D01*
X99614000Y-26116775D01*
X101646000Y-26116775D01*
X101849818Y-26078424D01*
X102037012Y-25957968D01*
X102162594Y-25774173D01*
X102206775Y-25556000D01*
X102206775Y-24798500D01*
X105268400Y-24798500D01*
X105268400Y-25524485D01*
X105368575Y-25766327D01*
X105553673Y-25951426D01*
X105726180Y-26022880D01*
X105500743Y-26261851D01*
X105306917Y-26729806D01*
X105436891Y-26966000D01*
X106686000Y-26966000D01*
X106686000Y-24634000D01*
X105432900Y-24634000D01*
X105268400Y-24798500D01*
X102206775Y-24798500D01*
X102206775Y-23535515D01*
X105268400Y-23535515D01*
X105268400Y-24261500D01*
X105432900Y-24426000D01*
X106686000Y-24426000D01*
X106686000Y-23172900D01*
X106521500Y-23008400D01*
X105795516Y-23008400D01*
X105553673Y-23108574D01*
X105368575Y-23293673D01*
X105268400Y-23535515D01*
X102206775Y-23535515D01*
X102206775Y-23524000D01*
X102168424Y-23320182D01*
X102047968Y-23132988D01*
X101864173Y-23007406D01*
X101646000Y-22963225D01*
X99614000Y-22963225D01*
X99410182Y-23001576D01*
X99222988Y-23122032D01*
X99132522Y-23254434D01*
X99051651Y-23169772D01*
X98454086Y-22906066D01*
X98194000Y-23033727D01*
X97986000Y-23033727D01*
X97725914Y-22906066D01*
X97128349Y-23169772D01*
X96677187Y-23642082D01*
X96456073Y-24175915D01*
X87479519Y-24175915D01*
X87126978Y-23822758D01*
X85749194Y-23250652D01*
X84257351Y-23249350D01*
X82878571Y-23819051D01*
X81822758Y-24873022D01*
X81250652Y-26250806D01*
X81249350Y-27742649D01*
X80625000Y-27742649D01*
X80625000Y-22625000D01*
X119303629Y-22625000D01*
X118924315Y-23004315D01*
X118924315Y-23004315D01*
G37*
X118924315Y-23004315D02*
X118750896Y-23263853D01*
X118733911Y-23349243D01*
X118462740Y-23530434D01*
X118220000Y-23893720D01*
X117977260Y-23530434D01*
X117518655Y-23224004D01*
X116977694Y-23116400D01*
X116922306Y-23116400D01*
X116381345Y-23224004D01*
X115922740Y-23530434D01*
X115680000Y-23893720D01*
X115437260Y-23530434D01*
X114978655Y-23224004D01*
X114437694Y-23116400D01*
X114382306Y-23116400D01*
X113841345Y-23224004D01*
X113382740Y-23530434D01*
X113140000Y-23893720D01*
X112897260Y-23530434D01*
X112438655Y-23224004D01*
X111897694Y-23116400D01*
X111842306Y-23116400D01*
X111301345Y-23224004D01*
X110842740Y-23530434D01*
X110600000Y-23893720D01*
X110357260Y-23530434D01*
X109898655Y-23224004D01*
X109357694Y-23116400D01*
X109302306Y-23116400D01*
X108761345Y-23224004D01*
X108308031Y-23526899D01*
X108211425Y-23293673D01*
X108026327Y-23108574D01*
X107784484Y-23008400D01*
X107058500Y-23008400D01*
X106894000Y-23172900D01*
X106894000Y-24426000D01*
X106914000Y-24426000D01*
X106914000Y-24634000D01*
X106894000Y-24634000D01*
X106894000Y-26966000D01*
X106914000Y-26966000D01*
X106914000Y-27174000D01*
X106894000Y-27174000D01*
X106894000Y-28423549D01*
X107130195Y-28553090D01*
X107671853Y-28310010D01*
X108079257Y-27878149D01*
X108115834Y-27789841D01*
X108302740Y-28069566D01*
X108761345Y-28375996D01*
X109302306Y-28483600D01*
X109357694Y-28483600D01*
X109898655Y-28375996D01*
X110357260Y-28069566D01*
X110600000Y-27706280D01*
X110842740Y-28069566D01*
X111301345Y-28375996D01*
X111842306Y-28483600D01*
X111897694Y-28483600D01*
X112438655Y-28375996D01*
X112897260Y-28069566D01*
X113140000Y-27706280D01*
X113382740Y-28069566D01*
X113841345Y-28375996D01*
X114382306Y-28483600D01*
X114437694Y-28483600D01*
X114978655Y-28375996D01*
X115437260Y-28069566D01*
X115680000Y-27706280D01*
X115922740Y-28069566D01*
X116381345Y-28375996D01*
X116922306Y-28483600D01*
X116977694Y-28483600D01*
X117518655Y-28375996D01*
X117977260Y-28069566D01*
X118220000Y-27706280D01*
X118462740Y-28069566D01*
X118921345Y-28375996D01*
X119462306Y-28483600D01*
X119517694Y-28483600D01*
X120058655Y-28375996D01*
X120517260Y-28069566D01*
X120760000Y-27706280D01*
X121002740Y-28069566D01*
X121461345Y-28375996D01*
X122002306Y-28483600D01*
X122057694Y-28483600D01*
X122598655Y-28375996D01*
X123057260Y-28069566D01*
X123300000Y-27706280D01*
X123542740Y-28069566D01*
X124001345Y-28375996D01*
X124542306Y-28483600D01*
X124597694Y-28483600D01*
X125138655Y-28375996D01*
X125597260Y-28069566D01*
X125840000Y-27706280D01*
X126082740Y-28069566D01*
X126541345Y-28375996D01*
X127082306Y-28483600D01*
X127137694Y-28483600D01*
X127678655Y-28375996D01*
X128137260Y-28069566D01*
X128380000Y-27706280D01*
X128622740Y-28069566D01*
X129081345Y-28375996D01*
X129622306Y-28483600D01*
X129677694Y-28483600D01*
X130218655Y-28375996D01*
X130677260Y-28069566D01*
X130763833Y-27940000D01*
X146638706Y-27940000D01*
X146746310Y-28480961D01*
X147052740Y-28939566D01*
X147511345Y-29245996D01*
X148052306Y-29353600D01*
X148107694Y-29353600D01*
X148648655Y-29245996D01*
X149107260Y-28939566D01*
X149350000Y-28576280D01*
X149592740Y-28939566D01*
X150051345Y-29245996D01*
X150592306Y-29353600D01*
X150647694Y-29353600D01*
X151188655Y-29245996D01*
X151647260Y-28939566D01*
X151953690Y-28480961D01*
X152061294Y-27940000D01*
X151953690Y-27399039D01*
X151647260Y-26940434D01*
X151242527Y-26670000D01*
X151647260Y-26399566D01*
X151953690Y-25940961D01*
X152061294Y-25400000D01*
X151953690Y-24859039D01*
X151647260Y-24400434D01*
X151188655Y-24094004D01*
X150647694Y-23986400D01*
X150592306Y-23986400D01*
X150051345Y-24094004D01*
X149592740Y-24400434D01*
X149503829Y-24533499D01*
X149466024Y-24332582D01*
X149345568Y-24145388D01*
X149161773Y-24019806D01*
X148943600Y-23975625D01*
X147216400Y-23975625D01*
X147012582Y-24013976D01*
X146825388Y-24134432D01*
X146699806Y-24318227D01*
X146655625Y-24536400D01*
X146655625Y-26263600D01*
X146693976Y-26467418D01*
X146814432Y-26654612D01*
X146998227Y-26780194D01*
X147216400Y-26824375D01*
X147226435Y-26824375D01*
X147052740Y-26940434D01*
X146746310Y-27399039D01*
X146638706Y-27940000D01*
X130763833Y-27940000D01*
X130983690Y-27610961D01*
X131091294Y-27070000D01*
X130983690Y-26529039D01*
X130677260Y-26070434D01*
X130272527Y-25800000D01*
X130677260Y-25529566D01*
X130983690Y-25070961D01*
X131091294Y-24530000D01*
X130983690Y-23989039D01*
X130964287Y-23960000D01*
X135048947Y-23960000D01*
X134969806Y-24075827D01*
X134925625Y-24294000D01*
X134925625Y-26326000D01*
X134963976Y-26529818D01*
X135084432Y-26717012D01*
X135268227Y-26842594D01*
X135486400Y-26886775D01*
X137213600Y-26886775D01*
X137417418Y-26848424D01*
X137604612Y-26727968D01*
X137730194Y-26544173D01*
X137774375Y-26326000D01*
X137774375Y-26318951D01*
X137890434Y-26492646D01*
X138349039Y-26799076D01*
X138890000Y-26906680D01*
X139430961Y-26799076D01*
X139889566Y-26492646D01*
X140095212Y-26184875D01*
X140105927Y-26217029D01*
X140495500Y-26666287D01*
X141027342Y-26932264D01*
X141089806Y-26945483D01*
X141326000Y-26815509D01*
X141326000Y-25414000D01*
X141534000Y-25414000D01*
X141534000Y-26815509D01*
X141770194Y-26945483D01*
X141832658Y-26932264D01*
X142364500Y-26666287D01*
X142754073Y-26217029D01*
X142942068Y-25652885D01*
X142788750Y-25414000D01*
X141534000Y-25414000D01*
X141326000Y-25414000D01*
X141306000Y-25414000D01*
X141306000Y-25206000D01*
X141326000Y-25206000D01*
X141326000Y-25186000D01*
X141534000Y-25186000D01*
X141534000Y-25206000D01*
X142788750Y-25206000D01*
X142942068Y-24967115D01*
X142754073Y-24402971D01*
X142369952Y-23960000D01*
X156879093Y-23960000D01*
X156859806Y-23988227D01*
X156815625Y-24206400D01*
X156815625Y-25933600D01*
X156853976Y-26137418D01*
X156974432Y-26324612D01*
X157158227Y-26450194D01*
X157376400Y-26494375D01*
X157386435Y-26494375D01*
X157212740Y-26610434D01*
X156906310Y-27069039D01*
X156798706Y-27610000D01*
X156906310Y-28150961D01*
X157212740Y-28609566D01*
X157671345Y-28915996D01*
X158212306Y-29023600D01*
X158267694Y-29023600D01*
X158808655Y-28915996D01*
X159267260Y-28609566D01*
X159510000Y-28246280D01*
X159752740Y-28609566D01*
X160211345Y-28915996D01*
X160752306Y-29023600D01*
X160807694Y-29023600D01*
X161348655Y-28915996D01*
X161807260Y-28609566D01*
X162050000Y-28246280D01*
X162292740Y-28609566D01*
X162751345Y-28915996D01*
X163292306Y-29023600D01*
X163347694Y-29023600D01*
X163888655Y-28915996D01*
X164347260Y-28609566D01*
X164590000Y-28246280D01*
X164832740Y-28609566D01*
X165291345Y-28915996D01*
X165832306Y-29023600D01*
X165887694Y-29023600D01*
X166428655Y-28915996D01*
X166887260Y-28609566D01*
X167193690Y-28150961D01*
X167274908Y-27742649D01*
X171249350Y-27742649D01*
X171819051Y-29121429D01*
X172873022Y-30177242D01*
X174250806Y-30749348D01*
X175742649Y-30750650D01*
X177121429Y-30180949D01*
X178177242Y-29126978D01*
X178749348Y-27749194D01*
X178750650Y-26257351D01*
X178180949Y-24878571D01*
X177126978Y-23822758D01*
X175749194Y-23250652D01*
X174257351Y-23249350D01*
X172878571Y-23819051D01*
X171822758Y-24873022D01*
X171250652Y-26250806D01*
X171249350Y-27742649D01*
X167274908Y-27742649D01*
X167301294Y-27610000D01*
X167193690Y-27069039D01*
X166887260Y-26610434D01*
X166482527Y-26340000D01*
X166887260Y-26069566D01*
X167193690Y-25610961D01*
X167301294Y-25070000D01*
X167193690Y-24529039D01*
X166903765Y-24095135D01*
X167587148Y-24778519D01*
X167686572Y-25019143D01*
X167939525Y-25272538D01*
X168270194Y-25409843D01*
X168628236Y-25410156D01*
X168959143Y-25273428D01*
X169212538Y-25020475D01*
X169349843Y-24689806D01*
X169350156Y-24331764D01*
X169213428Y-24000857D01*
X168960475Y-23747462D01*
X168718255Y-23646884D01*
X167696370Y-22625000D01*
X179375000Y-22625000D01*
X179375000Y-121375000D01*
X80625000Y-121375000D01*
X80625000Y-117742649D01*
X81249350Y-117742649D01*
X81819051Y-119121429D01*
X82873022Y-120177242D01*
X84250806Y-120749348D01*
X85742649Y-120750650D01*
X87121429Y-120180949D01*
X88177242Y-119126978D01*
X88749348Y-117749194D01*
X88750650Y-116257351D01*
X88480691Y-115604000D01*
X152501070Y-115604000D01*
X152501070Y-116604760D01*
X152705127Y-117422625D01*
X153206635Y-118100144D01*
X153929243Y-118534171D01*
X154219048Y-118613317D01*
X154554940Y-118491415D01*
X154554940Y-115604000D01*
X154762940Y-115604000D01*
X154762940Y-118491415D01*
X155098832Y-118613317D01*
X155388637Y-118534171D01*
X156111245Y-118100144D01*
X156612753Y-117422625D01*
X156638870Y-117317947D01*
X156664987Y-117422625D01*
X157166495Y-118100144D01*
X157889103Y-118534171D01*
X158178908Y-118613317D01*
X158514800Y-118491415D01*
X158514800Y-115604000D01*
X154762940Y-115604000D01*
X154554940Y-115604000D01*
X152501070Y-115604000D01*
X88480691Y-115604000D01*
X88180949Y-114878571D01*
X87698462Y-114395240D01*
X152501070Y-114395240D01*
X152501070Y-115396000D01*
X154554940Y-115396000D01*
X154554940Y-112508585D01*
X154762940Y-112508585D01*
X154762940Y-115396000D01*
X158514800Y-115396000D01*
X158514800Y-112508585D01*
X158722800Y-112508585D01*
X158722800Y-115396000D01*
X158742800Y-115396000D01*
X158742800Y-115604000D01*
X158722800Y-115604000D01*
X158722800Y-118491415D01*
X159058692Y-118613317D01*
X159348497Y-118534171D01*
X160071105Y-118100144D01*
X160572613Y-117422625D01*
X160645057Y-117132268D01*
X160687367Y-117344976D01*
X161131723Y-118010002D01*
X161796749Y-118454358D01*
X162581200Y-118610395D01*
X163365651Y-118454358D01*
X164030677Y-118010002D01*
X164475033Y-117344976D01*
X164561130Y-116912137D01*
X164647227Y-117344976D01*
X165091583Y-118010002D01*
X165756609Y-118454358D01*
X166541060Y-118610395D01*
X167325511Y-118454358D01*
X167990537Y-118010002D01*
X168169176Y-117742649D01*
X171249350Y-117742649D01*
X171819051Y-119121429D01*
X172873022Y-120177242D01*
X174250806Y-120749348D01*
X175742649Y-120750650D01*
X177121429Y-120180949D01*
X178177242Y-119126978D01*
X178749348Y-117749194D01*
X178750650Y-116257351D01*
X178180949Y-114878571D01*
X177126978Y-113822758D01*
X175749194Y-113250652D01*
X174257351Y-113249350D01*
X172878571Y-113819051D01*
X171822758Y-114873022D01*
X171250652Y-116250806D01*
X171249350Y-117742649D01*
X168169176Y-117742649D01*
X168434893Y-117344976D01*
X168590930Y-116560525D01*
X168590930Y-114439475D01*
X168434893Y-113655024D01*
X167990537Y-112989998D01*
X167325511Y-112545642D01*
X166541060Y-112389605D01*
X165756609Y-112545642D01*
X165091583Y-112989998D01*
X164647227Y-113655024D01*
X164561130Y-114087863D01*
X164475033Y-113655024D01*
X164030677Y-112989998D01*
X163365651Y-112545642D01*
X162581200Y-112389605D01*
X161796749Y-112545642D01*
X161131723Y-112989998D01*
X160687367Y-113655024D01*
X160645057Y-113867732D01*
X160572613Y-113577375D01*
X160071105Y-112899856D01*
X159348497Y-112465829D01*
X159058692Y-112386683D01*
X158722800Y-112508585D01*
X158514800Y-112508585D01*
X158178908Y-112386683D01*
X157889103Y-112465829D01*
X157166495Y-112899856D01*
X156664987Y-113577375D01*
X156638870Y-113682053D01*
X156612753Y-113577375D01*
X156111245Y-112899856D01*
X155388637Y-112465829D01*
X155098832Y-112386683D01*
X154762940Y-112508585D01*
X154554940Y-112508585D01*
X154219048Y-112386683D01*
X153929243Y-112465829D01*
X153206635Y-112899856D01*
X152705127Y-113577375D01*
X152501070Y-114395240D01*
X87698462Y-114395240D01*
X87126978Y-113822758D01*
X85749194Y-113250652D01*
X84257351Y-113249350D01*
X82878571Y-113819051D01*
X81822758Y-114873022D01*
X81250652Y-116250806D01*
X81249350Y-117742649D01*
X80625000Y-117742649D01*
X80625000Y-72660000D01*
X88149225Y-72660000D01*
X88149225Y-74860000D01*
X88182387Y-75036241D01*
X88149225Y-75200000D01*
X88149225Y-77400000D01*
X88182387Y-77576241D01*
X88149225Y-77740000D01*
X88149225Y-79940000D01*
X88182387Y-80116241D01*
X88149225Y-80280000D01*
X88149225Y-82480000D01*
X88182387Y-82656241D01*
X88149225Y-82820000D01*
X88149225Y-85020000D01*
X88182387Y-85196241D01*
X88149225Y-85360000D01*
X88149225Y-87560000D01*
X88182387Y-87736241D01*
X88149225Y-87900000D01*
X88149225Y-90100000D01*
X88182387Y-90276241D01*
X88149225Y-90440000D01*
X88149225Y-92640000D01*
X88182387Y-92816241D01*
X88149225Y-92980000D01*
X88149225Y-95180000D01*
X88182387Y-95356241D01*
X88149225Y-95520000D01*
X88149225Y-97720000D01*
X88182387Y-97896241D01*
X88149225Y-98060000D01*
X88149225Y-100260000D01*
X88182387Y-100436241D01*
X88149225Y-100600000D01*
X88149225Y-102800000D01*
X88182387Y-102976241D01*
X88149225Y-103140000D01*
X88149225Y-105340000D01*
X88182387Y-105516241D01*
X88149225Y-105680000D01*
X88149225Y-107880000D01*
X88182387Y-108056241D01*
X88149225Y-108220000D01*
X88149225Y-110420000D01*
X88187576Y-110623818D01*
X88308032Y-110811012D01*
X88491827Y-110936594D01*
X88710000Y-110980775D01*
X90910000Y-110980775D01*
X91086241Y-110947613D01*
X91250000Y-110980775D01*
X93450000Y-110980775D01*
X93626241Y-110947613D01*
X93790000Y-110980775D01*
X95990000Y-110980775D01*
X96166241Y-110947613D01*
X96330000Y-110980775D01*
X98530000Y-110980775D01*
X98706241Y-110947613D01*
X98870000Y-110980775D01*
X101070000Y-110980775D01*
X101246241Y-110947613D01*
X101410000Y-110980775D01*
X103610000Y-110980775D01*
X103786241Y-110947613D01*
X103950000Y-110980775D01*
X106150000Y-110980775D01*
X106326241Y-110947613D01*
X106490000Y-110980775D01*
X108690000Y-110980775D01*
X108866241Y-110947613D01*
X109030000Y-110980775D01*
X111230000Y-110980775D01*
X111406241Y-110947613D01*
X111570000Y-110980775D01*
X113770000Y-110980775D01*
X113946241Y-110947613D01*
X114110000Y-110980775D01*
X116310000Y-110980775D01*
X116486241Y-110947613D01*
X116650000Y-110980775D01*
X118850000Y-110980775D01*
X119026241Y-110947613D01*
X119190000Y-110980775D01*
X121390000Y-110980775D01*
X121566241Y-110947613D01*
X121730000Y-110980775D01*
X123930000Y-110980775D01*
X124106241Y-110947613D01*
X124270000Y-110980775D01*
X126470000Y-110980775D01*
X126646241Y-110947613D01*
X126810000Y-110980775D01*
X129010000Y-110980775D01*
X129186241Y-110947613D01*
X129350000Y-110980775D01*
X131550000Y-110980775D01*
X131726241Y-110947613D01*
X131890000Y-110980775D01*
X134090000Y-110980775D01*
X134266241Y-110947613D01*
X134430000Y-110980775D01*
X136630000Y-110980775D01*
X136806241Y-110947613D01*
X136970000Y-110980775D01*
X139170000Y-110980775D01*
X139346241Y-110947613D01*
X139510000Y-110980775D01*
X141710000Y-110980775D01*
X141886241Y-110947613D01*
X142050000Y-110980775D01*
X144250000Y-110980775D01*
X144453818Y-110942424D01*
X144641012Y-110821968D01*
X144766594Y-110638173D01*
X144810775Y-110420000D01*
X144810775Y-108220000D01*
X144777613Y-108043759D01*
X144810775Y-107880000D01*
X144810775Y-105680000D01*
X144777613Y-105503759D01*
X144810775Y-105340000D01*
X144810775Y-103140000D01*
X144777613Y-102963759D01*
X144810775Y-102800000D01*
X144810775Y-100600000D01*
X144777613Y-100423759D01*
X144810775Y-100260000D01*
X144810775Y-98060000D01*
X144777613Y-97883759D01*
X144810775Y-97720000D01*
X144810775Y-95520000D01*
X144777613Y-95343759D01*
X144810775Y-95180000D01*
X144810775Y-92980000D01*
X144777613Y-92803759D01*
X144810775Y-92640000D01*
X144810775Y-90440000D01*
X144777613Y-90263759D01*
X144810775Y-90100000D01*
X144810775Y-87900000D01*
X144777613Y-87723759D01*
X144810775Y-87560000D01*
X144810775Y-85360000D01*
X144777613Y-85183759D01*
X144810775Y-85020000D01*
X144810775Y-82820000D01*
X144777613Y-82643759D01*
X144810775Y-82480000D01*
X144810775Y-80880195D01*
X172886910Y-80880195D01*
X173129990Y-81421853D01*
X173561851Y-81829257D01*
X173650159Y-81865834D01*
X173370434Y-82052740D01*
X173064004Y-82511345D01*
X172956400Y-83052306D01*
X172956400Y-83107694D01*
X173064004Y-83648655D01*
X173370434Y-84107260D01*
X173733720Y-84350000D01*
X173370434Y-84592740D01*
X173064004Y-85051345D01*
X172956400Y-85592306D01*
X172956400Y-85647694D01*
X173064004Y-86188655D01*
X173370434Y-86647260D01*
X173733720Y-86890000D01*
X173370434Y-87132740D01*
X173064004Y-87591345D01*
X172956400Y-88132306D01*
X172956400Y-88187694D01*
X173064004Y-88728655D01*
X173370434Y-89187260D01*
X173733720Y-89430000D01*
X173370434Y-89672740D01*
X173064004Y-90131345D01*
X172956400Y-90672306D01*
X172956400Y-90727694D01*
X173064004Y-91268655D01*
X173370434Y-91727260D01*
X173733720Y-91970000D01*
X173370434Y-92212740D01*
X173064004Y-92671345D01*
X172956400Y-93212306D01*
X172956400Y-93267694D01*
X173064004Y-93808655D01*
X173370434Y-94267260D01*
X173733720Y-94510000D01*
X173370434Y-94752740D01*
X173064004Y-95211345D01*
X172956400Y-95752306D01*
X172956400Y-95807694D01*
X173064004Y-96348655D01*
X173370434Y-96807260D01*
X173733720Y-97050000D01*
X173370434Y-97292740D01*
X173064004Y-97751345D01*
X172956400Y-98292306D01*
X172956400Y-98347694D01*
X173064004Y-98888655D01*
X173370434Y-99347260D01*
X173733720Y-99590000D01*
X173370434Y-99832740D01*
X173064004Y-100291345D01*
X172956400Y-100832306D01*
X172956400Y-100887694D01*
X173064004Y-101428655D01*
X173370434Y-101887260D01*
X173733720Y-102130000D01*
X173370434Y-102372740D01*
X173064004Y-102831345D01*
X172956400Y-103372306D01*
X172956400Y-103427694D01*
X173064004Y-103968655D01*
X173370434Y-104427260D01*
X173829039Y-104733690D01*
X174370000Y-104841294D01*
X174910961Y-104733690D01*
X175369566Y-104427260D01*
X175640000Y-104022527D01*
X175910434Y-104427260D01*
X176369039Y-104733690D01*
X176910000Y-104841294D01*
X177450961Y-104733690D01*
X177909566Y-104427260D01*
X178215996Y-103968655D01*
X178323600Y-103427694D01*
X178323600Y-103372306D01*
X178215996Y-102831345D01*
X177909566Y-102372740D01*
X177546280Y-102130000D01*
X177909566Y-101887260D01*
X178215996Y-101428655D01*
X178323600Y-100887694D01*
X178323600Y-100832306D01*
X178215996Y-100291345D01*
X177909566Y-99832740D01*
X177546280Y-99590000D01*
X177909566Y-99347260D01*
X178215996Y-98888655D01*
X178323600Y-98347694D01*
X178323600Y-98292306D01*
X178215996Y-97751345D01*
X177909566Y-97292740D01*
X177546280Y-97050000D01*
X177909566Y-96807260D01*
X178215996Y-96348655D01*
X178323600Y-95807694D01*
X178323600Y-95752306D01*
X178215996Y-95211345D01*
X177909566Y-94752740D01*
X177546280Y-94510000D01*
X177909566Y-94267260D01*
X178215996Y-93808655D01*
X178323600Y-93267694D01*
X178323600Y-93212306D01*
X178215996Y-92671345D01*
X177909566Y-92212740D01*
X177546280Y-91970000D01*
X177909566Y-91727260D01*
X178215996Y-91268655D01*
X178323600Y-90727694D01*
X178323600Y-90672306D01*
X178215996Y-90131345D01*
X177909566Y-89672740D01*
X177546280Y-89430000D01*
X177909566Y-89187260D01*
X178215996Y-88728655D01*
X178323600Y-88187694D01*
X178323600Y-88132306D01*
X178215996Y-87591345D01*
X177909566Y-87132740D01*
X177546280Y-86890000D01*
X177909566Y-86647260D01*
X178215996Y-86188655D01*
X178323600Y-85647694D01*
X178323600Y-85592306D01*
X178215996Y-85051345D01*
X177909566Y-84592740D01*
X177546280Y-84350000D01*
X177909566Y-84107260D01*
X178215996Y-83648655D01*
X178323600Y-83107694D01*
X178323600Y-83052306D01*
X178215996Y-82511345D01*
X177913101Y-82058031D01*
X178146327Y-81961425D01*
X178331426Y-81776327D01*
X178431600Y-81534484D01*
X178431600Y-80808500D01*
X178267100Y-80644000D01*
X177014000Y-80644000D01*
X177014000Y-80664000D01*
X176806000Y-80664000D01*
X176806000Y-80644000D01*
X174474000Y-80644000D01*
X174474000Y-80664000D01*
X174266000Y-80664000D01*
X174266000Y-80644000D01*
X173016451Y-80644000D01*
X172886910Y-80880195D01*
X144810775Y-80880195D01*
X144810775Y-80280000D01*
X144795686Y-80199805D01*
X172886910Y-80199805D01*
X173016451Y-80436000D01*
X174266000Y-80436000D01*
X174266000Y-79186891D01*
X174474000Y-79186891D01*
X174474000Y-80436000D01*
X176806000Y-80436000D01*
X176806000Y-79182900D01*
X177014000Y-79182900D01*
X177014000Y-80436000D01*
X178267100Y-80436000D01*
X178431600Y-80271500D01*
X178431600Y-79545516D01*
X178331426Y-79303673D01*
X178146327Y-79118575D01*
X177904485Y-79018400D01*
X177178500Y-79018400D01*
X177014000Y-79182900D01*
X176806000Y-79182900D01*
X176641500Y-79018400D01*
X175915515Y-79018400D01*
X175673673Y-79118575D01*
X175488574Y-79303673D01*
X175417120Y-79476180D01*
X175178149Y-79250743D01*
X174710194Y-79056917D01*
X174474000Y-79186891D01*
X174266000Y-79186891D01*
X174029806Y-79056917D01*
X173561851Y-79250743D01*
X173129990Y-79658147D01*
X172886910Y-80199805D01*
X144795686Y-80199805D01*
X144777613Y-80103759D01*
X144810775Y-79940000D01*
X144810775Y-77740000D01*
X144777613Y-77563759D01*
X144810775Y-77400000D01*
X144810775Y-75200000D01*
X144777613Y-75023759D01*
X144810775Y-74860000D01*
X144810775Y-72660000D01*
X144772424Y-72456182D01*
X144651968Y-72268988D01*
X144468173Y-72143406D01*
X144250000Y-72099225D01*
X142050000Y-72099225D01*
X141873759Y-72132387D01*
X141710000Y-72099225D01*
X139510000Y-72099225D01*
X139333759Y-72132387D01*
X139170000Y-72099225D01*
X136970000Y-72099225D01*
X136793759Y-72132387D01*
X136630000Y-72099225D01*
X134430000Y-72099225D01*
X134253759Y-72132387D01*
X134090000Y-72099225D01*
X131890000Y-72099225D01*
X131713759Y-72132387D01*
X131550000Y-72099225D01*
X129350000Y-72099225D01*
X129173759Y-72132387D01*
X129010000Y-72099225D01*
X126810000Y-72099225D01*
X126633759Y-72132387D01*
X126470000Y-72099225D01*
X124270000Y-72099225D01*
X124093759Y-72132387D01*
X123930000Y-72099225D01*
X121730000Y-72099225D01*
X121553759Y-72132387D01*
X121390000Y-72099225D01*
X119190000Y-72099225D01*
X119013759Y-72132387D01*
X118850000Y-72099225D01*
X116650000Y-72099225D01*
X116473759Y-72132387D01*
X116310000Y-72099225D01*
X114110000Y-72099225D01*
X113933759Y-72132387D01*
X113770000Y-72099225D01*
X111570000Y-72099225D01*
X111393759Y-72132387D01*
X111230000Y-72099225D01*
X109030000Y-72099225D01*
X108853759Y-72132387D01*
X108690000Y-72099225D01*
X106490000Y-72099225D01*
X106313759Y-72132387D01*
X106150000Y-72099225D01*
X103950000Y-72099225D01*
X103773759Y-72132387D01*
X103610000Y-72099225D01*
X101410000Y-72099225D01*
X101233759Y-72132387D01*
X101070000Y-72099225D01*
X98870000Y-72099225D01*
X98693759Y-72132387D01*
X98530000Y-72099225D01*
X96330000Y-72099225D01*
X96153759Y-72132387D01*
X95990000Y-72099225D01*
X93790000Y-72099225D01*
X93613759Y-72132387D01*
X93450000Y-72099225D01*
X91250000Y-72099225D01*
X91073759Y-72132387D01*
X90910000Y-72099225D01*
X88710000Y-72099225D01*
X88506182Y-72137576D01*
X88318988Y-72258032D01*
X88193406Y-72441827D01*
X88149225Y-72660000D01*
X80625000Y-72660000D01*
X80625000Y-61590952D01*
X83206683Y-61590952D01*
X83285829Y-61880757D01*
X83719856Y-62603365D01*
X84397375Y-63104873D01*
X85215240Y-63308930D01*
X86216000Y-63308930D01*
X86216000Y-61255060D01*
X86424000Y-61255060D01*
X86424000Y-63308930D01*
X87424760Y-63308930D01*
X88242625Y-63104873D01*
X88920144Y-62603365D01*
X89354171Y-61880757D01*
X89433317Y-61590952D01*
X89311415Y-61255060D01*
X86424000Y-61255060D01*
X86216000Y-61255060D01*
X83328585Y-61255060D01*
X83206683Y-61590952D01*
X80625000Y-61590952D01*
X80625000Y-57631092D01*
X83206683Y-57631092D01*
X83285829Y-57920897D01*
X83719856Y-58643505D01*
X84397375Y-59145013D01*
X84502053Y-59171130D01*
X84397375Y-59197247D01*
X83719856Y-59698755D01*
X83285829Y-60421363D01*
X83206683Y-60711168D01*
X83328585Y-61047060D01*
X86216000Y-61047060D01*
X86216000Y-57295200D01*
X86424000Y-57295200D01*
X86424000Y-61047060D01*
X89311415Y-61047060D01*
X89433317Y-60711168D01*
X89354171Y-60421363D01*
X88920144Y-59698755D01*
X88242625Y-59197247D01*
X88137947Y-59171130D01*
X88242625Y-59145013D01*
X88438532Y-59000000D01*
X138340000Y-59000000D01*
X138340000Y-65380000D01*
X138400896Y-65686147D01*
X138574315Y-65945685D01*
X140374314Y-67745685D01*
X140520854Y-67843600D01*
X140633853Y-67919104D01*
X140940000Y-67980000D01*
X146956272Y-67980000D01*
X146961165Y-67984902D01*
X147310204Y-68129835D01*
X147688138Y-68130165D01*
X148037429Y-67985841D01*
X148304902Y-67718835D01*
X148449835Y-67369796D01*
X148450165Y-66991862D01*
X148305841Y-66642571D01*
X148093642Y-66430000D01*
X174873320Y-66430000D01*
X174980924Y-66970961D01*
X175287354Y-67429566D01*
X175692087Y-67700000D01*
X175287354Y-67970434D01*
X174980924Y-68429039D01*
X174873320Y-68970000D01*
X174980924Y-69510961D01*
X175287354Y-69969566D01*
X175692087Y-70240000D01*
X175287354Y-70510434D01*
X174980924Y-70969039D01*
X174873320Y-71510000D01*
X174980924Y-72050961D01*
X175287354Y-72509566D01*
X175461049Y-72625625D01*
X175454000Y-72625625D01*
X175250182Y-72663976D01*
X175062988Y-72784432D01*
X174937406Y-72968227D01*
X174893225Y-73186400D01*
X174893225Y-74913600D01*
X174931576Y-75117418D01*
X175052032Y-75304612D01*
X175235827Y-75430194D01*
X175454000Y-75474375D01*
X177486000Y-75474375D01*
X177689818Y-75436024D01*
X177877012Y-75315568D01*
X178002594Y-75131773D01*
X178046775Y-74913600D01*
X178046775Y-73186400D01*
X178008424Y-72982582D01*
X177887968Y-72795388D01*
X177704173Y-72669806D01*
X177486000Y-72625625D01*
X177478951Y-72625625D01*
X177652646Y-72509566D01*
X177959076Y-72050961D01*
X178066680Y-71510000D01*
X177959076Y-70969039D01*
X177652646Y-70510434D01*
X177247913Y-70240000D01*
X177652646Y-69969566D01*
X177959076Y-69510961D01*
X178066680Y-68970000D01*
X177959076Y-68429039D01*
X177652646Y-67970434D01*
X177247913Y-67700000D01*
X177652646Y-67429566D01*
X177959076Y-66970961D01*
X178066680Y-66430000D01*
X177959076Y-65889039D01*
X177652646Y-65430434D01*
X177194041Y-65124004D01*
X176653080Y-65016400D01*
X176286920Y-65016400D01*
X175745959Y-65124004D01*
X175287354Y-65430434D01*
X174980924Y-65889039D01*
X174873320Y-66430000D01*
X148093642Y-66430000D01*
X148038835Y-66375098D01*
X147689796Y-66230165D01*
X147311862Y-66229835D01*
X146962571Y-66374159D01*
X146956720Y-66380000D01*
X141271371Y-66380000D01*
X139940000Y-65048630D01*
X139940000Y-59331370D01*
X141701371Y-57570000D01*
X144453902Y-57570000D01*
X144494159Y-57667429D01*
X144761165Y-57934902D01*
X145110204Y-58079835D01*
X145488138Y-58080165D01*
X145837429Y-57935841D01*
X146104902Y-57668835D01*
X146249835Y-57319796D01*
X146250165Y-56941862D01*
X146105841Y-56592571D01*
X145838835Y-56325098D01*
X145489796Y-56180165D01*
X145469516Y-56180147D01*
X145246147Y-56030896D01*
X144940000Y-55970000D01*
X141370000Y-55970000D01*
X141063853Y-56030896D01*
X140804314Y-56204315D01*
X138574315Y-58434315D01*
X138400896Y-58693853D01*
X138340000Y-59000000D01*
X88438532Y-59000000D01*
X88920144Y-58643505D01*
X89354171Y-57920897D01*
X89433317Y-57631092D01*
X89311415Y-57295200D01*
X86424000Y-57295200D01*
X86216000Y-57295200D01*
X83328585Y-57295200D01*
X83206683Y-57631092D01*
X80625000Y-57631092D01*
X80625000Y-56751308D01*
X83206683Y-56751308D01*
X83328585Y-57087200D01*
X86216000Y-57087200D01*
X86216000Y-57067200D01*
X86424000Y-57067200D01*
X86424000Y-57087200D01*
X89311415Y-57087200D01*
X89433317Y-56751308D01*
X89354171Y-56461503D01*
X88920144Y-55738895D01*
X88242625Y-55237387D01*
X87952268Y-55164943D01*
X88164976Y-55122633D01*
X88830002Y-54678277D01*
X89274358Y-54013251D01*
X89430395Y-53228800D01*
X89387669Y-53014000D01*
X107073225Y-53014000D01*
X107073225Y-55046000D01*
X107111576Y-55249818D01*
X107232032Y-55437012D01*
X107415827Y-55562594D01*
X107634000Y-55606775D01*
X109666000Y-55606775D01*
X109869818Y-55568424D01*
X110057012Y-55447968D01*
X110182594Y-55264173D01*
X110189653Y-55229312D01*
X110560038Y-55476795D01*
X111159320Y-55596000D01*
X111220680Y-55596000D01*
X111819962Y-55476795D01*
X112328009Y-55137329D01*
X112667475Y-54629282D01*
X112786680Y-54030000D01*
X112667475Y-53430718D01*
X112455851Y-53114000D01*
X130153225Y-53114000D01*
X130153225Y-55146000D01*
X130191576Y-55349818D01*
X130312032Y-55537012D01*
X130495827Y-55662594D01*
X130714000Y-55706775D01*
X132746000Y-55706775D01*
X132949818Y-55668424D01*
X133137012Y-55547968D01*
X133262594Y-55364173D01*
X133269653Y-55329312D01*
X133640038Y-55576795D01*
X134239320Y-55696000D01*
X134300680Y-55696000D01*
X134899962Y-55576795D01*
X135408009Y-55237329D01*
X135747475Y-54729282D01*
X135866680Y-54130000D01*
X135781148Y-53700000D01*
X140439999Y-53700000D01*
X140557987Y-54293159D01*
X140893984Y-54796016D01*
X141396841Y-55132013D01*
X141990000Y-55250001D01*
X142583159Y-55132013D01*
X143086016Y-54796016D01*
X144066013Y-53816018D01*
X144066016Y-53816016D01*
X149122031Y-48760000D01*
X152567968Y-48760000D01*
X158465130Y-54657162D01*
X158527987Y-54973159D01*
X158863984Y-55476016D01*
X162693982Y-59306013D01*
X162693984Y-59306016D01*
X164103984Y-60716015D01*
X164606841Y-61052013D01*
X165200000Y-61170001D01*
X165793159Y-61052013D01*
X166296015Y-60716015D01*
X166632013Y-60213159D01*
X166750001Y-59620000D01*
X166632013Y-59026841D01*
X166296015Y-58523984D01*
X164886016Y-57113984D01*
X164886013Y-57113982D01*
X164680532Y-56908500D01*
X172468400Y-56908500D01*
X172468400Y-57634484D01*
X172568574Y-57876327D01*
X172753673Y-58061425D01*
X172995515Y-58161600D01*
X173721500Y-58161600D01*
X173886000Y-57997100D01*
X173886000Y-56744000D01*
X174094000Y-56744000D01*
X174094000Y-57997100D01*
X174258500Y-58161600D01*
X174984485Y-58161600D01*
X175226327Y-58061425D01*
X175411426Y-57876327D01*
X175482880Y-57703820D01*
X175721851Y-57929257D01*
X176189806Y-58123083D01*
X176426000Y-57993109D01*
X176426000Y-56744000D01*
X176634000Y-56744000D01*
X176634000Y-57993109D01*
X176870194Y-58123083D01*
X177338149Y-57929257D01*
X177770010Y-57521853D01*
X178013090Y-56980195D01*
X177883549Y-56744000D01*
X176634000Y-56744000D01*
X176426000Y-56744000D01*
X174094000Y-56744000D01*
X173886000Y-56744000D01*
X172632900Y-56744000D01*
X172468400Y-56908500D01*
X164680532Y-56908500D01*
X163417548Y-55645516D01*
X172468400Y-55645516D01*
X172468400Y-56371500D01*
X172632900Y-56536000D01*
X173886000Y-56536000D01*
X173886000Y-56516000D01*
X174094000Y-56516000D01*
X174094000Y-56536000D01*
X176426000Y-56536000D01*
X176426000Y-56516000D01*
X176634000Y-56516000D01*
X176634000Y-56536000D01*
X177883549Y-56536000D01*
X178013090Y-56299805D01*
X177770010Y-55758147D01*
X177338149Y-55350743D01*
X177249841Y-55314166D01*
X177529566Y-55127260D01*
X177835996Y-54668655D01*
X177943600Y-54127694D01*
X177943600Y-54072306D01*
X177835996Y-53531345D01*
X177529566Y-53072740D01*
X177166280Y-52830000D01*
X177529566Y-52587260D01*
X177835996Y-52128655D01*
X177943600Y-51587694D01*
X177943600Y-51532306D01*
X177835996Y-50991345D01*
X177529566Y-50532740D01*
X177166280Y-50290000D01*
X177529566Y-50047260D01*
X177835996Y-49588655D01*
X177943600Y-49047694D01*
X177943600Y-48992306D01*
X177835996Y-48451345D01*
X177529566Y-47992740D01*
X177166280Y-47750000D01*
X177529566Y-47507260D01*
X177835996Y-47048655D01*
X177943600Y-46507694D01*
X177943600Y-46452306D01*
X177835996Y-45911345D01*
X177529566Y-45452740D01*
X177166280Y-45210000D01*
X177529566Y-44967260D01*
X177835996Y-44508655D01*
X177943600Y-43967694D01*
X177943600Y-43912306D01*
X177835996Y-43371345D01*
X177529566Y-42912740D01*
X177166280Y-42670000D01*
X177529566Y-42427260D01*
X177835996Y-41968655D01*
X177943600Y-41427694D01*
X177943600Y-41372306D01*
X177835996Y-40831345D01*
X177529566Y-40372740D01*
X177166280Y-40130000D01*
X177529566Y-39887260D01*
X177835996Y-39428655D01*
X177943600Y-38887694D01*
X177943600Y-38832306D01*
X177835996Y-38291345D01*
X177529566Y-37832740D01*
X177166280Y-37590000D01*
X177529566Y-37347260D01*
X177835996Y-36888655D01*
X177943600Y-36347694D01*
X177943600Y-36292306D01*
X177835996Y-35751345D01*
X177529566Y-35292740D01*
X177166280Y-35050000D01*
X177529566Y-34807260D01*
X177835996Y-34348655D01*
X177943600Y-33807694D01*
X177943600Y-33752306D01*
X177835996Y-33211345D01*
X177529566Y-32752740D01*
X177070961Y-32446310D01*
X176530000Y-32338706D01*
X175989039Y-32446310D01*
X175530434Y-32752740D01*
X175260000Y-33157473D01*
X174989566Y-32752740D01*
X174530961Y-32446310D01*
X173990000Y-32338706D01*
X173449039Y-32446310D01*
X172990434Y-32752740D01*
X172684004Y-33211345D01*
X172576400Y-33752306D01*
X172576400Y-33807694D01*
X172684004Y-34348655D01*
X172990434Y-34807260D01*
X173353720Y-35050000D01*
X172990434Y-35292740D01*
X172684004Y-35751345D01*
X172576400Y-36292306D01*
X172576400Y-36347694D01*
X172684004Y-36888655D01*
X172990434Y-37347260D01*
X173353720Y-37590000D01*
X172990434Y-37832740D01*
X172684004Y-38291345D01*
X172576400Y-38832306D01*
X172576400Y-38887694D01*
X172684004Y-39428655D01*
X172990434Y-39887260D01*
X173353720Y-40130000D01*
X172990434Y-40372740D01*
X172684004Y-40831345D01*
X172576400Y-41372306D01*
X172576400Y-41427694D01*
X172684004Y-41968655D01*
X172990434Y-42427260D01*
X173353720Y-42670000D01*
X172990434Y-42912740D01*
X172684004Y-43371345D01*
X172576400Y-43912306D01*
X172576400Y-43967694D01*
X172684004Y-44508655D01*
X172990434Y-44967260D01*
X173353720Y-45210000D01*
X172990434Y-45452740D01*
X172684004Y-45911345D01*
X172576400Y-46452306D01*
X172576400Y-46507694D01*
X172684004Y-47048655D01*
X172990434Y-47507260D01*
X173353720Y-47750000D01*
X172990434Y-47992740D01*
X172684004Y-48451345D01*
X172576400Y-48992306D01*
X172576400Y-49047694D01*
X172684004Y-49588655D01*
X172990434Y-50047260D01*
X173353720Y-50290000D01*
X172990434Y-50532740D01*
X172684004Y-50991345D01*
X172576400Y-51532306D01*
X172576400Y-51587694D01*
X172684004Y-52128655D01*
X172990434Y-52587260D01*
X173353720Y-52830000D01*
X172990434Y-53072740D01*
X172684004Y-53531345D01*
X172576400Y-54072306D01*
X172576400Y-54127694D01*
X172684004Y-54668655D01*
X172986899Y-55121969D01*
X172753673Y-55218575D01*
X172568574Y-55403673D01*
X172468400Y-55645516D01*
X163417548Y-55645516D01*
X161454869Y-53682837D01*
X161392013Y-53366841D01*
X161245712Y-53147885D01*
X161056016Y-52863984D01*
X161056013Y-52863982D01*
X154306016Y-46113984D01*
X153803159Y-45777987D01*
X153210000Y-45659999D01*
X153209995Y-45660000D01*
X148480005Y-45660000D01*
X148480000Y-45659999D01*
X147886841Y-45777987D01*
X147383984Y-46113984D01*
X147383982Y-46113987D01*
X141873984Y-51623984D01*
X141873982Y-51623987D01*
X140893984Y-52603984D01*
X140557987Y-53106841D01*
X140439999Y-53700000D01*
X135781148Y-53700000D01*
X135747475Y-53530718D01*
X135408009Y-53022671D01*
X134899962Y-52683205D01*
X134300680Y-52564000D01*
X134239320Y-52564000D01*
X133640038Y-52683205D01*
X133271989Y-52929127D01*
X133268424Y-52910182D01*
X133147968Y-52722988D01*
X132964173Y-52597406D01*
X132746000Y-52553225D01*
X130714000Y-52553225D01*
X130510182Y-52591576D01*
X130322988Y-52712032D01*
X130197406Y-52895827D01*
X130153225Y-53114000D01*
X112455851Y-53114000D01*
X112328009Y-52922671D01*
X111819962Y-52583205D01*
X111220680Y-52464000D01*
X111159320Y-52464000D01*
X110560038Y-52583205D01*
X110191989Y-52829127D01*
X110188424Y-52810182D01*
X110067968Y-52622988D01*
X109884173Y-52497406D01*
X109666000Y-52453225D01*
X107634000Y-52453225D01*
X107430182Y-52491576D01*
X107242988Y-52612032D01*
X107117406Y-52795827D01*
X107073225Y-53014000D01*
X89387669Y-53014000D01*
X89274358Y-52444349D01*
X88830002Y-51779323D01*
X88164976Y-51334967D01*
X87732137Y-51248870D01*
X88164976Y-51162773D01*
X88830002Y-50718417D01*
X89274358Y-50053391D01*
X89430395Y-49268940D01*
X89274358Y-48484489D01*
X88830002Y-47819463D01*
X88164976Y-47375107D01*
X87380525Y-47219070D01*
X85259475Y-47219070D01*
X84475024Y-47375107D01*
X83809998Y-47819463D01*
X83365642Y-48484489D01*
X83209605Y-49268940D01*
X83365642Y-50053391D01*
X83809998Y-50718417D01*
X84475024Y-51162773D01*
X84907863Y-51248870D01*
X84475024Y-51334967D01*
X83809998Y-51779323D01*
X83365642Y-52444349D01*
X83209605Y-53228800D01*
X83365642Y-54013251D01*
X83809998Y-54678277D01*
X84475024Y-55122633D01*
X84687732Y-55164943D01*
X84397375Y-55237387D01*
X83719856Y-55738895D01*
X83285829Y-56461503D01*
X83206683Y-56751308D01*
X80625000Y-56751308D01*
X80625000Y-27742649D01*
X81249350Y-27742649D01*
X81819051Y-29121429D01*
X82873022Y-30177242D01*
X84250806Y-30749348D01*
X85742649Y-30750650D01*
X87121429Y-30180949D01*
X88177242Y-29126978D01*
X88749348Y-27749194D01*
X88749788Y-27244320D01*
X90194000Y-27244320D01*
X90194000Y-27305680D01*
X90313205Y-27904962D01*
X90652671Y-28413009D01*
X91160718Y-28752475D01*
X91760000Y-28871680D01*
X92359282Y-28752475D01*
X92759713Y-28484916D01*
X92761576Y-28494818D01*
X92882032Y-28682012D01*
X93065827Y-28807594D01*
X93284000Y-28851775D01*
X95316000Y-28851775D01*
X95519818Y-28813424D01*
X95707012Y-28692968D01*
X95832594Y-28509173D01*
X95876775Y-28291000D01*
X95876775Y-27410194D01*
X105306917Y-27410194D01*
X105500743Y-27878149D01*
X105908147Y-28310010D01*
X106449805Y-28553090D01*
X106686000Y-28423549D01*
X106686000Y-27174000D01*
X105436891Y-27174000D01*
X105306917Y-27410194D01*
X95876775Y-27410194D01*
X95876775Y-26259000D01*
X95838424Y-26055182D01*
X95717968Y-25867988D01*
X95534173Y-25742406D01*
X95316000Y-25698225D01*
X93284000Y-25698225D01*
X93080182Y-25736576D01*
X92892988Y-25857032D01*
X92767406Y-26040827D01*
X92762162Y-26066721D01*
X92359282Y-25797525D01*
X91760000Y-25678320D01*
X91160718Y-25797525D01*
X90652671Y-26136991D01*
X90313205Y-26645038D01*
X90194000Y-27244320D01*
X88749788Y-27244320D01*
X88750650Y-26257351D01*
X88191492Y-24904085D01*
X96456073Y-24904085D01*
X96677187Y-25437918D01*
X97128349Y-25910228D01*
X97725914Y-26173934D01*
X97986000Y-26046273D01*
X97986000Y-24644000D01*
X96584087Y-24644000D01*
X96456073Y-24904085D01*
X88191492Y-24904085D01*
X88180949Y-24878571D01*
X87479519Y-24175915D01*
X96456073Y-24175915D01*
X96584087Y-24436000D01*
X97986000Y-24436000D01*
X97986000Y-23033727D01*
X98194000Y-23033727D01*
X98194000Y-24436000D01*
X98214000Y-24436000D01*
X98214000Y-24644000D01*
X98194000Y-24644000D01*
X98194000Y-26046273D01*
X98454086Y-26173934D01*
X99051651Y-25910228D01*
X99133336Y-25824714D01*
X99212032Y-25947012D01*
X99395827Y-26072594D01*
X99614000Y-26116775D01*
X101646000Y-26116775D01*
X101849818Y-26078424D01*
X102037012Y-25957968D01*
X102162594Y-25774173D01*
X102206775Y-25556000D01*
X102206775Y-24798500D01*
X105268400Y-24798500D01*
X105268400Y-25524485D01*
X105368575Y-25766327D01*
X105553673Y-25951426D01*
X105726180Y-26022880D01*
X105500743Y-26261851D01*
X105306917Y-26729806D01*
X105436891Y-26966000D01*
X106686000Y-26966000D01*
X106686000Y-24634000D01*
X105432900Y-24634000D01*
X105268400Y-24798500D01*
X102206775Y-24798500D01*
X102206775Y-23535515D01*
X105268400Y-23535515D01*
X105268400Y-24261500D01*
X105432900Y-24426000D01*
X106686000Y-24426000D01*
X106686000Y-23172900D01*
X106521500Y-23008400D01*
X105795516Y-23008400D01*
X105553673Y-23108574D01*
X105368575Y-23293673D01*
X105268400Y-23535515D01*
X102206775Y-23535515D01*
X102206775Y-23524000D01*
X102168424Y-23320182D01*
X102047968Y-23132988D01*
X101864173Y-23007406D01*
X101646000Y-22963225D01*
X99614000Y-22963225D01*
X99410182Y-23001576D01*
X99222988Y-23122032D01*
X99132522Y-23254434D01*
X99051651Y-23169772D01*
X98454086Y-22906066D01*
X98194000Y-23033727D01*
X97986000Y-23033727D01*
X97725914Y-22906066D01*
X97128349Y-23169772D01*
X96677187Y-23642082D01*
X96456073Y-24175915D01*
X87479519Y-24175915D01*
X87126978Y-23822758D01*
X85749194Y-23250652D01*
X84257351Y-23249350D01*
X82878571Y-23819051D01*
X81822758Y-24873022D01*
X81250652Y-26250806D01*
X81249350Y-27742649D01*
X80625000Y-27742649D01*
X80625000Y-22625000D01*
X119303629Y-22625000D01*
X118924315Y-23004315D01*
M02*
