%FSLAX45Y45*%
G04 Gerber Fmt 4.5, Leading zero omitted, Abs format (unit mm)*
G04 Created by KiCad (PCBNEW 4.0.6) date 10/03/17 08:09:55*
%MOMM*%
%LPD*%
G01*
G04 APERTURE LIST*
%ADD10C,0.127000*%
%ADD11C,0.150000*%
%ADD12C,0.200000*%
%ADD13C,0.300000*%
G04 APERTURE END LIST*
D10*
D11*
X18000000Y-2200000D02*
X18000000Y-12200000D01*
X8000000Y-12200000D02*
X18000000Y-12200000D01*
X8000000Y-2200000D02*
X8000000Y-12200000D01*
X8000000Y-2200000D02*
X18000000Y-2200000D01*
D12*
X8066000Y-10203000D02*
X8106000Y-10243000D01*
X8106000Y-10203000D02*
X8066000Y-10243000D01*
X8085000Y-9608000D02*
X8125000Y-9648000D01*
X8125000Y-9608000D02*
X8085000Y-9648000D01*
X8088000Y-11449000D02*
X8128000Y-11489000D01*
X8128000Y-11449000D02*
X8088000Y-11489000D01*
X8091000Y-8929000D02*
X8131000Y-8969000D01*
X8131000Y-8929000D02*
X8091000Y-8969000D01*
X8094000Y-10841000D02*
X8134000Y-10881000D01*
X8134000Y-10841000D02*
X8094000Y-10881000D01*
X8094000Y-11936000D02*
X8134000Y-11976000D01*
X8134000Y-11936000D02*
X8094000Y-11976000D01*
X8099000Y-7044000D02*
X8139000Y-7084000D01*
X8139000Y-7044000D02*
X8099000Y-7084000D01*
X8099000Y-8275000D02*
X8139000Y-8315000D01*
X8139000Y-8275000D02*
X8099000Y-8315000D01*
X8100000Y-6526000D02*
X8140000Y-6566000D01*
X8140000Y-6526000D02*
X8100000Y-6566000D01*
X8107000Y-7543000D02*
X8147000Y-7583000D01*
X8147000Y-7543000D02*
X8107000Y-7583000D01*
X8125000Y-2338000D02*
X8165000Y-2378000D01*
X8165000Y-2338000D02*
X8125000Y-2378000D01*
X8141000Y-5710000D02*
X8181000Y-5750000D01*
X8181000Y-5710000D02*
X8141000Y-5750000D01*
X8144000Y-2511000D02*
X8184000Y-2551000D01*
X8184000Y-2511000D02*
X8144000Y-2551000D01*
X8153000Y-3087000D02*
X8193000Y-3127000D01*
X8193000Y-3087000D02*
X8153000Y-3127000D01*
X8156000Y-3516000D02*
X8196000Y-3556000D01*
X8196000Y-3516000D02*
X8156000Y-3556000D01*
X8164000Y-12072000D02*
X8204000Y-12112000D01*
X8204000Y-12072000D02*
X8164000Y-12112000D01*
X8169000Y-2738000D02*
X8209000Y-2778000D01*
X8209000Y-2738000D02*
X8169000Y-2778000D01*
X8175000Y-3950000D02*
X8215000Y-3990000D01*
X8215000Y-3950000D02*
X8175000Y-3990000D01*
X8183000Y-6129000D02*
X8223000Y-6169000D01*
X8223000Y-6129000D02*
X8183000Y-6169000D01*
X8192000Y-9996000D02*
X8232000Y-10036000D01*
X8232000Y-9996000D02*
X8192000Y-10036000D01*
X8198000Y-6705000D02*
X8238000Y-6745000D01*
X8238000Y-6705000D02*
X8198000Y-6745000D01*
X8202000Y-6834000D02*
X8242000Y-6874000D01*
X8242000Y-6834000D02*
X8202000Y-6874000D01*
X8203000Y-9301000D02*
X8243000Y-9341000D01*
X8243000Y-9301000D02*
X8203000Y-9341000D01*
X8206000Y-5870000D02*
X8246000Y-5910000D01*
X8246000Y-5870000D02*
X8206000Y-5910000D01*
X8208000Y-10502000D02*
X8248000Y-10542000D01*
X8248000Y-10502000D02*
X8208000Y-10542000D01*
X8211000Y-8555000D02*
X8251000Y-8595000D01*
X8251000Y-8555000D02*
X8211000Y-8595000D01*
X8216000Y-11132000D02*
X8256000Y-11172000D01*
X8256000Y-11132000D02*
X8216000Y-11172000D01*
X8217000Y-6286000D02*
X8257000Y-6326000D01*
X8257000Y-6286000D02*
X8217000Y-6326000D01*
X8225000Y-7825000D02*
X8265000Y-7865000D01*
X8265000Y-7825000D02*
X8225000Y-7865000D01*
X8225000Y-11656000D02*
X8265000Y-11696000D01*
X8265000Y-11656000D02*
X8225000Y-11696000D01*
X8232000Y-7223000D02*
X8272000Y-7263000D01*
X8272000Y-7223000D02*
X8232000Y-7263000D01*
X8255000Y-5657000D02*
X8295000Y-5697000D01*
X8295000Y-5657000D02*
X8255000Y-5697000D01*
X8301000Y-2347000D02*
X8341000Y-2387000D01*
X8341000Y-2347000D02*
X8301000Y-2387000D01*
X8305000Y-6415000D02*
X8345000Y-6455000D01*
X8345000Y-6415000D02*
X8305000Y-6455000D01*
X8342000Y-2928000D02*
X8382000Y-2968000D01*
X8382000Y-2928000D02*
X8342000Y-2968000D01*
X8373000Y-3230000D02*
X8413000Y-3270000D01*
X8413000Y-3230000D02*
X8373000Y-3270000D01*
X8415000Y-12005000D02*
X8455000Y-12045000D01*
X8455000Y-12005000D02*
X8415000Y-12045000D01*
X8423000Y-3695000D02*
X8463000Y-3735000D01*
X8463000Y-3695000D02*
X8423000Y-3735000D01*
X8472000Y-6465000D02*
X8512000Y-6505000D01*
X8512000Y-6465000D02*
X8472000Y-6505000D01*
X8521000Y-2601000D02*
X8561000Y-2641000D01*
X8561000Y-2601000D02*
X8521000Y-2641000D01*
X8560000Y-6743000D02*
X8600000Y-6783000D01*
X8600000Y-6743000D02*
X8560000Y-6783000D01*
X8577000Y-2341000D02*
X8617000Y-2381000D01*
X8617000Y-2341000D02*
X8577000Y-2381000D01*
X8583000Y-4007000D02*
X8623000Y-4047000D01*
X8623000Y-4007000D02*
X8583000Y-4047000D01*
X8621000Y-2857000D02*
X8661000Y-2897000D01*
X8661000Y-2857000D02*
X8621000Y-2897000D01*
X8644000Y-3359000D02*
X8684000Y-3399000D01*
X8684000Y-3359000D02*
X8644000Y-3399000D01*
X8652000Y-6354000D02*
X8692000Y-6394000D01*
X8692000Y-6354000D02*
X8652000Y-6394000D01*
X8664000Y-12084000D02*
X8704000Y-12124000D01*
X8704000Y-12084000D02*
X8664000Y-12124000D01*
X8667000Y-3721000D02*
X8707000Y-3761000D01*
X8707000Y-3721000D02*
X8667000Y-3761000D01*
X8690000Y-2723000D02*
X8730000Y-2763000D01*
X8730000Y-2723000D02*
X8690000Y-2763000D01*
X8804000Y-6423000D02*
X8844000Y-6463000D01*
X8844000Y-6423000D02*
X8804000Y-6463000D01*
X8846000Y-3988000D02*
X8886000Y-4028000D01*
X8886000Y-3988000D02*
X8846000Y-4028000D01*
X8895000Y-3097000D02*
X8935000Y-3137000D01*
X8935000Y-3097000D02*
X8895000Y-3137000D01*
X8903000Y-3420000D02*
X8943000Y-3460000D01*
X8943000Y-3420000D02*
X8903000Y-3460000D01*
X8922000Y-2498000D02*
X8962000Y-2538000D01*
X8962000Y-2498000D02*
X8922000Y-2538000D01*
X8932000Y-3649000D02*
X8972000Y-3689000D01*
X8972000Y-3649000D02*
X8932000Y-3689000D01*
X8971000Y-3808000D02*
X9011000Y-3848000D01*
X9011000Y-3808000D02*
X8971000Y-3848000D01*
X8998000Y-2796000D02*
X9038000Y-2836000D01*
X9038000Y-2796000D02*
X8998000Y-2836000D01*
X9002000Y-6712000D02*
X9042000Y-6752000D01*
X9042000Y-6712000D02*
X9002000Y-6752000D01*
X9040000Y-5962000D02*
X9080000Y-6002000D01*
X9080000Y-5962000D02*
X9040000Y-6002000D01*
X9041000Y-4026000D02*
X9081000Y-4066000D01*
X9081000Y-4026000D02*
X9041000Y-4066000D01*
X9055000Y-12008000D02*
X9095000Y-12048000D01*
X9095000Y-12008000D02*
X9055000Y-12048000D01*
X9074000Y-6350000D02*
X9114000Y-6390000D01*
X9114000Y-6350000D02*
X9074000Y-6390000D01*
X9094000Y-4249000D02*
X9134000Y-4289000D01*
X9134000Y-4249000D02*
X9094000Y-4289000D01*
X9097000Y-2324000D02*
X9137000Y-2364000D01*
X9137000Y-2324000D02*
X9097000Y-2364000D01*
X9116000Y-3245000D02*
X9156000Y-3285000D01*
X9156000Y-3245000D02*
X9116000Y-3285000D01*
X9125000Y-4386000D02*
X9165000Y-4426000D01*
X9165000Y-4386000D02*
X9125000Y-4426000D01*
X9133000Y-3825000D02*
X9173000Y-3865000D01*
X9173000Y-3825000D02*
X9133000Y-3865000D01*
X9143000Y-3009000D02*
X9183000Y-3049000D01*
X9183000Y-3009000D02*
X9143000Y-3049000D01*
X9200000Y-3467000D02*
X9240000Y-3507000D01*
X9240000Y-3467000D02*
X9200000Y-3507000D01*
X9225000Y-4168000D02*
X9265000Y-4208000D01*
X9265000Y-4168000D02*
X9225000Y-4208000D01*
X9273000Y-2483000D02*
X9313000Y-2523000D01*
X9313000Y-2483000D02*
X9273000Y-2523000D01*
X9273000Y-2716000D02*
X9313000Y-2756000D01*
X9313000Y-2716000D02*
X9273000Y-2756000D01*
X9276000Y-3889000D02*
X9316000Y-3929000D01*
X9316000Y-3889000D02*
X9276000Y-3929000D01*
X9312000Y-3640000D02*
X9352000Y-3680000D01*
X9352000Y-3640000D02*
X9312000Y-3680000D01*
X9334000Y-6324000D02*
X9374000Y-6364000D01*
X9374000Y-6324000D02*
X9334000Y-6364000D01*
X9382000Y-4101000D02*
X9422000Y-4141000D01*
X9422000Y-4101000D02*
X9382000Y-4141000D01*
X9424000Y-3450000D02*
X9464000Y-3490000D01*
X9464000Y-3450000D02*
X9424000Y-3490000D01*
X9425000Y-2906000D02*
X9465000Y-2946000D01*
X9465000Y-2906000D02*
X9425000Y-2946000D01*
X9449000Y-4406000D02*
X9489000Y-4446000D01*
X9489000Y-4406000D02*
X9449000Y-4446000D01*
X9455000Y-3257000D02*
X9495000Y-3297000D01*
X9495000Y-3257000D02*
X9455000Y-3297000D01*
X9463000Y-5908000D02*
X9503000Y-5948000D01*
X9503000Y-5908000D02*
X9463000Y-5948000D01*
X9471000Y-6701000D02*
X9511000Y-6741000D01*
X9511000Y-6701000D02*
X9471000Y-6741000D01*
X9482000Y-3752000D02*
X9522000Y-3792000D01*
X9522000Y-3752000D02*
X9482000Y-3792000D01*
X9505000Y-2677000D02*
X9545000Y-2717000D01*
X9545000Y-2677000D02*
X9505000Y-2717000D01*
X9516000Y-2344000D02*
X9556000Y-2384000D01*
X9556000Y-2344000D02*
X9516000Y-2384000D01*
X9538000Y-12078000D02*
X9578000Y-12118000D01*
X9578000Y-12078000D02*
X9538000Y-12118000D01*
X9608000Y-4224000D02*
X9648000Y-4264000D01*
X9648000Y-4224000D02*
X9608000Y-4264000D01*
X9650000Y-3855000D02*
X9690000Y-3895000D01*
X9690000Y-3855000D02*
X9650000Y-3895000D01*
X9658000Y-3162000D02*
X9698000Y-3202000D01*
X9698000Y-3162000D02*
X9658000Y-3202000D01*
X9661000Y-6202000D02*
X9701000Y-6242000D01*
X9701000Y-6202000D02*
X9661000Y-6242000D01*
X9667000Y-3534000D02*
X9707000Y-3574000D01*
X9707000Y-3534000D02*
X9667000Y-3574000D01*
X9745000Y-5847000D02*
X9785000Y-5887000D01*
X9785000Y-5847000D02*
X9745000Y-5887000D01*
X9756000Y-4415000D02*
X9796000Y-4455000D01*
X9796000Y-4415000D02*
X9756000Y-4455000D01*
X9768000Y-2982000D02*
X9808000Y-3022000D01*
X9808000Y-2982000D02*
X9768000Y-3022000D01*
X9848000Y-6606000D02*
X9888000Y-6646000D01*
X9888000Y-6606000D02*
X9848000Y-6646000D01*
X9867000Y-4080000D02*
X9907000Y-4120000D01*
X9907000Y-4080000D02*
X9867000Y-4120000D01*
X9875000Y-2746000D02*
X9915000Y-2786000D01*
X9915000Y-2746000D02*
X9875000Y-2786000D01*
X9985000Y-6236000D02*
X10025000Y-6276000D01*
X10025000Y-6236000D02*
X9985000Y-6276000D01*
X10005000Y-3344000D02*
X10045000Y-3384000D01*
X10045000Y-3344000D02*
X10005000Y-3384000D01*
X10013000Y-3651000D02*
X10053000Y-3691000D01*
X10053000Y-3651000D02*
X10013000Y-3691000D01*
X10073000Y-3123000D02*
X10113000Y-3163000D01*
X10113000Y-3123000D02*
X10073000Y-3163000D01*
X10099000Y-3935000D02*
X10139000Y-3975000D01*
X10139000Y-3935000D02*
X10099000Y-3975000D01*
X10126000Y-6693000D02*
X10166000Y-6733000D01*
X10166000Y-6693000D02*
X10126000Y-6733000D01*
X10134000Y-4426000D02*
X10174000Y-4466000D01*
X10174000Y-4426000D02*
X10134000Y-4466000D01*
X10139000Y-5758000D02*
X10179000Y-5798000D01*
X10179000Y-5758000D02*
X10139000Y-5798000D01*
X10157000Y-12020000D02*
X10197000Y-12060000D01*
X10197000Y-12020000D02*
X10157000Y-12060000D01*
X10223000Y-6174000D02*
X10263000Y-6214000D01*
X10263000Y-6174000D02*
X10223000Y-6214000D01*
X10254000Y-3182000D02*
X10294000Y-3222000D01*
X10294000Y-3182000D02*
X10254000Y-3222000D01*
X10276000Y-2760000D02*
X10316000Y-2800000D01*
X10316000Y-2760000D02*
X10276000Y-2800000D01*
X10279000Y-3411000D02*
X10319000Y-3451000D01*
X10319000Y-3411000D02*
X10279000Y-3451000D01*
X10299000Y-2377000D02*
X10339000Y-2417000D01*
X10339000Y-2377000D02*
X10299000Y-2417000D01*
X10320000Y-4148000D02*
X10360000Y-4188000D01*
X10360000Y-4148000D02*
X10320000Y-4188000D01*
X10366000Y-3657000D02*
X10406000Y-3697000D01*
X10406000Y-3657000D02*
X10366000Y-3697000D01*
X10418000Y-2524000D02*
X10458000Y-2564000D01*
X10458000Y-2524000D02*
X10418000Y-2564000D01*
X10438000Y-6412000D02*
X10478000Y-6452000D01*
X10478000Y-6412000D02*
X10438000Y-6452000D01*
X10447000Y-2402000D02*
X10487000Y-2442000D01*
X10487000Y-2402000D02*
X10447000Y-2442000D01*
X10451000Y-2676000D02*
X10491000Y-2716000D01*
X10491000Y-2676000D02*
X10451000Y-2716000D01*
X10488000Y-6725000D02*
X10528000Y-6765000D01*
X10528000Y-6725000D02*
X10488000Y-6765000D01*
X10492000Y-3012000D02*
X10532000Y-3052000D01*
X10532000Y-3012000D02*
X10492000Y-3052000D01*
X10496000Y-12065000D02*
X10536000Y-12105000D01*
X10536000Y-12065000D02*
X10496000Y-12105000D01*
X10499000Y-3279000D02*
X10539000Y-3319000D01*
X10539000Y-3279000D02*
X10499000Y-3319000D01*
X10499000Y-3516000D02*
X10539000Y-3556000D01*
X10539000Y-3516000D02*
X10499000Y-3556000D01*
X10534000Y-3897000D02*
X10574000Y-3937000D01*
X10574000Y-3897000D02*
X10534000Y-3937000D01*
X10547000Y-6172000D02*
X10587000Y-6212000D01*
X10587000Y-6172000D02*
X10547000Y-6212000D01*
X10652000Y-3790000D02*
X10692000Y-3830000D01*
X10692000Y-3790000D02*
X10652000Y-3830000D01*
X10653000Y-5836000D02*
X10693000Y-5876000D01*
X10693000Y-5836000D02*
X10653000Y-5876000D01*
X10671000Y-4419000D02*
X10711000Y-4459000D01*
X10711000Y-4419000D02*
X10671000Y-4459000D01*
X10723000Y-2865000D02*
X10763000Y-2905000D01*
X10763000Y-2865000D02*
X10723000Y-2905000D01*
X10798000Y-6797000D02*
X10838000Y-6837000D01*
X10838000Y-6797000D02*
X10798000Y-6837000D01*
X10800000Y-3279000D02*
X10840000Y-3319000D01*
X10840000Y-3279000D02*
X10800000Y-3319000D01*
X10824000Y-4411000D02*
X10864000Y-4451000D01*
X10864000Y-4411000D02*
X10824000Y-4451000D01*
X10831000Y-4221000D02*
X10871000Y-4261000D01*
X10871000Y-4221000D02*
X10831000Y-4261000D01*
X10832000Y-6406000D02*
X10872000Y-6446000D01*
X10872000Y-6406000D02*
X10832000Y-6446000D01*
X10861000Y-3740000D02*
X10901000Y-3780000D01*
X10901000Y-3740000D02*
X10861000Y-3780000D01*
X10861000Y-12023000D02*
X10901000Y-12063000D01*
X10901000Y-12023000D02*
X10861000Y-12063000D01*
X10869000Y-3474000D02*
X10909000Y-3514000D01*
X10909000Y-3474000D02*
X10869000Y-3514000D01*
X10908000Y-2995000D02*
X10948000Y-3035000D01*
X10948000Y-2995000D02*
X10908000Y-3035000D01*
X10960000Y-6015000D02*
X11000000Y-6055000D01*
X11000000Y-6015000D02*
X10960000Y-6055000D01*
X11008000Y-4353000D02*
X11048000Y-4393000D01*
X11048000Y-4353000D02*
X11008000Y-4393000D01*
X11106000Y-4174000D02*
X11146000Y-4214000D01*
X11146000Y-4174000D02*
X11106000Y-4214000D01*
X11143000Y-4800000D02*
X11183000Y-4840000D01*
X11183000Y-4800000D02*
X11143000Y-4840000D01*
X11151000Y-3641000D02*
X11191000Y-3681000D01*
X11191000Y-3641000D02*
X11151000Y-3681000D01*
X11166000Y-4003000D02*
X11206000Y-4043000D01*
X11206000Y-4003000D02*
X11166000Y-4043000D01*
X11189000Y-3291000D02*
X11229000Y-3331000D01*
X11229000Y-3291000D02*
X11189000Y-3331000D01*
X11195000Y-6317000D02*
X11235000Y-6357000D01*
X11235000Y-6317000D02*
X11195000Y-6357000D01*
X11207000Y-2876000D02*
X11247000Y-2916000D01*
X11247000Y-2876000D02*
X11207000Y-2916000D01*
X11212000Y-6669000D02*
X11252000Y-6709000D01*
X11252000Y-6669000D02*
X11212000Y-6709000D01*
X11251000Y-4970000D02*
X11291000Y-5010000D01*
X11291000Y-4970000D02*
X11251000Y-5010000D01*
X11325000Y-3516000D02*
X11365000Y-3556000D01*
X11365000Y-3516000D02*
X11325000Y-3556000D01*
X11329000Y-4207000D02*
X11369000Y-4247000D01*
X11369000Y-4207000D02*
X11329000Y-4247000D01*
X11357000Y-4514000D02*
X11397000Y-4554000D01*
X11397000Y-4514000D02*
X11357000Y-4554000D01*
X11363000Y-5970000D02*
X11403000Y-6010000D01*
X11403000Y-5970000D02*
X11363000Y-6010000D01*
X11372000Y-12084000D02*
X11412000Y-12124000D01*
X11412000Y-12084000D02*
X11372000Y-12124000D01*
X11373000Y-3007000D02*
X11413000Y-3047000D01*
X11413000Y-3007000D02*
X11373000Y-3047000D01*
X11514000Y-4680000D02*
X11554000Y-4720000D01*
X11554000Y-4680000D02*
X11514000Y-4720000D01*
X11552000Y-3711000D02*
X11592000Y-3751000D01*
X11592000Y-3711000D02*
X11552000Y-3751000D01*
X11570000Y-4251000D02*
X11610000Y-4291000D01*
X11610000Y-4251000D02*
X11570000Y-4291000D01*
X11581000Y-3319000D02*
X11621000Y-3359000D01*
X11621000Y-3319000D02*
X11581000Y-3359000D01*
X11582000Y-3549000D02*
X11622000Y-3589000D01*
X11622000Y-3549000D02*
X11582000Y-3589000D01*
X11601000Y-3961000D02*
X11641000Y-4001000D01*
X11641000Y-3961000D02*
X11601000Y-4001000D01*
X11609000Y-6518000D02*
X11649000Y-6558000D01*
X11649000Y-6518000D02*
X11609000Y-6558000D01*
X11642000Y-4473000D02*
X11682000Y-4513000D01*
X11682000Y-4473000D02*
X11642000Y-4513000D01*
X11642000Y-4920000D02*
X11682000Y-4960000D01*
X11682000Y-4920000D02*
X11642000Y-4960000D01*
X11649000Y-2877000D02*
X11689000Y-2917000D01*
X11689000Y-2877000D02*
X11649000Y-2917000D01*
X11684000Y-12016000D02*
X11724000Y-12056000D01*
X11724000Y-12016000D02*
X11684000Y-12056000D01*
X11759000Y-3394000D02*
X11799000Y-3434000D01*
X11799000Y-3394000D02*
X11759000Y-3434000D01*
X11786000Y-3020000D02*
X11826000Y-3060000D01*
X11826000Y-3020000D02*
X11786000Y-3060000D01*
X11791000Y-3686000D02*
X11831000Y-3726000D01*
X11831000Y-3686000D02*
X11791000Y-3726000D01*
X11808000Y-3863000D02*
X11848000Y-3903000D01*
X11848000Y-3863000D02*
X11808000Y-3903000D01*
X11810000Y-4081000D02*
X11850000Y-4121000D01*
X11850000Y-4081000D02*
X11810000Y-4121000D01*
X11819000Y-5143000D02*
X11859000Y-5183000D01*
X11859000Y-5143000D02*
X11819000Y-5183000D01*
X11843000Y-6172000D02*
X11883000Y-6212000D01*
X11883000Y-6172000D02*
X11843000Y-6212000D01*
X11844000Y-3284000D02*
X11884000Y-3324000D01*
X11884000Y-3284000D02*
X11844000Y-3324000D01*
X11849000Y-4618000D02*
X11889000Y-4658000D01*
X11889000Y-4618000D02*
X11849000Y-4658000D01*
X11892000Y-4936000D02*
X11932000Y-4976000D01*
X11932000Y-4936000D02*
X11892000Y-4976000D01*
X11892000Y-5069000D02*
X11932000Y-5109000D01*
X11932000Y-5069000D02*
X11892000Y-5109000D01*
X11928000Y-3516000D02*
X11968000Y-3556000D01*
X11968000Y-3516000D02*
X11928000Y-3556000D01*
X11942000Y-4489000D02*
X11982000Y-4529000D01*
X11982000Y-4489000D02*
X11942000Y-4529000D01*
X11949000Y-6719000D02*
X11989000Y-6759000D01*
X11989000Y-6719000D02*
X11949000Y-6759000D01*
X12016000Y-4702000D02*
X12056000Y-4742000D01*
X12056000Y-4702000D02*
X12016000Y-4742000D01*
X12024000Y-4318000D02*
X12064000Y-4358000D01*
X12064000Y-4318000D02*
X12024000Y-4358000D01*
X12039000Y-2830000D02*
X12079000Y-2870000D01*
X12079000Y-2830000D02*
X12039000Y-2870000D01*
X12077000Y-3961000D02*
X12117000Y-4001000D01*
X12117000Y-3961000D02*
X12077000Y-4001000D01*
X12106000Y-5976000D02*
X12146000Y-6016000D01*
X12146000Y-5976000D02*
X12106000Y-6016000D01*
X12106000Y-6496000D02*
X12146000Y-6536000D01*
X12146000Y-6496000D02*
X12106000Y-6536000D01*
X12109000Y-2905000D02*
X12149000Y-2945000D01*
X12149000Y-2905000D02*
X12109000Y-2945000D01*
X12248000Y-3283000D02*
X12288000Y-3323000D01*
X12288000Y-3283000D02*
X12248000Y-3323000D01*
X12252000Y-12065000D02*
X12292000Y-12105000D01*
X12292000Y-12065000D02*
X12252000Y-12105000D01*
X12282000Y-4362000D02*
X12322000Y-4402000D01*
X12322000Y-4362000D02*
X12282000Y-4402000D01*
X12298000Y-3714000D02*
X12338000Y-3754000D01*
X12338000Y-3714000D02*
X12298000Y-3754000D01*
X12302000Y-4083000D02*
X12342000Y-4123000D01*
X12342000Y-4083000D02*
X12302000Y-4123000D01*
X12313000Y-3470000D02*
X12353000Y-3510000D01*
X12353000Y-3470000D02*
X12313000Y-3510000D01*
X12349000Y-4654000D02*
X12389000Y-4694000D01*
X12389000Y-4654000D02*
X12349000Y-4694000D01*
X12363000Y-2950000D02*
X12403000Y-2990000D01*
X12403000Y-2950000D02*
X12363000Y-2990000D01*
X12413000Y-6658000D02*
X12453000Y-6698000D01*
X12453000Y-6658000D02*
X12413000Y-6698000D01*
X12469000Y-6227000D02*
X12509000Y-6267000D01*
X12509000Y-6227000D02*
X12469000Y-6267000D01*
X12485000Y-4473000D02*
X12525000Y-4513000D01*
X12525000Y-4473000D02*
X12485000Y-4513000D01*
X12519000Y-4158000D02*
X12559000Y-4198000D01*
X12559000Y-4158000D02*
X12519000Y-4198000D01*
X12535000Y-3272000D02*
X12575000Y-3312000D01*
X12575000Y-3272000D02*
X12535000Y-3312000D01*
X12558000Y-3889000D02*
X12598000Y-3929000D01*
X12598000Y-3889000D02*
X12558000Y-3929000D01*
X12581000Y-4638000D02*
X12621000Y-4678000D01*
X12621000Y-4638000D02*
X12581000Y-4678000D01*
X12583000Y-12016000D02*
X12623000Y-12056000D01*
X12623000Y-12016000D02*
X12583000Y-12056000D01*
X12600000Y-2961000D02*
X12640000Y-3001000D01*
X12640000Y-2961000D02*
X12600000Y-3001000D01*
X12625000Y-3691000D02*
X12665000Y-3731000D01*
X12665000Y-3691000D02*
X12625000Y-3731000D01*
X12654000Y-5993000D02*
X12694000Y-6033000D01*
X12694000Y-5993000D02*
X12654000Y-6033000D01*
X12671000Y-3519000D02*
X12711000Y-3559000D01*
X12711000Y-3519000D02*
X12671000Y-3559000D01*
X12715000Y-4244000D02*
X12755000Y-4284000D01*
X12755000Y-4244000D02*
X12715000Y-4284000D01*
X12743000Y-2883000D02*
X12783000Y-2923000D01*
X12783000Y-2883000D02*
X12743000Y-2923000D01*
X12765000Y-6367000D02*
X12805000Y-6407000D01*
X12805000Y-6367000D02*
X12765000Y-6407000D01*
X12774000Y-4467000D02*
X12814000Y-4507000D01*
X12814000Y-4467000D02*
X12774000Y-4507000D01*
X12785000Y-3074000D02*
X12825000Y-3114000D01*
X12825000Y-3074000D02*
X12785000Y-3114000D01*
X12793000Y-4042000D02*
X12833000Y-4082000D01*
X12833000Y-4042000D02*
X12793000Y-4082000D01*
X12832000Y-5898000D02*
X12872000Y-5938000D01*
X12872000Y-5898000D02*
X12832000Y-5938000D01*
X12866000Y-6691000D02*
X12906000Y-6731000D01*
X12906000Y-6691000D02*
X12866000Y-6731000D01*
X12916000Y-4308000D02*
X12956000Y-4348000D01*
X12956000Y-4308000D02*
X12916000Y-4348000D01*
X12922000Y-3935000D02*
X12962000Y-3975000D01*
X12962000Y-3935000D02*
X12922000Y-3975000D01*
X12957000Y-3249000D02*
X12997000Y-3289000D01*
X12997000Y-3249000D02*
X12957000Y-3289000D01*
X12983000Y-3734000D02*
X13023000Y-3774000D01*
X13023000Y-3734000D02*
X12983000Y-3774000D01*
X12995000Y-3017000D02*
X13035000Y-3057000D01*
X13035000Y-3017000D02*
X12995000Y-3057000D01*
X13006000Y-12065000D02*
X13046000Y-12105000D01*
X13046000Y-12065000D02*
X13006000Y-12105000D01*
X13011000Y-2877000D02*
X13051000Y-2917000D01*
X13051000Y-2877000D02*
X13011000Y-2917000D01*
X13017000Y-4657000D02*
X13057000Y-4697000D01*
X13057000Y-4657000D02*
X13017000Y-4697000D01*
X13022000Y-6395000D02*
X13062000Y-6435000D01*
X13062000Y-6395000D02*
X13022000Y-6435000D01*
X13078000Y-3985000D02*
X13118000Y-4025000D01*
X13118000Y-3985000D02*
X13078000Y-4025000D01*
X13092000Y-4490000D02*
X13132000Y-4530000D01*
X13132000Y-4490000D02*
X13092000Y-4530000D01*
X13133000Y-2664000D02*
X13173000Y-2704000D01*
X13173000Y-2664000D02*
X13133000Y-2704000D01*
X13134000Y-4263000D02*
X13174000Y-4303000D01*
X13174000Y-4263000D02*
X13134000Y-4303000D01*
X13137000Y-3837000D02*
X13177000Y-3877000D01*
X13177000Y-3837000D02*
X13137000Y-3877000D01*
X13140000Y-6060000D02*
X13180000Y-6100000D01*
X13180000Y-6060000D02*
X13140000Y-6100000D01*
X13147000Y-3085000D02*
X13187000Y-3125000D01*
X13187000Y-3085000D02*
X13147000Y-3125000D01*
X13157000Y-5898000D02*
X13197000Y-5938000D01*
X13197000Y-5898000D02*
X13157000Y-5938000D01*
X13170000Y-3363000D02*
X13210000Y-3403000D01*
X13210000Y-3363000D02*
X13170000Y-3403000D01*
X13229000Y-6300000D02*
X13269000Y-6340000D01*
X13269000Y-6300000D02*
X13229000Y-6340000D01*
X13231000Y-2849000D02*
X13271000Y-2889000D01*
X13271000Y-2849000D02*
X13231000Y-2889000D01*
X13231000Y-4150000D02*
X13271000Y-4190000D01*
X13271000Y-4150000D02*
X13231000Y-4190000D01*
X13241000Y-2522000D02*
X13281000Y-2562000D01*
X13281000Y-2522000D02*
X13241000Y-2562000D01*
X13296000Y-3489000D02*
X13336000Y-3529000D01*
X13336000Y-3489000D02*
X13296000Y-3529000D01*
X13307000Y-3013000D02*
X13347000Y-3053000D01*
X13347000Y-3013000D02*
X13307000Y-3053000D01*
X13311000Y-3249000D02*
X13351000Y-3289000D01*
X13351000Y-3249000D02*
X13311000Y-3289000D01*
X13346000Y-4306000D02*
X13386000Y-4346000D01*
X13386000Y-4306000D02*
X13346000Y-4346000D01*
X13355000Y-2725000D02*
X13395000Y-2765000D01*
X13395000Y-2725000D02*
X13355000Y-2765000D01*
X13374000Y-6758000D02*
X13414000Y-6798000D01*
X13414000Y-6758000D02*
X13374000Y-6798000D01*
X13379000Y-4119000D02*
X13419000Y-4159000D01*
X13419000Y-4119000D02*
X13379000Y-4159000D01*
X13409000Y-2514000D02*
X13449000Y-2554000D01*
X13449000Y-2514000D02*
X13409000Y-2554000D01*
X13441000Y-12016000D02*
X13481000Y-12056000D01*
X13481000Y-12016000D02*
X13441000Y-12056000D01*
X13474000Y-3124000D02*
X13514000Y-3164000D01*
X13514000Y-3124000D02*
X13474000Y-3164000D01*
X13475000Y-4308000D02*
X13515000Y-4348000D01*
X13515000Y-4308000D02*
X13475000Y-4348000D01*
X13481000Y-2892000D02*
X13521000Y-2932000D01*
X13521000Y-2892000D02*
X13481000Y-2932000D01*
X13490000Y-3377000D02*
X13530000Y-3417000D01*
X13530000Y-3377000D02*
X13490000Y-3417000D01*
X13496000Y-3683000D02*
X13536000Y-3723000D01*
X13536000Y-3683000D02*
X13496000Y-3723000D01*
X13499000Y-2693000D02*
X13539000Y-2733000D01*
X13539000Y-2693000D02*
X13499000Y-2733000D01*
X13509000Y-5864000D02*
X13549000Y-5904000D01*
X13549000Y-5864000D02*
X13509000Y-5904000D01*
X13665000Y-6574000D02*
X13705000Y-6614000D01*
X13705000Y-6574000D02*
X13665000Y-6614000D01*
X13692000Y-3252000D02*
X13732000Y-3292000D01*
X13732000Y-3252000D02*
X13692000Y-3292000D01*
X13700000Y-2876000D02*
X13740000Y-2916000D01*
X13740000Y-2876000D02*
X13700000Y-2916000D01*
X13702000Y-3682000D02*
X13742000Y-3722000D01*
X13742000Y-3682000D02*
X13702000Y-3722000D01*
X13710000Y-2693000D02*
X13750000Y-2733000D01*
X13750000Y-2693000D02*
X13710000Y-2733000D01*
X13771000Y-3975000D02*
X13811000Y-4015000D01*
X13811000Y-3975000D02*
X13771000Y-4015000D01*
X13775000Y-2774000D02*
X13815000Y-2814000D01*
X13815000Y-2774000D02*
X13775000Y-2814000D01*
X13777000Y-3426000D02*
X13817000Y-3466000D01*
X13817000Y-3426000D02*
X13777000Y-3466000D01*
X13794000Y-3075000D02*
X13834000Y-3115000D01*
X13834000Y-3075000D02*
X13794000Y-3115000D01*
X13816000Y-4526000D02*
X13856000Y-4566000D01*
X13856000Y-4526000D02*
X13816000Y-4566000D01*
X13824000Y-12079000D02*
X13864000Y-12119000D01*
X13864000Y-12079000D02*
X13824000Y-12119000D01*
X13958000Y-3141000D02*
X13998000Y-3181000D01*
X13998000Y-3141000D02*
X13958000Y-3181000D01*
X13983000Y-12003000D02*
X14023000Y-12043000D01*
X14023000Y-12003000D02*
X13983000Y-12043000D01*
X14008000Y-3969000D02*
X14048000Y-4009000D01*
X14048000Y-3969000D02*
X14008000Y-4009000D01*
X14048000Y-3280000D02*
X14088000Y-3320000D01*
X14088000Y-3280000D02*
X14048000Y-3320000D01*
X14050000Y-3668000D02*
X14090000Y-3708000D01*
X14090000Y-3668000D02*
X14050000Y-3708000D01*
X14058000Y-4160000D02*
X14098000Y-4200000D01*
X14098000Y-4160000D02*
X14058000Y-4200000D01*
X14104000Y-2908000D02*
X14144000Y-2948000D01*
X14144000Y-2908000D02*
X14104000Y-2948000D01*
X14263000Y-4087000D02*
X14303000Y-4127000D01*
X14303000Y-4087000D02*
X14263000Y-4127000D01*
X14269000Y-3700000D02*
X14309000Y-3740000D01*
X14309000Y-3700000D02*
X14269000Y-3740000D01*
X14277000Y-5252000D02*
X14317000Y-5292000D01*
X14317000Y-5252000D02*
X14277000Y-5292000D01*
X14283000Y-4358000D02*
X14323000Y-4398000D01*
X14323000Y-4358000D02*
X14283000Y-4398000D01*
X14294000Y-3299000D02*
X14334000Y-3339000D01*
X14334000Y-3299000D02*
X14294000Y-3339000D01*
X14318000Y-12050000D02*
X14358000Y-12090000D01*
X14358000Y-12050000D02*
X14318000Y-12090000D01*
X14321000Y-2937000D02*
X14361000Y-2977000D01*
X14361000Y-2937000D02*
X14321000Y-2977000D01*
X14358000Y-2492000D02*
X14398000Y-2532000D01*
X14398000Y-2492000D02*
X14358000Y-2532000D01*
X14498000Y-5793000D02*
X14538000Y-5833000D01*
X14538000Y-5793000D02*
X14498000Y-5833000D01*
X14508000Y-3900000D02*
X14548000Y-3940000D01*
X14548000Y-3900000D02*
X14508000Y-3940000D01*
X14525000Y-3491000D02*
X14565000Y-3531000D01*
X14565000Y-3491000D02*
X14525000Y-3531000D01*
X14542000Y-3095000D02*
X14582000Y-3135000D01*
X14582000Y-3095000D02*
X14542000Y-3135000D01*
X14545000Y-4565000D02*
X14585000Y-4605000D01*
X14585000Y-4565000D02*
X14545000Y-4605000D01*
X14548000Y-2662000D02*
X14588000Y-2702000D01*
X14588000Y-2662000D02*
X14548000Y-2702000D01*
X14584000Y-4104000D02*
X14624000Y-4144000D01*
X14624000Y-4104000D02*
X14584000Y-4144000D01*
X14730000Y-12020000D02*
X14770000Y-12060000D01*
X14770000Y-12020000D02*
X14730000Y-12060000D01*
X14732000Y-9386000D02*
X14772000Y-9426000D01*
X14772000Y-9386000D02*
X14732000Y-9426000D01*
X14767000Y-9815000D02*
X14807000Y-9855000D01*
X14807000Y-9815000D02*
X14767000Y-9855000D01*
X14773000Y-7288000D02*
X14813000Y-7328000D01*
X14813000Y-7288000D02*
X14773000Y-7328000D01*
X14773000Y-7528000D02*
X14813000Y-7568000D01*
X14813000Y-7528000D02*
X14773000Y-7568000D01*
X14774000Y-8747000D02*
X14814000Y-8787000D01*
X14814000Y-8747000D02*
X14774000Y-8787000D01*
X14791000Y-8408000D02*
X14831000Y-8448000D01*
X14831000Y-8408000D02*
X14791000Y-8448000D01*
X14800000Y-7074000D02*
X14840000Y-7114000D01*
X14840000Y-7074000D02*
X14800000Y-7114000D01*
X14801000Y-11124000D02*
X14841000Y-11164000D01*
X14841000Y-11124000D02*
X14801000Y-11164000D01*
X14809000Y-7883000D02*
X14849000Y-7923000D01*
X14849000Y-7883000D02*
X14809000Y-7923000D01*
X14812000Y-9109000D02*
X14852000Y-9149000D01*
X14852000Y-9109000D02*
X14812000Y-9149000D01*
X14850000Y-9262000D02*
X14890000Y-9302000D01*
X14890000Y-9262000D02*
X14850000Y-9302000D01*
X14852000Y-10534000D02*
X14892000Y-10574000D01*
X14892000Y-10534000D02*
X14852000Y-10574000D01*
X14858000Y-11612000D02*
X14898000Y-11652000D01*
X14898000Y-11612000D02*
X14858000Y-11652000D01*
X14890000Y-9391000D02*
X14930000Y-9431000D01*
X14930000Y-9391000D02*
X14890000Y-9431000D01*
X14890000Y-10115000D02*
X14930000Y-10155000D01*
X14930000Y-10115000D02*
X14890000Y-10155000D01*
X14928000Y-10864000D02*
X14968000Y-10904000D01*
X14968000Y-10864000D02*
X14928000Y-10904000D01*
X14930000Y-6213000D02*
X14970000Y-6253000D01*
X14970000Y-6213000D02*
X14930000Y-6253000D01*
X14933000Y-6009000D02*
X14973000Y-6049000D01*
X14973000Y-6009000D02*
X14933000Y-6049000D01*
X14934000Y-5720000D02*
X14974000Y-5760000D01*
X14974000Y-5720000D02*
X14934000Y-5760000D01*
X14935000Y-5860000D02*
X14975000Y-5900000D01*
X14975000Y-5860000D02*
X14935000Y-5900000D01*
X14942000Y-11940000D02*
X14982000Y-11980000D01*
X14982000Y-11940000D02*
X14942000Y-11980000D01*
X14960000Y-7857000D02*
X15000000Y-7897000D01*
X15000000Y-7857000D02*
X14960000Y-7897000D01*
X14984000Y-8549000D02*
X15024000Y-8589000D01*
X15024000Y-8549000D02*
X14984000Y-8589000D01*
X15018000Y-11349000D02*
X15058000Y-11389000D01*
X15058000Y-11349000D02*
X15018000Y-11389000D01*
X15041000Y-5804000D02*
X15081000Y-5844000D01*
X15081000Y-5804000D02*
X15041000Y-5844000D01*
X15041000Y-5942000D02*
X15081000Y-5982000D01*
X15081000Y-5942000D02*
X15041000Y-5982000D01*
X15059000Y-6119000D02*
X15099000Y-6159000D01*
X15099000Y-6119000D02*
X15059000Y-6159000D01*
X15080000Y-10089000D02*
X15120000Y-10129000D01*
X15120000Y-10089000D02*
X15080000Y-10129000D01*
X15094000Y-9876000D02*
X15134000Y-9916000D01*
X15134000Y-9876000D02*
X15094000Y-9916000D01*
X15106000Y-9213000D02*
X15146000Y-9253000D01*
X15146000Y-9213000D02*
X15106000Y-9253000D01*
X15106000Y-10445000D02*
X15146000Y-10485000D01*
X15146000Y-10445000D02*
X15106000Y-10485000D01*
X15110000Y-4701000D02*
X15150000Y-4741000D01*
X15150000Y-4701000D02*
X15110000Y-4741000D01*
X15141000Y-6221000D02*
X15181000Y-6261000D01*
X15181000Y-6221000D02*
X15141000Y-6261000D01*
X15148000Y-11753000D02*
X15188000Y-11793000D01*
X15188000Y-11753000D02*
X15148000Y-11793000D01*
X15155000Y-8185000D02*
X15195000Y-8225000D01*
X15195000Y-8185000D02*
X15155000Y-8225000D01*
X15163000Y-9374000D02*
X15203000Y-9414000D01*
X15203000Y-9374000D02*
X15163000Y-9414000D01*
X15164000Y-7785000D02*
X15204000Y-7825000D01*
X15204000Y-7785000D02*
X15164000Y-7825000D01*
X15173000Y-7332000D02*
X15213000Y-7372000D01*
X15213000Y-7332000D02*
X15173000Y-7372000D01*
X15175000Y-5913000D02*
X15215000Y-5953000D01*
X15215000Y-5913000D02*
X15175000Y-5953000D01*
X15195000Y-10585000D02*
X15235000Y-10625000D01*
X15235000Y-10585000D02*
X15195000Y-10625000D01*
X15198000Y-6025000D02*
X15238000Y-6065000D01*
X15238000Y-6025000D02*
X15198000Y-6065000D01*
X15200000Y-5718000D02*
X15240000Y-5758000D01*
X15240000Y-5718000D02*
X15200000Y-5758000D01*
X15216000Y-8899000D02*
X15256000Y-8939000D01*
X15256000Y-8899000D02*
X15216000Y-8939000D01*
X15224000Y-3285000D02*
X15264000Y-3325000D01*
X15264000Y-3285000D02*
X15224000Y-3325000D01*
X15232000Y-3042000D02*
X15272000Y-3082000D01*
X15272000Y-3042000D02*
X15232000Y-3082000D01*
X15241000Y-9044000D02*
X15281000Y-9084000D01*
X15281000Y-9044000D02*
X15241000Y-9084000D01*
X15245000Y-11067000D02*
X15285000Y-11107000D01*
X15285000Y-11067000D02*
X15245000Y-11107000D01*
X15262000Y-8248000D02*
X15302000Y-8288000D01*
X15302000Y-8248000D02*
X15262000Y-8288000D01*
X15279000Y-3642000D02*
X15319000Y-3682000D01*
X15319000Y-3642000D02*
X15279000Y-3682000D01*
X15284000Y-9823000D02*
X15324000Y-9863000D01*
X15324000Y-9823000D02*
X15284000Y-9863000D01*
X15291000Y-2718000D02*
X15331000Y-2758000D01*
X15331000Y-2718000D02*
X15291000Y-2758000D01*
X15301000Y-6106000D02*
X15341000Y-6146000D01*
X15341000Y-6106000D02*
X15301000Y-6146000D01*
X15308000Y-11399000D02*
X15348000Y-11439000D01*
X15348000Y-11399000D02*
X15308000Y-11439000D01*
X15313000Y-4269000D02*
X15353000Y-4309000D01*
X15353000Y-4269000D02*
X15313000Y-4309000D01*
X15315000Y-7901000D02*
X15355000Y-7941000D01*
X15355000Y-7901000D02*
X15315000Y-7941000D01*
X15316000Y-3928000D02*
X15356000Y-3968000D01*
X15356000Y-3928000D02*
X15316000Y-3968000D01*
X15318000Y-5808000D02*
X15358000Y-5848000D01*
X15358000Y-5808000D02*
X15318000Y-5848000D01*
X15327000Y-2464000D02*
X15367000Y-2504000D01*
X15367000Y-2464000D02*
X15327000Y-2504000D01*
X15336000Y-5924000D02*
X15376000Y-5964000D01*
X15376000Y-5924000D02*
X15336000Y-5964000D01*
X15351000Y-7590000D02*
X15391000Y-7630000D01*
X15391000Y-7590000D02*
X15351000Y-7630000D01*
X15366000Y-9532000D02*
X15406000Y-9572000D01*
X15406000Y-9532000D02*
X15366000Y-9572000D01*
X15370000Y-3333000D02*
X15410000Y-3373000D01*
X15410000Y-3333000D02*
X15370000Y-3373000D01*
X15378000Y-4506000D02*
X15418000Y-4546000D01*
X15418000Y-4506000D02*
X15378000Y-4546000D01*
X15380000Y-8629000D02*
X15420000Y-8669000D01*
X15420000Y-8629000D02*
X15380000Y-8669000D01*
X15391000Y-6003000D02*
X15431000Y-6043000D01*
X15431000Y-6003000D02*
X15391000Y-6043000D01*
X15397000Y-6218000D02*
X15437000Y-6258000D01*
X15437000Y-6218000D02*
X15397000Y-6258000D01*
X15409000Y-3020000D02*
X15449000Y-3060000D01*
X15449000Y-3020000D02*
X15409000Y-3060000D01*
X15417000Y-5715000D02*
X15457000Y-5755000D01*
X15457000Y-5715000D02*
X15417000Y-5755000D01*
X15422000Y-11952000D02*
X15462000Y-11992000D01*
X15462000Y-11952000D02*
X15422000Y-11992000D01*
X15430000Y-5932000D02*
X15470000Y-5972000D01*
X15470000Y-5932000D02*
X15430000Y-5972000D01*
X15461000Y-10635000D02*
X15501000Y-10675000D01*
X15501000Y-10635000D02*
X15461000Y-10675000D01*
X15474000Y-3733000D02*
X15514000Y-3773000D01*
X15514000Y-3733000D02*
X15474000Y-3773000D01*
X15481000Y-2774000D02*
X15521000Y-2814000D01*
X15521000Y-2774000D02*
X15481000Y-2814000D01*
X15490000Y-4093000D02*
X15530000Y-4133000D01*
X15530000Y-4093000D02*
X15490000Y-4133000D01*
X15492000Y-4305000D02*
X15532000Y-4345000D01*
X15532000Y-4305000D02*
X15492000Y-4345000D01*
X15495000Y-4601000D02*
X15535000Y-4641000D01*
X15535000Y-4601000D02*
X15495000Y-4641000D01*
X15498000Y-2469000D02*
X15538000Y-2509000D01*
X15538000Y-2469000D02*
X15498000Y-2509000D01*
X15499000Y-10191000D02*
X15539000Y-10231000D01*
X15539000Y-10191000D02*
X15499000Y-10231000D01*
X15501000Y-11670000D02*
X15541000Y-11710000D01*
X15541000Y-11670000D02*
X15501000Y-11710000D01*
X15511000Y-8292000D02*
X15551000Y-8332000D01*
X15551000Y-8292000D02*
X15511000Y-8332000D01*
X15546000Y-9021000D02*
X15586000Y-9061000D01*
X15586000Y-9021000D02*
X15546000Y-9061000D01*
X15563000Y-9429000D02*
X15603000Y-9469000D01*
X15603000Y-9429000D02*
X15563000Y-9469000D01*
X15574000Y-8880000D02*
X15614000Y-8920000D01*
X15614000Y-8880000D02*
X15574000Y-8920000D01*
X15582000Y-8514000D02*
X15622000Y-8554000D01*
X15622000Y-8514000D02*
X15582000Y-8554000D01*
X15584000Y-5552000D02*
X15624000Y-5592000D01*
X15624000Y-5552000D02*
X15584000Y-5592000D01*
X15593000Y-11156000D02*
X15633000Y-11196000D01*
X15633000Y-11156000D02*
X15593000Y-11196000D01*
X15609000Y-8070000D02*
X15649000Y-8110000D01*
X15649000Y-8070000D02*
X15609000Y-8110000D01*
X15624000Y-6560000D02*
X15664000Y-6600000D01*
X15664000Y-6560000D02*
X15624000Y-6600000D01*
X15637000Y-6367000D02*
X15677000Y-6407000D01*
X15677000Y-6367000D02*
X15637000Y-6407000D01*
X15662000Y-5380000D02*
X15702000Y-5420000D01*
X15702000Y-5380000D02*
X15662000Y-5420000D01*
X15677000Y-9899000D02*
X15717000Y-9939000D01*
X15717000Y-9899000D02*
X15677000Y-9939000D01*
X15696000Y-9619000D02*
X15736000Y-9659000D01*
X15736000Y-9619000D02*
X15696000Y-9659000D01*
X15718000Y-5494000D02*
X15758000Y-5534000D01*
X15758000Y-5494000D02*
X15718000Y-5534000D01*
X15730000Y-6686000D02*
X15770000Y-6726000D01*
X15770000Y-6686000D02*
X15730000Y-6726000D01*
X15740000Y-5904000D02*
X15780000Y-5944000D01*
X15780000Y-5904000D02*
X15740000Y-5944000D01*
X15750000Y-5596000D02*
X15790000Y-5636000D01*
X15790000Y-5596000D02*
X15750000Y-5636000D01*
X15761000Y-3757000D02*
X15801000Y-3797000D01*
X15801000Y-3757000D02*
X15761000Y-3797000D01*
X15769000Y-8883000D02*
X15809000Y-8923000D01*
X15809000Y-8883000D02*
X15769000Y-8923000D01*
X15777000Y-3171000D02*
X15817000Y-3211000D01*
X15817000Y-3171000D02*
X15777000Y-3211000D01*
X15777000Y-10938000D02*
X15817000Y-10978000D01*
X15817000Y-10938000D02*
X15777000Y-10978000D01*
X15789000Y-6488000D02*
X15829000Y-6528000D01*
X15829000Y-6488000D02*
X15789000Y-6528000D01*
X15791000Y-4512000D02*
X15831000Y-4552000D01*
X15831000Y-4512000D02*
X15791000Y-4552000D01*
X15794000Y-4146000D02*
X15834000Y-4186000D01*
X15834000Y-4146000D02*
X15794000Y-4186000D01*
X15795000Y-5436000D02*
X15835000Y-5476000D01*
X15835000Y-5436000D02*
X15795000Y-5476000D01*
X15795000Y-9154000D02*
X15835000Y-9194000D01*
X15835000Y-9154000D02*
X15795000Y-9194000D01*
X15808000Y-3442000D02*
X15848000Y-3482000D01*
X15848000Y-3442000D02*
X15808000Y-3482000D01*
X15831000Y-8319000D02*
X15871000Y-8359000D01*
X15871000Y-8319000D02*
X15831000Y-8359000D01*
X15842000Y-2933000D02*
X15882000Y-2973000D01*
X15882000Y-2933000D02*
X15842000Y-2973000D01*
X15844000Y-9960000D02*
X15884000Y-10000000D01*
X15884000Y-9960000D02*
X15844000Y-10000000D01*
X15847000Y-4749000D02*
X15887000Y-4789000D01*
X15887000Y-4749000D02*
X15847000Y-4789000D01*
X15849000Y-8488000D02*
X15889000Y-8528000D01*
X15889000Y-8488000D02*
X15849000Y-8528000D01*
X15866000Y-8763000D02*
X15906000Y-8803000D01*
X15906000Y-8763000D02*
X15866000Y-8803000D01*
X15874000Y-5581000D02*
X15914000Y-5621000D01*
X15914000Y-5581000D02*
X15874000Y-5621000D01*
X15889000Y-11936000D02*
X15929000Y-11976000D01*
X15929000Y-11936000D02*
X15889000Y-11976000D01*
X15911000Y-8079000D02*
X15951000Y-8119000D01*
X15951000Y-8079000D02*
X15911000Y-8119000D01*
X15911000Y-9448000D02*
X15951000Y-9488000D01*
X15951000Y-9448000D02*
X15911000Y-9488000D01*
X15917000Y-7133000D02*
X15957000Y-7173000D01*
X15957000Y-7133000D02*
X15917000Y-7173000D01*
X15939000Y-6600000D02*
X15979000Y-6640000D01*
X15979000Y-6600000D02*
X15939000Y-6640000D01*
X15952000Y-8932000D02*
X15992000Y-8972000D01*
X15992000Y-8932000D02*
X15952000Y-8972000D01*
X15973000Y-3039000D02*
X16013000Y-3079000D01*
X16013000Y-3039000D02*
X15973000Y-3079000D01*
X15984000Y-3674000D02*
X16024000Y-3714000D01*
X16024000Y-3674000D02*
X15984000Y-3714000D01*
X15987000Y-3338000D02*
X16027000Y-3378000D01*
X16027000Y-3338000D02*
X15987000Y-3378000D01*
X15987000Y-4294000D02*
X16027000Y-4334000D01*
X16027000Y-4294000D02*
X15987000Y-4334000D01*
X15988000Y-5130000D02*
X16028000Y-5170000D01*
X16028000Y-5130000D02*
X15988000Y-5170000D01*
X15995000Y-4009000D02*
X16035000Y-4049000D01*
X16035000Y-4009000D02*
X15995000Y-4049000D01*
X16004000Y-9868000D02*
X16044000Y-9908000D01*
X16044000Y-9868000D02*
X16004000Y-9908000D01*
X16020000Y-4979000D02*
X16060000Y-5019000D01*
X16060000Y-4979000D02*
X16020000Y-5019000D01*
X16021000Y-6767000D02*
X16061000Y-6807000D01*
X16061000Y-6767000D02*
X16021000Y-6807000D01*
X16046000Y-9298000D02*
X16086000Y-9338000D01*
X16086000Y-9298000D02*
X16046000Y-9338000D01*
X16063000Y-6371000D02*
X16103000Y-6411000D01*
X16103000Y-6371000D02*
X16063000Y-6411000D01*
X16071000Y-3844000D02*
X16111000Y-3884000D01*
X16111000Y-3844000D02*
X16071000Y-3884000D01*
X16079000Y-9513000D02*
X16119000Y-9553000D01*
X16119000Y-9513000D02*
X16079000Y-9553000D01*
X16082000Y-3442000D02*
X16122000Y-3482000D01*
X16122000Y-3442000D02*
X16082000Y-3482000D01*
X16098000Y-7336000D02*
X16138000Y-7376000D01*
X16138000Y-7336000D02*
X16098000Y-7376000D01*
X16098000Y-9039000D02*
X16138000Y-9079000D01*
X16138000Y-9039000D02*
X16098000Y-9079000D01*
X16129000Y-11067000D02*
X16169000Y-11107000D01*
X16169000Y-11067000D02*
X16129000Y-11107000D01*
X16132000Y-3235000D02*
X16172000Y-3275000D01*
X16172000Y-3235000D02*
X16132000Y-3275000D01*
X16132000Y-3643000D02*
X16172000Y-3683000D01*
X16172000Y-3643000D02*
X16132000Y-3683000D01*
X16138000Y-4260000D02*
X16178000Y-4300000D01*
X16178000Y-4260000D02*
X16138000Y-4300000D01*
X16148000Y-5020000D02*
X16188000Y-5060000D01*
X16188000Y-5020000D02*
X16148000Y-5060000D01*
X16159000Y-4440000D02*
X16199000Y-4480000D01*
X16199000Y-4440000D02*
X16159000Y-4480000D01*
X16159000Y-4764000D02*
X16199000Y-4804000D01*
X16199000Y-4764000D02*
X16159000Y-4804000D01*
X16163000Y-5370000D02*
X16203000Y-5410000D01*
X16203000Y-5370000D02*
X16163000Y-5410000D01*
X16163000Y-10019000D02*
X16203000Y-10059000D01*
X16203000Y-10019000D02*
X16163000Y-10059000D01*
X16174000Y-2911000D02*
X16214000Y-2951000D01*
X16214000Y-2911000D02*
X16174000Y-2951000D01*
X16180000Y-4101000D02*
X16220000Y-4141000D01*
X16220000Y-4101000D02*
X16180000Y-4141000D01*
X16182000Y-8839000D02*
X16222000Y-8879000D01*
X16222000Y-8839000D02*
X16182000Y-8879000D01*
X16199000Y-6453000D02*
X16239000Y-6493000D01*
X16239000Y-6453000D02*
X16199000Y-6493000D01*
X16206000Y-4973000D02*
X16246000Y-5013000D01*
X16246000Y-4973000D02*
X16206000Y-5013000D01*
X16206000Y-7135000D02*
X16246000Y-7175000D01*
X16246000Y-7135000D02*
X16206000Y-7175000D01*
X16208000Y-9181000D02*
X16248000Y-9221000D01*
X16248000Y-9181000D02*
X16208000Y-9221000D01*
X16213000Y-9600000D02*
X16253000Y-9640000D01*
X16253000Y-9600000D02*
X16213000Y-9640000D01*
X16219000Y-3397000D02*
X16259000Y-3437000D01*
X16259000Y-3397000D02*
X16219000Y-3437000D01*
X16240000Y-8426000D02*
X16280000Y-8466000D01*
X16280000Y-8426000D02*
X16240000Y-8466000D01*
X16263000Y-3749000D02*
X16303000Y-3789000D01*
X16303000Y-3749000D02*
X16263000Y-3789000D01*
X16279000Y-6651000D02*
X16319000Y-6691000D01*
X16319000Y-6651000D02*
X16279000Y-6691000D01*
X16280000Y-9396000D02*
X16320000Y-9436000D01*
X16320000Y-9396000D02*
X16280000Y-9436000D01*
X16287000Y-5042000D02*
X16327000Y-5082000D01*
X16327000Y-5042000D02*
X16287000Y-5082000D01*
X16289000Y-6334000D02*
X16329000Y-6374000D01*
X16329000Y-6334000D02*
X16289000Y-6374000D01*
X16305000Y-4785000D02*
X16345000Y-4825000D01*
X16345000Y-4785000D02*
X16305000Y-4825000D01*
X16311000Y-5267000D02*
X16351000Y-5307000D01*
X16351000Y-5267000D02*
X16311000Y-5307000D01*
X16338000Y-9128000D02*
X16378000Y-9168000D01*
X16378000Y-9128000D02*
X16338000Y-9168000D01*
X16347000Y-7582000D02*
X16387000Y-7622000D01*
X16387000Y-7582000D02*
X16347000Y-7622000D01*
X16362000Y-5485000D02*
X16402000Y-5525000D01*
X16402000Y-5485000D02*
X16362000Y-5525000D01*
X16364000Y-11888000D02*
X16404000Y-11928000D01*
X16404000Y-11888000D02*
X16364000Y-11928000D01*
X16373000Y-8683000D02*
X16413000Y-8723000D01*
X16413000Y-8683000D02*
X16373000Y-8723000D01*
X16375000Y-8516000D02*
X16415000Y-8556000D01*
X16415000Y-8516000D02*
X16375000Y-8556000D01*
X16382000Y-6571000D02*
X16422000Y-6611000D01*
X16422000Y-6571000D02*
X16382000Y-6611000D01*
X16388000Y-4544000D02*
X16428000Y-4584000D01*
X16428000Y-4544000D02*
X16388000Y-4584000D01*
X16389000Y-3920000D02*
X16429000Y-3960000D01*
X16429000Y-3920000D02*
X16389000Y-3960000D01*
X16390000Y-5587000D02*
X16430000Y-5627000D01*
X16430000Y-5587000D02*
X16390000Y-5627000D01*
X16395000Y-5352000D02*
X16435000Y-5392000D01*
X16435000Y-5352000D02*
X16395000Y-5392000D01*
X16398000Y-2930000D02*
X16438000Y-2970000D01*
X16438000Y-2930000D02*
X16398000Y-2970000D01*
X16398000Y-4235000D02*
X16438000Y-4275000D01*
X16438000Y-4235000D02*
X16398000Y-4275000D01*
X16400000Y-3204000D02*
X16440000Y-3244000D01*
X16440000Y-3204000D02*
X16400000Y-3244000D01*
X16400000Y-8952000D02*
X16440000Y-8992000D01*
X16440000Y-8952000D02*
X16400000Y-8992000D01*
X16401000Y-5171000D02*
X16441000Y-5211000D01*
X16441000Y-5171000D02*
X16401000Y-5211000D01*
X16401000Y-7381000D02*
X16441000Y-7421000D01*
X16441000Y-7381000D02*
X16401000Y-7421000D01*
X16403000Y-4422000D02*
X16443000Y-4462000D01*
X16443000Y-4422000D02*
X16403000Y-4462000D01*
X16405000Y-6373000D02*
X16445000Y-6413000D01*
X16445000Y-6373000D02*
X16405000Y-6413000D01*
X16406000Y-9292000D02*
X16446000Y-9332000D01*
X16446000Y-9292000D02*
X16406000Y-9332000D01*
X16413000Y-6269000D02*
X16453000Y-6309000D01*
X16453000Y-6269000D02*
X16413000Y-6309000D01*
X16417000Y-3710000D02*
X16457000Y-3750000D01*
X16457000Y-3710000D02*
X16417000Y-3750000D01*
X16432000Y-6701000D02*
X16472000Y-6741000D01*
X16472000Y-6701000D02*
X16432000Y-6741000D01*
X16434000Y-9983000D02*
X16474000Y-10023000D01*
X16474000Y-9983000D02*
X16434000Y-10023000D01*
X16439000Y-3470000D02*
X16479000Y-3510000D01*
X16479000Y-3470000D02*
X16439000Y-3510000D01*
X16465000Y-9569000D02*
X16505000Y-9609000D01*
X16505000Y-9569000D02*
X16465000Y-9609000D01*
X16477000Y-4712000D02*
X16517000Y-4752000D01*
X16517000Y-4712000D02*
X16477000Y-4752000D01*
X16486000Y-5514000D02*
X16526000Y-5554000D01*
X16526000Y-5514000D02*
X16486000Y-5554000D01*
X16505000Y-5263000D02*
X16545000Y-5303000D01*
X16545000Y-5263000D02*
X16505000Y-5303000D01*
X16523000Y-7700000D02*
X16563000Y-7740000D01*
X16563000Y-7700000D02*
X16523000Y-7740000D01*
X16527000Y-6198000D02*
X16567000Y-6238000D01*
X16567000Y-6198000D02*
X16527000Y-6238000D01*
X16532000Y-4973000D02*
X16572000Y-5013000D01*
X16572000Y-4973000D02*
X16532000Y-5013000D01*
X16539000Y-4270000D02*
X16579000Y-4310000D01*
X16579000Y-4270000D02*
X16539000Y-4310000D01*
X16550000Y-2986000D02*
X16590000Y-3026000D01*
X16590000Y-2986000D02*
X16550000Y-3026000D01*
X16557000Y-3794000D02*
X16597000Y-3834000D01*
X16597000Y-3794000D02*
X16557000Y-3834000D01*
X16557000Y-6632000D02*
X16597000Y-6672000D01*
X16597000Y-6632000D02*
X16557000Y-6672000D01*
X16563000Y-3215000D02*
X16603000Y-3255000D01*
X16603000Y-3215000D02*
X16563000Y-3255000D01*
X16569000Y-3371000D02*
X16609000Y-3411000D01*
X16609000Y-3371000D02*
X16569000Y-3411000D01*
X16569000Y-7157000D02*
X16609000Y-7197000D01*
X16609000Y-7157000D02*
X16569000Y-7197000D01*
X16576000Y-6388000D02*
X16616000Y-6428000D01*
X16616000Y-6388000D02*
X16576000Y-6428000D01*
X16578000Y-4800000D02*
X16618000Y-4840000D01*
X16618000Y-4800000D02*
X16578000Y-4840000D01*
X16579000Y-8717000D02*
X16619000Y-8757000D01*
X16619000Y-8717000D02*
X16579000Y-8757000D01*
X16593000Y-9773000D02*
X16633000Y-9813000D01*
X16633000Y-9773000D02*
X16593000Y-9813000D01*
X16610000Y-3583000D02*
X16650000Y-3623000D01*
X16650000Y-3583000D02*
X16610000Y-3623000D01*
X16611000Y-5408000D02*
X16651000Y-5448000D01*
X16651000Y-5408000D02*
X16611000Y-5448000D01*
X16614000Y-5119000D02*
X16654000Y-5159000D01*
X16654000Y-5119000D02*
X16614000Y-5159000D01*
X16621000Y-12011000D02*
X16661000Y-12051000D01*
X16661000Y-12011000D02*
X16621000Y-12051000D01*
X16622000Y-3081000D02*
X16662000Y-3121000D01*
X16662000Y-3081000D02*
X16622000Y-3121000D01*
X16641000Y-7454000D02*
X16681000Y-7494000D01*
X16681000Y-7454000D02*
X16641000Y-7494000D01*
X16648000Y-6730000D02*
X16688000Y-6770000D01*
X16688000Y-6730000D02*
X16648000Y-6770000D01*
X16656000Y-6023000D02*
X16696000Y-6063000D01*
X16696000Y-6023000D02*
X16656000Y-6063000D01*
X16658000Y-4481000D02*
X16698000Y-4521000D01*
X16698000Y-4481000D02*
X16658000Y-4521000D01*
X16658000Y-4704000D02*
X16698000Y-4744000D01*
X16698000Y-4704000D02*
X16658000Y-4744000D01*
X16663000Y-9326000D02*
X16703000Y-9366000D01*
X16703000Y-9326000D02*
X16663000Y-9366000D01*
X16671000Y-7831000D02*
X16711000Y-7871000D01*
X16711000Y-7831000D02*
X16671000Y-7871000D01*
X16679000Y-5312000D02*
X16719000Y-5352000D01*
X16719000Y-5312000D02*
X16679000Y-5352000D01*
X16687000Y-4196000D02*
X16727000Y-4236000D01*
X16727000Y-4196000D02*
X16687000Y-4236000D01*
X16711000Y-8888000D02*
X16751000Y-8928000D01*
X16751000Y-8888000D02*
X16711000Y-8928000D01*
X16733000Y-6270000D02*
X16773000Y-6310000D01*
X16773000Y-6270000D02*
X16733000Y-6310000D01*
X16740000Y-5826000D02*
X16780000Y-5866000D01*
X16780000Y-5826000D02*
X16740000Y-5866000D01*
X16748000Y-3912000D02*
X16788000Y-3952000D01*
X16788000Y-3912000D02*
X16748000Y-3952000D01*
X16752000Y-5151000D02*
X16792000Y-5191000D01*
X16792000Y-5151000D02*
X16752000Y-5191000D01*
X16755000Y-7253000D02*
X16795000Y-7293000D01*
X16795000Y-7253000D02*
X16755000Y-7293000D01*
X16755000Y-8021000D02*
X16795000Y-8061000D01*
X16795000Y-8021000D02*
X16755000Y-8061000D01*
X16755000Y-9226000D02*
X16795000Y-9266000D01*
X16795000Y-9226000D02*
X16755000Y-9266000D01*
X16764000Y-7778000D02*
X16804000Y-7818000D01*
X16804000Y-7778000D02*
X16764000Y-7818000D01*
X16778000Y-5026000D02*
X16818000Y-5066000D01*
X16818000Y-5026000D02*
X16778000Y-5066000D01*
X16785000Y-3455000D02*
X16825000Y-3495000D01*
X16825000Y-3455000D02*
X16785000Y-3495000D01*
X16789000Y-9767000D02*
X16829000Y-9807000D01*
X16829000Y-9767000D02*
X16789000Y-9807000D01*
X16790000Y-6522000D02*
X16830000Y-6562000D01*
X16830000Y-6522000D02*
X16790000Y-6562000D01*
X16803000Y-4377000D02*
X16843000Y-4417000D01*
X16843000Y-4377000D02*
X16803000Y-4417000D01*
X16805000Y-3215000D02*
X16845000Y-3255000D01*
X16845000Y-3215000D02*
X16805000Y-3255000D01*
X16805000Y-9519000D02*
X16845000Y-9559000D01*
X16845000Y-9519000D02*
X16805000Y-9559000D01*
X16814000Y-10036000D02*
X16854000Y-10076000D01*
X16854000Y-10036000D02*
X16814000Y-10076000D01*
X16823000Y-4511000D02*
X16863000Y-4551000D01*
X16863000Y-4511000D02*
X16823000Y-4551000D01*
X16840000Y-4778000D02*
X16880000Y-4818000D01*
X16880000Y-4778000D02*
X16840000Y-4818000D01*
X16862000Y-2914000D02*
X16902000Y-2954000D01*
X16902000Y-2914000D02*
X16862000Y-2954000D01*
X16866000Y-2426000D02*
X16906000Y-2466000D01*
X16906000Y-2426000D02*
X16866000Y-2466000D01*
X16866000Y-2594000D02*
X16906000Y-2634000D01*
X16906000Y-2594000D02*
X16866000Y-2634000D01*
X16867000Y-5185000D02*
X16907000Y-5225000D01*
X16907000Y-5185000D02*
X16867000Y-5225000D01*
X16870000Y-4097000D02*
X16910000Y-4137000D01*
X16910000Y-4097000D02*
X16870000Y-4137000D01*
X16870000Y-7465000D02*
X16910000Y-7505000D01*
X16910000Y-7465000D02*
X16870000Y-7505000D01*
X16881000Y-3089000D02*
X16921000Y-3129000D01*
X16921000Y-3089000D02*
X16881000Y-3129000D01*
X16882000Y-5720000D02*
X16922000Y-5760000D01*
X16922000Y-5720000D02*
X16882000Y-5760000D01*
X16884000Y-3617000D02*
X16924000Y-3657000D01*
X16924000Y-3617000D02*
X16884000Y-3657000D01*
X16892000Y-3711000D02*
X16932000Y-3751000D01*
X16932000Y-3711000D02*
X16892000Y-3751000D01*
X16906000Y-8016000D02*
X16946000Y-8056000D01*
X16946000Y-8016000D02*
X16906000Y-8056000D01*
X16912000Y-6708000D02*
X16952000Y-6748000D01*
X16952000Y-6708000D02*
X16912000Y-6748000D01*
X16916000Y-5050000D02*
X16956000Y-5090000D01*
X16956000Y-5050000D02*
X16916000Y-5090000D01*
X16923000Y-11880000D02*
X16963000Y-11920000D01*
X16963000Y-11880000D02*
X16923000Y-11920000D01*
X16925000Y-4960000D02*
X16965000Y-5000000D01*
X16965000Y-4960000D02*
X16925000Y-5000000D01*
X16927000Y-4268000D02*
X16967000Y-4308000D01*
X16967000Y-4268000D02*
X16927000Y-4308000D01*
X16933000Y-6153000D02*
X16973000Y-6193000D01*
X16973000Y-6153000D02*
X16933000Y-6193000D01*
X16934000Y-7133000D02*
X16974000Y-7173000D01*
X16974000Y-7133000D02*
X16934000Y-7173000D01*
X16941000Y-5976000D02*
X16981000Y-6016000D01*
X16981000Y-5976000D02*
X16941000Y-6016000D01*
X16962000Y-9890000D02*
X17002000Y-9930000D01*
X17002000Y-9890000D02*
X16962000Y-9930000D01*
X16979000Y-7328000D02*
X17019000Y-7368000D01*
X17019000Y-7328000D02*
X16979000Y-7368000D01*
X16983000Y-3337000D02*
X17023000Y-3377000D01*
X17023000Y-3337000D02*
X16983000Y-3377000D01*
X17006000Y-4714000D02*
X17046000Y-4754000D01*
X17046000Y-4714000D02*
X17006000Y-4754000D01*
X17015000Y-6457000D02*
X17055000Y-6497000D01*
X17055000Y-6457000D02*
X17015000Y-6497000D01*
X17018000Y-2750000D02*
X17058000Y-2790000D01*
X17058000Y-2750000D02*
X17018000Y-2790000D01*
X17023000Y-7636000D02*
X17063000Y-7676000D01*
X17063000Y-7636000D02*
X17023000Y-7676000D01*
X17031000Y-4524000D02*
X17071000Y-4564000D01*
X17071000Y-4524000D02*
X17031000Y-4564000D01*
X17035000Y-3170000D02*
X17075000Y-3210000D01*
X17075000Y-3170000D02*
X17035000Y-3210000D01*
X17039000Y-3534000D02*
X17079000Y-3574000D01*
X17079000Y-3534000D02*
X17039000Y-3574000D01*
X17046000Y-8144000D02*
X17086000Y-8184000D01*
X17086000Y-8144000D02*
X17046000Y-8184000D01*
X17049000Y-5830000D02*
X17089000Y-5870000D01*
X17089000Y-5830000D02*
X17049000Y-5870000D01*
X17053000Y-3760000D02*
X17093000Y-3800000D01*
X17093000Y-3760000D02*
X17053000Y-3800000D01*
X17074000Y-7848000D02*
X17114000Y-7888000D01*
X17114000Y-7848000D02*
X17074000Y-7888000D01*
X17085000Y-5033000D02*
X17125000Y-5073000D01*
X17125000Y-5033000D02*
X17085000Y-5073000D01*
X17091000Y-3953000D02*
X17131000Y-3993000D01*
X17131000Y-3953000D02*
X17091000Y-3993000D01*
X17096000Y-4975000D02*
X17136000Y-5015000D01*
X17136000Y-4975000D02*
X17096000Y-5015000D01*
X17114000Y-4371000D02*
X17154000Y-4411000D01*
X17154000Y-4371000D02*
X17114000Y-4411000D01*
X17128000Y-6564000D02*
X17168000Y-6604000D01*
X17168000Y-6564000D02*
X17128000Y-6604000D01*
X17141000Y-7582000D02*
X17181000Y-7622000D01*
X17181000Y-7582000D02*
X17141000Y-7622000D01*
X17146000Y-4129000D02*
X17186000Y-4169000D01*
X17186000Y-4129000D02*
X17146000Y-4169000D01*
X17155000Y-2544000D02*
X17195000Y-2584000D01*
X17195000Y-2544000D02*
X17155000Y-2584000D01*
X17158000Y-12017000D02*
X17198000Y-12057000D01*
X17198000Y-12017000D02*
X17158000Y-12057000D01*
X17161000Y-6257000D02*
X17201000Y-6297000D01*
X17201000Y-6257000D02*
X17161000Y-6297000D01*
X17165000Y-4808000D02*
X17205000Y-4848000D01*
X17205000Y-4808000D02*
X17165000Y-4848000D01*
X17178000Y-4704000D02*
X17218000Y-4744000D01*
X17218000Y-4704000D02*
X17178000Y-4744000D01*
X17201000Y-5966000D02*
X17241000Y-6006000D01*
X17241000Y-5966000D02*
X17201000Y-6006000D01*
X17213000Y-7362000D02*
X17253000Y-7402000D01*
X17253000Y-7362000D02*
X17213000Y-7402000D01*
X17224000Y-2411000D02*
X17264000Y-2451000D01*
X17264000Y-2411000D02*
X17224000Y-2451000D01*
X17258000Y-7758000D02*
X17298000Y-7798000D01*
X17298000Y-7758000D02*
X17258000Y-7798000D01*
X17262000Y-6407000D02*
X17302000Y-6447000D01*
X17302000Y-6407000D02*
X17262000Y-6447000D01*
X17269000Y-10726000D02*
X17309000Y-10766000D01*
X17309000Y-10726000D02*
X17269000Y-10766000D01*
X17300000Y-2971000D02*
X17340000Y-3011000D01*
X17340000Y-2971000D02*
X17300000Y-3011000D01*
X17304000Y-2708000D02*
X17344000Y-2748000D01*
X17344000Y-2708000D02*
X17304000Y-2748000D01*
X17329000Y-6104000D02*
X17369000Y-6144000D01*
X17369000Y-6104000D02*
X17329000Y-6144000D01*
X17342000Y-7529000D02*
X17382000Y-7569000D01*
X17382000Y-7529000D02*
X17342000Y-7569000D01*
X17387000Y-11480000D02*
X17427000Y-11520000D01*
X17427000Y-11480000D02*
X17387000Y-11520000D01*
X17411000Y-2876000D02*
X17451000Y-2916000D01*
X17451000Y-2876000D02*
X17411000Y-2916000D01*
X17429000Y-5928000D02*
X17469000Y-5968000D01*
X17469000Y-5928000D02*
X17429000Y-5968000D01*
X17448000Y-11156000D02*
X17488000Y-11196000D01*
X17488000Y-11156000D02*
X17448000Y-11196000D01*
X17476000Y-7753000D02*
X17516000Y-7793000D01*
X17516000Y-7753000D02*
X17476000Y-7793000D01*
X17491000Y-2761000D02*
X17531000Y-2801000D01*
X17531000Y-2761000D02*
X17491000Y-2801000D01*
X17491000Y-11684000D02*
X17531000Y-11724000D01*
X17531000Y-11684000D02*
X17491000Y-11724000D01*
X17506000Y-6163000D02*
X17546000Y-6203000D01*
X17546000Y-6163000D02*
X17506000Y-6203000D01*
X17517000Y-2426000D02*
X17557000Y-2466000D01*
X17557000Y-2426000D02*
X17517000Y-2466000D01*
X17536000Y-3047000D02*
X17576000Y-3087000D01*
X17576000Y-3047000D02*
X17536000Y-3087000D01*
X17546000Y-6359000D02*
X17586000Y-6399000D01*
X17586000Y-6359000D02*
X17546000Y-6399000D01*
X17655000Y-7641000D02*
X17695000Y-7681000D01*
X17695000Y-7641000D02*
X17655000Y-7681000D01*
X17677000Y-2567000D02*
X17717000Y-2607000D01*
X17717000Y-2567000D02*
X17677000Y-2607000D01*
X17694000Y-10642000D02*
X17734000Y-10682000D01*
X17734000Y-10642000D02*
X17694000Y-10682000D01*
X17694000Y-11419000D02*
X17734000Y-11459000D01*
X17734000Y-11419000D02*
X17694000Y-11459000D01*
X17700000Y-7753000D02*
X17740000Y-7793000D01*
X17740000Y-7753000D02*
X17700000Y-7793000D01*
X17702000Y-5954000D02*
X17742000Y-5994000D01*
X17742000Y-5954000D02*
X17702000Y-5994000D01*
X17727000Y-6250000D02*
X17767000Y-6290000D01*
X17767000Y-6250000D02*
X17727000Y-6290000D01*
X17738000Y-2910000D02*
X17778000Y-2950000D01*
X17778000Y-2910000D02*
X17738000Y-2950000D01*
X17746000Y-11970000D02*
X17786000Y-12010000D01*
X17786000Y-11970000D02*
X17746000Y-12010000D01*
X17755000Y-10905000D02*
X17795000Y-10945000D01*
X17795000Y-10905000D02*
X17755000Y-10945000D01*
X17811000Y-11421000D02*
X17851000Y-11461000D01*
X17851000Y-11421000D02*
X17811000Y-11461000D01*
X8894000Y-4669000D02*
G75*
G03X8894000Y-4669000I-25000J0D01*
G01*
X13633000Y-5004000D02*
G75*
G03X13633000Y-5004000I-25000J0D01*
G01*
X13653000Y-6120000D02*
G75*
G03X13653000Y-6120000I-25000J0D01*
G01*
X13655000Y-6337000D02*
G75*
G03X13655000Y-6337000I-25000J0D01*
G01*
X13843000Y-5689000D02*
G75*
G03X13843000Y-5689000I-25000J0D01*
G01*
X13848000Y-5902000D02*
G75*
G03X13848000Y-5902000I-25000J0D01*
G01*
X14555000Y-5713000D02*
G75*
G03X14555000Y-5713000I-25000J0D01*
G01*
X14775000Y-6718000D02*
G75*
G03X14775000Y-6718000I-25000J0D01*
G01*
X15171000Y-4511000D02*
G75*
G03X15171000Y-4511000I-25000J0D01*
G01*
X15174000Y-3536000D02*
G75*
G03X15174000Y-3536000I-25000J0D01*
G01*
X16271000Y-10270000D02*
G75*
G03X16271000Y-10270000I-25000J0D01*
G01*
X16282000Y-10561000D02*
G75*
G03X16282000Y-10561000I-25000J0D01*
G01*
X16361000Y-6193000D02*
G75*
G03X16361000Y-6193000I-25000J0D01*
G01*
X16545000Y-5962000D02*
G75*
G03X16545000Y-5962000I-25000J0D01*
G01*
X8433000Y-6970000D02*
X8433000Y-7050000D01*
X8393000Y-7010000D02*
X8473000Y-7010000D01*
X8433000Y-7224000D02*
X8433000Y-7304000D01*
X8393000Y-7264000D02*
X8473000Y-7264000D01*
X8433000Y-7478000D02*
X8433000Y-7558000D01*
X8393000Y-7518000D02*
X8473000Y-7518000D01*
X8433000Y-7732000D02*
X8433000Y-7812000D01*
X8393000Y-7772000D02*
X8473000Y-7772000D01*
X8433000Y-7986000D02*
X8433000Y-8066000D01*
X8393000Y-8026000D02*
X8473000Y-8026000D01*
X8433000Y-8240000D02*
X8433000Y-8320000D01*
X8393000Y-8280000D02*
X8473000Y-8280000D01*
X8433000Y-8494000D02*
X8433000Y-8574000D01*
X8393000Y-8534000D02*
X8473000Y-8534000D01*
X8433000Y-8748000D02*
X8433000Y-8828000D01*
X8393000Y-8788000D02*
X8473000Y-8788000D01*
X8433000Y-9002000D02*
X8433000Y-9082000D01*
X8393000Y-9042000D02*
X8473000Y-9042000D01*
X8433000Y-9256000D02*
X8433000Y-9336000D01*
X8393000Y-9296000D02*
X8473000Y-9296000D01*
X8433000Y-9510000D02*
X8433000Y-9590000D01*
X8393000Y-9550000D02*
X8473000Y-9550000D01*
X8433000Y-9764000D02*
X8433000Y-9844000D01*
X8393000Y-9804000D02*
X8473000Y-9804000D01*
X8433000Y-10018000D02*
X8433000Y-10098000D01*
X8393000Y-10058000D02*
X8473000Y-10058000D01*
X8433000Y-10272000D02*
X8433000Y-10352000D01*
X8393000Y-10312000D02*
X8473000Y-10312000D01*
X8433000Y-10526000D02*
X8433000Y-10606000D01*
X8393000Y-10566000D02*
X8473000Y-10566000D01*
X8433000Y-10780000D02*
X8433000Y-10860000D01*
X8393000Y-10820000D02*
X8473000Y-10820000D01*
X8433000Y-11034000D02*
X8433000Y-11114000D01*
X8393000Y-11074000D02*
X8473000Y-11074000D01*
X8433000Y-11288000D02*
X8433000Y-11368000D01*
X8393000Y-11328000D02*
X8473000Y-11328000D01*
X8433000Y-11542000D02*
X8433000Y-11622000D01*
X8393000Y-11582000D02*
X8473000Y-11582000D01*
X8433000Y-11796000D02*
X8433000Y-11876000D01*
X8393000Y-11836000D02*
X8473000Y-11836000D01*
X8687000Y-6970000D02*
X8687000Y-7050000D01*
X8647000Y-7010000D02*
X8727000Y-7010000D01*
X8687000Y-7224000D02*
X8687000Y-7304000D01*
X8647000Y-7264000D02*
X8727000Y-7264000D01*
X8687000Y-7478000D02*
X8687000Y-7558000D01*
X8647000Y-7518000D02*
X8727000Y-7518000D01*
X8687000Y-7732000D02*
X8687000Y-7812000D01*
X8647000Y-7772000D02*
X8727000Y-7772000D01*
X8687000Y-7986000D02*
X8687000Y-8066000D01*
X8647000Y-8026000D02*
X8727000Y-8026000D01*
X8687000Y-8240000D02*
X8687000Y-8320000D01*
X8647000Y-8280000D02*
X8727000Y-8280000D01*
X8687000Y-8494000D02*
X8687000Y-8574000D01*
X8647000Y-8534000D02*
X8727000Y-8534000D01*
X8687000Y-8748000D02*
X8687000Y-8828000D01*
X8647000Y-8788000D02*
X8727000Y-8788000D01*
X8687000Y-9002000D02*
X8687000Y-9082000D01*
X8647000Y-9042000D02*
X8727000Y-9042000D01*
X8687000Y-9256000D02*
X8687000Y-9336000D01*
X8647000Y-9296000D02*
X8727000Y-9296000D01*
X8687000Y-9510000D02*
X8687000Y-9590000D01*
X8647000Y-9550000D02*
X8727000Y-9550000D01*
X8687000Y-9764000D02*
X8687000Y-9844000D01*
X8647000Y-9804000D02*
X8727000Y-9804000D01*
X8687000Y-10018000D02*
X8687000Y-10098000D01*
X8647000Y-10058000D02*
X8727000Y-10058000D01*
X8687000Y-10272000D02*
X8687000Y-10352000D01*
X8647000Y-10312000D02*
X8727000Y-10312000D01*
X8687000Y-10526000D02*
X8687000Y-10606000D01*
X8647000Y-10566000D02*
X8727000Y-10566000D01*
X8687000Y-10780000D02*
X8687000Y-10860000D01*
X8647000Y-10820000D02*
X8727000Y-10820000D01*
X8687000Y-11034000D02*
X8687000Y-11114000D01*
X8647000Y-11074000D02*
X8727000Y-11074000D01*
X8687000Y-11288000D02*
X8687000Y-11368000D01*
X8647000Y-11328000D02*
X8727000Y-11328000D01*
X8687000Y-11542000D02*
X8687000Y-11622000D01*
X8647000Y-11582000D02*
X8727000Y-11582000D01*
X8687000Y-11796000D02*
X8687000Y-11876000D01*
X8647000Y-11836000D02*
X8727000Y-11836000D01*
X8941000Y-6970000D02*
X8941000Y-7050000D01*
X8901000Y-7010000D02*
X8981000Y-7010000D01*
X8941000Y-7224000D02*
X8941000Y-7304000D01*
X8901000Y-7264000D02*
X8981000Y-7264000D01*
X8941000Y-7478000D02*
X8941000Y-7558000D01*
X8901000Y-7518000D02*
X8981000Y-7518000D01*
X8941000Y-7732000D02*
X8941000Y-7812000D01*
X8901000Y-7772000D02*
X8981000Y-7772000D01*
X8941000Y-7986000D02*
X8941000Y-8066000D01*
X8901000Y-8026000D02*
X8981000Y-8026000D01*
X8941000Y-8240000D02*
X8941000Y-8320000D01*
X8901000Y-8280000D02*
X8981000Y-8280000D01*
X8941000Y-8494000D02*
X8941000Y-8574000D01*
X8901000Y-8534000D02*
X8981000Y-8534000D01*
X8941000Y-8748000D02*
X8941000Y-8828000D01*
X8901000Y-8788000D02*
X8981000Y-8788000D01*
X8941000Y-9002000D02*
X8941000Y-9082000D01*
X8901000Y-9042000D02*
X8981000Y-9042000D01*
X8941000Y-9256000D02*
X8941000Y-9336000D01*
X8901000Y-9296000D02*
X8981000Y-9296000D01*
X8941000Y-9510000D02*
X8941000Y-9590000D01*
X8901000Y-9550000D02*
X8981000Y-9550000D01*
X8941000Y-9764000D02*
X8941000Y-9844000D01*
X8901000Y-9804000D02*
X8981000Y-9804000D01*
X8941000Y-10018000D02*
X8941000Y-10098000D01*
X8901000Y-10058000D02*
X8981000Y-10058000D01*
X8941000Y-10272000D02*
X8941000Y-10352000D01*
X8901000Y-10312000D02*
X8981000Y-10312000D01*
X8941000Y-10526000D02*
X8941000Y-10606000D01*
X8901000Y-10566000D02*
X8981000Y-10566000D01*
X8941000Y-10780000D02*
X8941000Y-10860000D01*
X8901000Y-10820000D02*
X8981000Y-10820000D01*
X8941000Y-11034000D02*
X8941000Y-11114000D01*
X8901000Y-11074000D02*
X8981000Y-11074000D01*
X8941000Y-11288000D02*
X8941000Y-11368000D01*
X8901000Y-11328000D02*
X8981000Y-11328000D01*
X8941000Y-11542000D02*
X8941000Y-11622000D01*
X8901000Y-11582000D02*
X8981000Y-11582000D01*
X8941000Y-11796000D02*
X8941000Y-11876000D01*
X8901000Y-11836000D02*
X8981000Y-11836000D01*
X9195000Y-6970000D02*
X9195000Y-7050000D01*
X9155000Y-7010000D02*
X9235000Y-7010000D01*
X9195000Y-7224000D02*
X9195000Y-7304000D01*
X9155000Y-7264000D02*
X9235000Y-7264000D01*
X9195000Y-7478000D02*
X9195000Y-7558000D01*
X9155000Y-7518000D02*
X9235000Y-7518000D01*
X9195000Y-7732000D02*
X9195000Y-7812000D01*
X9155000Y-7772000D02*
X9235000Y-7772000D01*
X9195000Y-7986000D02*
X9195000Y-8066000D01*
X9155000Y-8026000D02*
X9235000Y-8026000D01*
X9195000Y-8240000D02*
X9195000Y-8320000D01*
X9155000Y-8280000D02*
X9235000Y-8280000D01*
X9195000Y-8494000D02*
X9195000Y-8574000D01*
X9155000Y-8534000D02*
X9235000Y-8534000D01*
X9195000Y-8748000D02*
X9195000Y-8828000D01*
X9155000Y-8788000D02*
X9235000Y-8788000D01*
X9195000Y-9002000D02*
X9195000Y-9082000D01*
X9155000Y-9042000D02*
X9235000Y-9042000D01*
X9195000Y-9256000D02*
X9195000Y-9336000D01*
X9155000Y-9296000D02*
X9235000Y-9296000D01*
X9195000Y-9510000D02*
X9195000Y-9590000D01*
X9155000Y-9550000D02*
X9235000Y-9550000D01*
X9195000Y-9764000D02*
X9195000Y-9844000D01*
X9155000Y-9804000D02*
X9235000Y-9804000D01*
X9195000Y-10018000D02*
X9195000Y-10098000D01*
X9155000Y-10058000D02*
X9235000Y-10058000D01*
X9195000Y-10272000D02*
X9195000Y-10352000D01*
X9155000Y-10312000D02*
X9235000Y-10312000D01*
X9195000Y-10526000D02*
X9195000Y-10606000D01*
X9155000Y-10566000D02*
X9235000Y-10566000D01*
X9195000Y-10780000D02*
X9195000Y-10860000D01*
X9155000Y-10820000D02*
X9235000Y-10820000D01*
X9195000Y-11034000D02*
X9195000Y-11114000D01*
X9155000Y-11074000D02*
X9235000Y-11074000D01*
X9195000Y-11288000D02*
X9195000Y-11368000D01*
X9155000Y-11328000D02*
X9235000Y-11328000D01*
X9195000Y-11542000D02*
X9195000Y-11622000D01*
X9155000Y-11582000D02*
X9235000Y-11582000D01*
X9195000Y-11796000D02*
X9195000Y-11876000D01*
X9155000Y-11836000D02*
X9235000Y-11836000D01*
X9449000Y-6970000D02*
X9449000Y-7050000D01*
X9409000Y-7010000D02*
X9489000Y-7010000D01*
X9449000Y-7224000D02*
X9449000Y-7304000D01*
X9409000Y-7264000D02*
X9489000Y-7264000D01*
X9449000Y-7478000D02*
X9449000Y-7558000D01*
X9409000Y-7518000D02*
X9489000Y-7518000D01*
X9449000Y-7732000D02*
X9449000Y-7812000D01*
X9409000Y-7772000D02*
X9489000Y-7772000D01*
X9449000Y-7986000D02*
X9449000Y-8066000D01*
X9409000Y-8026000D02*
X9489000Y-8026000D01*
X9449000Y-8240000D02*
X9449000Y-8320000D01*
X9409000Y-8280000D02*
X9489000Y-8280000D01*
X9449000Y-8494000D02*
X9449000Y-8574000D01*
X9409000Y-8534000D02*
X9489000Y-8534000D01*
X9449000Y-8748000D02*
X9449000Y-8828000D01*
X9409000Y-8788000D02*
X9489000Y-8788000D01*
X9449000Y-9002000D02*
X9449000Y-9082000D01*
X9409000Y-9042000D02*
X9489000Y-9042000D01*
X9449000Y-9256000D02*
X9449000Y-9336000D01*
X9409000Y-9296000D02*
X9489000Y-9296000D01*
X9449000Y-9510000D02*
X9449000Y-9590000D01*
X9409000Y-9550000D02*
X9489000Y-9550000D01*
X9449000Y-9764000D02*
X9449000Y-9844000D01*
X9409000Y-9804000D02*
X9489000Y-9804000D01*
X9449000Y-10018000D02*
X9449000Y-10098000D01*
X9409000Y-10058000D02*
X9489000Y-10058000D01*
X9449000Y-10272000D02*
X9449000Y-10352000D01*
X9409000Y-10312000D02*
X9489000Y-10312000D01*
X9449000Y-10526000D02*
X9449000Y-10606000D01*
X9409000Y-10566000D02*
X9489000Y-10566000D01*
X9449000Y-10780000D02*
X9449000Y-10860000D01*
X9409000Y-10820000D02*
X9489000Y-10820000D01*
X9449000Y-11034000D02*
X9449000Y-11114000D01*
X9409000Y-11074000D02*
X9489000Y-11074000D01*
X9449000Y-11288000D02*
X9449000Y-11368000D01*
X9409000Y-11328000D02*
X9489000Y-11328000D01*
X9449000Y-11542000D02*
X9449000Y-11622000D01*
X9409000Y-11582000D02*
X9489000Y-11582000D01*
X9449000Y-11796000D02*
X9449000Y-11876000D01*
X9409000Y-11836000D02*
X9489000Y-11836000D01*
X9703000Y-6970000D02*
X9703000Y-7050000D01*
X9663000Y-7010000D02*
X9743000Y-7010000D01*
X9703000Y-7224000D02*
X9703000Y-7304000D01*
X9663000Y-7264000D02*
X9743000Y-7264000D01*
X9703000Y-7478000D02*
X9703000Y-7558000D01*
X9663000Y-7518000D02*
X9743000Y-7518000D01*
X9703000Y-7732000D02*
X9703000Y-7812000D01*
X9663000Y-7772000D02*
X9743000Y-7772000D01*
X9703000Y-7986000D02*
X9703000Y-8066000D01*
X9663000Y-8026000D02*
X9743000Y-8026000D01*
X9703000Y-8240000D02*
X9703000Y-8320000D01*
X9663000Y-8280000D02*
X9743000Y-8280000D01*
X9703000Y-8494000D02*
X9703000Y-8574000D01*
X9663000Y-8534000D02*
X9743000Y-8534000D01*
X9703000Y-8748000D02*
X9703000Y-8828000D01*
X9663000Y-8788000D02*
X9743000Y-8788000D01*
X9703000Y-9002000D02*
X9703000Y-9082000D01*
X9663000Y-9042000D02*
X9743000Y-9042000D01*
X9703000Y-9256000D02*
X9703000Y-9336000D01*
X9663000Y-9296000D02*
X9743000Y-9296000D01*
X9703000Y-9510000D02*
X9703000Y-9590000D01*
X9663000Y-9550000D02*
X9743000Y-9550000D01*
X9703000Y-9764000D02*
X9703000Y-9844000D01*
X9663000Y-9804000D02*
X9743000Y-9804000D01*
X9703000Y-10018000D02*
X9703000Y-10098000D01*
X9663000Y-10058000D02*
X9743000Y-10058000D01*
X9703000Y-10272000D02*
X9703000Y-10352000D01*
X9663000Y-10312000D02*
X9743000Y-10312000D01*
X9703000Y-10526000D02*
X9703000Y-10606000D01*
X9663000Y-10566000D02*
X9743000Y-10566000D01*
X9703000Y-10780000D02*
X9703000Y-10860000D01*
X9663000Y-10820000D02*
X9743000Y-10820000D01*
X9703000Y-11034000D02*
X9703000Y-11114000D01*
X9663000Y-11074000D02*
X9743000Y-11074000D01*
X9703000Y-11288000D02*
X9703000Y-11368000D01*
X9663000Y-11328000D02*
X9743000Y-11328000D01*
X9703000Y-11542000D02*
X9703000Y-11622000D01*
X9663000Y-11582000D02*
X9743000Y-11582000D01*
X9703000Y-11796000D02*
X9703000Y-11876000D01*
X9663000Y-11836000D02*
X9743000Y-11836000D01*
X9957000Y-6970000D02*
X9957000Y-7050000D01*
X9917000Y-7010000D02*
X9997000Y-7010000D01*
X9957000Y-7224000D02*
X9957000Y-7304000D01*
X9917000Y-7264000D02*
X9997000Y-7264000D01*
X9957000Y-7478000D02*
X9957000Y-7558000D01*
X9917000Y-7518000D02*
X9997000Y-7518000D01*
X9957000Y-7732000D02*
X9957000Y-7812000D01*
X9917000Y-7772000D02*
X9997000Y-7772000D01*
X9957000Y-7986000D02*
X9957000Y-8066000D01*
X9917000Y-8026000D02*
X9997000Y-8026000D01*
X9957000Y-8240000D02*
X9957000Y-8320000D01*
X9917000Y-8280000D02*
X9997000Y-8280000D01*
X9957000Y-8494000D02*
X9957000Y-8574000D01*
X9917000Y-8534000D02*
X9997000Y-8534000D01*
X9957000Y-8748000D02*
X9957000Y-8828000D01*
X9917000Y-8788000D02*
X9997000Y-8788000D01*
X9957000Y-9002000D02*
X9957000Y-9082000D01*
X9917000Y-9042000D02*
X9997000Y-9042000D01*
X9957000Y-9256000D02*
X9957000Y-9336000D01*
X9917000Y-9296000D02*
X9997000Y-9296000D01*
X9957000Y-9510000D02*
X9957000Y-9590000D01*
X9917000Y-9550000D02*
X9997000Y-9550000D01*
X9957000Y-9764000D02*
X9957000Y-9844000D01*
X9917000Y-9804000D02*
X9997000Y-9804000D01*
X9957000Y-10018000D02*
X9957000Y-10098000D01*
X9917000Y-10058000D02*
X9997000Y-10058000D01*
X9957000Y-10272000D02*
X9957000Y-10352000D01*
X9917000Y-10312000D02*
X9997000Y-10312000D01*
X9957000Y-10526000D02*
X9957000Y-10606000D01*
X9917000Y-10566000D02*
X9997000Y-10566000D01*
X9957000Y-10780000D02*
X9957000Y-10860000D01*
X9917000Y-10820000D02*
X9997000Y-10820000D01*
X9957000Y-11034000D02*
X9957000Y-11114000D01*
X9917000Y-11074000D02*
X9997000Y-11074000D01*
X9957000Y-11288000D02*
X9957000Y-11368000D01*
X9917000Y-11328000D02*
X9997000Y-11328000D01*
X9957000Y-11542000D02*
X9957000Y-11622000D01*
X9917000Y-11582000D02*
X9997000Y-11582000D01*
X9957000Y-11796000D02*
X9957000Y-11876000D01*
X9917000Y-11836000D02*
X9997000Y-11836000D01*
X10211000Y-6970000D02*
X10211000Y-7050000D01*
X10171000Y-7010000D02*
X10251000Y-7010000D01*
X10211000Y-7224000D02*
X10211000Y-7304000D01*
X10171000Y-7264000D02*
X10251000Y-7264000D01*
X10211000Y-7478000D02*
X10211000Y-7558000D01*
X10171000Y-7518000D02*
X10251000Y-7518000D01*
X10211000Y-7732000D02*
X10211000Y-7812000D01*
X10171000Y-7772000D02*
X10251000Y-7772000D01*
X10211000Y-7986000D02*
X10211000Y-8066000D01*
X10171000Y-8026000D02*
X10251000Y-8026000D01*
X10211000Y-8240000D02*
X10211000Y-8320000D01*
X10171000Y-8280000D02*
X10251000Y-8280000D01*
X10211000Y-8494000D02*
X10211000Y-8574000D01*
X10171000Y-8534000D02*
X10251000Y-8534000D01*
X10211000Y-8748000D02*
X10211000Y-8828000D01*
X10171000Y-8788000D02*
X10251000Y-8788000D01*
X10211000Y-9002000D02*
X10211000Y-9082000D01*
X10171000Y-9042000D02*
X10251000Y-9042000D01*
X10211000Y-9256000D02*
X10211000Y-9336000D01*
X10171000Y-9296000D02*
X10251000Y-9296000D01*
X10211000Y-9510000D02*
X10211000Y-9590000D01*
X10171000Y-9550000D02*
X10251000Y-9550000D01*
X10211000Y-9764000D02*
X10211000Y-9844000D01*
X10171000Y-9804000D02*
X10251000Y-9804000D01*
X10211000Y-10018000D02*
X10211000Y-10098000D01*
X10171000Y-10058000D02*
X10251000Y-10058000D01*
X10211000Y-10272000D02*
X10211000Y-10352000D01*
X10171000Y-10312000D02*
X10251000Y-10312000D01*
X10211000Y-10526000D02*
X10211000Y-10606000D01*
X10171000Y-10566000D02*
X10251000Y-10566000D01*
X10211000Y-10780000D02*
X10211000Y-10860000D01*
X10171000Y-10820000D02*
X10251000Y-10820000D01*
X10211000Y-11034000D02*
X10211000Y-11114000D01*
X10171000Y-11074000D02*
X10251000Y-11074000D01*
X10211000Y-11288000D02*
X10211000Y-11368000D01*
X10171000Y-11328000D02*
X10251000Y-11328000D01*
X10211000Y-11542000D02*
X10211000Y-11622000D01*
X10171000Y-11582000D02*
X10251000Y-11582000D01*
X10211000Y-11796000D02*
X10211000Y-11876000D01*
X10171000Y-11836000D02*
X10251000Y-11836000D01*
X10465000Y-6970000D02*
X10465000Y-7050000D01*
X10425000Y-7010000D02*
X10505000Y-7010000D01*
X10465000Y-7224000D02*
X10465000Y-7304000D01*
X10425000Y-7264000D02*
X10505000Y-7264000D01*
X10465000Y-7478000D02*
X10465000Y-7558000D01*
X10425000Y-7518000D02*
X10505000Y-7518000D01*
X10465000Y-7732000D02*
X10465000Y-7812000D01*
X10425000Y-7772000D02*
X10505000Y-7772000D01*
X10465000Y-7986000D02*
X10465000Y-8066000D01*
X10425000Y-8026000D02*
X10505000Y-8026000D01*
X10465000Y-8240000D02*
X10465000Y-8320000D01*
X10425000Y-8280000D02*
X10505000Y-8280000D01*
X10465000Y-8494000D02*
X10465000Y-8574000D01*
X10425000Y-8534000D02*
X10505000Y-8534000D01*
X10465000Y-8748000D02*
X10465000Y-8828000D01*
X10425000Y-8788000D02*
X10505000Y-8788000D01*
X10465000Y-9002000D02*
X10465000Y-9082000D01*
X10425000Y-9042000D02*
X10505000Y-9042000D01*
X10465000Y-9256000D02*
X10465000Y-9336000D01*
X10425000Y-9296000D02*
X10505000Y-9296000D01*
X10465000Y-9510000D02*
X10465000Y-9590000D01*
X10425000Y-9550000D02*
X10505000Y-9550000D01*
X10465000Y-9764000D02*
X10465000Y-9844000D01*
X10425000Y-9804000D02*
X10505000Y-9804000D01*
X10465000Y-10018000D02*
X10465000Y-10098000D01*
X10425000Y-10058000D02*
X10505000Y-10058000D01*
X10465000Y-10272000D02*
X10465000Y-10352000D01*
X10425000Y-10312000D02*
X10505000Y-10312000D01*
X10465000Y-10526000D02*
X10465000Y-10606000D01*
X10425000Y-10566000D02*
X10505000Y-10566000D01*
X10465000Y-10780000D02*
X10465000Y-10860000D01*
X10425000Y-10820000D02*
X10505000Y-10820000D01*
X10465000Y-11034000D02*
X10465000Y-11114000D01*
X10425000Y-11074000D02*
X10505000Y-11074000D01*
X10465000Y-11288000D02*
X10465000Y-11368000D01*
X10425000Y-11328000D02*
X10505000Y-11328000D01*
X10465000Y-11542000D02*
X10465000Y-11622000D01*
X10425000Y-11582000D02*
X10505000Y-11582000D01*
X10465000Y-11796000D02*
X10465000Y-11876000D01*
X10425000Y-11836000D02*
X10505000Y-11836000D01*
X10719000Y-6970000D02*
X10719000Y-7050000D01*
X10679000Y-7010000D02*
X10759000Y-7010000D01*
X10719000Y-7224000D02*
X10719000Y-7304000D01*
X10679000Y-7264000D02*
X10759000Y-7264000D01*
X10719000Y-7478000D02*
X10719000Y-7558000D01*
X10679000Y-7518000D02*
X10759000Y-7518000D01*
X10719000Y-7732000D02*
X10719000Y-7812000D01*
X10679000Y-7772000D02*
X10759000Y-7772000D01*
X10719000Y-7986000D02*
X10719000Y-8066000D01*
X10679000Y-8026000D02*
X10759000Y-8026000D01*
X10719000Y-8240000D02*
X10719000Y-8320000D01*
X10679000Y-8280000D02*
X10759000Y-8280000D01*
X10719000Y-8494000D02*
X10719000Y-8574000D01*
X10679000Y-8534000D02*
X10759000Y-8534000D01*
X10719000Y-8748000D02*
X10719000Y-8828000D01*
X10679000Y-8788000D02*
X10759000Y-8788000D01*
X10719000Y-9002000D02*
X10719000Y-9082000D01*
X10679000Y-9042000D02*
X10759000Y-9042000D01*
X10719000Y-9256000D02*
X10719000Y-9336000D01*
X10679000Y-9296000D02*
X10759000Y-9296000D01*
X10719000Y-9510000D02*
X10719000Y-9590000D01*
X10679000Y-9550000D02*
X10759000Y-9550000D01*
X10719000Y-9764000D02*
X10719000Y-9844000D01*
X10679000Y-9804000D02*
X10759000Y-9804000D01*
X10719000Y-10018000D02*
X10719000Y-10098000D01*
X10679000Y-10058000D02*
X10759000Y-10058000D01*
X10719000Y-10272000D02*
X10719000Y-10352000D01*
X10679000Y-10312000D02*
X10759000Y-10312000D01*
X10719000Y-10526000D02*
X10719000Y-10606000D01*
X10679000Y-10566000D02*
X10759000Y-10566000D01*
X10719000Y-10780000D02*
X10719000Y-10860000D01*
X10679000Y-10820000D02*
X10759000Y-10820000D01*
X10719000Y-11034000D02*
X10719000Y-11114000D01*
X10679000Y-11074000D02*
X10759000Y-11074000D01*
X10719000Y-11288000D02*
X10719000Y-11368000D01*
X10679000Y-11328000D02*
X10759000Y-11328000D01*
X10719000Y-11542000D02*
X10719000Y-11622000D01*
X10679000Y-11582000D02*
X10759000Y-11582000D01*
X10719000Y-11796000D02*
X10719000Y-11876000D01*
X10679000Y-11836000D02*
X10759000Y-11836000D01*
X10973000Y-6970000D02*
X10973000Y-7050000D01*
X10933000Y-7010000D02*
X11013000Y-7010000D01*
X10973000Y-7224000D02*
X10973000Y-7304000D01*
X10933000Y-7264000D02*
X11013000Y-7264000D01*
X10973000Y-7478000D02*
X10973000Y-7558000D01*
X10933000Y-7518000D02*
X11013000Y-7518000D01*
X10973000Y-7732000D02*
X10973000Y-7812000D01*
X10933000Y-7772000D02*
X11013000Y-7772000D01*
X10973000Y-7986000D02*
X10973000Y-8066000D01*
X10933000Y-8026000D02*
X11013000Y-8026000D01*
X10973000Y-8240000D02*
X10973000Y-8320000D01*
X10933000Y-8280000D02*
X11013000Y-8280000D01*
X10973000Y-8494000D02*
X10973000Y-8574000D01*
X10933000Y-8534000D02*
X11013000Y-8534000D01*
X10973000Y-8748000D02*
X10973000Y-8828000D01*
X10933000Y-8788000D02*
X11013000Y-8788000D01*
X10973000Y-9002000D02*
X10973000Y-9082000D01*
X10933000Y-9042000D02*
X11013000Y-9042000D01*
X10973000Y-9256000D02*
X10973000Y-9336000D01*
X10933000Y-9296000D02*
X11013000Y-9296000D01*
X10973000Y-9510000D02*
X10973000Y-9590000D01*
X10933000Y-9550000D02*
X11013000Y-9550000D01*
X10973000Y-9764000D02*
X10973000Y-9844000D01*
X10933000Y-9804000D02*
X11013000Y-9804000D01*
X10973000Y-10018000D02*
X10973000Y-10098000D01*
X10933000Y-10058000D02*
X11013000Y-10058000D01*
X10973000Y-10272000D02*
X10973000Y-10352000D01*
X10933000Y-10312000D02*
X11013000Y-10312000D01*
X10973000Y-10526000D02*
X10973000Y-10606000D01*
X10933000Y-10566000D02*
X11013000Y-10566000D01*
X10973000Y-10780000D02*
X10973000Y-10860000D01*
X10933000Y-10820000D02*
X11013000Y-10820000D01*
X10973000Y-11034000D02*
X10973000Y-11114000D01*
X10933000Y-11074000D02*
X11013000Y-11074000D01*
X10973000Y-11288000D02*
X10973000Y-11368000D01*
X10933000Y-11328000D02*
X11013000Y-11328000D01*
X10973000Y-11542000D02*
X10973000Y-11622000D01*
X10933000Y-11582000D02*
X11013000Y-11582000D01*
X10973000Y-11796000D02*
X10973000Y-11876000D01*
X10933000Y-11836000D02*
X11013000Y-11836000D01*
X11227000Y-6970000D02*
X11227000Y-7050000D01*
X11187000Y-7010000D02*
X11267000Y-7010000D01*
X11227000Y-7224000D02*
X11227000Y-7304000D01*
X11187000Y-7264000D02*
X11267000Y-7264000D01*
X11227000Y-7478000D02*
X11227000Y-7558000D01*
X11187000Y-7518000D02*
X11267000Y-7518000D01*
X11227000Y-7732000D02*
X11227000Y-7812000D01*
X11187000Y-7772000D02*
X11267000Y-7772000D01*
X11227000Y-7986000D02*
X11227000Y-8066000D01*
X11187000Y-8026000D02*
X11267000Y-8026000D01*
X11227000Y-8240000D02*
X11227000Y-8320000D01*
X11187000Y-8280000D02*
X11267000Y-8280000D01*
X11227000Y-8494000D02*
X11227000Y-8574000D01*
X11187000Y-8534000D02*
X11267000Y-8534000D01*
X11227000Y-8748000D02*
X11227000Y-8828000D01*
X11187000Y-8788000D02*
X11267000Y-8788000D01*
X11227000Y-9002000D02*
X11227000Y-9082000D01*
X11187000Y-9042000D02*
X11267000Y-9042000D01*
X11227000Y-9256000D02*
X11227000Y-9336000D01*
X11187000Y-9296000D02*
X11267000Y-9296000D01*
X11227000Y-9510000D02*
X11227000Y-9590000D01*
X11187000Y-9550000D02*
X11267000Y-9550000D01*
X11227000Y-9764000D02*
X11227000Y-9844000D01*
X11187000Y-9804000D02*
X11267000Y-9804000D01*
X11227000Y-10018000D02*
X11227000Y-10098000D01*
X11187000Y-10058000D02*
X11267000Y-10058000D01*
X11227000Y-10272000D02*
X11227000Y-10352000D01*
X11187000Y-10312000D02*
X11267000Y-10312000D01*
X11227000Y-10526000D02*
X11227000Y-10606000D01*
X11187000Y-10566000D02*
X11267000Y-10566000D01*
X11227000Y-10780000D02*
X11227000Y-10860000D01*
X11187000Y-10820000D02*
X11267000Y-10820000D01*
X11227000Y-11034000D02*
X11227000Y-11114000D01*
X11187000Y-11074000D02*
X11267000Y-11074000D01*
X11227000Y-11288000D02*
X11227000Y-11368000D01*
X11187000Y-11328000D02*
X11267000Y-11328000D01*
X11227000Y-11542000D02*
X11227000Y-11622000D01*
X11187000Y-11582000D02*
X11267000Y-11582000D01*
X11227000Y-11796000D02*
X11227000Y-11876000D01*
X11187000Y-11836000D02*
X11267000Y-11836000D01*
X11481000Y-6970000D02*
X11481000Y-7050000D01*
X11441000Y-7010000D02*
X11521000Y-7010000D01*
X11481000Y-7224000D02*
X11481000Y-7304000D01*
X11441000Y-7264000D02*
X11521000Y-7264000D01*
X11481000Y-7478000D02*
X11481000Y-7558000D01*
X11441000Y-7518000D02*
X11521000Y-7518000D01*
X11481000Y-7732000D02*
X11481000Y-7812000D01*
X11441000Y-7772000D02*
X11521000Y-7772000D01*
X11481000Y-7986000D02*
X11481000Y-8066000D01*
X11441000Y-8026000D02*
X11521000Y-8026000D01*
X11481000Y-8240000D02*
X11481000Y-8320000D01*
X11441000Y-8280000D02*
X11521000Y-8280000D01*
X11481000Y-8494000D02*
X11481000Y-8574000D01*
X11441000Y-8534000D02*
X11521000Y-8534000D01*
X11481000Y-8748000D02*
X11481000Y-8828000D01*
X11441000Y-8788000D02*
X11521000Y-8788000D01*
X11481000Y-9002000D02*
X11481000Y-9082000D01*
X11441000Y-9042000D02*
X11521000Y-9042000D01*
X11481000Y-9256000D02*
X11481000Y-9336000D01*
X11441000Y-9296000D02*
X11521000Y-9296000D01*
X11481000Y-9510000D02*
X11481000Y-9590000D01*
X11441000Y-9550000D02*
X11521000Y-9550000D01*
X11481000Y-9764000D02*
X11481000Y-9844000D01*
X11441000Y-9804000D02*
X11521000Y-9804000D01*
X11481000Y-10018000D02*
X11481000Y-10098000D01*
X11441000Y-10058000D02*
X11521000Y-10058000D01*
X11481000Y-10272000D02*
X11481000Y-10352000D01*
X11441000Y-10312000D02*
X11521000Y-10312000D01*
X11481000Y-10526000D02*
X11481000Y-10606000D01*
X11441000Y-10566000D02*
X11521000Y-10566000D01*
X11481000Y-10780000D02*
X11481000Y-10860000D01*
X11441000Y-10820000D02*
X11521000Y-10820000D01*
X11481000Y-11034000D02*
X11481000Y-11114000D01*
X11441000Y-11074000D02*
X11521000Y-11074000D01*
X11481000Y-11288000D02*
X11481000Y-11368000D01*
X11441000Y-11328000D02*
X11521000Y-11328000D01*
X11481000Y-11542000D02*
X11481000Y-11622000D01*
X11441000Y-11582000D02*
X11521000Y-11582000D01*
X11481000Y-11796000D02*
X11481000Y-11876000D01*
X11441000Y-11836000D02*
X11521000Y-11836000D01*
X11735000Y-6970000D02*
X11735000Y-7050000D01*
X11695000Y-7010000D02*
X11775000Y-7010000D01*
X11735000Y-7224000D02*
X11735000Y-7304000D01*
X11695000Y-7264000D02*
X11775000Y-7264000D01*
X11735000Y-7478000D02*
X11735000Y-7558000D01*
X11695000Y-7518000D02*
X11775000Y-7518000D01*
X11735000Y-7732000D02*
X11735000Y-7812000D01*
X11695000Y-7772000D02*
X11775000Y-7772000D01*
X11735000Y-7986000D02*
X11735000Y-8066000D01*
X11695000Y-8026000D02*
X11775000Y-8026000D01*
X11735000Y-8240000D02*
X11735000Y-8320000D01*
X11695000Y-8280000D02*
X11775000Y-8280000D01*
X11735000Y-8494000D02*
X11735000Y-8574000D01*
X11695000Y-8534000D02*
X11775000Y-8534000D01*
X11735000Y-8748000D02*
X11735000Y-8828000D01*
X11695000Y-8788000D02*
X11775000Y-8788000D01*
X11735000Y-9002000D02*
X11735000Y-9082000D01*
X11695000Y-9042000D02*
X11775000Y-9042000D01*
X11735000Y-9256000D02*
X11735000Y-9336000D01*
X11695000Y-9296000D02*
X11775000Y-9296000D01*
X11735000Y-9510000D02*
X11735000Y-9590000D01*
X11695000Y-9550000D02*
X11775000Y-9550000D01*
X11735000Y-9764000D02*
X11735000Y-9844000D01*
X11695000Y-9804000D02*
X11775000Y-9804000D01*
X11735000Y-10018000D02*
X11735000Y-10098000D01*
X11695000Y-10058000D02*
X11775000Y-10058000D01*
X11735000Y-10272000D02*
X11735000Y-10352000D01*
X11695000Y-10312000D02*
X11775000Y-10312000D01*
X11735000Y-10526000D02*
X11735000Y-10606000D01*
X11695000Y-10566000D02*
X11775000Y-10566000D01*
X11735000Y-10780000D02*
X11735000Y-10860000D01*
X11695000Y-10820000D02*
X11775000Y-10820000D01*
X11735000Y-11034000D02*
X11735000Y-11114000D01*
X11695000Y-11074000D02*
X11775000Y-11074000D01*
X11735000Y-11288000D02*
X11735000Y-11368000D01*
X11695000Y-11328000D02*
X11775000Y-11328000D01*
X11735000Y-11542000D02*
X11735000Y-11622000D01*
X11695000Y-11582000D02*
X11775000Y-11582000D01*
X11735000Y-11796000D02*
X11735000Y-11876000D01*
X11695000Y-11836000D02*
X11775000Y-11836000D01*
X11989000Y-6970000D02*
X11989000Y-7050000D01*
X11949000Y-7010000D02*
X12029000Y-7010000D01*
X11989000Y-7224000D02*
X11989000Y-7304000D01*
X11949000Y-7264000D02*
X12029000Y-7264000D01*
X11989000Y-7478000D02*
X11989000Y-7558000D01*
X11949000Y-7518000D02*
X12029000Y-7518000D01*
X11989000Y-7732000D02*
X11989000Y-7812000D01*
X11949000Y-7772000D02*
X12029000Y-7772000D01*
X11989000Y-7986000D02*
X11989000Y-8066000D01*
X11949000Y-8026000D02*
X12029000Y-8026000D01*
X11989000Y-8240000D02*
X11989000Y-8320000D01*
X11949000Y-8280000D02*
X12029000Y-8280000D01*
X11989000Y-8494000D02*
X11989000Y-8574000D01*
X11949000Y-8534000D02*
X12029000Y-8534000D01*
X11989000Y-8748000D02*
X11989000Y-8828000D01*
X11949000Y-8788000D02*
X12029000Y-8788000D01*
X11989000Y-9002000D02*
X11989000Y-9082000D01*
X11949000Y-9042000D02*
X12029000Y-9042000D01*
X11989000Y-9256000D02*
X11989000Y-9336000D01*
X11949000Y-9296000D02*
X12029000Y-9296000D01*
X11989000Y-9510000D02*
X11989000Y-9590000D01*
X11949000Y-9550000D02*
X12029000Y-9550000D01*
X11989000Y-9764000D02*
X11989000Y-9844000D01*
X11949000Y-9804000D02*
X12029000Y-9804000D01*
X11989000Y-10018000D02*
X11989000Y-10098000D01*
X11949000Y-10058000D02*
X12029000Y-10058000D01*
X11989000Y-10272000D02*
X11989000Y-10352000D01*
X11949000Y-10312000D02*
X12029000Y-10312000D01*
X11989000Y-10526000D02*
X11989000Y-10606000D01*
X11949000Y-10566000D02*
X12029000Y-10566000D01*
X11989000Y-10780000D02*
X11989000Y-10860000D01*
X11949000Y-10820000D02*
X12029000Y-10820000D01*
X11989000Y-11034000D02*
X11989000Y-11114000D01*
X11949000Y-11074000D02*
X12029000Y-11074000D01*
X11989000Y-11288000D02*
X11989000Y-11368000D01*
X11949000Y-11328000D02*
X12029000Y-11328000D01*
X11989000Y-11542000D02*
X11989000Y-11622000D01*
X11949000Y-11582000D02*
X12029000Y-11582000D01*
X11989000Y-11796000D02*
X11989000Y-11876000D01*
X11949000Y-11836000D02*
X12029000Y-11836000D01*
X12243000Y-6970000D02*
X12243000Y-7050000D01*
X12203000Y-7010000D02*
X12283000Y-7010000D01*
X12243000Y-7224000D02*
X12243000Y-7304000D01*
X12203000Y-7264000D02*
X12283000Y-7264000D01*
X12243000Y-7478000D02*
X12243000Y-7558000D01*
X12203000Y-7518000D02*
X12283000Y-7518000D01*
X12243000Y-7732000D02*
X12243000Y-7812000D01*
X12203000Y-7772000D02*
X12283000Y-7772000D01*
X12243000Y-7986000D02*
X12243000Y-8066000D01*
X12203000Y-8026000D02*
X12283000Y-8026000D01*
X12243000Y-8240000D02*
X12243000Y-8320000D01*
X12203000Y-8280000D02*
X12283000Y-8280000D01*
X12243000Y-8494000D02*
X12243000Y-8574000D01*
X12203000Y-8534000D02*
X12283000Y-8534000D01*
X12243000Y-8748000D02*
X12243000Y-8828000D01*
X12203000Y-8788000D02*
X12283000Y-8788000D01*
X12243000Y-9002000D02*
X12243000Y-9082000D01*
X12203000Y-9042000D02*
X12283000Y-9042000D01*
X12243000Y-9256000D02*
X12243000Y-9336000D01*
X12203000Y-9296000D02*
X12283000Y-9296000D01*
X12243000Y-9510000D02*
X12243000Y-9590000D01*
X12203000Y-9550000D02*
X12283000Y-9550000D01*
X12243000Y-9764000D02*
X12243000Y-9844000D01*
X12203000Y-9804000D02*
X12283000Y-9804000D01*
X12243000Y-10018000D02*
X12243000Y-10098000D01*
X12203000Y-10058000D02*
X12283000Y-10058000D01*
X12243000Y-10272000D02*
X12243000Y-10352000D01*
X12203000Y-10312000D02*
X12283000Y-10312000D01*
X12243000Y-10526000D02*
X12243000Y-10606000D01*
X12203000Y-10566000D02*
X12283000Y-10566000D01*
X12243000Y-10780000D02*
X12243000Y-10860000D01*
X12203000Y-10820000D02*
X12283000Y-10820000D01*
X12243000Y-11034000D02*
X12243000Y-11114000D01*
X12203000Y-11074000D02*
X12283000Y-11074000D01*
X12243000Y-11288000D02*
X12243000Y-11368000D01*
X12203000Y-11328000D02*
X12283000Y-11328000D01*
X12243000Y-11542000D02*
X12243000Y-11622000D01*
X12203000Y-11582000D02*
X12283000Y-11582000D01*
X12243000Y-11796000D02*
X12243000Y-11876000D01*
X12203000Y-11836000D02*
X12283000Y-11836000D01*
X12497000Y-6970000D02*
X12497000Y-7050000D01*
X12457000Y-7010000D02*
X12537000Y-7010000D01*
X12497000Y-7224000D02*
X12497000Y-7304000D01*
X12457000Y-7264000D02*
X12537000Y-7264000D01*
X12497000Y-7478000D02*
X12497000Y-7558000D01*
X12457000Y-7518000D02*
X12537000Y-7518000D01*
X12497000Y-7732000D02*
X12497000Y-7812000D01*
X12457000Y-7772000D02*
X12537000Y-7772000D01*
X12497000Y-7986000D02*
X12497000Y-8066000D01*
X12457000Y-8026000D02*
X12537000Y-8026000D01*
X12497000Y-8240000D02*
X12497000Y-8320000D01*
X12457000Y-8280000D02*
X12537000Y-8280000D01*
X12497000Y-8494000D02*
X12497000Y-8574000D01*
X12457000Y-8534000D02*
X12537000Y-8534000D01*
X12497000Y-8748000D02*
X12497000Y-8828000D01*
X12457000Y-8788000D02*
X12537000Y-8788000D01*
X12497000Y-9002000D02*
X12497000Y-9082000D01*
X12457000Y-9042000D02*
X12537000Y-9042000D01*
X12497000Y-9256000D02*
X12497000Y-9336000D01*
X12457000Y-9296000D02*
X12537000Y-9296000D01*
X12497000Y-9510000D02*
X12497000Y-9590000D01*
X12457000Y-9550000D02*
X12537000Y-9550000D01*
X12497000Y-9764000D02*
X12497000Y-9844000D01*
X12457000Y-9804000D02*
X12537000Y-9804000D01*
X12497000Y-10018000D02*
X12497000Y-10098000D01*
X12457000Y-10058000D02*
X12537000Y-10058000D01*
X12497000Y-10272000D02*
X12497000Y-10352000D01*
X12457000Y-10312000D02*
X12537000Y-10312000D01*
X12497000Y-10526000D02*
X12497000Y-10606000D01*
X12457000Y-10566000D02*
X12537000Y-10566000D01*
X12497000Y-10780000D02*
X12497000Y-10860000D01*
X12457000Y-10820000D02*
X12537000Y-10820000D01*
X12497000Y-11034000D02*
X12497000Y-11114000D01*
X12457000Y-11074000D02*
X12537000Y-11074000D01*
X12497000Y-11288000D02*
X12497000Y-11368000D01*
X12457000Y-11328000D02*
X12537000Y-11328000D01*
X12497000Y-11542000D02*
X12497000Y-11622000D01*
X12457000Y-11582000D02*
X12537000Y-11582000D01*
X12497000Y-11796000D02*
X12497000Y-11876000D01*
X12457000Y-11836000D02*
X12537000Y-11836000D01*
X12751000Y-6970000D02*
X12751000Y-7050000D01*
X12711000Y-7010000D02*
X12791000Y-7010000D01*
X12751000Y-7224000D02*
X12751000Y-7304000D01*
X12711000Y-7264000D02*
X12791000Y-7264000D01*
X12751000Y-7478000D02*
X12751000Y-7558000D01*
X12711000Y-7518000D02*
X12791000Y-7518000D01*
X12751000Y-7732000D02*
X12751000Y-7812000D01*
X12711000Y-7772000D02*
X12791000Y-7772000D01*
X12751000Y-7986000D02*
X12751000Y-8066000D01*
X12711000Y-8026000D02*
X12791000Y-8026000D01*
X12751000Y-8240000D02*
X12751000Y-8320000D01*
X12711000Y-8280000D02*
X12791000Y-8280000D01*
X12751000Y-8494000D02*
X12751000Y-8574000D01*
X12711000Y-8534000D02*
X12791000Y-8534000D01*
X12751000Y-8748000D02*
X12751000Y-8828000D01*
X12711000Y-8788000D02*
X12791000Y-8788000D01*
X12751000Y-9002000D02*
X12751000Y-9082000D01*
X12711000Y-9042000D02*
X12791000Y-9042000D01*
X12751000Y-9256000D02*
X12751000Y-9336000D01*
X12711000Y-9296000D02*
X12791000Y-9296000D01*
X12751000Y-9510000D02*
X12751000Y-9590000D01*
X12711000Y-9550000D02*
X12791000Y-9550000D01*
X12751000Y-9764000D02*
X12751000Y-9844000D01*
X12711000Y-9804000D02*
X12791000Y-9804000D01*
X12751000Y-10018000D02*
X12751000Y-10098000D01*
X12711000Y-10058000D02*
X12791000Y-10058000D01*
X12751000Y-10272000D02*
X12751000Y-10352000D01*
X12711000Y-10312000D02*
X12791000Y-10312000D01*
X12751000Y-10526000D02*
X12751000Y-10606000D01*
X12711000Y-10566000D02*
X12791000Y-10566000D01*
X12751000Y-10780000D02*
X12751000Y-10860000D01*
X12711000Y-10820000D02*
X12791000Y-10820000D01*
X12751000Y-11034000D02*
X12751000Y-11114000D01*
X12711000Y-11074000D02*
X12791000Y-11074000D01*
X12751000Y-11288000D02*
X12751000Y-11368000D01*
X12711000Y-11328000D02*
X12791000Y-11328000D01*
X12751000Y-11542000D02*
X12751000Y-11622000D01*
X12711000Y-11582000D02*
X12791000Y-11582000D01*
X12751000Y-11796000D02*
X12751000Y-11876000D01*
X12711000Y-11836000D02*
X12791000Y-11836000D01*
X13005000Y-6970000D02*
X13005000Y-7050000D01*
X12965000Y-7010000D02*
X13045000Y-7010000D01*
X13005000Y-7224000D02*
X13005000Y-7304000D01*
X12965000Y-7264000D02*
X13045000Y-7264000D01*
X13005000Y-7478000D02*
X13005000Y-7558000D01*
X12965000Y-7518000D02*
X13045000Y-7518000D01*
X13005000Y-7732000D02*
X13005000Y-7812000D01*
X12965000Y-7772000D02*
X13045000Y-7772000D01*
X13005000Y-7986000D02*
X13005000Y-8066000D01*
X12965000Y-8026000D02*
X13045000Y-8026000D01*
X13005000Y-8240000D02*
X13005000Y-8320000D01*
X12965000Y-8280000D02*
X13045000Y-8280000D01*
X13005000Y-8494000D02*
X13005000Y-8574000D01*
X12965000Y-8534000D02*
X13045000Y-8534000D01*
X13005000Y-8748000D02*
X13005000Y-8828000D01*
X12965000Y-8788000D02*
X13045000Y-8788000D01*
X13005000Y-9002000D02*
X13005000Y-9082000D01*
X12965000Y-9042000D02*
X13045000Y-9042000D01*
X13005000Y-9256000D02*
X13005000Y-9336000D01*
X12965000Y-9296000D02*
X13045000Y-9296000D01*
X13005000Y-9510000D02*
X13005000Y-9590000D01*
X12965000Y-9550000D02*
X13045000Y-9550000D01*
X13005000Y-9764000D02*
X13005000Y-9844000D01*
X12965000Y-9804000D02*
X13045000Y-9804000D01*
X13005000Y-10018000D02*
X13005000Y-10098000D01*
X12965000Y-10058000D02*
X13045000Y-10058000D01*
X13005000Y-10272000D02*
X13005000Y-10352000D01*
X12965000Y-10312000D02*
X13045000Y-10312000D01*
X13005000Y-10526000D02*
X13005000Y-10606000D01*
X12965000Y-10566000D02*
X13045000Y-10566000D01*
X13005000Y-10780000D02*
X13005000Y-10860000D01*
X12965000Y-10820000D02*
X13045000Y-10820000D01*
X13005000Y-11034000D02*
X13005000Y-11114000D01*
X12965000Y-11074000D02*
X13045000Y-11074000D01*
X13005000Y-11288000D02*
X13005000Y-11368000D01*
X12965000Y-11328000D02*
X13045000Y-11328000D01*
X13005000Y-11542000D02*
X13005000Y-11622000D01*
X12965000Y-11582000D02*
X13045000Y-11582000D01*
X13005000Y-11796000D02*
X13005000Y-11876000D01*
X12965000Y-11836000D02*
X13045000Y-11836000D01*
X13259000Y-6970000D02*
X13259000Y-7050000D01*
X13219000Y-7010000D02*
X13299000Y-7010000D01*
X13259000Y-7224000D02*
X13259000Y-7304000D01*
X13219000Y-7264000D02*
X13299000Y-7264000D01*
X13259000Y-7478000D02*
X13259000Y-7558000D01*
X13219000Y-7518000D02*
X13299000Y-7518000D01*
X13259000Y-7732000D02*
X13259000Y-7812000D01*
X13219000Y-7772000D02*
X13299000Y-7772000D01*
X13259000Y-7986000D02*
X13259000Y-8066000D01*
X13219000Y-8026000D02*
X13299000Y-8026000D01*
X13259000Y-8240000D02*
X13259000Y-8320000D01*
X13219000Y-8280000D02*
X13299000Y-8280000D01*
X13259000Y-8494000D02*
X13259000Y-8574000D01*
X13219000Y-8534000D02*
X13299000Y-8534000D01*
X13259000Y-8748000D02*
X13259000Y-8828000D01*
X13219000Y-8788000D02*
X13299000Y-8788000D01*
X13259000Y-9002000D02*
X13259000Y-9082000D01*
X13219000Y-9042000D02*
X13299000Y-9042000D01*
X13259000Y-9256000D02*
X13259000Y-9336000D01*
X13219000Y-9296000D02*
X13299000Y-9296000D01*
X13259000Y-9510000D02*
X13259000Y-9590000D01*
X13219000Y-9550000D02*
X13299000Y-9550000D01*
X13259000Y-9764000D02*
X13259000Y-9844000D01*
X13219000Y-9804000D02*
X13299000Y-9804000D01*
X13259000Y-10018000D02*
X13259000Y-10098000D01*
X13219000Y-10058000D02*
X13299000Y-10058000D01*
X13259000Y-10272000D02*
X13259000Y-10352000D01*
X13219000Y-10312000D02*
X13299000Y-10312000D01*
X13259000Y-10526000D02*
X13259000Y-10606000D01*
X13219000Y-10566000D02*
X13299000Y-10566000D01*
X13259000Y-10780000D02*
X13259000Y-10860000D01*
X13219000Y-10820000D02*
X13299000Y-10820000D01*
X13259000Y-11034000D02*
X13259000Y-11114000D01*
X13219000Y-11074000D02*
X13299000Y-11074000D01*
X13259000Y-11288000D02*
X13259000Y-11368000D01*
X13219000Y-11328000D02*
X13299000Y-11328000D01*
X13259000Y-11542000D02*
X13259000Y-11622000D01*
X13219000Y-11582000D02*
X13299000Y-11582000D01*
X13259000Y-11796000D02*
X13259000Y-11876000D01*
X13219000Y-11836000D02*
X13299000Y-11836000D01*
X13513000Y-6970000D02*
X13513000Y-7050000D01*
X13473000Y-7010000D02*
X13553000Y-7010000D01*
X13513000Y-7224000D02*
X13513000Y-7304000D01*
X13473000Y-7264000D02*
X13553000Y-7264000D01*
X13513000Y-7478000D02*
X13513000Y-7558000D01*
X13473000Y-7518000D02*
X13553000Y-7518000D01*
X13513000Y-7732000D02*
X13513000Y-7812000D01*
X13473000Y-7772000D02*
X13553000Y-7772000D01*
X13513000Y-7986000D02*
X13513000Y-8066000D01*
X13473000Y-8026000D02*
X13553000Y-8026000D01*
X13513000Y-8240000D02*
X13513000Y-8320000D01*
X13473000Y-8280000D02*
X13553000Y-8280000D01*
X13513000Y-8494000D02*
X13513000Y-8574000D01*
X13473000Y-8534000D02*
X13553000Y-8534000D01*
X13513000Y-8748000D02*
X13513000Y-8828000D01*
X13473000Y-8788000D02*
X13553000Y-8788000D01*
X13513000Y-9002000D02*
X13513000Y-9082000D01*
X13473000Y-9042000D02*
X13553000Y-9042000D01*
X13513000Y-9256000D02*
X13513000Y-9336000D01*
X13473000Y-9296000D02*
X13553000Y-9296000D01*
X13513000Y-9510000D02*
X13513000Y-9590000D01*
X13473000Y-9550000D02*
X13553000Y-9550000D01*
X13513000Y-9764000D02*
X13513000Y-9844000D01*
X13473000Y-9804000D02*
X13553000Y-9804000D01*
X13513000Y-10018000D02*
X13513000Y-10098000D01*
X13473000Y-10058000D02*
X13553000Y-10058000D01*
X13513000Y-10272000D02*
X13513000Y-10352000D01*
X13473000Y-10312000D02*
X13553000Y-10312000D01*
X13513000Y-10526000D02*
X13513000Y-10606000D01*
X13473000Y-10566000D02*
X13553000Y-10566000D01*
X13513000Y-10780000D02*
X13513000Y-10860000D01*
X13473000Y-10820000D02*
X13553000Y-10820000D01*
X13513000Y-11034000D02*
X13513000Y-11114000D01*
X13473000Y-11074000D02*
X13553000Y-11074000D01*
X13513000Y-11288000D02*
X13513000Y-11368000D01*
X13473000Y-11328000D02*
X13553000Y-11328000D01*
X13513000Y-11542000D02*
X13513000Y-11622000D01*
X13473000Y-11582000D02*
X13553000Y-11582000D01*
X13513000Y-11796000D02*
X13513000Y-11876000D01*
X13473000Y-11836000D02*
X13553000Y-11836000D01*
X13767000Y-6970000D02*
X13767000Y-7050000D01*
X13727000Y-7010000D02*
X13807000Y-7010000D01*
X13767000Y-7224000D02*
X13767000Y-7304000D01*
X13727000Y-7264000D02*
X13807000Y-7264000D01*
X13767000Y-7478000D02*
X13767000Y-7558000D01*
X13727000Y-7518000D02*
X13807000Y-7518000D01*
X13767000Y-7732000D02*
X13767000Y-7812000D01*
X13727000Y-7772000D02*
X13807000Y-7772000D01*
X13767000Y-7986000D02*
X13767000Y-8066000D01*
X13727000Y-8026000D02*
X13807000Y-8026000D01*
X13767000Y-8240000D02*
X13767000Y-8320000D01*
X13727000Y-8280000D02*
X13807000Y-8280000D01*
X13767000Y-8494000D02*
X13767000Y-8574000D01*
X13727000Y-8534000D02*
X13807000Y-8534000D01*
X13767000Y-8748000D02*
X13767000Y-8828000D01*
X13727000Y-8788000D02*
X13807000Y-8788000D01*
X13767000Y-9002000D02*
X13767000Y-9082000D01*
X13727000Y-9042000D02*
X13807000Y-9042000D01*
X13767000Y-9256000D02*
X13767000Y-9336000D01*
X13727000Y-9296000D02*
X13807000Y-9296000D01*
X13767000Y-9510000D02*
X13767000Y-9590000D01*
X13727000Y-9550000D02*
X13807000Y-9550000D01*
X13767000Y-9764000D02*
X13767000Y-9844000D01*
X13727000Y-9804000D02*
X13807000Y-9804000D01*
X13767000Y-10018000D02*
X13767000Y-10098000D01*
X13727000Y-10058000D02*
X13807000Y-10058000D01*
X13767000Y-10272000D02*
X13767000Y-10352000D01*
X13727000Y-10312000D02*
X13807000Y-10312000D01*
X13767000Y-10526000D02*
X13767000Y-10606000D01*
X13727000Y-10566000D02*
X13807000Y-10566000D01*
X13767000Y-10780000D02*
X13767000Y-10860000D01*
X13727000Y-10820000D02*
X13807000Y-10820000D01*
X13767000Y-11034000D02*
X13767000Y-11114000D01*
X13727000Y-11074000D02*
X13807000Y-11074000D01*
X13767000Y-11288000D02*
X13767000Y-11368000D01*
X13727000Y-11328000D02*
X13807000Y-11328000D01*
X13767000Y-11542000D02*
X13767000Y-11622000D01*
X13727000Y-11582000D02*
X13807000Y-11582000D01*
X13767000Y-11796000D02*
X13767000Y-11876000D01*
X13727000Y-11836000D02*
X13807000Y-11836000D01*
X14021000Y-6970000D02*
X14021000Y-7050000D01*
X13981000Y-7010000D02*
X14061000Y-7010000D01*
X14021000Y-7224000D02*
X14021000Y-7304000D01*
X13981000Y-7264000D02*
X14061000Y-7264000D01*
X14021000Y-7478000D02*
X14021000Y-7558000D01*
X13981000Y-7518000D02*
X14061000Y-7518000D01*
X14021000Y-7732000D02*
X14021000Y-7812000D01*
X13981000Y-7772000D02*
X14061000Y-7772000D01*
X14021000Y-7986000D02*
X14021000Y-8066000D01*
X13981000Y-8026000D02*
X14061000Y-8026000D01*
X14021000Y-8240000D02*
X14021000Y-8320000D01*
X13981000Y-8280000D02*
X14061000Y-8280000D01*
X14021000Y-8494000D02*
X14021000Y-8574000D01*
X13981000Y-8534000D02*
X14061000Y-8534000D01*
X14021000Y-8748000D02*
X14021000Y-8828000D01*
X13981000Y-8788000D02*
X14061000Y-8788000D01*
X14021000Y-9002000D02*
X14021000Y-9082000D01*
X13981000Y-9042000D02*
X14061000Y-9042000D01*
X14021000Y-9256000D02*
X14021000Y-9336000D01*
X13981000Y-9296000D02*
X14061000Y-9296000D01*
X14021000Y-9510000D02*
X14021000Y-9590000D01*
X13981000Y-9550000D02*
X14061000Y-9550000D01*
X14021000Y-9764000D02*
X14021000Y-9844000D01*
X13981000Y-9804000D02*
X14061000Y-9804000D01*
X14021000Y-10018000D02*
X14021000Y-10098000D01*
X13981000Y-10058000D02*
X14061000Y-10058000D01*
X14021000Y-10272000D02*
X14021000Y-10352000D01*
X13981000Y-10312000D02*
X14061000Y-10312000D01*
X14021000Y-10526000D02*
X14021000Y-10606000D01*
X13981000Y-10566000D02*
X14061000Y-10566000D01*
X14021000Y-10780000D02*
X14021000Y-10860000D01*
X13981000Y-10820000D02*
X14061000Y-10820000D01*
X14021000Y-11034000D02*
X14021000Y-11114000D01*
X13981000Y-11074000D02*
X14061000Y-11074000D01*
X14021000Y-11288000D02*
X14021000Y-11368000D01*
X13981000Y-11328000D02*
X14061000Y-11328000D01*
X14021000Y-11542000D02*
X14021000Y-11622000D01*
X13981000Y-11582000D02*
X14061000Y-11582000D01*
X14021000Y-11796000D02*
X14021000Y-11876000D01*
X13981000Y-11836000D02*
X14061000Y-11836000D01*
X14275000Y-6970000D02*
X14275000Y-7050000D01*
X14235000Y-7010000D02*
X14315000Y-7010000D01*
X14275000Y-7224000D02*
X14275000Y-7304000D01*
X14235000Y-7264000D02*
X14315000Y-7264000D01*
X14275000Y-7478000D02*
X14275000Y-7558000D01*
X14235000Y-7518000D02*
X14315000Y-7518000D01*
X14275000Y-7732000D02*
X14275000Y-7812000D01*
X14235000Y-7772000D02*
X14315000Y-7772000D01*
X14275000Y-7986000D02*
X14275000Y-8066000D01*
X14235000Y-8026000D02*
X14315000Y-8026000D01*
X14275000Y-8240000D02*
X14275000Y-8320000D01*
X14235000Y-8280000D02*
X14315000Y-8280000D01*
X14275000Y-8494000D02*
X14275000Y-8574000D01*
X14235000Y-8534000D02*
X14315000Y-8534000D01*
X14275000Y-8748000D02*
X14275000Y-8828000D01*
X14235000Y-8788000D02*
X14315000Y-8788000D01*
X14275000Y-9002000D02*
X14275000Y-9082000D01*
X14235000Y-9042000D02*
X14315000Y-9042000D01*
X14275000Y-9256000D02*
X14275000Y-9336000D01*
X14235000Y-9296000D02*
X14315000Y-9296000D01*
X14275000Y-9510000D02*
X14275000Y-9590000D01*
X14235000Y-9550000D02*
X14315000Y-9550000D01*
X14275000Y-9764000D02*
X14275000Y-9844000D01*
X14235000Y-9804000D02*
X14315000Y-9804000D01*
X14275000Y-10018000D02*
X14275000Y-10098000D01*
X14235000Y-10058000D02*
X14315000Y-10058000D01*
X14275000Y-10272000D02*
X14275000Y-10352000D01*
X14235000Y-10312000D02*
X14315000Y-10312000D01*
X14275000Y-10526000D02*
X14275000Y-10606000D01*
X14235000Y-10566000D02*
X14315000Y-10566000D01*
X14275000Y-10780000D02*
X14275000Y-10860000D01*
X14235000Y-10820000D02*
X14315000Y-10820000D01*
X14275000Y-11034000D02*
X14275000Y-11114000D01*
X14235000Y-11074000D02*
X14315000Y-11074000D01*
X14275000Y-11288000D02*
X14275000Y-11368000D01*
X14235000Y-11328000D02*
X14315000Y-11328000D01*
X14275000Y-11542000D02*
X14275000Y-11622000D01*
X14235000Y-11582000D02*
X14315000Y-11582000D01*
X14275000Y-11796000D02*
X14275000Y-11876000D01*
X14235000Y-11836000D02*
X14315000Y-11836000D01*
X14529000Y-6970000D02*
X14529000Y-7050000D01*
X14489000Y-7010000D02*
X14569000Y-7010000D01*
X14529000Y-7224000D02*
X14529000Y-7304000D01*
X14489000Y-7264000D02*
X14569000Y-7264000D01*
X14529000Y-7478000D02*
X14529000Y-7558000D01*
X14489000Y-7518000D02*
X14569000Y-7518000D01*
X14529000Y-7732000D02*
X14529000Y-7812000D01*
X14489000Y-7772000D02*
X14569000Y-7772000D01*
X14529000Y-7986000D02*
X14529000Y-8066000D01*
X14489000Y-8026000D02*
X14569000Y-8026000D01*
X14529000Y-8240000D02*
X14529000Y-8320000D01*
X14489000Y-8280000D02*
X14569000Y-8280000D01*
X14529000Y-8494000D02*
X14529000Y-8574000D01*
X14489000Y-8534000D02*
X14569000Y-8534000D01*
X14529000Y-8748000D02*
X14529000Y-8828000D01*
X14489000Y-8788000D02*
X14569000Y-8788000D01*
X14529000Y-9002000D02*
X14529000Y-9082000D01*
X14489000Y-9042000D02*
X14569000Y-9042000D01*
X14529000Y-9256000D02*
X14529000Y-9336000D01*
X14489000Y-9296000D02*
X14569000Y-9296000D01*
X14529000Y-9510000D02*
X14529000Y-9590000D01*
X14489000Y-9550000D02*
X14569000Y-9550000D01*
X14529000Y-9764000D02*
X14529000Y-9844000D01*
X14489000Y-9804000D02*
X14569000Y-9804000D01*
X14529000Y-10018000D02*
X14529000Y-10098000D01*
X14489000Y-10058000D02*
X14569000Y-10058000D01*
X14529000Y-10272000D02*
X14529000Y-10352000D01*
X14489000Y-10312000D02*
X14569000Y-10312000D01*
X14529000Y-10526000D02*
X14529000Y-10606000D01*
X14489000Y-10566000D02*
X14569000Y-10566000D01*
X14529000Y-10780000D02*
X14529000Y-10860000D01*
X14489000Y-10820000D02*
X14569000Y-10820000D01*
X14529000Y-11034000D02*
X14529000Y-11114000D01*
X14489000Y-11074000D02*
X14569000Y-11074000D01*
X14529000Y-11288000D02*
X14529000Y-11368000D01*
X14489000Y-11328000D02*
X14569000Y-11328000D01*
X14529000Y-11542000D02*
X14529000Y-11622000D01*
X14489000Y-11582000D02*
X14569000Y-11582000D01*
X14529000Y-11796000D02*
X14529000Y-11876000D01*
X14489000Y-11836000D02*
X14569000Y-11836000D01*
X9844921Y-2489921D02*
X9844921Y-2418079D01*
X9773079Y-2418079D01*
X9773079Y-2489921D01*
X9844921Y-2489921D01*
X10098921Y-2489921D02*
X10098921Y-2418079D01*
X10027079Y-2418079D01*
X10027079Y-2489921D01*
X10098921Y-2489921D01*
X10714921Y-2488921D02*
X10714921Y-2417079D01*
X10643079Y-2417079D01*
X10643079Y-2488921D01*
X10714921Y-2488921D01*
X10714921Y-2742921D02*
X10714921Y-2671079D01*
X10643079Y-2671079D01*
X10643079Y-2742921D01*
X10714921Y-2742921D01*
X10900921Y-5438921D02*
X10900921Y-5367079D01*
X10829079Y-5367079D01*
X10829079Y-5438921D01*
X10900921Y-5438921D01*
X10968921Y-2488921D02*
X10968921Y-2417079D01*
X10897079Y-2417079D01*
X10897079Y-2488921D01*
X10968921Y-2488921D01*
X10968921Y-2742921D02*
X10968921Y-2671079D01*
X10897079Y-2671079D01*
X10897079Y-2742921D01*
X10968921Y-2742921D01*
X11154921Y-5438921D02*
X11154921Y-5367079D01*
X11083079Y-5367079D01*
X11083079Y-5438921D01*
X11154921Y-5438921D01*
X11222921Y-2488921D02*
X11222921Y-2417079D01*
X11151079Y-2417079D01*
X11151079Y-2488921D01*
X11222921Y-2488921D01*
X11222921Y-2742921D02*
X11222921Y-2671079D01*
X11151079Y-2671079D01*
X11151079Y-2742921D01*
X11222921Y-2742921D01*
X11476921Y-2488921D02*
X11476921Y-2417079D01*
X11405079Y-2417079D01*
X11405079Y-2488921D01*
X11476921Y-2488921D01*
X11476921Y-2742921D02*
X11476921Y-2671079D01*
X11405079Y-2671079D01*
X11405079Y-2742921D01*
X11476921Y-2742921D01*
X11730921Y-2488921D02*
X11730921Y-2417079D01*
X11659079Y-2417079D01*
X11659079Y-2488921D01*
X11730921Y-2488921D01*
X11730921Y-2742921D02*
X11730921Y-2671079D01*
X11659079Y-2671079D01*
X11659079Y-2742921D01*
X11730921Y-2742921D01*
X11984921Y-2488921D02*
X11984921Y-2417079D01*
X11913079Y-2417079D01*
X11913079Y-2488921D01*
X11984921Y-2488921D01*
X11984921Y-2742921D02*
X11984921Y-2671079D01*
X11913079Y-2671079D01*
X11913079Y-2742921D01*
X11984921Y-2742921D01*
X12238921Y-2488921D02*
X12238921Y-2417079D01*
X12167079Y-2417079D01*
X12167079Y-2488921D01*
X12238921Y-2488921D01*
X12238921Y-2742921D02*
X12238921Y-2671079D01*
X12167079Y-2671079D01*
X12167079Y-2742921D01*
X12238921Y-2742921D01*
X12492921Y-2488921D02*
X12492921Y-2417079D01*
X12421079Y-2417079D01*
X12421079Y-2488921D01*
X12492921Y-2488921D01*
X12492921Y-2742921D02*
X12492921Y-2671079D01*
X12421079Y-2671079D01*
X12421079Y-2742921D01*
X12492921Y-2742921D01*
X12746921Y-2488921D02*
X12746921Y-2417079D01*
X12675079Y-2417079D01*
X12675079Y-2488921D01*
X12746921Y-2488921D01*
X12746921Y-2742921D02*
X12746921Y-2671079D01*
X12675079Y-2671079D01*
X12675079Y-2742921D01*
X12746921Y-2742921D01*
X13000921Y-2488921D02*
X13000921Y-2417079D01*
X12929079Y-2417079D01*
X12929079Y-2488921D01*
X13000921Y-2488921D01*
X13000921Y-2742921D02*
X13000921Y-2671079D01*
X12929079Y-2671079D01*
X12929079Y-2742921D01*
X13000921Y-2742921D01*
X13208921Y-5448921D02*
X13208921Y-5377079D01*
X13137079Y-5377079D01*
X13137079Y-5448921D01*
X13208921Y-5448921D01*
X13462921Y-5448921D02*
X13462921Y-5377079D01*
X13391079Y-5377079D01*
X13391079Y-5448921D01*
X13462921Y-5448921D01*
X13670921Y-2566921D02*
X13670921Y-2495079D01*
X13599079Y-2495079D01*
X13599079Y-2566921D01*
X13670921Y-2566921D01*
X13924921Y-2566921D02*
X13924921Y-2495079D01*
X13853079Y-2495079D01*
X13853079Y-2566921D01*
X13924921Y-2566921D01*
X14178921Y-2566921D02*
X14178921Y-2495079D01*
X14107079Y-2495079D01*
X14107079Y-2566921D01*
X14178921Y-2566921D01*
X14843921Y-2575921D02*
X14843921Y-2504079D01*
X14772079Y-2504079D01*
X14772079Y-2575921D01*
X14843921Y-2575921D01*
X14843921Y-2829921D02*
X14843921Y-2758079D01*
X14772079Y-2758079D01*
X14772079Y-2829921D01*
X14843921Y-2829921D01*
X15097921Y-2575921D02*
X15097921Y-2504079D01*
X15026079Y-2504079D01*
X15026079Y-2575921D01*
X15097921Y-2575921D01*
X15097921Y-2829921D02*
X15097921Y-2758079D01*
X15026079Y-2758079D01*
X15026079Y-2829921D01*
X15097921Y-2829921D01*
X15859921Y-2542921D02*
X15859921Y-2471079D01*
X15788079Y-2471079D01*
X15788079Y-2542921D01*
X15859921Y-2542921D01*
X15859921Y-2796921D02*
X15859921Y-2725079D01*
X15788079Y-2725079D01*
X15788079Y-2796921D01*
X15859921Y-2796921D01*
X16113921Y-2542921D02*
X16113921Y-2471079D01*
X16042079Y-2471079D01*
X16042079Y-2542921D01*
X16113921Y-2542921D01*
X16113921Y-2796921D02*
X16113921Y-2725079D01*
X16042079Y-2725079D01*
X16042079Y-2796921D01*
X16113921Y-2796921D01*
X16367921Y-2542921D02*
X16367921Y-2471079D01*
X16296079Y-2471079D01*
X16296079Y-2542921D01*
X16367921Y-2542921D01*
X16367921Y-2796921D02*
X16367921Y-2725079D01*
X16296079Y-2725079D01*
X16296079Y-2796921D01*
X16367921Y-2796921D01*
X16621921Y-2542921D02*
X16621921Y-2471079D01*
X16550079Y-2471079D01*
X16550079Y-2542921D01*
X16621921Y-2542921D01*
X16621921Y-2796921D02*
X16621921Y-2725079D01*
X16550079Y-2725079D01*
X16550079Y-2796921D01*
X16621921Y-2796921D01*
X17434921Y-3413921D02*
X17434921Y-3342079D01*
X17363079Y-3342079D01*
X17363079Y-3413921D01*
X17434921Y-3413921D01*
X17434921Y-3667921D02*
X17434921Y-3596079D01*
X17363079Y-3596079D01*
X17363079Y-3667921D01*
X17434921Y-3667921D01*
X17434921Y-3921921D02*
X17434921Y-3850079D01*
X17363079Y-3850079D01*
X17363079Y-3921921D01*
X17434921Y-3921921D01*
X17434921Y-4175921D02*
X17434921Y-4104079D01*
X17363079Y-4104079D01*
X17363079Y-4175921D01*
X17434921Y-4175921D01*
X17434921Y-4429921D02*
X17434921Y-4358079D01*
X17363079Y-4358079D01*
X17363079Y-4429921D01*
X17434921Y-4429921D01*
X17434921Y-4683921D02*
X17434921Y-4612079D01*
X17363079Y-4612079D01*
X17363079Y-4683921D01*
X17434921Y-4683921D01*
X17434921Y-4937921D02*
X17434921Y-4866079D01*
X17363079Y-4866079D01*
X17363079Y-4937921D01*
X17434921Y-4937921D01*
X17434921Y-5191921D02*
X17434921Y-5120079D01*
X17363079Y-5120079D01*
X17363079Y-5191921D01*
X17434921Y-5191921D01*
X17434921Y-5445921D02*
X17434921Y-5374079D01*
X17363079Y-5374079D01*
X17363079Y-5445921D01*
X17434921Y-5445921D01*
X17434921Y-5699921D02*
X17434921Y-5628079D01*
X17363079Y-5628079D01*
X17363079Y-5699921D01*
X17434921Y-5699921D01*
X17472921Y-8089921D02*
X17472921Y-8018079D01*
X17401079Y-8018079D01*
X17401079Y-8089921D01*
X17472921Y-8089921D01*
X17472921Y-8343921D02*
X17472921Y-8272079D01*
X17401079Y-8272079D01*
X17401079Y-8343921D01*
X17472921Y-8343921D01*
X17472921Y-8597921D02*
X17472921Y-8526079D01*
X17401079Y-8526079D01*
X17401079Y-8597921D01*
X17472921Y-8597921D01*
X17472921Y-8851921D02*
X17472921Y-8780079D01*
X17401079Y-8780079D01*
X17401079Y-8851921D01*
X17472921Y-8851921D01*
X17472921Y-9105921D02*
X17472921Y-9034079D01*
X17401079Y-9034079D01*
X17401079Y-9105921D01*
X17472921Y-9105921D01*
X17472921Y-9359921D02*
X17472921Y-9288079D01*
X17401079Y-9288079D01*
X17401079Y-9359921D01*
X17472921Y-9359921D01*
X17472921Y-9613921D02*
X17472921Y-9542079D01*
X17401079Y-9542079D01*
X17401079Y-9613921D01*
X17472921Y-9613921D01*
X17472921Y-9867921D02*
X17472921Y-9796079D01*
X17401079Y-9796079D01*
X17401079Y-9867921D01*
X17472921Y-9867921D01*
X17472921Y-10121921D02*
X17472921Y-10050079D01*
X17401079Y-10050079D01*
X17401079Y-10121921D01*
X17472921Y-10121921D01*
X17472921Y-10375921D02*
X17472921Y-10304079D01*
X17401079Y-10304079D01*
X17401079Y-10375921D01*
X17472921Y-10375921D01*
X17682921Y-6678921D02*
X17682921Y-6607079D01*
X17611079Y-6607079D01*
X17611079Y-6678921D01*
X17682921Y-6678921D01*
X17682921Y-6932921D02*
X17682921Y-6861079D01*
X17611079Y-6861079D01*
X17611079Y-6932921D01*
X17682921Y-6932921D01*
X17682921Y-7186921D02*
X17682921Y-7115079D01*
X17611079Y-7115079D01*
X17611079Y-7186921D01*
X17682921Y-7186921D01*
X17682921Y-7440921D02*
X17682921Y-7369079D01*
X17611079Y-7369079D01*
X17611079Y-7440921D01*
X17682921Y-7440921D01*
X17688921Y-3413921D02*
X17688921Y-3342079D01*
X17617079Y-3342079D01*
X17617079Y-3413921D01*
X17688921Y-3413921D01*
X17688921Y-3667921D02*
X17688921Y-3596079D01*
X17617079Y-3596079D01*
X17617079Y-3667921D01*
X17688921Y-3667921D01*
X17688921Y-3921921D02*
X17688921Y-3850079D01*
X17617079Y-3850079D01*
X17617079Y-3921921D01*
X17688921Y-3921921D01*
X17688921Y-4175921D02*
X17688921Y-4104079D01*
X17617079Y-4104079D01*
X17617079Y-4175921D01*
X17688921Y-4175921D01*
X17688921Y-4429921D02*
X17688921Y-4358079D01*
X17617079Y-4358079D01*
X17617079Y-4429921D01*
X17688921Y-4429921D01*
X17688921Y-4683921D02*
X17688921Y-4612079D01*
X17617079Y-4612079D01*
X17617079Y-4683921D01*
X17688921Y-4683921D01*
X17688921Y-4937921D02*
X17688921Y-4866079D01*
X17617079Y-4866079D01*
X17617079Y-4937921D01*
X17688921Y-4937921D01*
X17688921Y-5191921D02*
X17688921Y-5120079D01*
X17617079Y-5120079D01*
X17617079Y-5191921D01*
X17688921Y-5191921D01*
X17688921Y-5445921D02*
X17688921Y-5374079D01*
X17617079Y-5374079D01*
X17617079Y-5445921D01*
X17688921Y-5445921D01*
X17688921Y-5699921D02*
X17688921Y-5628079D01*
X17617079Y-5628079D01*
X17617079Y-5699921D01*
X17688921Y-5699921D01*
X17726921Y-8089921D02*
X17726921Y-8018079D01*
X17655079Y-8018079D01*
X17655079Y-8089921D01*
X17726921Y-8089921D01*
X17726921Y-8343921D02*
X17726921Y-8272079D01*
X17655079Y-8272079D01*
X17655079Y-8343921D01*
X17726921Y-8343921D01*
X17726921Y-8597921D02*
X17726921Y-8526079D01*
X17655079Y-8526079D01*
X17655079Y-8597921D01*
X17726921Y-8597921D01*
X17726921Y-8851921D02*
X17726921Y-8780079D01*
X17655079Y-8780079D01*
X17655079Y-8851921D01*
X17726921Y-8851921D01*
X17726921Y-9105921D02*
X17726921Y-9034079D01*
X17655079Y-9034079D01*
X17655079Y-9105921D01*
X17726921Y-9105921D01*
X17726921Y-9359921D02*
X17726921Y-9288079D01*
X17655079Y-9288079D01*
X17655079Y-9359921D01*
X17726921Y-9359921D01*
X17726921Y-9613921D02*
X17726921Y-9542079D01*
X17655079Y-9542079D01*
X17655079Y-9613921D01*
X17726921Y-9613921D01*
X17726921Y-9867921D02*
X17726921Y-9796079D01*
X17655079Y-9796079D01*
X17655079Y-9867921D01*
X17726921Y-9867921D01*
X17726921Y-10121921D02*
X17726921Y-10050079D01*
X17655079Y-10050079D01*
X17655079Y-10121921D01*
X17726921Y-10121921D01*
X17726921Y-10375921D02*
X17726921Y-10304079D01*
X17655079Y-10304079D01*
X17655079Y-10375921D01*
X17726921Y-10375921D01*
X8632000Y-5016937D02*
X8722043Y-4926894D01*
X8632000Y-4836851D01*
X8541957Y-4926894D01*
X8632000Y-5016937D01*
X8632000Y-5412923D02*
X8722043Y-5322880D01*
X8632000Y-5232837D01*
X8541957Y-5322880D01*
X8632000Y-5412923D01*
X8632000Y-5809163D02*
X8722043Y-5719120D01*
X8632000Y-5629077D01*
X8541957Y-5719120D01*
X8632000Y-5809163D01*
X8632000Y-6205149D02*
X8722043Y-6115106D01*
X8632000Y-6025063D01*
X8541957Y-6115106D01*
X8632000Y-6205149D01*
X15830894Y-11615043D02*
X15920937Y-11525000D01*
X15830894Y-11434957D01*
X15740851Y-11525000D01*
X15830894Y-11615043D01*
X16226880Y-11615043D02*
X16316923Y-11525000D01*
X16226880Y-11434957D01*
X16136837Y-11525000D01*
X16226880Y-11615043D01*
X16623120Y-11615043D02*
X16713163Y-11525000D01*
X16623120Y-11434957D01*
X16533077Y-11525000D01*
X16623120Y-11615043D01*
X17019106Y-11615043D02*
X17109149Y-11525000D01*
X17019106Y-11434957D01*
X16929063Y-11525000D01*
X17019106Y-11615043D01*
D13*
X8263928Y-12673214D02*
X8263928Y-12373214D01*
X8335357Y-12373214D01*
X8378214Y-12387500D01*
X8406786Y-12416071D01*
X8421071Y-12444643D01*
X8435357Y-12501786D01*
X8435357Y-12544643D01*
X8421071Y-12601786D01*
X8406786Y-12630357D01*
X8378214Y-12658929D01*
X8335357Y-12673214D01*
X8263928Y-12673214D01*
X8563929Y-12673214D02*
X8563929Y-12473214D01*
X8563929Y-12530357D02*
X8578214Y-12501786D01*
X8592500Y-12487500D01*
X8621071Y-12473214D01*
X8649643Y-12473214D01*
X8749643Y-12673214D02*
X8749643Y-12473214D01*
X8749643Y-12373214D02*
X8735357Y-12387500D01*
X8749643Y-12401786D01*
X8763929Y-12387500D01*
X8749643Y-12373214D01*
X8749643Y-12401786D01*
X8935357Y-12673214D02*
X8906786Y-12658929D01*
X8892500Y-12630357D01*
X8892500Y-12373214D01*
X9092500Y-12673214D02*
X9063929Y-12658929D01*
X9049643Y-12630357D01*
X9049643Y-12373214D01*
X9435357Y-12673214D02*
X9435357Y-12373214D01*
X9535357Y-12587500D01*
X9635357Y-12373214D01*
X9635357Y-12673214D01*
X9906786Y-12673214D02*
X9906786Y-12516071D01*
X9892500Y-12487500D01*
X9863929Y-12473214D01*
X9806786Y-12473214D01*
X9778214Y-12487500D01*
X9906786Y-12658929D02*
X9878214Y-12673214D01*
X9806786Y-12673214D01*
X9778214Y-12658929D01*
X9763929Y-12630357D01*
X9763929Y-12601786D01*
X9778214Y-12573214D01*
X9806786Y-12558929D01*
X9878214Y-12558929D01*
X9906786Y-12544643D01*
X10049643Y-12473214D02*
X10049643Y-12773214D01*
X10049643Y-12487500D02*
X10078214Y-12473214D01*
X10135357Y-12473214D01*
X10163929Y-12487500D01*
X10178214Y-12501786D01*
X10192500Y-12530357D01*
X10192500Y-12616071D01*
X10178214Y-12644643D01*
X10163929Y-12658929D01*
X10135357Y-12673214D01*
X10078214Y-12673214D01*
X10049643Y-12658929D01*
X10321071Y-12644643D02*
X10335357Y-12658929D01*
X10321071Y-12673214D01*
X10306786Y-12658929D01*
X10321071Y-12644643D01*
X10321071Y-12673214D01*
X10321071Y-12487500D02*
X10335357Y-12501786D01*
X10321071Y-12516071D01*
X10306786Y-12501786D01*
X10321071Y-12487500D01*
X10321071Y-12516071D01*
X7952500Y-13147500D02*
X7992500Y-13187500D01*
X7992500Y-13147500D02*
X7952500Y-13187500D01*
X8321071Y-13003214D02*
X8349643Y-13003214D01*
X8378214Y-13017500D01*
X8392500Y-13031786D01*
X8406786Y-13060357D01*
X8421071Y-13117500D01*
X8421071Y-13188929D01*
X8406786Y-13246071D01*
X8392500Y-13274643D01*
X8378214Y-13288929D01*
X8349643Y-13303214D01*
X8321071Y-13303214D01*
X8292500Y-13288929D01*
X8278214Y-13274643D01*
X8263928Y-13246071D01*
X8249643Y-13188929D01*
X8249643Y-13117500D01*
X8263928Y-13060357D01*
X8278214Y-13031786D01*
X8292500Y-13017500D01*
X8321071Y-13003214D01*
X8549643Y-13274643D02*
X8563929Y-13288929D01*
X8549643Y-13303214D01*
X8535357Y-13288929D01*
X8549643Y-13274643D01*
X8549643Y-13303214D01*
X8821071Y-13103214D02*
X8821071Y-13303214D01*
X8749643Y-12988929D02*
X8678214Y-13203214D01*
X8863928Y-13203214D01*
X9035357Y-13003214D02*
X9063929Y-13003214D01*
X9092500Y-13017500D01*
X9106786Y-13031786D01*
X9121071Y-13060357D01*
X9135357Y-13117500D01*
X9135357Y-13188929D01*
X9121071Y-13246071D01*
X9106786Y-13274643D01*
X9092500Y-13288929D01*
X9063929Y-13303214D01*
X9035357Y-13303214D01*
X9006786Y-13288929D01*
X8992500Y-13274643D01*
X8978214Y-13246071D01*
X8963929Y-13188929D01*
X8963929Y-13117500D01*
X8978214Y-13060357D01*
X8992500Y-13031786D01*
X9006786Y-13017500D01*
X9035357Y-13003214D01*
X9263929Y-13303214D02*
X9263929Y-13103214D01*
X9263929Y-13131786D02*
X9278214Y-13117500D01*
X9306786Y-13103214D01*
X9349643Y-13103214D01*
X9378214Y-13117500D01*
X9392500Y-13146071D01*
X9392500Y-13303214D01*
X9392500Y-13146071D02*
X9406786Y-13117500D01*
X9435357Y-13103214D01*
X9478214Y-13103214D01*
X9506786Y-13117500D01*
X9521071Y-13146071D01*
X9521071Y-13303214D01*
X9663929Y-13303214D02*
X9663929Y-13103214D01*
X9663929Y-13131786D02*
X9678214Y-13117500D01*
X9706786Y-13103214D01*
X9749643Y-13103214D01*
X9778214Y-13117500D01*
X9792500Y-13146071D01*
X9792500Y-13303214D01*
X9792500Y-13146071D02*
X9806786Y-13117500D01*
X9835357Y-13103214D01*
X9878214Y-13103214D01*
X9906786Y-13117500D01*
X9921071Y-13146071D01*
X9921071Y-13303214D01*
X10506786Y-12988929D02*
X10249643Y-13374643D01*
X10892500Y-13003214D02*
X10921071Y-13003214D01*
X10949643Y-13017500D01*
X10963928Y-13031786D01*
X10978214Y-13060357D01*
X10992500Y-13117500D01*
X10992500Y-13188929D01*
X10978214Y-13246071D01*
X10963928Y-13274643D01*
X10949643Y-13288929D01*
X10921071Y-13303214D01*
X10892500Y-13303214D01*
X10863928Y-13288929D01*
X10849643Y-13274643D01*
X10835357Y-13246071D01*
X10821071Y-13188929D01*
X10821071Y-13117500D01*
X10835357Y-13060357D01*
X10849643Y-13031786D01*
X10863928Y-13017500D01*
X10892500Y-13003214D01*
X11121071Y-13274643D02*
X11135357Y-13288929D01*
X11121071Y-13303214D01*
X11106786Y-13288929D01*
X11121071Y-13274643D01*
X11121071Y-13303214D01*
X11321071Y-13003214D02*
X11349643Y-13003214D01*
X11378214Y-13017500D01*
X11392500Y-13031786D01*
X11406785Y-13060357D01*
X11421071Y-13117500D01*
X11421071Y-13188929D01*
X11406785Y-13246071D01*
X11392500Y-13274643D01*
X11378214Y-13288929D01*
X11349643Y-13303214D01*
X11321071Y-13303214D01*
X11292500Y-13288929D01*
X11278214Y-13274643D01*
X11263928Y-13246071D01*
X11249643Y-13188929D01*
X11249643Y-13117500D01*
X11263928Y-13060357D01*
X11278214Y-13031786D01*
X11292500Y-13017500D01*
X11321071Y-13003214D01*
X11706785Y-13303214D02*
X11535357Y-13303214D01*
X11621071Y-13303214D02*
X11621071Y-13003214D01*
X11592500Y-13046071D01*
X11563928Y-13074643D01*
X11535357Y-13088929D01*
X11963928Y-13003214D02*
X11906785Y-13003214D01*
X11878214Y-13017500D01*
X11863928Y-13031786D01*
X11835357Y-13074643D01*
X11821071Y-13131786D01*
X11821071Y-13246071D01*
X11835357Y-13274643D01*
X11849643Y-13288929D01*
X11878214Y-13303214D01*
X11935357Y-13303214D01*
X11963928Y-13288929D01*
X11978214Y-13274643D01*
X11992500Y-13246071D01*
X11992500Y-13174643D01*
X11978214Y-13146071D01*
X11963928Y-13131786D01*
X11935357Y-13117500D01*
X11878214Y-13117500D01*
X11849643Y-13131786D01*
X11835357Y-13146071D01*
X11821071Y-13174643D01*
X12106786Y-13003214D02*
X12106786Y-13060357D01*
X12221071Y-13003214D02*
X12221071Y-13060357D01*
X12663928Y-13417500D02*
X12649643Y-13403214D01*
X12621071Y-13360357D01*
X12606785Y-13331786D01*
X12592500Y-13288929D01*
X12578214Y-13217500D01*
X12578214Y-13160357D01*
X12592500Y-13088929D01*
X12606785Y-13046071D01*
X12621071Y-13017500D01*
X12649643Y-12974643D01*
X12663928Y-12960357D01*
X12906785Y-13003214D02*
X12849643Y-13003214D01*
X12821071Y-13017500D01*
X12806785Y-13031786D01*
X12778214Y-13074643D01*
X12763928Y-13131786D01*
X12763928Y-13246071D01*
X12778214Y-13274643D01*
X12792500Y-13288929D01*
X12821071Y-13303214D01*
X12878214Y-13303214D01*
X12906785Y-13288929D01*
X12921071Y-13274643D01*
X12935357Y-13246071D01*
X12935357Y-13174643D01*
X12921071Y-13146071D01*
X12906785Y-13131786D01*
X12878214Y-13117500D01*
X12821071Y-13117500D01*
X12792500Y-13131786D01*
X12778214Y-13146071D01*
X12763928Y-13174643D01*
X13121071Y-13003214D02*
X13149643Y-13003214D01*
X13178214Y-13017500D01*
X13192500Y-13031786D01*
X13206785Y-13060357D01*
X13221071Y-13117500D01*
X13221071Y-13188929D01*
X13206785Y-13246071D01*
X13192500Y-13274643D01*
X13178214Y-13288929D01*
X13149643Y-13303214D01*
X13121071Y-13303214D01*
X13092500Y-13288929D01*
X13078214Y-13274643D01*
X13063928Y-13246071D01*
X13049643Y-13188929D01*
X13049643Y-13117500D01*
X13063928Y-13060357D01*
X13078214Y-13031786D01*
X13092500Y-13017500D01*
X13121071Y-13003214D01*
X13406785Y-13003214D02*
X13435357Y-13003214D01*
X13463928Y-13017500D01*
X13478214Y-13031786D01*
X13492500Y-13060357D01*
X13506785Y-13117500D01*
X13506785Y-13188929D01*
X13492500Y-13246071D01*
X13478214Y-13274643D01*
X13463928Y-13288929D01*
X13435357Y-13303214D01*
X13406785Y-13303214D01*
X13378214Y-13288929D01*
X13363928Y-13274643D01*
X13349643Y-13246071D01*
X13335357Y-13188929D01*
X13335357Y-13117500D01*
X13349643Y-13060357D01*
X13363928Y-13031786D01*
X13378214Y-13017500D01*
X13406785Y-13003214D01*
X13863928Y-13303214D02*
X13863928Y-13003214D01*
X13992500Y-13303214D02*
X13992500Y-13146071D01*
X13978214Y-13117500D01*
X13949643Y-13103214D01*
X13906785Y-13103214D01*
X13878214Y-13117500D01*
X13863928Y-13131786D01*
X14178214Y-13303214D02*
X14149643Y-13288929D01*
X14135357Y-13274643D01*
X14121071Y-13246071D01*
X14121071Y-13160357D01*
X14135357Y-13131786D01*
X14149643Y-13117500D01*
X14178214Y-13103214D01*
X14221071Y-13103214D01*
X14249643Y-13117500D01*
X14263928Y-13131786D01*
X14278214Y-13160357D01*
X14278214Y-13246071D01*
X14263928Y-13274643D01*
X14249643Y-13288929D01*
X14221071Y-13303214D01*
X14178214Y-13303214D01*
X14449643Y-13303214D02*
X14421071Y-13288929D01*
X14406786Y-13260357D01*
X14406786Y-13003214D01*
X14678214Y-13288929D02*
X14649643Y-13303214D01*
X14592500Y-13303214D01*
X14563928Y-13288929D01*
X14549643Y-13260357D01*
X14549643Y-13146071D01*
X14563928Y-13117500D01*
X14592500Y-13103214D01*
X14649643Y-13103214D01*
X14678214Y-13117500D01*
X14692500Y-13146071D01*
X14692500Y-13174643D01*
X14549643Y-13203214D01*
X14806786Y-13288929D02*
X14835357Y-13303214D01*
X14892500Y-13303214D01*
X14921071Y-13288929D01*
X14935357Y-13260357D01*
X14935357Y-13246071D01*
X14921071Y-13217500D01*
X14892500Y-13203214D01*
X14849643Y-13203214D01*
X14821071Y-13188929D01*
X14806786Y-13160357D01*
X14806786Y-13146071D01*
X14821071Y-13117500D01*
X14849643Y-13103214D01*
X14892500Y-13103214D01*
X14921071Y-13117500D01*
X15035357Y-13417500D02*
X15049643Y-13403214D01*
X15078214Y-13360357D01*
X15092500Y-13331786D01*
X15106786Y-13288929D01*
X15121071Y-13217500D01*
X15121071Y-13160357D01*
X15106786Y-13088929D01*
X15092500Y-13046071D01*
X15078214Y-13017500D01*
X15049643Y-12974643D01*
X15035357Y-12960357D01*
X7992500Y-13563500D02*
G75*
G03X7992500Y-13563500I-25000J0D01*
G01*
X8321071Y-13399214D02*
X8349643Y-13399214D01*
X8378214Y-13413500D01*
X8392500Y-13427786D01*
X8406786Y-13456357D01*
X8421071Y-13513500D01*
X8421071Y-13584929D01*
X8406786Y-13642071D01*
X8392500Y-13670643D01*
X8378214Y-13684929D01*
X8349643Y-13699214D01*
X8321071Y-13699214D01*
X8292500Y-13684929D01*
X8278214Y-13670643D01*
X8263928Y-13642071D01*
X8249643Y-13584929D01*
X8249643Y-13513500D01*
X8263928Y-13456357D01*
X8278214Y-13427786D01*
X8292500Y-13413500D01*
X8321071Y-13399214D01*
X8549643Y-13670643D02*
X8563929Y-13684929D01*
X8549643Y-13699214D01*
X8535357Y-13684929D01*
X8549643Y-13670643D01*
X8549643Y-13699214D01*
X8835357Y-13399214D02*
X8692500Y-13399214D01*
X8678214Y-13542071D01*
X8692500Y-13527786D01*
X8721071Y-13513500D01*
X8792500Y-13513500D01*
X8821071Y-13527786D01*
X8835357Y-13542071D01*
X8849643Y-13570643D01*
X8849643Y-13642071D01*
X8835357Y-13670643D01*
X8821071Y-13684929D01*
X8792500Y-13699214D01*
X8721071Y-13699214D01*
X8692500Y-13684929D01*
X8678214Y-13670643D01*
X9035357Y-13399214D02*
X9063929Y-13399214D01*
X9092500Y-13413500D01*
X9106786Y-13427786D01*
X9121071Y-13456357D01*
X9135357Y-13513500D01*
X9135357Y-13584929D01*
X9121071Y-13642071D01*
X9106786Y-13670643D01*
X9092500Y-13684929D01*
X9063929Y-13699214D01*
X9035357Y-13699214D01*
X9006786Y-13684929D01*
X8992500Y-13670643D01*
X8978214Y-13642071D01*
X8963929Y-13584929D01*
X8963929Y-13513500D01*
X8978214Y-13456357D01*
X8992500Y-13427786D01*
X9006786Y-13413500D01*
X9035357Y-13399214D01*
X9263929Y-13699214D02*
X9263929Y-13499214D01*
X9263929Y-13527786D02*
X9278214Y-13513500D01*
X9306786Y-13499214D01*
X9349643Y-13499214D01*
X9378214Y-13513500D01*
X9392500Y-13542071D01*
X9392500Y-13699214D01*
X9392500Y-13542071D02*
X9406786Y-13513500D01*
X9435357Y-13499214D01*
X9478214Y-13499214D01*
X9506786Y-13513500D01*
X9521071Y-13542071D01*
X9521071Y-13699214D01*
X9663929Y-13699214D02*
X9663929Y-13499214D01*
X9663929Y-13527786D02*
X9678214Y-13513500D01*
X9706786Y-13499214D01*
X9749643Y-13499214D01*
X9778214Y-13513500D01*
X9792500Y-13542071D01*
X9792500Y-13699214D01*
X9792500Y-13542071D02*
X9806786Y-13513500D01*
X9835357Y-13499214D01*
X9878214Y-13499214D01*
X9906786Y-13513500D01*
X9921071Y-13542071D01*
X9921071Y-13699214D01*
X10506786Y-13384929D02*
X10249643Y-13770643D01*
X10892500Y-13399214D02*
X10921071Y-13399214D01*
X10949643Y-13413500D01*
X10963928Y-13427786D01*
X10978214Y-13456357D01*
X10992500Y-13513500D01*
X10992500Y-13584929D01*
X10978214Y-13642071D01*
X10963928Y-13670643D01*
X10949643Y-13684929D01*
X10921071Y-13699214D01*
X10892500Y-13699214D01*
X10863928Y-13684929D01*
X10849643Y-13670643D01*
X10835357Y-13642071D01*
X10821071Y-13584929D01*
X10821071Y-13513500D01*
X10835357Y-13456357D01*
X10849643Y-13427786D01*
X10863928Y-13413500D01*
X10892500Y-13399214D01*
X11121071Y-13670643D02*
X11135357Y-13684929D01*
X11121071Y-13699214D01*
X11106786Y-13684929D01*
X11121071Y-13670643D01*
X11121071Y-13699214D01*
X11321071Y-13399214D02*
X11349643Y-13399214D01*
X11378214Y-13413500D01*
X11392500Y-13427786D01*
X11406785Y-13456357D01*
X11421071Y-13513500D01*
X11421071Y-13584929D01*
X11406785Y-13642071D01*
X11392500Y-13670643D01*
X11378214Y-13684929D01*
X11349643Y-13699214D01*
X11321071Y-13699214D01*
X11292500Y-13684929D01*
X11278214Y-13670643D01*
X11263928Y-13642071D01*
X11249643Y-13584929D01*
X11249643Y-13513500D01*
X11263928Y-13456357D01*
X11278214Y-13427786D01*
X11292500Y-13413500D01*
X11321071Y-13399214D01*
X11535357Y-13427786D02*
X11549643Y-13413500D01*
X11578214Y-13399214D01*
X11649643Y-13399214D01*
X11678214Y-13413500D01*
X11692500Y-13427786D01*
X11706785Y-13456357D01*
X11706785Y-13484929D01*
X11692500Y-13527786D01*
X11521071Y-13699214D01*
X11706785Y-13699214D01*
X11892500Y-13399214D02*
X11921071Y-13399214D01*
X11949643Y-13413500D01*
X11963928Y-13427786D01*
X11978214Y-13456357D01*
X11992500Y-13513500D01*
X11992500Y-13584929D01*
X11978214Y-13642071D01*
X11963928Y-13670643D01*
X11949643Y-13684929D01*
X11921071Y-13699214D01*
X11892500Y-13699214D01*
X11863928Y-13684929D01*
X11849643Y-13670643D01*
X11835357Y-13642071D01*
X11821071Y-13584929D01*
X11821071Y-13513500D01*
X11835357Y-13456357D01*
X11849643Y-13427786D01*
X11863928Y-13413500D01*
X11892500Y-13399214D01*
X12106786Y-13399214D02*
X12106786Y-13456357D01*
X12221071Y-13399214D02*
X12221071Y-13456357D01*
X12663928Y-13813500D02*
X12649643Y-13799214D01*
X12621071Y-13756357D01*
X12606785Y-13727786D01*
X12592500Y-13684929D01*
X12578214Y-13613500D01*
X12578214Y-13556357D01*
X12592500Y-13484929D01*
X12606785Y-13442071D01*
X12621071Y-13413500D01*
X12649643Y-13370643D01*
X12663928Y-13356357D01*
X12935357Y-13699214D02*
X12763928Y-13699214D01*
X12849643Y-13699214D02*
X12849643Y-13399214D01*
X12821071Y-13442071D01*
X12792500Y-13470643D01*
X12763928Y-13484929D01*
X13192500Y-13499214D02*
X13192500Y-13699214D01*
X13121071Y-13384929D02*
X13049643Y-13599214D01*
X13235357Y-13599214D01*
X13578214Y-13699214D02*
X13578214Y-13399214D01*
X13706785Y-13699214D02*
X13706785Y-13542071D01*
X13692500Y-13513500D01*
X13663928Y-13499214D01*
X13621071Y-13499214D01*
X13592500Y-13513500D01*
X13578214Y-13527786D01*
X13892500Y-13699214D02*
X13863928Y-13684929D01*
X13849643Y-13670643D01*
X13835357Y-13642071D01*
X13835357Y-13556357D01*
X13849643Y-13527786D01*
X13863928Y-13513500D01*
X13892500Y-13499214D01*
X13935357Y-13499214D01*
X13963928Y-13513500D01*
X13978214Y-13527786D01*
X13992500Y-13556357D01*
X13992500Y-13642071D01*
X13978214Y-13670643D01*
X13963928Y-13684929D01*
X13935357Y-13699214D01*
X13892500Y-13699214D01*
X14163928Y-13699214D02*
X14135357Y-13684929D01*
X14121071Y-13656357D01*
X14121071Y-13399214D01*
X14392500Y-13684929D02*
X14363928Y-13699214D01*
X14306786Y-13699214D01*
X14278214Y-13684929D01*
X14263928Y-13656357D01*
X14263928Y-13542071D01*
X14278214Y-13513500D01*
X14306786Y-13499214D01*
X14363928Y-13499214D01*
X14392500Y-13513500D01*
X14406786Y-13542071D01*
X14406786Y-13570643D01*
X14263928Y-13599214D01*
X14521071Y-13684929D02*
X14549643Y-13699214D01*
X14606786Y-13699214D01*
X14635357Y-13684929D01*
X14649643Y-13656357D01*
X14649643Y-13642071D01*
X14635357Y-13613500D01*
X14606786Y-13599214D01*
X14563928Y-13599214D01*
X14535357Y-13584929D01*
X14521071Y-13556357D01*
X14521071Y-13542071D01*
X14535357Y-13513500D01*
X14563928Y-13499214D01*
X14606786Y-13499214D01*
X14635357Y-13513500D01*
X14749643Y-13813500D02*
X14763928Y-13799214D01*
X14792500Y-13756357D01*
X14806786Y-13727786D01*
X14821071Y-13684929D01*
X14835357Y-13613500D01*
X14835357Y-13556357D01*
X14821071Y-13484929D01*
X14806786Y-13442071D01*
X14792500Y-13413500D01*
X14763928Y-13370643D01*
X14749643Y-13356357D01*
X7952500Y-13919500D02*
X7952500Y-13999500D01*
X7912500Y-13959500D02*
X7992500Y-13959500D01*
X8321071Y-13795214D02*
X8349643Y-13795214D01*
X8378214Y-13809500D01*
X8392500Y-13823786D01*
X8406786Y-13852357D01*
X8421071Y-13909500D01*
X8421071Y-13980929D01*
X8406786Y-14038071D01*
X8392500Y-14066643D01*
X8378214Y-14080929D01*
X8349643Y-14095214D01*
X8321071Y-14095214D01*
X8292500Y-14080929D01*
X8278214Y-14066643D01*
X8263928Y-14038071D01*
X8249643Y-13980929D01*
X8249643Y-13909500D01*
X8263928Y-13852357D01*
X8278214Y-13823786D01*
X8292500Y-13809500D01*
X8321071Y-13795214D01*
X8549643Y-14066643D02*
X8563929Y-14080929D01*
X8549643Y-14095214D01*
X8535357Y-14080929D01*
X8549643Y-14066643D01*
X8549643Y-14095214D01*
X8735357Y-13923786D02*
X8706786Y-13909500D01*
X8692500Y-13895214D01*
X8678214Y-13866643D01*
X8678214Y-13852357D01*
X8692500Y-13823786D01*
X8706786Y-13809500D01*
X8735357Y-13795214D01*
X8792500Y-13795214D01*
X8821071Y-13809500D01*
X8835357Y-13823786D01*
X8849643Y-13852357D01*
X8849643Y-13866643D01*
X8835357Y-13895214D01*
X8821071Y-13909500D01*
X8792500Y-13923786D01*
X8735357Y-13923786D01*
X8706786Y-13938071D01*
X8692500Y-13952357D01*
X8678214Y-13980929D01*
X8678214Y-14038071D01*
X8692500Y-14066643D01*
X8706786Y-14080929D01*
X8735357Y-14095214D01*
X8792500Y-14095214D01*
X8821071Y-14080929D01*
X8835357Y-14066643D01*
X8849643Y-14038071D01*
X8849643Y-13980929D01*
X8835357Y-13952357D01*
X8821071Y-13938071D01*
X8792500Y-13923786D01*
X9035357Y-13795214D02*
X9063929Y-13795214D01*
X9092500Y-13809500D01*
X9106786Y-13823786D01*
X9121071Y-13852357D01*
X9135357Y-13909500D01*
X9135357Y-13980929D01*
X9121071Y-14038071D01*
X9106786Y-14066643D01*
X9092500Y-14080929D01*
X9063929Y-14095214D01*
X9035357Y-14095214D01*
X9006786Y-14080929D01*
X8992500Y-14066643D01*
X8978214Y-14038071D01*
X8963929Y-13980929D01*
X8963929Y-13909500D01*
X8978214Y-13852357D01*
X8992500Y-13823786D01*
X9006786Y-13809500D01*
X9035357Y-13795214D01*
X9263929Y-14095214D02*
X9263929Y-13895214D01*
X9263929Y-13923786D02*
X9278214Y-13909500D01*
X9306786Y-13895214D01*
X9349643Y-13895214D01*
X9378214Y-13909500D01*
X9392500Y-13938071D01*
X9392500Y-14095214D01*
X9392500Y-13938071D02*
X9406786Y-13909500D01*
X9435357Y-13895214D01*
X9478214Y-13895214D01*
X9506786Y-13909500D01*
X9521071Y-13938071D01*
X9521071Y-14095214D01*
X9663929Y-14095214D02*
X9663929Y-13895214D01*
X9663929Y-13923786D02*
X9678214Y-13909500D01*
X9706786Y-13895214D01*
X9749643Y-13895214D01*
X9778214Y-13909500D01*
X9792500Y-13938071D01*
X9792500Y-14095214D01*
X9792500Y-13938071D02*
X9806786Y-13909500D01*
X9835357Y-13895214D01*
X9878214Y-13895214D01*
X9906786Y-13909500D01*
X9921071Y-13938071D01*
X9921071Y-14095214D01*
X10506786Y-13780929D02*
X10249643Y-14166643D01*
X10892500Y-13795214D02*
X10921071Y-13795214D01*
X10949643Y-13809500D01*
X10963928Y-13823786D01*
X10978214Y-13852357D01*
X10992500Y-13909500D01*
X10992500Y-13980929D01*
X10978214Y-14038071D01*
X10963928Y-14066643D01*
X10949643Y-14080929D01*
X10921071Y-14095214D01*
X10892500Y-14095214D01*
X10863928Y-14080929D01*
X10849643Y-14066643D01*
X10835357Y-14038071D01*
X10821071Y-13980929D01*
X10821071Y-13909500D01*
X10835357Y-13852357D01*
X10849643Y-13823786D01*
X10863928Y-13809500D01*
X10892500Y-13795214D01*
X11121071Y-14066643D02*
X11135357Y-14080929D01*
X11121071Y-14095214D01*
X11106786Y-14080929D01*
X11121071Y-14066643D01*
X11121071Y-14095214D01*
X11321071Y-13795214D02*
X11349643Y-13795214D01*
X11378214Y-13809500D01*
X11392500Y-13823786D01*
X11406785Y-13852357D01*
X11421071Y-13909500D01*
X11421071Y-13980929D01*
X11406785Y-14038071D01*
X11392500Y-14066643D01*
X11378214Y-14080929D01*
X11349643Y-14095214D01*
X11321071Y-14095214D01*
X11292500Y-14080929D01*
X11278214Y-14066643D01*
X11263928Y-14038071D01*
X11249643Y-13980929D01*
X11249643Y-13909500D01*
X11263928Y-13852357D01*
X11278214Y-13823786D01*
X11292500Y-13809500D01*
X11321071Y-13795214D01*
X11521071Y-13795214D02*
X11706785Y-13795214D01*
X11606785Y-13909500D01*
X11649643Y-13909500D01*
X11678214Y-13923786D01*
X11692500Y-13938071D01*
X11706785Y-13966643D01*
X11706785Y-14038071D01*
X11692500Y-14066643D01*
X11678214Y-14080929D01*
X11649643Y-14095214D01*
X11563928Y-14095214D01*
X11535357Y-14080929D01*
X11521071Y-14066643D01*
X11992500Y-14095214D02*
X11821071Y-14095214D01*
X11906785Y-14095214D02*
X11906785Y-13795214D01*
X11878214Y-13838071D01*
X11849643Y-13866643D01*
X11821071Y-13880929D01*
X12106786Y-13795214D02*
X12106786Y-13852357D01*
X12221071Y-13795214D02*
X12221071Y-13852357D01*
X12663928Y-14209500D02*
X12649643Y-14195214D01*
X12621071Y-14152357D01*
X12606785Y-14123786D01*
X12592500Y-14080929D01*
X12578214Y-14009500D01*
X12578214Y-13952357D01*
X12592500Y-13880929D01*
X12606785Y-13838071D01*
X12621071Y-13809500D01*
X12649643Y-13766643D01*
X12663928Y-13752357D01*
X12921071Y-13795214D02*
X12778214Y-13795214D01*
X12763928Y-13938071D01*
X12778214Y-13923786D01*
X12806785Y-13909500D01*
X12878214Y-13909500D01*
X12906785Y-13923786D01*
X12921071Y-13938071D01*
X12935357Y-13966643D01*
X12935357Y-14038071D01*
X12921071Y-14066643D01*
X12906785Y-14080929D01*
X12878214Y-14095214D01*
X12806785Y-14095214D01*
X12778214Y-14080929D01*
X12763928Y-14066643D01*
X13121071Y-13795214D02*
X13149643Y-13795214D01*
X13178214Y-13809500D01*
X13192500Y-13823786D01*
X13206785Y-13852357D01*
X13221071Y-13909500D01*
X13221071Y-13980929D01*
X13206785Y-14038071D01*
X13192500Y-14066643D01*
X13178214Y-14080929D01*
X13149643Y-14095214D01*
X13121071Y-14095214D01*
X13092500Y-14080929D01*
X13078214Y-14066643D01*
X13063928Y-14038071D01*
X13049643Y-13980929D01*
X13049643Y-13909500D01*
X13063928Y-13852357D01*
X13078214Y-13823786D01*
X13092500Y-13809500D01*
X13121071Y-13795214D01*
X13406785Y-13795214D02*
X13435357Y-13795214D01*
X13463928Y-13809500D01*
X13478214Y-13823786D01*
X13492500Y-13852357D01*
X13506785Y-13909500D01*
X13506785Y-13980929D01*
X13492500Y-14038071D01*
X13478214Y-14066643D01*
X13463928Y-14080929D01*
X13435357Y-14095214D01*
X13406785Y-14095214D01*
X13378214Y-14080929D01*
X13363928Y-14066643D01*
X13349643Y-14038071D01*
X13335357Y-13980929D01*
X13335357Y-13909500D01*
X13349643Y-13852357D01*
X13363928Y-13823786D01*
X13378214Y-13809500D01*
X13406785Y-13795214D01*
X13863928Y-14095214D02*
X13863928Y-13795214D01*
X13992500Y-14095214D02*
X13992500Y-13938071D01*
X13978214Y-13909500D01*
X13949643Y-13895214D01*
X13906785Y-13895214D01*
X13878214Y-13909500D01*
X13863928Y-13923786D01*
X14178214Y-14095214D02*
X14149643Y-14080929D01*
X14135357Y-14066643D01*
X14121071Y-14038071D01*
X14121071Y-13952357D01*
X14135357Y-13923786D01*
X14149643Y-13909500D01*
X14178214Y-13895214D01*
X14221071Y-13895214D01*
X14249643Y-13909500D01*
X14263928Y-13923786D01*
X14278214Y-13952357D01*
X14278214Y-14038071D01*
X14263928Y-14066643D01*
X14249643Y-14080929D01*
X14221071Y-14095214D01*
X14178214Y-14095214D01*
X14449643Y-14095214D02*
X14421071Y-14080929D01*
X14406786Y-14052357D01*
X14406786Y-13795214D01*
X14678214Y-14080929D02*
X14649643Y-14095214D01*
X14592500Y-14095214D01*
X14563928Y-14080929D01*
X14549643Y-14052357D01*
X14549643Y-13938071D01*
X14563928Y-13909500D01*
X14592500Y-13895214D01*
X14649643Y-13895214D01*
X14678214Y-13909500D01*
X14692500Y-13938071D01*
X14692500Y-13966643D01*
X14549643Y-13995214D01*
X14806786Y-14080929D02*
X14835357Y-14095214D01*
X14892500Y-14095214D01*
X14921071Y-14080929D01*
X14935357Y-14052357D01*
X14935357Y-14038071D01*
X14921071Y-14009500D01*
X14892500Y-13995214D01*
X14849643Y-13995214D01*
X14821071Y-13980929D01*
X14806786Y-13952357D01*
X14806786Y-13938071D01*
X14821071Y-13909500D01*
X14849643Y-13895214D01*
X14892500Y-13895214D01*
X14921071Y-13909500D01*
X15035357Y-14209500D02*
X15049643Y-14195214D01*
X15078214Y-14152357D01*
X15092500Y-14123786D01*
X15106786Y-14080929D01*
X15121071Y-14009500D01*
X15121071Y-13952357D01*
X15106786Y-13880929D01*
X15092500Y-13838071D01*
X15078214Y-13809500D01*
X15049643Y-13766643D01*
X15035357Y-13752357D01*
X7977621Y-14391421D02*
X7977621Y-14319579D01*
X7905778Y-14319579D01*
X7905778Y-14391421D01*
X7977621Y-14391421D01*
X8421071Y-14491214D02*
X8249643Y-14491214D01*
X8335357Y-14491214D02*
X8335357Y-14191214D01*
X8306786Y-14234071D01*
X8278214Y-14262643D01*
X8249643Y-14276929D01*
X8549643Y-14462643D02*
X8563929Y-14476929D01*
X8549643Y-14491214D01*
X8535357Y-14476929D01*
X8549643Y-14462643D01*
X8549643Y-14491214D01*
X8749643Y-14191214D02*
X8778214Y-14191214D01*
X8806786Y-14205500D01*
X8821071Y-14219786D01*
X8835357Y-14248357D01*
X8849643Y-14305500D01*
X8849643Y-14376929D01*
X8835357Y-14434071D01*
X8821071Y-14462643D01*
X8806786Y-14476929D01*
X8778214Y-14491214D01*
X8749643Y-14491214D01*
X8721071Y-14476929D01*
X8706786Y-14462643D01*
X8692500Y-14434071D01*
X8678214Y-14376929D01*
X8678214Y-14305500D01*
X8692500Y-14248357D01*
X8706786Y-14219786D01*
X8721071Y-14205500D01*
X8749643Y-14191214D01*
X8963929Y-14219786D02*
X8978214Y-14205500D01*
X9006786Y-14191214D01*
X9078214Y-14191214D01*
X9106786Y-14205500D01*
X9121071Y-14219786D01*
X9135357Y-14248357D01*
X9135357Y-14276929D01*
X9121071Y-14319786D01*
X8949643Y-14491214D01*
X9135357Y-14491214D01*
X9263929Y-14491214D02*
X9263929Y-14291214D01*
X9263929Y-14319786D02*
X9278214Y-14305500D01*
X9306786Y-14291214D01*
X9349643Y-14291214D01*
X9378214Y-14305500D01*
X9392500Y-14334071D01*
X9392500Y-14491214D01*
X9392500Y-14334071D02*
X9406786Y-14305500D01*
X9435357Y-14291214D01*
X9478214Y-14291214D01*
X9506786Y-14305500D01*
X9521071Y-14334071D01*
X9521071Y-14491214D01*
X9663929Y-14491214D02*
X9663929Y-14291214D01*
X9663929Y-14319786D02*
X9678214Y-14305500D01*
X9706786Y-14291214D01*
X9749643Y-14291214D01*
X9778214Y-14305500D01*
X9792500Y-14334071D01*
X9792500Y-14491214D01*
X9792500Y-14334071D02*
X9806786Y-14305500D01*
X9835357Y-14291214D01*
X9878214Y-14291214D01*
X9906786Y-14305500D01*
X9921071Y-14334071D01*
X9921071Y-14491214D01*
X10506786Y-14176929D02*
X10249643Y-14562643D01*
X10892500Y-14191214D02*
X10921071Y-14191214D01*
X10949643Y-14205500D01*
X10963928Y-14219786D01*
X10978214Y-14248357D01*
X10992500Y-14305500D01*
X10992500Y-14376929D01*
X10978214Y-14434071D01*
X10963928Y-14462643D01*
X10949643Y-14476929D01*
X10921071Y-14491214D01*
X10892500Y-14491214D01*
X10863928Y-14476929D01*
X10849643Y-14462643D01*
X10835357Y-14434071D01*
X10821071Y-14376929D01*
X10821071Y-14305500D01*
X10835357Y-14248357D01*
X10849643Y-14219786D01*
X10863928Y-14205500D01*
X10892500Y-14191214D01*
X11121071Y-14462643D02*
X11135357Y-14476929D01*
X11121071Y-14491214D01*
X11106786Y-14476929D01*
X11121071Y-14462643D01*
X11121071Y-14491214D01*
X11321071Y-14191214D02*
X11349643Y-14191214D01*
X11378214Y-14205500D01*
X11392500Y-14219786D01*
X11406785Y-14248357D01*
X11421071Y-14305500D01*
X11421071Y-14376929D01*
X11406785Y-14434071D01*
X11392500Y-14462643D01*
X11378214Y-14476929D01*
X11349643Y-14491214D01*
X11321071Y-14491214D01*
X11292500Y-14476929D01*
X11278214Y-14462643D01*
X11263928Y-14434071D01*
X11249643Y-14376929D01*
X11249643Y-14305500D01*
X11263928Y-14248357D01*
X11278214Y-14219786D01*
X11292500Y-14205500D01*
X11321071Y-14191214D01*
X11678214Y-14291214D02*
X11678214Y-14491214D01*
X11606785Y-14176929D02*
X11535357Y-14391214D01*
X11721071Y-14391214D01*
X11892500Y-14191214D02*
X11921071Y-14191214D01*
X11949643Y-14205500D01*
X11963928Y-14219786D01*
X11978214Y-14248357D01*
X11992500Y-14305500D01*
X11992500Y-14376929D01*
X11978214Y-14434071D01*
X11963928Y-14462643D01*
X11949643Y-14476929D01*
X11921071Y-14491214D01*
X11892500Y-14491214D01*
X11863928Y-14476929D01*
X11849643Y-14462643D01*
X11835357Y-14434071D01*
X11821071Y-14376929D01*
X11821071Y-14305500D01*
X11835357Y-14248357D01*
X11849643Y-14219786D01*
X11863928Y-14205500D01*
X11892500Y-14191214D01*
X12106786Y-14191214D02*
X12106786Y-14248357D01*
X12221071Y-14191214D02*
X12221071Y-14248357D01*
X12663928Y-14605500D02*
X12649643Y-14591214D01*
X12621071Y-14548357D01*
X12606785Y-14519786D01*
X12592500Y-14476929D01*
X12578214Y-14405500D01*
X12578214Y-14348357D01*
X12592500Y-14276929D01*
X12606785Y-14234071D01*
X12621071Y-14205500D01*
X12649643Y-14162643D01*
X12663928Y-14148357D01*
X12821071Y-14319786D02*
X12792500Y-14305500D01*
X12778214Y-14291214D01*
X12763928Y-14262643D01*
X12763928Y-14248357D01*
X12778214Y-14219786D01*
X12792500Y-14205500D01*
X12821071Y-14191214D01*
X12878214Y-14191214D01*
X12906785Y-14205500D01*
X12921071Y-14219786D01*
X12935357Y-14248357D01*
X12935357Y-14262643D01*
X12921071Y-14291214D01*
X12906785Y-14305500D01*
X12878214Y-14319786D01*
X12821071Y-14319786D01*
X12792500Y-14334071D01*
X12778214Y-14348357D01*
X12763928Y-14376929D01*
X12763928Y-14434071D01*
X12778214Y-14462643D01*
X12792500Y-14476929D01*
X12821071Y-14491214D01*
X12878214Y-14491214D01*
X12906785Y-14476929D01*
X12921071Y-14462643D01*
X12935357Y-14434071D01*
X12935357Y-14376929D01*
X12921071Y-14348357D01*
X12906785Y-14334071D01*
X12878214Y-14319786D01*
X13206785Y-14191214D02*
X13063928Y-14191214D01*
X13049643Y-14334071D01*
X13063928Y-14319786D01*
X13092500Y-14305500D01*
X13163928Y-14305500D01*
X13192500Y-14319786D01*
X13206785Y-14334071D01*
X13221071Y-14362643D01*
X13221071Y-14434071D01*
X13206785Y-14462643D01*
X13192500Y-14476929D01*
X13163928Y-14491214D01*
X13092500Y-14491214D01*
X13063928Y-14476929D01*
X13049643Y-14462643D01*
X13578214Y-14491214D02*
X13578214Y-14191214D01*
X13706785Y-14491214D02*
X13706785Y-14334071D01*
X13692500Y-14305500D01*
X13663928Y-14291214D01*
X13621071Y-14291214D01*
X13592500Y-14305500D01*
X13578214Y-14319786D01*
X13892500Y-14491214D02*
X13863928Y-14476929D01*
X13849643Y-14462643D01*
X13835357Y-14434071D01*
X13835357Y-14348357D01*
X13849643Y-14319786D01*
X13863928Y-14305500D01*
X13892500Y-14291214D01*
X13935357Y-14291214D01*
X13963928Y-14305500D01*
X13978214Y-14319786D01*
X13992500Y-14348357D01*
X13992500Y-14434071D01*
X13978214Y-14462643D01*
X13963928Y-14476929D01*
X13935357Y-14491214D01*
X13892500Y-14491214D01*
X14163928Y-14491214D02*
X14135357Y-14476929D01*
X14121071Y-14448357D01*
X14121071Y-14191214D01*
X14392500Y-14476929D02*
X14363928Y-14491214D01*
X14306786Y-14491214D01*
X14278214Y-14476929D01*
X14263928Y-14448357D01*
X14263928Y-14334071D01*
X14278214Y-14305500D01*
X14306786Y-14291214D01*
X14363928Y-14291214D01*
X14392500Y-14305500D01*
X14406786Y-14334071D01*
X14406786Y-14362643D01*
X14263928Y-14391214D01*
X14521071Y-14476929D02*
X14549643Y-14491214D01*
X14606786Y-14491214D01*
X14635357Y-14476929D01*
X14649643Y-14448357D01*
X14649643Y-14434071D01*
X14635357Y-14405500D01*
X14606786Y-14391214D01*
X14563928Y-14391214D01*
X14535357Y-14376929D01*
X14521071Y-14348357D01*
X14521071Y-14334071D01*
X14535357Y-14305500D01*
X14563928Y-14291214D01*
X14606786Y-14291214D01*
X14635357Y-14305500D01*
X14749643Y-14605500D02*
X14763928Y-14591214D01*
X14792500Y-14548357D01*
X14806786Y-14519786D01*
X14821071Y-14476929D01*
X14835357Y-14405500D01*
X14835357Y-14348357D01*
X14821071Y-14276929D01*
X14806786Y-14234071D01*
X14792500Y-14205500D01*
X14763928Y-14162643D01*
X14749643Y-14148357D01*
X7902457Y-14841543D02*
X7992500Y-14751500D01*
X7902457Y-14661457D01*
X7812414Y-14751500D01*
X7902457Y-14841543D01*
X8421071Y-14887214D02*
X8249643Y-14887214D01*
X8335357Y-14887214D02*
X8335357Y-14587214D01*
X8306786Y-14630071D01*
X8278214Y-14658643D01*
X8249643Y-14672929D01*
X8549643Y-14858643D02*
X8563929Y-14872929D01*
X8549643Y-14887214D01*
X8535357Y-14872929D01*
X8549643Y-14858643D01*
X8549643Y-14887214D01*
X8735357Y-14715786D02*
X8706786Y-14701500D01*
X8692500Y-14687214D01*
X8678214Y-14658643D01*
X8678214Y-14644357D01*
X8692500Y-14615786D01*
X8706786Y-14601500D01*
X8735357Y-14587214D01*
X8792500Y-14587214D01*
X8821071Y-14601500D01*
X8835357Y-14615786D01*
X8849643Y-14644357D01*
X8849643Y-14658643D01*
X8835357Y-14687214D01*
X8821071Y-14701500D01*
X8792500Y-14715786D01*
X8735357Y-14715786D01*
X8706786Y-14730071D01*
X8692500Y-14744357D01*
X8678214Y-14772929D01*
X8678214Y-14830071D01*
X8692500Y-14858643D01*
X8706786Y-14872929D01*
X8735357Y-14887214D01*
X8792500Y-14887214D01*
X8821071Y-14872929D01*
X8835357Y-14858643D01*
X8849643Y-14830071D01*
X8849643Y-14772929D01*
X8835357Y-14744357D01*
X8821071Y-14730071D01*
X8792500Y-14715786D01*
X9035357Y-14587214D02*
X9063929Y-14587214D01*
X9092500Y-14601500D01*
X9106786Y-14615786D01*
X9121071Y-14644357D01*
X9135357Y-14701500D01*
X9135357Y-14772929D01*
X9121071Y-14830071D01*
X9106786Y-14858643D01*
X9092500Y-14872929D01*
X9063929Y-14887214D01*
X9035357Y-14887214D01*
X9006786Y-14872929D01*
X8992500Y-14858643D01*
X8978214Y-14830071D01*
X8963929Y-14772929D01*
X8963929Y-14701500D01*
X8978214Y-14644357D01*
X8992500Y-14615786D01*
X9006786Y-14601500D01*
X9035357Y-14587214D01*
X9263929Y-14887214D02*
X9263929Y-14687214D01*
X9263929Y-14715786D02*
X9278214Y-14701500D01*
X9306786Y-14687214D01*
X9349643Y-14687214D01*
X9378214Y-14701500D01*
X9392500Y-14730071D01*
X9392500Y-14887214D01*
X9392500Y-14730071D02*
X9406786Y-14701500D01*
X9435357Y-14687214D01*
X9478214Y-14687214D01*
X9506786Y-14701500D01*
X9521071Y-14730071D01*
X9521071Y-14887214D01*
X9663929Y-14887214D02*
X9663929Y-14687214D01*
X9663929Y-14715786D02*
X9678214Y-14701500D01*
X9706786Y-14687214D01*
X9749643Y-14687214D01*
X9778214Y-14701500D01*
X9792500Y-14730071D01*
X9792500Y-14887214D01*
X9792500Y-14730071D02*
X9806786Y-14701500D01*
X9835357Y-14687214D01*
X9878214Y-14687214D01*
X9906786Y-14701500D01*
X9921071Y-14730071D01*
X9921071Y-14887214D01*
X10506786Y-14572929D02*
X10249643Y-14958643D01*
X10892500Y-14587214D02*
X10921071Y-14587214D01*
X10949643Y-14601500D01*
X10963928Y-14615786D01*
X10978214Y-14644357D01*
X10992500Y-14701500D01*
X10992500Y-14772929D01*
X10978214Y-14830071D01*
X10963928Y-14858643D01*
X10949643Y-14872929D01*
X10921071Y-14887214D01*
X10892500Y-14887214D01*
X10863928Y-14872929D01*
X10849643Y-14858643D01*
X10835357Y-14830071D01*
X10821071Y-14772929D01*
X10821071Y-14701500D01*
X10835357Y-14644357D01*
X10849643Y-14615786D01*
X10863928Y-14601500D01*
X10892500Y-14587214D01*
X11121071Y-14858643D02*
X11135357Y-14872929D01*
X11121071Y-14887214D01*
X11106786Y-14872929D01*
X11121071Y-14858643D01*
X11121071Y-14887214D01*
X11321071Y-14587214D02*
X11349643Y-14587214D01*
X11378214Y-14601500D01*
X11392500Y-14615786D01*
X11406785Y-14644357D01*
X11421071Y-14701500D01*
X11421071Y-14772929D01*
X11406785Y-14830071D01*
X11392500Y-14858643D01*
X11378214Y-14872929D01*
X11349643Y-14887214D01*
X11321071Y-14887214D01*
X11292500Y-14872929D01*
X11278214Y-14858643D01*
X11263928Y-14830071D01*
X11249643Y-14772929D01*
X11249643Y-14701500D01*
X11263928Y-14644357D01*
X11278214Y-14615786D01*
X11292500Y-14601500D01*
X11321071Y-14587214D01*
X11521071Y-14587214D02*
X11721071Y-14587214D01*
X11592500Y-14887214D01*
X11992500Y-14887214D02*
X11821071Y-14887214D01*
X11906785Y-14887214D02*
X11906785Y-14587214D01*
X11878214Y-14630071D01*
X11849643Y-14658643D01*
X11821071Y-14672929D01*
X12106786Y-14587214D02*
X12106786Y-14644357D01*
X12221071Y-14587214D02*
X12221071Y-14644357D01*
X12663928Y-15001500D02*
X12649643Y-14987214D01*
X12621071Y-14944357D01*
X12606785Y-14915786D01*
X12592500Y-14872929D01*
X12578214Y-14801500D01*
X12578214Y-14744357D01*
X12592500Y-14672929D01*
X12606785Y-14630071D01*
X12621071Y-14601500D01*
X12649643Y-14558643D01*
X12663928Y-14544357D01*
X12821071Y-14715786D02*
X12792500Y-14701500D01*
X12778214Y-14687214D01*
X12763928Y-14658643D01*
X12763928Y-14644357D01*
X12778214Y-14615786D01*
X12792500Y-14601500D01*
X12821071Y-14587214D01*
X12878214Y-14587214D01*
X12906785Y-14601500D01*
X12921071Y-14615786D01*
X12935357Y-14644357D01*
X12935357Y-14658643D01*
X12921071Y-14687214D01*
X12906785Y-14701500D01*
X12878214Y-14715786D01*
X12821071Y-14715786D01*
X12792500Y-14730071D01*
X12778214Y-14744357D01*
X12763928Y-14772929D01*
X12763928Y-14830071D01*
X12778214Y-14858643D01*
X12792500Y-14872929D01*
X12821071Y-14887214D01*
X12878214Y-14887214D01*
X12906785Y-14872929D01*
X12921071Y-14858643D01*
X12935357Y-14830071D01*
X12935357Y-14772929D01*
X12921071Y-14744357D01*
X12906785Y-14730071D01*
X12878214Y-14715786D01*
X13292500Y-14887214D02*
X13292500Y-14587214D01*
X13421071Y-14887214D02*
X13421071Y-14730071D01*
X13406785Y-14701500D01*
X13378214Y-14687214D01*
X13335357Y-14687214D01*
X13306785Y-14701500D01*
X13292500Y-14715786D01*
X13606785Y-14887214D02*
X13578214Y-14872929D01*
X13563928Y-14858643D01*
X13549643Y-14830071D01*
X13549643Y-14744357D01*
X13563928Y-14715786D01*
X13578214Y-14701500D01*
X13606785Y-14687214D01*
X13649643Y-14687214D01*
X13678214Y-14701500D01*
X13692500Y-14715786D01*
X13706785Y-14744357D01*
X13706785Y-14830071D01*
X13692500Y-14858643D01*
X13678214Y-14872929D01*
X13649643Y-14887214D01*
X13606785Y-14887214D01*
X13878214Y-14887214D02*
X13849643Y-14872929D01*
X13835357Y-14844357D01*
X13835357Y-14587214D01*
X14106786Y-14872929D02*
X14078214Y-14887214D01*
X14021071Y-14887214D01*
X13992500Y-14872929D01*
X13978214Y-14844357D01*
X13978214Y-14730071D01*
X13992500Y-14701500D01*
X14021071Y-14687214D01*
X14078214Y-14687214D01*
X14106786Y-14701500D01*
X14121071Y-14730071D01*
X14121071Y-14758643D01*
X13978214Y-14787214D01*
X14235357Y-14872929D02*
X14263928Y-14887214D01*
X14321071Y-14887214D01*
X14349643Y-14872929D01*
X14363928Y-14844357D01*
X14363928Y-14830071D01*
X14349643Y-14801500D01*
X14321071Y-14787214D01*
X14278214Y-14787214D01*
X14249643Y-14772929D01*
X14235357Y-14744357D01*
X14235357Y-14730071D01*
X14249643Y-14701500D01*
X14278214Y-14687214D01*
X14321071Y-14687214D01*
X14349643Y-14701500D01*
X14463928Y-15001500D02*
X14478214Y-14987214D01*
X14506786Y-14944357D01*
X14521071Y-14915786D01*
X14535357Y-14872929D01*
X14549643Y-14801500D01*
X14549643Y-14744357D01*
X14535357Y-14672929D01*
X14521071Y-14630071D01*
X14506786Y-14601500D01*
X14478214Y-14558643D01*
X14463928Y-14544357D01*
M02*
