G04 #@! TF.FileFunction,Other,Fab,Top*
%FSLAX46Y46*%
G04 Gerber Fmt 4.6, Leading zero omitted, Abs format (unit mm)*
G04 Created by KiCad (PCBNEW 4.0.6) date 10/04/17 00:49:36*
%MOMM*%
%LPD*%
G01*
G04 APERTURE LIST*
%ADD10C,0.100000*%
%ADD11C,0.150000*%
G04 APERTURE END LIST*
D10*
X144370000Y-61290000D02*
X142870000Y-61290000D01*
X142870000Y-61290000D02*
X142870000Y-63290000D01*
X142870000Y-63290000D02*
X144370000Y-63290000D01*
X144370000Y-63290000D02*
X144370000Y-61290000D01*
X143370000Y-61290000D02*
X142870000Y-61790000D01*
X147730000Y-42320000D02*
X147730000Y-37920000D01*
X148280000Y-37520000D02*
X150880000Y-37520000D01*
X151430000Y-37920000D02*
X151430000Y-42320000D01*
X150880000Y-42720000D02*
X148280000Y-42720000D01*
X150680000Y-40120000D02*
G75*
G03X150680000Y-40120000I-1100000J0D01*
G01*
D11*
X124020381Y-60379047D02*
X124020381Y-60855238D01*
X123020381Y-60855238D01*
X124020381Y-60045714D02*
X123020381Y-60045714D01*
X123020381Y-59807619D01*
X123068000Y-59664761D01*
X123163238Y-59569523D01*
X123258476Y-59521904D01*
X123448952Y-59474285D01*
X123591810Y-59474285D01*
X123782286Y-59521904D01*
X123877524Y-59569523D01*
X123972762Y-59664761D01*
X124020381Y-59807619D01*
X124020381Y-60045714D01*
X124020381Y-58521904D02*
X124020381Y-59093333D01*
X124020381Y-58807619D02*
X123020381Y-58807619D01*
X123163238Y-58902857D01*
X123258476Y-58998095D01*
X123306095Y-59093333D01*
X124020381Y-57569523D02*
X124020381Y-58140952D01*
X124020381Y-57855238D02*
X123020381Y-57855238D01*
X123163238Y-57950476D01*
X123258476Y-58045714D01*
X123306095Y-58140952D01*
X124020381Y-56617142D02*
X124020381Y-57188571D01*
X124020381Y-56902857D02*
X123020381Y-56902857D01*
X123163238Y-56998095D01*
X123258476Y-57093333D01*
X123306095Y-57188571D01*
X123020381Y-56283809D02*
X123020381Y-55617142D01*
X124020381Y-56045714D01*
X123972762Y-55283809D02*
X124020381Y-55140952D01*
X124020381Y-54902856D01*
X123972762Y-54807618D01*
X123925143Y-54759999D01*
X123829905Y-54712380D01*
X123734667Y-54712380D01*
X123639429Y-54759999D01*
X123591810Y-54807618D01*
X123544190Y-54902856D01*
X123496571Y-55093333D01*
X123448952Y-55188571D01*
X123401333Y-55236190D01*
X123306095Y-55283809D01*
X123210857Y-55283809D01*
X123115619Y-55236190D01*
X123068000Y-55188571D01*
X123020381Y-55093333D01*
X123020381Y-54855237D01*
X123068000Y-54712380D01*
X123020381Y-54379047D02*
X123020381Y-53759999D01*
X123401333Y-54093333D01*
X123401333Y-53950475D01*
X123448952Y-53855237D01*
X123496571Y-53807618D01*
X123591810Y-53759999D01*
X123829905Y-53759999D01*
X123925143Y-53807618D01*
X123972762Y-53855237D01*
X124020381Y-53950475D01*
X124020381Y-54236190D01*
X123972762Y-54331428D01*
X123925143Y-54379047D01*
X123020381Y-53426666D02*
X123020381Y-52807618D01*
X123401333Y-53140952D01*
X123401333Y-52998094D01*
X123448952Y-52902856D01*
X123496571Y-52855237D01*
X123591810Y-52807618D01*
X123829905Y-52807618D01*
X123925143Y-52855237D01*
X123972762Y-52902856D01*
X124020381Y-52998094D01*
X124020381Y-53283809D01*
X123972762Y-53379047D01*
X123925143Y-53426666D01*
X123020381Y-52521904D02*
X123020381Y-51950475D01*
X124020381Y-52236190D02*
X123020381Y-52236190D01*
X124020381Y-51045713D02*
X123544190Y-51379047D01*
X124020381Y-51617142D02*
X123020381Y-51617142D01*
X123020381Y-51236189D01*
X123068000Y-51140951D01*
X123115619Y-51093332D01*
X123210857Y-51045713D01*
X123353714Y-51045713D01*
X123448952Y-51093332D01*
X123496571Y-51140951D01*
X123544190Y-51236189D01*
X123544190Y-51617142D01*
X124115619Y-50855237D02*
X124115619Y-50093332D01*
X124020381Y-49855237D02*
X123020381Y-49855237D01*
X123734667Y-49521903D01*
X123020381Y-49188570D01*
X124020381Y-49188570D01*
X124020381Y-48712380D02*
X123020381Y-48712380D01*
X123020381Y-48045714D02*
X123020381Y-47855237D01*
X123068000Y-47759999D01*
X123163238Y-47664761D01*
X123353714Y-47617142D01*
X123687048Y-47617142D01*
X123877524Y-47664761D01*
X123972762Y-47759999D01*
X124020381Y-47855237D01*
X124020381Y-48045714D01*
X123972762Y-48140952D01*
X123877524Y-48236190D01*
X123687048Y-48283809D01*
X123353714Y-48283809D01*
X123163238Y-48236190D01*
X123068000Y-48140952D01*
X123020381Y-48045714D01*
X95352381Y-56832857D02*
X95352381Y-56737618D01*
X95400000Y-56642380D01*
X95447619Y-56594761D01*
X95542857Y-56547142D01*
X95733333Y-56499523D01*
X95971429Y-56499523D01*
X96161905Y-56547142D01*
X96257143Y-56594761D01*
X96304762Y-56642380D01*
X96352381Y-56737618D01*
X96352381Y-56832857D01*
X96304762Y-56928095D01*
X96257143Y-56975714D01*
X96161905Y-57023333D01*
X95971429Y-57070952D01*
X95733333Y-57070952D01*
X95542857Y-57023333D01*
X95447619Y-56975714D01*
X95400000Y-56928095D01*
X95352381Y-56832857D01*
X96257143Y-56070952D02*
X96304762Y-56023333D01*
X96352381Y-56070952D01*
X96304762Y-56118571D01*
X96257143Y-56070952D01*
X96352381Y-56070952D01*
X96352381Y-55070952D02*
X96352381Y-55642381D01*
X96352381Y-55356667D02*
X95352381Y-55356667D01*
X95495238Y-55451905D01*
X95590476Y-55547143D01*
X95638095Y-55642381D01*
X95685714Y-54213809D02*
X96352381Y-54213809D01*
X95685714Y-54642381D02*
X96209524Y-54642381D01*
X96304762Y-54594762D01*
X96352381Y-54499524D01*
X96352381Y-54356666D01*
X96304762Y-54261428D01*
X96257143Y-54213809D01*
X95828571Y-53404285D02*
X95828571Y-53737619D01*
X96352381Y-53737619D02*
X95352381Y-53737619D01*
X95352381Y-53261428D01*
X92572381Y-56241428D02*
X92572381Y-56812857D01*
X92572381Y-56527143D02*
X91572381Y-56527143D01*
X91715238Y-56622381D01*
X91810476Y-56717619D01*
X91858095Y-56812857D01*
X91572381Y-55622381D02*
X91572381Y-55527142D01*
X91620000Y-55431904D01*
X91667619Y-55384285D01*
X91762857Y-55336666D01*
X91953333Y-55289047D01*
X92191429Y-55289047D01*
X92381905Y-55336666D01*
X92477143Y-55384285D01*
X92524762Y-55431904D01*
X92572381Y-55527142D01*
X92572381Y-55622381D01*
X92524762Y-55717619D01*
X92477143Y-55765238D01*
X92381905Y-55812857D01*
X92191429Y-55860476D01*
X91953333Y-55860476D01*
X91762857Y-55812857D01*
X91667619Y-55765238D01*
X91620000Y-55717619D01*
X91572381Y-55622381D01*
X91905714Y-54431904D02*
X92572381Y-54431904D01*
X91905714Y-54860476D02*
X92429524Y-54860476D01*
X92524762Y-54812857D01*
X92572381Y-54717619D01*
X92572381Y-54574761D01*
X92524762Y-54479523D01*
X92477143Y-54431904D01*
X92048571Y-53622380D02*
X92048571Y-53955714D01*
X92572381Y-53955714D02*
X91572381Y-53955714D01*
X91572381Y-53479523D01*
X86932381Y-44378095D02*
X85932381Y-44378095D01*
X85932381Y-44140000D01*
X85980000Y-43997142D01*
X86075238Y-43901904D01*
X86170476Y-43854285D01*
X86360952Y-43806666D01*
X86503810Y-43806666D01*
X86694286Y-43854285D01*
X86789524Y-43901904D01*
X86884762Y-43997142D01*
X86932381Y-44140000D01*
X86932381Y-44378095D01*
X86027619Y-43425714D02*
X85980000Y-43378095D01*
X85932381Y-43282857D01*
X85932381Y-43044761D01*
X85980000Y-42949523D01*
X86027619Y-42901904D01*
X86122857Y-42854285D01*
X86218095Y-42854285D01*
X86360952Y-42901904D01*
X86932381Y-43473333D01*
X86932381Y-42854285D01*
X91002381Y-43864285D02*
X91002381Y-44435714D01*
X91002381Y-44150000D02*
X90002381Y-44150000D01*
X90145238Y-44245238D01*
X90240476Y-44340476D01*
X90288095Y-44435714D01*
X91002381Y-43435714D02*
X90002381Y-43435714D01*
X91002381Y-42864285D02*
X90430952Y-43292857D01*
X90002381Y-42864285D02*
X90573810Y-43435714D01*
X144054286Y-66136667D02*
X144530477Y-66136667D01*
X143959048Y-66422381D02*
X144292381Y-65422381D01*
X144625715Y-66422381D01*
X144816191Y-65422381D02*
X145387620Y-65422381D01*
X145101905Y-66422381D02*
X145101905Y-65422381D01*
X145720953Y-66422381D02*
X145720953Y-65422381D01*
X146054287Y-66136667D01*
X146387620Y-65422381D01*
X146387620Y-66422381D01*
X146863810Y-65898571D02*
X147197144Y-65898571D01*
X147340001Y-66422381D02*
X146863810Y-66422381D01*
X146863810Y-65422381D01*
X147340001Y-65422381D01*
X148292382Y-65470000D02*
X148197144Y-65422381D01*
X148054287Y-65422381D01*
X147911429Y-65470000D01*
X147816191Y-65565238D01*
X147768572Y-65660476D01*
X147720953Y-65850952D01*
X147720953Y-65993810D01*
X147768572Y-66184286D01*
X147816191Y-66279524D01*
X147911429Y-66374762D01*
X148054287Y-66422381D01*
X148149525Y-66422381D01*
X148292382Y-66374762D01*
X148340001Y-66327143D01*
X148340001Y-65993810D01*
X148149525Y-65993810D01*
X148720953Y-66136667D02*
X149197144Y-66136667D01*
X148625715Y-66422381D02*
X148959048Y-65422381D01*
X149292382Y-66422381D01*
X149530477Y-65422381D02*
X150149525Y-65422381D01*
X149816191Y-65803333D01*
X149959049Y-65803333D01*
X150054287Y-65850952D01*
X150101906Y-65898571D01*
X150149525Y-65993810D01*
X150149525Y-66231905D01*
X150101906Y-66327143D01*
X150054287Y-66374762D01*
X149959049Y-66422381D01*
X149673334Y-66422381D01*
X149578096Y-66374762D01*
X149530477Y-66327143D01*
X150530477Y-65517619D02*
X150578096Y-65470000D01*
X150673334Y-65422381D01*
X150911430Y-65422381D01*
X151006668Y-65470000D01*
X151054287Y-65517619D01*
X151101906Y-65612857D01*
X151101906Y-65708095D01*
X151054287Y-65850952D01*
X150482858Y-66422381D01*
X151101906Y-66422381D01*
X151673334Y-65850952D02*
X151578096Y-65803333D01*
X151530477Y-65755714D01*
X151482858Y-65660476D01*
X151482858Y-65612857D01*
X151530477Y-65517619D01*
X151578096Y-65470000D01*
X151673334Y-65422381D01*
X151863811Y-65422381D01*
X151959049Y-65470000D01*
X152006668Y-65517619D01*
X152054287Y-65612857D01*
X152054287Y-65660476D01*
X152006668Y-65755714D01*
X151959049Y-65803333D01*
X151863811Y-65850952D01*
X151673334Y-65850952D01*
X151578096Y-65898571D01*
X151530477Y-65946190D01*
X151482858Y-66041429D01*
X151482858Y-66231905D01*
X151530477Y-66327143D01*
X151578096Y-66374762D01*
X151673334Y-66422381D01*
X151863811Y-66422381D01*
X151959049Y-66374762D01*
X152006668Y-66327143D01*
X152054287Y-66231905D01*
X152054287Y-66041429D01*
X152006668Y-65946190D01*
X151959049Y-65898571D01*
X151863811Y-65850952D01*
X152482858Y-66422381D02*
X152482858Y-65422381D01*
X152863811Y-65422381D01*
X152959049Y-65470000D01*
X153006668Y-65517619D01*
X153054287Y-65612857D01*
X153054287Y-65755714D01*
X153006668Y-65850952D01*
X152959049Y-65898571D01*
X152863811Y-65946190D01*
X152482858Y-65946190D01*
X153482858Y-66041429D02*
X154244763Y-66041429D01*
X154673334Y-66136667D02*
X155149525Y-66136667D01*
X154578096Y-66422381D02*
X154911429Y-65422381D01*
X155244763Y-66422381D01*
X155578096Y-65422381D02*
X155578096Y-66231905D01*
X155625715Y-66327143D01*
X155673334Y-66374762D01*
X155768572Y-66422381D01*
X155959049Y-66422381D01*
X156054287Y-66374762D01*
X156101906Y-66327143D01*
X156149525Y-66231905D01*
X156149525Y-65422381D01*
X156387620Y-66517619D02*
X157149525Y-66517619D01*
X157387620Y-66422381D02*
X157387620Y-65422381D01*
X157720954Y-66136667D01*
X158054287Y-65422381D01*
X158054287Y-66422381D01*
X158530477Y-66422381D02*
X158530477Y-65422381D01*
X159197143Y-65422381D02*
X159387620Y-65422381D01*
X159482858Y-65470000D01*
X159578096Y-65565238D01*
X159625715Y-65755714D01*
X159625715Y-66089048D01*
X159578096Y-66279524D01*
X159482858Y-66374762D01*
X159387620Y-66422381D01*
X159197143Y-66422381D01*
X159101905Y-66374762D01*
X159006667Y-66279524D01*
X158959048Y-66089048D01*
X158959048Y-65755714D01*
X159006667Y-65565238D01*
X159101905Y-65470000D01*
X159197143Y-65422381D01*
X119932381Y-56102857D02*
X119932381Y-56007618D01*
X119980000Y-55912380D01*
X120027619Y-55864761D01*
X120122857Y-55817142D01*
X120313333Y-55769523D01*
X120551429Y-55769523D01*
X120741905Y-55817142D01*
X120837143Y-55864761D01*
X120884762Y-55912380D01*
X120932381Y-56007618D01*
X120932381Y-56102857D01*
X120884762Y-56198095D01*
X120837143Y-56245714D01*
X120741905Y-56293333D01*
X120551429Y-56340952D01*
X120313333Y-56340952D01*
X120122857Y-56293333D01*
X120027619Y-56245714D01*
X119980000Y-56198095D01*
X119932381Y-56102857D01*
X120837143Y-55340952D02*
X120884762Y-55293333D01*
X120932381Y-55340952D01*
X120884762Y-55388571D01*
X120837143Y-55340952D01*
X120932381Y-55340952D01*
X120932381Y-54340952D02*
X120932381Y-54912381D01*
X120932381Y-54626667D02*
X119932381Y-54626667D01*
X120075238Y-54721905D01*
X120170476Y-54817143D01*
X120218095Y-54912381D01*
X120265714Y-53483809D02*
X120932381Y-53483809D01*
X120265714Y-53912381D02*
X120789524Y-53912381D01*
X120884762Y-53864762D01*
X120932381Y-53769524D01*
X120932381Y-53626666D01*
X120884762Y-53531428D01*
X120837143Y-53483809D01*
X120408571Y-52674285D02*
X120408571Y-53007619D01*
X120932381Y-53007619D02*
X119932381Y-53007619D01*
X119932381Y-52531428D01*
X121378572Y-47912381D02*
X120807143Y-47912381D01*
X121092857Y-47912381D02*
X121092857Y-46912381D01*
X120997619Y-47055238D01*
X120902381Y-47150476D01*
X120807143Y-47198095D01*
X121997619Y-46912381D02*
X122092858Y-46912381D01*
X122188096Y-46960000D01*
X122235715Y-47007619D01*
X122283334Y-47102857D01*
X122330953Y-47293333D01*
X122330953Y-47531429D01*
X122283334Y-47721905D01*
X122235715Y-47817143D01*
X122188096Y-47864762D01*
X122092858Y-47912381D01*
X121997619Y-47912381D01*
X121902381Y-47864762D01*
X121854762Y-47817143D01*
X121807143Y-47721905D01*
X121759524Y-47531429D01*
X121759524Y-47293333D01*
X121807143Y-47102857D01*
X121854762Y-47007619D01*
X121902381Y-46960000D01*
X121997619Y-46912381D01*
X123188096Y-47245714D02*
X123188096Y-47912381D01*
X122759524Y-47245714D02*
X122759524Y-47769524D01*
X122807143Y-47864762D01*
X122902381Y-47912381D01*
X123045239Y-47912381D01*
X123140477Y-47864762D01*
X123188096Y-47817143D01*
X123997620Y-47388571D02*
X123664286Y-47388571D01*
X123664286Y-47912381D02*
X123664286Y-46912381D01*
X124140477Y-46912381D01*
X158751905Y-104922381D02*
X158751905Y-103922381D01*
X158990000Y-103922381D01*
X159132858Y-103970000D01*
X159228096Y-104065238D01*
X159275715Y-104160476D01*
X159323334Y-104350952D01*
X159323334Y-104493810D01*
X159275715Y-104684286D01*
X159228096Y-104779524D01*
X159132858Y-104874762D01*
X158990000Y-104922381D01*
X158751905Y-104922381D01*
X160275715Y-104922381D02*
X159704286Y-104922381D01*
X159990000Y-104922381D02*
X159990000Y-103922381D01*
X159894762Y-104065238D01*
X159799524Y-104160476D01*
X159704286Y-104208095D01*
X159345715Y-101032381D02*
X158774286Y-101032381D01*
X159060000Y-101032381D02*
X159060000Y-100032381D01*
X158964762Y-100175238D01*
X158869524Y-100270476D01*
X158774286Y-100318095D01*
X159774286Y-101032381D02*
X159774286Y-100032381D01*
X160345715Y-101032381D02*
X159917143Y-100460952D01*
X160345715Y-100032381D02*
X159774286Y-100603810D01*
X158567143Y-63492381D02*
X158662382Y-63492381D01*
X158757620Y-63540000D01*
X158805239Y-63587619D01*
X158852858Y-63682857D01*
X158900477Y-63873333D01*
X158900477Y-64111429D01*
X158852858Y-64301905D01*
X158805239Y-64397143D01*
X158757620Y-64444762D01*
X158662382Y-64492381D01*
X158567143Y-64492381D01*
X158471905Y-64444762D01*
X158424286Y-64397143D01*
X158376667Y-64301905D01*
X158329048Y-64111429D01*
X158329048Y-63873333D01*
X158376667Y-63682857D01*
X158424286Y-63587619D01*
X158471905Y-63540000D01*
X158567143Y-63492381D01*
X159329048Y-64397143D02*
X159376667Y-64444762D01*
X159329048Y-64492381D01*
X159281429Y-64444762D01*
X159329048Y-64397143D01*
X159329048Y-64492381D01*
X160329048Y-64492381D02*
X159757619Y-64492381D01*
X160043333Y-64492381D02*
X160043333Y-63492381D01*
X159948095Y-63635238D01*
X159852857Y-63730476D01*
X159757619Y-63778095D01*
X161186191Y-63825714D02*
X161186191Y-64492381D01*
X160757619Y-63825714D02*
X160757619Y-64349524D01*
X160805238Y-64444762D01*
X160900476Y-64492381D01*
X161043334Y-64492381D01*
X161138572Y-64444762D01*
X161186191Y-64397143D01*
X161995715Y-63968571D02*
X161662381Y-63968571D01*
X161662381Y-64492381D02*
X161662381Y-63492381D01*
X162138572Y-63492381D01*
X139887143Y-56362381D02*
X139982382Y-56362381D01*
X140077620Y-56410000D01*
X140125239Y-56457619D01*
X140172858Y-56552857D01*
X140220477Y-56743333D01*
X140220477Y-56981429D01*
X140172858Y-57171905D01*
X140125239Y-57267143D01*
X140077620Y-57314762D01*
X139982382Y-57362381D01*
X139887143Y-57362381D01*
X139791905Y-57314762D01*
X139744286Y-57267143D01*
X139696667Y-57171905D01*
X139649048Y-56981429D01*
X139649048Y-56743333D01*
X139696667Y-56552857D01*
X139744286Y-56457619D01*
X139791905Y-56410000D01*
X139887143Y-56362381D01*
X140649048Y-57267143D02*
X140696667Y-57314762D01*
X140649048Y-57362381D01*
X140601429Y-57314762D01*
X140649048Y-57267143D01*
X140649048Y-57362381D01*
X141649048Y-57362381D02*
X141077619Y-57362381D01*
X141363333Y-57362381D02*
X141363333Y-56362381D01*
X141268095Y-56505238D01*
X141172857Y-56600476D01*
X141077619Y-56648095D01*
X142506191Y-56695714D02*
X142506191Y-57362381D01*
X142077619Y-56695714D02*
X142077619Y-57219524D01*
X142125238Y-57314762D01*
X142220476Y-57362381D01*
X142363334Y-57362381D01*
X142458572Y-57314762D01*
X142506191Y-57267143D01*
X143315715Y-56838571D02*
X142982381Y-56838571D01*
X142982381Y-57362381D02*
X142982381Y-56362381D01*
X143458572Y-56362381D01*
X139867143Y-54252381D02*
X139962382Y-54252381D01*
X140057620Y-54300000D01*
X140105239Y-54347619D01*
X140152858Y-54442857D01*
X140200477Y-54633333D01*
X140200477Y-54871429D01*
X140152858Y-55061905D01*
X140105239Y-55157143D01*
X140057620Y-55204762D01*
X139962382Y-55252381D01*
X139867143Y-55252381D01*
X139771905Y-55204762D01*
X139724286Y-55157143D01*
X139676667Y-55061905D01*
X139629048Y-54871429D01*
X139629048Y-54633333D01*
X139676667Y-54442857D01*
X139724286Y-54347619D01*
X139771905Y-54300000D01*
X139867143Y-54252381D01*
X140629048Y-55157143D02*
X140676667Y-55204762D01*
X140629048Y-55252381D01*
X140581429Y-55204762D01*
X140629048Y-55157143D01*
X140629048Y-55252381D01*
X141629048Y-55252381D02*
X141057619Y-55252381D01*
X141343333Y-55252381D02*
X141343333Y-54252381D01*
X141248095Y-54395238D01*
X141152857Y-54490476D01*
X141057619Y-54538095D01*
X142486191Y-54585714D02*
X142486191Y-55252381D01*
X142057619Y-54585714D02*
X142057619Y-55109524D01*
X142105238Y-55204762D01*
X142200476Y-55252381D01*
X142343334Y-55252381D01*
X142438572Y-55204762D01*
X142486191Y-55157143D01*
X143295715Y-54728571D02*
X142962381Y-54728571D01*
X142962381Y-55252381D02*
X142962381Y-54252381D01*
X143438572Y-54252381D01*
X108896667Y-51002381D02*
X108896667Y-51716667D01*
X108849047Y-51859524D01*
X108753809Y-51954762D01*
X108610952Y-52002381D01*
X108515714Y-52002381D01*
X109372857Y-52002381D02*
X109372857Y-51002381D01*
X109753810Y-51002381D01*
X109849048Y-51050000D01*
X109896667Y-51097619D01*
X109944286Y-51192857D01*
X109944286Y-51335714D01*
X109896667Y-51430952D01*
X109849048Y-51478571D01*
X109753810Y-51526190D01*
X109372857Y-51526190D01*
X110325238Y-51097619D02*
X110372857Y-51050000D01*
X110468095Y-51002381D01*
X110706191Y-51002381D01*
X110801429Y-51050000D01*
X110849048Y-51097619D01*
X110896667Y-51192857D01*
X110896667Y-51288095D01*
X110849048Y-51430952D01*
X110277619Y-52002381D01*
X110896667Y-52002381D01*
X132546667Y-56322381D02*
X132546667Y-57036667D01*
X132499047Y-57179524D01*
X132403809Y-57274762D01*
X132260952Y-57322381D01*
X132165714Y-57322381D01*
X133022857Y-57322381D02*
X133022857Y-56322381D01*
X133403810Y-56322381D01*
X133499048Y-56370000D01*
X133546667Y-56417619D01*
X133594286Y-56512857D01*
X133594286Y-56655714D01*
X133546667Y-56750952D01*
X133499048Y-56798571D01*
X133403810Y-56846190D01*
X133022857Y-56846190D01*
X133927619Y-56322381D02*
X134546667Y-56322381D01*
X134213333Y-56703333D01*
X134356191Y-56703333D01*
X134451429Y-56750952D01*
X134499048Y-56798571D01*
X134546667Y-56893810D01*
X134546667Y-57131905D01*
X134499048Y-57227143D01*
X134451429Y-57274762D01*
X134356191Y-57322381D01*
X134070476Y-57322381D01*
X133975238Y-57274762D01*
X133927619Y-57227143D01*
X138443809Y-58960952D02*
X138348571Y-58913333D01*
X138300952Y-58865714D01*
X138253333Y-58770476D01*
X138253333Y-58722857D01*
X138300952Y-58627619D01*
X138348571Y-58580000D01*
X138443809Y-58532381D01*
X138634286Y-58532381D01*
X138729524Y-58580000D01*
X138777143Y-58627619D01*
X138824762Y-58722857D01*
X138824762Y-58770476D01*
X138777143Y-58865714D01*
X138729524Y-58913333D01*
X138634286Y-58960952D01*
X138443809Y-58960952D01*
X138348571Y-59008571D01*
X138300952Y-59056190D01*
X138253333Y-59151429D01*
X138253333Y-59341905D01*
X138300952Y-59437143D01*
X138348571Y-59484762D01*
X138443809Y-59532381D01*
X138634286Y-59532381D01*
X138729524Y-59484762D01*
X138777143Y-59437143D01*
X138824762Y-59341905D01*
X138824762Y-59151429D01*
X138777143Y-59056190D01*
X138729524Y-59008571D01*
X138634286Y-58960952D01*
X139253333Y-58865714D02*
X139253333Y-59865714D01*
X139253333Y-58913333D02*
X139348571Y-58865714D01*
X139539048Y-58865714D01*
X139634286Y-58913333D01*
X139681905Y-58960952D01*
X139729524Y-59056190D01*
X139729524Y-59341905D01*
X139681905Y-59437143D01*
X139634286Y-59484762D01*
X139539048Y-59532381D01*
X139348571Y-59532381D01*
X139253333Y-59484762D01*
X140491429Y-59008571D02*
X140158095Y-59008571D01*
X140158095Y-59532381D02*
X140158095Y-58532381D01*
X140634286Y-58532381D01*
X138443809Y-61140952D02*
X138348571Y-61093333D01*
X138300952Y-61045714D01*
X138253333Y-60950476D01*
X138253333Y-60902857D01*
X138300952Y-60807619D01*
X138348571Y-60760000D01*
X138443809Y-60712381D01*
X138634286Y-60712381D01*
X138729524Y-60760000D01*
X138777143Y-60807619D01*
X138824762Y-60902857D01*
X138824762Y-60950476D01*
X138777143Y-61045714D01*
X138729524Y-61093333D01*
X138634286Y-61140952D01*
X138443809Y-61140952D01*
X138348571Y-61188571D01*
X138300952Y-61236190D01*
X138253333Y-61331429D01*
X138253333Y-61521905D01*
X138300952Y-61617143D01*
X138348571Y-61664762D01*
X138443809Y-61712381D01*
X138634286Y-61712381D01*
X138729524Y-61664762D01*
X138777143Y-61617143D01*
X138824762Y-61521905D01*
X138824762Y-61331429D01*
X138777143Y-61236190D01*
X138729524Y-61188571D01*
X138634286Y-61140952D01*
X139253333Y-61045714D02*
X139253333Y-62045714D01*
X139253333Y-61093333D02*
X139348571Y-61045714D01*
X139539048Y-61045714D01*
X139634286Y-61093333D01*
X139681905Y-61140952D01*
X139729524Y-61236190D01*
X139729524Y-61521905D01*
X139681905Y-61617143D01*
X139634286Y-61664762D01*
X139539048Y-61712381D01*
X139348571Y-61712381D01*
X139253333Y-61664762D01*
X140491429Y-61188571D02*
X140158095Y-61188571D01*
X140158095Y-61712381D02*
X140158095Y-60712381D01*
X140634286Y-60712381D01*
X136162381Y-47648095D02*
X135162381Y-47648095D01*
X135162381Y-47410000D01*
X135210000Y-47267142D01*
X135305238Y-47171904D01*
X135400476Y-47124285D01*
X135590952Y-47076666D01*
X135733810Y-47076666D01*
X135924286Y-47124285D01*
X136019524Y-47171904D01*
X136114762Y-47267142D01*
X136162381Y-47410000D01*
X136162381Y-47648095D01*
X135162381Y-46743333D02*
X135162381Y-46124285D01*
X135543333Y-46457619D01*
X135543333Y-46314761D01*
X135590952Y-46219523D01*
X135638571Y-46171904D01*
X135733810Y-46124285D01*
X135971905Y-46124285D01*
X136067143Y-46171904D01*
X136114762Y-46219523D01*
X136162381Y-46314761D01*
X136162381Y-46600476D01*
X136114762Y-46695714D01*
X136067143Y-46743333D01*
X132065715Y-44962381D02*
X131494286Y-44962381D01*
X131780000Y-44962381D02*
X131780000Y-43962381D01*
X131684762Y-44105238D01*
X131589524Y-44200476D01*
X131494286Y-44248095D01*
X132494286Y-44962381D02*
X132494286Y-43962381D01*
X133065715Y-44962381D02*
X132637143Y-44390952D01*
X133065715Y-43962381D02*
X132494286Y-44533810D01*
X175761905Y-76902381D02*
X175761905Y-75902381D01*
X176142858Y-75902381D01*
X176238096Y-75950000D01*
X176285715Y-75997619D01*
X176333334Y-76092857D01*
X176333334Y-76235714D01*
X176285715Y-76330952D01*
X176238096Y-76378571D01*
X176142858Y-76426190D01*
X175761905Y-76426190D01*
X176666667Y-75902381D02*
X177285715Y-75902381D01*
X176952381Y-76283333D01*
X177095239Y-76283333D01*
X177190477Y-76330952D01*
X177238096Y-76378571D01*
X177285715Y-76473810D01*
X177285715Y-76711905D01*
X177238096Y-76807143D01*
X177190477Y-76854762D01*
X177095239Y-76902381D01*
X176809524Y-76902381D01*
X176714286Y-76854762D01*
X176666667Y-76807143D01*
X155035541Y-27301923D02*
X155749827Y-27301923D01*
X155892684Y-27349543D01*
X155987922Y-27444781D01*
X156035541Y-27587638D01*
X156035541Y-27682876D01*
X156035541Y-26301923D02*
X156035541Y-26873352D01*
X156035541Y-26587638D02*
X155035541Y-26587638D01*
X155178398Y-26682876D01*
X155273636Y-26778114D01*
X155321255Y-26873352D01*
X156035541Y-25349542D02*
X156035541Y-25920971D01*
X156035541Y-25635257D02*
X155035541Y-25635257D01*
X155178398Y-25730495D01*
X155273636Y-25825733D01*
X155321255Y-25920971D01*
X140985743Y-65167915D02*
X141033362Y-65215534D01*
X141080981Y-65358391D01*
X141080981Y-65453629D01*
X141033362Y-65596487D01*
X140938124Y-65691725D01*
X140842886Y-65739344D01*
X140652410Y-65786963D01*
X140509552Y-65786963D01*
X140319076Y-65739344D01*
X140223838Y-65691725D01*
X140128600Y-65596487D01*
X140080981Y-65453629D01*
X140080981Y-65358391D01*
X140128600Y-65215534D01*
X140176219Y-65167915D01*
X141080981Y-64739344D02*
X140414314Y-64739344D01*
X140604790Y-64739344D02*
X140509552Y-64691725D01*
X140461933Y-64644106D01*
X140414314Y-64548868D01*
X140414314Y-64453629D01*
X140414314Y-64215534D02*
X141080981Y-63977439D01*
X140414314Y-63739343D02*
X141080981Y-63977439D01*
X141319076Y-64072677D01*
X141366695Y-64120296D01*
X141414314Y-64215534D01*
X141033362Y-63406010D02*
X141080981Y-63310772D01*
X141080981Y-63120296D01*
X141033362Y-63025057D01*
X140938124Y-62977438D01*
X140890505Y-62977438D01*
X140795267Y-63025057D01*
X140747648Y-63120296D01*
X140747648Y-63263153D01*
X140700029Y-63358391D01*
X140604790Y-63406010D01*
X140557171Y-63406010D01*
X140461933Y-63358391D01*
X140414314Y-63263153D01*
X140414314Y-63120296D01*
X140461933Y-63025057D01*
X140414314Y-62691724D02*
X140414314Y-62310772D01*
X140080981Y-62548867D02*
X140938124Y-62548867D01*
X141033362Y-62501248D01*
X141080981Y-62406010D01*
X141080981Y-62310772D01*
X141080981Y-61548866D02*
X140557171Y-61548866D01*
X140461933Y-61596485D01*
X140414314Y-61691723D01*
X140414314Y-61882200D01*
X140461933Y-61977438D01*
X141033362Y-61548866D02*
X141080981Y-61644104D01*
X141080981Y-61882200D01*
X141033362Y-61977438D01*
X140938124Y-62025057D01*
X140842886Y-62025057D01*
X140747648Y-61977438D01*
X140700029Y-61882200D01*
X140700029Y-61644104D01*
X140652410Y-61548866D01*
X141080981Y-60929819D02*
X141033362Y-61025057D01*
X140938124Y-61072676D01*
X140080981Y-61072676D01*
D10*
X143610476Y-62480475D02*
X143800952Y-62480475D01*
X143400952Y-62613809D02*
X143610476Y-62480475D01*
X143400952Y-62347142D01*
X143800952Y-62004285D02*
X143800952Y-62232857D01*
X143800952Y-62118571D02*
X143400952Y-62118571D01*
X143458095Y-62156666D01*
X143496190Y-62194761D01*
X143515238Y-62232857D01*
D11*
X149652381Y-51310476D02*
X149652381Y-51881905D01*
X149652381Y-51596191D02*
X148652381Y-51596191D01*
X148795238Y-51691429D01*
X148890476Y-51786667D01*
X148938095Y-51881905D01*
X148652381Y-50691429D02*
X148652381Y-50596190D01*
X148700000Y-50500952D01*
X148747619Y-50453333D01*
X148842857Y-50405714D01*
X149033333Y-50358095D01*
X149271429Y-50358095D01*
X149461905Y-50405714D01*
X149557143Y-50453333D01*
X149604762Y-50500952D01*
X149652381Y-50596190D01*
X149652381Y-50691429D01*
X149604762Y-50786667D01*
X149557143Y-50834286D01*
X149461905Y-50881905D01*
X149271429Y-50929524D01*
X149033333Y-50929524D01*
X148842857Y-50881905D01*
X148747619Y-50834286D01*
X148700000Y-50786667D01*
X148652381Y-50691429D01*
X149652381Y-49929524D02*
X148652381Y-49929524D01*
X149652381Y-49358095D02*
X149080952Y-49786667D01*
X148652381Y-49358095D02*
X149223810Y-49929524D01*
X146144762Y-38333333D02*
X146192381Y-38190476D01*
X146192381Y-37952380D01*
X146144762Y-37857142D01*
X146097143Y-37809523D01*
X146001905Y-37761904D01*
X145906667Y-37761904D01*
X145811429Y-37809523D01*
X145763810Y-37857142D01*
X145716190Y-37952380D01*
X145668571Y-38142857D01*
X145620952Y-38238095D01*
X145573333Y-38285714D01*
X145478095Y-38333333D01*
X145382857Y-38333333D01*
X145287619Y-38285714D01*
X145240000Y-38238095D01*
X145192381Y-38142857D01*
X145192381Y-37904761D01*
X145240000Y-37761904D01*
X145192381Y-37428571D02*
X146192381Y-37190476D01*
X145478095Y-36999999D01*
X146192381Y-36809523D01*
X145192381Y-36571428D01*
X146192381Y-35666666D02*
X146192381Y-36238095D01*
X146192381Y-35952381D02*
X145192381Y-35952381D01*
X145335238Y-36047619D01*
X145430476Y-36142857D01*
X145478095Y-36238095D01*
X146084762Y-41453333D02*
X146132381Y-41310476D01*
X146132381Y-41072380D01*
X146084762Y-40977142D01*
X146037143Y-40929523D01*
X145941905Y-40881904D01*
X145846667Y-40881904D01*
X145751429Y-40929523D01*
X145703810Y-40977142D01*
X145656190Y-41072380D01*
X145608571Y-41262857D01*
X145560952Y-41358095D01*
X145513333Y-41405714D01*
X145418095Y-41453333D01*
X145322857Y-41453333D01*
X145227619Y-41405714D01*
X145180000Y-41358095D01*
X145132381Y-41262857D01*
X145132381Y-41024761D01*
X145180000Y-40881904D01*
X145132381Y-40548571D02*
X146132381Y-40310476D01*
X145418095Y-40119999D01*
X146132381Y-39929523D01*
X145132381Y-39691428D01*
X146132381Y-38786666D02*
X146132381Y-39358095D01*
X146132381Y-39072381D02*
X145132381Y-39072381D01*
X145275238Y-39167619D01*
X145370476Y-39262857D01*
X145418095Y-39358095D01*
X92262381Y-55463333D02*
X92976667Y-55463333D01*
X93119524Y-55510953D01*
X93214762Y-55606191D01*
X93262381Y-55749048D01*
X93262381Y-55844286D01*
X93262381Y-54463333D02*
X93262381Y-55034762D01*
X93262381Y-54749048D02*
X92262381Y-54749048D01*
X92405238Y-54844286D01*
X92500476Y-54939524D01*
X92548095Y-55034762D01*
X163996667Y-121192381D02*
X163996667Y-121906667D01*
X163949047Y-122049524D01*
X163853809Y-122144762D01*
X163710952Y-122192381D01*
X163615714Y-122192381D01*
X164377619Y-121192381D02*
X164996667Y-121192381D01*
X164663333Y-121573333D01*
X164806191Y-121573333D01*
X164901429Y-121620952D01*
X164949048Y-121668571D01*
X164996667Y-121763810D01*
X164996667Y-122001905D01*
X164949048Y-122097143D01*
X164901429Y-122144762D01*
X164806191Y-122192381D01*
X164520476Y-122192381D01*
X164425238Y-122144762D01*
X164377619Y-122097143D01*
X130702381Y-25643333D02*
X131416667Y-25643333D01*
X131559524Y-25690953D01*
X131654762Y-25786191D01*
X131702381Y-25929048D01*
X131702381Y-26024286D01*
X130797619Y-25214762D02*
X130750000Y-25167143D01*
X130702381Y-25071905D01*
X130702381Y-24833809D01*
X130750000Y-24738571D01*
X130797619Y-24690952D01*
X130892857Y-24643333D01*
X130988095Y-24643333D01*
X131130952Y-24690952D01*
X131702381Y-25262381D01*
X131702381Y-24643333D01*
X99026667Y-21422381D02*
X99026667Y-22136667D01*
X98979047Y-22279524D01*
X98883809Y-22374762D01*
X98740952Y-22422381D01*
X98645714Y-22422381D01*
X99931429Y-21755714D02*
X99931429Y-22422381D01*
X99693333Y-21374762D02*
X99455238Y-22089048D01*
X100074286Y-22089048D01*
X164127143Y-99992381D02*
X164222382Y-99992381D01*
X164317620Y-100040000D01*
X164365239Y-100087619D01*
X164412858Y-100182857D01*
X164460477Y-100373333D01*
X164460477Y-100611429D01*
X164412858Y-100801905D01*
X164365239Y-100897143D01*
X164317620Y-100944762D01*
X164222382Y-100992381D01*
X164127143Y-100992381D01*
X164031905Y-100944762D01*
X163984286Y-100897143D01*
X163936667Y-100801905D01*
X163889048Y-100611429D01*
X163889048Y-100373333D01*
X163936667Y-100182857D01*
X163984286Y-100087619D01*
X164031905Y-100040000D01*
X164127143Y-99992381D01*
X164889048Y-100897143D02*
X164936667Y-100944762D01*
X164889048Y-100992381D01*
X164841429Y-100944762D01*
X164889048Y-100897143D01*
X164889048Y-100992381D01*
X165889048Y-100992381D02*
X165317619Y-100992381D01*
X165603333Y-100992381D02*
X165603333Y-99992381D01*
X165508095Y-100135238D01*
X165412857Y-100230476D01*
X165317619Y-100278095D01*
X166746191Y-100325714D02*
X166746191Y-100992381D01*
X166317619Y-100325714D02*
X166317619Y-100849524D01*
X166365238Y-100944762D01*
X166460476Y-100992381D01*
X166603334Y-100992381D01*
X166698572Y-100944762D01*
X166746191Y-100897143D01*
X167555715Y-100468571D02*
X167222381Y-100468571D01*
X167222381Y-100992381D02*
X167222381Y-99992381D01*
X167698572Y-99992381D01*
X164628572Y-104842381D02*
X164057143Y-104842381D01*
X164342857Y-104842381D02*
X164342857Y-103842381D01*
X164247619Y-103985238D01*
X164152381Y-104080476D01*
X164057143Y-104128095D01*
X165247619Y-103842381D02*
X165342858Y-103842381D01*
X165438096Y-103890000D01*
X165485715Y-103937619D01*
X165533334Y-104032857D01*
X165580953Y-104223333D01*
X165580953Y-104461429D01*
X165533334Y-104651905D01*
X165485715Y-104747143D01*
X165438096Y-104794762D01*
X165342858Y-104842381D01*
X165247619Y-104842381D01*
X165152381Y-104794762D01*
X165104762Y-104747143D01*
X165057143Y-104651905D01*
X165009524Y-104461429D01*
X165009524Y-104223333D01*
X165057143Y-104032857D01*
X165104762Y-103937619D01*
X165152381Y-103890000D01*
X165247619Y-103842381D01*
X166438096Y-104175714D02*
X166438096Y-104842381D01*
X166009524Y-104175714D02*
X166009524Y-104699524D01*
X166057143Y-104794762D01*
X166152381Y-104842381D01*
X166295239Y-104842381D01*
X166390477Y-104794762D01*
X166438096Y-104747143D01*
X167247620Y-104318571D02*
X166914286Y-104318571D01*
X166914286Y-104842381D02*
X166914286Y-103842381D01*
X167390477Y-103842381D01*
X147747143Y-30542381D02*
X147842382Y-30542381D01*
X147937620Y-30590000D01*
X147985239Y-30637619D01*
X148032858Y-30732857D01*
X148080477Y-30923333D01*
X148080477Y-31161429D01*
X148032858Y-31351905D01*
X147985239Y-31447143D01*
X147937620Y-31494762D01*
X147842382Y-31542381D01*
X147747143Y-31542381D01*
X147651905Y-31494762D01*
X147604286Y-31447143D01*
X147556667Y-31351905D01*
X147509048Y-31161429D01*
X147509048Y-30923333D01*
X147556667Y-30732857D01*
X147604286Y-30637619D01*
X147651905Y-30590000D01*
X147747143Y-30542381D01*
X148509048Y-31447143D02*
X148556667Y-31494762D01*
X148509048Y-31542381D01*
X148461429Y-31494762D01*
X148509048Y-31447143D01*
X148509048Y-31542381D01*
X149509048Y-31542381D02*
X148937619Y-31542381D01*
X149223333Y-31542381D02*
X149223333Y-30542381D01*
X149128095Y-30685238D01*
X149032857Y-30780476D01*
X148937619Y-30828095D01*
X150366191Y-30875714D02*
X150366191Y-31542381D01*
X149937619Y-30875714D02*
X149937619Y-31399524D01*
X149985238Y-31494762D01*
X150080476Y-31542381D01*
X150223334Y-31542381D01*
X150318572Y-31494762D01*
X150366191Y-31447143D01*
X151175715Y-31018571D02*
X150842381Y-31018571D01*
X150842381Y-31542381D02*
X150842381Y-30542381D01*
X151318572Y-30542381D01*
X144961901Y-26820453D02*
X145676187Y-26820453D01*
X145819044Y-26868073D01*
X145914282Y-26963311D01*
X145961901Y-27106168D01*
X145961901Y-27201406D01*
X144961901Y-25868072D02*
X144961901Y-26344263D01*
X145438091Y-26391882D01*
X145390472Y-26344263D01*
X145342853Y-26249025D01*
X145342853Y-26010929D01*
X145390472Y-25915691D01*
X145438091Y-25868072D01*
X145533330Y-25820453D01*
X145771425Y-25820453D01*
X145866663Y-25868072D01*
X145914282Y-25915691D01*
X145961901Y-26010929D01*
X145961901Y-26249025D01*
X145914282Y-26344263D01*
X145866663Y-26391882D01*
X163026667Y-59132381D02*
X163026667Y-59846667D01*
X162979047Y-59989524D01*
X162883809Y-60084762D01*
X162740952Y-60132381D01*
X162645714Y-60132381D01*
X163502857Y-60132381D02*
X163502857Y-59132381D01*
X163883810Y-59132381D01*
X163979048Y-59180000D01*
X164026667Y-59227619D01*
X164074286Y-59322857D01*
X164074286Y-59465714D01*
X164026667Y-59560952D01*
X163979048Y-59608571D01*
X163883810Y-59656190D01*
X163502857Y-59656190D01*
X165026667Y-60132381D02*
X164455238Y-60132381D01*
X164740952Y-60132381D02*
X164740952Y-59132381D01*
X164645714Y-59275238D01*
X164550476Y-59370476D01*
X164455238Y-59418095D01*
X82996667Y-71052381D02*
X82663333Y-70576190D01*
X82425238Y-71052381D02*
X82425238Y-70052381D01*
X82806191Y-70052381D01*
X82901429Y-70100000D01*
X82949048Y-70147619D01*
X82996667Y-70242857D01*
X82996667Y-70385714D01*
X82949048Y-70480952D01*
X82901429Y-70528571D01*
X82806191Y-70576190D01*
X82425238Y-70576190D01*
X83425238Y-70528571D02*
X83758572Y-70528571D01*
X83901429Y-71052381D02*
X83425238Y-71052381D01*
X83425238Y-70052381D01*
X83901429Y-70052381D01*
X84663334Y-70528571D02*
X84330000Y-70528571D01*
X84330000Y-71052381D02*
X84330000Y-70052381D01*
X84806191Y-70052381D01*
X85330000Y-70052381D02*
X85330000Y-70290476D01*
X85091905Y-70195238D02*
X85330000Y-70290476D01*
X85568096Y-70195238D01*
X85187143Y-70480952D02*
X85330000Y-70290476D01*
X85472858Y-70480952D01*
X86091905Y-70052381D02*
X86091905Y-70290476D01*
X85853810Y-70195238D02*
X86091905Y-70290476D01*
X86330001Y-70195238D01*
X85949048Y-70480952D02*
X86091905Y-70290476D01*
X86234763Y-70480952D01*
X77853809Y-70052381D02*
X77853809Y-69052381D01*
X78234762Y-69052381D01*
X78330000Y-69100000D01*
X78377619Y-69147619D01*
X78425238Y-69242857D01*
X78425238Y-69385714D01*
X78377619Y-69480952D01*
X78330000Y-69528571D01*
X78234762Y-69576190D01*
X77853809Y-69576190D01*
X79425238Y-69957143D02*
X79377619Y-70004762D01*
X79234762Y-70052381D01*
X79139524Y-70052381D01*
X78996666Y-70004762D01*
X78901428Y-69909524D01*
X78853809Y-69814286D01*
X78806190Y-69623810D01*
X78806190Y-69480952D01*
X78853809Y-69290476D01*
X78901428Y-69195238D01*
X78996666Y-69100000D01*
X79139524Y-69052381D01*
X79234762Y-69052381D01*
X79377619Y-69100000D01*
X79425238Y-69147619D01*
X80187143Y-69528571D02*
X80330000Y-69576190D01*
X80377619Y-69623810D01*
X80425238Y-69719048D01*
X80425238Y-69861905D01*
X80377619Y-69957143D01*
X80330000Y-70004762D01*
X80234762Y-70052381D01*
X79853809Y-70052381D01*
X79853809Y-69052381D01*
X80187143Y-69052381D01*
X80282381Y-69100000D01*
X80330000Y-69147619D01*
X80377619Y-69242857D01*
X80377619Y-69338095D01*
X80330000Y-69433333D01*
X80282381Y-69480952D01*
X80187143Y-69528571D01*
X79853809Y-69528571D01*
X80615714Y-70147619D02*
X81377619Y-70147619D01*
X81615714Y-69052381D02*
X81615714Y-69861905D01*
X81663333Y-69957143D01*
X81710952Y-70004762D01*
X81806190Y-70052381D01*
X81996667Y-70052381D01*
X82091905Y-70004762D01*
X82139524Y-69957143D01*
X82187143Y-69861905D01*
X82187143Y-69052381D01*
X82663333Y-70052381D02*
X82663333Y-69052381D01*
X83234762Y-70052381D01*
X83234762Y-69052381D01*
X83710952Y-70052381D02*
X83710952Y-69052381D01*
X84044285Y-69052381D02*
X84377618Y-70052381D01*
X84710952Y-69052381D01*
X85044285Y-69528571D02*
X85377619Y-69528571D01*
X85520476Y-70052381D02*
X85044285Y-70052381D01*
X85044285Y-69052381D01*
X85520476Y-69052381D01*
X86520476Y-70052381D02*
X86187142Y-69576190D01*
X85949047Y-70052381D02*
X85949047Y-69052381D01*
X86330000Y-69052381D01*
X86425238Y-69100000D01*
X86472857Y-69147619D01*
X86520476Y-69242857D01*
X86520476Y-69385714D01*
X86472857Y-69480952D01*
X86425238Y-69528571D01*
X86330000Y-69576190D01*
X85949047Y-69576190D01*
X86901428Y-70004762D02*
X87044285Y-70052381D01*
X87282381Y-70052381D01*
X87377619Y-70004762D01*
X87425238Y-69957143D01*
X87472857Y-69861905D01*
X87472857Y-69766667D01*
X87425238Y-69671429D01*
X87377619Y-69623810D01*
X87282381Y-69576190D01*
X87091904Y-69528571D01*
X86996666Y-69480952D01*
X86949047Y-69433333D01*
X86901428Y-69338095D01*
X86901428Y-69242857D01*
X86949047Y-69147619D01*
X86996666Y-69100000D01*
X87091904Y-69052381D01*
X87330000Y-69052381D01*
X87472857Y-69100000D01*
X87853809Y-69766667D02*
X88330000Y-69766667D01*
X87758571Y-70052381D02*
X88091904Y-69052381D01*
X88425238Y-70052381D01*
X89234762Y-70052381D02*
X88758571Y-70052381D01*
X88758571Y-69052381D01*
X89330000Y-70147619D02*
X90091905Y-70147619D01*
X90282381Y-69147619D02*
X90330000Y-69100000D01*
X90425238Y-69052381D01*
X90663334Y-69052381D01*
X90758572Y-69100000D01*
X90806191Y-69147619D01*
X90853810Y-69242857D01*
X90853810Y-69338095D01*
X90806191Y-69480952D01*
X90234762Y-70052381D01*
X90853810Y-70052381D01*
X72305238Y-31352381D02*
X72305238Y-30352381D01*
X72638572Y-31066667D01*
X72971905Y-30352381D01*
X72971905Y-31352381D01*
X73590952Y-31352381D02*
X73495714Y-31304762D01*
X73448095Y-31257143D01*
X73400476Y-31161905D01*
X73400476Y-30876190D01*
X73448095Y-30780952D01*
X73495714Y-30733333D01*
X73590952Y-30685714D01*
X73733810Y-30685714D01*
X73829048Y-30733333D01*
X73876667Y-30780952D01*
X73924286Y-30876190D01*
X73924286Y-31161905D01*
X73876667Y-31257143D01*
X73829048Y-31304762D01*
X73733810Y-31352381D01*
X73590952Y-31352381D01*
X74781429Y-30685714D02*
X74781429Y-31352381D01*
X74352857Y-30685714D02*
X74352857Y-31209524D01*
X74400476Y-31304762D01*
X74495714Y-31352381D01*
X74638572Y-31352381D01*
X74733810Y-31304762D01*
X74781429Y-31257143D01*
X75257619Y-30685714D02*
X75257619Y-31352381D01*
X75257619Y-30780952D02*
X75305238Y-30733333D01*
X75400476Y-30685714D01*
X75543334Y-30685714D01*
X75638572Y-30733333D01*
X75686191Y-30828571D01*
X75686191Y-31352381D01*
X76019524Y-30685714D02*
X76400476Y-30685714D01*
X76162381Y-30352381D02*
X76162381Y-31209524D01*
X76210000Y-31304762D01*
X76305238Y-31352381D01*
X76400476Y-31352381D01*
X76733810Y-31352381D02*
X76733810Y-30685714D01*
X76733810Y-30352381D02*
X76686191Y-30400000D01*
X76733810Y-30447619D01*
X76781429Y-30400000D01*
X76733810Y-30352381D01*
X76733810Y-30447619D01*
X77210000Y-30685714D02*
X77210000Y-31352381D01*
X77210000Y-30780952D02*
X77257619Y-30733333D01*
X77352857Y-30685714D01*
X77495715Y-30685714D01*
X77590953Y-30733333D01*
X77638572Y-30828571D01*
X77638572Y-31352381D01*
X78543334Y-30685714D02*
X78543334Y-31495238D01*
X78495715Y-31590476D01*
X78448096Y-31638095D01*
X78352857Y-31685714D01*
X78210000Y-31685714D01*
X78114762Y-31638095D01*
X78543334Y-31304762D02*
X78448096Y-31352381D01*
X78257619Y-31352381D01*
X78162381Y-31304762D01*
X78114762Y-31257143D01*
X78067143Y-31161905D01*
X78067143Y-30876190D01*
X78114762Y-30780952D01*
X78162381Y-30733333D01*
X78257619Y-30685714D01*
X78448096Y-30685714D01*
X78543334Y-30733333D01*
X79019524Y-31352381D02*
X79019524Y-30352381D01*
X79019524Y-30828571D02*
X79590953Y-30828571D01*
X79590953Y-31352381D02*
X79590953Y-30352381D01*
X80210000Y-31352381D02*
X80114762Y-31304762D01*
X80067143Y-31257143D01*
X80019524Y-31161905D01*
X80019524Y-30876190D01*
X80067143Y-30780952D01*
X80114762Y-30733333D01*
X80210000Y-30685714D01*
X80352858Y-30685714D01*
X80448096Y-30733333D01*
X80495715Y-30780952D01*
X80543334Y-30876190D01*
X80543334Y-31161905D01*
X80495715Y-31257143D01*
X80448096Y-31304762D01*
X80352858Y-31352381D01*
X80210000Y-31352381D01*
X81114762Y-31352381D02*
X81019524Y-31304762D01*
X80971905Y-31209524D01*
X80971905Y-30352381D01*
X81876668Y-31304762D02*
X81781430Y-31352381D01*
X81590953Y-31352381D01*
X81495715Y-31304762D01*
X81448096Y-31209524D01*
X81448096Y-30828571D01*
X81495715Y-30733333D01*
X81590953Y-30685714D01*
X81781430Y-30685714D01*
X81876668Y-30733333D01*
X81924287Y-30828571D01*
X81924287Y-30923810D01*
X81448096Y-31019048D01*
X82114763Y-31447619D02*
X82876668Y-31447619D01*
X83019525Y-30352381D02*
X83638573Y-30352381D01*
X83305239Y-30733333D01*
X83448097Y-30733333D01*
X83543335Y-30780952D01*
X83590954Y-30828571D01*
X83638573Y-30923810D01*
X83638573Y-31161905D01*
X83590954Y-31257143D01*
X83543335Y-31304762D01*
X83448097Y-31352381D01*
X83162382Y-31352381D01*
X83067144Y-31304762D01*
X83019525Y-31257143D01*
X84067144Y-31257143D02*
X84114763Y-31304762D01*
X84067144Y-31352381D01*
X84019525Y-31304762D01*
X84067144Y-31257143D01*
X84067144Y-31352381D01*
X84495715Y-30447619D02*
X84543334Y-30400000D01*
X84638572Y-30352381D01*
X84876668Y-30352381D01*
X84971906Y-30400000D01*
X85019525Y-30447619D01*
X85067144Y-30542857D01*
X85067144Y-30638095D01*
X85019525Y-30780952D01*
X84448096Y-31352381D01*
X85067144Y-31352381D01*
X85495715Y-31352381D02*
X85495715Y-30685714D01*
X85495715Y-30780952D02*
X85543334Y-30733333D01*
X85638572Y-30685714D01*
X85781430Y-30685714D01*
X85876668Y-30733333D01*
X85924287Y-30828571D01*
X85924287Y-31352381D01*
X85924287Y-30828571D02*
X85971906Y-30733333D01*
X86067144Y-30685714D01*
X86210001Y-30685714D01*
X86305239Y-30733333D01*
X86352858Y-30828571D01*
X86352858Y-31352381D01*
X86829048Y-31352381D02*
X86829048Y-30685714D01*
X86829048Y-30780952D02*
X86876667Y-30733333D01*
X86971905Y-30685714D01*
X87114763Y-30685714D01*
X87210001Y-30733333D01*
X87257620Y-30828571D01*
X87257620Y-31352381D01*
X87257620Y-30828571D02*
X87305239Y-30733333D01*
X87400477Y-30685714D01*
X87543334Y-30685714D01*
X87638572Y-30733333D01*
X87686191Y-30828571D01*
X87686191Y-31352381D01*
X87924286Y-31447619D02*
X88686191Y-31447619D01*
X88924286Y-31352381D02*
X88924286Y-30352381D01*
X89257620Y-31066667D01*
X89590953Y-30352381D01*
X89590953Y-31352381D01*
X89971905Y-30352381D02*
X90590953Y-30352381D01*
X90257619Y-30733333D01*
X90400477Y-30733333D01*
X90495715Y-30780952D01*
X90543334Y-30828571D01*
X90590953Y-30923810D01*
X90590953Y-31161905D01*
X90543334Y-31257143D01*
X90495715Y-31304762D01*
X90400477Y-31352381D01*
X90114762Y-31352381D01*
X90019524Y-31304762D01*
X89971905Y-31257143D01*
X90781429Y-31447619D02*
X91543334Y-31447619D01*
X91781429Y-31352381D02*
X91781429Y-30352381D01*
X92162382Y-30352381D01*
X92257620Y-30400000D01*
X92305239Y-30447619D01*
X92352858Y-30542857D01*
X92352858Y-30685714D01*
X92305239Y-30780952D01*
X92257620Y-30828571D01*
X92162382Y-30876190D01*
X91781429Y-30876190D01*
X93210001Y-31352381D02*
X93210001Y-30828571D01*
X93162382Y-30733333D01*
X93067144Y-30685714D01*
X92876667Y-30685714D01*
X92781429Y-30733333D01*
X93210001Y-31304762D02*
X93114763Y-31352381D01*
X92876667Y-31352381D01*
X92781429Y-31304762D01*
X92733810Y-31209524D01*
X92733810Y-31114286D01*
X92781429Y-31019048D01*
X92876667Y-30971429D01*
X93114763Y-30971429D01*
X93210001Y-30923810D01*
X94114763Y-31352381D02*
X94114763Y-30352381D01*
X94114763Y-31304762D02*
X94019525Y-31352381D01*
X93829048Y-31352381D01*
X93733810Y-31304762D01*
X93686191Y-31257143D01*
X93638572Y-31161905D01*
X93638572Y-30876190D01*
X93686191Y-30780952D01*
X93733810Y-30733333D01*
X93829048Y-30685714D01*
X94019525Y-30685714D01*
X94114763Y-30733333D01*
X94352858Y-31447619D02*
X95114763Y-31447619D01*
X95210001Y-30352381D02*
X95543334Y-31352381D01*
X95876668Y-30352381D01*
X96210001Y-31352381D02*
X96210001Y-30685714D01*
X96210001Y-30352381D02*
X96162382Y-30400000D01*
X96210001Y-30447619D01*
X96257620Y-30400000D01*
X96210001Y-30352381D01*
X96210001Y-30447619D01*
X97114763Y-31352381D02*
X97114763Y-30828571D01*
X97067144Y-30733333D01*
X96971906Y-30685714D01*
X96781429Y-30685714D01*
X96686191Y-30733333D01*
X97114763Y-31304762D02*
X97019525Y-31352381D01*
X96781429Y-31352381D01*
X96686191Y-31304762D01*
X96638572Y-31209524D01*
X96638572Y-31114286D01*
X96686191Y-31019048D01*
X96781429Y-30971429D01*
X97019525Y-30971429D01*
X97114763Y-30923810D01*
X72255238Y-122342381D02*
X72255238Y-121342381D01*
X72588572Y-122056667D01*
X72921905Y-121342381D01*
X72921905Y-122342381D01*
X73540952Y-122342381D02*
X73445714Y-122294762D01*
X73398095Y-122247143D01*
X73350476Y-122151905D01*
X73350476Y-121866190D01*
X73398095Y-121770952D01*
X73445714Y-121723333D01*
X73540952Y-121675714D01*
X73683810Y-121675714D01*
X73779048Y-121723333D01*
X73826667Y-121770952D01*
X73874286Y-121866190D01*
X73874286Y-122151905D01*
X73826667Y-122247143D01*
X73779048Y-122294762D01*
X73683810Y-122342381D01*
X73540952Y-122342381D01*
X74731429Y-121675714D02*
X74731429Y-122342381D01*
X74302857Y-121675714D02*
X74302857Y-122199524D01*
X74350476Y-122294762D01*
X74445714Y-122342381D01*
X74588572Y-122342381D01*
X74683810Y-122294762D01*
X74731429Y-122247143D01*
X75207619Y-121675714D02*
X75207619Y-122342381D01*
X75207619Y-121770952D02*
X75255238Y-121723333D01*
X75350476Y-121675714D01*
X75493334Y-121675714D01*
X75588572Y-121723333D01*
X75636191Y-121818571D01*
X75636191Y-122342381D01*
X75969524Y-121675714D02*
X76350476Y-121675714D01*
X76112381Y-121342381D02*
X76112381Y-122199524D01*
X76160000Y-122294762D01*
X76255238Y-122342381D01*
X76350476Y-122342381D01*
X76683810Y-122342381D02*
X76683810Y-121675714D01*
X76683810Y-121342381D02*
X76636191Y-121390000D01*
X76683810Y-121437619D01*
X76731429Y-121390000D01*
X76683810Y-121342381D01*
X76683810Y-121437619D01*
X77160000Y-121675714D02*
X77160000Y-122342381D01*
X77160000Y-121770952D02*
X77207619Y-121723333D01*
X77302857Y-121675714D01*
X77445715Y-121675714D01*
X77540953Y-121723333D01*
X77588572Y-121818571D01*
X77588572Y-122342381D01*
X78493334Y-121675714D02*
X78493334Y-122485238D01*
X78445715Y-122580476D01*
X78398096Y-122628095D01*
X78302857Y-122675714D01*
X78160000Y-122675714D01*
X78064762Y-122628095D01*
X78493334Y-122294762D02*
X78398096Y-122342381D01*
X78207619Y-122342381D01*
X78112381Y-122294762D01*
X78064762Y-122247143D01*
X78017143Y-122151905D01*
X78017143Y-121866190D01*
X78064762Y-121770952D01*
X78112381Y-121723333D01*
X78207619Y-121675714D01*
X78398096Y-121675714D01*
X78493334Y-121723333D01*
X78969524Y-122342381D02*
X78969524Y-121342381D01*
X78969524Y-121818571D02*
X79540953Y-121818571D01*
X79540953Y-122342381D02*
X79540953Y-121342381D01*
X80160000Y-122342381D02*
X80064762Y-122294762D01*
X80017143Y-122247143D01*
X79969524Y-122151905D01*
X79969524Y-121866190D01*
X80017143Y-121770952D01*
X80064762Y-121723333D01*
X80160000Y-121675714D01*
X80302858Y-121675714D01*
X80398096Y-121723333D01*
X80445715Y-121770952D01*
X80493334Y-121866190D01*
X80493334Y-122151905D01*
X80445715Y-122247143D01*
X80398096Y-122294762D01*
X80302858Y-122342381D01*
X80160000Y-122342381D01*
X81064762Y-122342381D02*
X80969524Y-122294762D01*
X80921905Y-122199524D01*
X80921905Y-121342381D01*
X81826668Y-122294762D02*
X81731430Y-122342381D01*
X81540953Y-122342381D01*
X81445715Y-122294762D01*
X81398096Y-122199524D01*
X81398096Y-121818571D01*
X81445715Y-121723333D01*
X81540953Y-121675714D01*
X81731430Y-121675714D01*
X81826668Y-121723333D01*
X81874287Y-121818571D01*
X81874287Y-121913810D01*
X81398096Y-122009048D01*
X82064763Y-122437619D02*
X82826668Y-122437619D01*
X82969525Y-121342381D02*
X83588573Y-121342381D01*
X83255239Y-121723333D01*
X83398097Y-121723333D01*
X83493335Y-121770952D01*
X83540954Y-121818571D01*
X83588573Y-121913810D01*
X83588573Y-122151905D01*
X83540954Y-122247143D01*
X83493335Y-122294762D01*
X83398097Y-122342381D01*
X83112382Y-122342381D01*
X83017144Y-122294762D01*
X82969525Y-122247143D01*
X84017144Y-122247143D02*
X84064763Y-122294762D01*
X84017144Y-122342381D01*
X83969525Y-122294762D01*
X84017144Y-122247143D01*
X84017144Y-122342381D01*
X84445715Y-121437619D02*
X84493334Y-121390000D01*
X84588572Y-121342381D01*
X84826668Y-121342381D01*
X84921906Y-121390000D01*
X84969525Y-121437619D01*
X85017144Y-121532857D01*
X85017144Y-121628095D01*
X84969525Y-121770952D01*
X84398096Y-122342381D01*
X85017144Y-122342381D01*
X85445715Y-122342381D02*
X85445715Y-121675714D01*
X85445715Y-121770952D02*
X85493334Y-121723333D01*
X85588572Y-121675714D01*
X85731430Y-121675714D01*
X85826668Y-121723333D01*
X85874287Y-121818571D01*
X85874287Y-122342381D01*
X85874287Y-121818571D02*
X85921906Y-121723333D01*
X86017144Y-121675714D01*
X86160001Y-121675714D01*
X86255239Y-121723333D01*
X86302858Y-121818571D01*
X86302858Y-122342381D01*
X86779048Y-122342381D02*
X86779048Y-121675714D01*
X86779048Y-121770952D02*
X86826667Y-121723333D01*
X86921905Y-121675714D01*
X87064763Y-121675714D01*
X87160001Y-121723333D01*
X87207620Y-121818571D01*
X87207620Y-122342381D01*
X87207620Y-121818571D02*
X87255239Y-121723333D01*
X87350477Y-121675714D01*
X87493334Y-121675714D01*
X87588572Y-121723333D01*
X87636191Y-121818571D01*
X87636191Y-122342381D01*
X87874286Y-122437619D02*
X88636191Y-122437619D01*
X88874286Y-122342381D02*
X88874286Y-121342381D01*
X89207620Y-122056667D01*
X89540953Y-121342381D01*
X89540953Y-122342381D01*
X89921905Y-121342381D02*
X90540953Y-121342381D01*
X90207619Y-121723333D01*
X90350477Y-121723333D01*
X90445715Y-121770952D01*
X90493334Y-121818571D01*
X90540953Y-121913810D01*
X90540953Y-122151905D01*
X90493334Y-122247143D01*
X90445715Y-122294762D01*
X90350477Y-122342381D01*
X90064762Y-122342381D01*
X89969524Y-122294762D01*
X89921905Y-122247143D01*
X90731429Y-122437619D02*
X91493334Y-122437619D01*
X91731429Y-122342381D02*
X91731429Y-121342381D01*
X92112382Y-121342381D01*
X92207620Y-121390000D01*
X92255239Y-121437619D01*
X92302858Y-121532857D01*
X92302858Y-121675714D01*
X92255239Y-121770952D01*
X92207620Y-121818571D01*
X92112382Y-121866190D01*
X91731429Y-121866190D01*
X93160001Y-122342381D02*
X93160001Y-121818571D01*
X93112382Y-121723333D01*
X93017144Y-121675714D01*
X92826667Y-121675714D01*
X92731429Y-121723333D01*
X93160001Y-122294762D02*
X93064763Y-122342381D01*
X92826667Y-122342381D01*
X92731429Y-122294762D01*
X92683810Y-122199524D01*
X92683810Y-122104286D01*
X92731429Y-122009048D01*
X92826667Y-121961429D01*
X93064763Y-121961429D01*
X93160001Y-121913810D01*
X94064763Y-122342381D02*
X94064763Y-121342381D01*
X94064763Y-122294762D02*
X93969525Y-122342381D01*
X93779048Y-122342381D01*
X93683810Y-122294762D01*
X93636191Y-122247143D01*
X93588572Y-122151905D01*
X93588572Y-121866190D01*
X93636191Y-121770952D01*
X93683810Y-121723333D01*
X93779048Y-121675714D01*
X93969525Y-121675714D01*
X94064763Y-121723333D01*
X94302858Y-122437619D02*
X95064763Y-122437619D01*
X95160001Y-121342381D02*
X95493334Y-122342381D01*
X95826668Y-121342381D01*
X96160001Y-122342381D02*
X96160001Y-121675714D01*
X96160001Y-121342381D02*
X96112382Y-121390000D01*
X96160001Y-121437619D01*
X96207620Y-121390000D01*
X96160001Y-121342381D01*
X96160001Y-121437619D01*
X97064763Y-122342381D02*
X97064763Y-121818571D01*
X97017144Y-121723333D01*
X96921906Y-121675714D01*
X96731429Y-121675714D01*
X96636191Y-121723333D01*
X97064763Y-122294762D02*
X96969525Y-122342381D01*
X96731429Y-122342381D01*
X96636191Y-122294762D01*
X96588572Y-122199524D01*
X96588572Y-122104286D01*
X96636191Y-122009048D01*
X96731429Y-121961429D01*
X96969525Y-121961429D01*
X97064763Y-121913810D01*
X163115238Y-122382381D02*
X163115238Y-121382381D01*
X163448572Y-122096667D01*
X163781905Y-121382381D01*
X163781905Y-122382381D01*
X164400952Y-122382381D02*
X164305714Y-122334762D01*
X164258095Y-122287143D01*
X164210476Y-122191905D01*
X164210476Y-121906190D01*
X164258095Y-121810952D01*
X164305714Y-121763333D01*
X164400952Y-121715714D01*
X164543810Y-121715714D01*
X164639048Y-121763333D01*
X164686667Y-121810952D01*
X164734286Y-121906190D01*
X164734286Y-122191905D01*
X164686667Y-122287143D01*
X164639048Y-122334762D01*
X164543810Y-122382381D01*
X164400952Y-122382381D01*
X165591429Y-121715714D02*
X165591429Y-122382381D01*
X165162857Y-121715714D02*
X165162857Y-122239524D01*
X165210476Y-122334762D01*
X165305714Y-122382381D01*
X165448572Y-122382381D01*
X165543810Y-122334762D01*
X165591429Y-122287143D01*
X166067619Y-121715714D02*
X166067619Y-122382381D01*
X166067619Y-121810952D02*
X166115238Y-121763333D01*
X166210476Y-121715714D01*
X166353334Y-121715714D01*
X166448572Y-121763333D01*
X166496191Y-121858571D01*
X166496191Y-122382381D01*
X166829524Y-121715714D02*
X167210476Y-121715714D01*
X166972381Y-121382381D02*
X166972381Y-122239524D01*
X167020000Y-122334762D01*
X167115238Y-122382381D01*
X167210476Y-122382381D01*
X167543810Y-122382381D02*
X167543810Y-121715714D01*
X167543810Y-121382381D02*
X167496191Y-121430000D01*
X167543810Y-121477619D01*
X167591429Y-121430000D01*
X167543810Y-121382381D01*
X167543810Y-121477619D01*
X168020000Y-121715714D02*
X168020000Y-122382381D01*
X168020000Y-121810952D02*
X168067619Y-121763333D01*
X168162857Y-121715714D01*
X168305715Y-121715714D01*
X168400953Y-121763333D01*
X168448572Y-121858571D01*
X168448572Y-122382381D01*
X169353334Y-121715714D02*
X169353334Y-122525238D01*
X169305715Y-122620476D01*
X169258096Y-122668095D01*
X169162857Y-122715714D01*
X169020000Y-122715714D01*
X168924762Y-122668095D01*
X169353334Y-122334762D02*
X169258096Y-122382381D01*
X169067619Y-122382381D01*
X168972381Y-122334762D01*
X168924762Y-122287143D01*
X168877143Y-122191905D01*
X168877143Y-121906190D01*
X168924762Y-121810952D01*
X168972381Y-121763333D01*
X169067619Y-121715714D01*
X169258096Y-121715714D01*
X169353334Y-121763333D01*
X169829524Y-122382381D02*
X169829524Y-121382381D01*
X169829524Y-121858571D02*
X170400953Y-121858571D01*
X170400953Y-122382381D02*
X170400953Y-121382381D01*
X171020000Y-122382381D02*
X170924762Y-122334762D01*
X170877143Y-122287143D01*
X170829524Y-122191905D01*
X170829524Y-121906190D01*
X170877143Y-121810952D01*
X170924762Y-121763333D01*
X171020000Y-121715714D01*
X171162858Y-121715714D01*
X171258096Y-121763333D01*
X171305715Y-121810952D01*
X171353334Y-121906190D01*
X171353334Y-122191905D01*
X171305715Y-122287143D01*
X171258096Y-122334762D01*
X171162858Y-122382381D01*
X171020000Y-122382381D01*
X171924762Y-122382381D02*
X171829524Y-122334762D01*
X171781905Y-122239524D01*
X171781905Y-121382381D01*
X172686668Y-122334762D02*
X172591430Y-122382381D01*
X172400953Y-122382381D01*
X172305715Y-122334762D01*
X172258096Y-122239524D01*
X172258096Y-121858571D01*
X172305715Y-121763333D01*
X172400953Y-121715714D01*
X172591430Y-121715714D01*
X172686668Y-121763333D01*
X172734287Y-121858571D01*
X172734287Y-121953810D01*
X172258096Y-122049048D01*
X172924763Y-122477619D02*
X173686668Y-122477619D01*
X173829525Y-121382381D02*
X174448573Y-121382381D01*
X174115239Y-121763333D01*
X174258097Y-121763333D01*
X174353335Y-121810952D01*
X174400954Y-121858571D01*
X174448573Y-121953810D01*
X174448573Y-122191905D01*
X174400954Y-122287143D01*
X174353335Y-122334762D01*
X174258097Y-122382381D01*
X173972382Y-122382381D01*
X173877144Y-122334762D01*
X173829525Y-122287143D01*
X174877144Y-122287143D02*
X174924763Y-122334762D01*
X174877144Y-122382381D01*
X174829525Y-122334762D01*
X174877144Y-122287143D01*
X174877144Y-122382381D01*
X175305715Y-121477619D02*
X175353334Y-121430000D01*
X175448572Y-121382381D01*
X175686668Y-121382381D01*
X175781906Y-121430000D01*
X175829525Y-121477619D01*
X175877144Y-121572857D01*
X175877144Y-121668095D01*
X175829525Y-121810952D01*
X175258096Y-122382381D01*
X175877144Y-122382381D01*
X176305715Y-122382381D02*
X176305715Y-121715714D01*
X176305715Y-121810952D02*
X176353334Y-121763333D01*
X176448572Y-121715714D01*
X176591430Y-121715714D01*
X176686668Y-121763333D01*
X176734287Y-121858571D01*
X176734287Y-122382381D01*
X176734287Y-121858571D02*
X176781906Y-121763333D01*
X176877144Y-121715714D01*
X177020001Y-121715714D01*
X177115239Y-121763333D01*
X177162858Y-121858571D01*
X177162858Y-122382381D01*
X177639048Y-122382381D02*
X177639048Y-121715714D01*
X177639048Y-121810952D02*
X177686667Y-121763333D01*
X177781905Y-121715714D01*
X177924763Y-121715714D01*
X178020001Y-121763333D01*
X178067620Y-121858571D01*
X178067620Y-122382381D01*
X178067620Y-121858571D02*
X178115239Y-121763333D01*
X178210477Y-121715714D01*
X178353334Y-121715714D01*
X178448572Y-121763333D01*
X178496191Y-121858571D01*
X178496191Y-122382381D01*
X178734286Y-122477619D02*
X179496191Y-122477619D01*
X179734286Y-122382381D02*
X179734286Y-121382381D01*
X180067620Y-122096667D01*
X180400953Y-121382381D01*
X180400953Y-122382381D01*
X180781905Y-121382381D02*
X181400953Y-121382381D01*
X181067619Y-121763333D01*
X181210477Y-121763333D01*
X181305715Y-121810952D01*
X181353334Y-121858571D01*
X181400953Y-121953810D01*
X181400953Y-122191905D01*
X181353334Y-122287143D01*
X181305715Y-122334762D01*
X181210477Y-122382381D01*
X180924762Y-122382381D01*
X180829524Y-122334762D01*
X180781905Y-122287143D01*
X181591429Y-122477619D02*
X182353334Y-122477619D01*
X182591429Y-122382381D02*
X182591429Y-121382381D01*
X182972382Y-121382381D01*
X183067620Y-121430000D01*
X183115239Y-121477619D01*
X183162858Y-121572857D01*
X183162858Y-121715714D01*
X183115239Y-121810952D01*
X183067620Y-121858571D01*
X182972382Y-121906190D01*
X182591429Y-121906190D01*
X184020001Y-122382381D02*
X184020001Y-121858571D01*
X183972382Y-121763333D01*
X183877144Y-121715714D01*
X183686667Y-121715714D01*
X183591429Y-121763333D01*
X184020001Y-122334762D02*
X183924763Y-122382381D01*
X183686667Y-122382381D01*
X183591429Y-122334762D01*
X183543810Y-122239524D01*
X183543810Y-122144286D01*
X183591429Y-122049048D01*
X183686667Y-122001429D01*
X183924763Y-122001429D01*
X184020001Y-121953810D01*
X184924763Y-122382381D02*
X184924763Y-121382381D01*
X184924763Y-122334762D02*
X184829525Y-122382381D01*
X184639048Y-122382381D01*
X184543810Y-122334762D01*
X184496191Y-122287143D01*
X184448572Y-122191905D01*
X184448572Y-121906190D01*
X184496191Y-121810952D01*
X184543810Y-121763333D01*
X184639048Y-121715714D01*
X184829525Y-121715714D01*
X184924763Y-121763333D01*
X185162858Y-122477619D02*
X185924763Y-122477619D01*
X186020001Y-121382381D02*
X186353334Y-122382381D01*
X186686668Y-121382381D01*
X187020001Y-122382381D02*
X187020001Y-121715714D01*
X187020001Y-121382381D02*
X186972382Y-121430000D01*
X187020001Y-121477619D01*
X187067620Y-121430000D01*
X187020001Y-121382381D01*
X187020001Y-121477619D01*
X187924763Y-122382381D02*
X187924763Y-121858571D01*
X187877144Y-121763333D01*
X187781906Y-121715714D01*
X187591429Y-121715714D01*
X187496191Y-121763333D01*
X187924763Y-122334762D02*
X187829525Y-122382381D01*
X187591429Y-122382381D01*
X187496191Y-122334762D01*
X187448572Y-122239524D01*
X187448572Y-122144286D01*
X187496191Y-122049048D01*
X187591429Y-122001429D01*
X187829525Y-122001429D01*
X187924763Y-121953810D01*
X161575238Y-32312381D02*
X161575238Y-31312381D01*
X161908572Y-32026667D01*
X162241905Y-31312381D01*
X162241905Y-32312381D01*
X162860952Y-32312381D02*
X162765714Y-32264762D01*
X162718095Y-32217143D01*
X162670476Y-32121905D01*
X162670476Y-31836190D01*
X162718095Y-31740952D01*
X162765714Y-31693333D01*
X162860952Y-31645714D01*
X163003810Y-31645714D01*
X163099048Y-31693333D01*
X163146667Y-31740952D01*
X163194286Y-31836190D01*
X163194286Y-32121905D01*
X163146667Y-32217143D01*
X163099048Y-32264762D01*
X163003810Y-32312381D01*
X162860952Y-32312381D01*
X164051429Y-31645714D02*
X164051429Y-32312381D01*
X163622857Y-31645714D02*
X163622857Y-32169524D01*
X163670476Y-32264762D01*
X163765714Y-32312381D01*
X163908572Y-32312381D01*
X164003810Y-32264762D01*
X164051429Y-32217143D01*
X164527619Y-31645714D02*
X164527619Y-32312381D01*
X164527619Y-31740952D02*
X164575238Y-31693333D01*
X164670476Y-31645714D01*
X164813334Y-31645714D01*
X164908572Y-31693333D01*
X164956191Y-31788571D01*
X164956191Y-32312381D01*
X165289524Y-31645714D02*
X165670476Y-31645714D01*
X165432381Y-31312381D02*
X165432381Y-32169524D01*
X165480000Y-32264762D01*
X165575238Y-32312381D01*
X165670476Y-32312381D01*
X166003810Y-32312381D02*
X166003810Y-31645714D01*
X166003810Y-31312381D02*
X165956191Y-31360000D01*
X166003810Y-31407619D01*
X166051429Y-31360000D01*
X166003810Y-31312381D01*
X166003810Y-31407619D01*
X166480000Y-31645714D02*
X166480000Y-32312381D01*
X166480000Y-31740952D02*
X166527619Y-31693333D01*
X166622857Y-31645714D01*
X166765715Y-31645714D01*
X166860953Y-31693333D01*
X166908572Y-31788571D01*
X166908572Y-32312381D01*
X167813334Y-31645714D02*
X167813334Y-32455238D01*
X167765715Y-32550476D01*
X167718096Y-32598095D01*
X167622857Y-32645714D01*
X167480000Y-32645714D01*
X167384762Y-32598095D01*
X167813334Y-32264762D02*
X167718096Y-32312381D01*
X167527619Y-32312381D01*
X167432381Y-32264762D01*
X167384762Y-32217143D01*
X167337143Y-32121905D01*
X167337143Y-31836190D01*
X167384762Y-31740952D01*
X167432381Y-31693333D01*
X167527619Y-31645714D01*
X167718096Y-31645714D01*
X167813334Y-31693333D01*
X168289524Y-32312381D02*
X168289524Y-31312381D01*
X168289524Y-31788571D02*
X168860953Y-31788571D01*
X168860953Y-32312381D02*
X168860953Y-31312381D01*
X169480000Y-32312381D02*
X169384762Y-32264762D01*
X169337143Y-32217143D01*
X169289524Y-32121905D01*
X169289524Y-31836190D01*
X169337143Y-31740952D01*
X169384762Y-31693333D01*
X169480000Y-31645714D01*
X169622858Y-31645714D01*
X169718096Y-31693333D01*
X169765715Y-31740952D01*
X169813334Y-31836190D01*
X169813334Y-32121905D01*
X169765715Y-32217143D01*
X169718096Y-32264762D01*
X169622858Y-32312381D01*
X169480000Y-32312381D01*
X170384762Y-32312381D02*
X170289524Y-32264762D01*
X170241905Y-32169524D01*
X170241905Y-31312381D01*
X171146668Y-32264762D02*
X171051430Y-32312381D01*
X170860953Y-32312381D01*
X170765715Y-32264762D01*
X170718096Y-32169524D01*
X170718096Y-31788571D01*
X170765715Y-31693333D01*
X170860953Y-31645714D01*
X171051430Y-31645714D01*
X171146668Y-31693333D01*
X171194287Y-31788571D01*
X171194287Y-31883810D01*
X170718096Y-31979048D01*
X171384763Y-32407619D02*
X172146668Y-32407619D01*
X172289525Y-31312381D02*
X172908573Y-31312381D01*
X172575239Y-31693333D01*
X172718097Y-31693333D01*
X172813335Y-31740952D01*
X172860954Y-31788571D01*
X172908573Y-31883810D01*
X172908573Y-32121905D01*
X172860954Y-32217143D01*
X172813335Y-32264762D01*
X172718097Y-32312381D01*
X172432382Y-32312381D01*
X172337144Y-32264762D01*
X172289525Y-32217143D01*
X173337144Y-32217143D02*
X173384763Y-32264762D01*
X173337144Y-32312381D01*
X173289525Y-32264762D01*
X173337144Y-32217143D01*
X173337144Y-32312381D01*
X173765715Y-31407619D02*
X173813334Y-31360000D01*
X173908572Y-31312381D01*
X174146668Y-31312381D01*
X174241906Y-31360000D01*
X174289525Y-31407619D01*
X174337144Y-31502857D01*
X174337144Y-31598095D01*
X174289525Y-31740952D01*
X173718096Y-32312381D01*
X174337144Y-32312381D01*
X174765715Y-32312381D02*
X174765715Y-31645714D01*
X174765715Y-31740952D02*
X174813334Y-31693333D01*
X174908572Y-31645714D01*
X175051430Y-31645714D01*
X175146668Y-31693333D01*
X175194287Y-31788571D01*
X175194287Y-32312381D01*
X175194287Y-31788571D02*
X175241906Y-31693333D01*
X175337144Y-31645714D01*
X175480001Y-31645714D01*
X175575239Y-31693333D01*
X175622858Y-31788571D01*
X175622858Y-32312381D01*
X176099048Y-32312381D02*
X176099048Y-31645714D01*
X176099048Y-31740952D02*
X176146667Y-31693333D01*
X176241905Y-31645714D01*
X176384763Y-31645714D01*
X176480001Y-31693333D01*
X176527620Y-31788571D01*
X176527620Y-32312381D01*
X176527620Y-31788571D02*
X176575239Y-31693333D01*
X176670477Y-31645714D01*
X176813334Y-31645714D01*
X176908572Y-31693333D01*
X176956191Y-31788571D01*
X176956191Y-32312381D01*
X177194286Y-32407619D02*
X177956191Y-32407619D01*
X178194286Y-32312381D02*
X178194286Y-31312381D01*
X178527620Y-32026667D01*
X178860953Y-31312381D01*
X178860953Y-32312381D01*
X179241905Y-31312381D02*
X179860953Y-31312381D01*
X179527619Y-31693333D01*
X179670477Y-31693333D01*
X179765715Y-31740952D01*
X179813334Y-31788571D01*
X179860953Y-31883810D01*
X179860953Y-32121905D01*
X179813334Y-32217143D01*
X179765715Y-32264762D01*
X179670477Y-32312381D01*
X179384762Y-32312381D01*
X179289524Y-32264762D01*
X179241905Y-32217143D01*
X180051429Y-32407619D02*
X180813334Y-32407619D01*
X181051429Y-32312381D02*
X181051429Y-31312381D01*
X181432382Y-31312381D01*
X181527620Y-31360000D01*
X181575239Y-31407619D01*
X181622858Y-31502857D01*
X181622858Y-31645714D01*
X181575239Y-31740952D01*
X181527620Y-31788571D01*
X181432382Y-31836190D01*
X181051429Y-31836190D01*
X182480001Y-32312381D02*
X182480001Y-31788571D01*
X182432382Y-31693333D01*
X182337144Y-31645714D01*
X182146667Y-31645714D01*
X182051429Y-31693333D01*
X182480001Y-32264762D02*
X182384763Y-32312381D01*
X182146667Y-32312381D01*
X182051429Y-32264762D01*
X182003810Y-32169524D01*
X182003810Y-32074286D01*
X182051429Y-31979048D01*
X182146667Y-31931429D01*
X182384763Y-31931429D01*
X182480001Y-31883810D01*
X183384763Y-32312381D02*
X183384763Y-31312381D01*
X183384763Y-32264762D02*
X183289525Y-32312381D01*
X183099048Y-32312381D01*
X183003810Y-32264762D01*
X182956191Y-32217143D01*
X182908572Y-32121905D01*
X182908572Y-31836190D01*
X182956191Y-31740952D01*
X183003810Y-31693333D01*
X183099048Y-31645714D01*
X183289525Y-31645714D01*
X183384763Y-31693333D01*
X183622858Y-32407619D02*
X184384763Y-32407619D01*
X184480001Y-31312381D02*
X184813334Y-32312381D01*
X185146668Y-31312381D01*
X185480001Y-32312381D02*
X185480001Y-31645714D01*
X185480001Y-31312381D02*
X185432382Y-31360000D01*
X185480001Y-31407619D01*
X185527620Y-31360000D01*
X185480001Y-31312381D01*
X185480001Y-31407619D01*
X186384763Y-32312381D02*
X186384763Y-31788571D01*
X186337144Y-31693333D01*
X186241906Y-31645714D01*
X186051429Y-31645714D01*
X185956191Y-31693333D01*
X186384763Y-32264762D02*
X186289525Y-32312381D01*
X186051429Y-32312381D01*
X185956191Y-32264762D01*
X185908572Y-32169524D01*
X185908572Y-32074286D01*
X185956191Y-31979048D01*
X186051429Y-31931429D01*
X186289525Y-31931429D01*
X186384763Y-31883810D01*
M02*
