M48
;DRILL file {KiCad 4.0.6} date 10/03/17 08:50:33
;FORMAT={-:-/ absolute / metric / decimal}
FMAT,2
METRIC,TZ
T1C0.400
T2C0.500
T3C0.800
T4C1.016
T5C1.801
%
G90
G05
M71
T1
X80.86Y-102.23
X81.05Y-96.28
X81.08Y-114.69
X81.11Y-89.49
X81.14Y-108.61
X81.14Y-119.56
X81.19Y-70.64
X81.19Y-82.95
X81.2Y-65.46
X81.27Y-75.63
X81.45Y-23.58
X81.61Y-57.3
X81.64Y-25.31
X81.73Y-31.07
X81.76Y-35.36
X81.84Y-120.92
X81.89Y-27.58
X81.95Y-39.7
X82.03Y-61.49
X82.12Y-100.16
X82.18Y-67.25
X82.22Y-68.54
X82.23Y-93.21
X82.26Y-58.9
X82.28Y-105.22
X82.31Y-85.75
X82.36Y-111.52
X82.37Y-63.06
X82.45Y-78.45
X82.45Y-116.76
X82.52Y-72.43
X82.75Y-56.77
X83.21Y-23.67
X83.25Y-64.35
X83.62Y-29.48
X83.93Y-32.5
X84.35Y-120.25
X84.43Y-37.15
X84.92Y-64.85
X85.41Y-26.21
X85.8Y-67.63
X85.97Y-23.61
X86.03Y-40.27
X86.41Y-28.77
X86.64Y-33.79
X86.72Y-63.74
X86.84Y-121.04
X86.87Y-37.41
X87.1Y-27.43
X88.24Y-64.43
X88.66Y-40.08
X89.15Y-31.17
X89.23Y-34.4
X89.42Y-25.18
X89.52Y-36.69
X89.91Y-38.28
X90.18Y-28.16
X90.22Y-67.32
X90.6Y-59.82
X90.61Y-40.46
X90.75Y-120.28
X90.94Y-63.7
X91.14Y-42.69
X91.17Y-23.44
X91.36Y-32.65
X91.45Y-44.06
X91.53Y-38.45
X91.63Y-30.29
X92.2Y-34.87
X92.45Y-41.88
X92.93Y-25.03
X92.93Y-27.36
X92.96Y-39.09
X93.32Y-36.6
X93.54Y-63.44
X94.02Y-41.21
X94.44Y-34.7
X94.45Y-29.26
X94.69Y-44.26
X94.75Y-32.77
X94.83Y-59.28
X94.91Y-67.21
X95.02Y-37.72
X95.25Y-26.97
X95.36Y-23.64
X95.58Y-120.98
X96.28Y-42.44
X96.7Y-38.75
X96.78Y-31.82
X96.81Y-62.22
X96.87Y-35.54
X97.65Y-58.67
X97.76Y-44.35
X97.88Y-30.02
X98.68Y-66.26
X98.87Y-41.
X98.95Y-27.66
X100.05Y-62.56
X100.25Y-33.64
X100.33Y-36.71
X100.93Y-31.43
X101.19Y-39.55
X101.46Y-67.13
X101.54Y-44.46
X101.59Y-57.78
X101.77Y-120.4
X102.43Y-61.94
X102.74Y-32.02
X102.96Y-27.8
X102.99Y-34.31
X103.19Y-23.97
X103.4Y-41.68
X103.86Y-36.77
X104.38Y-25.44
X104.58Y-64.32
X104.67Y-24.22
X104.71Y-26.96
X105.08Y-67.45
X105.12Y-30.32
X105.16Y-120.85
X105.19Y-32.99
X105.19Y-35.36
X105.54Y-39.17
X105.67Y-61.92
X106.72Y-38.1
X106.73Y-58.56
X106.91Y-44.39
X107.43Y-28.85
X108.18Y-68.17
X108.2Y-32.99
X108.44Y-44.31
X108.51Y-42.41
X108.52Y-64.26
X108.81Y-37.6
X108.81Y-120.43
X108.89Y-34.94
X109.28Y-30.15
X109.8Y-60.35
X110.28Y-43.73
X111.26Y-41.94
X111.63Y-48.2
X111.71Y-36.61
X111.86Y-40.23
X112.09Y-33.11
X112.15Y-63.37
X112.27Y-28.96
X112.32Y-66.89
X112.71Y-49.9
X113.45Y-35.36
X113.49Y-42.27
X113.77Y-45.34
X113.83Y-59.9
X113.92Y-121.04
X113.93Y-30.27
X115.34Y-47.
X115.72Y-37.31
X115.9Y-42.71
X116.01Y-33.39
X116.02Y-35.69
X116.21Y-39.81
X116.29Y-65.38
X116.62Y-44.93
X116.62Y-49.4
X116.69Y-28.97
X117.04Y-120.36
X117.79Y-34.14
X118.06Y-30.4
X118.11Y-37.06
X118.28Y-38.83
X118.3Y-41.01
X118.39Y-51.63
X118.63Y-61.92
X118.64Y-33.04
X118.69Y-46.38
X119.12Y-49.56
X119.12Y-50.89
X119.48Y-35.36
X119.62Y-45.09
X119.69Y-67.39
X120.36Y-47.22
X120.44Y-43.38
X120.59Y-28.5
X120.97Y-39.81
X121.26Y-59.96
X121.26Y-65.16
X121.29Y-29.25
X122.68Y-33.03
X122.72Y-120.85
X123.02Y-43.82
X123.18Y-37.34
X123.22Y-41.03
X123.33Y-34.9
X123.69Y-46.74
X123.83Y-29.7
X124.33Y-66.78
X124.89Y-62.47
X125.05Y-44.93
X125.39Y-41.78
X125.55Y-32.92
X125.78Y-39.09
X126.01Y-46.58
X126.03Y-120.36
X126.2Y-29.81
X126.45Y-37.11
X126.74Y-60.13
X126.91Y-35.39
X127.35Y-42.64
X127.63Y-29.03
X127.85Y-63.87
X127.94Y-44.87
X128.05Y-30.94
X128.13Y-40.62
X128.52Y-59.18
X128.86Y-67.11
X129.36Y-43.28
X129.42Y-39.55
X129.77Y-32.69
X129.94Y-40.71
X130.03Y-37.54
X130.15Y-30.37
X130.26Y-120.85
X130.31Y-28.97
X130.37Y-46.77
X130.42Y-64.15
X131.12Y-45.1
X131.53Y-26.84
X131.54Y-42.83
X131.6Y-60.8
X131.67Y-31.05
X131.69Y-39.41
X131.77Y-59.18
X131.9Y-33.83
X132.49Y-63.2
X132.51Y-28.69
X132.61Y-25.42
X133.16Y-35.09
X133.27Y-30.33
X133.3Y-40.45
X133.31Y-32.69
X133.75Y-27.45
X133.94Y-67.78
X134.29Y-25.34
X134.61Y-120.36
X134.94Y-31.44
X135.01Y-29.12
X135.1Y-33.97
X135.16Y-37.03
X135.19Y-27.13
X135.29Y-58.84
X135.58Y-45.46
X136.02Y-43.71
X136.85Y-65.94
X137.12Y-32.72
X137.14Y-44.56
X137.2Y-28.96
X137.22Y-37.02
X137.3Y-27.13
X137.91Y-39.95
X137.95Y-27.94
X137.97Y-34.46
X138.14Y-30.95
X138.44Y-120.99
X138.64Y-45.84
X139.78Y-31.61
X140.03Y-120.23
X140.28Y-39.89
X140.68Y-33.
X140.7Y-36.88
X140.78Y-41.8
X141.24Y-29.28
X141.39Y-53.63
X142.66Y-53.72
X142.83Y-41.07
X142.89Y-37.2
X142.97Y-52.72
X143.03Y-43.78
X143.14Y-33.19
X143.38Y-120.7
X143.41Y-29.57
X143.78Y-25.12
X145.18Y-58.13
X145.28Y-39.2
X145.45Y-35.11
X145.62Y-31.15
X145.65Y-45.85
X145.68Y-26.82
X146.04Y-41.24
X147.5Y-120.4
X147.52Y-94.06
X147.87Y-98.35
X147.93Y-73.08
X147.93Y-75.48
X147.94Y-87.67
X148.11Y-84.28
X148.2Y-70.94
X148.21Y-111.44
X148.29Y-79.03
X148.32Y-91.29
X148.7Y-92.82
X148.72Y-105.54
X148.78Y-116.32
X149.1Y-94.11
X149.1Y-101.35
X149.48Y-108.84
X149.5Y-62.33
X149.53Y-60.29
X149.54Y-57.4
X149.55Y-58.8
X149.62Y-119.6
X149.78Y-46.71
X149.8Y-78.77
X150.04Y-85.69
X150.38Y-113.69
X150.61Y-58.24
X150.61Y-59.62
X150.79Y-61.39
X151.Y-101.09
X151.14Y-98.96
X151.26Y-92.33
X151.26Y-104.65
X151.3Y-47.21
X151.61Y-62.41
X151.68Y-117.73
X151.75Y-82.05
X151.83Y-93.94
X151.84Y-78.05
X151.93Y-73.52
X151.95Y-59.33
X152.15Y-106.05
X152.18Y-60.45
X152.2Y-57.38
X152.36Y-89.19
X152.44Y-33.05
X152.48Y-46.74
X152.52Y-30.62
X152.61Y-90.64
X152.65Y-110.87
X152.82Y-82.68
X152.99Y-36.62
X153.04Y-98.43
X153.11Y-27.38
X153.21Y-61.26
X153.28Y-114.19
X153.33Y-42.89
X153.35Y-79.21
X153.36Y-39.48
X153.38Y-58.28
X153.47Y-24.84
X153.56Y-59.44
X153.71Y-76.1
X153.86Y-95.52
X153.9Y-33.53
X153.98Y-45.26
X154.Y-86.49
X154.11Y-60.23
X154.17Y-62.38
X154.29Y-30.4
X154.37Y-57.35
X154.42Y-119.72
X154.5Y-59.52
X154.81Y-106.55
X154.94Y-37.53
X155.01Y-27.94
X155.1Y-41.13
X155.12Y-43.25
X155.15Y-46.21
X155.18Y-24.89
X155.19Y-102.11
X155.21Y-116.9
X155.31Y-83.12
X155.66Y-90.41
X155.83Y-94.49
X155.94Y-89.
X156.02Y-85.34
X156.04Y-55.72
X156.13Y-111.76
X156.29Y-80.9
X156.44Y-65.8
X156.57Y-63.87
X156.82Y-54.
X156.97Y-99.19
X157.16Y-96.39
X157.38Y-55.14
X157.5Y-67.06
X157.6Y-59.24
X157.7Y-56.16
X157.81Y-37.77
X157.89Y-89.03
X157.97Y-31.91
X157.97Y-109.58
X158.09Y-65.08
X158.11Y-45.32
X158.14Y-41.66
X158.15Y-54.56
X158.15Y-91.74
X158.28Y-34.62
X158.51Y-83.39
X158.62Y-29.53
X158.64Y-99.8
X158.67Y-47.69
X158.69Y-85.08
X158.86Y-87.83
X158.94Y-56.01
X159.09Y-119.56
X159.31Y-80.99
X159.31Y-94.68
X159.37Y-71.53
X159.59Y-66.2
X159.72Y-89.52
X159.93Y-30.59
X160.04Y-36.94
X160.07Y-33.58
X160.07Y-43.14
X160.08Y-51.5
X160.15Y-40.29
X160.24Y-98.88
X160.4Y-49.99
X160.41Y-67.87
X160.66Y-93.18
X160.83Y-63.91
X160.91Y-38.64
X160.99Y-95.33
X161.02Y-34.62
X161.18Y-73.56
X161.18Y-90.59
X161.49Y-110.87
X161.52Y-32.55
X161.52Y-36.63
X161.58Y-42.8
X161.68Y-50.4
X161.79Y-44.6
X161.79Y-47.84
X161.83Y-53.9
X161.83Y-100.39
X161.94Y-29.31
X162.Y-41.21
X162.02Y-88.59
X162.19Y-64.73
X162.26Y-49.93
X162.26Y-71.55
X162.28Y-92.01
X162.33Y-96.2
X162.39Y-34.17
X162.6Y-84.46
X162.83Y-37.69
X162.99Y-66.71
X163.Y-94.16
X163.07Y-50.62
X163.09Y-63.54
X163.25Y-48.05
X163.31Y-52.87
X163.58Y-91.48
X163.67Y-76.02
X163.79Y-58.7
X163.82Y-55.05
X163.84Y-119.08
X163.93Y-87.03
X163.95Y-85.36
X164.02Y-65.91
X164.08Y-45.64
X164.09Y-39.4
X164.1Y-56.07
X164.15Y-53.72
X164.18Y-29.5
X164.18Y-42.55
X164.2Y-32.24
X164.2Y-89.72
X164.21Y-51.91
X164.21Y-74.01
X164.23Y-44.42
X164.25Y-63.93
X164.26Y-93.12
X164.33Y-62.89
X164.37Y-37.3
X164.52Y-67.21
X164.54Y-100.03
X164.59Y-34.9
X164.85Y-95.89
X164.97Y-47.32
X165.06Y-55.34
X165.25Y-52.83
X165.43Y-77.2
X165.47Y-62.18
X165.52Y-49.93
X165.59Y-42.9
X165.7Y-30.06
X165.77Y-38.14
X165.77Y-66.52
X165.83Y-32.35
X165.89Y-33.91
X165.89Y-71.77
X165.96Y-64.08
X165.98Y-48.2
X165.99Y-87.37
X166.13Y-97.93
X166.3Y-36.03
X166.31Y-54.28
X166.34Y-51.39
X166.41Y-120.31
X166.42Y-31.01
X166.61Y-74.74
X166.68Y-67.5
X166.76Y-60.43
X166.78Y-45.01
X166.78Y-47.24
X166.83Y-93.46
X166.91Y-78.51
X166.99Y-53.32
X167.07Y-42.16
X167.31Y-89.08
X167.53Y-62.9
X167.6Y-58.46
X167.68Y-39.32
X167.72Y-51.71
X167.75Y-72.73
X167.75Y-80.41
X167.75Y-92.46
X167.84Y-77.98
X167.98Y-50.46
X168.05Y-34.75
X168.09Y-97.87
X168.1Y-65.42
X168.23Y-43.97
X168.25Y-32.35
X168.25Y-95.39
X168.34Y-100.56
X168.43Y-45.31
X168.6Y-47.98
X168.82Y-29.34
X168.86Y-24.46
X168.86Y-26.14
X168.87Y-52.05
X168.9Y-41.17
X168.9Y-74.85
X169.01Y-31.09
X169.02Y-57.4
X169.04Y-36.37
X169.12Y-37.31
X169.26Y-80.36
X169.32Y-67.28
X169.36Y-50.7
X169.39Y-104.71
X169.43Y-119.
X169.45Y-49.8
X169.47Y-42.88
X169.53Y-61.73
X169.54Y-71.53
X169.61Y-59.96
X169.82Y-99.1
X169.99Y-73.48
X170.03Y-33.57
X170.23Y-106.34
X170.26Y-47.34
X170.35Y-64.77
X170.38Y-27.7
X170.43Y-76.56
X170.51Y-45.44
X170.55Y-31.9
X170.59Y-35.54
X170.66Y-81.64
X170.69Y-58.5
X170.73Y-37.8
X170.94Y-78.68
X171.05Y-50.53
X171.11Y-39.73
X171.16Y-49.95
X171.34Y-43.91
X171.48Y-65.84
X171.61Y-76.02
X171.66Y-41.49
X171.75Y-25.64
X171.78Y-120.37
X171.81Y-62.77
X171.85Y-48.28
X171.98Y-47.24
X172.21Y-59.86
X172.33Y-73.82
X172.39Y-105.55
X172.44Y-24.31
X172.78Y-77.78
X172.82Y-64.27
X172.89Y-107.46
X173.2Y-29.91
X173.24Y-27.28
X173.49Y-61.24
X173.62Y-75.49
X174.07Y-115.
X174.31Y-28.96
X174.49Y-59.48
X174.68Y-111.76
X174.96Y-77.73
X175.11Y-27.81
X175.11Y-117.04
X175.26Y-61.83
X175.37Y-24.46
X175.56Y-30.67
X175.66Y-63.79
X176.75Y-76.61
X176.97Y-25.87
X177.14Y-106.62
X177.14Y-114.39
X177.2Y-77.73
X177.22Y-59.74
X177.47Y-62.7
X177.58Y-29.3
X177.66Y-119.9
X177.75Y-109.25
X178.31Y-114.41
X178.45Y-105.17
T2
X88.69Y-46.69
X136.28Y-61.2
X136.3Y-63.37
X138.18Y-56.89
X138.23Y-59.02
X145.3Y-57.13
X147.5Y-67.18
X151.46Y-45.11
X151.49Y-35.36
X162.46Y-102.7
X162.57Y-105.61
X163.36Y-61.93
X165.2Y-59.62
T3
X84.33Y-70.1
X84.33Y-72.64
X84.33Y-75.18
X84.33Y-77.72
X84.33Y-80.26
X84.33Y-82.8
X84.33Y-85.34
X84.33Y-87.88
X84.33Y-90.42
X84.33Y-92.96
X84.33Y-95.5
X84.33Y-98.04
X84.33Y-100.58
X84.33Y-103.12
X84.33Y-105.66
X84.33Y-108.2
X84.33Y-110.74
X84.33Y-113.28
X84.33Y-115.82
X84.33Y-118.36
X86.87Y-70.1
X86.87Y-72.64
X86.87Y-75.18
X86.87Y-77.72
X86.87Y-80.26
X86.87Y-82.8
X86.87Y-85.34
X86.87Y-87.88
X86.87Y-90.42
X86.87Y-92.96
X86.87Y-95.5
X86.87Y-98.04
X86.87Y-100.58
X86.87Y-103.12
X86.87Y-105.66
X86.87Y-108.2
X86.87Y-110.74
X86.87Y-113.28
X86.87Y-115.82
X86.87Y-118.36
X89.41Y-70.1
X89.41Y-72.64
X89.41Y-75.18
X89.41Y-77.72
X89.41Y-80.26
X89.41Y-82.8
X89.41Y-85.34
X89.41Y-87.88
X89.41Y-90.42
X89.41Y-92.96
X89.41Y-95.5
X89.41Y-98.04
X89.41Y-100.58
X89.41Y-103.12
X89.41Y-105.66
X89.41Y-108.2
X89.41Y-110.74
X89.41Y-113.28
X89.41Y-115.82
X89.41Y-118.36
X91.95Y-70.1
X91.95Y-72.64
X91.95Y-75.18
X91.95Y-77.72
X91.95Y-80.26
X91.95Y-82.8
X91.95Y-85.34
X91.95Y-87.88
X91.95Y-90.42
X91.95Y-92.96
X91.95Y-95.5
X91.95Y-98.04
X91.95Y-100.58
X91.95Y-103.12
X91.95Y-105.66
X91.95Y-108.2
X91.95Y-110.74
X91.95Y-113.28
X91.95Y-115.82
X91.95Y-118.36
X94.49Y-70.1
X94.49Y-72.64
X94.49Y-75.18
X94.49Y-77.72
X94.49Y-80.26
X94.49Y-82.8
X94.49Y-85.34
X94.49Y-87.88
X94.49Y-90.42
X94.49Y-92.96
X94.49Y-95.5
X94.49Y-98.04
X94.49Y-100.58
X94.49Y-103.12
X94.49Y-105.66
X94.49Y-108.2
X94.49Y-110.74
X94.49Y-113.28
X94.49Y-115.82
X94.49Y-118.36
X97.03Y-70.1
X97.03Y-72.64
X97.03Y-75.18
X97.03Y-77.72
X97.03Y-80.26
X97.03Y-82.8
X97.03Y-85.34
X97.03Y-87.88
X97.03Y-90.42
X97.03Y-92.96
X97.03Y-95.5
X97.03Y-98.04
X97.03Y-100.58
X97.03Y-103.12
X97.03Y-105.66
X97.03Y-108.2
X97.03Y-110.74
X97.03Y-113.28
X97.03Y-115.82
X97.03Y-118.36
X99.57Y-70.1
X99.57Y-72.64
X99.57Y-75.18
X99.57Y-77.72
X99.57Y-80.26
X99.57Y-82.8
X99.57Y-85.34
X99.57Y-87.88
X99.57Y-90.42
X99.57Y-92.96
X99.57Y-95.5
X99.57Y-98.04
X99.57Y-100.58
X99.57Y-103.12
X99.57Y-105.66
X99.57Y-108.2
X99.57Y-110.74
X99.57Y-113.28
X99.57Y-115.82
X99.57Y-118.36
X102.11Y-70.1
X102.11Y-72.64
X102.11Y-75.18
X102.11Y-77.72
X102.11Y-80.26
X102.11Y-82.8
X102.11Y-85.34
X102.11Y-87.88
X102.11Y-90.42
X102.11Y-92.96
X102.11Y-95.5
X102.11Y-98.04
X102.11Y-100.58
X102.11Y-103.12
X102.11Y-105.66
X102.11Y-108.2
X102.11Y-110.74
X102.11Y-113.28
X102.11Y-115.82
X102.11Y-118.36
X104.65Y-70.1
X104.65Y-72.64
X104.65Y-75.18
X104.65Y-77.72
X104.65Y-80.26
X104.65Y-82.8
X104.65Y-85.34
X104.65Y-87.88
X104.65Y-90.42
X104.65Y-92.96
X104.65Y-95.5
X104.65Y-98.04
X104.65Y-100.58
X104.65Y-103.12
X104.65Y-105.66
X104.65Y-108.2
X104.65Y-110.74
X104.65Y-113.28
X104.65Y-115.82
X104.65Y-118.36
X107.19Y-70.1
X107.19Y-72.64
X107.19Y-75.18
X107.19Y-77.72
X107.19Y-80.26
X107.19Y-82.8
X107.19Y-85.34
X107.19Y-87.88
X107.19Y-90.42
X107.19Y-92.96
X107.19Y-95.5
X107.19Y-98.04
X107.19Y-100.58
X107.19Y-103.12
X107.19Y-105.66
X107.19Y-108.2
X107.19Y-110.74
X107.19Y-113.28
X107.19Y-115.82
X107.19Y-118.36
X109.73Y-70.1
X109.73Y-72.64
X109.73Y-75.18
X109.73Y-77.72
X109.73Y-80.26
X109.73Y-82.8
X109.73Y-85.34
X109.73Y-87.88
X109.73Y-90.42
X109.73Y-92.96
X109.73Y-95.5
X109.73Y-98.04
X109.73Y-100.58
X109.73Y-103.12
X109.73Y-105.66
X109.73Y-108.2
X109.73Y-110.74
X109.73Y-113.28
X109.73Y-115.82
X109.73Y-118.36
X112.27Y-70.1
X112.27Y-72.64
X112.27Y-75.18
X112.27Y-77.72
X112.27Y-80.26
X112.27Y-82.8
X112.27Y-85.34
X112.27Y-87.88
X112.27Y-90.42
X112.27Y-92.96
X112.27Y-95.5
X112.27Y-98.04
X112.27Y-100.58
X112.27Y-103.12
X112.27Y-105.66
X112.27Y-108.2
X112.27Y-110.74
X112.27Y-113.28
X112.27Y-115.82
X112.27Y-118.36
X114.81Y-70.1
X114.81Y-72.64
X114.81Y-75.18
X114.81Y-77.72
X114.81Y-80.26
X114.81Y-82.8
X114.81Y-85.34
X114.81Y-87.88
X114.81Y-90.42
X114.81Y-92.96
X114.81Y-95.5
X114.81Y-98.04
X114.81Y-100.58
X114.81Y-103.12
X114.81Y-105.66
X114.81Y-108.2
X114.81Y-110.74
X114.81Y-113.28
X114.81Y-115.82
X114.81Y-118.36
X117.35Y-70.1
X117.35Y-72.64
X117.35Y-75.18
X117.35Y-77.72
X117.35Y-80.26
X117.35Y-82.8
X117.35Y-85.34
X117.35Y-87.88
X117.35Y-90.42
X117.35Y-92.96
X117.35Y-95.5
X117.35Y-98.04
X117.35Y-100.58
X117.35Y-103.12
X117.35Y-105.66
X117.35Y-108.2
X117.35Y-110.74
X117.35Y-113.28
X117.35Y-115.82
X117.35Y-118.36
X119.89Y-70.1
X119.89Y-72.64
X119.89Y-75.18
X119.89Y-77.72
X119.89Y-80.26
X119.89Y-82.8
X119.89Y-85.34
X119.89Y-87.88
X119.89Y-90.42
X119.89Y-92.96
X119.89Y-95.5
X119.89Y-98.04
X119.89Y-100.58
X119.89Y-103.12
X119.89Y-105.66
X119.89Y-108.2
X119.89Y-110.74
X119.89Y-113.28
X119.89Y-115.82
X119.89Y-118.36
X122.43Y-70.1
X122.43Y-72.64
X122.43Y-75.18
X122.43Y-77.72
X122.43Y-80.26
X122.43Y-82.8
X122.43Y-85.34
X122.43Y-87.88
X122.43Y-90.42
X122.43Y-92.96
X122.43Y-95.5
X122.43Y-98.04
X122.43Y-100.58
X122.43Y-103.12
X122.43Y-105.66
X122.43Y-108.2
X122.43Y-110.74
X122.43Y-113.28
X122.43Y-115.82
X122.43Y-118.36
X124.97Y-70.1
X124.97Y-72.64
X124.97Y-75.18
X124.97Y-77.72
X124.97Y-80.26
X124.97Y-82.8
X124.97Y-85.34
X124.97Y-87.88
X124.97Y-90.42
X124.97Y-92.96
X124.97Y-95.5
X124.97Y-98.04
X124.97Y-100.58
X124.97Y-103.12
X124.97Y-105.66
X124.97Y-108.2
X124.97Y-110.74
X124.97Y-113.28
X124.97Y-115.82
X124.97Y-118.36
X127.51Y-70.1
X127.51Y-72.64
X127.51Y-75.18
X127.51Y-77.72
X127.51Y-80.26
X127.51Y-82.8
X127.51Y-85.34
X127.51Y-87.88
X127.51Y-90.42
X127.51Y-92.96
X127.51Y-95.5
X127.51Y-98.04
X127.51Y-100.58
X127.51Y-103.12
X127.51Y-105.66
X127.51Y-108.2
X127.51Y-110.74
X127.51Y-113.28
X127.51Y-115.82
X127.51Y-118.36
X130.05Y-70.1
X130.05Y-72.64
X130.05Y-75.18
X130.05Y-77.72
X130.05Y-80.26
X130.05Y-82.8
X130.05Y-85.34
X130.05Y-87.88
X130.05Y-90.42
X130.05Y-92.96
X130.05Y-95.5
X130.05Y-98.04
X130.05Y-100.58
X130.05Y-103.12
X130.05Y-105.66
X130.05Y-108.2
X130.05Y-110.74
X130.05Y-113.28
X130.05Y-115.82
X130.05Y-118.36
X132.59Y-70.1
X132.59Y-72.64
X132.59Y-75.18
X132.59Y-77.72
X132.59Y-80.26
X132.59Y-82.8
X132.59Y-85.34
X132.59Y-87.88
X132.59Y-90.42
X132.59Y-92.96
X132.59Y-95.5
X132.59Y-98.04
X132.59Y-100.58
X132.59Y-103.12
X132.59Y-105.66
X132.59Y-108.2
X132.59Y-110.74
X132.59Y-113.28
X132.59Y-115.82
X132.59Y-118.36
X135.13Y-70.1
X135.13Y-72.64
X135.13Y-75.18
X135.13Y-77.72
X135.13Y-80.26
X135.13Y-82.8
X135.13Y-85.34
X135.13Y-87.88
X135.13Y-90.42
X135.13Y-92.96
X135.13Y-95.5
X135.13Y-98.04
X135.13Y-100.58
X135.13Y-103.12
X135.13Y-105.66
X135.13Y-108.2
X135.13Y-110.74
X135.13Y-113.28
X135.13Y-115.82
X135.13Y-118.36
X137.67Y-70.1
X137.67Y-72.64
X137.67Y-75.18
X137.67Y-77.72
X137.67Y-80.26
X137.67Y-82.8
X137.67Y-85.34
X137.67Y-87.88
X137.67Y-90.42
X137.67Y-92.96
X137.67Y-95.5
X137.67Y-98.04
X137.67Y-100.58
X137.67Y-103.12
X137.67Y-105.66
X137.67Y-108.2
X137.67Y-110.74
X137.67Y-113.28
X137.67Y-115.82
X137.67Y-118.36
X140.21Y-70.1
X140.21Y-72.64
X140.21Y-75.18
X140.21Y-77.72
X140.21Y-80.26
X140.21Y-82.8
X140.21Y-85.34
X140.21Y-87.88
X140.21Y-90.42
X140.21Y-92.96
X140.21Y-95.5
X140.21Y-98.04
X140.21Y-100.58
X140.21Y-103.12
X140.21Y-105.66
X140.21Y-108.2
X140.21Y-110.74
X140.21Y-113.28
X140.21Y-115.82
X140.21Y-118.36
X142.75Y-70.1
X142.75Y-72.64
X142.75Y-75.18
X142.75Y-77.72
X142.75Y-80.26
X142.75Y-82.8
X142.75Y-85.34
X142.75Y-87.88
X142.75Y-90.42
X142.75Y-92.96
X142.75Y-95.5
X142.75Y-98.04
X142.75Y-100.58
X142.75Y-103.12
X142.75Y-105.66
X142.75Y-108.2
X142.75Y-110.74
X142.75Y-113.28
X142.75Y-115.82
X142.75Y-118.36
X145.29Y-70.1
X145.29Y-72.64
X145.29Y-75.18
X145.29Y-77.72
X145.29Y-80.26
X145.29Y-82.8
X145.29Y-85.34
X145.29Y-87.88
X145.29Y-90.42
X145.29Y-92.96
X145.29Y-95.5
X145.29Y-98.04
X145.29Y-100.58
X145.29Y-103.12
X145.29Y-105.66
X145.29Y-108.2
X145.29Y-110.74
X145.29Y-113.28
X145.29Y-115.82
X145.29Y-118.36
T4
X98.09Y-24.54
X100.63Y-24.54
X106.79Y-24.53
X106.79Y-27.07
X108.65Y-54.03
X109.33Y-24.53
X109.33Y-27.07
X111.19Y-54.03
X111.87Y-24.53
X111.87Y-27.07
X114.41Y-24.53
X114.41Y-27.07
X116.95Y-24.53
X116.95Y-27.07
X119.49Y-24.53
X119.49Y-27.07
X122.03Y-24.53
X122.03Y-27.07
X124.57Y-24.53
X124.57Y-27.07
X127.11Y-24.53
X127.11Y-27.07
X129.65Y-24.53
X129.65Y-27.07
X131.73Y-54.13
X134.27Y-54.13
X136.35Y-25.31
X138.89Y-25.31
X141.43Y-25.31
X148.08Y-25.4
X148.08Y-27.94
X150.62Y-25.4
X150.62Y-27.94
X158.24Y-25.07
X158.24Y-27.61
X160.78Y-25.07
X160.78Y-27.61
X163.32Y-25.07
X163.32Y-27.61
X165.86Y-25.07
X165.86Y-27.61
X173.99Y-33.78
X173.99Y-36.32
X173.99Y-38.86
X173.99Y-41.4
X173.99Y-43.94
X173.99Y-46.48
X173.99Y-49.02
X173.99Y-51.56
X173.99Y-54.1
X173.99Y-56.64
X174.37Y-80.54
X174.37Y-83.08
X174.37Y-85.62
X174.37Y-88.16
X174.37Y-90.7
X174.37Y-93.24
X174.37Y-95.78
X174.37Y-98.32
X174.37Y-100.86
X174.37Y-103.4
X176.47Y-66.43
X176.47Y-68.97
X176.47Y-71.51
X176.47Y-74.05
X176.53Y-33.78
X176.53Y-36.32
X176.53Y-38.86
X176.53Y-41.4
X176.53Y-43.94
X176.53Y-46.48
X176.53Y-49.02
X176.53Y-51.56
X176.53Y-54.1
X176.53Y-56.64
X176.91Y-80.54
X176.91Y-83.08
X176.91Y-85.62
X176.91Y-88.16
X176.91Y-90.7
X176.91Y-93.24
X176.91Y-95.78
X176.91Y-98.32
X176.91Y-100.86
X176.91Y-103.4
T5
X86.32Y-49.269
X86.32Y-53.229
X86.32Y-57.191
X86.32Y-61.151
X158.309Y-115.25
X162.269Y-115.25
X166.231Y-115.25
X170.191Y-115.25
T0
M30
