G04 #@! TF.FileFunction,Paste,Top*
%FSLAX46Y46*%
G04 Gerber Fmt 4.6, Leading zero omitted, Abs format (unit mm)*
G04 Created by KiCad (PCBNEW 4.0.6) date 10/05/17 08:54:31*
%MOMM*%
%LPD*%
G01*
G04 APERTURE LIST*
%ADD10C,0.100000*%
%ADD11R,2.032000X3.657600*%
%ADD12R,2.032000X1.016000*%
%ADD13R,1.250000X1.500000*%
%ADD14R,1.300000X1.500000*%
%ADD15R,1.600000X0.550000*%
%ADD16R,0.550000X1.600000*%
%ADD17R,1.500000X1.300000*%
%ADD18R,2.300000X1.200000*%
%ADD19R,1.000000X1.000000*%
%ADD20R,1.100000X1.800000*%
%ADD21R,1.500000X1.250000*%
G04 APERTURE END LIST*
D10*
D11*
X127632000Y-54260000D03*
D12*
X121028000Y-54260000D03*
X121028000Y-56546000D03*
X121028000Y-51974000D03*
D13*
X98000000Y-53940000D03*
X98000000Y-56440000D03*
X94220000Y-53920000D03*
X94220000Y-56420000D03*
D14*
X84380000Y-42290000D03*
X84380000Y-44990000D03*
X88450000Y-45000000D03*
X88450000Y-42300000D03*
D15*
X147590000Y-57120000D03*
X147590000Y-57920000D03*
X147590000Y-58720000D03*
X147590000Y-59520000D03*
X147590000Y-60320000D03*
X147590000Y-61120000D03*
X147590000Y-61920000D03*
X147590000Y-62720000D03*
D16*
X149040000Y-64170000D03*
X149840000Y-64170000D03*
X150640000Y-64170000D03*
X151440000Y-64170000D03*
X152240000Y-64170000D03*
X153040000Y-64170000D03*
X153840000Y-64170000D03*
X154640000Y-64170000D03*
D15*
X156090000Y-62720000D03*
X156090000Y-61920000D03*
X156090000Y-61120000D03*
X156090000Y-60320000D03*
X156090000Y-59520000D03*
X156090000Y-58720000D03*
X156090000Y-57920000D03*
X156090000Y-57120000D03*
D16*
X154640000Y-55670000D03*
X153840000Y-55670000D03*
X153040000Y-55670000D03*
X152240000Y-55670000D03*
X151440000Y-55670000D03*
X150640000Y-55670000D03*
X149840000Y-55670000D03*
X149040000Y-55670000D03*
D14*
X118380000Y-55810000D03*
X118380000Y-53110000D03*
D17*
X123800000Y-49560000D03*
X121100000Y-49560000D03*
X158140000Y-106570000D03*
X160840000Y-106570000D03*
X160910000Y-102680000D03*
X158210000Y-102680000D03*
X158860000Y-61940000D03*
X161560000Y-61940000D03*
X142880000Y-59010000D03*
X140180000Y-59010000D03*
X142860000Y-56900000D03*
X140160000Y-56900000D03*
X140770000Y-61180000D03*
X138070000Y-61180000D03*
X140770000Y-63360000D03*
X138070000Y-63360000D03*
D14*
X133610000Y-45560000D03*
X133610000Y-48260000D03*
D17*
X130930000Y-42410000D03*
X133630000Y-42410000D03*
D18*
X143620000Y-61490000D03*
X143620000Y-63090000D03*
D19*
X151200000Y-49620000D03*
X151200000Y-51620000D03*
D20*
X147730000Y-37020000D03*
X147730000Y-43220000D03*
X151430000Y-43220000D03*
X151430000Y-37020000D03*
D21*
X167020000Y-102640000D03*
X164520000Y-102640000D03*
X166950000Y-106490000D03*
X164450000Y-106490000D03*
D17*
X150740000Y-33190000D03*
X148040000Y-33190000D03*
X161580000Y-59740000D03*
X158880000Y-59740000D03*
X87750000Y-31850000D03*
X90450000Y-31850000D03*
D14*
X85425000Y-36575000D03*
X85425000Y-33875000D03*
M02*
