G04 #@! TF.FileFunction,Legend,Top*
%FSLAX46Y46*%
G04 Gerber Fmt 4.6, Leading zero omitted, Abs format (unit mm)*
G04 Created by KiCad (PCBNEW 4.0.6) date 10/03/17 08:09:52*
%MOMM*%
%LPD*%
G01*
G04 APERTURE LIST*
%ADD10C,0.100000*%
%ADD11C,0.150000*%
%ADD12C,0.120000*%
G04 APERTURE END LIST*
D10*
D11*
X122806000Y-50704000D02*
X119758000Y-50704000D01*
X119758000Y-50704000D02*
X119758000Y-57816000D01*
X119758000Y-57816000D02*
X122806000Y-57816000D01*
X125854000Y-50704000D02*
X126616000Y-50704000D01*
X126616000Y-50704000D02*
X128902000Y-52228000D01*
X128902000Y-52228000D02*
X128902000Y-56292000D01*
X128902000Y-56292000D02*
X126616000Y-57816000D01*
X126616000Y-57816000D02*
X125854000Y-57816000D01*
X98850000Y-55690000D02*
X98850000Y-54690000D01*
X97150000Y-54690000D02*
X97150000Y-55690000D01*
X95070000Y-55670000D02*
X95070000Y-54670000D01*
X93370000Y-54670000D02*
X93370000Y-55670000D01*
X83505000Y-44240000D02*
X83505000Y-43040000D01*
X85255000Y-43040000D02*
X85255000Y-44240000D01*
X89325000Y-43050000D02*
X89325000Y-44250000D01*
X87575000Y-44250000D02*
X87575000Y-43050000D01*
X148215000Y-56295000D02*
X148215000Y-56620000D01*
X155465000Y-56295000D02*
X155465000Y-56620000D01*
X155465000Y-63545000D02*
X155465000Y-63220000D01*
X148215000Y-63545000D02*
X148215000Y-63220000D01*
X148215000Y-56295000D02*
X148540000Y-56295000D01*
X148215000Y-63545000D02*
X148540000Y-63545000D01*
X155465000Y-63545000D02*
X155140000Y-63545000D01*
X155465000Y-56295000D02*
X155140000Y-56295000D01*
X148215000Y-56620000D02*
X146790000Y-56620000D01*
X119255000Y-53860000D02*
X119255000Y-55060000D01*
X117505000Y-55060000D02*
X117505000Y-53860000D01*
X121850000Y-48685000D02*
X123050000Y-48685000D01*
X123050000Y-50435000D02*
X121850000Y-50435000D01*
X160090000Y-107445000D02*
X158890000Y-107445000D01*
X158890000Y-105695000D02*
X160090000Y-105695000D01*
X158960000Y-101805000D02*
X160160000Y-101805000D01*
X160160000Y-103555000D02*
X158960000Y-103555000D01*
X160810000Y-62815000D02*
X159610000Y-62815000D01*
X159610000Y-61065000D02*
X160810000Y-61065000D01*
X140930000Y-58135000D02*
X142130000Y-58135000D01*
X142130000Y-59885000D02*
X140930000Y-59885000D01*
X140910000Y-56025000D02*
X142110000Y-56025000D01*
X142110000Y-57775000D02*
X140910000Y-57775000D01*
X107100000Y-55580000D02*
X108650000Y-55580000D01*
X112460000Y-55300000D02*
X109920000Y-55300000D01*
X109920000Y-55300000D02*
X109920000Y-52760000D01*
X108650000Y-52480000D02*
X107100000Y-52480000D01*
X107100000Y-52480000D02*
X107100000Y-55580000D01*
X109920000Y-52760000D02*
X112460000Y-52760000D01*
X112460000Y-52760000D02*
X112460000Y-55300000D01*
X130180000Y-55680000D02*
X131730000Y-55680000D01*
X135540000Y-55400000D02*
X133000000Y-55400000D01*
X133000000Y-55400000D02*
X133000000Y-52860000D01*
X131730000Y-52580000D02*
X130180000Y-52580000D01*
X130180000Y-52580000D02*
X130180000Y-55680000D01*
X133000000Y-52860000D02*
X135540000Y-52860000D01*
X135540000Y-52860000D02*
X135540000Y-55400000D01*
X138820000Y-60305000D02*
X140020000Y-60305000D01*
X140020000Y-62055000D02*
X138820000Y-62055000D01*
X138820000Y-62485000D02*
X140020000Y-62485000D01*
X140020000Y-64235000D02*
X138820000Y-64235000D01*
X132735000Y-47510000D02*
X132735000Y-46310000D01*
X134485000Y-46310000D02*
X134485000Y-47510000D01*
X136955000Y-46350000D02*
X136955000Y-47550000D01*
X135205000Y-47550000D02*
X135205000Y-46350000D01*
X177800000Y-32510000D02*
X177800000Y-57910000D01*
X172720000Y-55370000D02*
X172720000Y-32510000D01*
X177800000Y-32510000D02*
X172720000Y-32510000D01*
X177800000Y-57910000D02*
X175260000Y-57910000D01*
X172440000Y-56640000D02*
X172440000Y-58190000D01*
X175260000Y-57910000D02*
X175260000Y-55370000D01*
X175260000Y-55370000D02*
X172720000Y-55370000D01*
X172440000Y-58190000D02*
X173990000Y-58190000D01*
X173100000Y-104670000D02*
X173100000Y-79270000D01*
X178180000Y-81810000D02*
X178180000Y-104670000D01*
X173100000Y-104670000D02*
X178180000Y-104670000D01*
X173100000Y-79270000D02*
X175640000Y-79270000D01*
X178460000Y-80540000D02*
X178460000Y-78990000D01*
X175640000Y-79270000D02*
X175640000Y-81810000D01*
X175640000Y-81810000D02*
X178180000Y-81810000D01*
X178460000Y-78990000D02*
X176910000Y-78990000D01*
X130920000Y-28340000D02*
X105520000Y-28340000D01*
X108060000Y-23260000D02*
X130920000Y-23260000D01*
X130920000Y-28340000D02*
X130920000Y-23260000D01*
X105520000Y-28340000D02*
X105520000Y-25800000D01*
X106790000Y-22980000D02*
X105240000Y-22980000D01*
X105520000Y-25800000D02*
X108060000Y-25800000D01*
X108060000Y-25800000D02*
X108060000Y-23260000D01*
X105240000Y-22980000D02*
X105240000Y-24530000D01*
X175200000Y-72780000D02*
X175200000Y-65160000D01*
X177740000Y-72780000D02*
X177740000Y-65160000D01*
X178020000Y-75600000D02*
X178020000Y-74050000D01*
X175200000Y-65160000D02*
X177740000Y-65160000D01*
X177740000Y-72780000D02*
X175200000Y-72780000D01*
X174920000Y-74050000D02*
X174920000Y-75600000D01*
X174920000Y-75600000D02*
X178020000Y-75600000D01*
X159510000Y-23800000D02*
X167130000Y-23800000D01*
X167130000Y-23800000D02*
X167130000Y-28880000D01*
X167130000Y-28880000D02*
X156970000Y-28880000D01*
X156970000Y-28880000D02*
X156970000Y-26340000D01*
X158240000Y-23520000D02*
X156690000Y-23520000D01*
X156970000Y-26340000D02*
X159510000Y-26340000D01*
X159510000Y-26340000D02*
X159510000Y-23800000D01*
X156690000Y-23520000D02*
X156690000Y-25070000D01*
D12*
X144420000Y-61740000D02*
X144420000Y-62840000D01*
X142820000Y-61740000D02*
X142820000Y-62840000D01*
D10*
X151200000Y-50620000D02*
X151200000Y-50620000D01*
X151200000Y-50620000D02*
X151200000Y-50620000D01*
D12*
X150880000Y-42320000D02*
X150880000Y-37920000D01*
X150880000Y-42320000D02*
X148280000Y-42320000D01*
X148280000Y-37920000D02*
X150880000Y-37920000D01*
X148280000Y-42320000D02*
X148280000Y-37920000D01*
D11*
X91420320Y-62751260D02*
X91968960Y-62751260D01*
X91968960Y-62751260D02*
X91968960Y-47668740D01*
X91968960Y-47668740D02*
X91420320Y-47668740D01*
X84120360Y-47668740D02*
X81219680Y-47668740D01*
X81219680Y-47668740D02*
X81219680Y-58771080D01*
X88519640Y-62751260D02*
X91420320Y-62751260D01*
X91420320Y-62751260D02*
X91420320Y-47668740D01*
X91420320Y-47668740D02*
X88519640Y-47668740D01*
X81219680Y-58771080D02*
X81219680Y-61151060D01*
X81219680Y-61151060D02*
X81219680Y-62751260D01*
X81219680Y-62751260D02*
X84120360Y-62751260D01*
X156708740Y-120350320D02*
X156708740Y-120898960D01*
X156708740Y-120898960D02*
X171791260Y-120898960D01*
X171791260Y-120898960D02*
X171791260Y-120350320D01*
X171791260Y-113050360D02*
X171791260Y-110149680D01*
X171791260Y-110149680D02*
X160688920Y-110149680D01*
X156708740Y-117449640D02*
X156708740Y-120350320D01*
X156708740Y-120350320D02*
X171791260Y-120350320D01*
X171791260Y-120350320D02*
X171791260Y-117449640D01*
X160688920Y-110149680D02*
X158308940Y-110149680D01*
X158308940Y-110149680D02*
X156708740Y-110149680D01*
X156708740Y-110149680D02*
X156708740Y-113050360D01*
X137620000Y-26580000D02*
X142700000Y-26580000D01*
X142700000Y-26580000D02*
X142700000Y-24040000D01*
X142700000Y-24040000D02*
X137620000Y-24040000D01*
X134800000Y-23760000D02*
X136350000Y-23760000D01*
X137620000Y-24040000D02*
X137620000Y-26580000D01*
X136350000Y-26860000D02*
X134800000Y-26860000D01*
X134800000Y-26860000D02*
X134800000Y-23760000D01*
X102180000Y-22990000D02*
X100630000Y-22990000D01*
X96820000Y-23270000D02*
X99360000Y-23270000D01*
X99360000Y-23270000D02*
X99360000Y-25810000D01*
X100630000Y-26090000D02*
X102180000Y-26090000D01*
X102180000Y-26090000D02*
X102180000Y-22990000D01*
X99360000Y-25810000D02*
X96820000Y-25810000D01*
X96820000Y-25810000D02*
X96820000Y-23270000D01*
X165270000Y-103490000D02*
X166270000Y-103490000D01*
X166270000Y-101790000D02*
X165270000Y-101790000D01*
X165200000Y-107340000D02*
X166200000Y-107340000D01*
X166200000Y-105640000D02*
X165200000Y-105640000D01*
X148790000Y-32315000D02*
X149990000Y-32315000D01*
X149990000Y-34065000D02*
X148790000Y-34065000D01*
X146530000Y-23850000D02*
X146530000Y-25400000D01*
X148080000Y-23850000D02*
X146530000Y-23850000D01*
X148080000Y-23850000D02*
X146530000Y-23850000D01*
X149350000Y-24130000D02*
X149350000Y-26670000D01*
X149350000Y-26670000D02*
X146810000Y-26670000D01*
X146810000Y-26670000D02*
X146810000Y-29210000D01*
X146810000Y-29210000D02*
X151890000Y-29210000D01*
X151890000Y-29210000D02*
X151890000Y-24130000D01*
X151890000Y-24130000D02*
X149350000Y-24130000D01*
X159630000Y-58865000D02*
X160830000Y-58865000D01*
X160830000Y-60615000D02*
X159630000Y-60615000D01*
X124544381Y-55021905D02*
X125353905Y-55021905D01*
X125449143Y-54974286D01*
X125496762Y-54926667D01*
X125544381Y-54831429D01*
X125544381Y-54640952D01*
X125496762Y-54545714D01*
X125449143Y-54498095D01*
X125353905Y-54450476D01*
X124544381Y-54450476D01*
X124877714Y-53545714D02*
X125544381Y-53545714D01*
X124496762Y-53783810D02*
X125211048Y-54021905D01*
X125211048Y-53402857D01*
X98567143Y-59792857D02*
X98614762Y-59840476D01*
X98662381Y-59983333D01*
X98662381Y-60078571D01*
X98614762Y-60221429D01*
X98519524Y-60316667D01*
X98424286Y-60364286D01*
X98233810Y-60411905D01*
X98090952Y-60411905D01*
X97900476Y-60364286D01*
X97805238Y-60316667D01*
X97710000Y-60221429D01*
X97662381Y-60078571D01*
X97662381Y-59983333D01*
X97710000Y-59840476D01*
X97757619Y-59792857D01*
X97662381Y-59459524D02*
X97662381Y-58840476D01*
X98043333Y-59173810D01*
X98043333Y-59030952D01*
X98090952Y-58935714D01*
X98138571Y-58888095D01*
X98233810Y-58840476D01*
X98471905Y-58840476D01*
X98567143Y-58888095D01*
X98614762Y-58935714D01*
X98662381Y-59030952D01*
X98662381Y-59316667D01*
X98614762Y-59411905D01*
X98567143Y-59459524D01*
X97757619Y-58459524D02*
X97710000Y-58411905D01*
X97662381Y-58316667D01*
X97662381Y-58078571D01*
X97710000Y-57983333D01*
X97757619Y-57935714D01*
X97852857Y-57888095D01*
X97948095Y-57888095D01*
X98090952Y-57935714D01*
X98662381Y-58507143D01*
X98662381Y-57888095D01*
X94627143Y-59712857D02*
X94674762Y-59760476D01*
X94722381Y-59903333D01*
X94722381Y-59998571D01*
X94674762Y-60141429D01*
X94579524Y-60236667D01*
X94484286Y-60284286D01*
X94293810Y-60331905D01*
X94150952Y-60331905D01*
X93960476Y-60284286D01*
X93865238Y-60236667D01*
X93770000Y-60141429D01*
X93722381Y-59998571D01*
X93722381Y-59903333D01*
X93770000Y-59760476D01*
X93817619Y-59712857D01*
X93722381Y-59379524D02*
X93722381Y-58760476D01*
X94103333Y-59093810D01*
X94103333Y-58950952D01*
X94150952Y-58855714D01*
X94198571Y-58808095D01*
X94293810Y-58760476D01*
X94531905Y-58760476D01*
X94627143Y-58808095D01*
X94674762Y-58855714D01*
X94722381Y-58950952D01*
X94722381Y-59236667D01*
X94674762Y-59331905D01*
X94627143Y-59379524D01*
X93722381Y-58427143D02*
X93722381Y-57808095D01*
X94103333Y-58141429D01*
X94103333Y-57998571D01*
X94150952Y-57903333D01*
X94198571Y-57855714D01*
X94293810Y-57808095D01*
X94531905Y-57808095D01*
X94627143Y-57855714D01*
X94674762Y-57903333D01*
X94722381Y-57998571D01*
X94722381Y-58284286D01*
X94674762Y-58379524D01*
X94627143Y-58427143D01*
X83810953Y-40942381D02*
X83239524Y-40942381D01*
X83525238Y-40942381D02*
X83525238Y-39942381D01*
X83430000Y-40085238D01*
X83334762Y-40180476D01*
X83239524Y-40228095D01*
X84191905Y-40037619D02*
X84239524Y-39990000D01*
X84334762Y-39942381D01*
X84572858Y-39942381D01*
X84668096Y-39990000D01*
X84715715Y-40037619D01*
X84763334Y-40132857D01*
X84763334Y-40228095D01*
X84715715Y-40370952D01*
X84144286Y-40942381D01*
X84763334Y-40942381D01*
X85049048Y-39942381D02*
X85382381Y-40942381D01*
X85715715Y-39942381D01*
X90672381Y-43846666D02*
X90196190Y-44180000D01*
X90672381Y-44418095D02*
X89672381Y-44418095D01*
X89672381Y-44037142D01*
X89720000Y-43941904D01*
X89767619Y-43894285D01*
X89862857Y-43846666D01*
X90005714Y-43846666D01*
X90100952Y-43894285D01*
X90148571Y-43941904D01*
X90196190Y-44037142D01*
X90196190Y-44418095D01*
X89672381Y-43513333D02*
X89672381Y-42846666D01*
X90672381Y-43275238D01*
X151078095Y-53322381D02*
X151078095Y-54131905D01*
X151125714Y-54227143D01*
X151173333Y-54274762D01*
X151268571Y-54322381D01*
X151459048Y-54322381D01*
X151554286Y-54274762D01*
X151601905Y-54227143D01*
X151649524Y-54131905D01*
X151649524Y-53322381D01*
X152649524Y-54322381D02*
X152078095Y-54322381D01*
X152363809Y-54322381D02*
X152363809Y-53322381D01*
X152268571Y-53465238D01*
X152173333Y-53560476D01*
X152078095Y-53608095D01*
X116637143Y-54626666D02*
X116684762Y-54674285D01*
X116732381Y-54817142D01*
X116732381Y-54912380D01*
X116684762Y-55055238D01*
X116589524Y-55150476D01*
X116494286Y-55198095D01*
X116303810Y-55245714D01*
X116160952Y-55245714D01*
X115970476Y-55198095D01*
X115875238Y-55150476D01*
X115780000Y-55055238D01*
X115732381Y-54912380D01*
X115732381Y-54817142D01*
X115780000Y-54674285D01*
X115827619Y-54626666D01*
X116732381Y-53674285D02*
X116732381Y-54245714D01*
X116732381Y-53960000D02*
X115732381Y-53960000D01*
X115875238Y-54055238D01*
X115970476Y-54150476D01*
X116018095Y-54245714D01*
X122173334Y-48137143D02*
X122125715Y-48184762D01*
X121982858Y-48232381D01*
X121887620Y-48232381D01*
X121744762Y-48184762D01*
X121649524Y-48089524D01*
X121601905Y-47994286D01*
X121554286Y-47803810D01*
X121554286Y-47660952D01*
X121601905Y-47470476D01*
X121649524Y-47375238D01*
X121744762Y-47280000D01*
X121887620Y-47232381D01*
X121982858Y-47232381D01*
X122125715Y-47280000D01*
X122173334Y-47327619D01*
X122554286Y-47327619D02*
X122601905Y-47280000D01*
X122697143Y-47232381D01*
X122935239Y-47232381D01*
X123030477Y-47280000D01*
X123078096Y-47327619D01*
X123125715Y-47422857D01*
X123125715Y-47518095D01*
X123078096Y-47660952D01*
X122506667Y-48232381D01*
X123125715Y-48232381D01*
X159299524Y-108122381D02*
X158823333Y-108122381D01*
X158775714Y-108598571D01*
X158823333Y-108550952D01*
X158918571Y-108503333D01*
X159156667Y-108503333D01*
X159251905Y-108550952D01*
X159299524Y-108598571D01*
X159347143Y-108693810D01*
X159347143Y-108931905D01*
X159299524Y-109027143D01*
X159251905Y-109074762D01*
X159156667Y-109122381D01*
X158918571Y-109122381D01*
X158823333Y-109074762D01*
X158775714Y-109027143D01*
X159632857Y-108122381D02*
X159966190Y-109122381D01*
X160299524Y-108122381D01*
X159473334Y-101302381D02*
X159140000Y-100826190D01*
X158901905Y-101302381D02*
X158901905Y-100302381D01*
X159282858Y-100302381D01*
X159378096Y-100350000D01*
X159425715Y-100397619D01*
X159473334Y-100492857D01*
X159473334Y-100635714D01*
X159425715Y-100730952D01*
X159378096Y-100778571D01*
X159282858Y-100826190D01*
X158901905Y-100826190D01*
X160425715Y-101302381D02*
X159854286Y-101302381D01*
X160140000Y-101302381D02*
X160140000Y-100302381D01*
X160044762Y-100445238D01*
X159949524Y-100540476D01*
X159854286Y-100588095D01*
X160013334Y-64057143D02*
X159965715Y-64104762D01*
X159822858Y-64152381D01*
X159727620Y-64152381D01*
X159584762Y-64104762D01*
X159489524Y-64009524D01*
X159441905Y-63914286D01*
X159394286Y-63723810D01*
X159394286Y-63580952D01*
X159441905Y-63390476D01*
X159489524Y-63295238D01*
X159584762Y-63200000D01*
X159727620Y-63152381D01*
X159822858Y-63152381D01*
X159965715Y-63200000D01*
X160013334Y-63247619D01*
X160346667Y-63152381D02*
X160965715Y-63152381D01*
X160632381Y-63533333D01*
X160775239Y-63533333D01*
X160870477Y-63580952D01*
X160918096Y-63628571D01*
X160965715Y-63723810D01*
X160965715Y-63961905D01*
X160918096Y-64057143D01*
X160870477Y-64104762D01*
X160775239Y-64152381D01*
X160489524Y-64152381D01*
X160394286Y-64104762D01*
X160346667Y-64057143D01*
X138023334Y-58977143D02*
X137975715Y-59024762D01*
X137832858Y-59072381D01*
X137737620Y-59072381D01*
X137594762Y-59024762D01*
X137499524Y-58929524D01*
X137451905Y-58834286D01*
X137404286Y-58643810D01*
X137404286Y-58500952D01*
X137451905Y-58310476D01*
X137499524Y-58215238D01*
X137594762Y-58120000D01*
X137737620Y-58072381D01*
X137832858Y-58072381D01*
X137975715Y-58120000D01*
X138023334Y-58167619D01*
X138880477Y-58405714D02*
X138880477Y-59072381D01*
X138642381Y-58024762D02*
X138404286Y-58739048D01*
X139023334Y-58739048D01*
X138023334Y-56737143D02*
X137975715Y-56784762D01*
X137832858Y-56832381D01*
X137737620Y-56832381D01*
X137594762Y-56784762D01*
X137499524Y-56689524D01*
X137451905Y-56594286D01*
X137404286Y-56403810D01*
X137404286Y-56260952D01*
X137451905Y-56070476D01*
X137499524Y-55975238D01*
X137594762Y-55880000D01*
X137737620Y-55832381D01*
X137832858Y-55832381D01*
X137975715Y-55880000D01*
X138023334Y-55927619D01*
X138928096Y-55832381D02*
X138451905Y-55832381D01*
X138404286Y-56308571D01*
X138451905Y-56260952D01*
X138547143Y-56213333D01*
X138785239Y-56213333D01*
X138880477Y-56260952D01*
X138928096Y-56308571D01*
X138975715Y-56403810D01*
X138975715Y-56641905D01*
X138928096Y-56737143D01*
X138880477Y-56784762D01*
X138785239Y-56832381D01*
X138547143Y-56832381D01*
X138451905Y-56784762D01*
X138404286Y-56737143D01*
X107401905Y-56032381D02*
X107401905Y-56746667D01*
X107354285Y-56889524D01*
X107259047Y-56984762D01*
X107116190Y-57032381D01*
X107020952Y-57032381D01*
X107640000Y-57127619D02*
X108401905Y-57127619D01*
X108640000Y-56651429D02*
X109401905Y-56651429D01*
X109020953Y-57032381D02*
X109020953Y-56270476D01*
X110401905Y-57032381D02*
X109830476Y-57032381D01*
X110116190Y-57032381D02*
X110116190Y-56032381D01*
X110020952Y-56175238D01*
X109925714Y-56270476D01*
X109830476Y-56318095D01*
X110782857Y-56127619D02*
X110830476Y-56080000D01*
X110925714Y-56032381D01*
X111163810Y-56032381D01*
X111259048Y-56080000D01*
X111306667Y-56127619D01*
X111354286Y-56222857D01*
X111354286Y-56318095D01*
X111306667Y-56460952D01*
X110735238Y-57032381D01*
X111354286Y-57032381D01*
X111640000Y-56032381D02*
X111973333Y-57032381D01*
X112306667Y-56032381D01*
X131383334Y-51042381D02*
X131383334Y-51756667D01*
X131335714Y-51899524D01*
X131240476Y-51994762D01*
X131097619Y-52042381D01*
X131002381Y-52042381D01*
X131621429Y-52137619D02*
X132383334Y-52137619D01*
X132478572Y-51042381D02*
X132811905Y-52042381D01*
X133145239Y-51042381D01*
X133478572Y-52042381D02*
X133478572Y-51042381D01*
X133716667Y-51042381D01*
X133859525Y-51090000D01*
X133954763Y-51185238D01*
X134002382Y-51280476D01*
X134050001Y-51470952D01*
X134050001Y-51613810D01*
X134002382Y-51804286D01*
X133954763Y-51899524D01*
X133859525Y-51994762D01*
X133716667Y-52042381D01*
X133478572Y-52042381D01*
X134478572Y-52042381D02*
X134478572Y-51042381D01*
X134716667Y-51042381D01*
X134859525Y-51090000D01*
X134954763Y-51185238D01*
X135002382Y-51280476D01*
X135050001Y-51470952D01*
X135050001Y-51613810D01*
X135002382Y-51804286D01*
X134954763Y-51899524D01*
X134859525Y-51994762D01*
X134716667Y-52042381D01*
X134478572Y-52042381D01*
X135763334Y-61457143D02*
X135715715Y-61504762D01*
X135572858Y-61552381D01*
X135477620Y-61552381D01*
X135334762Y-61504762D01*
X135239524Y-61409524D01*
X135191905Y-61314286D01*
X135144286Y-61123810D01*
X135144286Y-60980952D01*
X135191905Y-60790476D01*
X135239524Y-60695238D01*
X135334762Y-60600000D01*
X135477620Y-60552381D01*
X135572858Y-60552381D01*
X135715715Y-60600000D01*
X135763334Y-60647619D01*
X136620477Y-60552381D02*
X136430000Y-60552381D01*
X136334762Y-60600000D01*
X136287143Y-60647619D01*
X136191905Y-60790476D01*
X136144286Y-60980952D01*
X136144286Y-61361905D01*
X136191905Y-61457143D01*
X136239524Y-61504762D01*
X136334762Y-61552381D01*
X136525239Y-61552381D01*
X136620477Y-61504762D01*
X136668096Y-61457143D01*
X136715715Y-61361905D01*
X136715715Y-61123810D01*
X136668096Y-61028571D01*
X136620477Y-60980952D01*
X136525239Y-60933333D01*
X136334762Y-60933333D01*
X136239524Y-60980952D01*
X136191905Y-61028571D01*
X136144286Y-61123810D01*
X135763334Y-63727143D02*
X135715715Y-63774762D01*
X135572858Y-63822381D01*
X135477620Y-63822381D01*
X135334762Y-63774762D01*
X135239524Y-63679524D01*
X135191905Y-63584286D01*
X135144286Y-63393810D01*
X135144286Y-63250952D01*
X135191905Y-63060476D01*
X135239524Y-62965238D01*
X135334762Y-62870000D01*
X135477620Y-62822381D01*
X135572858Y-62822381D01*
X135715715Y-62870000D01*
X135763334Y-62917619D01*
X136096667Y-62822381D02*
X136763334Y-62822381D01*
X136334762Y-63822381D01*
X132276667Y-43262381D02*
X132610000Y-44262381D01*
X132943334Y-43262381D01*
X133276667Y-44262381D02*
X133276667Y-43262381D01*
X133514762Y-43262381D01*
X133657620Y-43310000D01*
X133752858Y-43405238D01*
X133800477Y-43500476D01*
X133848096Y-43690952D01*
X133848096Y-43833810D01*
X133800477Y-44024286D01*
X133752858Y-44119524D01*
X133657620Y-44214762D01*
X133514762Y-44262381D01*
X133276667Y-44262381D01*
X134276667Y-44262381D02*
X134276667Y-43262381D01*
X134514762Y-43262381D01*
X134657620Y-43310000D01*
X134752858Y-43405238D01*
X134800477Y-43500476D01*
X134848096Y-43690952D01*
X134848096Y-43833810D01*
X134800477Y-44024286D01*
X134752858Y-44119524D01*
X134657620Y-44214762D01*
X134514762Y-44262381D01*
X134276667Y-44262381D01*
X138382381Y-47086666D02*
X137906190Y-47420000D01*
X138382381Y-47658095D02*
X137382381Y-47658095D01*
X137382381Y-47277142D01*
X137430000Y-47181904D01*
X137477619Y-47134285D01*
X137572857Y-47086666D01*
X137715714Y-47086666D01*
X137810952Y-47134285D01*
X137858571Y-47181904D01*
X137906190Y-47277142D01*
X137906190Y-47658095D01*
X137477619Y-46705714D02*
X137430000Y-46658095D01*
X137382381Y-46562857D01*
X137382381Y-46324761D01*
X137430000Y-46229523D01*
X137477619Y-46181904D01*
X137572857Y-46134285D01*
X137668095Y-46134285D01*
X137810952Y-46181904D01*
X138382381Y-46753333D01*
X138382381Y-46134285D01*
X174266410Y-59251381D02*
X173933076Y-58775190D01*
X173694981Y-59251381D02*
X173694981Y-58251381D01*
X174075934Y-58251381D01*
X174171172Y-58299000D01*
X174218791Y-58346619D01*
X174266410Y-58441857D01*
X174266410Y-58584714D01*
X174218791Y-58679952D01*
X174171172Y-58727571D01*
X174075934Y-58775190D01*
X173694981Y-58775190D01*
X174694981Y-58727571D02*
X175028315Y-58727571D01*
X175171172Y-59251381D02*
X174694981Y-59251381D01*
X174694981Y-58251381D01*
X175171172Y-58251381D01*
X176075934Y-59251381D02*
X175599743Y-59251381D01*
X175599743Y-58251381D01*
X176409267Y-58727571D02*
X176742601Y-58727571D01*
X176885458Y-59251381D02*
X176409267Y-59251381D01*
X176409267Y-58251381D01*
X176885458Y-58251381D01*
X177266410Y-58346619D02*
X177314029Y-58299000D01*
X177409267Y-58251381D01*
X177647363Y-58251381D01*
X177742601Y-58299000D01*
X177790220Y-58346619D01*
X177837839Y-58441857D01*
X177837839Y-58537095D01*
X177790220Y-58679952D01*
X177218791Y-59251381D01*
X177837839Y-59251381D01*
X169990000Y-54552381D02*
X169990000Y-53552381D01*
X170466190Y-54552381D02*
X170466190Y-53552381D01*
X171037619Y-54552381D01*
X171037619Y-53552381D01*
X172037619Y-54552381D02*
X171466190Y-54552381D01*
X171751904Y-54552381D02*
X171751904Y-53552381D01*
X171656666Y-53695238D01*
X171561428Y-53790476D01*
X171466190Y-53838095D01*
X170228096Y-56140000D02*
X170132858Y-56092381D01*
X169990001Y-56092381D01*
X169847143Y-56140000D01*
X169751905Y-56235238D01*
X169704286Y-56330476D01*
X169656667Y-56520952D01*
X169656667Y-56663810D01*
X169704286Y-56854286D01*
X169751905Y-56949524D01*
X169847143Y-57044762D01*
X169990001Y-57092381D01*
X170085239Y-57092381D01*
X170228096Y-57044762D01*
X170275715Y-56997143D01*
X170275715Y-56663810D01*
X170085239Y-56663810D01*
X170704286Y-57092381D02*
X170704286Y-56092381D01*
X171275715Y-57092381D01*
X171275715Y-56092381D01*
X171751905Y-57092381D02*
X171751905Y-56092381D01*
X171990000Y-56092381D01*
X172132858Y-56140000D01*
X172228096Y-56235238D01*
X172275715Y-56330476D01*
X172323334Y-56520952D01*
X172323334Y-56663810D01*
X172275715Y-56854286D01*
X172228096Y-56949524D01*
X172132858Y-57044762D01*
X171990000Y-57092381D01*
X171751905Y-57092381D01*
X169990000Y-52012381D02*
X169990000Y-51012381D01*
X170466190Y-52012381D02*
X170466190Y-51012381D01*
X171037619Y-52012381D01*
X171037619Y-51012381D01*
X171466190Y-51107619D02*
X171513809Y-51060000D01*
X171609047Y-51012381D01*
X171847143Y-51012381D01*
X171942381Y-51060000D01*
X171990000Y-51107619D01*
X172037619Y-51202857D01*
X172037619Y-51298095D01*
X171990000Y-51440952D01*
X171418571Y-52012381D01*
X172037619Y-52012381D01*
X169990000Y-49472381D02*
X169990000Y-48472381D01*
X170466190Y-49472381D02*
X170466190Y-48472381D01*
X171037619Y-49472381D01*
X171037619Y-48472381D01*
X171418571Y-48472381D02*
X172037619Y-48472381D01*
X171704285Y-48853333D01*
X171847143Y-48853333D01*
X171942381Y-48900952D01*
X171990000Y-48948571D01*
X172037619Y-49043810D01*
X172037619Y-49281905D01*
X171990000Y-49377143D01*
X171942381Y-49424762D01*
X171847143Y-49472381D01*
X171561428Y-49472381D01*
X171466190Y-49424762D01*
X171418571Y-49377143D01*
X169990000Y-46932381D02*
X169990000Y-45932381D01*
X170466190Y-46932381D02*
X170466190Y-45932381D01*
X171037619Y-46932381D01*
X171037619Y-45932381D01*
X171942381Y-46265714D02*
X171942381Y-46932381D01*
X171704285Y-45884762D02*
X171466190Y-46599048D01*
X172085238Y-46599048D01*
X169990000Y-44392381D02*
X169990000Y-43392381D01*
X170466190Y-44392381D02*
X170466190Y-43392381D01*
X171037619Y-44392381D01*
X171037619Y-43392381D01*
X171990000Y-43392381D02*
X171513809Y-43392381D01*
X171466190Y-43868571D01*
X171513809Y-43820952D01*
X171609047Y-43773333D01*
X171847143Y-43773333D01*
X171942381Y-43820952D01*
X171990000Y-43868571D01*
X172037619Y-43963810D01*
X172037619Y-44201905D01*
X171990000Y-44297143D01*
X171942381Y-44344762D01*
X171847143Y-44392381D01*
X171609047Y-44392381D01*
X171513809Y-44344762D01*
X171466190Y-44297143D01*
X169990000Y-41852381D02*
X169990000Y-40852381D01*
X170466190Y-41852381D02*
X170466190Y-40852381D01*
X171037619Y-41852381D01*
X171037619Y-40852381D01*
X171942381Y-40852381D02*
X171751904Y-40852381D01*
X171656666Y-40900000D01*
X171609047Y-40947619D01*
X171513809Y-41090476D01*
X171466190Y-41280952D01*
X171466190Y-41661905D01*
X171513809Y-41757143D01*
X171561428Y-41804762D01*
X171656666Y-41852381D01*
X171847143Y-41852381D01*
X171942381Y-41804762D01*
X171990000Y-41757143D01*
X172037619Y-41661905D01*
X172037619Y-41423810D01*
X171990000Y-41328571D01*
X171942381Y-41280952D01*
X171847143Y-41233333D01*
X171656666Y-41233333D01*
X171561428Y-41280952D01*
X171513809Y-41328571D01*
X171466190Y-41423810D01*
X169990000Y-39312381D02*
X169990000Y-38312381D01*
X170466190Y-39312381D02*
X170466190Y-38312381D01*
X171037619Y-39312381D01*
X171037619Y-38312381D01*
X171418571Y-38312381D02*
X172085238Y-38312381D01*
X171656666Y-39312381D01*
X169990000Y-36772381D02*
X169990000Y-35772381D01*
X170466190Y-36772381D02*
X170466190Y-35772381D01*
X171037619Y-36772381D01*
X171037619Y-35772381D01*
X171656666Y-36200952D02*
X171561428Y-36153333D01*
X171513809Y-36105714D01*
X171466190Y-36010476D01*
X171466190Y-35962857D01*
X171513809Y-35867619D01*
X171561428Y-35820000D01*
X171656666Y-35772381D01*
X171847143Y-35772381D01*
X171942381Y-35820000D01*
X171990000Y-35867619D01*
X172037619Y-35962857D01*
X172037619Y-36010476D01*
X171990000Y-36105714D01*
X171942381Y-36153333D01*
X171847143Y-36200952D01*
X171656666Y-36200952D01*
X171561428Y-36248571D01*
X171513809Y-36296190D01*
X171466190Y-36391429D01*
X171466190Y-36581905D01*
X171513809Y-36677143D01*
X171561428Y-36724762D01*
X171656666Y-36772381D01*
X171847143Y-36772381D01*
X171942381Y-36724762D01*
X171990000Y-36677143D01*
X172037619Y-36581905D01*
X172037619Y-36391429D01*
X171990000Y-36296190D01*
X171942381Y-36248571D01*
X171847143Y-36200952D01*
X169656667Y-33232381D02*
X169990000Y-34232381D01*
X170323334Y-33232381D01*
X170656667Y-34232381D02*
X170656667Y-33232381D01*
X170894762Y-33232381D01*
X171037620Y-33280000D01*
X171132858Y-33375238D01*
X171180477Y-33470476D01*
X171228096Y-33660952D01*
X171228096Y-33803810D01*
X171180477Y-33994286D01*
X171132858Y-34089524D01*
X171037620Y-34184762D01*
X170894762Y-34232381D01*
X170656667Y-34232381D01*
X171656667Y-34232381D02*
X171656667Y-33232381D01*
X171894762Y-33232381D01*
X172037620Y-33280000D01*
X172132858Y-33375238D01*
X172180477Y-33470476D01*
X172228096Y-33660952D01*
X172228096Y-33803810D01*
X172180477Y-33994286D01*
X172132858Y-34089524D01*
X172037620Y-34184762D01*
X171894762Y-34232381D01*
X171656667Y-34232381D01*
X173681210Y-78833381D02*
X173347876Y-78357190D01*
X173109781Y-78833381D02*
X173109781Y-77833381D01*
X173490734Y-77833381D01*
X173585972Y-77881000D01*
X173633591Y-77928619D01*
X173681210Y-78023857D01*
X173681210Y-78166714D01*
X173633591Y-78261952D01*
X173585972Y-78309571D01*
X173490734Y-78357190D01*
X173109781Y-78357190D01*
X174109781Y-78309571D02*
X174443115Y-78309571D01*
X174585972Y-78833381D02*
X174109781Y-78833381D01*
X174109781Y-77833381D01*
X174585972Y-77833381D01*
X175490734Y-78833381D02*
X175014543Y-78833381D01*
X175014543Y-77833381D01*
X175824067Y-78309571D02*
X176157401Y-78309571D01*
X176300258Y-78833381D02*
X175824067Y-78833381D01*
X175824067Y-77833381D01*
X176300258Y-77833381D01*
X177252639Y-78833381D02*
X176681210Y-78833381D01*
X176966924Y-78833381D02*
X176966924Y-77833381D01*
X176871686Y-77976238D01*
X176776448Y-78071476D01*
X176681210Y-78119095D01*
X170910000Y-83532381D02*
X170910000Y-82532381D01*
X171386190Y-83532381D02*
X171386190Y-82532381D01*
X171957619Y-83532381D01*
X171957619Y-82532381D01*
X172957619Y-83532381D02*
X172386190Y-83532381D01*
X172671904Y-83532381D02*
X172671904Y-82532381D01*
X172576666Y-82675238D01*
X172481428Y-82770476D01*
X172386190Y-82818095D01*
X171148096Y-80040000D02*
X171052858Y-79992381D01*
X170910001Y-79992381D01*
X170767143Y-80040000D01*
X170671905Y-80135238D01*
X170624286Y-80230476D01*
X170576667Y-80420952D01*
X170576667Y-80563810D01*
X170624286Y-80754286D01*
X170671905Y-80849524D01*
X170767143Y-80944762D01*
X170910001Y-80992381D01*
X171005239Y-80992381D01*
X171148096Y-80944762D01*
X171195715Y-80897143D01*
X171195715Y-80563810D01*
X171005239Y-80563810D01*
X171624286Y-80992381D02*
X171624286Y-79992381D01*
X172195715Y-80992381D01*
X172195715Y-79992381D01*
X172671905Y-80992381D02*
X172671905Y-79992381D01*
X172910000Y-79992381D01*
X173052858Y-80040000D01*
X173148096Y-80135238D01*
X173195715Y-80230476D01*
X173243334Y-80420952D01*
X173243334Y-80563810D01*
X173195715Y-80754286D01*
X173148096Y-80849524D01*
X173052858Y-80944762D01*
X172910000Y-80992381D01*
X172671905Y-80992381D01*
X170910000Y-86072381D02*
X170910000Y-85072381D01*
X171386190Y-86072381D02*
X171386190Y-85072381D01*
X171957619Y-86072381D01*
X171957619Y-85072381D01*
X172386190Y-85167619D02*
X172433809Y-85120000D01*
X172529047Y-85072381D01*
X172767143Y-85072381D01*
X172862381Y-85120000D01*
X172910000Y-85167619D01*
X172957619Y-85262857D01*
X172957619Y-85358095D01*
X172910000Y-85500952D01*
X172338571Y-86072381D01*
X172957619Y-86072381D01*
X170910000Y-88612381D02*
X170910000Y-87612381D01*
X171386190Y-88612381D02*
X171386190Y-87612381D01*
X171957619Y-88612381D01*
X171957619Y-87612381D01*
X172338571Y-87612381D02*
X172957619Y-87612381D01*
X172624285Y-87993333D01*
X172767143Y-87993333D01*
X172862381Y-88040952D01*
X172910000Y-88088571D01*
X172957619Y-88183810D01*
X172957619Y-88421905D01*
X172910000Y-88517143D01*
X172862381Y-88564762D01*
X172767143Y-88612381D01*
X172481428Y-88612381D01*
X172386190Y-88564762D01*
X172338571Y-88517143D01*
X170910000Y-91152381D02*
X170910000Y-90152381D01*
X171386190Y-91152381D02*
X171386190Y-90152381D01*
X171957619Y-91152381D01*
X171957619Y-90152381D01*
X172862381Y-90485714D02*
X172862381Y-91152381D01*
X172624285Y-90104762D02*
X172386190Y-90819048D01*
X173005238Y-90819048D01*
X170910000Y-93692381D02*
X170910000Y-92692381D01*
X171386190Y-93692381D02*
X171386190Y-92692381D01*
X171957619Y-93692381D01*
X171957619Y-92692381D01*
X172910000Y-92692381D02*
X172433809Y-92692381D01*
X172386190Y-93168571D01*
X172433809Y-93120952D01*
X172529047Y-93073333D01*
X172767143Y-93073333D01*
X172862381Y-93120952D01*
X172910000Y-93168571D01*
X172957619Y-93263810D01*
X172957619Y-93501905D01*
X172910000Y-93597143D01*
X172862381Y-93644762D01*
X172767143Y-93692381D01*
X172529047Y-93692381D01*
X172433809Y-93644762D01*
X172386190Y-93597143D01*
X170910000Y-96232381D02*
X170910000Y-95232381D01*
X171386190Y-96232381D02*
X171386190Y-95232381D01*
X171957619Y-96232381D01*
X171957619Y-95232381D01*
X172862381Y-95232381D02*
X172671904Y-95232381D01*
X172576666Y-95280000D01*
X172529047Y-95327619D01*
X172433809Y-95470476D01*
X172386190Y-95660952D01*
X172386190Y-96041905D01*
X172433809Y-96137143D01*
X172481428Y-96184762D01*
X172576666Y-96232381D01*
X172767143Y-96232381D01*
X172862381Y-96184762D01*
X172910000Y-96137143D01*
X172957619Y-96041905D01*
X172957619Y-95803810D01*
X172910000Y-95708571D01*
X172862381Y-95660952D01*
X172767143Y-95613333D01*
X172576666Y-95613333D01*
X172481428Y-95660952D01*
X172433809Y-95708571D01*
X172386190Y-95803810D01*
X170910000Y-98772381D02*
X170910000Y-97772381D01*
X171386190Y-98772381D02*
X171386190Y-97772381D01*
X171957619Y-98772381D01*
X171957619Y-97772381D01*
X172338571Y-97772381D02*
X173005238Y-97772381D01*
X172576666Y-98772381D01*
X170910000Y-101312381D02*
X170910000Y-100312381D01*
X171386190Y-101312381D02*
X171386190Y-100312381D01*
X171957619Y-101312381D01*
X171957619Y-100312381D01*
X172576666Y-100740952D02*
X172481428Y-100693333D01*
X172433809Y-100645714D01*
X172386190Y-100550476D01*
X172386190Y-100502857D01*
X172433809Y-100407619D01*
X172481428Y-100360000D01*
X172576666Y-100312381D01*
X172767143Y-100312381D01*
X172862381Y-100360000D01*
X172910000Y-100407619D01*
X172957619Y-100502857D01*
X172957619Y-100550476D01*
X172910000Y-100645714D01*
X172862381Y-100693333D01*
X172767143Y-100740952D01*
X172576666Y-100740952D01*
X172481428Y-100788571D01*
X172433809Y-100836190D01*
X172386190Y-100931429D01*
X172386190Y-101121905D01*
X172433809Y-101217143D01*
X172481428Y-101264762D01*
X172576666Y-101312381D01*
X172767143Y-101312381D01*
X172862381Y-101264762D01*
X172910000Y-101217143D01*
X172957619Y-101121905D01*
X172957619Y-100931429D01*
X172910000Y-100836190D01*
X172862381Y-100788571D01*
X172767143Y-100740952D01*
X170576667Y-102852381D02*
X170910000Y-103852381D01*
X171243334Y-102852381D01*
X171576667Y-103852381D02*
X171576667Y-102852381D01*
X171814762Y-102852381D01*
X171957620Y-102900000D01*
X172052858Y-102995238D01*
X172100477Y-103090476D01*
X172148096Y-103280952D01*
X172148096Y-103423810D01*
X172100477Y-103614286D01*
X172052858Y-103709524D01*
X171957620Y-103804762D01*
X171814762Y-103852381D01*
X171576667Y-103852381D01*
X172576667Y-103852381D02*
X172576667Y-102852381D01*
X172814762Y-102852381D01*
X172957620Y-102900000D01*
X173052858Y-102995238D01*
X173100477Y-103090476D01*
X173148096Y-103280952D01*
X173148096Y-103423810D01*
X173100477Y-103614286D01*
X173052858Y-103709524D01*
X172957620Y-103804762D01*
X172814762Y-103852381D01*
X172576667Y-103852381D01*
X104752381Y-27486190D02*
X104276190Y-27819524D01*
X104752381Y-28057619D02*
X103752381Y-28057619D01*
X103752381Y-27676666D01*
X103800000Y-27581428D01*
X103847619Y-27533809D01*
X103942857Y-27486190D01*
X104085714Y-27486190D01*
X104180952Y-27533809D01*
X104228571Y-27581428D01*
X104276190Y-27676666D01*
X104276190Y-28057619D01*
X104228571Y-27057619D02*
X104228571Y-26724285D01*
X104752381Y-26581428D02*
X104752381Y-27057619D01*
X103752381Y-27057619D01*
X103752381Y-26581428D01*
X104752381Y-25676666D02*
X104752381Y-26152857D01*
X103752381Y-26152857D01*
X104228571Y-25343333D02*
X104228571Y-25009999D01*
X104752381Y-24867142D02*
X104752381Y-25343333D01*
X103752381Y-25343333D01*
X103752381Y-24867142D01*
X103752381Y-24533809D02*
X103752381Y-23914761D01*
X104133333Y-24248095D01*
X104133333Y-24105237D01*
X104180952Y-24009999D01*
X104228571Y-23962380D01*
X104323810Y-23914761D01*
X104561905Y-23914761D01*
X104657143Y-23962380D01*
X104704762Y-24009999D01*
X104752381Y-24105237D01*
X104752381Y-24390952D01*
X104704762Y-24486190D01*
X104657143Y-24533809D01*
X109782381Y-30530000D02*
X108782381Y-30530000D01*
X109782381Y-30053810D02*
X108782381Y-30053810D01*
X109782381Y-29482381D01*
X108782381Y-29482381D01*
X109782381Y-28482381D02*
X109782381Y-29053810D01*
X109782381Y-28768096D02*
X108782381Y-28768096D01*
X108925238Y-28863334D01*
X109020476Y-28958572D01*
X109068095Y-29053810D01*
X106290000Y-30291904D02*
X106242381Y-30387142D01*
X106242381Y-30529999D01*
X106290000Y-30672857D01*
X106385238Y-30768095D01*
X106480476Y-30815714D01*
X106670952Y-30863333D01*
X106813810Y-30863333D01*
X107004286Y-30815714D01*
X107099524Y-30768095D01*
X107194762Y-30672857D01*
X107242381Y-30529999D01*
X107242381Y-30434761D01*
X107194762Y-30291904D01*
X107147143Y-30244285D01*
X106813810Y-30244285D01*
X106813810Y-30434761D01*
X107242381Y-29815714D02*
X106242381Y-29815714D01*
X107242381Y-29244285D01*
X106242381Y-29244285D01*
X107242381Y-28768095D02*
X106242381Y-28768095D01*
X106242381Y-28530000D01*
X106290000Y-28387142D01*
X106385238Y-28291904D01*
X106480476Y-28244285D01*
X106670952Y-28196666D01*
X106813810Y-28196666D01*
X107004286Y-28244285D01*
X107099524Y-28291904D01*
X107194762Y-28387142D01*
X107242381Y-28530000D01*
X107242381Y-28768095D01*
X112322381Y-30530000D02*
X111322381Y-30530000D01*
X112322381Y-30053810D02*
X111322381Y-30053810D01*
X112322381Y-29482381D01*
X111322381Y-29482381D01*
X111417619Y-29053810D02*
X111370000Y-29006191D01*
X111322381Y-28910953D01*
X111322381Y-28672857D01*
X111370000Y-28577619D01*
X111417619Y-28530000D01*
X111512857Y-28482381D01*
X111608095Y-28482381D01*
X111750952Y-28530000D01*
X112322381Y-29101429D01*
X112322381Y-28482381D01*
X114862381Y-30530000D02*
X113862381Y-30530000D01*
X114862381Y-30053810D02*
X113862381Y-30053810D01*
X114862381Y-29482381D01*
X113862381Y-29482381D01*
X113862381Y-29101429D02*
X113862381Y-28482381D01*
X114243333Y-28815715D01*
X114243333Y-28672857D01*
X114290952Y-28577619D01*
X114338571Y-28530000D01*
X114433810Y-28482381D01*
X114671905Y-28482381D01*
X114767143Y-28530000D01*
X114814762Y-28577619D01*
X114862381Y-28672857D01*
X114862381Y-28958572D01*
X114814762Y-29053810D01*
X114767143Y-29101429D01*
X117402381Y-30530000D02*
X116402381Y-30530000D01*
X117402381Y-30053810D02*
X116402381Y-30053810D01*
X117402381Y-29482381D01*
X116402381Y-29482381D01*
X116735714Y-28577619D02*
X117402381Y-28577619D01*
X116354762Y-28815715D02*
X117069048Y-29053810D01*
X117069048Y-28434762D01*
X119942381Y-30530000D02*
X118942381Y-30530000D01*
X119942381Y-30053810D02*
X118942381Y-30053810D01*
X119942381Y-29482381D01*
X118942381Y-29482381D01*
X118942381Y-28530000D02*
X118942381Y-29006191D01*
X119418571Y-29053810D01*
X119370952Y-29006191D01*
X119323333Y-28910953D01*
X119323333Y-28672857D01*
X119370952Y-28577619D01*
X119418571Y-28530000D01*
X119513810Y-28482381D01*
X119751905Y-28482381D01*
X119847143Y-28530000D01*
X119894762Y-28577619D01*
X119942381Y-28672857D01*
X119942381Y-28910953D01*
X119894762Y-29006191D01*
X119847143Y-29053810D01*
X122482381Y-30530000D02*
X121482381Y-30530000D01*
X122482381Y-30053810D02*
X121482381Y-30053810D01*
X122482381Y-29482381D01*
X121482381Y-29482381D01*
X121482381Y-28577619D02*
X121482381Y-28768096D01*
X121530000Y-28863334D01*
X121577619Y-28910953D01*
X121720476Y-29006191D01*
X121910952Y-29053810D01*
X122291905Y-29053810D01*
X122387143Y-29006191D01*
X122434762Y-28958572D01*
X122482381Y-28863334D01*
X122482381Y-28672857D01*
X122434762Y-28577619D01*
X122387143Y-28530000D01*
X122291905Y-28482381D01*
X122053810Y-28482381D01*
X121958571Y-28530000D01*
X121910952Y-28577619D01*
X121863333Y-28672857D01*
X121863333Y-28863334D01*
X121910952Y-28958572D01*
X121958571Y-29006191D01*
X122053810Y-29053810D01*
X125022381Y-30530000D02*
X124022381Y-30530000D01*
X125022381Y-30053810D02*
X124022381Y-30053810D01*
X125022381Y-29482381D01*
X124022381Y-29482381D01*
X124022381Y-29101429D02*
X124022381Y-28434762D01*
X125022381Y-28863334D01*
X127562381Y-30530000D02*
X126562381Y-30530000D01*
X127562381Y-30053810D02*
X126562381Y-30053810D01*
X127562381Y-29482381D01*
X126562381Y-29482381D01*
X126990952Y-28863334D02*
X126943333Y-28958572D01*
X126895714Y-29006191D01*
X126800476Y-29053810D01*
X126752857Y-29053810D01*
X126657619Y-29006191D01*
X126610000Y-28958572D01*
X126562381Y-28863334D01*
X126562381Y-28672857D01*
X126610000Y-28577619D01*
X126657619Y-28530000D01*
X126752857Y-28482381D01*
X126800476Y-28482381D01*
X126895714Y-28530000D01*
X126943333Y-28577619D01*
X126990952Y-28672857D01*
X126990952Y-28863334D01*
X127038571Y-28958572D01*
X127086190Y-29006191D01*
X127181429Y-29053810D01*
X127371905Y-29053810D01*
X127467143Y-29006191D01*
X127514762Y-28958572D01*
X127562381Y-28863334D01*
X127562381Y-28672857D01*
X127514762Y-28577619D01*
X127467143Y-28530000D01*
X127371905Y-28482381D01*
X127181429Y-28482381D01*
X127086190Y-28530000D01*
X127038571Y-28577619D01*
X126990952Y-28672857D01*
X129102381Y-30863333D02*
X130102381Y-30530000D01*
X129102381Y-30196666D01*
X130102381Y-29863333D02*
X129102381Y-29863333D01*
X129102381Y-29625238D01*
X129150000Y-29482380D01*
X129245238Y-29387142D01*
X129340476Y-29339523D01*
X129530952Y-29291904D01*
X129673810Y-29291904D01*
X129864286Y-29339523D01*
X129959524Y-29387142D01*
X130054762Y-29482380D01*
X130102381Y-29625238D01*
X130102381Y-29863333D01*
X130102381Y-28863333D02*
X129102381Y-28863333D01*
X129102381Y-28625238D01*
X129150000Y-28482380D01*
X129245238Y-28387142D01*
X129340476Y-28339523D01*
X129530952Y-28291904D01*
X129673810Y-28291904D01*
X129864286Y-28339523D01*
X129959524Y-28387142D01*
X130054762Y-28482380D01*
X130102381Y-28625238D01*
X130102381Y-28863333D01*
X175346191Y-76974762D02*
X175489048Y-77022381D01*
X175727144Y-77022381D01*
X175822382Y-76974762D01*
X175870001Y-76927143D01*
X175917620Y-76831905D01*
X175917620Y-76736667D01*
X175870001Y-76641429D01*
X175822382Y-76593810D01*
X175727144Y-76546190D01*
X175536667Y-76498571D01*
X175441429Y-76450952D01*
X175393810Y-76403333D01*
X175346191Y-76308095D01*
X175346191Y-76212857D01*
X175393810Y-76117619D01*
X175441429Y-76070000D01*
X175536667Y-76022381D01*
X175774763Y-76022381D01*
X175917620Y-76070000D01*
X176346191Y-77022381D02*
X176346191Y-76022381D01*
X176727144Y-76022381D01*
X176822382Y-76070000D01*
X176870001Y-76117619D01*
X176917620Y-76212857D01*
X176917620Y-76355714D01*
X176870001Y-76450952D01*
X176822382Y-76498571D01*
X176727144Y-76546190D01*
X176346191Y-76546190D01*
X177346191Y-77022381D02*
X177346191Y-76022381D01*
X173208095Y-74454762D02*
X173350952Y-74502381D01*
X173589048Y-74502381D01*
X173684286Y-74454762D01*
X173731905Y-74407143D01*
X173779524Y-74311905D01*
X173779524Y-74216667D01*
X173731905Y-74121429D01*
X173684286Y-74073810D01*
X173589048Y-74026190D01*
X173398571Y-73978571D01*
X173303333Y-73930952D01*
X173255714Y-73883333D01*
X173208095Y-73788095D01*
X173208095Y-73692857D01*
X173255714Y-73597619D01*
X173303333Y-73550000D01*
X173398571Y-73502381D01*
X173636667Y-73502381D01*
X173779524Y-73550000D01*
X174160476Y-74454762D02*
X174303333Y-74502381D01*
X174541429Y-74502381D01*
X174636667Y-74454762D01*
X174684286Y-74407143D01*
X174731905Y-74311905D01*
X174731905Y-74216667D01*
X174684286Y-74121429D01*
X174636667Y-74073810D01*
X174541429Y-74026190D01*
X174350952Y-73978571D01*
X174255714Y-73930952D01*
X174208095Y-73883333D01*
X174160476Y-73788095D01*
X174160476Y-73692857D01*
X174208095Y-73597619D01*
X174255714Y-73550000D01*
X174350952Y-73502381D01*
X174589048Y-73502381D01*
X174731905Y-73550000D01*
X171698572Y-71962381D02*
X171698572Y-70962381D01*
X172031906Y-71676667D01*
X172365239Y-70962381D01*
X172365239Y-71962381D01*
X173031905Y-70962381D02*
X173222382Y-70962381D01*
X173317620Y-71010000D01*
X173412858Y-71105238D01*
X173460477Y-71295714D01*
X173460477Y-71629048D01*
X173412858Y-71819524D01*
X173317620Y-71914762D01*
X173222382Y-71962381D01*
X173031905Y-71962381D01*
X172936667Y-71914762D01*
X172841429Y-71819524D01*
X172793810Y-71629048D01*
X172793810Y-71295714D01*
X172841429Y-71105238D01*
X172936667Y-71010000D01*
X173031905Y-70962381D01*
X173841429Y-71914762D02*
X173984286Y-71962381D01*
X174222382Y-71962381D01*
X174317620Y-71914762D01*
X174365239Y-71867143D01*
X174412858Y-71771905D01*
X174412858Y-71676667D01*
X174365239Y-71581429D01*
X174317620Y-71533810D01*
X174222382Y-71486190D01*
X174031905Y-71438571D01*
X173936667Y-71390952D01*
X173889048Y-71343333D01*
X173841429Y-71248095D01*
X173841429Y-71152857D01*
X173889048Y-71057619D01*
X173936667Y-71010000D01*
X174031905Y-70962381D01*
X174270001Y-70962381D01*
X174412858Y-71010000D01*
X174841429Y-71962381D02*
X174841429Y-70962381D01*
X171698572Y-69422381D02*
X171698572Y-68422381D01*
X172031906Y-69136667D01*
X172365239Y-68422381D01*
X172365239Y-69422381D01*
X172841429Y-69422381D02*
X172841429Y-68422381D01*
X173270000Y-69374762D02*
X173412857Y-69422381D01*
X173650953Y-69422381D01*
X173746191Y-69374762D01*
X173793810Y-69327143D01*
X173841429Y-69231905D01*
X173841429Y-69136667D01*
X173793810Y-69041429D01*
X173746191Y-68993810D01*
X173650953Y-68946190D01*
X173460476Y-68898571D01*
X173365238Y-68850952D01*
X173317619Y-68803333D01*
X173270000Y-68708095D01*
X173270000Y-68612857D01*
X173317619Y-68517619D01*
X173365238Y-68470000D01*
X173460476Y-68422381D01*
X173698572Y-68422381D01*
X173841429Y-68470000D01*
X174460476Y-68422381D02*
X174650953Y-68422381D01*
X174746191Y-68470000D01*
X174841429Y-68565238D01*
X174889048Y-68755714D01*
X174889048Y-69089048D01*
X174841429Y-69279524D01*
X174746191Y-69374762D01*
X174650953Y-69422381D01*
X174460476Y-69422381D01*
X174365238Y-69374762D01*
X174270000Y-69279524D01*
X174222381Y-69089048D01*
X174222381Y-68755714D01*
X174270000Y-68565238D01*
X174365238Y-68470000D01*
X174460476Y-68422381D01*
X172184286Y-66834762D02*
X172327143Y-66882381D01*
X172565239Y-66882381D01*
X172660477Y-66834762D01*
X172708096Y-66787143D01*
X172755715Y-66691905D01*
X172755715Y-66596667D01*
X172708096Y-66501429D01*
X172660477Y-66453810D01*
X172565239Y-66406190D01*
X172374762Y-66358571D01*
X172279524Y-66310952D01*
X172231905Y-66263333D01*
X172184286Y-66168095D01*
X172184286Y-66072857D01*
X172231905Y-65977619D01*
X172279524Y-65930000D01*
X172374762Y-65882381D01*
X172612858Y-65882381D01*
X172755715Y-65930000D01*
X173755715Y-66787143D02*
X173708096Y-66834762D01*
X173565239Y-66882381D01*
X173470001Y-66882381D01*
X173327143Y-66834762D01*
X173231905Y-66739524D01*
X173184286Y-66644286D01*
X173136667Y-66453810D01*
X173136667Y-66310952D01*
X173184286Y-66120476D01*
X173231905Y-66025238D01*
X173327143Y-65930000D01*
X173470001Y-65882381D01*
X173565239Y-65882381D01*
X173708096Y-65930000D01*
X173755715Y-65977619D01*
X174184286Y-66882381D02*
X174184286Y-65882381D01*
X174755715Y-66882381D02*
X174327143Y-66310952D01*
X174755715Y-65882381D02*
X174184286Y-66453810D01*
X161073810Y-23432381D02*
X161073810Y-22432381D01*
X161502381Y-22527619D02*
X161550000Y-22480000D01*
X161645238Y-22432381D01*
X161883334Y-22432381D01*
X161978572Y-22480000D01*
X162026191Y-22527619D01*
X162073810Y-22622857D01*
X162073810Y-22718095D01*
X162026191Y-22860952D01*
X161454762Y-23432381D01*
X162073810Y-23432381D01*
X163073810Y-23337143D02*
X163026191Y-23384762D01*
X162883334Y-23432381D01*
X162788096Y-23432381D01*
X162645238Y-23384762D01*
X162550000Y-23289524D01*
X162502381Y-23194286D01*
X162454762Y-23003810D01*
X162454762Y-22860952D01*
X162502381Y-22670476D01*
X162550000Y-22575238D01*
X162645238Y-22480000D01*
X162788096Y-22432381D01*
X162883334Y-22432381D01*
X163026191Y-22480000D01*
X163073810Y-22527619D01*
X167549524Y-28014762D02*
X167692381Y-28062381D01*
X167930477Y-28062381D01*
X168025715Y-28014762D01*
X168073334Y-27967143D01*
X168120953Y-27871905D01*
X168120953Y-27776667D01*
X168073334Y-27681429D01*
X168025715Y-27633810D01*
X167930477Y-27586190D01*
X167740000Y-27538571D01*
X167644762Y-27490952D01*
X167597143Y-27443333D01*
X167549524Y-27348095D01*
X167549524Y-27252857D01*
X167597143Y-27157619D01*
X167644762Y-27110000D01*
X167740000Y-27062381D01*
X167978096Y-27062381D01*
X168120953Y-27110000D01*
X169120953Y-27967143D02*
X169073334Y-28014762D01*
X168930477Y-28062381D01*
X168835239Y-28062381D01*
X168692381Y-28014762D01*
X168597143Y-27919524D01*
X168549524Y-27824286D01*
X168501905Y-27633810D01*
X168501905Y-27490952D01*
X168549524Y-27300476D01*
X168597143Y-27205238D01*
X168692381Y-27110000D01*
X168835239Y-27062381D01*
X168930477Y-27062381D01*
X169073334Y-27110000D01*
X169120953Y-27157619D01*
X170025715Y-28062381D02*
X169549524Y-28062381D01*
X169549524Y-27062381D01*
X167525714Y-25474762D02*
X167668571Y-25522381D01*
X167906667Y-25522381D01*
X168001905Y-25474762D01*
X168049524Y-25427143D01*
X168097143Y-25331905D01*
X168097143Y-25236667D01*
X168049524Y-25141429D01*
X168001905Y-25093810D01*
X167906667Y-25046190D01*
X167716190Y-24998571D01*
X167620952Y-24950952D01*
X167573333Y-24903333D01*
X167525714Y-24808095D01*
X167525714Y-24712857D01*
X167573333Y-24617619D01*
X167620952Y-24570000D01*
X167716190Y-24522381D01*
X167954286Y-24522381D01*
X168097143Y-24570000D01*
X168525714Y-25522381D02*
X168525714Y-24522381D01*
X168763809Y-24522381D01*
X168906667Y-24570000D01*
X169001905Y-24665238D01*
X169049524Y-24760476D01*
X169097143Y-24950952D01*
X169097143Y-25093810D01*
X169049524Y-25284286D01*
X169001905Y-25379524D01*
X168906667Y-25474762D01*
X168763809Y-25522381D01*
X168525714Y-25522381D01*
X169478095Y-25236667D02*
X169954286Y-25236667D01*
X169382857Y-25522381D02*
X169716190Y-24522381D01*
X170049524Y-25522381D01*
D10*
X145338095Y-62468094D02*
X145576190Y-62468094D01*
X145076190Y-62634761D02*
X145338095Y-62468094D01*
X145076190Y-62301428D01*
X145576190Y-61872857D02*
X145576190Y-62158571D01*
X145576190Y-62015714D02*
X145076190Y-62015714D01*
X145147619Y-62063333D01*
X145195238Y-62110952D01*
X145219048Y-62158571D01*
D11*
X153242381Y-50786666D02*
X152766190Y-51120000D01*
X153242381Y-51358095D02*
X152242381Y-51358095D01*
X152242381Y-50977142D01*
X152290000Y-50881904D01*
X152337619Y-50834285D01*
X152432857Y-50786666D01*
X152575714Y-50786666D01*
X152670952Y-50834285D01*
X152718571Y-50881904D01*
X152766190Y-50977142D01*
X152766190Y-51358095D01*
X152242381Y-50453333D02*
X152242381Y-49834285D01*
X152623333Y-50167619D01*
X152623333Y-50024761D01*
X152670952Y-49929523D01*
X152718571Y-49881904D01*
X152813810Y-49834285D01*
X153051905Y-49834285D01*
X153147143Y-49881904D01*
X153194762Y-49929523D01*
X153242381Y-50024761D01*
X153242381Y-50310476D01*
X153194762Y-50405714D01*
X153147143Y-50453333D01*
X154282381Y-41358095D02*
X153806190Y-41691429D01*
X154282381Y-41929524D02*
X153282381Y-41929524D01*
X153282381Y-41548571D01*
X153330000Y-41453333D01*
X153377619Y-41405714D01*
X153472857Y-41358095D01*
X153615714Y-41358095D01*
X153710952Y-41405714D01*
X153758571Y-41453333D01*
X153806190Y-41548571D01*
X153806190Y-41929524D01*
X154234762Y-40548571D02*
X154282381Y-40643809D01*
X154282381Y-40834286D01*
X154234762Y-40929524D01*
X154139524Y-40977143D01*
X153758571Y-40977143D01*
X153663333Y-40929524D01*
X153615714Y-40834286D01*
X153615714Y-40643809D01*
X153663333Y-40548571D01*
X153758571Y-40500952D01*
X153853810Y-40500952D01*
X153949048Y-40977143D01*
X154234762Y-40120000D02*
X154282381Y-40024762D01*
X154282381Y-39834286D01*
X154234762Y-39739047D01*
X154139524Y-39691428D01*
X154091905Y-39691428D01*
X153996667Y-39739047D01*
X153949048Y-39834286D01*
X153949048Y-39977143D01*
X153901429Y-40072381D01*
X153806190Y-40120000D01*
X153758571Y-40120000D01*
X153663333Y-40072381D01*
X153615714Y-39977143D01*
X153615714Y-39834286D01*
X153663333Y-39739047D01*
X154234762Y-38881904D02*
X154282381Y-38977142D01*
X154282381Y-39167619D01*
X154234762Y-39262857D01*
X154139524Y-39310476D01*
X153758571Y-39310476D01*
X153663333Y-39262857D01*
X153615714Y-39167619D01*
X153615714Y-38977142D01*
X153663333Y-38881904D01*
X153758571Y-38834285D01*
X153853810Y-38834285D01*
X153949048Y-39310476D01*
X153615714Y-38548571D02*
X153615714Y-38167619D01*
X153282381Y-38405714D02*
X154139524Y-38405714D01*
X154234762Y-38358095D01*
X154282381Y-38262857D01*
X154282381Y-38167619D01*
X92292381Y-53735238D02*
X93292381Y-53401905D01*
X92292381Y-53068571D01*
X93292381Y-52735238D02*
X92292381Y-52735238D01*
X92292381Y-52497143D01*
X92340000Y-52354285D01*
X92435238Y-52259047D01*
X92530476Y-52211428D01*
X92720952Y-52163809D01*
X92863810Y-52163809D01*
X93054286Y-52211428D01*
X93149524Y-52259047D01*
X93244762Y-52354285D01*
X93292381Y-52497143D01*
X93292381Y-52735238D01*
X93292381Y-51735238D02*
X92292381Y-51735238D01*
X92292381Y-51497143D01*
X92340000Y-51354285D01*
X92435238Y-51259047D01*
X92530476Y-51211428D01*
X92720952Y-51163809D01*
X92863810Y-51163809D01*
X93054286Y-51211428D01*
X93149524Y-51259047D01*
X93244762Y-51354285D01*
X93292381Y-51497143D01*
X93292381Y-51735238D01*
X93292381Y-49449523D02*
X93292381Y-50020952D01*
X93292381Y-49735238D02*
X92292381Y-49735238D01*
X92435238Y-49830476D01*
X92530476Y-49925714D01*
X92578095Y-50020952D01*
X92387619Y-49068571D02*
X92340000Y-49020952D01*
X92292381Y-48925714D01*
X92292381Y-48687618D01*
X92340000Y-48592380D01*
X92387619Y-48544761D01*
X92482857Y-48497142D01*
X92578095Y-48497142D01*
X92720952Y-48544761D01*
X93292381Y-49116190D01*
X93292381Y-48497142D01*
X92292381Y-48211428D02*
X93292381Y-47878095D01*
X92292381Y-47544761D01*
X82809981Y-50164847D02*
X82809981Y-50736276D01*
X82809981Y-50450562D02*
X81809981Y-50450562D01*
X81952838Y-50545800D01*
X82048076Y-50641038D01*
X82095695Y-50736276D01*
X81905219Y-49783895D02*
X81857600Y-49736276D01*
X81809981Y-49641038D01*
X81809981Y-49402942D01*
X81857600Y-49307704D01*
X81905219Y-49260085D01*
X82000457Y-49212466D01*
X82095695Y-49212466D01*
X82238552Y-49260085D01*
X82809981Y-49831514D01*
X82809981Y-49212466D01*
X81809981Y-48926752D02*
X82809981Y-48593419D01*
X81809981Y-48260085D01*
X82809981Y-54064847D02*
X82809981Y-54636276D01*
X82809981Y-54350562D02*
X81809981Y-54350562D01*
X81952838Y-54445800D01*
X82048076Y-54541038D01*
X82095695Y-54636276D01*
X81905219Y-53683895D02*
X81857600Y-53636276D01*
X81809981Y-53541038D01*
X81809981Y-53302942D01*
X81857600Y-53207704D01*
X81905219Y-53160085D01*
X82000457Y-53112466D01*
X82095695Y-53112466D01*
X82238552Y-53160085D01*
X82809981Y-53731514D01*
X82809981Y-53112466D01*
X81809981Y-52826752D02*
X82809981Y-52493419D01*
X81809981Y-52160085D01*
X81857600Y-58107704D02*
X81809981Y-58202942D01*
X81809981Y-58345799D01*
X81857600Y-58488657D01*
X81952838Y-58583895D01*
X82048076Y-58631514D01*
X82238552Y-58679133D01*
X82381410Y-58679133D01*
X82571886Y-58631514D01*
X82667124Y-58583895D01*
X82762362Y-58488657D01*
X82809981Y-58345799D01*
X82809981Y-58250561D01*
X82762362Y-58107704D01*
X82714743Y-58060085D01*
X82381410Y-58060085D01*
X82381410Y-58250561D01*
X82809981Y-57631514D02*
X81809981Y-57631514D01*
X82809981Y-57060085D01*
X81809981Y-57060085D01*
X82809981Y-56583895D02*
X81809981Y-56583895D01*
X81809981Y-56345800D01*
X81857600Y-56202942D01*
X81952838Y-56107704D01*
X82048076Y-56060085D01*
X82238552Y-56012466D01*
X82381410Y-56012466D01*
X82571886Y-56060085D01*
X82667124Y-56107704D01*
X82762362Y-56202942D01*
X82809981Y-56345800D01*
X82809981Y-56583895D01*
X81857600Y-62007704D02*
X81809981Y-62102942D01*
X81809981Y-62245799D01*
X81857600Y-62388657D01*
X81952838Y-62483895D01*
X82048076Y-62531514D01*
X82238552Y-62579133D01*
X82381410Y-62579133D01*
X82571886Y-62531514D01*
X82667124Y-62483895D01*
X82762362Y-62388657D01*
X82809981Y-62245799D01*
X82809981Y-62150561D01*
X82762362Y-62007704D01*
X82714743Y-61960085D01*
X82381410Y-61960085D01*
X82381410Y-62150561D01*
X82809981Y-61531514D02*
X81809981Y-61531514D01*
X82809981Y-60960085D01*
X81809981Y-60960085D01*
X82809981Y-60483895D02*
X81809981Y-60483895D01*
X81809981Y-60245800D01*
X81857600Y-60102942D01*
X81952838Y-60007704D01*
X82048076Y-59960085D01*
X82238552Y-59912466D01*
X82381410Y-59912466D01*
X82571886Y-59960085D01*
X82667124Y-60007704D01*
X82762362Y-60102942D01*
X82809981Y-60245800D01*
X82809981Y-60483895D01*
X166730952Y-108722381D02*
X167064285Y-109722381D01*
X167397619Y-108722381D01*
X167730952Y-109722381D02*
X167730952Y-108722381D01*
X167969047Y-108722381D01*
X168111905Y-108770000D01*
X168207143Y-108865238D01*
X168254762Y-108960476D01*
X168302381Y-109150952D01*
X168302381Y-109293810D01*
X168254762Y-109484286D01*
X168207143Y-109579524D01*
X168111905Y-109674762D01*
X167969047Y-109722381D01*
X167730952Y-109722381D01*
X168730952Y-109722381D02*
X168730952Y-108722381D01*
X168969047Y-108722381D01*
X169111905Y-108770000D01*
X169207143Y-108865238D01*
X169254762Y-108960476D01*
X169302381Y-109150952D01*
X169302381Y-109293810D01*
X169254762Y-109484286D01*
X169207143Y-109579524D01*
X169111905Y-109674762D01*
X168969047Y-109722381D01*
X168730952Y-109722381D01*
X170969048Y-108722381D02*
X170492857Y-108722381D01*
X170445238Y-109198571D01*
X170492857Y-109150952D01*
X170588095Y-109103333D01*
X170826191Y-109103333D01*
X170921429Y-109150952D01*
X170969048Y-109198571D01*
X171016667Y-109293810D01*
X171016667Y-109531905D01*
X170969048Y-109627143D01*
X170921429Y-109674762D01*
X170826191Y-109722381D01*
X170588095Y-109722381D01*
X170492857Y-109674762D01*
X170445238Y-109627143D01*
X171302381Y-108722381D02*
X171635714Y-109722381D01*
X171969048Y-108722381D01*
X169723724Y-110739981D02*
X169247533Y-110739981D01*
X169199914Y-111216171D01*
X169247533Y-111168552D01*
X169342771Y-111120933D01*
X169580867Y-111120933D01*
X169676105Y-111168552D01*
X169723724Y-111216171D01*
X169771343Y-111311410D01*
X169771343Y-111549505D01*
X169723724Y-111644743D01*
X169676105Y-111692362D01*
X169580867Y-111739981D01*
X169342771Y-111739981D01*
X169247533Y-111692362D01*
X169199914Y-111644743D01*
X170057057Y-110739981D02*
X170390390Y-111739981D01*
X170723724Y-110739981D01*
X165823724Y-110739981D02*
X165347533Y-110739981D01*
X165299914Y-111216171D01*
X165347533Y-111168552D01*
X165442771Y-111120933D01*
X165680867Y-111120933D01*
X165776105Y-111168552D01*
X165823724Y-111216171D01*
X165871343Y-111311410D01*
X165871343Y-111549505D01*
X165823724Y-111644743D01*
X165776105Y-111692362D01*
X165680867Y-111739981D01*
X165442771Y-111739981D01*
X165347533Y-111692362D01*
X165299914Y-111644743D01*
X166157057Y-110739981D02*
X166490390Y-111739981D01*
X166823724Y-110739981D01*
X161352296Y-110787600D02*
X161257058Y-110739981D01*
X161114201Y-110739981D01*
X160971343Y-110787600D01*
X160876105Y-110882838D01*
X160828486Y-110978076D01*
X160780867Y-111168552D01*
X160780867Y-111311410D01*
X160828486Y-111501886D01*
X160876105Y-111597124D01*
X160971343Y-111692362D01*
X161114201Y-111739981D01*
X161209439Y-111739981D01*
X161352296Y-111692362D01*
X161399915Y-111644743D01*
X161399915Y-111311410D01*
X161209439Y-111311410D01*
X161828486Y-111739981D02*
X161828486Y-110739981D01*
X162399915Y-111739981D01*
X162399915Y-110739981D01*
X162876105Y-111739981D02*
X162876105Y-110739981D01*
X163114200Y-110739981D01*
X163257058Y-110787600D01*
X163352296Y-110882838D01*
X163399915Y-110978076D01*
X163447534Y-111168552D01*
X163447534Y-111311410D01*
X163399915Y-111501886D01*
X163352296Y-111597124D01*
X163257058Y-111692362D01*
X163114200Y-111739981D01*
X162876105Y-111739981D01*
X157452296Y-110787600D02*
X157357058Y-110739981D01*
X157214201Y-110739981D01*
X157071343Y-110787600D01*
X156976105Y-110882838D01*
X156928486Y-110978076D01*
X156880867Y-111168552D01*
X156880867Y-111311410D01*
X156928486Y-111501886D01*
X156976105Y-111597124D01*
X157071343Y-111692362D01*
X157214201Y-111739981D01*
X157309439Y-111739981D01*
X157452296Y-111692362D01*
X157499915Y-111644743D01*
X157499915Y-111311410D01*
X157309439Y-111311410D01*
X157928486Y-111739981D02*
X157928486Y-110739981D01*
X158499915Y-111739981D01*
X158499915Y-110739981D01*
X158976105Y-111739981D02*
X158976105Y-110739981D01*
X159214200Y-110739981D01*
X159357058Y-110787600D01*
X159452296Y-110882838D01*
X159499915Y-110978076D01*
X159547534Y-111168552D01*
X159547534Y-111311410D01*
X159499915Y-111501886D01*
X159452296Y-111597124D01*
X159357058Y-111692362D01*
X159214200Y-111739981D01*
X158976105Y-111739981D01*
X134172381Y-26905238D02*
X133696190Y-27238572D01*
X134172381Y-27476667D02*
X133172381Y-27476667D01*
X133172381Y-27095714D01*
X133220000Y-27000476D01*
X133267619Y-26952857D01*
X133362857Y-26905238D01*
X133505714Y-26905238D01*
X133600952Y-26952857D01*
X133648571Y-27000476D01*
X133696190Y-27095714D01*
X133696190Y-27476667D01*
X134124762Y-26524286D02*
X134172381Y-26381429D01*
X134172381Y-26143333D01*
X134124762Y-26048095D01*
X134077143Y-26000476D01*
X133981905Y-25952857D01*
X133886667Y-25952857D01*
X133791429Y-26000476D01*
X133743810Y-26048095D01*
X133696190Y-26143333D01*
X133648571Y-26333810D01*
X133600952Y-26429048D01*
X133553333Y-26476667D01*
X133458095Y-26524286D01*
X133362857Y-26524286D01*
X133267619Y-26476667D01*
X133220000Y-26429048D01*
X133172381Y-26333810D01*
X133172381Y-26095714D01*
X133220000Y-25952857D01*
X133267619Y-25571905D02*
X133220000Y-25524286D01*
X133172381Y-25429048D01*
X133172381Y-25190952D01*
X133220000Y-25095714D01*
X133267619Y-25048095D01*
X133362857Y-25000476D01*
X133458095Y-25000476D01*
X133600952Y-25048095D01*
X134172381Y-25619524D01*
X134172381Y-25000476D01*
X133172381Y-24667143D02*
X133172381Y-24048095D01*
X133553333Y-24381429D01*
X133553333Y-24238571D01*
X133600952Y-24143333D01*
X133648571Y-24095714D01*
X133743810Y-24048095D01*
X133981905Y-24048095D01*
X134077143Y-24095714D01*
X134124762Y-24143333D01*
X134172381Y-24238571D01*
X134172381Y-24524286D01*
X134124762Y-24619524D01*
X134077143Y-24667143D01*
X133267619Y-23667143D02*
X133220000Y-23619524D01*
X133172381Y-23524286D01*
X133172381Y-23286190D01*
X133220000Y-23190952D01*
X133267619Y-23143333D01*
X133362857Y-23095714D01*
X133458095Y-23095714D01*
X133600952Y-23143333D01*
X134172381Y-23714762D01*
X134172381Y-23095714D01*
X135680461Y-28932596D02*
X135680461Y-28361167D01*
X136680461Y-28646882D02*
X135680461Y-28646882D01*
X136680461Y-28123072D02*
X136013794Y-27599262D01*
X136013794Y-28123072D02*
X136680461Y-27599262D01*
X139220461Y-28337358D02*
X138744270Y-28670692D01*
X139220461Y-28908787D02*
X138220461Y-28908787D01*
X138220461Y-28527834D01*
X138268080Y-28432596D01*
X138315699Y-28384977D01*
X138410937Y-28337358D01*
X138553794Y-28337358D01*
X138649032Y-28384977D01*
X138696651Y-28432596D01*
X138744270Y-28527834D01*
X138744270Y-28908787D01*
X139220461Y-28004025D02*
X138553794Y-27480215D01*
X138553794Y-28004025D02*
X139220461Y-27480215D01*
X141020000Y-29121904D02*
X140972381Y-29217142D01*
X140972381Y-29359999D01*
X141020000Y-29502857D01*
X141115238Y-29598095D01*
X141210476Y-29645714D01*
X141400952Y-29693333D01*
X141543810Y-29693333D01*
X141734286Y-29645714D01*
X141829524Y-29598095D01*
X141924762Y-29502857D01*
X141972381Y-29359999D01*
X141972381Y-29264761D01*
X141924762Y-29121904D01*
X141877143Y-29074285D01*
X141543810Y-29074285D01*
X141543810Y-29264761D01*
X141972381Y-28645714D02*
X140972381Y-28645714D01*
X141972381Y-28074285D01*
X140972381Y-28074285D01*
X141972381Y-27598095D02*
X140972381Y-27598095D01*
X140972381Y-27360000D01*
X141020000Y-27217142D01*
X141115238Y-27121904D01*
X141210476Y-27074285D01*
X141400952Y-27026666D01*
X141543810Y-27026666D01*
X141734286Y-27074285D01*
X141829524Y-27121904D01*
X141924762Y-27217142D01*
X141972381Y-27360000D01*
X141972381Y-27598095D01*
X96330952Y-27374762D02*
X96473809Y-27422381D01*
X96711905Y-27422381D01*
X96807143Y-27374762D01*
X96854762Y-27327143D01*
X96902381Y-27231905D01*
X96902381Y-27136667D01*
X96854762Y-27041429D01*
X96807143Y-26993810D01*
X96711905Y-26946190D01*
X96521428Y-26898571D01*
X96426190Y-26850952D01*
X96378571Y-26803333D01*
X96330952Y-26708095D01*
X96330952Y-26612857D01*
X96378571Y-26517619D01*
X96426190Y-26470000D01*
X96521428Y-26422381D01*
X96759524Y-26422381D01*
X96902381Y-26470000D01*
X97330952Y-27422381D02*
X97330952Y-26422381D01*
X97711905Y-26422381D01*
X97807143Y-26470000D01*
X97854762Y-26517619D01*
X97902381Y-26612857D01*
X97902381Y-26755714D01*
X97854762Y-26850952D01*
X97807143Y-26898571D01*
X97711905Y-26946190D01*
X97330952Y-26946190D01*
X98330952Y-26898571D02*
X98664286Y-26898571D01*
X98807143Y-27422381D02*
X98330952Y-27422381D01*
X98330952Y-26422381D01*
X98807143Y-26422381D01*
X99188095Y-27136667D02*
X99664286Y-27136667D01*
X99092857Y-27422381D02*
X99426190Y-26422381D01*
X99759524Y-27422381D01*
X100092857Y-27422381D02*
X100092857Y-26422381D01*
X100664286Y-27422381D02*
X100235714Y-26850952D01*
X100664286Y-26422381D02*
X100092857Y-26993810D01*
X101092857Y-26898571D02*
X101426191Y-26898571D01*
X101569048Y-27422381D02*
X101092857Y-27422381D01*
X101092857Y-26422381D01*
X101569048Y-26422381D01*
X102569048Y-27422381D02*
X102235714Y-26946190D01*
X101997619Y-27422381D02*
X101997619Y-26422381D01*
X102378572Y-26422381D01*
X102473810Y-26470000D01*
X102521429Y-26517619D01*
X102569048Y-26612857D01*
X102569048Y-26755714D01*
X102521429Y-26850952D01*
X102473810Y-26898571D01*
X102378572Y-26946190D01*
X101997619Y-26946190D01*
X165573334Y-101327143D02*
X165525715Y-101374762D01*
X165382858Y-101422381D01*
X165287620Y-101422381D01*
X165144762Y-101374762D01*
X165049524Y-101279524D01*
X165001905Y-101184286D01*
X164954286Y-100993810D01*
X164954286Y-100850952D01*
X165001905Y-100660476D01*
X165049524Y-100565238D01*
X165144762Y-100470000D01*
X165287620Y-100422381D01*
X165382858Y-100422381D01*
X165525715Y-100470000D01*
X165573334Y-100517619D01*
X166144762Y-100850952D02*
X166049524Y-100803333D01*
X166001905Y-100755714D01*
X165954286Y-100660476D01*
X165954286Y-100612857D01*
X166001905Y-100517619D01*
X166049524Y-100470000D01*
X166144762Y-100422381D01*
X166335239Y-100422381D01*
X166430477Y-100470000D01*
X166478096Y-100517619D01*
X166525715Y-100612857D01*
X166525715Y-100660476D01*
X166478096Y-100755714D01*
X166430477Y-100803333D01*
X166335239Y-100850952D01*
X166144762Y-100850952D01*
X166049524Y-100898571D01*
X166001905Y-100946190D01*
X165954286Y-101041429D01*
X165954286Y-101231905D01*
X166001905Y-101327143D01*
X166049524Y-101374762D01*
X166144762Y-101422381D01*
X166335239Y-101422381D01*
X166430477Y-101374762D01*
X166478096Y-101327143D01*
X166525715Y-101231905D01*
X166525715Y-101041429D01*
X166478096Y-100946190D01*
X166430477Y-100898571D01*
X166335239Y-100850952D01*
X168763334Y-106957143D02*
X168715715Y-107004762D01*
X168572858Y-107052381D01*
X168477620Y-107052381D01*
X168334762Y-107004762D01*
X168239524Y-106909524D01*
X168191905Y-106814286D01*
X168144286Y-106623810D01*
X168144286Y-106480952D01*
X168191905Y-106290476D01*
X168239524Y-106195238D01*
X168334762Y-106100000D01*
X168477620Y-106052381D01*
X168572858Y-106052381D01*
X168715715Y-106100000D01*
X168763334Y-106147619D01*
X169239524Y-107052381D02*
X169430000Y-107052381D01*
X169525239Y-107004762D01*
X169572858Y-106957143D01*
X169668096Y-106814286D01*
X169715715Y-106623810D01*
X169715715Y-106242857D01*
X169668096Y-106147619D01*
X169620477Y-106100000D01*
X169525239Y-106052381D01*
X169334762Y-106052381D01*
X169239524Y-106100000D01*
X169191905Y-106147619D01*
X169144286Y-106242857D01*
X169144286Y-106480952D01*
X169191905Y-106576190D01*
X169239524Y-106623810D01*
X169334762Y-106671429D01*
X169525239Y-106671429D01*
X169620477Y-106623810D01*
X169668096Y-106576190D01*
X169715715Y-106480952D01*
X152817143Y-33617143D02*
X152769524Y-33664762D01*
X152626667Y-33712381D01*
X152531429Y-33712381D01*
X152388571Y-33664762D01*
X152293333Y-33569524D01*
X152245714Y-33474286D01*
X152198095Y-33283810D01*
X152198095Y-33140952D01*
X152245714Y-32950476D01*
X152293333Y-32855238D01*
X152388571Y-32760000D01*
X152531429Y-32712381D01*
X152626667Y-32712381D01*
X152769524Y-32760000D01*
X152817143Y-32807619D01*
X153769524Y-33712381D02*
X153198095Y-33712381D01*
X153483809Y-33712381D02*
X153483809Y-32712381D01*
X153388571Y-32855238D01*
X153293333Y-32950476D01*
X153198095Y-32998095D01*
X154388571Y-32712381D02*
X154483810Y-32712381D01*
X154579048Y-32760000D01*
X154626667Y-32807619D01*
X154674286Y-32902857D01*
X154721905Y-33093333D01*
X154721905Y-33331429D01*
X154674286Y-33521905D01*
X154626667Y-33617143D01*
X154579048Y-33664762D01*
X154483810Y-33712381D01*
X154388571Y-33712381D01*
X154293333Y-33664762D01*
X154245714Y-33617143D01*
X154198095Y-33521905D01*
X154150476Y-33331429D01*
X154150476Y-33093333D01*
X154198095Y-32902857D01*
X154245714Y-32807619D01*
X154293333Y-32760000D01*
X154388571Y-32712381D01*
X148057619Y-23452381D02*
X147724285Y-22976190D01*
X147486190Y-23452381D02*
X147486190Y-22452381D01*
X147867143Y-22452381D01*
X147962381Y-22500000D01*
X148010000Y-22547619D01*
X148057619Y-22642857D01*
X148057619Y-22785714D01*
X148010000Y-22880952D01*
X147962381Y-22928571D01*
X147867143Y-22976190D01*
X147486190Y-22976190D01*
X148486190Y-22928571D02*
X148819524Y-22928571D01*
X148962381Y-23452381D02*
X148486190Y-23452381D01*
X148486190Y-22452381D01*
X148962381Y-22452381D01*
X149343333Y-23404762D02*
X149486190Y-23452381D01*
X149724286Y-23452381D01*
X149819524Y-23404762D01*
X149867143Y-23357143D01*
X149914762Y-23261905D01*
X149914762Y-23166667D01*
X149867143Y-23071429D01*
X149819524Y-23023810D01*
X149724286Y-22976190D01*
X149533809Y-22928571D01*
X149438571Y-22880952D01*
X149390952Y-22833333D01*
X149343333Y-22738095D01*
X149343333Y-22642857D01*
X149390952Y-22547619D01*
X149438571Y-22500000D01*
X149533809Y-22452381D01*
X149771905Y-22452381D01*
X149914762Y-22500000D01*
X150343333Y-22928571D02*
X150676667Y-22928571D01*
X150819524Y-23452381D02*
X150343333Y-23452381D01*
X150343333Y-22452381D01*
X150819524Y-22452381D01*
X151105238Y-22452381D02*
X151676667Y-22452381D01*
X151390952Y-23452381D02*
X151390952Y-22452381D01*
X148512061Y-31373059D02*
X148035870Y-31706393D01*
X148512061Y-31944488D02*
X147512061Y-31944488D01*
X147512061Y-31563535D01*
X147559680Y-31468297D01*
X147607299Y-31420678D01*
X147702537Y-31373059D01*
X147845394Y-31373059D01*
X147940632Y-31420678D01*
X147988251Y-31468297D01*
X148035870Y-31563535D01*
X148035870Y-31944488D01*
X148464442Y-30992107D02*
X148512061Y-30849250D01*
X148512061Y-30611154D01*
X148464442Y-30515916D01*
X148416823Y-30468297D01*
X148321585Y-30420678D01*
X148226347Y-30420678D01*
X148131109Y-30468297D01*
X148083490Y-30515916D01*
X148035870Y-30611154D01*
X147988251Y-30801631D01*
X147940632Y-30896869D01*
X147893013Y-30944488D01*
X147797775Y-30992107D01*
X147702537Y-30992107D01*
X147607299Y-30944488D01*
X147559680Y-30896869D01*
X147512061Y-30801631D01*
X147512061Y-30563535D01*
X147559680Y-30420678D01*
X147512061Y-30134964D02*
X147512061Y-29563535D01*
X148512061Y-29849250D02*
X147512061Y-29849250D01*
X151138421Y-31983537D02*
X150138421Y-31983537D01*
X150138421Y-31745442D01*
X150186040Y-31602584D01*
X150281278Y-31507346D01*
X150376516Y-31459727D01*
X150566992Y-31412108D01*
X150709850Y-31412108D01*
X150900326Y-31459727D01*
X150995564Y-31507346D01*
X151090802Y-31602584D01*
X151138421Y-31745442D01*
X151138421Y-31983537D01*
X150138421Y-31126394D02*
X150138421Y-30554965D01*
X151138421Y-30840680D02*
X150138421Y-30840680D01*
X151138421Y-29650203D02*
X150662230Y-29983537D01*
X151138421Y-30221632D02*
X150138421Y-30221632D01*
X150138421Y-29840679D01*
X150186040Y-29745441D01*
X150233659Y-29697822D01*
X150328897Y-29650203D01*
X150471754Y-29650203D01*
X150566992Y-29697822D01*
X150614611Y-29745441D01*
X150662230Y-29840679D01*
X150662230Y-30221632D01*
X158539524Y-57092381D02*
X158539524Y-57806667D01*
X158491904Y-57949524D01*
X158396666Y-58044762D01*
X158253809Y-58092381D01*
X158158571Y-58092381D01*
X158777619Y-58187619D02*
X159539524Y-58187619D01*
X159730000Y-57806667D02*
X160206191Y-57806667D01*
X159634762Y-58092381D02*
X159968095Y-57092381D01*
X160301429Y-58092381D01*
X160634762Y-58092381D02*
X160634762Y-57425714D01*
X160634762Y-57616190D02*
X160682381Y-57520952D01*
X160730000Y-57473333D01*
X160825238Y-57425714D01*
X160920477Y-57425714D01*
X161634763Y-58044762D02*
X161539525Y-58092381D01*
X161349048Y-58092381D01*
X161253810Y-58044762D01*
X161206191Y-57949524D01*
X161206191Y-57568571D01*
X161253810Y-57473333D01*
X161349048Y-57425714D01*
X161539525Y-57425714D01*
X161634763Y-57473333D01*
X161682382Y-57568571D01*
X161682382Y-57663810D01*
X161206191Y-57759048D01*
X161968096Y-57425714D02*
X162349048Y-57425714D01*
X162110953Y-58092381D02*
X162110953Y-57235238D01*
X162158572Y-57140000D01*
X162253810Y-57092381D01*
X162349048Y-57092381D01*
X82996667Y-71052381D02*
X82663333Y-70576190D01*
X82425238Y-71052381D02*
X82425238Y-70052381D01*
X82806191Y-70052381D01*
X82901429Y-70100000D01*
X82949048Y-70147619D01*
X82996667Y-70242857D01*
X82996667Y-70385714D01*
X82949048Y-70480952D01*
X82901429Y-70528571D01*
X82806191Y-70576190D01*
X82425238Y-70576190D01*
X83425238Y-70528571D02*
X83758572Y-70528571D01*
X83901429Y-71052381D02*
X83425238Y-71052381D01*
X83425238Y-70052381D01*
X83901429Y-70052381D01*
X84663334Y-70528571D02*
X84330000Y-70528571D01*
X84330000Y-71052381D02*
X84330000Y-70052381D01*
X84806191Y-70052381D01*
X85330000Y-70052381D02*
X85330000Y-70290476D01*
X85091905Y-70195238D02*
X85330000Y-70290476D01*
X85568096Y-70195238D01*
X85187143Y-70480952D02*
X85330000Y-70290476D01*
X85472858Y-70480952D01*
X86091905Y-70052381D02*
X86091905Y-70290476D01*
X85853810Y-70195238D02*
X86091905Y-70290476D01*
X86330001Y-70195238D01*
X85949048Y-70480952D02*
X86091905Y-70290476D01*
X86234763Y-70480952D01*
M02*
