M48
;DRILL file {KiCad 4.0.6} date 10/05/17 08:54:34
;FORMAT={-:-/ absolute / metric / decimal}
FMAT,2
METRIC,TZ
T1C0.400
T2C0.500
T3C0.762
T4C1.016
T5C1.801
T6C3.200
%
G90
G05
M71
T1
X80.86Y-102.23
X81.05Y-96.28
X81.08Y-114.69
X81.11Y-89.49
X81.14Y-108.61
X81.19Y-70.64
X81.19Y-82.95
X81.2Y-65.46
X81.27Y-75.63
X81.61Y-57.3
X81.84Y-120.92
X82.03Y-61.49
X82.12Y-100.16
X82.18Y-67.25
X82.22Y-68.54
X82.23Y-93.21
X82.26Y-58.9
X82.28Y-105.22
X82.31Y-85.75
X82.36Y-111.52
X82.37Y-63.06
X82.45Y-78.45
X82.52Y-72.43
X82.75Y-56.77
X82.9Y-37.8
X83.25Y-64.35
X83.26Y-77.28
X83.55Y-32.15
X83.65Y-74.925
X83.675Y-120.85
X84.01Y-108.43
X84.25Y-72.08
X84.27Y-85.27
X84.35Y-103.7
X84.49Y-94.83
X84.825Y-81.45
X84.92Y-64.85
X85.25Y-91.4
X85.8Y-67.63
X86.575Y-96.65
X86.625Y-84.05
X86.72Y-63.74
X86.79Y-74.88
X86.84Y-121.04
X86.91Y-70.84
X86.925Y-36.6
X87.12Y-90.97
X87.12Y-101.03
X87.275Y-77.
X87.4Y-87.125
X87.45Y-37.575
X87.525Y-108.725
X87.55Y-34.1
X87.55Y-112.36
X88.01Y-81.14
X88.24Y-64.43
X90.125Y-24.2
X90.22Y-67.32
X90.225Y-115.05
X90.6Y-59.82
X90.68Y-118.07
X90.75Y-120.28
X90.94Y-63.7
X91.3Y-112.475
X91.65Y-40.85
X91.85Y-36.5
X92.625Y-31.025
X92.96Y-69.27
X93.54Y-63.44
X93.925Y-116.025
X94.325Y-43.15
X94.375Y-36.825
X94.725Y-23.9
X94.83Y-59.28
X94.91Y-67.21
X95.Y-33.35
X95.29Y-113.
X95.3Y-115.9
X95.58Y-120.98
X96.275Y-118.35
X96.81Y-62.22
X96.975Y-40.4
X97.075Y-38.15
X97.125Y-33.45
X97.65Y-58.67
X98.175Y-114.425
X98.5Y-29.175
X98.68Y-66.26
X99.1Y-116.925
X99.28Y-71.38
X100.05Y-30.7
X100.05Y-62.56
X100.16Y-117.32
X100.36Y-113.
X100.6Y-42.2
X101.46Y-67.13
X101.59Y-57.78
X101.77Y-120.4
X101.975Y-118.725
X102.Y-33.025
X102.4Y-114.725
X102.43Y-61.94
X102.96Y-27.8
X103.19Y-23.97
X104.225Y-38.05
X104.275Y-32.425
X104.38Y-25.44
X104.58Y-64.32
X104.67Y-24.22
X104.71Y-26.96
X105.05Y-111.975
X105.08Y-67.45
X105.12Y-30.32
X105.16Y-120.85
X105.47Y-115.56
X105.5Y-69.35
X105.67Y-61.92
X106.73Y-58.56
X107.43Y-28.85
X108.05Y-43.175
X108.18Y-68.17
X108.52Y-64.26
X108.77Y-112.57
X108.775Y-32.525
X108.81Y-120.43
X108.925Y-115.975
X109.28Y-30.15
X109.8Y-60.35
X110.11Y-118.69
X110.9Y-33.45
X112.15Y-63.37
X112.27Y-28.96
X112.32Y-66.89
X112.4Y-47.75
X112.43Y-71.19
X112.775Y-37.775
X113.275Y-41.4
X113.35Y-113.65
X113.8Y-32.3
X113.83Y-59.9
X113.92Y-121.04
X113.93Y-30.27
X114.22Y-118.61
X114.7Y-44.15
X115.15Y-41.875
X115.2Y-49.825
X115.4Y-33.125
X115.95Y-117.625
X116.29Y-65.38
X116.69Y-28.97
X117.04Y-120.36
X117.45Y-36.4
X117.7Y-46.1
X118.06Y-30.4
X118.07Y-69.01
X118.22Y-112.66
X118.39Y-51.63
X118.45Y-115.1
X118.575Y-34.2
X118.63Y-61.92
X119.12Y-49.56
X119.12Y-50.89
X119.69Y-67.39
X119.9Y-119.225
X120.275Y-116.925
X120.5Y-32.85
X120.59Y-28.5
X120.65Y-34.85
X121.26Y-59.96
X121.26Y-65.16
X121.29Y-29.25
X122.72Y-115.56
X122.72Y-120.85
X123.525Y-112.625
X123.825Y-118.3
X123.83Y-29.7
X124.225Y-46.275
X124.33Y-66.78
X124.89Y-62.47
X125.35Y-33.
X125.9Y-71.25
X126.03Y-120.36
X126.2Y-29.81
X126.325Y-35.45
X126.74Y-60.13
X126.95Y-112.93
X127.325Y-116.9
X127.63Y-29.03
X127.85Y-63.87
X128.05Y-30.94
X128.225Y-118.825
X128.52Y-59.18
X128.6Y-44.1
X128.86Y-67.11
X128.975Y-38.525
X129.77Y-32.69
X129.94Y-40.71
X130.15Y-30.37
X130.225Y-46.325
X130.26Y-120.85
X130.31Y-28.97
X130.325Y-37.5
X130.42Y-64.15
X130.75Y-115.4
X131.1Y-113.075
X131.53Y-26.84
X131.6Y-60.8
X131.67Y-31.05
X131.69Y-39.41
X131.75Y-118.53
X131.77Y-59.18
X131.9Y-33.83
X132.04Y-68.73
X132.49Y-63.2
X132.51Y-28.69
X132.61Y-25.42
X133.16Y-35.09
X133.27Y-30.33
X133.275Y-117.575
X133.3Y-40.45
X133.31Y-32.69
X133.75Y-27.45
X133.94Y-67.78
X134.29Y-25.34
X134.61Y-120.36
X134.94Y-31.44
X135.01Y-29.12
X135.03Y-113.
X135.1Y-33.97
X135.16Y-37.03
X135.19Y-27.13
X135.29Y-58.84
X135.58Y-45.46
X135.625Y-117.7
X136.02Y-43.71
X136.85Y-65.94
X137.12Y-32.72
X137.14Y-44.56
X137.2Y-28.96
X137.22Y-37.02
X137.3Y-27.13
X137.74Y-71.36
X137.91Y-39.95
X137.95Y-27.94
X137.97Y-34.46
X138.14Y-30.95
X138.44Y-120.99
X138.475Y-118.95
X138.64Y-45.84
X138.65Y-113.3
X139.78Y-31.61
X140.03Y-120.23
X140.28Y-39.89
X140.625Y-112.525
X140.68Y-33.
X140.7Y-36.88
X140.78Y-41.8
X140.93Y-68.73
X141.24Y-29.28
X141.39Y-53.63
X141.39Y-118.41
X142.66Y-53.72
X142.83Y-41.07
X142.89Y-37.2
X142.97Y-52.72
X143.03Y-43.78
X143.14Y-33.19
X143.38Y-120.7
X143.41Y-29.57
X143.575Y-116.175
X143.71Y-112.85
X143.78Y-25.12
X145.18Y-58.13
X145.28Y-39.2
X145.35Y-103.125
X145.45Y-35.11
X145.55Y-119.125
X145.57Y-85.27
X145.62Y-31.15
X145.65Y-45.85
X145.68Y-26.82
X145.69Y-98.96
X146.04Y-41.24
X146.18Y-91.31
X146.35Y-70.24
X146.52Y-79.29
X146.57Y-116.51
X146.71Y-106.88
X146.8Y-96.7
X147.475Y-113.5
X147.5Y-120.4
X147.52Y-94.06
X147.87Y-98.35
X147.875Y-109.625
X147.93Y-73.08
X147.93Y-75.48
X147.94Y-87.67
X148.11Y-84.28
X148.2Y-70.94
X148.21Y-111.44
X148.29Y-79.03
X148.32Y-91.29
X148.35Y-103.675
X148.7Y-92.82
X148.72Y-105.54
X148.78Y-116.32
X149.1Y-94.11
X149.1Y-101.35
X149.48Y-108.84
X149.5Y-62.33
X149.53Y-60.29
X149.54Y-57.4
X149.55Y-58.8
X149.62Y-119.6
X149.78Y-46.71
X149.8Y-78.77
X150.04Y-85.69
X150.38Y-113.69
X150.61Y-58.24
X150.61Y-59.62
X150.79Y-61.39
X151.Y-101.09
X151.025Y-115.95
X151.14Y-98.96
X151.26Y-92.33
X151.26Y-104.65
X151.3Y-47.21
X151.61Y-62.41
X151.68Y-117.73
X151.75Y-82.05
X151.83Y-93.94
X151.84Y-78.05
X151.93Y-73.52
X151.95Y-59.33
X152.15Y-106.05
X152.18Y-60.45
X152.2Y-57.38
X152.36Y-89.19
X152.44Y-33.05
X152.48Y-46.74
X152.52Y-30.62
X152.61Y-90.64
X152.65Y-110.87
X152.82Y-82.68
X152.99Y-36.62
X153.04Y-98.43
X153.11Y-27.38
X153.21Y-61.26
X153.28Y-114.19
X153.33Y-42.89
X153.35Y-79.21
X153.36Y-39.48
X153.38Y-58.28
X153.47Y-24.84
X153.56Y-59.44
X153.71Y-76.1
X153.86Y-95.52
X153.9Y-33.53
X153.98Y-45.26
X154.Y-86.49
X154.11Y-60.23
X154.17Y-62.38
X154.29Y-30.4
X154.37Y-57.35
X154.42Y-119.72
X154.5Y-59.52
X154.81Y-106.55
X154.94Y-37.53
X155.01Y-27.94
X155.1Y-41.13
X155.12Y-43.25
X155.15Y-46.21
X155.18Y-24.89
X155.19Y-102.11
X155.21Y-116.9
X155.31Y-83.12
X155.66Y-90.41
X155.83Y-94.49
X155.94Y-89.
X156.02Y-85.34
X156.04Y-55.72
X156.13Y-111.76
X156.29Y-80.9
X156.44Y-65.8
X156.57Y-63.87
X156.82Y-54.
X156.97Y-99.19
X157.16Y-96.39
X157.38Y-55.14
X157.5Y-67.06
X157.6Y-59.24
X157.7Y-56.16
X157.89Y-89.03
X157.92Y-39.32
X157.97Y-44.96
X157.97Y-109.58
X158.09Y-65.08
X158.15Y-54.56
X158.15Y-91.74
X158.22Y-47.83
X158.34Y-37.07
X158.51Y-83.39
X158.64Y-99.8
X158.69Y-85.08
X158.86Y-87.83
X158.92Y-32.97
X158.94Y-56.01
X159.31Y-80.99
X159.31Y-94.68
X159.37Y-71.53
X159.59Y-66.2
X159.71Y-46.16
X159.72Y-89.52
X159.76Y-30.23
X159.79Y-42.9
X160.08Y-51.5
X160.24Y-98.88
X160.4Y-49.99
X160.41Y-67.87
X160.66Y-93.18
X160.83Y-63.91
X160.97Y-40.04
X160.99Y-95.33
X161.02Y-34.62
X161.05Y-37.11
X161.18Y-73.56
X161.18Y-90.59
X161.6Y-44.12
X161.68Y-50.4
X161.79Y-47.84
X161.83Y-53.9
X161.83Y-100.39
X162.02Y-88.59
X162.19Y-64.73
X162.26Y-49.93
X162.26Y-71.55
X162.28Y-92.01
X162.33Y-96.2
X162.6Y-84.46
X162.61Y-31.96
X162.78Y-34.31
X162.83Y-37.69
X162.99Y-66.71
X163.Y-94.16
X163.07Y-50.62
X163.09Y-63.54
X163.25Y-48.05
X163.31Y-52.87
X163.53Y-45.43
X163.58Y-91.48
X163.6Y-41.45
X163.67Y-29.78
X163.67Y-76.02
X163.71Y-35.94
X163.79Y-58.7
X163.82Y-55.05
X163.93Y-87.03
X163.95Y-85.36
X164.02Y-65.91
X164.1Y-56.07
X164.15Y-53.72
X164.2Y-89.72
X164.21Y-51.91
X164.21Y-74.01
X164.25Y-63.93
X164.26Y-93.12
X164.33Y-62.89
X164.52Y-67.21
X164.54Y-100.03
X164.85Y-95.89
X164.97Y-47.32
X165.06Y-55.34
X165.24Y-43.61
X165.25Y-52.83
X165.43Y-77.2
X165.45Y-38.08
X165.47Y-62.18
X165.52Y-49.93
X165.77Y-66.52
X165.89Y-71.77
X165.96Y-64.08
X165.98Y-48.2
X165.99Y-87.37
X166.13Y-97.93
X166.31Y-54.28
X166.34Y-51.39
X166.58Y-34.65
X166.61Y-74.74
X166.68Y-67.5
X166.76Y-60.43
X166.78Y-47.24
X166.83Y-93.46
X166.86Y-31.52
X166.91Y-78.51
X166.99Y-53.32
X167.31Y-89.08
X167.33Y-40.12
X167.42Y-29.5
X167.42Y-33.47
X167.53Y-62.9
X167.6Y-58.46
X167.72Y-51.71
X167.75Y-72.73
X167.75Y-80.41
X167.75Y-92.46
X167.84Y-77.98
X167.98Y-50.46
X168.03Y-45.23
X168.09Y-97.87
X168.1Y-65.42
X168.25Y-95.39
X168.34Y-100.56
X168.6Y-47.98
X168.72Y-41.98
X168.87Y-39.73
X168.87Y-52.05
X168.9Y-74.85
X169.02Y-57.4
X169.26Y-80.36
X169.32Y-67.28
X169.36Y-50.7
X169.45Y-49.8
X169.53Y-61.73
X169.54Y-71.53
X169.61Y-59.96
X169.73Y-43.3
X169.82Y-99.1
X169.99Y-73.48
X170.26Y-47.34
X170.3Y-28.
X170.35Y-64.77
X170.375Y-35.2
X170.43Y-76.56
X170.66Y-81.64
X170.69Y-58.5
X170.94Y-78.68
X171.03Y-24.35
X171.05Y-50.53
X171.16Y-49.95
X171.26Y-40.6
X171.28Y-45.05
X171.48Y-65.84
X171.61Y-76.02
X171.675Y-29.5
X171.81Y-62.77
X171.85Y-48.28
X171.875Y-35.225
X171.98Y-47.24
X172.21Y-59.86
X172.33Y-73.82
X172.78Y-77.78
X172.82Y-64.27
X173.49Y-61.24
X173.62Y-75.49
X174.49Y-59.48
X174.96Y-77.73
X175.26Y-61.83
X175.45Y-26.29
X175.66Y-63.79
X176.55Y-31.4
X176.75Y-76.61
X177.2Y-77.73
X177.22Y-59.74
X177.47Y-62.7
T2
X82.6Y-27.
X82.6Y-117.
X83.303Y-25.303
X83.303Y-28.697
X83.303Y-115.303
X83.303Y-118.697
X85.Y-24.6
X85.Y-29.4
X85.Y-114.6
X85.Y-119.4
X86.697Y-25.303
X86.697Y-28.697
X86.697Y-115.303
X86.697Y-118.697
X87.4Y-27.
X87.4Y-117.
X88.69Y-46.69
X136.28Y-61.2
X136.3Y-63.37
X138.18Y-56.89
X138.23Y-59.02
X145.3Y-57.13
X147.5Y-67.18
X151.46Y-45.11
X151.49Y-35.36
X162.46Y-102.7
X162.57Y-105.61
X163.36Y-61.93
X165.2Y-59.62
X168.45Y-24.51
X172.6Y-27.
X172.6Y-117.
X173.303Y-25.303
X173.303Y-28.697
X173.303Y-115.303
X173.303Y-118.697
X175.Y-24.6
X175.Y-29.4
X175.Y-114.6
X175.Y-119.4
X176.697Y-25.303
X176.697Y-28.697
X176.697Y-115.303
X176.697Y-118.697
X177.4Y-27.
X177.4Y-117.
T3
X89.81Y-73.76
X89.81Y-76.3
X89.81Y-78.84
X89.81Y-81.38
X89.81Y-83.92
X89.81Y-86.46
X89.81Y-89.
X89.81Y-91.54
X89.81Y-94.08
X89.81Y-96.62
X89.81Y-99.16
X89.81Y-101.7
X89.81Y-104.24
X89.81Y-106.78
X89.81Y-109.32
X92.35Y-73.76
X92.35Y-76.3
X92.35Y-78.84
X92.35Y-81.38
X92.35Y-83.92
X92.35Y-86.46
X92.35Y-89.
X92.35Y-91.54
X92.35Y-94.08
X92.35Y-96.62
X92.35Y-99.16
X92.35Y-101.7
X92.35Y-104.24
X92.35Y-106.78
X92.35Y-109.32
X94.89Y-73.76
X94.89Y-76.3
X94.89Y-78.84
X94.89Y-81.38
X94.89Y-83.92
X94.89Y-86.46
X94.89Y-89.
X94.89Y-91.54
X94.89Y-94.08
X94.89Y-96.62
X94.89Y-99.16
X94.89Y-101.7
X94.89Y-104.24
X94.89Y-106.78
X94.89Y-109.32
X97.43Y-73.76
X97.43Y-76.3
X97.43Y-78.84
X97.43Y-81.38
X97.43Y-83.92
X97.43Y-86.46
X97.43Y-89.
X97.43Y-91.54
X97.43Y-94.08
X97.43Y-96.62
X97.43Y-99.16
X97.43Y-101.7
X97.43Y-104.24
X97.43Y-106.78
X97.43Y-109.32
X99.97Y-73.76
X99.97Y-76.3
X99.97Y-78.84
X99.97Y-81.38
X99.97Y-83.92
X99.97Y-86.46
X99.97Y-89.
X99.97Y-91.54
X99.97Y-94.08
X99.97Y-96.62
X99.97Y-99.16
X99.97Y-101.7
X99.97Y-104.24
X99.97Y-106.78
X99.97Y-109.32
X102.51Y-73.76
X102.51Y-76.3
X102.51Y-78.84
X102.51Y-81.38
X102.51Y-83.92
X102.51Y-86.46
X102.51Y-89.
X102.51Y-91.54
X102.51Y-94.08
X102.51Y-96.62
X102.51Y-99.16
X102.51Y-101.7
X102.51Y-104.24
X102.51Y-106.78
X102.51Y-109.32
X105.05Y-73.76
X105.05Y-76.3
X105.05Y-78.84
X105.05Y-81.38
X105.05Y-83.92
X105.05Y-86.46
X105.05Y-89.
X105.05Y-91.54
X105.05Y-94.08
X105.05Y-96.62
X105.05Y-99.16
X105.05Y-101.7
X105.05Y-104.24
X105.05Y-106.78
X105.05Y-109.32
X107.59Y-73.76
X107.59Y-76.3
X107.59Y-78.84
X107.59Y-81.38
X107.59Y-83.92
X107.59Y-86.46
X107.59Y-89.
X107.59Y-91.54
X107.59Y-94.08
X107.59Y-96.62
X107.59Y-99.16
X107.59Y-101.7
X107.59Y-104.24
X107.59Y-106.78
X107.59Y-109.32
X110.13Y-73.76
X110.13Y-76.3
X110.13Y-78.84
X110.13Y-81.38
X110.13Y-83.92
X110.13Y-86.46
X110.13Y-89.
X110.13Y-91.54
X110.13Y-94.08
X110.13Y-96.62
X110.13Y-99.16
X110.13Y-101.7
X110.13Y-104.24
X110.13Y-106.78
X110.13Y-109.32
X112.67Y-73.76
X112.67Y-76.3
X112.67Y-78.84
X112.67Y-81.38
X112.67Y-83.92
X112.67Y-86.46
X112.67Y-89.
X112.67Y-91.54
X112.67Y-94.08
X112.67Y-96.62
X112.67Y-99.16
X112.67Y-101.7
X112.67Y-104.24
X112.67Y-106.78
X112.67Y-109.32
X115.21Y-73.76
X115.21Y-76.3
X115.21Y-78.84
X115.21Y-81.38
X115.21Y-83.92
X115.21Y-86.46
X115.21Y-89.
X115.21Y-91.54
X115.21Y-94.08
X115.21Y-96.62
X115.21Y-99.16
X115.21Y-101.7
X115.21Y-104.24
X115.21Y-106.78
X115.21Y-109.32
X117.75Y-73.76
X117.75Y-76.3
X117.75Y-78.84
X117.75Y-81.38
X117.75Y-83.92
X117.75Y-86.46
X117.75Y-89.
X117.75Y-91.54
X117.75Y-94.08
X117.75Y-96.62
X117.75Y-99.16
X117.75Y-101.7
X117.75Y-104.24
X117.75Y-106.78
X117.75Y-109.32
X120.29Y-73.76
X120.29Y-76.3
X120.29Y-78.84
X120.29Y-81.38
X120.29Y-83.92
X120.29Y-86.46
X120.29Y-89.
X120.29Y-91.54
X120.29Y-94.08
X120.29Y-96.62
X120.29Y-99.16
X120.29Y-101.7
X120.29Y-104.24
X120.29Y-106.78
X120.29Y-109.32
X122.83Y-73.76
X122.83Y-76.3
X122.83Y-78.84
X122.83Y-81.38
X122.83Y-83.92
X122.83Y-86.46
X122.83Y-89.
X122.83Y-91.54
X122.83Y-94.08
X122.83Y-96.62
X122.83Y-99.16
X122.83Y-101.7
X122.83Y-104.24
X122.83Y-106.78
X122.83Y-109.32
X125.37Y-73.76
X125.37Y-76.3
X125.37Y-78.84
X125.37Y-81.38
X125.37Y-83.92
X125.37Y-86.46
X125.37Y-89.
X125.37Y-91.54
X125.37Y-94.08
X125.37Y-96.62
X125.37Y-99.16
X125.37Y-101.7
X125.37Y-104.24
X125.37Y-106.78
X125.37Y-109.32
X127.91Y-73.76
X127.91Y-76.3
X127.91Y-78.84
X127.91Y-81.38
X127.91Y-83.92
X127.91Y-86.46
X127.91Y-89.
X127.91Y-91.54
X127.91Y-94.08
X127.91Y-96.62
X127.91Y-99.16
X127.91Y-101.7
X127.91Y-104.24
X127.91Y-106.78
X127.91Y-109.32
X130.45Y-73.76
X130.45Y-76.3
X130.45Y-78.84
X130.45Y-81.38
X130.45Y-83.92
X130.45Y-86.46
X130.45Y-89.
X130.45Y-91.54
X130.45Y-94.08
X130.45Y-96.62
X130.45Y-99.16
X130.45Y-101.7
X130.45Y-104.24
X130.45Y-106.78
X130.45Y-109.32
X132.99Y-73.76
X132.99Y-76.3
X132.99Y-78.84
X132.99Y-81.38
X132.99Y-83.92
X132.99Y-86.46
X132.99Y-89.
X132.99Y-91.54
X132.99Y-94.08
X132.99Y-96.62
X132.99Y-99.16
X132.99Y-101.7
X132.99Y-104.24
X132.99Y-106.78
X132.99Y-109.32
X135.53Y-73.76
X135.53Y-76.3
X135.53Y-78.84
X135.53Y-81.38
X135.53Y-83.92
X135.53Y-86.46
X135.53Y-89.
X135.53Y-91.54
X135.53Y-94.08
X135.53Y-96.62
X135.53Y-99.16
X135.53Y-101.7
X135.53Y-104.24
X135.53Y-106.78
X135.53Y-109.32
X138.07Y-73.76
X138.07Y-76.3
X138.07Y-78.84
X138.07Y-81.38
X138.07Y-83.92
X138.07Y-86.46
X138.07Y-89.
X138.07Y-91.54
X138.07Y-94.08
X138.07Y-96.62
X138.07Y-99.16
X138.07Y-101.7
X138.07Y-104.24
X138.07Y-106.78
X138.07Y-109.32
X140.61Y-73.76
X140.61Y-76.3
X140.61Y-78.84
X140.61Y-81.38
X140.61Y-83.92
X140.61Y-86.46
X140.61Y-89.
X140.61Y-91.54
X140.61Y-94.08
X140.61Y-96.62
X140.61Y-99.16
X140.61Y-101.7
X140.61Y-104.24
X140.61Y-106.78
X140.61Y-109.32
X143.15Y-73.76
X143.15Y-76.3
X143.15Y-78.84
X143.15Y-81.38
X143.15Y-83.92
X143.15Y-86.46
X143.15Y-89.
X143.15Y-91.54
X143.15Y-94.08
X143.15Y-96.62
X143.15Y-99.16
X143.15Y-101.7
X143.15Y-104.24
X143.15Y-106.78
X143.15Y-109.32
T4
X91.76Y-27.275
X94.3Y-27.275
X98.09Y-24.54
X100.63Y-24.54
X106.79Y-24.53
X106.79Y-27.07
X108.65Y-54.03
X109.33Y-24.53
X109.33Y-27.07
X111.19Y-54.03
X111.87Y-24.53
X111.87Y-27.07
X114.41Y-24.53
X114.41Y-27.07
X116.95Y-24.53
X116.95Y-27.07
X119.49Y-24.53
X119.49Y-27.07
X122.03Y-24.53
X122.03Y-27.07
X124.57Y-24.53
X124.57Y-27.07
X127.11Y-24.53
X127.11Y-27.07
X129.65Y-24.53
X129.65Y-27.07
X131.73Y-54.13
X134.27Y-54.13
X136.35Y-25.31
X138.89Y-25.31
X141.43Y-25.31
X148.08Y-25.4
X148.08Y-27.94
X150.62Y-25.4
X150.62Y-27.94
X158.24Y-25.07
X158.24Y-27.61
X160.78Y-25.07
X160.78Y-27.61
X163.32Y-25.07
X163.32Y-27.61
X165.86Y-25.07
X165.86Y-27.61
X173.99Y-33.78
X173.99Y-36.32
X173.99Y-38.86
X173.99Y-41.4
X173.99Y-43.94
X173.99Y-46.48
X173.99Y-49.02
X173.99Y-51.56
X173.99Y-54.1
X173.99Y-56.64
X174.37Y-80.54
X174.37Y-83.08
X174.37Y-85.62
X174.37Y-88.16
X174.37Y-90.7
X174.37Y-93.24
X174.37Y-95.78
X174.37Y-98.32
X174.37Y-100.86
X174.37Y-103.4
X176.47Y-66.43
X176.47Y-68.97
X176.47Y-71.51
X176.47Y-74.05
X176.53Y-33.78
X176.53Y-36.32
X176.53Y-38.86
X176.53Y-41.4
X176.53Y-43.94
X176.53Y-46.48
X176.53Y-49.02
X176.53Y-51.56
X176.53Y-54.1
X176.53Y-56.64
X176.91Y-80.54
X176.91Y-83.08
X176.91Y-85.62
X176.91Y-88.16
X176.91Y-90.7
X176.91Y-93.24
X176.91Y-95.78
X176.91Y-98.32
X176.91Y-100.86
X176.91Y-103.4
T5
X86.32Y-49.269
X86.32Y-53.229
X86.32Y-57.191
X86.32Y-61.151
X154.659Y-115.5
X158.619Y-115.5
X162.581Y-115.5
X166.541Y-115.5
T6
X85.Y-27.
X85.Y-117.
X175.Y-27.
X175.Y-117.
T0
M30
