G04 #@! TF.FileFunction,Legend,Top*
%FSLAX46Y46*%
G04 Gerber Fmt 4.6, Leading zero omitted, Abs format (unit mm)*
G04 Created by KiCad (PCBNEW 4.0.6) date 10/04/17 00:49:36*
%MOMM*%
%LPD*%
G01*
G04 APERTURE LIST*
%ADD10C,0.100000*%
%ADD11C,0.300000*%
%ADD12C,0.150000*%
%ADD13C,0.120000*%
%ADD14C,0.010000*%
G04 APERTURE END LIST*
D10*
D11*
X84051427Y-36621429D02*
X85479999Y-36621429D01*
X84622856Y-35764286D02*
X84051427Y-38335714D01*
X85289523Y-37478571D02*
X83860951Y-37478571D01*
X84718094Y-38335714D02*
X85289523Y-35764286D01*
X86527618Y-35954762D02*
X86718094Y-35954762D01*
X86908570Y-36050000D01*
X87003808Y-36145238D01*
X87099046Y-36335714D01*
X87194285Y-36716667D01*
X87194285Y-37192857D01*
X87099046Y-37573810D01*
X87003808Y-37764286D01*
X86908570Y-37859524D01*
X86718094Y-37954762D01*
X86527618Y-37954762D01*
X86337142Y-37859524D01*
X86241904Y-37764286D01*
X86146665Y-37573810D01*
X86051427Y-37192857D01*
X86051427Y-36716667D01*
X86146665Y-36335714D01*
X86241904Y-36145238D01*
X86337142Y-36050000D01*
X86527618Y-35954762D01*
X88432380Y-35954762D02*
X88622856Y-35954762D01*
X88813332Y-36050000D01*
X88908570Y-36145238D01*
X89003808Y-36335714D01*
X89099047Y-36716667D01*
X89099047Y-37192857D01*
X89003808Y-37573810D01*
X88908570Y-37764286D01*
X88813332Y-37859524D01*
X88622856Y-37954762D01*
X88432380Y-37954762D01*
X88241904Y-37859524D01*
X88146666Y-37764286D01*
X88051427Y-37573810D01*
X87956189Y-37192857D01*
X87956189Y-36716667D01*
X88051427Y-36335714D01*
X88146666Y-36145238D01*
X88241904Y-36050000D01*
X88432380Y-35954762D01*
X89860951Y-36145238D02*
X89956189Y-36050000D01*
X90146666Y-35954762D01*
X90622856Y-35954762D01*
X90813332Y-36050000D01*
X90908570Y-36145238D01*
X91003809Y-36335714D01*
X91003809Y-36526190D01*
X90908570Y-36811905D01*
X89765713Y-37954762D01*
X91003809Y-37954762D01*
X93384761Y-37954762D02*
X93384761Y-35954762D01*
X94051428Y-37383333D01*
X94718095Y-35954762D01*
X94718095Y-37954762D01*
X95575237Y-37383333D02*
X96527618Y-37383333D01*
X95384761Y-37954762D02*
X96051428Y-35954762D01*
X96718095Y-37954762D01*
X97384761Y-37954762D02*
X97384761Y-35954762D01*
X98527619Y-37954762D01*
X98527619Y-35954762D01*
X99384761Y-37383333D02*
X100337142Y-37383333D01*
X99194285Y-37954762D02*
X99860952Y-35954762D01*
X100527619Y-37954762D01*
X102241905Y-36050000D02*
X102051428Y-35954762D01*
X101765714Y-35954762D01*
X101480000Y-36050000D01*
X101289524Y-36240476D01*
X101194285Y-36430952D01*
X101099047Y-36811905D01*
X101099047Y-37097619D01*
X101194285Y-37478571D01*
X101289524Y-37669048D01*
X101480000Y-37859524D01*
X101765714Y-37954762D01*
X101956190Y-37954762D01*
X102241905Y-37859524D01*
X102337143Y-37764286D01*
X102337143Y-37097619D01*
X101956190Y-37097619D01*
X103194285Y-36907143D02*
X103860952Y-36907143D01*
X104146666Y-37954762D02*
X103194285Y-37954762D01*
X103194285Y-35954762D01*
X104146666Y-35954762D01*
X106146667Y-37954762D02*
X105480000Y-37002381D01*
X105003809Y-37954762D02*
X105003809Y-35954762D01*
X105765714Y-35954762D01*
X105956190Y-36050000D01*
X106051429Y-36145238D01*
X106146667Y-36335714D01*
X106146667Y-36621429D01*
X106051429Y-36811905D01*
X105956190Y-36907143D01*
X105765714Y-37002381D01*
X105003809Y-37002381D01*
X108908572Y-35954762D02*
X109289524Y-35954762D01*
X109480000Y-36050000D01*
X109670477Y-36240476D01*
X109765715Y-36621429D01*
X109765715Y-37288095D01*
X109670477Y-37669048D01*
X109480000Y-37859524D01*
X109289524Y-37954762D01*
X108908572Y-37954762D01*
X108718096Y-37859524D01*
X108527619Y-37669048D01*
X108432381Y-37288095D01*
X108432381Y-36621429D01*
X108527619Y-36240476D01*
X108718096Y-36050000D01*
X108908572Y-35954762D01*
X110622857Y-35954762D02*
X110622857Y-37573810D01*
X110718096Y-37764286D01*
X110813334Y-37859524D01*
X111003810Y-37954762D01*
X111384762Y-37954762D01*
X111575238Y-37859524D01*
X111670477Y-37764286D01*
X111765715Y-37573810D01*
X111765715Y-35954762D01*
X112432381Y-35954762D02*
X113575238Y-35954762D01*
X113003810Y-37954762D02*
X113003810Y-35954762D01*
X114241905Y-37954762D02*
X114241905Y-35954762D01*
X115003810Y-35954762D01*
X115194286Y-36050000D01*
X115289525Y-36145238D01*
X115384763Y-36335714D01*
X115384763Y-36621429D01*
X115289525Y-36811905D01*
X115194286Y-36907143D01*
X115003810Y-37002381D01*
X114241905Y-37002381D01*
X116241905Y-35954762D02*
X116241905Y-37573810D01*
X116337144Y-37764286D01*
X116432382Y-37859524D01*
X116622858Y-37954762D01*
X117003810Y-37954762D01*
X117194286Y-37859524D01*
X117289525Y-37764286D01*
X117384763Y-37573810D01*
X117384763Y-35954762D01*
X118051429Y-35954762D02*
X119194286Y-35954762D01*
X118622858Y-37954762D02*
X118622858Y-35954762D01*
X119765715Y-37859524D02*
X120051430Y-37954762D01*
X120527620Y-37954762D01*
X120718096Y-37859524D01*
X120813334Y-37764286D01*
X120908573Y-37573810D01*
X120908573Y-37383333D01*
X120813334Y-37192857D01*
X120718096Y-37097619D01*
X120527620Y-37002381D01*
X120146668Y-36907143D01*
X119956192Y-36811905D01*
X119860953Y-36716667D01*
X119765715Y-36526190D01*
X119765715Y-36335714D01*
X119860953Y-36145238D01*
X119956192Y-36050000D01*
X120146668Y-35954762D01*
X120622858Y-35954762D01*
X120908573Y-36050000D01*
D12*
X122806000Y-50704000D02*
X119758000Y-50704000D01*
X119758000Y-50704000D02*
X119758000Y-57816000D01*
X119758000Y-57816000D02*
X122806000Y-57816000D01*
X125854000Y-50704000D02*
X126616000Y-50704000D01*
X126616000Y-50704000D02*
X128902000Y-52228000D01*
X128902000Y-52228000D02*
X128902000Y-56292000D01*
X128902000Y-56292000D02*
X126616000Y-57816000D01*
X126616000Y-57816000D02*
X125854000Y-57816000D01*
X98850000Y-55690000D02*
X98850000Y-54690000D01*
X97150000Y-54690000D02*
X97150000Y-55690000D01*
X95070000Y-55670000D02*
X95070000Y-54670000D01*
X93370000Y-54670000D02*
X93370000Y-55670000D01*
X83505000Y-44240000D02*
X83505000Y-43040000D01*
X85255000Y-43040000D02*
X85255000Y-44240000D01*
X89325000Y-43050000D02*
X89325000Y-44250000D01*
X87575000Y-44250000D02*
X87575000Y-43050000D01*
X148215000Y-56295000D02*
X148215000Y-56620000D01*
X155465000Y-56295000D02*
X155465000Y-56620000D01*
X155465000Y-63545000D02*
X155465000Y-63220000D01*
X148215000Y-63545000D02*
X148215000Y-63220000D01*
X148215000Y-56295000D02*
X148540000Y-56295000D01*
X148215000Y-63545000D02*
X148540000Y-63545000D01*
X155465000Y-63545000D02*
X155140000Y-63545000D01*
X155465000Y-56295000D02*
X155140000Y-56295000D01*
X148215000Y-56620000D02*
X146790000Y-56620000D01*
X119255000Y-53860000D02*
X119255000Y-55060000D01*
X117505000Y-55060000D02*
X117505000Y-53860000D01*
X121850000Y-48685000D02*
X123050000Y-48685000D01*
X123050000Y-50435000D02*
X121850000Y-50435000D01*
X160090000Y-107445000D02*
X158890000Y-107445000D01*
X158890000Y-105695000D02*
X160090000Y-105695000D01*
X158960000Y-101805000D02*
X160160000Y-101805000D01*
X160160000Y-103555000D02*
X158960000Y-103555000D01*
X160810000Y-62815000D02*
X159610000Y-62815000D01*
X159610000Y-61065000D02*
X160810000Y-61065000D01*
X140930000Y-58135000D02*
X142130000Y-58135000D01*
X142130000Y-59885000D02*
X140930000Y-59885000D01*
X140910000Y-56025000D02*
X142110000Y-56025000D01*
X142110000Y-57775000D02*
X140910000Y-57775000D01*
X107100000Y-55580000D02*
X108650000Y-55580000D01*
X112460000Y-55300000D02*
X109920000Y-55300000D01*
X109920000Y-55300000D02*
X109920000Y-52760000D01*
X108650000Y-52480000D02*
X107100000Y-52480000D01*
X107100000Y-52480000D02*
X107100000Y-55580000D01*
X109920000Y-52760000D02*
X112460000Y-52760000D01*
X112460000Y-52760000D02*
X112460000Y-55300000D01*
X130180000Y-55680000D02*
X131730000Y-55680000D01*
X135540000Y-55400000D02*
X133000000Y-55400000D01*
X133000000Y-55400000D02*
X133000000Y-52860000D01*
X131730000Y-52580000D02*
X130180000Y-52580000D01*
X130180000Y-52580000D02*
X130180000Y-55680000D01*
X133000000Y-52860000D02*
X135540000Y-52860000D01*
X135540000Y-52860000D02*
X135540000Y-55400000D01*
X138820000Y-60305000D02*
X140020000Y-60305000D01*
X140020000Y-62055000D02*
X138820000Y-62055000D01*
X138820000Y-62485000D02*
X140020000Y-62485000D01*
X140020000Y-64235000D02*
X138820000Y-64235000D01*
X132735000Y-47510000D02*
X132735000Y-46310000D01*
X134485000Y-46310000D02*
X134485000Y-47510000D01*
X132880000Y-43285000D02*
X131680000Y-43285000D01*
X131680000Y-41535000D02*
X132880000Y-41535000D01*
X177800000Y-32510000D02*
X177800000Y-57910000D01*
X172720000Y-55370000D02*
X172720000Y-32510000D01*
X177800000Y-32510000D02*
X172720000Y-32510000D01*
X177800000Y-57910000D02*
X175260000Y-57910000D01*
X172440000Y-56640000D02*
X172440000Y-58190000D01*
X175260000Y-57910000D02*
X175260000Y-55370000D01*
X175260000Y-55370000D02*
X172720000Y-55370000D01*
X172440000Y-58190000D02*
X173990000Y-58190000D01*
X173100000Y-104670000D02*
X173100000Y-79270000D01*
X178180000Y-81810000D02*
X178180000Y-104670000D01*
X173100000Y-104670000D02*
X178180000Y-104670000D01*
X173100000Y-79270000D02*
X175640000Y-79270000D01*
X178460000Y-80540000D02*
X178460000Y-78990000D01*
X175640000Y-79270000D02*
X175640000Y-81810000D01*
X175640000Y-81810000D02*
X178180000Y-81810000D01*
X178460000Y-78990000D02*
X176910000Y-78990000D01*
X130920000Y-28340000D02*
X105520000Y-28340000D01*
X108060000Y-23260000D02*
X130920000Y-23260000D01*
X130920000Y-28340000D02*
X130920000Y-23260000D01*
X105520000Y-28340000D02*
X105520000Y-25800000D01*
X106790000Y-22980000D02*
X105240000Y-22980000D01*
X105520000Y-25800000D02*
X108060000Y-25800000D01*
X108060000Y-25800000D02*
X108060000Y-23260000D01*
X105240000Y-22980000D02*
X105240000Y-24530000D01*
X175200000Y-72780000D02*
X175200000Y-65160000D01*
X177740000Y-72780000D02*
X177740000Y-65160000D01*
X178020000Y-75600000D02*
X178020000Y-74050000D01*
X175200000Y-65160000D02*
X177740000Y-65160000D01*
X177740000Y-72780000D02*
X175200000Y-72780000D01*
X174920000Y-74050000D02*
X174920000Y-75600000D01*
X174920000Y-75600000D02*
X178020000Y-75600000D01*
X159510000Y-23800000D02*
X167130000Y-23800000D01*
X167130000Y-23800000D02*
X167130000Y-28880000D01*
X167130000Y-28880000D02*
X156970000Y-28880000D01*
X156970000Y-28880000D02*
X156970000Y-26340000D01*
X158240000Y-23520000D02*
X156690000Y-23520000D01*
X156970000Y-26340000D02*
X159510000Y-26340000D01*
X159510000Y-26340000D02*
X159510000Y-23800000D01*
X156690000Y-23520000D02*
X156690000Y-25070000D01*
D13*
X144420000Y-61740000D02*
X144420000Y-62840000D01*
X142820000Y-61740000D02*
X142820000Y-62840000D01*
D10*
X151200000Y-50620000D02*
X151200000Y-50620000D01*
X151200000Y-50620000D02*
X151200000Y-50620000D01*
D13*
X150880000Y-42320000D02*
X150880000Y-37920000D01*
X150880000Y-42320000D02*
X148280000Y-42320000D01*
X148280000Y-37920000D02*
X150880000Y-37920000D01*
X148280000Y-42320000D02*
X148280000Y-37920000D01*
D12*
X91420320Y-62751260D02*
X91968960Y-62751260D01*
X91968960Y-62751260D02*
X91968960Y-47668740D01*
X91968960Y-47668740D02*
X91420320Y-47668740D01*
X84120360Y-47668740D02*
X81219680Y-47668740D01*
X81219680Y-47668740D02*
X81219680Y-58771080D01*
X88519640Y-62751260D02*
X91420320Y-62751260D01*
X91420320Y-62751260D02*
X91420320Y-47668740D01*
X91420320Y-47668740D02*
X88519640Y-47668740D01*
X81219680Y-58771080D02*
X81219680Y-61151060D01*
X81219680Y-61151060D02*
X81219680Y-62751260D01*
X81219680Y-62751260D02*
X84120360Y-62751260D01*
X156708740Y-120350320D02*
X156708740Y-120898960D01*
X156708740Y-120898960D02*
X171791260Y-120898960D01*
X171791260Y-120898960D02*
X171791260Y-120350320D01*
X171791260Y-113050360D02*
X171791260Y-110149680D01*
X171791260Y-110149680D02*
X160688920Y-110149680D01*
X156708740Y-117449640D02*
X156708740Y-120350320D01*
X156708740Y-120350320D02*
X171791260Y-120350320D01*
X171791260Y-120350320D02*
X171791260Y-117449640D01*
X160688920Y-110149680D02*
X158308940Y-110149680D01*
X158308940Y-110149680D02*
X156708740Y-110149680D01*
X156708740Y-110149680D02*
X156708740Y-113050360D01*
X137620000Y-26580000D02*
X142700000Y-26580000D01*
X142700000Y-26580000D02*
X142700000Y-24040000D01*
X142700000Y-24040000D02*
X137620000Y-24040000D01*
X134800000Y-23760000D02*
X136350000Y-23760000D01*
X137620000Y-24040000D02*
X137620000Y-26580000D01*
X136350000Y-26860000D02*
X134800000Y-26860000D01*
X134800000Y-26860000D02*
X134800000Y-23760000D01*
X102180000Y-22990000D02*
X100630000Y-22990000D01*
X96820000Y-23270000D02*
X99360000Y-23270000D01*
X99360000Y-23270000D02*
X99360000Y-25810000D01*
X100630000Y-26090000D02*
X102180000Y-26090000D01*
X102180000Y-26090000D02*
X102180000Y-22990000D01*
X99360000Y-25810000D02*
X96820000Y-25810000D01*
X96820000Y-25810000D02*
X96820000Y-23270000D01*
X165270000Y-103490000D02*
X166270000Y-103490000D01*
X166270000Y-101790000D02*
X165270000Y-101790000D01*
X165200000Y-107340000D02*
X166200000Y-107340000D01*
X166200000Y-105640000D02*
X165200000Y-105640000D01*
X148790000Y-32315000D02*
X149990000Y-32315000D01*
X149990000Y-34065000D02*
X148790000Y-34065000D01*
X146530000Y-23850000D02*
X146530000Y-25400000D01*
X148080000Y-23850000D02*
X146530000Y-23850000D01*
X148080000Y-23850000D02*
X146530000Y-23850000D01*
X149350000Y-24130000D02*
X149350000Y-26670000D01*
X149350000Y-26670000D02*
X146810000Y-26670000D01*
X146810000Y-26670000D02*
X146810000Y-29210000D01*
X146810000Y-29210000D02*
X151890000Y-29210000D01*
X151890000Y-29210000D02*
X151890000Y-24130000D01*
X151890000Y-24130000D02*
X149350000Y-24130000D01*
X159630000Y-58865000D02*
X160830000Y-58865000D01*
X160830000Y-60615000D02*
X159630000Y-60615000D01*
D14*
G36*
X156942954Y-83022936D02*
X157423314Y-83096040D01*
X157894875Y-83217580D01*
X158354294Y-83387303D01*
X158585430Y-83493603D01*
X159016576Y-83733542D01*
X159417285Y-84012867D01*
X159785364Y-84328797D01*
X160118621Y-84678553D01*
X160414865Y-85059355D01*
X160671902Y-85468423D01*
X160887541Y-85902977D01*
X161059589Y-86360239D01*
X161171843Y-86773200D01*
X161225179Y-87041848D01*
X161260363Y-87300455D01*
X161278834Y-87565850D01*
X161282029Y-87854862D01*
X161278207Y-88017800D01*
X161245559Y-88463595D01*
X161176171Y-88883598D01*
X161067064Y-89289728D01*
X160915256Y-89693905D01*
X160792429Y-89960900D01*
X160552772Y-90392428D01*
X160273465Y-90794143D01*
X159957259Y-91163631D01*
X159606906Y-91498482D01*
X159225157Y-91796285D01*
X158814764Y-92054628D01*
X158378478Y-92271100D01*
X157984000Y-92422160D01*
X157723556Y-92502714D01*
X157480268Y-92563375D01*
X157239049Y-92606605D01*
X156984813Y-92634867D01*
X156702473Y-92650622D01*
X156561600Y-92654300D01*
X156292604Y-92656425D01*
X156070203Y-92651733D01*
X155890631Y-92640100D01*
X155799600Y-92629413D01*
X155311820Y-92534501D01*
X154841797Y-92393373D01*
X154392297Y-92208001D01*
X153966086Y-91980354D01*
X153565931Y-91712402D01*
X153194599Y-91406117D01*
X152854856Y-91063468D01*
X152549469Y-90686425D01*
X152281204Y-90276959D01*
X152144067Y-90026090D01*
X151942061Y-89574499D01*
X151788487Y-89109848D01*
X151683565Y-88635093D01*
X151627517Y-88153191D01*
X151622877Y-87828665D01*
X151835036Y-87828665D01*
X151848917Y-88182691D01*
X151884266Y-88529652D01*
X151940230Y-88852712D01*
X151965829Y-88962172D01*
X152108256Y-89423198D01*
X152296276Y-89863242D01*
X152528210Y-90279933D01*
X152802382Y-90670898D01*
X153117116Y-91033767D01*
X153470734Y-91366167D01*
X153861560Y-91665729D01*
X153892149Y-91686686D01*
X154158312Y-91849467D01*
X154460333Y-92002990D01*
X154783365Y-92141135D01*
X155112564Y-92257777D01*
X155433084Y-92346795D01*
X155558300Y-92373839D01*
X155944590Y-92431575D01*
X156342282Y-92457642D01*
X156731582Y-92451133D01*
X156911851Y-92435932D01*
X157396607Y-92358553D01*
X157863840Y-92234857D01*
X158310902Y-92066521D01*
X158735144Y-91855222D01*
X159133918Y-91602636D01*
X159504576Y-91310439D01*
X159844471Y-90980308D01*
X160150952Y-90613920D01*
X160420199Y-90214900D01*
X160645188Y-89793426D01*
X160823512Y-89355234D01*
X160955008Y-88904063D01*
X161039511Y-88443650D01*
X161076858Y-87977730D01*
X161066883Y-87510042D01*
X161009423Y-87044323D01*
X160904313Y-86584309D01*
X160751390Y-86133738D01*
X160613254Y-85820700D01*
X160377539Y-85392250D01*
X160103594Y-84996428D01*
X159793431Y-84634861D01*
X159449065Y-84309176D01*
X159072509Y-84020999D01*
X158665778Y-83771959D01*
X158230884Y-83563683D01*
X157769841Y-83397796D01*
X157533391Y-83332075D01*
X157283875Y-83281228D01*
X157000846Y-83243928D01*
X156699982Y-83221034D01*
X156396958Y-83213408D01*
X156107453Y-83221908D01*
X155888500Y-83241847D01*
X155416249Y-83326125D01*
X154961904Y-83456154D01*
X154527998Y-83629455D01*
X154117068Y-83843549D01*
X153731646Y-84095958D01*
X153374268Y-84384202D01*
X153047469Y-84705804D01*
X152753783Y-85058283D01*
X152495745Y-85439162D01*
X152275889Y-85845962D01*
X152096751Y-86276204D01*
X151960864Y-86727409D01*
X151875076Y-87166762D01*
X151843471Y-87484410D01*
X151835036Y-87828665D01*
X151622877Y-87828665D01*
X151620566Y-87667099D01*
X151662934Y-87179774D01*
X151754842Y-86694173D01*
X151864869Y-86306834D01*
X152036820Y-85862010D01*
X152253196Y-85437648D01*
X152510726Y-85036966D01*
X152806141Y-84663184D01*
X153136172Y-84319522D01*
X153497548Y-84009197D01*
X153887000Y-83735429D01*
X154301257Y-83501436D01*
X154737051Y-83310439D01*
X155000431Y-83219997D01*
X155482535Y-83096800D01*
X155969220Y-83023061D01*
X156457141Y-82998525D01*
X156942954Y-83022936D01*
X156942954Y-83022936D01*
G37*
X156942954Y-83022936D02*
X157423314Y-83096040D01*
X157894875Y-83217580D01*
X158354294Y-83387303D01*
X158585430Y-83493603D01*
X159016576Y-83733542D01*
X159417285Y-84012867D01*
X159785364Y-84328797D01*
X160118621Y-84678553D01*
X160414865Y-85059355D01*
X160671902Y-85468423D01*
X160887541Y-85902977D01*
X161059589Y-86360239D01*
X161171843Y-86773200D01*
X161225179Y-87041848D01*
X161260363Y-87300455D01*
X161278834Y-87565850D01*
X161282029Y-87854862D01*
X161278207Y-88017800D01*
X161245559Y-88463595D01*
X161176171Y-88883598D01*
X161067064Y-89289728D01*
X160915256Y-89693905D01*
X160792429Y-89960900D01*
X160552772Y-90392428D01*
X160273465Y-90794143D01*
X159957259Y-91163631D01*
X159606906Y-91498482D01*
X159225157Y-91796285D01*
X158814764Y-92054628D01*
X158378478Y-92271100D01*
X157984000Y-92422160D01*
X157723556Y-92502714D01*
X157480268Y-92563375D01*
X157239049Y-92606605D01*
X156984813Y-92634867D01*
X156702473Y-92650622D01*
X156561600Y-92654300D01*
X156292604Y-92656425D01*
X156070203Y-92651733D01*
X155890631Y-92640100D01*
X155799600Y-92629413D01*
X155311820Y-92534501D01*
X154841797Y-92393373D01*
X154392297Y-92208001D01*
X153966086Y-91980354D01*
X153565931Y-91712402D01*
X153194599Y-91406117D01*
X152854856Y-91063468D01*
X152549469Y-90686425D01*
X152281204Y-90276959D01*
X152144067Y-90026090D01*
X151942061Y-89574499D01*
X151788487Y-89109848D01*
X151683565Y-88635093D01*
X151627517Y-88153191D01*
X151622877Y-87828665D01*
X151835036Y-87828665D01*
X151848917Y-88182691D01*
X151884266Y-88529652D01*
X151940230Y-88852712D01*
X151965829Y-88962172D01*
X152108256Y-89423198D01*
X152296276Y-89863242D01*
X152528210Y-90279933D01*
X152802382Y-90670898D01*
X153117116Y-91033767D01*
X153470734Y-91366167D01*
X153861560Y-91665729D01*
X153892149Y-91686686D01*
X154158312Y-91849467D01*
X154460333Y-92002990D01*
X154783365Y-92141135D01*
X155112564Y-92257777D01*
X155433084Y-92346795D01*
X155558300Y-92373839D01*
X155944590Y-92431575D01*
X156342282Y-92457642D01*
X156731582Y-92451133D01*
X156911851Y-92435932D01*
X157396607Y-92358553D01*
X157863840Y-92234857D01*
X158310902Y-92066521D01*
X158735144Y-91855222D01*
X159133918Y-91602636D01*
X159504576Y-91310439D01*
X159844471Y-90980308D01*
X160150952Y-90613920D01*
X160420199Y-90214900D01*
X160645188Y-89793426D01*
X160823512Y-89355234D01*
X160955008Y-88904063D01*
X161039511Y-88443650D01*
X161076858Y-87977730D01*
X161066883Y-87510042D01*
X161009423Y-87044323D01*
X160904313Y-86584309D01*
X160751390Y-86133738D01*
X160613254Y-85820700D01*
X160377539Y-85392250D01*
X160103594Y-84996428D01*
X159793431Y-84634861D01*
X159449065Y-84309176D01*
X159072509Y-84020999D01*
X158665778Y-83771959D01*
X158230884Y-83563683D01*
X157769841Y-83397796D01*
X157533391Y-83332075D01*
X157283875Y-83281228D01*
X157000846Y-83243928D01*
X156699982Y-83221034D01*
X156396958Y-83213408D01*
X156107453Y-83221908D01*
X155888500Y-83241847D01*
X155416249Y-83326125D01*
X154961904Y-83456154D01*
X154527998Y-83629455D01*
X154117068Y-83843549D01*
X153731646Y-84095958D01*
X153374268Y-84384202D01*
X153047469Y-84705804D01*
X152753783Y-85058283D01*
X152495745Y-85439162D01*
X152275889Y-85845962D01*
X152096751Y-86276204D01*
X151960864Y-86727409D01*
X151875076Y-87166762D01*
X151843471Y-87484410D01*
X151835036Y-87828665D01*
X151622877Y-87828665D01*
X151620566Y-87667099D01*
X151662934Y-87179774D01*
X151754842Y-86694173D01*
X151864869Y-86306834D01*
X152036820Y-85862010D01*
X152253196Y-85437648D01*
X152510726Y-85036966D01*
X152806141Y-84663184D01*
X153136172Y-84319522D01*
X153497548Y-84009197D01*
X153887000Y-83735429D01*
X154301257Y-83501436D01*
X154737051Y-83310439D01*
X155000431Y-83219997D01*
X155482535Y-83096800D01*
X155969220Y-83023061D01*
X156457141Y-82998525D01*
X156942954Y-83022936D01*
G36*
X156770083Y-84097708D02*
X157199009Y-84159253D01*
X157625071Y-84270358D01*
X157742700Y-84310153D01*
X158126078Y-84473135D01*
X158490564Y-84681609D01*
X158832168Y-84932502D01*
X159146900Y-85222742D01*
X159430770Y-85549256D01*
X159536306Y-85691480D01*
X159591894Y-85771627D01*
X159633017Y-85834053D01*
X159653265Y-85868893D01*
X159654153Y-85872846D01*
X159627566Y-85878483D01*
X159565011Y-85887282D01*
X159495300Y-85895593D01*
X159212867Y-85945101D01*
X158967275Y-86026361D01*
X158759926Y-86138781D01*
X158596659Y-86277040D01*
X158474436Y-86428291D01*
X158394652Y-86583651D01*
X158350129Y-86758130D01*
X158343723Y-86806003D01*
X158336757Y-87040108D01*
X158373004Y-87249416D01*
X158453529Y-87437481D01*
X158579395Y-87607860D01*
X158585453Y-87614427D01*
X158677276Y-87705030D01*
X158777414Y-87785479D01*
X158895139Y-87861563D01*
X159039726Y-87939070D01*
X159220446Y-88023788D01*
X159291497Y-88055144D01*
X159498440Y-88150277D01*
X159660211Y-88236558D01*
X159780926Y-88317428D01*
X159864704Y-88396330D01*
X159915661Y-88476703D01*
X159937916Y-88561990D01*
X159939705Y-88596911D01*
X159917614Y-88719942D01*
X159851684Y-88818474D01*
X159742881Y-88891938D01*
X159592175Y-88939769D01*
X159400535Y-88961398D01*
X159315216Y-88962611D01*
X159081407Y-88939090D01*
X158843036Y-88876539D01*
X158616956Y-88780695D01*
X158421503Y-88658430D01*
X158338307Y-88594985D01*
X158345303Y-89008706D01*
X158352300Y-89422427D01*
X158515671Y-89483497D01*
X158684528Y-89533648D01*
X158886990Y-89573131D01*
X159106592Y-89599857D01*
X159326867Y-89611737D01*
X159501650Y-89608640D01*
X159609593Y-89603776D01*
X159695693Y-89602523D01*
X159749370Y-89604871D01*
X159762000Y-89608819D01*
X159747695Y-89645160D01*
X159708671Y-89713257D01*
X159650757Y-89804282D01*
X159579787Y-89909403D01*
X159501591Y-90019791D01*
X159422002Y-90126617D01*
X159408189Y-90144513D01*
X159124863Y-90468682D01*
X158808587Y-90755484D01*
X158462693Y-91003111D01*
X158090512Y-91209753D01*
X157695374Y-91373601D01*
X157280612Y-91492847D01*
X156849556Y-91565682D01*
X156777500Y-91573076D01*
X156631133Y-91585907D01*
X156517239Y-91592929D01*
X156417823Y-91594151D01*
X156314891Y-91589581D01*
X156190449Y-91579229D01*
X156129800Y-91573390D01*
X155690770Y-91505724D01*
X155268958Y-91391387D01*
X154867158Y-91231794D01*
X154488167Y-91028360D01*
X154134782Y-90782498D01*
X153809800Y-90495622D01*
X153636802Y-90312556D01*
X153579525Y-90243793D01*
X153565254Y-90225442D01*
X154924557Y-90225442D01*
X154944303Y-90323449D01*
X154983276Y-90389347D01*
X155059758Y-90444196D01*
X155153683Y-90467099D01*
X155246840Y-90456555D01*
X155315488Y-90416727D01*
X155341439Y-90380378D01*
X155324980Y-90366642D01*
X155270044Y-90377328D01*
X155247265Y-90385334D01*
X155153211Y-90399179D01*
X155075172Y-90371376D01*
X155021198Y-90310446D01*
X155003886Y-90242691D01*
X155369925Y-90242691D01*
X155371633Y-90324013D01*
X155404127Y-90393550D01*
X155459075Y-90443836D01*
X155528142Y-90467403D01*
X155602993Y-90456785D01*
X155675293Y-90404517D01*
X155678950Y-90400378D01*
X155717003Y-90322064D01*
X155716605Y-90234061D01*
X155678293Y-90157425D01*
X155672600Y-90151400D01*
X155632078Y-90127454D01*
X155748800Y-90127454D01*
X155768172Y-90150714D01*
X155774200Y-90151400D01*
X155790253Y-90173552D01*
X155798106Y-90228463D01*
X155798077Y-90298810D01*
X155790488Y-90367270D01*
X155775659Y-90416521D01*
X155769120Y-90425719D01*
X155759581Y-90445879D01*
X155789240Y-90454833D01*
X155832620Y-90456200D01*
X155893367Y-90450141D01*
X155925215Y-90435143D01*
X155926600Y-90430800D01*
X155907087Y-90406358D01*
X155899808Y-90405400D01*
X155884379Y-90382093D01*
X155879432Y-90318984D01*
X155880758Y-90284750D01*
X155889084Y-90209844D01*
X155906129Y-90171892D01*
X155938856Y-90157078D01*
X155945650Y-90155983D01*
X155978140Y-90155505D01*
X155997688Y-90171823D01*
X156007419Y-90214519D01*
X156010456Y-90293176D01*
X156010410Y-90354600D01*
X156017454Y-90419356D01*
X156035371Y-90459945D01*
X156038091Y-90462161D01*
X156089794Y-90480606D01*
X156124068Y-90465062D01*
X156129800Y-90443500D01*
X156116084Y-90409698D01*
X156104400Y-90405400D01*
X156085787Y-90383899D01*
X156079093Y-90331659D01*
X156083320Y-90267071D01*
X156097470Y-90208526D01*
X156116776Y-90177068D01*
X156169303Y-90151005D01*
X156205905Y-90173097D01*
X156226501Y-90243232D01*
X156231400Y-90331120D01*
X156233294Y-90416944D01*
X156240811Y-90461660D01*
X156256698Y-90474878D01*
X156271577Y-90471617D01*
X156323380Y-90457807D01*
X156340157Y-90456200D01*
X156353735Y-90445761D01*
X156338080Y-90425719D01*
X156318164Y-90381792D01*
X156307954Y-90312329D01*
X156307600Y-90297050D01*
X156296333Y-90190957D01*
X156272792Y-90148454D01*
X156388235Y-90148454D01*
X156404988Y-90161497D01*
X156415524Y-90192289D01*
X156420765Y-90257591D01*
X156421019Y-90341422D01*
X156416589Y-90427802D01*
X156407783Y-90500751D01*
X156397771Y-90538750D01*
X156392267Y-90567565D01*
X156416799Y-90580129D01*
X156476332Y-90582392D01*
X156536479Y-90579923D01*
X156553050Y-90570816D01*
X156533231Y-90550432D01*
X156529850Y-90547842D01*
X156490986Y-90503623D01*
X156493396Y-90469551D01*
X156535513Y-90456809D01*
X156542550Y-90457193D01*
X156642432Y-90453633D01*
X156705364Y-90419628D01*
X156736212Y-90351789D01*
X156783160Y-90351789D01*
X156791803Y-90410163D01*
X156834035Y-90453509D01*
X156892663Y-90465393D01*
X156900378Y-90463826D01*
X156964580Y-90455030D01*
X157042503Y-90453396D01*
X157043347Y-90453430D01*
X157098959Y-90452302D01*
X157111244Y-90440209D01*
X157100497Y-90426137D01*
X157080301Y-90381908D01*
X157069955Y-90312265D01*
X157069600Y-90297050D01*
X157059424Y-90193047D01*
X157026162Y-90130300D01*
X157024041Y-90129340D01*
X157145800Y-90129340D01*
X157165225Y-90150779D01*
X157171200Y-90151400D01*
X157187253Y-90173552D01*
X157195106Y-90228463D01*
X157195077Y-90298810D01*
X157187488Y-90367270D01*
X157172659Y-90416521D01*
X157166120Y-90425720D01*
X157156934Y-90445557D01*
X157186461Y-90454622D01*
X157234700Y-90456200D01*
X157295893Y-90452922D01*
X157313481Y-90441047D01*
X157303280Y-90425720D01*
X157284131Y-90382552D01*
X157273540Y-90312010D01*
X157272800Y-90287731D01*
X157277956Y-90215341D01*
X157297803Y-90177779D01*
X157326156Y-90163288D01*
X157381410Y-90159905D01*
X157415673Y-90194855D01*
X157431668Y-90272320D01*
X157433668Y-90328169D01*
X157436097Y-90404101D01*
X157446789Y-90442129D01*
X157471707Y-90455096D01*
X157493118Y-90456200D01*
X157538696Y-90446916D01*
X157552200Y-90430800D01*
X157532871Y-90406138D01*
X157526800Y-90405400D01*
X157512157Y-90382588D01*
X157502978Y-90324403D01*
X157501400Y-90281510D01*
X157495229Y-90203121D01*
X157479526Y-90145710D01*
X157469493Y-90131140D01*
X157433831Y-90118598D01*
X157582696Y-90118598D01*
X157583115Y-90119650D01*
X157650617Y-90257300D01*
X157693064Y-90359219D01*
X157712751Y-90432485D01*
X157711970Y-90484180D01*
X157706445Y-90500392D01*
X157683751Y-90555290D01*
X157685048Y-90578376D01*
X157711450Y-90583195D01*
X157713261Y-90583200D01*
X157738299Y-90561243D01*
X157773722Y-90503113D01*
X157812674Y-90420423D01*
X157820308Y-90401900D01*
X157862287Y-90305053D01*
X157904462Y-90219855D01*
X157938247Y-90163544D01*
X157940490Y-90160600D01*
X157987687Y-90100600D01*
X157896943Y-90100600D01*
X157836669Y-90108126D01*
X157805607Y-90125989D01*
X157812406Y-90147113D01*
X157829663Y-90155633D01*
X157835820Y-90181618D01*
X157821963Y-90235671D01*
X157815052Y-90253000D01*
X157776978Y-90341900D01*
X157730231Y-90253000D01*
X157706086Y-90195348D01*
X157702756Y-90159716D01*
X157706742Y-90155633D01*
X157732131Y-90134753D01*
X157716486Y-90113661D01*
X157668741Y-90101287D01*
X157651683Y-90100600D01*
X157600511Y-90105851D01*
X157582696Y-90118598D01*
X157433831Y-90118598D01*
X157430646Y-90117478D01*
X157364260Y-90109236D01*
X157286497Y-90106503D01*
X157213520Y-90109368D01*
X157161493Y-90117922D01*
X157145800Y-90129340D01*
X157024041Y-90129340D01*
X156965709Y-90102946D01*
X156932116Y-90100600D01*
X156864259Y-90111251D01*
X156817052Y-90137006D01*
X156815966Y-90138258D01*
X156802644Y-90162152D01*
X156822682Y-90171279D01*
X156881726Y-90170008D01*
X156949651Y-90171768D01*
X156981528Y-90191212D01*
X156987932Y-90208550D01*
X156979177Y-90246317D01*
X156958357Y-90253000D01*
X156891750Y-90266756D01*
X156827686Y-90300103D01*
X156787244Y-90341153D01*
X156783160Y-90351789D01*
X156736212Y-90351789D01*
X156737282Y-90349437D01*
X156744480Y-90261936D01*
X156736108Y-90182671D01*
X156705096Y-90134577D01*
X156642598Y-90111076D01*
X156539766Y-90105591D01*
X156534303Y-90105658D01*
X156438379Y-90111745D01*
X156389206Y-90126219D01*
X156388235Y-90148454D01*
X156272792Y-90148454D01*
X156260917Y-90127014D01*
X156198925Y-90101448D01*
X156181205Y-90100600D01*
X156122591Y-90108921D01*
X156090937Y-90127233D01*
X156061283Y-90139206D01*
X156044988Y-90129598D01*
X156005595Y-90115441D01*
X155940139Y-90107204D01*
X155865455Y-90105010D01*
X155798376Y-90108980D01*
X155755737Y-90119236D01*
X155748800Y-90127454D01*
X155632078Y-90127454D01*
X155602178Y-90109785D01*
X155519708Y-90100530D01*
X155444585Y-90123220D01*
X155407340Y-90157051D01*
X155369925Y-90242691D01*
X155003886Y-90242691D01*
X154999343Y-90224914D01*
X155012736Y-90137073D01*
X155059166Y-90060488D01*
X155108749Y-90031772D01*
X155187221Y-90017384D01*
X155251921Y-90024374D01*
X155288261Y-90050149D01*
X155291600Y-90064266D01*
X155305892Y-90096918D01*
X155317000Y-90100600D01*
X155338551Y-90081108D01*
X155341430Y-90037159D01*
X155327986Y-89990539D01*
X155302222Y-89963617D01*
X155227273Y-89949779D01*
X155135402Y-89951278D01*
X155054667Y-89966856D01*
X155033779Y-89975644D01*
X154971266Y-90035392D01*
X154934201Y-90124041D01*
X154924557Y-90225442D01*
X153565254Y-90225442D01*
X153509317Y-90153515D01*
X153432285Y-90050320D01*
X153354537Y-89942808D01*
X153282179Y-89839579D01*
X153221320Y-89749233D01*
X153178067Y-89680368D01*
X153158528Y-89641584D01*
X153158000Y-89638382D01*
X153181430Y-89630816D01*
X153244049Y-89621569D01*
X153334348Y-89612199D01*
X153378433Y-89608550D01*
X153678329Y-89568982D01*
X153766852Y-89545245D01*
X155215400Y-89545245D01*
X156123450Y-89535969D01*
X156363682Y-89533378D01*
X156558889Y-89530775D01*
X156714840Y-89527803D01*
X156837308Y-89524107D01*
X156932065Y-89519329D01*
X157004883Y-89513114D01*
X157061533Y-89505105D01*
X157107789Y-89494946D01*
X157149421Y-89482280D01*
X157181870Y-89470628D01*
X157356052Y-89395844D01*
X157496956Y-89310506D01*
X157622098Y-89203165D01*
X157674025Y-89148925D01*
X157791893Y-88993986D01*
X157868526Y-88827739D01*
X157908311Y-88638667D01*
X157916250Y-88513100D01*
X157899169Y-88295534D01*
X157839040Y-88104725D01*
X157736642Y-87941744D01*
X157592755Y-87807660D01*
X157408157Y-87703543D01*
X157296170Y-87661547D01*
X157114549Y-87603148D01*
X157270095Y-87532540D01*
X157450658Y-87425863D01*
X157594813Y-87288802D01*
X157699211Y-87126649D01*
X157760503Y-86944697D01*
X157775343Y-86748238D01*
X157774620Y-86735100D01*
X157741628Y-86545606D01*
X157667436Y-86382189D01*
X157550906Y-86243677D01*
X157390899Y-86128897D01*
X157186279Y-86036679D01*
X157056900Y-85995868D01*
X157003870Y-85983583D01*
X156937993Y-85973440D01*
X156853528Y-85965126D01*
X156744734Y-85958329D01*
X156605871Y-85952734D01*
X156431198Y-85948030D01*
X156214972Y-85943903D01*
X156059950Y-85941531D01*
X155215400Y-85929472D01*
X155215400Y-89545245D01*
X153766852Y-89545245D01*
X153937268Y-89499549D01*
X154155202Y-89400281D01*
X154332085Y-89271210D01*
X154467870Y-89112365D01*
X154562511Y-88923777D01*
X154596643Y-88808945D01*
X154627754Y-88579686D01*
X154613588Y-88358534D01*
X154556190Y-88151675D01*
X154457603Y-87965293D01*
X154319871Y-87805572D01*
X154244425Y-87743122D01*
X154174264Y-87693472D01*
X154097631Y-87644896D01*
X154006980Y-87593351D01*
X153894762Y-87534791D01*
X153753430Y-87465173D01*
X153575436Y-87380451D01*
X153512229Y-87350767D01*
X153316640Y-87249807D01*
X153170170Y-87152531D01*
X153071421Y-87057241D01*
X153018997Y-86962242D01*
X153011501Y-86865838D01*
X153040944Y-86778528D01*
X153111698Y-86680466D01*
X153211156Y-86609606D01*
X153344424Y-86563852D01*
X153516611Y-86541108D01*
X153627900Y-86537655D01*
X153809381Y-86546777D01*
X153984362Y-86578104D01*
X154165675Y-86635186D01*
X154366155Y-86721573D01*
X154459750Y-86767748D01*
X154466371Y-86747313D01*
X154471993Y-86684577D01*
X154476177Y-86588039D01*
X154478485Y-86466195D01*
X154478800Y-86397663D01*
X154478800Y-86017894D01*
X154331678Y-85976613D01*
X154087794Y-85924204D01*
X153815773Y-85893793D01*
X153534168Y-85887358D01*
X153503186Y-85888206D01*
X153236594Y-85896900D01*
X153277054Y-85833400D01*
X153455282Y-85581614D01*
X153665478Y-85331307D01*
X153895638Y-85094991D01*
X154133756Y-84885178D01*
X154320571Y-84745734D01*
X154697610Y-84518716D01*
X155091520Y-84338745D01*
X155499011Y-84206240D01*
X155916795Y-84121620D01*
X156341581Y-84085303D01*
X156770083Y-84097708D01*
X156770083Y-84097708D01*
G37*
X156770083Y-84097708D02*
X157199009Y-84159253D01*
X157625071Y-84270358D01*
X157742700Y-84310153D01*
X158126078Y-84473135D01*
X158490564Y-84681609D01*
X158832168Y-84932502D01*
X159146900Y-85222742D01*
X159430770Y-85549256D01*
X159536306Y-85691480D01*
X159591894Y-85771627D01*
X159633017Y-85834053D01*
X159653265Y-85868893D01*
X159654153Y-85872846D01*
X159627566Y-85878483D01*
X159565011Y-85887282D01*
X159495300Y-85895593D01*
X159212867Y-85945101D01*
X158967275Y-86026361D01*
X158759926Y-86138781D01*
X158596659Y-86277040D01*
X158474436Y-86428291D01*
X158394652Y-86583651D01*
X158350129Y-86758130D01*
X158343723Y-86806003D01*
X158336757Y-87040108D01*
X158373004Y-87249416D01*
X158453529Y-87437481D01*
X158579395Y-87607860D01*
X158585453Y-87614427D01*
X158677276Y-87705030D01*
X158777414Y-87785479D01*
X158895139Y-87861563D01*
X159039726Y-87939070D01*
X159220446Y-88023788D01*
X159291497Y-88055144D01*
X159498440Y-88150277D01*
X159660211Y-88236558D01*
X159780926Y-88317428D01*
X159864704Y-88396330D01*
X159915661Y-88476703D01*
X159937916Y-88561990D01*
X159939705Y-88596911D01*
X159917614Y-88719942D01*
X159851684Y-88818474D01*
X159742881Y-88891938D01*
X159592175Y-88939769D01*
X159400535Y-88961398D01*
X159315216Y-88962611D01*
X159081407Y-88939090D01*
X158843036Y-88876539D01*
X158616956Y-88780695D01*
X158421503Y-88658430D01*
X158338307Y-88594985D01*
X158345303Y-89008706D01*
X158352300Y-89422427D01*
X158515671Y-89483497D01*
X158684528Y-89533648D01*
X158886990Y-89573131D01*
X159106592Y-89599857D01*
X159326867Y-89611737D01*
X159501650Y-89608640D01*
X159609593Y-89603776D01*
X159695693Y-89602523D01*
X159749370Y-89604871D01*
X159762000Y-89608819D01*
X159747695Y-89645160D01*
X159708671Y-89713257D01*
X159650757Y-89804282D01*
X159579787Y-89909403D01*
X159501591Y-90019791D01*
X159422002Y-90126617D01*
X159408189Y-90144513D01*
X159124863Y-90468682D01*
X158808587Y-90755484D01*
X158462693Y-91003111D01*
X158090512Y-91209753D01*
X157695374Y-91373601D01*
X157280612Y-91492847D01*
X156849556Y-91565682D01*
X156777500Y-91573076D01*
X156631133Y-91585907D01*
X156517239Y-91592929D01*
X156417823Y-91594151D01*
X156314891Y-91589581D01*
X156190449Y-91579229D01*
X156129800Y-91573390D01*
X155690770Y-91505724D01*
X155268958Y-91391387D01*
X154867158Y-91231794D01*
X154488167Y-91028360D01*
X154134782Y-90782498D01*
X153809800Y-90495622D01*
X153636802Y-90312556D01*
X153579525Y-90243793D01*
X153565254Y-90225442D01*
X154924557Y-90225442D01*
X154944303Y-90323449D01*
X154983276Y-90389347D01*
X155059758Y-90444196D01*
X155153683Y-90467099D01*
X155246840Y-90456555D01*
X155315488Y-90416727D01*
X155341439Y-90380378D01*
X155324980Y-90366642D01*
X155270044Y-90377328D01*
X155247265Y-90385334D01*
X155153211Y-90399179D01*
X155075172Y-90371376D01*
X155021198Y-90310446D01*
X155003886Y-90242691D01*
X155369925Y-90242691D01*
X155371633Y-90324013D01*
X155404127Y-90393550D01*
X155459075Y-90443836D01*
X155528142Y-90467403D01*
X155602993Y-90456785D01*
X155675293Y-90404517D01*
X155678950Y-90400378D01*
X155717003Y-90322064D01*
X155716605Y-90234061D01*
X155678293Y-90157425D01*
X155672600Y-90151400D01*
X155632078Y-90127454D01*
X155748800Y-90127454D01*
X155768172Y-90150714D01*
X155774200Y-90151400D01*
X155790253Y-90173552D01*
X155798106Y-90228463D01*
X155798077Y-90298810D01*
X155790488Y-90367270D01*
X155775659Y-90416521D01*
X155769120Y-90425719D01*
X155759581Y-90445879D01*
X155789240Y-90454833D01*
X155832620Y-90456200D01*
X155893367Y-90450141D01*
X155925215Y-90435143D01*
X155926600Y-90430800D01*
X155907087Y-90406358D01*
X155899808Y-90405400D01*
X155884379Y-90382093D01*
X155879432Y-90318984D01*
X155880758Y-90284750D01*
X155889084Y-90209844D01*
X155906129Y-90171892D01*
X155938856Y-90157078D01*
X155945650Y-90155983D01*
X155978140Y-90155505D01*
X155997688Y-90171823D01*
X156007419Y-90214519D01*
X156010456Y-90293176D01*
X156010410Y-90354600D01*
X156017454Y-90419356D01*
X156035371Y-90459945D01*
X156038091Y-90462161D01*
X156089794Y-90480606D01*
X156124068Y-90465062D01*
X156129800Y-90443500D01*
X156116084Y-90409698D01*
X156104400Y-90405400D01*
X156085787Y-90383899D01*
X156079093Y-90331659D01*
X156083320Y-90267071D01*
X156097470Y-90208526D01*
X156116776Y-90177068D01*
X156169303Y-90151005D01*
X156205905Y-90173097D01*
X156226501Y-90243232D01*
X156231400Y-90331120D01*
X156233294Y-90416944D01*
X156240811Y-90461660D01*
X156256698Y-90474878D01*
X156271577Y-90471617D01*
X156323380Y-90457807D01*
X156340157Y-90456200D01*
X156353735Y-90445761D01*
X156338080Y-90425719D01*
X156318164Y-90381792D01*
X156307954Y-90312329D01*
X156307600Y-90297050D01*
X156296333Y-90190957D01*
X156272792Y-90148454D01*
X156388235Y-90148454D01*
X156404988Y-90161497D01*
X156415524Y-90192289D01*
X156420765Y-90257591D01*
X156421019Y-90341422D01*
X156416589Y-90427802D01*
X156407783Y-90500751D01*
X156397771Y-90538750D01*
X156392267Y-90567565D01*
X156416799Y-90580129D01*
X156476332Y-90582392D01*
X156536479Y-90579923D01*
X156553050Y-90570816D01*
X156533231Y-90550432D01*
X156529850Y-90547842D01*
X156490986Y-90503623D01*
X156493396Y-90469551D01*
X156535513Y-90456809D01*
X156542550Y-90457193D01*
X156642432Y-90453633D01*
X156705364Y-90419628D01*
X156736212Y-90351789D01*
X156783160Y-90351789D01*
X156791803Y-90410163D01*
X156834035Y-90453509D01*
X156892663Y-90465393D01*
X156900378Y-90463826D01*
X156964580Y-90455030D01*
X157042503Y-90453396D01*
X157043347Y-90453430D01*
X157098959Y-90452302D01*
X157111244Y-90440209D01*
X157100497Y-90426137D01*
X157080301Y-90381908D01*
X157069955Y-90312265D01*
X157069600Y-90297050D01*
X157059424Y-90193047D01*
X157026162Y-90130300D01*
X157024041Y-90129340D01*
X157145800Y-90129340D01*
X157165225Y-90150779D01*
X157171200Y-90151400D01*
X157187253Y-90173552D01*
X157195106Y-90228463D01*
X157195077Y-90298810D01*
X157187488Y-90367270D01*
X157172659Y-90416521D01*
X157166120Y-90425720D01*
X157156934Y-90445557D01*
X157186461Y-90454622D01*
X157234700Y-90456200D01*
X157295893Y-90452922D01*
X157313481Y-90441047D01*
X157303280Y-90425720D01*
X157284131Y-90382552D01*
X157273540Y-90312010D01*
X157272800Y-90287731D01*
X157277956Y-90215341D01*
X157297803Y-90177779D01*
X157326156Y-90163288D01*
X157381410Y-90159905D01*
X157415673Y-90194855D01*
X157431668Y-90272320D01*
X157433668Y-90328169D01*
X157436097Y-90404101D01*
X157446789Y-90442129D01*
X157471707Y-90455096D01*
X157493118Y-90456200D01*
X157538696Y-90446916D01*
X157552200Y-90430800D01*
X157532871Y-90406138D01*
X157526800Y-90405400D01*
X157512157Y-90382588D01*
X157502978Y-90324403D01*
X157501400Y-90281510D01*
X157495229Y-90203121D01*
X157479526Y-90145710D01*
X157469493Y-90131140D01*
X157433831Y-90118598D01*
X157582696Y-90118598D01*
X157583115Y-90119650D01*
X157650617Y-90257300D01*
X157693064Y-90359219D01*
X157712751Y-90432485D01*
X157711970Y-90484180D01*
X157706445Y-90500392D01*
X157683751Y-90555290D01*
X157685048Y-90578376D01*
X157711450Y-90583195D01*
X157713261Y-90583200D01*
X157738299Y-90561243D01*
X157773722Y-90503113D01*
X157812674Y-90420423D01*
X157820308Y-90401900D01*
X157862287Y-90305053D01*
X157904462Y-90219855D01*
X157938247Y-90163544D01*
X157940490Y-90160600D01*
X157987687Y-90100600D01*
X157896943Y-90100600D01*
X157836669Y-90108126D01*
X157805607Y-90125989D01*
X157812406Y-90147113D01*
X157829663Y-90155633D01*
X157835820Y-90181618D01*
X157821963Y-90235671D01*
X157815052Y-90253000D01*
X157776978Y-90341900D01*
X157730231Y-90253000D01*
X157706086Y-90195348D01*
X157702756Y-90159716D01*
X157706742Y-90155633D01*
X157732131Y-90134753D01*
X157716486Y-90113661D01*
X157668741Y-90101287D01*
X157651683Y-90100600D01*
X157600511Y-90105851D01*
X157582696Y-90118598D01*
X157433831Y-90118598D01*
X157430646Y-90117478D01*
X157364260Y-90109236D01*
X157286497Y-90106503D01*
X157213520Y-90109368D01*
X157161493Y-90117922D01*
X157145800Y-90129340D01*
X157024041Y-90129340D01*
X156965709Y-90102946D01*
X156932116Y-90100600D01*
X156864259Y-90111251D01*
X156817052Y-90137006D01*
X156815966Y-90138258D01*
X156802644Y-90162152D01*
X156822682Y-90171279D01*
X156881726Y-90170008D01*
X156949651Y-90171768D01*
X156981528Y-90191212D01*
X156987932Y-90208550D01*
X156979177Y-90246317D01*
X156958357Y-90253000D01*
X156891750Y-90266756D01*
X156827686Y-90300103D01*
X156787244Y-90341153D01*
X156783160Y-90351789D01*
X156736212Y-90351789D01*
X156737282Y-90349437D01*
X156744480Y-90261936D01*
X156736108Y-90182671D01*
X156705096Y-90134577D01*
X156642598Y-90111076D01*
X156539766Y-90105591D01*
X156534303Y-90105658D01*
X156438379Y-90111745D01*
X156389206Y-90126219D01*
X156388235Y-90148454D01*
X156272792Y-90148454D01*
X156260917Y-90127014D01*
X156198925Y-90101448D01*
X156181205Y-90100600D01*
X156122591Y-90108921D01*
X156090937Y-90127233D01*
X156061283Y-90139206D01*
X156044988Y-90129598D01*
X156005595Y-90115441D01*
X155940139Y-90107204D01*
X155865455Y-90105010D01*
X155798376Y-90108980D01*
X155755737Y-90119236D01*
X155748800Y-90127454D01*
X155632078Y-90127454D01*
X155602178Y-90109785D01*
X155519708Y-90100530D01*
X155444585Y-90123220D01*
X155407340Y-90157051D01*
X155369925Y-90242691D01*
X155003886Y-90242691D01*
X154999343Y-90224914D01*
X155012736Y-90137073D01*
X155059166Y-90060488D01*
X155108749Y-90031772D01*
X155187221Y-90017384D01*
X155251921Y-90024374D01*
X155288261Y-90050149D01*
X155291600Y-90064266D01*
X155305892Y-90096918D01*
X155317000Y-90100600D01*
X155338551Y-90081108D01*
X155341430Y-90037159D01*
X155327986Y-89990539D01*
X155302222Y-89963617D01*
X155227273Y-89949779D01*
X155135402Y-89951278D01*
X155054667Y-89966856D01*
X155033779Y-89975644D01*
X154971266Y-90035392D01*
X154934201Y-90124041D01*
X154924557Y-90225442D01*
X153565254Y-90225442D01*
X153509317Y-90153515D01*
X153432285Y-90050320D01*
X153354537Y-89942808D01*
X153282179Y-89839579D01*
X153221320Y-89749233D01*
X153178067Y-89680368D01*
X153158528Y-89641584D01*
X153158000Y-89638382D01*
X153181430Y-89630816D01*
X153244049Y-89621569D01*
X153334348Y-89612199D01*
X153378433Y-89608550D01*
X153678329Y-89568982D01*
X153766852Y-89545245D01*
X155215400Y-89545245D01*
X156123450Y-89535969D01*
X156363682Y-89533378D01*
X156558889Y-89530775D01*
X156714840Y-89527803D01*
X156837308Y-89524107D01*
X156932065Y-89519329D01*
X157004883Y-89513114D01*
X157061533Y-89505105D01*
X157107789Y-89494946D01*
X157149421Y-89482280D01*
X157181870Y-89470628D01*
X157356052Y-89395844D01*
X157496956Y-89310506D01*
X157622098Y-89203165D01*
X157674025Y-89148925D01*
X157791893Y-88993986D01*
X157868526Y-88827739D01*
X157908311Y-88638667D01*
X157916250Y-88513100D01*
X157899169Y-88295534D01*
X157839040Y-88104725D01*
X157736642Y-87941744D01*
X157592755Y-87807660D01*
X157408157Y-87703543D01*
X157296170Y-87661547D01*
X157114549Y-87603148D01*
X157270095Y-87532540D01*
X157450658Y-87425863D01*
X157594813Y-87288802D01*
X157699211Y-87126649D01*
X157760503Y-86944697D01*
X157775343Y-86748238D01*
X157774620Y-86735100D01*
X157741628Y-86545606D01*
X157667436Y-86382189D01*
X157550906Y-86243677D01*
X157390899Y-86128897D01*
X157186279Y-86036679D01*
X157056900Y-85995868D01*
X157003870Y-85983583D01*
X156937993Y-85973440D01*
X156853528Y-85965126D01*
X156744734Y-85958329D01*
X156605871Y-85952734D01*
X156431198Y-85948030D01*
X156214972Y-85943903D01*
X156059950Y-85941531D01*
X155215400Y-85929472D01*
X155215400Y-89545245D01*
X153766852Y-89545245D01*
X153937268Y-89499549D01*
X154155202Y-89400281D01*
X154332085Y-89271210D01*
X154467870Y-89112365D01*
X154562511Y-88923777D01*
X154596643Y-88808945D01*
X154627754Y-88579686D01*
X154613588Y-88358534D01*
X154556190Y-88151675D01*
X154457603Y-87965293D01*
X154319871Y-87805572D01*
X154244425Y-87743122D01*
X154174264Y-87693472D01*
X154097631Y-87644896D01*
X154006980Y-87593351D01*
X153894762Y-87534791D01*
X153753430Y-87465173D01*
X153575436Y-87380451D01*
X153512229Y-87350767D01*
X153316640Y-87249807D01*
X153170170Y-87152531D01*
X153071421Y-87057241D01*
X153018997Y-86962242D01*
X153011501Y-86865838D01*
X153040944Y-86778528D01*
X153111698Y-86680466D01*
X153211156Y-86609606D01*
X153344424Y-86563852D01*
X153516611Y-86541108D01*
X153627900Y-86537655D01*
X153809381Y-86546777D01*
X153984362Y-86578104D01*
X154165675Y-86635186D01*
X154366155Y-86721573D01*
X154459750Y-86767748D01*
X154466371Y-86747313D01*
X154471993Y-86684577D01*
X154476177Y-86588039D01*
X154478485Y-86466195D01*
X154478800Y-86397663D01*
X154478800Y-86017894D01*
X154331678Y-85976613D01*
X154087794Y-85924204D01*
X153815773Y-85893793D01*
X153534168Y-85887358D01*
X153503186Y-85888206D01*
X153236594Y-85896900D01*
X153277054Y-85833400D01*
X153455282Y-85581614D01*
X153665478Y-85331307D01*
X153895638Y-85094991D01*
X154133756Y-84885178D01*
X154320571Y-84745734D01*
X154697610Y-84518716D01*
X155091520Y-84338745D01*
X155499011Y-84206240D01*
X155916795Y-84121620D01*
X156341581Y-84085303D01*
X156770083Y-84097708D01*
G36*
X153059532Y-88031786D02*
X153263934Y-88126893D01*
X153425257Y-88209353D01*
X153548444Y-88283085D01*
X153638437Y-88352009D01*
X153700181Y-88420045D01*
X153738617Y-88491112D01*
X153758690Y-88569130D01*
X153761199Y-88588197D01*
X153763848Y-88661683D01*
X153745798Y-88717563D01*
X153698642Y-88780333D01*
X153693054Y-88786734D01*
X153588958Y-88869607D01*
X153447955Y-88928521D01*
X153279019Y-88961324D01*
X153091127Y-88965862D01*
X152987021Y-88956084D01*
X152917663Y-88944200D01*
X152872526Y-88931746D01*
X152865889Y-88927955D01*
X152849764Y-88891508D01*
X152828755Y-88815162D01*
X152804846Y-88709353D01*
X152780022Y-88584514D01*
X152756268Y-88451082D01*
X152735569Y-88319490D01*
X152719910Y-88200174D01*
X152712377Y-88121002D01*
X152694365Y-87866943D01*
X153059532Y-88031786D01*
X153059532Y-88031786D01*
G37*
X153059532Y-88031786D02*
X153263934Y-88126893D01*
X153425257Y-88209353D01*
X153548444Y-88283085D01*
X153638437Y-88352009D01*
X153700181Y-88420045D01*
X153738617Y-88491112D01*
X153758690Y-88569130D01*
X153761199Y-88588197D01*
X153763848Y-88661683D01*
X153745798Y-88717563D01*
X153698642Y-88780333D01*
X153693054Y-88786734D01*
X153588958Y-88869607D01*
X153447955Y-88928521D01*
X153279019Y-88961324D01*
X153091127Y-88965862D01*
X152987021Y-88956084D01*
X152917663Y-88944200D01*
X152872526Y-88931746D01*
X152865889Y-88927955D01*
X152849764Y-88891508D01*
X152828755Y-88815162D01*
X152804846Y-88709353D01*
X152780022Y-88584514D01*
X152756268Y-88451082D01*
X152735569Y-88319490D01*
X152719910Y-88200174D01*
X152712377Y-88121002D01*
X152694365Y-87866943D01*
X153059532Y-88031786D01*
G36*
X159874231Y-86532917D02*
X159984061Y-86549387D01*
X160050593Y-86769243D01*
X160085640Y-86896551D01*
X160118889Y-87037804D01*
X160148153Y-87181140D01*
X160171246Y-87314695D01*
X160185982Y-87426606D01*
X160190176Y-87505010D01*
X160189016Y-87520487D01*
X160181100Y-87579483D01*
X160079500Y-87532772D01*
X160014653Y-87502917D01*
X159917898Y-87458321D01*
X159803448Y-87405537D01*
X159709096Y-87362001D01*
X159508520Y-87259189D01*
X159357650Y-87158384D01*
X159255492Y-87058444D01*
X159201048Y-86958227D01*
X159193324Y-86856593D01*
X159211775Y-86791854D01*
X159257617Y-86716833D01*
X159318365Y-86655373D01*
X159320976Y-86653501D01*
X159445766Y-86589158D01*
X159597938Y-86545390D01*
X159756668Y-86526734D01*
X159874231Y-86532917D01*
X159874231Y-86532917D01*
G37*
X159874231Y-86532917D02*
X159984061Y-86549387D01*
X160050593Y-86769243D01*
X160085640Y-86896551D01*
X160118889Y-87037804D01*
X160148153Y-87181140D01*
X160171246Y-87314695D01*
X160185982Y-87426606D01*
X160190176Y-87505010D01*
X160189016Y-87520487D01*
X160181100Y-87579483D01*
X160079500Y-87532772D01*
X160014653Y-87502917D01*
X159917898Y-87458321D01*
X159803448Y-87405537D01*
X159709096Y-87362001D01*
X159508520Y-87259189D01*
X159357650Y-87158384D01*
X159255492Y-87058444D01*
X159201048Y-86958227D01*
X159193324Y-86856593D01*
X159211775Y-86791854D01*
X159257617Y-86716833D01*
X159318365Y-86655373D01*
X159320976Y-86653501D01*
X159445766Y-86589158D01*
X159597938Y-86545390D01*
X159756668Y-86526734D01*
X159874231Y-86532917D01*
G36*
X156625173Y-90175076D02*
X156660711Y-90222185D01*
X156674753Y-90286897D01*
X156659133Y-90358176D01*
X156657804Y-90360950D01*
X156618357Y-90393684D01*
X156559067Y-90406041D01*
X156507801Y-90393088D01*
X156502333Y-90388466D01*
X156486717Y-90344484D01*
X156487128Y-90277779D01*
X156501230Y-90212995D01*
X156522279Y-90177812D01*
X156576307Y-90156607D01*
X156625173Y-90175076D01*
X156625173Y-90175076D01*
G37*
X156625173Y-90175076D02*
X156660711Y-90222185D01*
X156674753Y-90286897D01*
X156659133Y-90358176D01*
X156657804Y-90360950D01*
X156618357Y-90393684D01*
X156559067Y-90406041D01*
X156507801Y-90393088D01*
X156502333Y-90388466D01*
X156486717Y-90344484D01*
X156487128Y-90277779D01*
X156501230Y-90212995D01*
X156522279Y-90177812D01*
X156576307Y-90156607D01*
X156625173Y-90175076D01*
G36*
X155608132Y-90177400D02*
X155637860Y-90234649D01*
X155641981Y-90313790D01*
X155636265Y-90343909D01*
X155611793Y-90389997D01*
X155559838Y-90405082D01*
X155545600Y-90405400D01*
X155486565Y-90394852D01*
X155458228Y-90355482D01*
X155454934Y-90343909D01*
X155447781Y-90248157D01*
X155481889Y-90181798D01*
X155501150Y-90166952D01*
X155560121Y-90151637D01*
X155608132Y-90177400D01*
X155608132Y-90177400D01*
G37*
X155608132Y-90177400D02*
X155637860Y-90234649D01*
X155641981Y-90313790D01*
X155636265Y-90343909D01*
X155611793Y-90389997D01*
X155559838Y-90405082D01*
X155545600Y-90405400D01*
X155486565Y-90394852D01*
X155458228Y-90355482D01*
X155454934Y-90343909D01*
X155447781Y-90248157D01*
X155481889Y-90181798D01*
X155501150Y-90166952D01*
X155560121Y-90151637D01*
X155608132Y-90177400D01*
G36*
X156985020Y-90312354D02*
X156990055Y-90345499D01*
X156984635Y-90366204D01*
X156953789Y-90395187D01*
X156905144Y-90405185D01*
X156860337Y-90395963D01*
X156841000Y-90367783D01*
X156862337Y-90337240D01*
X156910285Y-90312899D01*
X156960748Y-90304036D01*
X156985020Y-90312354D01*
X156985020Y-90312354D01*
G37*
X156985020Y-90312354D02*
X156990055Y-90345499D01*
X156984635Y-90366204D01*
X156953789Y-90395187D01*
X156905144Y-90405185D01*
X156860337Y-90395963D01*
X156841000Y-90367783D01*
X156862337Y-90337240D01*
X156910285Y-90312899D01*
X156960748Y-90304036D01*
X156985020Y-90312354D01*
G36*
X156363409Y-88011195D02*
X156559195Y-88019499D01*
X156711934Y-88039956D01*
X156828567Y-88075693D01*
X156916038Y-88129838D01*
X156981291Y-88205519D01*
X157031268Y-88305864D01*
X157034167Y-88313349D01*
X157064833Y-88458017D01*
X157047824Y-88596094D01*
X156986253Y-88719997D01*
X156883235Y-88822143D01*
X156806298Y-88868149D01*
X156743205Y-88896485D01*
X156682722Y-88915675D01*
X156612103Y-88927747D01*
X156518600Y-88934731D01*
X156389468Y-88938657D01*
X156359878Y-88939224D01*
X156216193Y-88939696D01*
X156111866Y-88935415D01*
X156051144Y-88926652D01*
X156037042Y-88918607D01*
X156034134Y-88885680D01*
X156032355Y-88810760D01*
X156031763Y-88702646D01*
X156032418Y-88570134D01*
X156033926Y-88449354D01*
X156040900Y-88006393D01*
X156363409Y-88011195D01*
X156363409Y-88011195D01*
G37*
X156363409Y-88011195D02*
X156559195Y-88019499D01*
X156711934Y-88039956D01*
X156828567Y-88075693D01*
X156916038Y-88129838D01*
X156981291Y-88205519D01*
X157031268Y-88305864D01*
X157034167Y-88313349D01*
X157064833Y-88458017D01*
X157047824Y-88596094D01*
X156986253Y-88719997D01*
X156883235Y-88822143D01*
X156806298Y-88868149D01*
X156743205Y-88896485D01*
X156682722Y-88915675D01*
X156612103Y-88927747D01*
X156518600Y-88934731D01*
X156389468Y-88938657D01*
X156359878Y-88939224D01*
X156216193Y-88939696D01*
X156111866Y-88935415D01*
X156051144Y-88926652D01*
X156037042Y-88918607D01*
X156034134Y-88885680D01*
X156032355Y-88810760D01*
X156031763Y-88702646D01*
X156032418Y-88570134D01*
X156033926Y-88449354D01*
X156040900Y-88006393D01*
X156363409Y-88011195D01*
G36*
X156313950Y-86549677D02*
X156497279Y-86563666D01*
X156638261Y-86590841D01*
X156744261Y-86633937D01*
X156822644Y-86695689D01*
X156867301Y-86755174D01*
X156912502Y-86874625D01*
X156914609Y-87002242D01*
X156877297Y-87126352D01*
X156804239Y-87235286D01*
X156699110Y-87317373D01*
X156688600Y-87322846D01*
X156622757Y-87350843D01*
X156549405Y-87369534D01*
X156454834Y-87381268D01*
X156325334Y-87388396D01*
X156301250Y-87389240D01*
X156028200Y-87398303D01*
X156028200Y-86538207D01*
X156313950Y-86549677D01*
X156313950Y-86549677D01*
G37*
X156313950Y-86549677D02*
X156497279Y-86563666D01*
X156638261Y-86590841D01*
X156744261Y-86633937D01*
X156822644Y-86695689D01*
X156867301Y-86755174D01*
X156912502Y-86874625D01*
X156914609Y-87002242D01*
X156877297Y-87126352D01*
X156804239Y-87235286D01*
X156699110Y-87317373D01*
X156688600Y-87322846D01*
X156622757Y-87350843D01*
X156549405Y-87369534D01*
X156454834Y-87381268D01*
X156325334Y-87388396D01*
X156301250Y-87389240D01*
X156028200Y-87398303D01*
X156028200Y-86538207D01*
X156313950Y-86549677D01*
G36*
X153506862Y-99375269D02*
X153582837Y-99377239D01*
X153639510Y-99380676D01*
X153666858Y-99384642D01*
X153701124Y-99395602D01*
X153719106Y-99412293D01*
X153727039Y-99444839D01*
X153730251Y-99487566D01*
X153735370Y-99575466D01*
X153547333Y-99575466D01*
X153547333Y-99439999D01*
X153157867Y-99439999D01*
X153157867Y-99931066D01*
X153547333Y-99931066D01*
X153547333Y-99795600D01*
X153733600Y-99795600D01*
X153733600Y-99886921D01*
X153730500Y-99945833D01*
X153720020Y-99978050D01*
X153706815Y-99988521D01*
X153681875Y-99991666D01*
X153629596Y-99994105D01*
X153556428Y-99995848D01*
X153468818Y-99996901D01*
X153373215Y-99997275D01*
X153276067Y-99996977D01*
X153183823Y-99996016D01*
X153102931Y-99994400D01*
X153039840Y-99992138D01*
X153000998Y-99989238D01*
X152992767Y-99987585D01*
X152984422Y-99974682D01*
X152978380Y-99941420D01*
X152974394Y-99884372D01*
X152972217Y-99800115D01*
X152971600Y-99693588D01*
X152972367Y-99579112D01*
X152974822Y-99495172D01*
X152979201Y-99438467D01*
X152985736Y-99405696D01*
X152992767Y-99394432D01*
X153017792Y-99388839D01*
X153070032Y-99384037D01*
X153142841Y-99380122D01*
X153229574Y-99377191D01*
X153323585Y-99375341D01*
X153418230Y-99374668D01*
X153506862Y-99375269D01*
X153506862Y-99375269D01*
G37*
X153506862Y-99375269D02*
X153582837Y-99377239D01*
X153639510Y-99380676D01*
X153666858Y-99384642D01*
X153701124Y-99395602D01*
X153719106Y-99412293D01*
X153727039Y-99444839D01*
X153730251Y-99487566D01*
X153735370Y-99575466D01*
X153547333Y-99575466D01*
X153547333Y-99439999D01*
X153157867Y-99439999D01*
X153157867Y-99931066D01*
X153547333Y-99931066D01*
X153547333Y-99795600D01*
X153733600Y-99795600D01*
X153733600Y-99886921D01*
X153730500Y-99945833D01*
X153720020Y-99978050D01*
X153706815Y-99988521D01*
X153681875Y-99991666D01*
X153629596Y-99994105D01*
X153556428Y-99995848D01*
X153468818Y-99996901D01*
X153373215Y-99997275D01*
X153276067Y-99996977D01*
X153183823Y-99996016D01*
X153102931Y-99994400D01*
X153039840Y-99992138D01*
X153000998Y-99989238D01*
X152992767Y-99987585D01*
X152984422Y-99974682D01*
X152978380Y-99941420D01*
X152974394Y-99884372D01*
X152972217Y-99800115D01*
X152971600Y-99693588D01*
X152972367Y-99579112D01*
X152974822Y-99495172D01*
X152979201Y-99438467D01*
X152985736Y-99405696D01*
X152992767Y-99394432D01*
X153017792Y-99388839D01*
X153070032Y-99384037D01*
X153142841Y-99380122D01*
X153229574Y-99377191D01*
X153323585Y-99375341D01*
X153418230Y-99374668D01*
X153506862Y-99375269D01*
G36*
X154427861Y-99372419D02*
X154508591Y-99373204D01*
X154564527Y-99375113D01*
X154600204Y-99378634D01*
X154620159Y-99384259D01*
X154628926Y-99392479D01*
X154631042Y-99403782D01*
X154631067Y-99406133D01*
X154629199Y-99419959D01*
X154620000Y-99429405D01*
X154598071Y-99435302D01*
X154558016Y-99438479D01*
X154494438Y-99439768D01*
X154410933Y-99439999D01*
X154190800Y-99439999D01*
X154190800Y-99643199D01*
X154597200Y-99643199D01*
X154597200Y-99727866D01*
X154190800Y-99727866D01*
X154190800Y-99931066D01*
X154419400Y-99931066D01*
X154511257Y-99931334D01*
X154574547Y-99932663D01*
X154614568Y-99935835D01*
X154636618Y-99941638D01*
X154645995Y-99950855D01*
X154647998Y-99964272D01*
X154648000Y-99964933D01*
X154646615Y-99976695D01*
X154639475Y-99985364D01*
X154622105Y-99991410D01*
X154590028Y-99995304D01*
X154538768Y-99997519D01*
X154463848Y-99998525D01*
X154360792Y-99998792D01*
X154326266Y-99998800D01*
X154004533Y-99998800D01*
X154004533Y-99372266D01*
X154317800Y-99372266D01*
X154427861Y-99372419D01*
X154427861Y-99372419D01*
G37*
X154427861Y-99372419D02*
X154508591Y-99373204D01*
X154564527Y-99375113D01*
X154600204Y-99378634D01*
X154620159Y-99384259D01*
X154628926Y-99392479D01*
X154631042Y-99403782D01*
X154631067Y-99406133D01*
X154629199Y-99419959D01*
X154620000Y-99429405D01*
X154598071Y-99435302D01*
X154558016Y-99438479D01*
X154494438Y-99439768D01*
X154410933Y-99439999D01*
X154190800Y-99439999D01*
X154190800Y-99643199D01*
X154597200Y-99643199D01*
X154597200Y-99727866D01*
X154190800Y-99727866D01*
X154190800Y-99931066D01*
X154419400Y-99931066D01*
X154511257Y-99931334D01*
X154574547Y-99932663D01*
X154614568Y-99935835D01*
X154636618Y-99941638D01*
X154645995Y-99950855D01*
X154647998Y-99964272D01*
X154648000Y-99964933D01*
X154646615Y-99976695D01*
X154639475Y-99985364D01*
X154622105Y-99991410D01*
X154590028Y-99995304D01*
X154538768Y-99997519D01*
X154463848Y-99998525D01*
X154360792Y-99998792D01*
X154326266Y-99998800D01*
X154004533Y-99998800D01*
X154004533Y-99372266D01*
X154317800Y-99372266D01*
X154427861Y-99372419D01*
G36*
X155191571Y-99554299D02*
X155243763Y-99622330D01*
X155288957Y-99681001D01*
X155322962Y-99724889D01*
X155341587Y-99748570D01*
X155343284Y-99750623D01*
X155357270Y-99743030D01*
X155387494Y-99712543D01*
X155430075Y-99663511D01*
X155481134Y-99600283D01*
X155505570Y-99568715D01*
X155655533Y-99372518D01*
X155833333Y-99372266D01*
X155833333Y-99998800D01*
X155648176Y-99998800D01*
X155638600Y-99626036D01*
X155511632Y-99787018D01*
X155460230Y-99849438D01*
X155413982Y-99900581D01*
X155377937Y-99935188D01*
X155357144Y-99947999D01*
X155357077Y-99948000D01*
X155336353Y-99935467D01*
X155299902Y-99901282D01*
X155252742Y-99850562D01*
X155199888Y-99788424D01*
X155196178Y-99783870D01*
X155062867Y-99619740D01*
X155053291Y-99998800D01*
X154885067Y-99998800D01*
X154885067Y-99372266D01*
X155052180Y-99372266D01*
X155191571Y-99554299D01*
X155191571Y-99554299D01*
G37*
X155191571Y-99554299D02*
X155243763Y-99622330D01*
X155288957Y-99681001D01*
X155322962Y-99724889D01*
X155341587Y-99748570D01*
X155343284Y-99750623D01*
X155357270Y-99743030D01*
X155387494Y-99712543D01*
X155430075Y-99663511D01*
X155481134Y-99600283D01*
X155505570Y-99568715D01*
X155655533Y-99372518D01*
X155833333Y-99372266D01*
X155833333Y-99998800D01*
X155648176Y-99998800D01*
X155638600Y-99626036D01*
X155511632Y-99787018D01*
X155460230Y-99849438D01*
X155413982Y-99900581D01*
X155377937Y-99935188D01*
X155357144Y-99947999D01*
X155357077Y-99948000D01*
X155336353Y-99935467D01*
X155299902Y-99901282D01*
X155252742Y-99850562D01*
X155199888Y-99788424D01*
X155196178Y-99783870D01*
X155062867Y-99619740D01*
X155053291Y-99998800D01*
X154885067Y-99998800D01*
X154885067Y-99372266D01*
X155052180Y-99372266D01*
X155191571Y-99554299D01*
G36*
X156617295Y-99381308D02*
X156713607Y-99382912D01*
X156794009Y-99385365D01*
X156852909Y-99388487D01*
X156884714Y-99392096D01*
X156887433Y-99392901D01*
X156898347Y-99400377D01*
X156906224Y-99415712D01*
X156911548Y-99443785D01*
X156914802Y-99489474D01*
X156916471Y-99557657D01*
X156917039Y-99653213D01*
X156917066Y-99691656D01*
X156916678Y-99798305D01*
X156915228Y-99875803D01*
X156912291Y-99928862D01*
X156907444Y-99962192D01*
X156900260Y-99980504D01*
X156890315Y-99988508D01*
X156890282Y-99988521D01*
X156865645Y-99991559D01*
X156813417Y-99993944D01*
X156739798Y-99995683D01*
X156650988Y-99996785D01*
X156553187Y-99997257D01*
X156452597Y-99997106D01*
X156355418Y-99996341D01*
X156267850Y-99994968D01*
X156196094Y-99992995D01*
X156146351Y-99990430D01*
X156125433Y-99987585D01*
X156117110Y-99974713D01*
X156111077Y-99941525D01*
X156107089Y-99884597D01*
X156104901Y-99800509D01*
X156104267Y-99692057D01*
X156104575Y-99586297D01*
X156105824Y-99509525D01*
X156108495Y-99456868D01*
X156110804Y-99439999D01*
X156290533Y-99439999D01*
X156290533Y-99931066D01*
X156730800Y-99931066D01*
X156730800Y-99439999D01*
X156290533Y-99439999D01*
X156110804Y-99439999D01*
X156113071Y-99423450D01*
X156120035Y-99404397D01*
X156129871Y-99394835D01*
X156133900Y-99392901D01*
X156159284Y-99389213D01*
X156212942Y-99385973D01*
X156289279Y-99383364D01*
X156382705Y-99381566D01*
X156487625Y-99380759D01*
X156510667Y-99380733D01*
X156617295Y-99381308D01*
X156617295Y-99381308D01*
G37*
X156617295Y-99381308D02*
X156713607Y-99382912D01*
X156794009Y-99385365D01*
X156852909Y-99388487D01*
X156884714Y-99392096D01*
X156887433Y-99392901D01*
X156898347Y-99400377D01*
X156906224Y-99415712D01*
X156911548Y-99443785D01*
X156914802Y-99489474D01*
X156916471Y-99557657D01*
X156917039Y-99653213D01*
X156917066Y-99691656D01*
X156916678Y-99798305D01*
X156915228Y-99875803D01*
X156912291Y-99928862D01*
X156907444Y-99962192D01*
X156900260Y-99980504D01*
X156890315Y-99988508D01*
X156890282Y-99988521D01*
X156865645Y-99991559D01*
X156813417Y-99993944D01*
X156739798Y-99995683D01*
X156650988Y-99996785D01*
X156553187Y-99997257D01*
X156452597Y-99997106D01*
X156355418Y-99996341D01*
X156267850Y-99994968D01*
X156196094Y-99992995D01*
X156146351Y-99990430D01*
X156125433Y-99987585D01*
X156117110Y-99974713D01*
X156111077Y-99941525D01*
X156107089Y-99884597D01*
X156104901Y-99800509D01*
X156104267Y-99692057D01*
X156104575Y-99586297D01*
X156105824Y-99509525D01*
X156108495Y-99456868D01*
X156110804Y-99439999D01*
X156290533Y-99439999D01*
X156290533Y-99931066D01*
X156730800Y-99931066D01*
X156730800Y-99439999D01*
X156290533Y-99439999D01*
X156110804Y-99439999D01*
X156113071Y-99423450D01*
X156120035Y-99404397D01*
X156129871Y-99394835D01*
X156133900Y-99392901D01*
X156159284Y-99389213D01*
X156212942Y-99385973D01*
X156289279Y-99383364D01*
X156382705Y-99381566D01*
X156487625Y-99380759D01*
X156510667Y-99380733D01*
X156617295Y-99381308D01*
G36*
X157615216Y-99375175D02*
X157729288Y-99377467D01*
X157813907Y-99380675D01*
X157873478Y-99386492D01*
X157912406Y-99396606D01*
X157935097Y-99412706D01*
X157945955Y-99436484D01*
X157949386Y-99469628D01*
X157949741Y-99503499D01*
X157950000Y-99575466D01*
X157763733Y-99575466D01*
X157763733Y-99439999D01*
X157374266Y-99439999D01*
X157374266Y-99553393D01*
X157624033Y-99650692D01*
X157733112Y-99693360D01*
X157814658Y-99726466D01*
X157872676Y-99752795D01*
X157911170Y-99775131D01*
X157934145Y-99796256D01*
X157945606Y-99818955D01*
X157949556Y-99846010D01*
X157950000Y-99877270D01*
X157945975Y-99929479D01*
X157935787Y-99968617D01*
X157929680Y-99978479D01*
X157909989Y-99986135D01*
X157866678Y-99991726D01*
X157797193Y-99995388D01*
X157698978Y-99997254D01*
X157569847Y-99997463D01*
X157465078Y-99996644D01*
X157371293Y-99995142D01*
X157293982Y-99993106D01*
X157238640Y-99990688D01*
X157210757Y-99988038D01*
X157209166Y-99987585D01*
X157195550Y-99965044D01*
X157188641Y-99914262D01*
X157188000Y-99887322D01*
X157188000Y-99795600D01*
X157374266Y-99795600D01*
X157374266Y-99931066D01*
X157763733Y-99931066D01*
X157763733Y-99816163D01*
X157497033Y-99710080D01*
X157407276Y-99673907D01*
X157327728Y-99640964D01*
X157264102Y-99613686D01*
X157222113Y-99594509D01*
X157208376Y-99587002D01*
X157194078Y-99556332D01*
X157190857Y-99497223D01*
X157191443Y-99484837D01*
X157195993Y-99433919D01*
X157206201Y-99406507D01*
X157228606Y-99392254D01*
X157254742Y-99384642D01*
X157290547Y-99380031D01*
X157353372Y-99376641D01*
X157436385Y-99374651D01*
X157532756Y-99374240D01*
X157615216Y-99375175D01*
X157615216Y-99375175D01*
G37*
X157615216Y-99375175D02*
X157729288Y-99377467D01*
X157813907Y-99380675D01*
X157873478Y-99386492D01*
X157912406Y-99396606D01*
X157935097Y-99412706D01*
X157945955Y-99436484D01*
X157949386Y-99469628D01*
X157949741Y-99503499D01*
X157950000Y-99575466D01*
X157763733Y-99575466D01*
X157763733Y-99439999D01*
X157374266Y-99439999D01*
X157374266Y-99553393D01*
X157624033Y-99650692D01*
X157733112Y-99693360D01*
X157814658Y-99726466D01*
X157872676Y-99752795D01*
X157911170Y-99775131D01*
X157934145Y-99796256D01*
X157945606Y-99818955D01*
X157949556Y-99846010D01*
X157950000Y-99877270D01*
X157945975Y-99929479D01*
X157935787Y-99968617D01*
X157929680Y-99978479D01*
X157909989Y-99986135D01*
X157866678Y-99991726D01*
X157797193Y-99995388D01*
X157698978Y-99997254D01*
X157569847Y-99997463D01*
X157465078Y-99996644D01*
X157371293Y-99995142D01*
X157293982Y-99993106D01*
X157238640Y-99990688D01*
X157210757Y-99988038D01*
X157209166Y-99987585D01*
X157195550Y-99965044D01*
X157188641Y-99914262D01*
X157188000Y-99887322D01*
X157188000Y-99795600D01*
X157374266Y-99795600D01*
X157374266Y-99931066D01*
X157763733Y-99931066D01*
X157763733Y-99816163D01*
X157497033Y-99710080D01*
X157407276Y-99673907D01*
X157327728Y-99640964D01*
X157264102Y-99613686D01*
X157222113Y-99594509D01*
X157208376Y-99587002D01*
X157194078Y-99556332D01*
X157190857Y-99497223D01*
X157191443Y-99484837D01*
X157195993Y-99433919D01*
X157206201Y-99406507D01*
X157228606Y-99392254D01*
X157254742Y-99384642D01*
X157290547Y-99380031D01*
X157353372Y-99376641D01*
X157436385Y-99374651D01*
X157532756Y-99374240D01*
X157615216Y-99375175D01*
G36*
X158373749Y-97065100D02*
X158316561Y-97224353D01*
X158239753Y-97395354D01*
X158148125Y-97569786D01*
X158046479Y-97739331D01*
X157939615Y-97895674D01*
X157832334Y-98030496D01*
X157789133Y-98077841D01*
X157756198Y-98113361D01*
X157715780Y-98158366D01*
X157704439Y-98171241D01*
X157657470Y-98220501D01*
X157592686Y-98282622D01*
X157518843Y-98349468D01*
X157444699Y-98412904D01*
X157441149Y-98415834D01*
X157406917Y-98442148D01*
X157355162Y-98479816D01*
X157296401Y-98521200D01*
X157289600Y-98525900D01*
X157236686Y-98562853D01*
X157195290Y-98592630D01*
X157172794Y-98609897D01*
X157171066Y-98611541D01*
X157151979Y-98625280D01*
X157115041Y-98647339D01*
X157103333Y-98653875D01*
X157063633Y-98676585D01*
X157038414Y-98692637D01*
X157035600Y-98694933D01*
X157017902Y-98705348D01*
X156976113Y-98727337D01*
X156916576Y-98757623D01*
X156849333Y-98791108D01*
X156648651Y-98881453D01*
X156442776Y-98958111D01*
X156242094Y-99017536D01*
X156087333Y-99051158D01*
X156019132Y-99063802D01*
X155955160Y-99076812D01*
X155918000Y-99085269D01*
X155880121Y-99090740D01*
X155815346Y-99095952D01*
X155730644Y-99100697D01*
X155632986Y-99104769D01*
X155529341Y-99107958D01*
X155426680Y-99110057D01*
X155331972Y-99110858D01*
X155252187Y-99110153D01*
X155194296Y-99107735D01*
X155186507Y-99107080D01*
X155138184Y-99100335D01*
X155116857Y-99089879D01*
X155115656Y-99072174D01*
X155116074Y-99070807D01*
X155132091Y-99026039D01*
X155158801Y-98957544D01*
X155193226Y-98872580D01*
X155232391Y-98778405D01*
X155273319Y-98682278D01*
X155307610Y-98603691D01*
X155331082Y-98547849D01*
X155345978Y-98501407D01*
X155354081Y-98453666D01*
X155357173Y-98393932D01*
X155357037Y-98311508D01*
X155356987Y-98307357D01*
X155354887Y-98214861D01*
X155351127Y-98118245D01*
X155346360Y-98032858D01*
X155343931Y-98000666D01*
X155333088Y-97873666D01*
X155305582Y-97932933D01*
X155287394Y-97971818D01*
X155258768Y-98032665D01*
X155223777Y-98106836D01*
X155189909Y-98178466D01*
X155125613Y-98314338D01*
X155073589Y-98424382D01*
X155031596Y-98513366D01*
X154997392Y-98586062D01*
X154968737Y-98647240D01*
X154943388Y-98701671D01*
X154919104Y-98754123D01*
X154901502Y-98792299D01*
X154859797Y-98881870D01*
X154828635Y-98945170D01*
X154804886Y-98986914D01*
X154785419Y-99011813D01*
X154767105Y-99024582D01*
X154746813Y-99029934D01*
X154743385Y-99030391D01*
X154707022Y-99027971D01*
X154648052Y-99016849D01*
X154575883Y-98999366D01*
X154499925Y-98977864D01*
X154429585Y-98954685D01*
X154410313Y-98947495D01*
X154367359Y-98930884D01*
X154727465Y-98207542D01*
X154799785Y-98062229D01*
X154867443Y-97926199D01*
X154928951Y-97802449D01*
X154982821Y-97693979D01*
X155027563Y-97603789D01*
X155061690Y-97534876D01*
X155083711Y-97490241D01*
X155092138Y-97472882D01*
X155092152Y-97472850D01*
X155109805Y-97469714D01*
X155152809Y-97471274D01*
X155213034Y-97477127D01*
X155235530Y-97479962D01*
X155348242Y-97489647D01*
X155453084Y-97485558D01*
X155506463Y-97478812D01*
X155582148Y-97467858D01*
X155655923Y-97457643D01*
X155712381Y-97450298D01*
X155714437Y-97450049D01*
X155764100Y-97441038D01*
X155799596Y-97429160D01*
X155806724Y-97424449D01*
X155836216Y-97410452D01*
X155857886Y-97407468D01*
X155892710Y-97399027D01*
X155948691Y-97376742D01*
X156017936Y-97344174D01*
X156092552Y-97304886D01*
X156121200Y-97288629D01*
X156184678Y-97246493D01*
X156258878Y-97189350D01*
X156331523Y-97127055D01*
X156378106Y-97082366D01*
X156440278Y-97018533D01*
X158387902Y-97018533D01*
X158373749Y-97065100D01*
X158373749Y-97065100D01*
G37*
X158373749Y-97065100D02*
X158316561Y-97224353D01*
X158239753Y-97395354D01*
X158148125Y-97569786D01*
X158046479Y-97739331D01*
X157939615Y-97895674D01*
X157832334Y-98030496D01*
X157789133Y-98077841D01*
X157756198Y-98113361D01*
X157715780Y-98158366D01*
X157704439Y-98171241D01*
X157657470Y-98220501D01*
X157592686Y-98282622D01*
X157518843Y-98349468D01*
X157444699Y-98412904D01*
X157441149Y-98415834D01*
X157406917Y-98442148D01*
X157355162Y-98479816D01*
X157296401Y-98521200D01*
X157289600Y-98525900D01*
X157236686Y-98562853D01*
X157195290Y-98592630D01*
X157172794Y-98609897D01*
X157171066Y-98611541D01*
X157151979Y-98625280D01*
X157115041Y-98647339D01*
X157103333Y-98653875D01*
X157063633Y-98676585D01*
X157038414Y-98692637D01*
X157035600Y-98694933D01*
X157017902Y-98705348D01*
X156976113Y-98727337D01*
X156916576Y-98757623D01*
X156849333Y-98791108D01*
X156648651Y-98881453D01*
X156442776Y-98958111D01*
X156242094Y-99017536D01*
X156087333Y-99051158D01*
X156019132Y-99063802D01*
X155955160Y-99076812D01*
X155918000Y-99085269D01*
X155880121Y-99090740D01*
X155815346Y-99095952D01*
X155730644Y-99100697D01*
X155632986Y-99104769D01*
X155529341Y-99107958D01*
X155426680Y-99110057D01*
X155331972Y-99110858D01*
X155252187Y-99110153D01*
X155194296Y-99107735D01*
X155186507Y-99107080D01*
X155138184Y-99100335D01*
X155116857Y-99089879D01*
X155115656Y-99072174D01*
X155116074Y-99070807D01*
X155132091Y-99026039D01*
X155158801Y-98957544D01*
X155193226Y-98872580D01*
X155232391Y-98778405D01*
X155273319Y-98682278D01*
X155307610Y-98603691D01*
X155331082Y-98547849D01*
X155345978Y-98501407D01*
X155354081Y-98453666D01*
X155357173Y-98393932D01*
X155357037Y-98311508D01*
X155356987Y-98307357D01*
X155354887Y-98214861D01*
X155351127Y-98118245D01*
X155346360Y-98032858D01*
X155343931Y-98000666D01*
X155333088Y-97873666D01*
X155305582Y-97932933D01*
X155287394Y-97971818D01*
X155258768Y-98032665D01*
X155223777Y-98106836D01*
X155189909Y-98178466D01*
X155125613Y-98314338D01*
X155073589Y-98424382D01*
X155031596Y-98513366D01*
X154997392Y-98586062D01*
X154968737Y-98647240D01*
X154943388Y-98701671D01*
X154919104Y-98754123D01*
X154901502Y-98792299D01*
X154859797Y-98881870D01*
X154828635Y-98945170D01*
X154804886Y-98986914D01*
X154785419Y-99011813D01*
X154767105Y-99024582D01*
X154746813Y-99029934D01*
X154743385Y-99030391D01*
X154707022Y-99027971D01*
X154648052Y-99016849D01*
X154575883Y-98999366D01*
X154499925Y-98977864D01*
X154429585Y-98954685D01*
X154410313Y-98947495D01*
X154367359Y-98930884D01*
X154727465Y-98207542D01*
X154799785Y-98062229D01*
X154867443Y-97926199D01*
X154928951Y-97802449D01*
X154982821Y-97693979D01*
X155027563Y-97603789D01*
X155061690Y-97534876D01*
X155083711Y-97490241D01*
X155092138Y-97472882D01*
X155092152Y-97472850D01*
X155109805Y-97469714D01*
X155152809Y-97471274D01*
X155213034Y-97477127D01*
X155235530Y-97479962D01*
X155348242Y-97489647D01*
X155453084Y-97485558D01*
X155506463Y-97478812D01*
X155582148Y-97467858D01*
X155655923Y-97457643D01*
X155712381Y-97450298D01*
X155714437Y-97450049D01*
X155764100Y-97441038D01*
X155799596Y-97429160D01*
X155806724Y-97424449D01*
X155836216Y-97410452D01*
X155857886Y-97407468D01*
X155892710Y-97399027D01*
X155948691Y-97376742D01*
X156017936Y-97344174D01*
X156092552Y-97304886D01*
X156121200Y-97288629D01*
X156184678Y-97246493D01*
X156258878Y-97189350D01*
X156331523Y-97127055D01*
X156378106Y-97082366D01*
X156440278Y-97018533D01*
X158387902Y-97018533D01*
X158373749Y-97065100D01*
G36*
X154618331Y-97270530D02*
X154629978Y-97280015D01*
X154661056Y-97301020D01*
X154678967Y-97306400D01*
X154697665Y-97317701D01*
X154698800Y-97323333D01*
X154712918Y-97337284D01*
X154731255Y-97340266D01*
X154761438Y-97349447D01*
X154770474Y-97360556D01*
X154764797Y-97380066D01*
X154745570Y-97426112D01*
X154714513Y-97494998D01*
X154673345Y-97583032D01*
X154623787Y-97686518D01*
X154567556Y-97801764D01*
X154526352Y-97885032D01*
X154466363Y-98006094D01*
X154411514Y-98117753D01*
X154363575Y-98216337D01*
X154324311Y-98298169D01*
X154295492Y-98359576D01*
X154278883Y-98396882D01*
X154275466Y-98406609D01*
X154265321Y-98423445D01*
X154261935Y-98423999D01*
X154247691Y-98438215D01*
X154230575Y-98473037D01*
X154228305Y-98479033D01*
X154205493Y-98533875D01*
X154174944Y-98597250D01*
X154140688Y-98661990D01*
X154106758Y-98720926D01*
X154077187Y-98766892D01*
X154056006Y-98792719D01*
X154050080Y-98795861D01*
X154025283Y-98787923D01*
X153981436Y-98768009D01*
X153938616Y-98746030D01*
X153887324Y-98717249D01*
X153847624Y-98692845D01*
X153831011Y-98680584D01*
X153829499Y-98655952D01*
X153847939Y-98607677D01*
X153869986Y-98565315D01*
X153905093Y-98501179D01*
X153938895Y-98437388D01*
X153958655Y-98398599D01*
X153981232Y-98355643D01*
X153998761Y-98327201D01*
X154002934Y-98322399D01*
X154015597Y-98304202D01*
X154038875Y-98264098D01*
X154067995Y-98210349D01*
X154071398Y-98203866D01*
X154104520Y-98141023D01*
X154135536Y-98082945D01*
X154157294Y-98042999D01*
X154210289Y-97947958D01*
X154250318Y-97876372D01*
X154280849Y-97822083D01*
X154305349Y-97778933D01*
X154327285Y-97740766D01*
X154333672Y-97729733D01*
X154366460Y-97671353D01*
X154397325Y-97613533D01*
X154407087Y-97594266D01*
X154427889Y-97554160D01*
X154442798Y-97529025D01*
X154444800Y-97526533D01*
X154457329Y-97507235D01*
X154477844Y-97469923D01*
X154483611Y-97458800D01*
X154511689Y-97406514D01*
X154545765Y-97346361D01*
X154557389Y-97326581D01*
X154584110Y-97284329D01*
X154601999Y-97267201D01*
X154618331Y-97270530D01*
X154618331Y-97270530D01*
G37*
X154618331Y-97270530D02*
X154629978Y-97280015D01*
X154661056Y-97301020D01*
X154678967Y-97306400D01*
X154697665Y-97317701D01*
X154698800Y-97323333D01*
X154712918Y-97337284D01*
X154731255Y-97340266D01*
X154761438Y-97349447D01*
X154770474Y-97360556D01*
X154764797Y-97380066D01*
X154745570Y-97426112D01*
X154714513Y-97494998D01*
X154673345Y-97583032D01*
X154623787Y-97686518D01*
X154567556Y-97801764D01*
X154526352Y-97885032D01*
X154466363Y-98006094D01*
X154411514Y-98117753D01*
X154363575Y-98216337D01*
X154324311Y-98298169D01*
X154295492Y-98359576D01*
X154278883Y-98396882D01*
X154275466Y-98406609D01*
X154265321Y-98423445D01*
X154261935Y-98423999D01*
X154247691Y-98438215D01*
X154230575Y-98473037D01*
X154228305Y-98479033D01*
X154205493Y-98533875D01*
X154174944Y-98597250D01*
X154140688Y-98661990D01*
X154106758Y-98720926D01*
X154077187Y-98766892D01*
X154056006Y-98792719D01*
X154050080Y-98795861D01*
X154025283Y-98787923D01*
X153981436Y-98768009D01*
X153938616Y-98746030D01*
X153887324Y-98717249D01*
X153847624Y-98692845D01*
X153831011Y-98680584D01*
X153829499Y-98655952D01*
X153847939Y-98607677D01*
X153869986Y-98565315D01*
X153905093Y-98501179D01*
X153938895Y-98437388D01*
X153958655Y-98398599D01*
X153981232Y-98355643D01*
X153998761Y-98327201D01*
X154002934Y-98322399D01*
X154015597Y-98304202D01*
X154038875Y-98264098D01*
X154067995Y-98210349D01*
X154071398Y-98203866D01*
X154104520Y-98141023D01*
X154135536Y-98082945D01*
X154157294Y-98042999D01*
X154210289Y-97947958D01*
X154250318Y-97876372D01*
X154280849Y-97822083D01*
X154305349Y-97778933D01*
X154327285Y-97740766D01*
X154333672Y-97729733D01*
X154366460Y-97671353D01*
X154397325Y-97613533D01*
X154407087Y-97594266D01*
X154427889Y-97554160D01*
X154442798Y-97529025D01*
X154444800Y-97526533D01*
X154457329Y-97507235D01*
X154477844Y-97469923D01*
X154483611Y-97458800D01*
X154511689Y-97406514D01*
X154545765Y-97346361D01*
X154557389Y-97326581D01*
X154584110Y-97284329D01*
X154601999Y-97267201D01*
X154618331Y-97270530D01*
G36*
X154252171Y-96975161D02*
X154289440Y-96999254D01*
X154339989Y-97046567D01*
X154350474Y-97057372D01*
X154439264Y-97149779D01*
X154346480Y-97300056D01*
X154237912Y-97475821D01*
X154144693Y-97626560D01*
X154064449Y-97756104D01*
X153994808Y-97868287D01*
X153933482Y-97966799D01*
X153890897Y-98035280D01*
X153853382Y-98095938D01*
X153825545Y-98141307D01*
X153813364Y-98161533D01*
X153794818Y-98192114D01*
X153764345Y-98241255D01*
X153728169Y-98298925D01*
X153724042Y-98305466D01*
X153685959Y-98365941D01*
X153651241Y-98421364D01*
X153627024Y-98460341D01*
X153625943Y-98462099D01*
X153602357Y-98493631D01*
X153577893Y-98504450D01*
X153545288Y-98493827D01*
X153497279Y-98461032D01*
X153479600Y-98447396D01*
X153422270Y-98400314D01*
X153364039Y-98349005D01*
X153341064Y-98327435D01*
X153278729Y-98267001D01*
X153341740Y-98180400D01*
X153387849Y-98115755D01*
X153438421Y-98042978D01*
X153467153Y-98000666D01*
X153522277Y-97919145D01*
X153574533Y-97843227D01*
X153620309Y-97778030D01*
X153655994Y-97728672D01*
X153677979Y-97700268D01*
X153682198Y-97695866D01*
X153696985Y-97677277D01*
X153721327Y-97640547D01*
X153731919Y-97623450D01*
X153760836Y-97578877D01*
X153786058Y-97544898D01*
X153791957Y-97538328D01*
X153808736Y-97517203D01*
X153840371Y-97473631D01*
X153882839Y-97413282D01*
X153932117Y-97341826D01*
X153950794Y-97314411D01*
X154022812Y-97208525D01*
X154078546Y-97127351D01*
X154120654Y-97067527D01*
X154151794Y-97025693D01*
X154174626Y-96998486D01*
X154191806Y-96982546D01*
X154205995Y-96974511D01*
X154219850Y-96971019D01*
X154222730Y-96970582D01*
X154252171Y-96975161D01*
X154252171Y-96975161D01*
G37*
X154252171Y-96975161D02*
X154289440Y-96999254D01*
X154339989Y-97046567D01*
X154350474Y-97057372D01*
X154439264Y-97149779D01*
X154346480Y-97300056D01*
X154237912Y-97475821D01*
X154144693Y-97626560D01*
X154064449Y-97756104D01*
X153994808Y-97868287D01*
X153933482Y-97966799D01*
X153890897Y-98035280D01*
X153853382Y-98095938D01*
X153825545Y-98141307D01*
X153813364Y-98161533D01*
X153794818Y-98192114D01*
X153764345Y-98241255D01*
X153728169Y-98298925D01*
X153724042Y-98305466D01*
X153685959Y-98365941D01*
X153651241Y-98421364D01*
X153627024Y-98460341D01*
X153625943Y-98462099D01*
X153602357Y-98493631D01*
X153577893Y-98504450D01*
X153545288Y-98493827D01*
X153497279Y-98461032D01*
X153479600Y-98447396D01*
X153422270Y-98400314D01*
X153364039Y-98349005D01*
X153341064Y-98327435D01*
X153278729Y-98267001D01*
X153341740Y-98180400D01*
X153387849Y-98115755D01*
X153438421Y-98042978D01*
X153467153Y-98000666D01*
X153522277Y-97919145D01*
X153574533Y-97843227D01*
X153620309Y-97778030D01*
X153655994Y-97728672D01*
X153677979Y-97700268D01*
X153682198Y-97695866D01*
X153696985Y-97677277D01*
X153721327Y-97640547D01*
X153731919Y-97623450D01*
X153760836Y-97578877D01*
X153786058Y-97544898D01*
X153791957Y-97538328D01*
X153808736Y-97517203D01*
X153840371Y-97473631D01*
X153882839Y-97413282D01*
X153932117Y-97341826D01*
X153950794Y-97314411D01*
X154022812Y-97208525D01*
X154078546Y-97127351D01*
X154120654Y-97067527D01*
X154151794Y-97025693D01*
X154174626Y-96998486D01*
X154191806Y-96982546D01*
X154205995Y-96974511D01*
X154219850Y-96971019D01*
X154222730Y-96970582D01*
X154252171Y-96975161D01*
G36*
X154043807Y-96663852D02*
X154077292Y-96670141D01*
X154098326Y-96687096D01*
X154117616Y-96720015D01*
X154122722Y-96729992D01*
X154145245Y-96774574D01*
X154153944Y-96800076D01*
X154149279Y-96818121D01*
X154131711Y-96840335D01*
X154127300Y-96845570D01*
X154106296Y-96872865D01*
X154070858Y-96921193D01*
X154025889Y-96983784D01*
X153976295Y-97053871D01*
X153975085Y-97055594D01*
X153912173Y-97144965D01*
X153839965Y-97247165D01*
X153768870Y-97347481D01*
X153725837Y-97408000D01*
X153676008Y-97478050D01*
X153631779Y-97540424D01*
X153597705Y-97588685D01*
X153578343Y-97616392D01*
X153577485Y-97617648D01*
X153558146Y-97645109D01*
X153524624Y-97691823D01*
X153482732Y-97749709D01*
X153461775Y-97778515D01*
X153414991Y-97843858D01*
X153371262Y-97906924D01*
X153337797Y-97957249D01*
X153329282Y-97970836D01*
X153291914Y-98017216D01*
X153247428Y-98052943D01*
X153237040Y-98058390D01*
X153177588Y-98083686D01*
X153136575Y-98092811D01*
X153103722Y-98083155D01*
X153068751Y-98052112D01*
X153028430Y-98005470D01*
X152987279Y-97957636D01*
X152953964Y-97921071D01*
X152934815Y-97902678D01*
X152933500Y-97901888D01*
X152920992Y-97882356D01*
X152920329Y-97876488D01*
X152910481Y-97852282D01*
X152885979Y-97813011D01*
X152869529Y-97790216D01*
X152840257Y-97748916D01*
X152822107Y-97718276D01*
X152819200Y-97709783D01*
X152834853Y-97703564D01*
X152876704Y-97698750D01*
X152937091Y-97696068D01*
X152967367Y-97695750D01*
X153115533Y-97695635D01*
X153157867Y-97632265D01*
X153193830Y-97582659D01*
X153230359Y-97538477D01*
X153238300Y-97530011D01*
X153264731Y-97499686D01*
X153276392Y-97479677D01*
X153276421Y-97479196D01*
X153286381Y-97459426D01*
X153310714Y-97426833D01*
X153314521Y-97422276D01*
X153349306Y-97378921D01*
X153378000Y-97339768D01*
X153405674Y-97302309D01*
X153424567Y-97280134D01*
X153442698Y-97255903D01*
X153445733Y-97247133D01*
X153455667Y-97226781D01*
X153466900Y-97212517D01*
X153489154Y-97185227D01*
X153521626Y-97142880D01*
X153538866Y-97119695D01*
X153579586Y-97066333D01*
X153628662Y-97004758D01*
X153657400Y-96969908D01*
X153701959Y-96914483D01*
X153754535Y-96845707D01*
X153803991Y-96778158D01*
X153805474Y-96776072D01*
X153885815Y-96662933D01*
X153987163Y-96662933D01*
X154043807Y-96663852D01*
X154043807Y-96663852D01*
G37*
X154043807Y-96663852D02*
X154077292Y-96670141D01*
X154098326Y-96687096D01*
X154117616Y-96720015D01*
X154122722Y-96729992D01*
X154145245Y-96774574D01*
X154153944Y-96800076D01*
X154149279Y-96818121D01*
X154131711Y-96840335D01*
X154127300Y-96845570D01*
X154106296Y-96872865D01*
X154070858Y-96921193D01*
X154025889Y-96983784D01*
X153976295Y-97053871D01*
X153975085Y-97055594D01*
X153912173Y-97144965D01*
X153839965Y-97247165D01*
X153768870Y-97347481D01*
X153725837Y-97408000D01*
X153676008Y-97478050D01*
X153631779Y-97540424D01*
X153597705Y-97588685D01*
X153578343Y-97616392D01*
X153577485Y-97617648D01*
X153558146Y-97645109D01*
X153524624Y-97691823D01*
X153482732Y-97749709D01*
X153461775Y-97778515D01*
X153414991Y-97843858D01*
X153371262Y-97906924D01*
X153337797Y-97957249D01*
X153329282Y-97970836D01*
X153291914Y-98017216D01*
X153247428Y-98052943D01*
X153237040Y-98058390D01*
X153177588Y-98083686D01*
X153136575Y-98092811D01*
X153103722Y-98083155D01*
X153068751Y-98052112D01*
X153028430Y-98005470D01*
X152987279Y-97957636D01*
X152953964Y-97921071D01*
X152934815Y-97902678D01*
X152933500Y-97901888D01*
X152920992Y-97882356D01*
X152920329Y-97876488D01*
X152910481Y-97852282D01*
X152885979Y-97813011D01*
X152869529Y-97790216D01*
X152840257Y-97748916D01*
X152822107Y-97718276D01*
X152819200Y-97709783D01*
X152834853Y-97703564D01*
X152876704Y-97698750D01*
X152937091Y-97696068D01*
X152967367Y-97695750D01*
X153115533Y-97695635D01*
X153157867Y-97632265D01*
X153193830Y-97582659D01*
X153230359Y-97538477D01*
X153238300Y-97530011D01*
X153264731Y-97499686D01*
X153276392Y-97479677D01*
X153276421Y-97479196D01*
X153286381Y-97459426D01*
X153310714Y-97426833D01*
X153314521Y-97422276D01*
X153349306Y-97378921D01*
X153378000Y-97339768D01*
X153405674Y-97302309D01*
X153424567Y-97280134D01*
X153442698Y-97255903D01*
X153445733Y-97247133D01*
X153455667Y-97226781D01*
X153466900Y-97212517D01*
X153489154Y-97185227D01*
X153521626Y-97142880D01*
X153538866Y-97119695D01*
X153579586Y-97066333D01*
X153628662Y-97004758D01*
X153657400Y-96969908D01*
X153701959Y-96914483D01*
X153754535Y-96845707D01*
X153803991Y-96778158D01*
X153805474Y-96776072D01*
X153885815Y-96662933D01*
X153987163Y-96662933D01*
X154043807Y-96663852D01*
G36*
X155628042Y-93291199D02*
X155706285Y-93292228D01*
X155762566Y-93294277D01*
X155800850Y-93297509D01*
X155825103Y-93302087D01*
X155839293Y-93308170D01*
X155841800Y-93310000D01*
X155867135Y-93319150D01*
X155914151Y-93328002D01*
X155951867Y-93332543D01*
X156068999Y-93346719D01*
X156155803Y-93364057D01*
X156197400Y-93377859D01*
X156234582Y-93388944D01*
X156288380Y-93399666D01*
X156311305Y-93403083D01*
X156360468Y-93412442D01*
X156394062Y-93424106D01*
X156401204Y-93429645D01*
X156424030Y-93441982D01*
X156452399Y-93445600D01*
X156483741Y-93451523D01*
X156493733Y-93462533D01*
X156508448Y-93474422D01*
X156543901Y-93479465D01*
X156544533Y-93479466D01*
X156580202Y-93484371D01*
X156595329Y-93496189D01*
X156595333Y-93496400D01*
X156609824Y-93509129D01*
X156637667Y-93513333D01*
X156669489Y-93519129D01*
X156680000Y-93530266D01*
X156694182Y-93544024D01*
X156713867Y-93547200D01*
X156741383Y-93554291D01*
X156747733Y-93564133D01*
X156761871Y-93578027D01*
X156780600Y-93581066D01*
X156812587Y-93588213D01*
X156823128Y-93596697D01*
X156845187Y-93611165D01*
X156883394Y-93623442D01*
X156918861Y-93635727D01*
X156933993Y-93649889D01*
X156934000Y-93650145D01*
X156947735Y-93663981D01*
X156959400Y-93665733D01*
X156981957Y-93673194D01*
X156984800Y-93679506D01*
X156998968Y-93693976D01*
X157034034Y-93712398D01*
X157044066Y-93716533D01*
X157082414Y-93734872D01*
X157102478Y-93750893D01*
X157103333Y-93753560D01*
X157116855Y-93766229D01*
X157125540Y-93767333D01*
X157153250Y-93778070D01*
X157184099Y-93801200D01*
X157215960Y-93825743D01*
X157238092Y-93835066D01*
X157255118Y-93846218D01*
X157255733Y-93850164D01*
X157270100Y-93865007D01*
X157298759Y-93876060D01*
X157326963Y-93889201D01*
X157331626Y-93903296D01*
X157333336Y-93918544D01*
X157339207Y-93919733D01*
X157367695Y-93931871D01*
X157412574Y-93965541D01*
X157451147Y-94000166D01*
X157474025Y-94018193D01*
X157481584Y-94021333D01*
X157497934Y-94032879D01*
X157532436Y-94064175D01*
X157580143Y-94110202D01*
X157636107Y-94165944D01*
X157695381Y-94226385D01*
X157753016Y-94286508D01*
X157804066Y-94341295D01*
X157843581Y-94385730D01*
X157857318Y-94402310D01*
X157901379Y-94457638D01*
X157932050Y-94495801D01*
X157956941Y-94526200D01*
X157979633Y-94553430D01*
X157997315Y-94579002D01*
X158000800Y-94588570D01*
X158009725Y-94607252D01*
X158031171Y-94641143D01*
X158057143Y-94678509D01*
X158079646Y-94707614D01*
X158087337Y-94715599D01*
X158103488Y-94737854D01*
X158125823Y-94778014D01*
X158147550Y-94822703D01*
X158161877Y-94858545D01*
X158163850Y-94866304D01*
X158177532Y-94894775D01*
X158183578Y-94900171D01*
X158205778Y-94927298D01*
X158235178Y-94982308D01*
X158269793Y-95060484D01*
X158307643Y-95157111D01*
X158346743Y-95267474D01*
X158376524Y-95359066D01*
X158395409Y-95418884D01*
X158411213Y-95467938D01*
X158420143Y-95494533D01*
X158429823Y-95531092D01*
X158435530Y-95562266D01*
X158444308Y-95604757D01*
X158458916Y-95660669D01*
X158464810Y-95680800D01*
X158479746Y-95747307D01*
X158488977Y-95820777D01*
X158490046Y-95841693D01*
X158493151Y-95900990D01*
X158498513Y-95952717D01*
X158501236Y-95968693D01*
X158506361Y-96011895D01*
X158509075Y-96076692D01*
X158509613Y-96155826D01*
X158508211Y-96242037D01*
X158505105Y-96328067D01*
X158500531Y-96406655D01*
X158494726Y-96470543D01*
X158487925Y-96512472D01*
X158483162Y-96524427D01*
X158465951Y-96525186D01*
X158416804Y-96526144D01*
X158337649Y-96527282D01*
X158230416Y-96528584D01*
X158097035Y-96530030D01*
X157939434Y-96531605D01*
X157759543Y-96533289D01*
X157559291Y-96535065D01*
X157340608Y-96536915D01*
X157105423Y-96538823D01*
X156855665Y-96540769D01*
X156593263Y-96542736D01*
X156320148Y-96544708D01*
X156127061Y-96546056D01*
X153775933Y-96562258D01*
X153724846Y-96616829D01*
X153690225Y-96656185D01*
X153643809Y-96712066D01*
X153594251Y-96774002D01*
X153581819Y-96789933D01*
X153537065Y-96846892D01*
X153497450Y-96895993D01*
X153469516Y-96929173D01*
X153463573Y-96935674D01*
X153447603Y-96952670D01*
X153428719Y-96974061D01*
X153403002Y-97004540D01*
X153366529Y-97048802D01*
X153315380Y-97111541D01*
X153270245Y-97167116D01*
X153170957Y-97289466D01*
X152586629Y-97289466D01*
X152535004Y-97149766D01*
X152503995Y-97064834D01*
X152482667Y-97003232D01*
X152468436Y-96956722D01*
X152458718Y-96917066D01*
X152453237Y-96889084D01*
X152445063Y-96844011D01*
X152773818Y-96853540D01*
X153102573Y-96863070D01*
X153202186Y-96752197D01*
X153250630Y-96697766D01*
X153292813Y-96649455D01*
X153321682Y-96615369D01*
X153327200Y-96608476D01*
X153352139Y-96578423D01*
X153390660Y-96534304D01*
X153424567Y-96496550D01*
X153461975Y-96453795D01*
X153487998Y-96420900D01*
X153496533Y-96406224D01*
X153507184Y-96397157D01*
X153540696Y-96389249D01*
X153599408Y-96382269D01*
X153685659Y-96375988D01*
X153801788Y-96370175D01*
X153902933Y-96366232D01*
X154005965Y-96361790D01*
X154105574Y-96356135D01*
X154193127Y-96349852D01*
X154259994Y-96343528D01*
X154283933Y-96340384D01*
X154346273Y-96333241D01*
X154429001Y-96327270D01*
X154518640Y-96323338D01*
X154563333Y-96322391D01*
X154643135Y-96320434D01*
X154689121Y-96316883D01*
X154701306Y-96311735D01*
X154690333Y-96307333D01*
X154663034Y-96304568D01*
X154605616Y-96301914D01*
X154521826Y-96299442D01*
X154415414Y-96297223D01*
X154290126Y-96295326D01*
X154149711Y-96293824D01*
X153997916Y-96292785D01*
X153898700Y-96292403D01*
X153157867Y-96290400D01*
X153157867Y-96442800D01*
X152383167Y-96442800D01*
X152372583Y-96389883D01*
X152367284Y-96345686D01*
X152363877Y-96281959D01*
X152362370Y-96208369D01*
X152362769Y-96134582D01*
X152365084Y-96070264D01*
X152369322Y-96025081D01*
X152372278Y-96012384D01*
X152379213Y-96003689D01*
X152395177Y-95997071D01*
X152424223Y-95992259D01*
X152470405Y-95988978D01*
X152537774Y-95986957D01*
X152630383Y-95985923D01*
X152752286Y-95985603D01*
X152770212Y-95985600D01*
X153157867Y-95985600D01*
X153157867Y-96138000D01*
X153905755Y-96138000D01*
X154060923Y-96137851D01*
X154204893Y-96137427D01*
X154334298Y-96136758D01*
X154445768Y-96135875D01*
X154535935Y-96134808D01*
X154601431Y-96133589D01*
X154638887Y-96132248D01*
X154646589Y-96131211D01*
X154626462Y-96126610D01*
X154576381Y-96120446D01*
X154500205Y-96113032D01*
X154401795Y-96104679D01*
X154285011Y-96095698D01*
X154153713Y-96086402D01*
X154011761Y-96077101D01*
X153869066Y-96068458D01*
X153521933Y-96048283D01*
X153460713Y-95983429D01*
X153414705Y-95932788D01*
X153370399Y-95881058D01*
X153355948Y-95863187D01*
X153322933Y-95823436D01*
X153276124Y-95769814D01*
X153224951Y-95713098D01*
X153218600Y-95706200D01*
X153175088Y-95657665D01*
X153142193Y-95618299D01*
X153125446Y-95594812D01*
X153124398Y-95591900D01*
X153108174Y-95588093D01*
X153063086Y-95584743D01*
X152994136Y-95582030D01*
X152906324Y-95580137D01*
X152804652Y-95579245D01*
X152775055Y-95579200D01*
X152657994Y-95579028D01*
X152570690Y-95578274D01*
X152509035Y-95576575D01*
X152468918Y-95573570D01*
X152446231Y-95568899D01*
X152436866Y-95562199D01*
X152436712Y-95553110D01*
X152437966Y-95549566D01*
X152448763Y-95517078D01*
X152463808Y-95465331D01*
X152474229Y-95426799D01*
X152495130Y-95355375D01*
X152521460Y-95276166D01*
X152536065Y-95236299D01*
X152573494Y-95138933D01*
X152870384Y-95138933D01*
X152977426Y-95139110D01*
X153055792Y-95140041D01*
X153110672Y-95142328D01*
X153147257Y-95146573D01*
X153170737Y-95153377D01*
X153186302Y-95163342D01*
X153199112Y-95177033D01*
X153230520Y-95213957D01*
X153270465Y-95260107D01*
X153283309Y-95274790D01*
X153326887Y-95326363D01*
X153369420Y-95379586D01*
X153378000Y-95390848D01*
X153414577Y-95437995D01*
X153449526Y-95480661D01*
X153454200Y-95486085D01*
X153489519Y-95526519D01*
X153528633Y-95571211D01*
X153530400Y-95573227D01*
X153568192Y-95618728D01*
X153609656Y-95671953D01*
X153619685Y-95685418D01*
X153655094Y-95731968D01*
X153687423Y-95771876D01*
X153695885Y-95781571D01*
X153727946Y-95817951D01*
X153746967Y-95840452D01*
X153753411Y-95845144D01*
X153765938Y-95849257D01*
X153786637Y-95852829D01*
X153817594Y-95855897D01*
X153860896Y-95858497D01*
X153918630Y-95860669D01*
X153992884Y-95862448D01*
X154085744Y-95863873D01*
X154199297Y-95864980D01*
X154335630Y-95865807D01*
X154496830Y-95866392D01*
X154684985Y-95866771D01*
X154902181Y-95866982D01*
X155150505Y-95867062D01*
X155234703Y-95867066D01*
X156700605Y-95867066D01*
X156689995Y-95820500D01*
X156660068Y-95732406D01*
X156609452Y-95630729D01*
X156543236Y-95523852D01*
X156466508Y-95420158D01*
X156402277Y-95346500D01*
X156260176Y-95212467D01*
X156111594Y-95106204D01*
X155948595Y-95022982D01*
X155763242Y-94958074D01*
X155738423Y-94951100D01*
X155668141Y-94934385D01*
X155596328Y-94923551D01*
X155512893Y-94917582D01*
X155407748Y-94915464D01*
X155383911Y-94915413D01*
X155297222Y-94916230D01*
X155220429Y-94918466D01*
X155161128Y-94921792D01*
X155126913Y-94925883D01*
X155124331Y-94926569D01*
X155115182Y-94927032D01*
X155104447Y-94921207D01*
X155090771Y-94906654D01*
X155072803Y-94880934D01*
X155049187Y-94841610D01*
X155018570Y-94786241D01*
X154979599Y-94712389D01*
X154930920Y-94617616D01*
X154871180Y-94499482D01*
X154799025Y-94355549D01*
X154724201Y-94205644D01*
X154639010Y-94034636D01*
X154568027Y-93891452D01*
X154510323Y-93773618D01*
X154464970Y-93678663D01*
X154431042Y-93604113D01*
X154407610Y-93547496D01*
X154393746Y-93506338D01*
X154388524Y-93478166D01*
X154391014Y-93460509D01*
X154400289Y-93450892D01*
X154415423Y-93446843D01*
X154435486Y-93445890D01*
X154439155Y-93445859D01*
X154470800Y-93439163D01*
X154481489Y-93429481D01*
X154499879Y-93418155D01*
X154541974Y-93404990D01*
X154588733Y-93394783D01*
X154651790Y-93383071D01*
X154707750Y-93372369D01*
X154735227Y-93366892D01*
X154770652Y-93365790D01*
X154788922Y-93387110D01*
X154792514Y-93397356D01*
X154804153Y-93426287D01*
X154827809Y-93479047D01*
X154860473Y-93549117D01*
X154899131Y-93629978D01*
X154916501Y-93665733D01*
X154955904Y-93747501D01*
X154989693Y-93819609D01*
X155015140Y-93876078D01*
X155029514Y-93910928D01*
X155031654Y-93918038D01*
X155047536Y-93947939D01*
X155054720Y-93953798D01*
X155071718Y-93971646D01*
X155072586Y-93976740D01*
X155077485Y-93998063D01*
X155091679Y-94037042D01*
X155095804Y-94047121D01*
X155110958Y-94086668D01*
X155117387Y-94110186D01*
X155117164Y-94112171D01*
X155123742Y-94127731D01*
X155138324Y-94147439D01*
X155160057Y-94182753D01*
X155166832Y-94203379D01*
X155183558Y-94235699D01*
X155192974Y-94243745D01*
X155205736Y-94255987D01*
X155202222Y-94258140D01*
X155201022Y-94271513D01*
X155213367Y-94304865D01*
X155221573Y-94321900D01*
X155241147Y-94363667D01*
X155251187Y-94391866D01*
X155251551Y-94396322D01*
X155259546Y-94416006D01*
X155276492Y-94438655D01*
X155301063Y-94478599D01*
X155317023Y-94520866D01*
X155330195Y-94571666D01*
X155343010Y-94529333D01*
X155347398Y-94498617D01*
X155351349Y-94440704D01*
X155354566Y-94362267D01*
X155356755Y-94269974D01*
X155357512Y-94201746D01*
X155357396Y-94085442D01*
X155355280Y-93998483D01*
X155350864Y-93936392D01*
X155343849Y-93894691D01*
X155335417Y-93871546D01*
X155318281Y-93835664D01*
X155292981Y-93778516D01*
X155263974Y-93710263D01*
X155252553Y-93682666D01*
X155217837Y-93598463D01*
X155180073Y-93507452D01*
X155146565Y-93427224D01*
X155141836Y-93415966D01*
X155090199Y-93293200D01*
X155389799Y-93291559D01*
X155523869Y-93291030D01*
X155628042Y-93291199D01*
X155628042Y-93291199D01*
G37*
X155628042Y-93291199D02*
X155706285Y-93292228D01*
X155762566Y-93294277D01*
X155800850Y-93297509D01*
X155825103Y-93302087D01*
X155839293Y-93308170D01*
X155841800Y-93310000D01*
X155867135Y-93319150D01*
X155914151Y-93328002D01*
X155951867Y-93332543D01*
X156068999Y-93346719D01*
X156155803Y-93364057D01*
X156197400Y-93377859D01*
X156234582Y-93388944D01*
X156288380Y-93399666D01*
X156311305Y-93403083D01*
X156360468Y-93412442D01*
X156394062Y-93424106D01*
X156401204Y-93429645D01*
X156424030Y-93441982D01*
X156452399Y-93445600D01*
X156483741Y-93451523D01*
X156493733Y-93462533D01*
X156508448Y-93474422D01*
X156543901Y-93479465D01*
X156544533Y-93479466D01*
X156580202Y-93484371D01*
X156595329Y-93496189D01*
X156595333Y-93496400D01*
X156609824Y-93509129D01*
X156637667Y-93513333D01*
X156669489Y-93519129D01*
X156680000Y-93530266D01*
X156694182Y-93544024D01*
X156713867Y-93547200D01*
X156741383Y-93554291D01*
X156747733Y-93564133D01*
X156761871Y-93578027D01*
X156780600Y-93581066D01*
X156812587Y-93588213D01*
X156823128Y-93596697D01*
X156845187Y-93611165D01*
X156883394Y-93623442D01*
X156918861Y-93635727D01*
X156933993Y-93649889D01*
X156934000Y-93650145D01*
X156947735Y-93663981D01*
X156959400Y-93665733D01*
X156981957Y-93673194D01*
X156984800Y-93679506D01*
X156998968Y-93693976D01*
X157034034Y-93712398D01*
X157044066Y-93716533D01*
X157082414Y-93734872D01*
X157102478Y-93750893D01*
X157103333Y-93753560D01*
X157116855Y-93766229D01*
X157125540Y-93767333D01*
X157153250Y-93778070D01*
X157184099Y-93801200D01*
X157215960Y-93825743D01*
X157238092Y-93835066D01*
X157255118Y-93846218D01*
X157255733Y-93850164D01*
X157270100Y-93865007D01*
X157298759Y-93876060D01*
X157326963Y-93889201D01*
X157331626Y-93903296D01*
X157333336Y-93918544D01*
X157339207Y-93919733D01*
X157367695Y-93931871D01*
X157412574Y-93965541D01*
X157451147Y-94000166D01*
X157474025Y-94018193D01*
X157481584Y-94021333D01*
X157497934Y-94032879D01*
X157532436Y-94064175D01*
X157580143Y-94110202D01*
X157636107Y-94165944D01*
X157695381Y-94226385D01*
X157753016Y-94286508D01*
X157804066Y-94341295D01*
X157843581Y-94385730D01*
X157857318Y-94402310D01*
X157901379Y-94457638D01*
X157932050Y-94495801D01*
X157956941Y-94526200D01*
X157979633Y-94553430D01*
X157997315Y-94579002D01*
X158000800Y-94588570D01*
X158009725Y-94607252D01*
X158031171Y-94641143D01*
X158057143Y-94678509D01*
X158079646Y-94707614D01*
X158087337Y-94715599D01*
X158103488Y-94737854D01*
X158125823Y-94778014D01*
X158147550Y-94822703D01*
X158161877Y-94858545D01*
X158163850Y-94866304D01*
X158177532Y-94894775D01*
X158183578Y-94900171D01*
X158205778Y-94927298D01*
X158235178Y-94982308D01*
X158269793Y-95060484D01*
X158307643Y-95157111D01*
X158346743Y-95267474D01*
X158376524Y-95359066D01*
X158395409Y-95418884D01*
X158411213Y-95467938D01*
X158420143Y-95494533D01*
X158429823Y-95531092D01*
X158435530Y-95562266D01*
X158444308Y-95604757D01*
X158458916Y-95660669D01*
X158464810Y-95680800D01*
X158479746Y-95747307D01*
X158488977Y-95820777D01*
X158490046Y-95841693D01*
X158493151Y-95900990D01*
X158498513Y-95952717D01*
X158501236Y-95968693D01*
X158506361Y-96011895D01*
X158509075Y-96076692D01*
X158509613Y-96155826D01*
X158508211Y-96242037D01*
X158505105Y-96328067D01*
X158500531Y-96406655D01*
X158494726Y-96470543D01*
X158487925Y-96512472D01*
X158483162Y-96524427D01*
X158465951Y-96525186D01*
X158416804Y-96526144D01*
X158337649Y-96527282D01*
X158230416Y-96528584D01*
X158097035Y-96530030D01*
X157939434Y-96531605D01*
X157759543Y-96533289D01*
X157559291Y-96535065D01*
X157340608Y-96536915D01*
X157105423Y-96538823D01*
X156855665Y-96540769D01*
X156593263Y-96542736D01*
X156320148Y-96544708D01*
X156127061Y-96546056D01*
X153775933Y-96562258D01*
X153724846Y-96616829D01*
X153690225Y-96656185D01*
X153643809Y-96712066D01*
X153594251Y-96774002D01*
X153581819Y-96789933D01*
X153537065Y-96846892D01*
X153497450Y-96895993D01*
X153469516Y-96929173D01*
X153463573Y-96935674D01*
X153447603Y-96952670D01*
X153428719Y-96974061D01*
X153403002Y-97004540D01*
X153366529Y-97048802D01*
X153315380Y-97111541D01*
X153270245Y-97167116D01*
X153170957Y-97289466D01*
X152586629Y-97289466D01*
X152535004Y-97149766D01*
X152503995Y-97064834D01*
X152482667Y-97003232D01*
X152468436Y-96956722D01*
X152458718Y-96917066D01*
X152453237Y-96889084D01*
X152445063Y-96844011D01*
X152773818Y-96853540D01*
X153102573Y-96863070D01*
X153202186Y-96752197D01*
X153250630Y-96697766D01*
X153292813Y-96649455D01*
X153321682Y-96615369D01*
X153327200Y-96608476D01*
X153352139Y-96578423D01*
X153390660Y-96534304D01*
X153424567Y-96496550D01*
X153461975Y-96453795D01*
X153487998Y-96420900D01*
X153496533Y-96406224D01*
X153507184Y-96397157D01*
X153540696Y-96389249D01*
X153599408Y-96382269D01*
X153685659Y-96375988D01*
X153801788Y-96370175D01*
X153902933Y-96366232D01*
X154005965Y-96361790D01*
X154105574Y-96356135D01*
X154193127Y-96349852D01*
X154259994Y-96343528D01*
X154283933Y-96340384D01*
X154346273Y-96333241D01*
X154429001Y-96327270D01*
X154518640Y-96323338D01*
X154563333Y-96322391D01*
X154643135Y-96320434D01*
X154689121Y-96316883D01*
X154701306Y-96311735D01*
X154690333Y-96307333D01*
X154663034Y-96304568D01*
X154605616Y-96301914D01*
X154521826Y-96299442D01*
X154415414Y-96297223D01*
X154290126Y-96295326D01*
X154149711Y-96293824D01*
X153997916Y-96292785D01*
X153898700Y-96292403D01*
X153157867Y-96290400D01*
X153157867Y-96442800D01*
X152383167Y-96442800D01*
X152372583Y-96389883D01*
X152367284Y-96345686D01*
X152363877Y-96281959D01*
X152362370Y-96208369D01*
X152362769Y-96134582D01*
X152365084Y-96070264D01*
X152369322Y-96025081D01*
X152372278Y-96012384D01*
X152379213Y-96003689D01*
X152395177Y-95997071D01*
X152424223Y-95992259D01*
X152470405Y-95988978D01*
X152537774Y-95986957D01*
X152630383Y-95985923D01*
X152752286Y-95985603D01*
X152770212Y-95985600D01*
X153157867Y-95985600D01*
X153157867Y-96138000D01*
X153905755Y-96138000D01*
X154060923Y-96137851D01*
X154204893Y-96137427D01*
X154334298Y-96136758D01*
X154445768Y-96135875D01*
X154535935Y-96134808D01*
X154601431Y-96133589D01*
X154638887Y-96132248D01*
X154646589Y-96131211D01*
X154626462Y-96126610D01*
X154576381Y-96120446D01*
X154500205Y-96113032D01*
X154401795Y-96104679D01*
X154285011Y-96095698D01*
X154153713Y-96086402D01*
X154011761Y-96077101D01*
X153869066Y-96068458D01*
X153521933Y-96048283D01*
X153460713Y-95983429D01*
X153414705Y-95932788D01*
X153370399Y-95881058D01*
X153355948Y-95863187D01*
X153322933Y-95823436D01*
X153276124Y-95769814D01*
X153224951Y-95713098D01*
X153218600Y-95706200D01*
X153175088Y-95657665D01*
X153142193Y-95618299D01*
X153125446Y-95594812D01*
X153124398Y-95591900D01*
X153108174Y-95588093D01*
X153063086Y-95584743D01*
X152994136Y-95582030D01*
X152906324Y-95580137D01*
X152804652Y-95579245D01*
X152775055Y-95579200D01*
X152657994Y-95579028D01*
X152570690Y-95578274D01*
X152509035Y-95576575D01*
X152468918Y-95573570D01*
X152446231Y-95568899D01*
X152436866Y-95562199D01*
X152436712Y-95553110D01*
X152437966Y-95549566D01*
X152448763Y-95517078D01*
X152463808Y-95465331D01*
X152474229Y-95426799D01*
X152495130Y-95355375D01*
X152521460Y-95276166D01*
X152536065Y-95236299D01*
X152573494Y-95138933D01*
X152870384Y-95138933D01*
X152977426Y-95139110D01*
X153055792Y-95140041D01*
X153110672Y-95142328D01*
X153147257Y-95146573D01*
X153170737Y-95153377D01*
X153186302Y-95163342D01*
X153199112Y-95177033D01*
X153230520Y-95213957D01*
X153270465Y-95260107D01*
X153283309Y-95274790D01*
X153326887Y-95326363D01*
X153369420Y-95379586D01*
X153378000Y-95390848D01*
X153414577Y-95437995D01*
X153449526Y-95480661D01*
X153454200Y-95486085D01*
X153489519Y-95526519D01*
X153528633Y-95571211D01*
X153530400Y-95573227D01*
X153568192Y-95618728D01*
X153609656Y-95671953D01*
X153619685Y-95685418D01*
X153655094Y-95731968D01*
X153687423Y-95771876D01*
X153695885Y-95781571D01*
X153727946Y-95817951D01*
X153746967Y-95840452D01*
X153753411Y-95845144D01*
X153765938Y-95849257D01*
X153786637Y-95852829D01*
X153817594Y-95855897D01*
X153860896Y-95858497D01*
X153918630Y-95860669D01*
X153992884Y-95862448D01*
X154085744Y-95863873D01*
X154199297Y-95864980D01*
X154335630Y-95865807D01*
X154496830Y-95866392D01*
X154684985Y-95866771D01*
X154902181Y-95866982D01*
X155150505Y-95867062D01*
X155234703Y-95867066D01*
X156700605Y-95867066D01*
X156689995Y-95820500D01*
X156660068Y-95732406D01*
X156609452Y-95630729D01*
X156543236Y-95523852D01*
X156466508Y-95420158D01*
X156402277Y-95346500D01*
X156260176Y-95212467D01*
X156111594Y-95106204D01*
X155948595Y-95022982D01*
X155763242Y-94958074D01*
X155738423Y-94951100D01*
X155668141Y-94934385D01*
X155596328Y-94923551D01*
X155512893Y-94917582D01*
X155407748Y-94915464D01*
X155383911Y-94915413D01*
X155297222Y-94916230D01*
X155220429Y-94918466D01*
X155161128Y-94921792D01*
X155126913Y-94925883D01*
X155124331Y-94926569D01*
X155115182Y-94927032D01*
X155104447Y-94921207D01*
X155090771Y-94906654D01*
X155072803Y-94880934D01*
X155049187Y-94841610D01*
X155018570Y-94786241D01*
X154979599Y-94712389D01*
X154930920Y-94617616D01*
X154871180Y-94499482D01*
X154799025Y-94355549D01*
X154724201Y-94205644D01*
X154639010Y-94034636D01*
X154568027Y-93891452D01*
X154510323Y-93773618D01*
X154464970Y-93678663D01*
X154431042Y-93604113D01*
X154407610Y-93547496D01*
X154393746Y-93506338D01*
X154388524Y-93478166D01*
X154391014Y-93460509D01*
X154400289Y-93450892D01*
X154415423Y-93446843D01*
X154435486Y-93445890D01*
X154439155Y-93445859D01*
X154470800Y-93439163D01*
X154481489Y-93429481D01*
X154499879Y-93418155D01*
X154541974Y-93404990D01*
X154588733Y-93394783D01*
X154651790Y-93383071D01*
X154707750Y-93372369D01*
X154735227Y-93366892D01*
X154770652Y-93365790D01*
X154788922Y-93387110D01*
X154792514Y-93397356D01*
X154804153Y-93426287D01*
X154827809Y-93479047D01*
X154860473Y-93549117D01*
X154899131Y-93629978D01*
X154916501Y-93665733D01*
X154955904Y-93747501D01*
X154989693Y-93819609D01*
X155015140Y-93876078D01*
X155029514Y-93910928D01*
X155031654Y-93918038D01*
X155047536Y-93947939D01*
X155054720Y-93953798D01*
X155071718Y-93971646D01*
X155072586Y-93976740D01*
X155077485Y-93998063D01*
X155091679Y-94037042D01*
X155095804Y-94047121D01*
X155110958Y-94086668D01*
X155117387Y-94110186D01*
X155117164Y-94112171D01*
X155123742Y-94127731D01*
X155138324Y-94147439D01*
X155160057Y-94182753D01*
X155166832Y-94203379D01*
X155183558Y-94235699D01*
X155192974Y-94243745D01*
X155205736Y-94255987D01*
X155202222Y-94258140D01*
X155201022Y-94271513D01*
X155213367Y-94304865D01*
X155221573Y-94321900D01*
X155241147Y-94363667D01*
X155251187Y-94391866D01*
X155251551Y-94396322D01*
X155259546Y-94416006D01*
X155276492Y-94438655D01*
X155301063Y-94478599D01*
X155317023Y-94520866D01*
X155330195Y-94571666D01*
X155343010Y-94529333D01*
X155347398Y-94498617D01*
X155351349Y-94440704D01*
X155354566Y-94362267D01*
X155356755Y-94269974D01*
X155357512Y-94201746D01*
X155357396Y-94085442D01*
X155355280Y-93998483D01*
X155350864Y-93936392D01*
X155343849Y-93894691D01*
X155335417Y-93871546D01*
X155318281Y-93835664D01*
X155292981Y-93778516D01*
X155263974Y-93710263D01*
X155252553Y-93682666D01*
X155217837Y-93598463D01*
X155180073Y-93507452D01*
X155146565Y-93427224D01*
X155141836Y-93415966D01*
X155090199Y-93293200D01*
X155389799Y-93291559D01*
X155523869Y-93291030D01*
X155628042Y-93291199D01*
G36*
X154253947Y-96940569D02*
X154248897Y-96948265D01*
X154231722Y-96949463D01*
X154213654Y-96945327D01*
X154221491Y-96939232D01*
X154247956Y-96937213D01*
X154253947Y-96940569D01*
X154253947Y-96940569D01*
G37*
X154253947Y-96940569D02*
X154248897Y-96948265D01*
X154231722Y-96949463D01*
X154213654Y-96945327D01*
X154221491Y-96939232D01*
X154247956Y-96937213D01*
X154253947Y-96940569D01*
G36*
X153143851Y-94333044D02*
X153181005Y-94353275D01*
X153206589Y-94360000D01*
X153232659Y-94372842D01*
X153272134Y-94407243D01*
X153319004Y-94457013D01*
X153367260Y-94515962D01*
X153394933Y-94553965D01*
X153434760Y-94608452D01*
X153477403Y-94662506D01*
X153483354Y-94669620D01*
X153518331Y-94716738D01*
X153545532Y-94763166D01*
X153548908Y-94770633D01*
X153567058Y-94803737D01*
X153582819Y-94817199D01*
X153599366Y-94830765D01*
X153621405Y-94864137D01*
X153625294Y-94871405D01*
X153650765Y-94914814D01*
X153674747Y-94946982D01*
X153676225Y-94948510D01*
X153697752Y-94974232D01*
X153730338Y-95017703D01*
X153759882Y-95059405D01*
X153800386Y-95118082D01*
X153840145Y-95175708D01*
X153861493Y-95206666D01*
X153891271Y-95248833D01*
X153915135Y-95280884D01*
X153919573Y-95286385D01*
X153935165Y-95315060D01*
X153936800Y-95324485D01*
X153948445Y-95341511D01*
X153952592Y-95342133D01*
X153970333Y-95355965D01*
X153977805Y-95371766D01*
X153995369Y-95404878D01*
X154024690Y-95443697D01*
X154025513Y-95444631D01*
X154093498Y-95534388D01*
X154124930Y-95589755D01*
X154133423Y-95620358D01*
X154126592Y-95659126D01*
X154108826Y-95704055D01*
X154086860Y-95750270D01*
X154066412Y-95773411D01*
X154035485Y-95781461D01*
X153991082Y-95782400D01*
X153945363Y-95780851D01*
X153913628Y-95772146D01*
X153885390Y-95750197D01*
X153850164Y-95708915D01*
X153837964Y-95693500D01*
X153810119Y-95657518D01*
X153765163Y-95598653D01*
X153706291Y-95521125D01*
X153636700Y-95429153D01*
X153559586Y-95326956D01*
X153478144Y-95218755D01*
X153449975Y-95181266D01*
X153132016Y-94757933D01*
X152958675Y-94753107D01*
X152877840Y-94749927D01*
X152825600Y-94745180D01*
X152796692Y-94737968D01*
X152785850Y-94727389D01*
X152785333Y-94723474D01*
X152794666Y-94701322D01*
X152802267Y-94698666D01*
X152817523Y-94685055D01*
X152819200Y-94674677D01*
X152828524Y-94649393D01*
X152834863Y-94645044D01*
X152852822Y-94625488D01*
X152856030Y-94616496D01*
X152870545Y-94589394D01*
X152898943Y-94552891D01*
X152903867Y-94547406D01*
X152943285Y-94501582D01*
X152983939Y-94450331D01*
X152988533Y-94444200D01*
X153026047Y-94396110D01*
X153063141Y-94352136D01*
X153068117Y-94346634D01*
X153095854Y-94320157D01*
X153117111Y-94317221D01*
X153143851Y-94333044D01*
X153143851Y-94333044D01*
G37*
X153143851Y-94333044D02*
X153181005Y-94353275D01*
X153206589Y-94360000D01*
X153232659Y-94372842D01*
X153272134Y-94407243D01*
X153319004Y-94457013D01*
X153367260Y-94515962D01*
X153394933Y-94553965D01*
X153434760Y-94608452D01*
X153477403Y-94662506D01*
X153483354Y-94669620D01*
X153518331Y-94716738D01*
X153545532Y-94763166D01*
X153548908Y-94770633D01*
X153567058Y-94803737D01*
X153582819Y-94817199D01*
X153599366Y-94830765D01*
X153621405Y-94864137D01*
X153625294Y-94871405D01*
X153650765Y-94914814D01*
X153674747Y-94946982D01*
X153676225Y-94948510D01*
X153697752Y-94974232D01*
X153730338Y-95017703D01*
X153759882Y-95059405D01*
X153800386Y-95118082D01*
X153840145Y-95175708D01*
X153861493Y-95206666D01*
X153891271Y-95248833D01*
X153915135Y-95280884D01*
X153919573Y-95286385D01*
X153935165Y-95315060D01*
X153936800Y-95324485D01*
X153948445Y-95341511D01*
X153952592Y-95342133D01*
X153970333Y-95355965D01*
X153977805Y-95371766D01*
X153995369Y-95404878D01*
X154024690Y-95443697D01*
X154025513Y-95444631D01*
X154093498Y-95534388D01*
X154124930Y-95589755D01*
X154133423Y-95620358D01*
X154126592Y-95659126D01*
X154108826Y-95704055D01*
X154086860Y-95750270D01*
X154066412Y-95773411D01*
X154035485Y-95781461D01*
X153991082Y-95782400D01*
X153945363Y-95780851D01*
X153913628Y-95772146D01*
X153885390Y-95750197D01*
X153850164Y-95708915D01*
X153837964Y-95693500D01*
X153810119Y-95657518D01*
X153765163Y-95598653D01*
X153706291Y-95521125D01*
X153636700Y-95429153D01*
X153559586Y-95326956D01*
X153478144Y-95218755D01*
X153449975Y-95181266D01*
X153132016Y-94757933D01*
X152958675Y-94753107D01*
X152877840Y-94749927D01*
X152825600Y-94745180D01*
X152796692Y-94737968D01*
X152785850Y-94727389D01*
X152785333Y-94723474D01*
X152794666Y-94701322D01*
X152802267Y-94698666D01*
X152817523Y-94685055D01*
X152819200Y-94674677D01*
X152828524Y-94649393D01*
X152834863Y-94645044D01*
X152852822Y-94625488D01*
X152856030Y-94616496D01*
X152870545Y-94589394D01*
X152898943Y-94552891D01*
X152903867Y-94547406D01*
X152943285Y-94501582D01*
X152983939Y-94450331D01*
X152988533Y-94444200D01*
X153026047Y-94396110D01*
X153063141Y-94352136D01*
X153068117Y-94346634D01*
X153095854Y-94320157D01*
X153117111Y-94317221D01*
X153143851Y-94333044D01*
G36*
X153591259Y-93894075D02*
X153589666Y-93902800D01*
X153589833Y-93918454D01*
X153595079Y-93919733D01*
X153611833Y-93933730D01*
X153630793Y-93967665D01*
X153631824Y-93970107D01*
X153658433Y-94020316D01*
X153686147Y-94059007D01*
X153708428Y-94089406D01*
X153742306Y-94141228D01*
X153782656Y-94206451D01*
X153813534Y-94258400D01*
X153862494Y-94341054D01*
X153913790Y-94425627D01*
X153963159Y-94505283D01*
X154006337Y-94573186D01*
X154039060Y-94622502D01*
X154051189Y-94639399D01*
X154065987Y-94663240D01*
X154089793Y-94705863D01*
X154106272Y-94736766D01*
X154131925Y-94781586D01*
X154152810Y-94810785D01*
X154161137Y-94817199D01*
X154172445Y-94830972D01*
X154173866Y-94842599D01*
X154183538Y-94865126D01*
X154191799Y-94867999D01*
X154201912Y-94878373D01*
X154199266Y-94884933D01*
X154199132Y-94900600D01*
X154204162Y-94901866D01*
X154219822Y-94915896D01*
X154241203Y-94951225D01*
X154250066Y-94969599D01*
X154271587Y-95010735D01*
X154289910Y-95034771D01*
X154294972Y-95037333D01*
X154307724Y-95051085D01*
X154309333Y-95062733D01*
X154318477Y-95085267D01*
X154326266Y-95088133D01*
X154341825Y-95101598D01*
X154343200Y-95110340D01*
X154353939Y-95137926D01*
X154377726Y-95169607D01*
X154398546Y-95195348D01*
X154401424Y-95206644D01*
X154401053Y-95206666D01*
X154400615Y-95217113D01*
X154410508Y-95231553D01*
X154417259Y-95248497D01*
X154409427Y-95271998D01*
X154383775Y-95307925D01*
X154340614Y-95358159D01*
X154294670Y-95406008D01*
X154253859Y-95441871D01*
X154225519Y-95459465D01*
X154221338Y-95460272D01*
X154197219Y-95447291D01*
X154163268Y-95412979D01*
X154131776Y-95371766D01*
X154096869Y-95321154D01*
X154049214Y-95252595D01*
X153995587Y-95175816D01*
X153951898Y-95113533D01*
X153895210Y-95032807D01*
X153835776Y-94948026D01*
X153781733Y-94870802D01*
X153750217Y-94825666D01*
X153701044Y-94755360D01*
X153642680Y-94672249D01*
X153585534Y-94591145D01*
X153569356Y-94568251D01*
X153478995Y-94440123D01*
X153407038Y-94337209D01*
X153352019Y-94257297D01*
X153312468Y-94198180D01*
X153286918Y-94157647D01*
X153273898Y-94133490D01*
X153271943Y-94123499D01*
X153273377Y-94122933D01*
X153293359Y-94112134D01*
X153328749Y-94084197D01*
X153361067Y-94055200D01*
X153401534Y-94018743D01*
X153432191Y-93994153D01*
X153444088Y-93987466D01*
X153461355Y-93975309D01*
X153479600Y-93953600D01*
X153506504Y-93927369D01*
X153525671Y-93919733D01*
X153545693Y-93909245D01*
X153547333Y-93902800D01*
X153561116Y-93887939D01*
X153573733Y-93885866D01*
X153591259Y-93894075D01*
X153591259Y-93894075D01*
G37*
X153591259Y-93894075D02*
X153589666Y-93902800D01*
X153589833Y-93918454D01*
X153595079Y-93919733D01*
X153611833Y-93933730D01*
X153630793Y-93967665D01*
X153631824Y-93970107D01*
X153658433Y-94020316D01*
X153686147Y-94059007D01*
X153708428Y-94089406D01*
X153742306Y-94141228D01*
X153782656Y-94206451D01*
X153813534Y-94258400D01*
X153862494Y-94341054D01*
X153913790Y-94425627D01*
X153963159Y-94505283D01*
X154006337Y-94573186D01*
X154039060Y-94622502D01*
X154051189Y-94639399D01*
X154065987Y-94663240D01*
X154089793Y-94705863D01*
X154106272Y-94736766D01*
X154131925Y-94781586D01*
X154152810Y-94810785D01*
X154161137Y-94817199D01*
X154172445Y-94830972D01*
X154173866Y-94842599D01*
X154183538Y-94865126D01*
X154191799Y-94867999D01*
X154201912Y-94878373D01*
X154199266Y-94884933D01*
X154199132Y-94900600D01*
X154204162Y-94901866D01*
X154219822Y-94915896D01*
X154241203Y-94951225D01*
X154250066Y-94969599D01*
X154271587Y-95010735D01*
X154289910Y-95034771D01*
X154294972Y-95037333D01*
X154307724Y-95051085D01*
X154309333Y-95062733D01*
X154318477Y-95085267D01*
X154326266Y-95088133D01*
X154341825Y-95101598D01*
X154343200Y-95110340D01*
X154353939Y-95137926D01*
X154377726Y-95169607D01*
X154398546Y-95195348D01*
X154401424Y-95206644D01*
X154401053Y-95206666D01*
X154400615Y-95217113D01*
X154410508Y-95231553D01*
X154417259Y-95248497D01*
X154409427Y-95271998D01*
X154383775Y-95307925D01*
X154340614Y-95358159D01*
X154294670Y-95406008D01*
X154253859Y-95441871D01*
X154225519Y-95459465D01*
X154221338Y-95460272D01*
X154197219Y-95447291D01*
X154163268Y-95412979D01*
X154131776Y-95371766D01*
X154096869Y-95321154D01*
X154049214Y-95252595D01*
X153995587Y-95175816D01*
X153951898Y-95113533D01*
X153895210Y-95032807D01*
X153835776Y-94948026D01*
X153781733Y-94870802D01*
X153750217Y-94825666D01*
X153701044Y-94755360D01*
X153642680Y-94672249D01*
X153585534Y-94591145D01*
X153569356Y-94568251D01*
X153478995Y-94440123D01*
X153407038Y-94337209D01*
X153352019Y-94257297D01*
X153312468Y-94198180D01*
X153286918Y-94157647D01*
X153273898Y-94133490D01*
X153271943Y-94123499D01*
X153273377Y-94122933D01*
X153293359Y-94112134D01*
X153328749Y-94084197D01*
X153361067Y-94055200D01*
X153401534Y-94018743D01*
X153432191Y-93994153D01*
X153444088Y-93987466D01*
X153461355Y-93975309D01*
X153479600Y-93953600D01*
X153506504Y-93927369D01*
X153525671Y-93919733D01*
X153545693Y-93909245D01*
X153547333Y-93902800D01*
X153561116Y-93887939D01*
X153573733Y-93885866D01*
X153591259Y-93894075D01*
G36*
X154221891Y-93922640D02*
X154268755Y-94017493D01*
X154309940Y-94102730D01*
X154343171Y-94173485D01*
X154366170Y-94224889D01*
X154376662Y-94252077D01*
X154377066Y-94254401D01*
X154387865Y-94273903D01*
X154394000Y-94275333D01*
X154408234Y-94289354D01*
X154410933Y-94305813D01*
X154419033Y-94340697D01*
X154426689Y-94352380D01*
X154444571Y-94377622D01*
X154469909Y-94421729D01*
X154498662Y-94476505D01*
X154526792Y-94533751D01*
X154550259Y-94585269D01*
X154565024Y-94622864D01*
X154567475Y-94638080D01*
X154570874Y-94647021D01*
X154578444Y-94647866D01*
X154591615Y-94657183D01*
X154589456Y-94663629D01*
X154591805Y-94685247D01*
X154597968Y-94690674D01*
X154615912Y-94712573D01*
X154636927Y-94751054D01*
X154652933Y-94790722D01*
X154655488Y-94800266D01*
X154665218Y-94819027D01*
X154685310Y-94851066D01*
X154706231Y-94888037D01*
X154728754Y-94935552D01*
X154748780Y-94983683D01*
X154762208Y-95022501D01*
X154764938Y-95042080D01*
X154764420Y-95042626D01*
X154714397Y-95070847D01*
X154661881Y-95096866D01*
X154617789Y-95115590D01*
X154594188Y-95121999D01*
X154574248Y-95108005D01*
X154547057Y-95071759D01*
X154524887Y-95033099D01*
X154489681Y-94966742D01*
X154451334Y-94897995D01*
X154433827Y-94867999D01*
X154398188Y-94807087D01*
X154362609Y-94744300D01*
X154351475Y-94724066D01*
X154324808Y-94674985D01*
X154289351Y-94609743D01*
X154252492Y-94541934D01*
X154250244Y-94537799D01*
X154207882Y-94460699D01*
X154160870Y-94376372D01*
X154122871Y-94309200D01*
X154081008Y-94235501D01*
X154035919Y-94155390D01*
X154003657Y-94097533D01*
X153966813Y-94031267D01*
X153922406Y-93951750D01*
X153879508Y-93875227D01*
X153875970Y-93868933D01*
X153841888Y-93806821D01*
X153823270Y-93767101D01*
X153818159Y-93743122D01*
X153824601Y-93728232D01*
X153832581Y-93721344D01*
X153866575Y-93695154D01*
X153881052Y-93683244D01*
X153914424Y-93667246D01*
X153926207Y-93665733D01*
X153951868Y-93656151D01*
X153956555Y-93649183D01*
X153975502Y-93634619D01*
X154013385Y-93622438D01*
X154014457Y-93622221D01*
X154066715Y-93611810D01*
X154221891Y-93922640D01*
X154221891Y-93922640D01*
G37*
X154221891Y-93922640D02*
X154268755Y-94017493D01*
X154309940Y-94102730D01*
X154343171Y-94173485D01*
X154366170Y-94224889D01*
X154376662Y-94252077D01*
X154377066Y-94254401D01*
X154387865Y-94273903D01*
X154394000Y-94275333D01*
X154408234Y-94289354D01*
X154410933Y-94305813D01*
X154419033Y-94340697D01*
X154426689Y-94352380D01*
X154444571Y-94377622D01*
X154469909Y-94421729D01*
X154498662Y-94476505D01*
X154526792Y-94533751D01*
X154550259Y-94585269D01*
X154565024Y-94622864D01*
X154567475Y-94638080D01*
X154570874Y-94647021D01*
X154578444Y-94647866D01*
X154591615Y-94657183D01*
X154589456Y-94663629D01*
X154591805Y-94685247D01*
X154597968Y-94690674D01*
X154615912Y-94712573D01*
X154636927Y-94751054D01*
X154652933Y-94790722D01*
X154655488Y-94800266D01*
X154665218Y-94819027D01*
X154685310Y-94851066D01*
X154706231Y-94888037D01*
X154728754Y-94935552D01*
X154748780Y-94983683D01*
X154762208Y-95022501D01*
X154764938Y-95042080D01*
X154764420Y-95042626D01*
X154714397Y-95070847D01*
X154661881Y-95096866D01*
X154617789Y-95115590D01*
X154594188Y-95121999D01*
X154574248Y-95108005D01*
X154547057Y-95071759D01*
X154524887Y-95033099D01*
X154489681Y-94966742D01*
X154451334Y-94897995D01*
X154433827Y-94867999D01*
X154398188Y-94807087D01*
X154362609Y-94744300D01*
X154351475Y-94724066D01*
X154324808Y-94674985D01*
X154289351Y-94609743D01*
X154252492Y-94541934D01*
X154250244Y-94537799D01*
X154207882Y-94460699D01*
X154160870Y-94376372D01*
X154122871Y-94309200D01*
X154081008Y-94235501D01*
X154035919Y-94155390D01*
X154003657Y-94097533D01*
X153966813Y-94031267D01*
X153922406Y-93951750D01*
X153879508Y-93875227D01*
X153875970Y-93868933D01*
X153841888Y-93806821D01*
X153823270Y-93767101D01*
X153818159Y-93743122D01*
X153824601Y-93728232D01*
X153832581Y-93721344D01*
X153866575Y-93695154D01*
X153881052Y-93683244D01*
X153914424Y-93667246D01*
X153926207Y-93665733D01*
X153951868Y-93656151D01*
X153956555Y-93649183D01*
X153975502Y-93634619D01*
X154013385Y-93622438D01*
X154014457Y-93622221D01*
X154066715Y-93611810D01*
X154221891Y-93922640D01*
D12*
X124544381Y-55021905D02*
X125353905Y-55021905D01*
X125449143Y-54974286D01*
X125496762Y-54926667D01*
X125544381Y-54831429D01*
X125544381Y-54640952D01*
X125496762Y-54545714D01*
X125449143Y-54498095D01*
X125353905Y-54450476D01*
X124544381Y-54450476D01*
X124877714Y-53545714D02*
X125544381Y-53545714D01*
X124496762Y-53783810D02*
X125211048Y-54021905D01*
X125211048Y-53402857D01*
X98567143Y-59792857D02*
X98614762Y-59840476D01*
X98662381Y-59983333D01*
X98662381Y-60078571D01*
X98614762Y-60221429D01*
X98519524Y-60316667D01*
X98424286Y-60364286D01*
X98233810Y-60411905D01*
X98090952Y-60411905D01*
X97900476Y-60364286D01*
X97805238Y-60316667D01*
X97710000Y-60221429D01*
X97662381Y-60078571D01*
X97662381Y-59983333D01*
X97710000Y-59840476D01*
X97757619Y-59792857D01*
X97662381Y-59459524D02*
X97662381Y-58840476D01*
X98043333Y-59173810D01*
X98043333Y-59030952D01*
X98090952Y-58935714D01*
X98138571Y-58888095D01*
X98233810Y-58840476D01*
X98471905Y-58840476D01*
X98567143Y-58888095D01*
X98614762Y-58935714D01*
X98662381Y-59030952D01*
X98662381Y-59316667D01*
X98614762Y-59411905D01*
X98567143Y-59459524D01*
X97757619Y-58459524D02*
X97710000Y-58411905D01*
X97662381Y-58316667D01*
X97662381Y-58078571D01*
X97710000Y-57983333D01*
X97757619Y-57935714D01*
X97852857Y-57888095D01*
X97948095Y-57888095D01*
X98090952Y-57935714D01*
X98662381Y-58507143D01*
X98662381Y-57888095D01*
X94627143Y-59712857D02*
X94674762Y-59760476D01*
X94722381Y-59903333D01*
X94722381Y-59998571D01*
X94674762Y-60141429D01*
X94579524Y-60236667D01*
X94484286Y-60284286D01*
X94293810Y-60331905D01*
X94150952Y-60331905D01*
X93960476Y-60284286D01*
X93865238Y-60236667D01*
X93770000Y-60141429D01*
X93722381Y-59998571D01*
X93722381Y-59903333D01*
X93770000Y-59760476D01*
X93817619Y-59712857D01*
X93722381Y-59379524D02*
X93722381Y-58760476D01*
X94103333Y-59093810D01*
X94103333Y-58950952D01*
X94150952Y-58855714D01*
X94198571Y-58808095D01*
X94293810Y-58760476D01*
X94531905Y-58760476D01*
X94627143Y-58808095D01*
X94674762Y-58855714D01*
X94722381Y-58950952D01*
X94722381Y-59236667D01*
X94674762Y-59331905D01*
X94627143Y-59379524D01*
X93722381Y-58427143D02*
X93722381Y-57808095D01*
X94103333Y-58141429D01*
X94103333Y-57998571D01*
X94150952Y-57903333D01*
X94198571Y-57855714D01*
X94293810Y-57808095D01*
X94531905Y-57808095D01*
X94627143Y-57855714D01*
X94674762Y-57903333D01*
X94722381Y-57998571D01*
X94722381Y-58284286D01*
X94674762Y-58379524D01*
X94627143Y-58427143D01*
X83810953Y-40942381D02*
X83239524Y-40942381D01*
X83525238Y-40942381D02*
X83525238Y-39942381D01*
X83430000Y-40085238D01*
X83334762Y-40180476D01*
X83239524Y-40228095D01*
X84191905Y-40037619D02*
X84239524Y-39990000D01*
X84334762Y-39942381D01*
X84572858Y-39942381D01*
X84668096Y-39990000D01*
X84715715Y-40037619D01*
X84763334Y-40132857D01*
X84763334Y-40228095D01*
X84715715Y-40370952D01*
X84144286Y-40942381D01*
X84763334Y-40942381D01*
X85049048Y-39942381D02*
X85382381Y-40942381D01*
X85715715Y-39942381D01*
X90672381Y-43846666D02*
X90196190Y-44180000D01*
X90672381Y-44418095D02*
X89672381Y-44418095D01*
X89672381Y-44037142D01*
X89720000Y-43941904D01*
X89767619Y-43894285D01*
X89862857Y-43846666D01*
X90005714Y-43846666D01*
X90100952Y-43894285D01*
X90148571Y-43941904D01*
X90196190Y-44037142D01*
X90196190Y-44418095D01*
X89672381Y-43513333D02*
X89672381Y-42846666D01*
X90672381Y-43275238D01*
X151078095Y-53322381D02*
X151078095Y-54131905D01*
X151125714Y-54227143D01*
X151173333Y-54274762D01*
X151268571Y-54322381D01*
X151459048Y-54322381D01*
X151554286Y-54274762D01*
X151601905Y-54227143D01*
X151649524Y-54131905D01*
X151649524Y-53322381D01*
X152649524Y-54322381D02*
X152078095Y-54322381D01*
X152363809Y-54322381D02*
X152363809Y-53322381D01*
X152268571Y-53465238D01*
X152173333Y-53560476D01*
X152078095Y-53608095D01*
X116637143Y-54626666D02*
X116684762Y-54674285D01*
X116732381Y-54817142D01*
X116732381Y-54912380D01*
X116684762Y-55055238D01*
X116589524Y-55150476D01*
X116494286Y-55198095D01*
X116303810Y-55245714D01*
X116160952Y-55245714D01*
X115970476Y-55198095D01*
X115875238Y-55150476D01*
X115780000Y-55055238D01*
X115732381Y-54912380D01*
X115732381Y-54817142D01*
X115780000Y-54674285D01*
X115827619Y-54626666D01*
X116732381Y-53674285D02*
X116732381Y-54245714D01*
X116732381Y-53960000D02*
X115732381Y-53960000D01*
X115875238Y-54055238D01*
X115970476Y-54150476D01*
X116018095Y-54245714D01*
X122173334Y-48137143D02*
X122125715Y-48184762D01*
X121982858Y-48232381D01*
X121887620Y-48232381D01*
X121744762Y-48184762D01*
X121649524Y-48089524D01*
X121601905Y-47994286D01*
X121554286Y-47803810D01*
X121554286Y-47660952D01*
X121601905Y-47470476D01*
X121649524Y-47375238D01*
X121744762Y-47280000D01*
X121887620Y-47232381D01*
X121982858Y-47232381D01*
X122125715Y-47280000D01*
X122173334Y-47327619D01*
X122554286Y-47327619D02*
X122601905Y-47280000D01*
X122697143Y-47232381D01*
X122935239Y-47232381D01*
X123030477Y-47280000D01*
X123078096Y-47327619D01*
X123125715Y-47422857D01*
X123125715Y-47518095D01*
X123078096Y-47660952D01*
X122506667Y-48232381D01*
X123125715Y-48232381D01*
X159299524Y-108122381D02*
X158823333Y-108122381D01*
X158775714Y-108598571D01*
X158823333Y-108550952D01*
X158918571Y-108503333D01*
X159156667Y-108503333D01*
X159251905Y-108550952D01*
X159299524Y-108598571D01*
X159347143Y-108693810D01*
X159347143Y-108931905D01*
X159299524Y-109027143D01*
X159251905Y-109074762D01*
X159156667Y-109122381D01*
X158918571Y-109122381D01*
X158823333Y-109074762D01*
X158775714Y-109027143D01*
X159632857Y-108122381D02*
X159966190Y-109122381D01*
X160299524Y-108122381D01*
X159473334Y-101302381D02*
X159140000Y-100826190D01*
X158901905Y-101302381D02*
X158901905Y-100302381D01*
X159282858Y-100302381D01*
X159378096Y-100350000D01*
X159425715Y-100397619D01*
X159473334Y-100492857D01*
X159473334Y-100635714D01*
X159425715Y-100730952D01*
X159378096Y-100778571D01*
X159282858Y-100826190D01*
X158901905Y-100826190D01*
X160425715Y-101302381D02*
X159854286Y-101302381D01*
X160140000Y-101302381D02*
X160140000Y-100302381D01*
X160044762Y-100445238D01*
X159949524Y-100540476D01*
X159854286Y-100588095D01*
X160013334Y-64057143D02*
X159965715Y-64104762D01*
X159822858Y-64152381D01*
X159727620Y-64152381D01*
X159584762Y-64104762D01*
X159489524Y-64009524D01*
X159441905Y-63914286D01*
X159394286Y-63723810D01*
X159394286Y-63580952D01*
X159441905Y-63390476D01*
X159489524Y-63295238D01*
X159584762Y-63200000D01*
X159727620Y-63152381D01*
X159822858Y-63152381D01*
X159965715Y-63200000D01*
X160013334Y-63247619D01*
X160346667Y-63152381D02*
X160965715Y-63152381D01*
X160632381Y-63533333D01*
X160775239Y-63533333D01*
X160870477Y-63580952D01*
X160918096Y-63628571D01*
X160965715Y-63723810D01*
X160965715Y-63961905D01*
X160918096Y-64057143D01*
X160870477Y-64104762D01*
X160775239Y-64152381D01*
X160489524Y-64152381D01*
X160394286Y-64104762D01*
X160346667Y-64057143D01*
X138023334Y-58977143D02*
X137975715Y-59024762D01*
X137832858Y-59072381D01*
X137737620Y-59072381D01*
X137594762Y-59024762D01*
X137499524Y-58929524D01*
X137451905Y-58834286D01*
X137404286Y-58643810D01*
X137404286Y-58500952D01*
X137451905Y-58310476D01*
X137499524Y-58215238D01*
X137594762Y-58120000D01*
X137737620Y-58072381D01*
X137832858Y-58072381D01*
X137975715Y-58120000D01*
X138023334Y-58167619D01*
X138880477Y-58405714D02*
X138880477Y-59072381D01*
X138642381Y-58024762D02*
X138404286Y-58739048D01*
X139023334Y-58739048D01*
X138023334Y-56737143D02*
X137975715Y-56784762D01*
X137832858Y-56832381D01*
X137737620Y-56832381D01*
X137594762Y-56784762D01*
X137499524Y-56689524D01*
X137451905Y-56594286D01*
X137404286Y-56403810D01*
X137404286Y-56260952D01*
X137451905Y-56070476D01*
X137499524Y-55975238D01*
X137594762Y-55880000D01*
X137737620Y-55832381D01*
X137832858Y-55832381D01*
X137975715Y-55880000D01*
X138023334Y-55927619D01*
X138928096Y-55832381D02*
X138451905Y-55832381D01*
X138404286Y-56308571D01*
X138451905Y-56260952D01*
X138547143Y-56213333D01*
X138785239Y-56213333D01*
X138880477Y-56260952D01*
X138928096Y-56308571D01*
X138975715Y-56403810D01*
X138975715Y-56641905D01*
X138928096Y-56737143D01*
X138880477Y-56784762D01*
X138785239Y-56832381D01*
X138547143Y-56832381D01*
X138451905Y-56784762D01*
X138404286Y-56737143D01*
X107401905Y-56032381D02*
X107401905Y-56746667D01*
X107354285Y-56889524D01*
X107259047Y-56984762D01*
X107116190Y-57032381D01*
X107020952Y-57032381D01*
X107640000Y-57127619D02*
X108401905Y-57127619D01*
X108640000Y-56651429D02*
X109401905Y-56651429D01*
X109020953Y-57032381D02*
X109020953Y-56270476D01*
X110401905Y-57032381D02*
X109830476Y-57032381D01*
X110116190Y-57032381D02*
X110116190Y-56032381D01*
X110020952Y-56175238D01*
X109925714Y-56270476D01*
X109830476Y-56318095D01*
X110782857Y-56127619D02*
X110830476Y-56080000D01*
X110925714Y-56032381D01*
X111163810Y-56032381D01*
X111259048Y-56080000D01*
X111306667Y-56127619D01*
X111354286Y-56222857D01*
X111354286Y-56318095D01*
X111306667Y-56460952D01*
X110735238Y-57032381D01*
X111354286Y-57032381D01*
X111640000Y-56032381D02*
X111973333Y-57032381D01*
X112306667Y-56032381D01*
X131383334Y-51042381D02*
X131383334Y-51756667D01*
X131335714Y-51899524D01*
X131240476Y-51994762D01*
X131097619Y-52042381D01*
X131002381Y-52042381D01*
X131621429Y-52137619D02*
X132383334Y-52137619D01*
X132478572Y-51042381D02*
X132811905Y-52042381D01*
X133145239Y-51042381D01*
X133478572Y-52042381D02*
X133478572Y-51042381D01*
X133716667Y-51042381D01*
X133859525Y-51090000D01*
X133954763Y-51185238D01*
X134002382Y-51280476D01*
X134050001Y-51470952D01*
X134050001Y-51613810D01*
X134002382Y-51804286D01*
X133954763Y-51899524D01*
X133859525Y-51994762D01*
X133716667Y-52042381D01*
X133478572Y-52042381D01*
X134478572Y-52042381D02*
X134478572Y-51042381D01*
X134716667Y-51042381D01*
X134859525Y-51090000D01*
X134954763Y-51185238D01*
X135002382Y-51280476D01*
X135050001Y-51470952D01*
X135050001Y-51613810D01*
X135002382Y-51804286D01*
X134954763Y-51899524D01*
X134859525Y-51994762D01*
X134716667Y-52042381D01*
X134478572Y-52042381D01*
X135763334Y-61457143D02*
X135715715Y-61504762D01*
X135572858Y-61552381D01*
X135477620Y-61552381D01*
X135334762Y-61504762D01*
X135239524Y-61409524D01*
X135191905Y-61314286D01*
X135144286Y-61123810D01*
X135144286Y-60980952D01*
X135191905Y-60790476D01*
X135239524Y-60695238D01*
X135334762Y-60600000D01*
X135477620Y-60552381D01*
X135572858Y-60552381D01*
X135715715Y-60600000D01*
X135763334Y-60647619D01*
X136620477Y-60552381D02*
X136430000Y-60552381D01*
X136334762Y-60600000D01*
X136287143Y-60647619D01*
X136191905Y-60790476D01*
X136144286Y-60980952D01*
X136144286Y-61361905D01*
X136191905Y-61457143D01*
X136239524Y-61504762D01*
X136334762Y-61552381D01*
X136525239Y-61552381D01*
X136620477Y-61504762D01*
X136668096Y-61457143D01*
X136715715Y-61361905D01*
X136715715Y-61123810D01*
X136668096Y-61028571D01*
X136620477Y-60980952D01*
X136525239Y-60933333D01*
X136334762Y-60933333D01*
X136239524Y-60980952D01*
X136191905Y-61028571D01*
X136144286Y-61123810D01*
X135763334Y-63727143D02*
X135715715Y-63774762D01*
X135572858Y-63822381D01*
X135477620Y-63822381D01*
X135334762Y-63774762D01*
X135239524Y-63679524D01*
X135191905Y-63584286D01*
X135144286Y-63393810D01*
X135144286Y-63250952D01*
X135191905Y-63060476D01*
X135239524Y-62965238D01*
X135334762Y-62870000D01*
X135477620Y-62822381D01*
X135572858Y-62822381D01*
X135715715Y-62870000D01*
X135763334Y-62917619D01*
X136096667Y-62822381D02*
X136763334Y-62822381D01*
X136334762Y-63822381D01*
X132276667Y-43262381D02*
X132610000Y-44262381D01*
X132943334Y-43262381D01*
X133276667Y-44262381D02*
X133276667Y-43262381D01*
X133514762Y-43262381D01*
X133657620Y-43310000D01*
X133752858Y-43405238D01*
X133800477Y-43500476D01*
X133848096Y-43690952D01*
X133848096Y-43833810D01*
X133800477Y-44024286D01*
X133752858Y-44119524D01*
X133657620Y-44214762D01*
X133514762Y-44262381D01*
X133276667Y-44262381D01*
X134276667Y-44262381D02*
X134276667Y-43262381D01*
X134514762Y-43262381D01*
X134657620Y-43310000D01*
X134752858Y-43405238D01*
X134800477Y-43500476D01*
X134848096Y-43690952D01*
X134848096Y-43833810D01*
X134800477Y-44024286D01*
X134752858Y-44119524D01*
X134657620Y-44214762D01*
X134514762Y-44262381D01*
X134276667Y-44262381D01*
X132143334Y-44712381D02*
X131810000Y-44236190D01*
X131571905Y-44712381D02*
X131571905Y-43712381D01*
X131952858Y-43712381D01*
X132048096Y-43760000D01*
X132095715Y-43807619D01*
X132143334Y-43902857D01*
X132143334Y-44045714D01*
X132095715Y-44140952D01*
X132048096Y-44188571D01*
X131952858Y-44236190D01*
X131571905Y-44236190D01*
X132524286Y-43807619D02*
X132571905Y-43760000D01*
X132667143Y-43712381D01*
X132905239Y-43712381D01*
X133000477Y-43760000D01*
X133048096Y-43807619D01*
X133095715Y-43902857D01*
X133095715Y-43998095D01*
X133048096Y-44140952D01*
X132476667Y-44712381D01*
X133095715Y-44712381D01*
X174266410Y-59251381D02*
X173933076Y-58775190D01*
X173694981Y-59251381D02*
X173694981Y-58251381D01*
X174075934Y-58251381D01*
X174171172Y-58299000D01*
X174218791Y-58346619D01*
X174266410Y-58441857D01*
X174266410Y-58584714D01*
X174218791Y-58679952D01*
X174171172Y-58727571D01*
X174075934Y-58775190D01*
X173694981Y-58775190D01*
X174694981Y-58727571D02*
X175028315Y-58727571D01*
X175171172Y-59251381D02*
X174694981Y-59251381D01*
X174694981Y-58251381D01*
X175171172Y-58251381D01*
X176075934Y-59251381D02*
X175599743Y-59251381D01*
X175599743Y-58251381D01*
X176409267Y-58727571D02*
X176742601Y-58727571D01*
X176885458Y-59251381D02*
X176409267Y-59251381D01*
X176409267Y-58251381D01*
X176885458Y-58251381D01*
X177266410Y-58346619D02*
X177314029Y-58299000D01*
X177409267Y-58251381D01*
X177647363Y-58251381D01*
X177742601Y-58299000D01*
X177790220Y-58346619D01*
X177837839Y-58441857D01*
X177837839Y-58537095D01*
X177790220Y-58679952D01*
X177218791Y-59251381D01*
X177837839Y-59251381D01*
X169990000Y-54552381D02*
X169990000Y-53552381D01*
X170466190Y-54552381D02*
X170466190Y-53552381D01*
X171037619Y-54552381D01*
X171037619Y-53552381D01*
X172037619Y-54552381D02*
X171466190Y-54552381D01*
X171751904Y-54552381D02*
X171751904Y-53552381D01*
X171656666Y-53695238D01*
X171561428Y-53790476D01*
X171466190Y-53838095D01*
X170228096Y-56140000D02*
X170132858Y-56092381D01*
X169990001Y-56092381D01*
X169847143Y-56140000D01*
X169751905Y-56235238D01*
X169704286Y-56330476D01*
X169656667Y-56520952D01*
X169656667Y-56663810D01*
X169704286Y-56854286D01*
X169751905Y-56949524D01*
X169847143Y-57044762D01*
X169990001Y-57092381D01*
X170085239Y-57092381D01*
X170228096Y-57044762D01*
X170275715Y-56997143D01*
X170275715Y-56663810D01*
X170085239Y-56663810D01*
X170704286Y-57092381D02*
X170704286Y-56092381D01*
X171275715Y-57092381D01*
X171275715Y-56092381D01*
X171751905Y-57092381D02*
X171751905Y-56092381D01*
X171990000Y-56092381D01*
X172132858Y-56140000D01*
X172228096Y-56235238D01*
X172275715Y-56330476D01*
X172323334Y-56520952D01*
X172323334Y-56663810D01*
X172275715Y-56854286D01*
X172228096Y-56949524D01*
X172132858Y-57044762D01*
X171990000Y-57092381D01*
X171751905Y-57092381D01*
X169990000Y-52012381D02*
X169990000Y-51012381D01*
X170466190Y-52012381D02*
X170466190Y-51012381D01*
X171037619Y-52012381D01*
X171037619Y-51012381D01*
X171466190Y-51107619D02*
X171513809Y-51060000D01*
X171609047Y-51012381D01*
X171847143Y-51012381D01*
X171942381Y-51060000D01*
X171990000Y-51107619D01*
X172037619Y-51202857D01*
X172037619Y-51298095D01*
X171990000Y-51440952D01*
X171418571Y-52012381D01*
X172037619Y-52012381D01*
X169990000Y-49472381D02*
X169990000Y-48472381D01*
X170466190Y-49472381D02*
X170466190Y-48472381D01*
X171037619Y-49472381D01*
X171037619Y-48472381D01*
X171418571Y-48472381D02*
X172037619Y-48472381D01*
X171704285Y-48853333D01*
X171847143Y-48853333D01*
X171942381Y-48900952D01*
X171990000Y-48948571D01*
X172037619Y-49043810D01*
X172037619Y-49281905D01*
X171990000Y-49377143D01*
X171942381Y-49424762D01*
X171847143Y-49472381D01*
X171561428Y-49472381D01*
X171466190Y-49424762D01*
X171418571Y-49377143D01*
X169990000Y-46932381D02*
X169990000Y-45932381D01*
X170466190Y-46932381D02*
X170466190Y-45932381D01*
X171037619Y-46932381D01*
X171037619Y-45932381D01*
X171942381Y-46265714D02*
X171942381Y-46932381D01*
X171704285Y-45884762D02*
X171466190Y-46599048D01*
X172085238Y-46599048D01*
X169990000Y-44392381D02*
X169990000Y-43392381D01*
X170466190Y-44392381D02*
X170466190Y-43392381D01*
X171037619Y-44392381D01*
X171037619Y-43392381D01*
X171990000Y-43392381D02*
X171513809Y-43392381D01*
X171466190Y-43868571D01*
X171513809Y-43820952D01*
X171609047Y-43773333D01*
X171847143Y-43773333D01*
X171942381Y-43820952D01*
X171990000Y-43868571D01*
X172037619Y-43963810D01*
X172037619Y-44201905D01*
X171990000Y-44297143D01*
X171942381Y-44344762D01*
X171847143Y-44392381D01*
X171609047Y-44392381D01*
X171513809Y-44344762D01*
X171466190Y-44297143D01*
X169990000Y-41852381D02*
X169990000Y-40852381D01*
X170466190Y-41852381D02*
X170466190Y-40852381D01*
X171037619Y-41852381D01*
X171037619Y-40852381D01*
X171942381Y-40852381D02*
X171751904Y-40852381D01*
X171656666Y-40900000D01*
X171609047Y-40947619D01*
X171513809Y-41090476D01*
X171466190Y-41280952D01*
X171466190Y-41661905D01*
X171513809Y-41757143D01*
X171561428Y-41804762D01*
X171656666Y-41852381D01*
X171847143Y-41852381D01*
X171942381Y-41804762D01*
X171990000Y-41757143D01*
X172037619Y-41661905D01*
X172037619Y-41423810D01*
X171990000Y-41328571D01*
X171942381Y-41280952D01*
X171847143Y-41233333D01*
X171656666Y-41233333D01*
X171561428Y-41280952D01*
X171513809Y-41328571D01*
X171466190Y-41423810D01*
X169990000Y-39312381D02*
X169990000Y-38312381D01*
X170466190Y-39312381D02*
X170466190Y-38312381D01*
X171037619Y-39312381D01*
X171037619Y-38312381D01*
X171418571Y-38312381D02*
X172085238Y-38312381D01*
X171656666Y-39312381D01*
X169990000Y-36772381D02*
X169990000Y-35772381D01*
X170466190Y-36772381D02*
X170466190Y-35772381D01*
X171037619Y-36772381D01*
X171037619Y-35772381D01*
X171656666Y-36200952D02*
X171561428Y-36153333D01*
X171513809Y-36105714D01*
X171466190Y-36010476D01*
X171466190Y-35962857D01*
X171513809Y-35867619D01*
X171561428Y-35820000D01*
X171656666Y-35772381D01*
X171847143Y-35772381D01*
X171942381Y-35820000D01*
X171990000Y-35867619D01*
X172037619Y-35962857D01*
X172037619Y-36010476D01*
X171990000Y-36105714D01*
X171942381Y-36153333D01*
X171847143Y-36200952D01*
X171656666Y-36200952D01*
X171561428Y-36248571D01*
X171513809Y-36296190D01*
X171466190Y-36391429D01*
X171466190Y-36581905D01*
X171513809Y-36677143D01*
X171561428Y-36724762D01*
X171656666Y-36772381D01*
X171847143Y-36772381D01*
X171942381Y-36724762D01*
X171990000Y-36677143D01*
X172037619Y-36581905D01*
X172037619Y-36391429D01*
X171990000Y-36296190D01*
X171942381Y-36248571D01*
X171847143Y-36200952D01*
X169656667Y-33232381D02*
X169990000Y-34232381D01*
X170323334Y-33232381D01*
X170656667Y-34232381D02*
X170656667Y-33232381D01*
X170894762Y-33232381D01*
X171037620Y-33280000D01*
X171132858Y-33375238D01*
X171180477Y-33470476D01*
X171228096Y-33660952D01*
X171228096Y-33803810D01*
X171180477Y-33994286D01*
X171132858Y-34089524D01*
X171037620Y-34184762D01*
X170894762Y-34232381D01*
X170656667Y-34232381D01*
X171656667Y-34232381D02*
X171656667Y-33232381D01*
X171894762Y-33232381D01*
X172037620Y-33280000D01*
X172132858Y-33375238D01*
X172180477Y-33470476D01*
X172228096Y-33660952D01*
X172228096Y-33803810D01*
X172180477Y-33994286D01*
X172132858Y-34089524D01*
X172037620Y-34184762D01*
X171894762Y-34232381D01*
X171656667Y-34232381D01*
X173681210Y-78833381D02*
X173347876Y-78357190D01*
X173109781Y-78833381D02*
X173109781Y-77833381D01*
X173490734Y-77833381D01*
X173585972Y-77881000D01*
X173633591Y-77928619D01*
X173681210Y-78023857D01*
X173681210Y-78166714D01*
X173633591Y-78261952D01*
X173585972Y-78309571D01*
X173490734Y-78357190D01*
X173109781Y-78357190D01*
X174109781Y-78309571D02*
X174443115Y-78309571D01*
X174585972Y-78833381D02*
X174109781Y-78833381D01*
X174109781Y-77833381D01*
X174585972Y-77833381D01*
X175490734Y-78833381D02*
X175014543Y-78833381D01*
X175014543Y-77833381D01*
X175824067Y-78309571D02*
X176157401Y-78309571D01*
X176300258Y-78833381D02*
X175824067Y-78833381D01*
X175824067Y-77833381D01*
X176300258Y-77833381D01*
X177252639Y-78833381D02*
X176681210Y-78833381D01*
X176966924Y-78833381D02*
X176966924Y-77833381D01*
X176871686Y-77976238D01*
X176776448Y-78071476D01*
X176681210Y-78119095D01*
X170910000Y-83532381D02*
X170910000Y-82532381D01*
X171386190Y-83532381D02*
X171386190Y-82532381D01*
X171957619Y-83532381D01*
X171957619Y-82532381D01*
X172957619Y-83532381D02*
X172386190Y-83532381D01*
X172671904Y-83532381D02*
X172671904Y-82532381D01*
X172576666Y-82675238D01*
X172481428Y-82770476D01*
X172386190Y-82818095D01*
X171148096Y-80040000D02*
X171052858Y-79992381D01*
X170910001Y-79992381D01*
X170767143Y-80040000D01*
X170671905Y-80135238D01*
X170624286Y-80230476D01*
X170576667Y-80420952D01*
X170576667Y-80563810D01*
X170624286Y-80754286D01*
X170671905Y-80849524D01*
X170767143Y-80944762D01*
X170910001Y-80992381D01*
X171005239Y-80992381D01*
X171148096Y-80944762D01*
X171195715Y-80897143D01*
X171195715Y-80563810D01*
X171005239Y-80563810D01*
X171624286Y-80992381D02*
X171624286Y-79992381D01*
X172195715Y-80992381D01*
X172195715Y-79992381D01*
X172671905Y-80992381D02*
X172671905Y-79992381D01*
X172910000Y-79992381D01*
X173052858Y-80040000D01*
X173148096Y-80135238D01*
X173195715Y-80230476D01*
X173243334Y-80420952D01*
X173243334Y-80563810D01*
X173195715Y-80754286D01*
X173148096Y-80849524D01*
X173052858Y-80944762D01*
X172910000Y-80992381D01*
X172671905Y-80992381D01*
X170910000Y-86072381D02*
X170910000Y-85072381D01*
X171386190Y-86072381D02*
X171386190Y-85072381D01*
X171957619Y-86072381D01*
X171957619Y-85072381D01*
X172386190Y-85167619D02*
X172433809Y-85120000D01*
X172529047Y-85072381D01*
X172767143Y-85072381D01*
X172862381Y-85120000D01*
X172910000Y-85167619D01*
X172957619Y-85262857D01*
X172957619Y-85358095D01*
X172910000Y-85500952D01*
X172338571Y-86072381D01*
X172957619Y-86072381D01*
X170910000Y-88612381D02*
X170910000Y-87612381D01*
X171386190Y-88612381D02*
X171386190Y-87612381D01*
X171957619Y-88612381D01*
X171957619Y-87612381D01*
X172338571Y-87612381D02*
X172957619Y-87612381D01*
X172624285Y-87993333D01*
X172767143Y-87993333D01*
X172862381Y-88040952D01*
X172910000Y-88088571D01*
X172957619Y-88183810D01*
X172957619Y-88421905D01*
X172910000Y-88517143D01*
X172862381Y-88564762D01*
X172767143Y-88612381D01*
X172481428Y-88612381D01*
X172386190Y-88564762D01*
X172338571Y-88517143D01*
X170910000Y-91152381D02*
X170910000Y-90152381D01*
X171386190Y-91152381D02*
X171386190Y-90152381D01*
X171957619Y-91152381D01*
X171957619Y-90152381D01*
X172862381Y-90485714D02*
X172862381Y-91152381D01*
X172624285Y-90104762D02*
X172386190Y-90819048D01*
X173005238Y-90819048D01*
X170910000Y-93692381D02*
X170910000Y-92692381D01*
X171386190Y-93692381D02*
X171386190Y-92692381D01*
X171957619Y-93692381D01*
X171957619Y-92692381D01*
X172910000Y-92692381D02*
X172433809Y-92692381D01*
X172386190Y-93168571D01*
X172433809Y-93120952D01*
X172529047Y-93073333D01*
X172767143Y-93073333D01*
X172862381Y-93120952D01*
X172910000Y-93168571D01*
X172957619Y-93263810D01*
X172957619Y-93501905D01*
X172910000Y-93597143D01*
X172862381Y-93644762D01*
X172767143Y-93692381D01*
X172529047Y-93692381D01*
X172433809Y-93644762D01*
X172386190Y-93597143D01*
X170910000Y-96232381D02*
X170910000Y-95232381D01*
X171386190Y-96232381D02*
X171386190Y-95232381D01*
X171957619Y-96232381D01*
X171957619Y-95232381D01*
X172862381Y-95232381D02*
X172671904Y-95232381D01*
X172576666Y-95280000D01*
X172529047Y-95327619D01*
X172433809Y-95470476D01*
X172386190Y-95660952D01*
X172386190Y-96041905D01*
X172433809Y-96137143D01*
X172481428Y-96184762D01*
X172576666Y-96232381D01*
X172767143Y-96232381D01*
X172862381Y-96184762D01*
X172910000Y-96137143D01*
X172957619Y-96041905D01*
X172957619Y-95803810D01*
X172910000Y-95708571D01*
X172862381Y-95660952D01*
X172767143Y-95613333D01*
X172576666Y-95613333D01*
X172481428Y-95660952D01*
X172433809Y-95708571D01*
X172386190Y-95803810D01*
X170910000Y-98772381D02*
X170910000Y-97772381D01*
X171386190Y-98772381D02*
X171386190Y-97772381D01*
X171957619Y-98772381D01*
X171957619Y-97772381D01*
X172338571Y-97772381D02*
X173005238Y-97772381D01*
X172576666Y-98772381D01*
X170910000Y-101312381D02*
X170910000Y-100312381D01*
X171386190Y-101312381D02*
X171386190Y-100312381D01*
X171957619Y-101312381D01*
X171957619Y-100312381D01*
X172576666Y-100740952D02*
X172481428Y-100693333D01*
X172433809Y-100645714D01*
X172386190Y-100550476D01*
X172386190Y-100502857D01*
X172433809Y-100407619D01*
X172481428Y-100360000D01*
X172576666Y-100312381D01*
X172767143Y-100312381D01*
X172862381Y-100360000D01*
X172910000Y-100407619D01*
X172957619Y-100502857D01*
X172957619Y-100550476D01*
X172910000Y-100645714D01*
X172862381Y-100693333D01*
X172767143Y-100740952D01*
X172576666Y-100740952D01*
X172481428Y-100788571D01*
X172433809Y-100836190D01*
X172386190Y-100931429D01*
X172386190Y-101121905D01*
X172433809Y-101217143D01*
X172481428Y-101264762D01*
X172576666Y-101312381D01*
X172767143Y-101312381D01*
X172862381Y-101264762D01*
X172910000Y-101217143D01*
X172957619Y-101121905D01*
X172957619Y-100931429D01*
X172910000Y-100836190D01*
X172862381Y-100788571D01*
X172767143Y-100740952D01*
X170576667Y-102852381D02*
X170910000Y-103852381D01*
X171243334Y-102852381D01*
X171576667Y-103852381D02*
X171576667Y-102852381D01*
X171814762Y-102852381D01*
X171957620Y-102900000D01*
X172052858Y-102995238D01*
X172100477Y-103090476D01*
X172148096Y-103280952D01*
X172148096Y-103423810D01*
X172100477Y-103614286D01*
X172052858Y-103709524D01*
X171957620Y-103804762D01*
X171814762Y-103852381D01*
X171576667Y-103852381D01*
X172576667Y-103852381D02*
X172576667Y-102852381D01*
X172814762Y-102852381D01*
X172957620Y-102900000D01*
X173052858Y-102995238D01*
X173100477Y-103090476D01*
X173148096Y-103280952D01*
X173148096Y-103423810D01*
X173100477Y-103614286D01*
X173052858Y-103709524D01*
X172957620Y-103804762D01*
X172814762Y-103852381D01*
X172576667Y-103852381D01*
X104752381Y-27486190D02*
X104276190Y-27819524D01*
X104752381Y-28057619D02*
X103752381Y-28057619D01*
X103752381Y-27676666D01*
X103800000Y-27581428D01*
X103847619Y-27533809D01*
X103942857Y-27486190D01*
X104085714Y-27486190D01*
X104180952Y-27533809D01*
X104228571Y-27581428D01*
X104276190Y-27676666D01*
X104276190Y-28057619D01*
X104228571Y-27057619D02*
X104228571Y-26724285D01*
X104752381Y-26581428D02*
X104752381Y-27057619D01*
X103752381Y-27057619D01*
X103752381Y-26581428D01*
X104752381Y-25676666D02*
X104752381Y-26152857D01*
X103752381Y-26152857D01*
X104228571Y-25343333D02*
X104228571Y-25009999D01*
X104752381Y-24867142D02*
X104752381Y-25343333D01*
X103752381Y-25343333D01*
X103752381Y-24867142D01*
X103752381Y-24533809D02*
X103752381Y-23914761D01*
X104133333Y-24248095D01*
X104133333Y-24105237D01*
X104180952Y-24009999D01*
X104228571Y-23962380D01*
X104323810Y-23914761D01*
X104561905Y-23914761D01*
X104657143Y-23962380D01*
X104704762Y-24009999D01*
X104752381Y-24105237D01*
X104752381Y-24390952D01*
X104704762Y-24486190D01*
X104657143Y-24533809D01*
X109782381Y-30530000D02*
X108782381Y-30530000D01*
X109782381Y-30053810D02*
X108782381Y-30053810D01*
X109782381Y-29482381D01*
X108782381Y-29482381D01*
X109782381Y-28482381D02*
X109782381Y-29053810D01*
X109782381Y-28768096D02*
X108782381Y-28768096D01*
X108925238Y-28863334D01*
X109020476Y-28958572D01*
X109068095Y-29053810D01*
X106290000Y-30291904D02*
X106242381Y-30387142D01*
X106242381Y-30529999D01*
X106290000Y-30672857D01*
X106385238Y-30768095D01*
X106480476Y-30815714D01*
X106670952Y-30863333D01*
X106813810Y-30863333D01*
X107004286Y-30815714D01*
X107099524Y-30768095D01*
X107194762Y-30672857D01*
X107242381Y-30529999D01*
X107242381Y-30434761D01*
X107194762Y-30291904D01*
X107147143Y-30244285D01*
X106813810Y-30244285D01*
X106813810Y-30434761D01*
X107242381Y-29815714D02*
X106242381Y-29815714D01*
X107242381Y-29244285D01*
X106242381Y-29244285D01*
X107242381Y-28768095D02*
X106242381Y-28768095D01*
X106242381Y-28530000D01*
X106290000Y-28387142D01*
X106385238Y-28291904D01*
X106480476Y-28244285D01*
X106670952Y-28196666D01*
X106813810Y-28196666D01*
X107004286Y-28244285D01*
X107099524Y-28291904D01*
X107194762Y-28387142D01*
X107242381Y-28530000D01*
X107242381Y-28768095D01*
X112322381Y-30530000D02*
X111322381Y-30530000D01*
X112322381Y-30053810D02*
X111322381Y-30053810D01*
X112322381Y-29482381D01*
X111322381Y-29482381D01*
X111417619Y-29053810D02*
X111370000Y-29006191D01*
X111322381Y-28910953D01*
X111322381Y-28672857D01*
X111370000Y-28577619D01*
X111417619Y-28530000D01*
X111512857Y-28482381D01*
X111608095Y-28482381D01*
X111750952Y-28530000D01*
X112322381Y-29101429D01*
X112322381Y-28482381D01*
X114862381Y-30530000D02*
X113862381Y-30530000D01*
X114862381Y-30053810D02*
X113862381Y-30053810D01*
X114862381Y-29482381D01*
X113862381Y-29482381D01*
X113862381Y-29101429D02*
X113862381Y-28482381D01*
X114243333Y-28815715D01*
X114243333Y-28672857D01*
X114290952Y-28577619D01*
X114338571Y-28530000D01*
X114433810Y-28482381D01*
X114671905Y-28482381D01*
X114767143Y-28530000D01*
X114814762Y-28577619D01*
X114862381Y-28672857D01*
X114862381Y-28958572D01*
X114814762Y-29053810D01*
X114767143Y-29101429D01*
X117402381Y-30530000D02*
X116402381Y-30530000D01*
X117402381Y-30053810D02*
X116402381Y-30053810D01*
X117402381Y-29482381D01*
X116402381Y-29482381D01*
X116735714Y-28577619D02*
X117402381Y-28577619D01*
X116354762Y-28815715D02*
X117069048Y-29053810D01*
X117069048Y-28434762D01*
X119942381Y-30530000D02*
X118942381Y-30530000D01*
X119942381Y-30053810D02*
X118942381Y-30053810D01*
X119942381Y-29482381D01*
X118942381Y-29482381D01*
X118942381Y-28530000D02*
X118942381Y-29006191D01*
X119418571Y-29053810D01*
X119370952Y-29006191D01*
X119323333Y-28910953D01*
X119323333Y-28672857D01*
X119370952Y-28577619D01*
X119418571Y-28530000D01*
X119513810Y-28482381D01*
X119751905Y-28482381D01*
X119847143Y-28530000D01*
X119894762Y-28577619D01*
X119942381Y-28672857D01*
X119942381Y-28910953D01*
X119894762Y-29006191D01*
X119847143Y-29053810D01*
X122482381Y-30530000D02*
X121482381Y-30530000D01*
X122482381Y-30053810D02*
X121482381Y-30053810D01*
X122482381Y-29482381D01*
X121482381Y-29482381D01*
X121482381Y-28577619D02*
X121482381Y-28768096D01*
X121530000Y-28863334D01*
X121577619Y-28910953D01*
X121720476Y-29006191D01*
X121910952Y-29053810D01*
X122291905Y-29053810D01*
X122387143Y-29006191D01*
X122434762Y-28958572D01*
X122482381Y-28863334D01*
X122482381Y-28672857D01*
X122434762Y-28577619D01*
X122387143Y-28530000D01*
X122291905Y-28482381D01*
X122053810Y-28482381D01*
X121958571Y-28530000D01*
X121910952Y-28577619D01*
X121863333Y-28672857D01*
X121863333Y-28863334D01*
X121910952Y-28958572D01*
X121958571Y-29006191D01*
X122053810Y-29053810D01*
X125022381Y-30530000D02*
X124022381Y-30530000D01*
X125022381Y-30053810D02*
X124022381Y-30053810D01*
X125022381Y-29482381D01*
X124022381Y-29482381D01*
X124022381Y-29101429D02*
X124022381Y-28434762D01*
X125022381Y-28863334D01*
X127562381Y-30530000D02*
X126562381Y-30530000D01*
X127562381Y-30053810D02*
X126562381Y-30053810D01*
X127562381Y-29482381D01*
X126562381Y-29482381D01*
X126990952Y-28863334D02*
X126943333Y-28958572D01*
X126895714Y-29006191D01*
X126800476Y-29053810D01*
X126752857Y-29053810D01*
X126657619Y-29006191D01*
X126610000Y-28958572D01*
X126562381Y-28863334D01*
X126562381Y-28672857D01*
X126610000Y-28577619D01*
X126657619Y-28530000D01*
X126752857Y-28482381D01*
X126800476Y-28482381D01*
X126895714Y-28530000D01*
X126943333Y-28577619D01*
X126990952Y-28672857D01*
X126990952Y-28863334D01*
X127038571Y-28958572D01*
X127086190Y-29006191D01*
X127181429Y-29053810D01*
X127371905Y-29053810D01*
X127467143Y-29006191D01*
X127514762Y-28958572D01*
X127562381Y-28863334D01*
X127562381Y-28672857D01*
X127514762Y-28577619D01*
X127467143Y-28530000D01*
X127371905Y-28482381D01*
X127181429Y-28482381D01*
X127086190Y-28530000D01*
X127038571Y-28577619D01*
X126990952Y-28672857D01*
X129102381Y-30863333D02*
X130102381Y-30530000D01*
X129102381Y-30196666D01*
X130102381Y-29863333D02*
X129102381Y-29863333D01*
X129102381Y-29625238D01*
X129150000Y-29482380D01*
X129245238Y-29387142D01*
X129340476Y-29339523D01*
X129530952Y-29291904D01*
X129673810Y-29291904D01*
X129864286Y-29339523D01*
X129959524Y-29387142D01*
X130054762Y-29482380D01*
X130102381Y-29625238D01*
X130102381Y-29863333D01*
X130102381Y-28863333D02*
X129102381Y-28863333D01*
X129102381Y-28625238D01*
X129150000Y-28482380D01*
X129245238Y-28387142D01*
X129340476Y-28339523D01*
X129530952Y-28291904D01*
X129673810Y-28291904D01*
X129864286Y-28339523D01*
X129959524Y-28387142D01*
X130054762Y-28482380D01*
X130102381Y-28625238D01*
X130102381Y-28863333D01*
X175346191Y-76974762D02*
X175489048Y-77022381D01*
X175727144Y-77022381D01*
X175822382Y-76974762D01*
X175870001Y-76927143D01*
X175917620Y-76831905D01*
X175917620Y-76736667D01*
X175870001Y-76641429D01*
X175822382Y-76593810D01*
X175727144Y-76546190D01*
X175536667Y-76498571D01*
X175441429Y-76450952D01*
X175393810Y-76403333D01*
X175346191Y-76308095D01*
X175346191Y-76212857D01*
X175393810Y-76117619D01*
X175441429Y-76070000D01*
X175536667Y-76022381D01*
X175774763Y-76022381D01*
X175917620Y-76070000D01*
X176346191Y-77022381D02*
X176346191Y-76022381D01*
X176727144Y-76022381D01*
X176822382Y-76070000D01*
X176870001Y-76117619D01*
X176917620Y-76212857D01*
X176917620Y-76355714D01*
X176870001Y-76450952D01*
X176822382Y-76498571D01*
X176727144Y-76546190D01*
X176346191Y-76546190D01*
X177346191Y-77022381D02*
X177346191Y-76022381D01*
X173208095Y-74454762D02*
X173350952Y-74502381D01*
X173589048Y-74502381D01*
X173684286Y-74454762D01*
X173731905Y-74407143D01*
X173779524Y-74311905D01*
X173779524Y-74216667D01*
X173731905Y-74121429D01*
X173684286Y-74073810D01*
X173589048Y-74026190D01*
X173398571Y-73978571D01*
X173303333Y-73930952D01*
X173255714Y-73883333D01*
X173208095Y-73788095D01*
X173208095Y-73692857D01*
X173255714Y-73597619D01*
X173303333Y-73550000D01*
X173398571Y-73502381D01*
X173636667Y-73502381D01*
X173779524Y-73550000D01*
X174160476Y-74454762D02*
X174303333Y-74502381D01*
X174541429Y-74502381D01*
X174636667Y-74454762D01*
X174684286Y-74407143D01*
X174731905Y-74311905D01*
X174731905Y-74216667D01*
X174684286Y-74121429D01*
X174636667Y-74073810D01*
X174541429Y-74026190D01*
X174350952Y-73978571D01*
X174255714Y-73930952D01*
X174208095Y-73883333D01*
X174160476Y-73788095D01*
X174160476Y-73692857D01*
X174208095Y-73597619D01*
X174255714Y-73550000D01*
X174350952Y-73502381D01*
X174589048Y-73502381D01*
X174731905Y-73550000D01*
X171698572Y-71962381D02*
X171698572Y-70962381D01*
X172031906Y-71676667D01*
X172365239Y-70962381D01*
X172365239Y-71962381D01*
X173031905Y-70962381D02*
X173222382Y-70962381D01*
X173317620Y-71010000D01*
X173412858Y-71105238D01*
X173460477Y-71295714D01*
X173460477Y-71629048D01*
X173412858Y-71819524D01*
X173317620Y-71914762D01*
X173222382Y-71962381D01*
X173031905Y-71962381D01*
X172936667Y-71914762D01*
X172841429Y-71819524D01*
X172793810Y-71629048D01*
X172793810Y-71295714D01*
X172841429Y-71105238D01*
X172936667Y-71010000D01*
X173031905Y-70962381D01*
X173841429Y-71914762D02*
X173984286Y-71962381D01*
X174222382Y-71962381D01*
X174317620Y-71914762D01*
X174365239Y-71867143D01*
X174412858Y-71771905D01*
X174412858Y-71676667D01*
X174365239Y-71581429D01*
X174317620Y-71533810D01*
X174222382Y-71486190D01*
X174031905Y-71438571D01*
X173936667Y-71390952D01*
X173889048Y-71343333D01*
X173841429Y-71248095D01*
X173841429Y-71152857D01*
X173889048Y-71057619D01*
X173936667Y-71010000D01*
X174031905Y-70962381D01*
X174270001Y-70962381D01*
X174412858Y-71010000D01*
X174841429Y-71962381D02*
X174841429Y-70962381D01*
X171698572Y-69422381D02*
X171698572Y-68422381D01*
X172031906Y-69136667D01*
X172365239Y-68422381D01*
X172365239Y-69422381D01*
X172841429Y-69422381D02*
X172841429Y-68422381D01*
X173270000Y-69374762D02*
X173412857Y-69422381D01*
X173650953Y-69422381D01*
X173746191Y-69374762D01*
X173793810Y-69327143D01*
X173841429Y-69231905D01*
X173841429Y-69136667D01*
X173793810Y-69041429D01*
X173746191Y-68993810D01*
X173650953Y-68946190D01*
X173460476Y-68898571D01*
X173365238Y-68850952D01*
X173317619Y-68803333D01*
X173270000Y-68708095D01*
X173270000Y-68612857D01*
X173317619Y-68517619D01*
X173365238Y-68470000D01*
X173460476Y-68422381D01*
X173698572Y-68422381D01*
X173841429Y-68470000D01*
X174460476Y-68422381D02*
X174650953Y-68422381D01*
X174746191Y-68470000D01*
X174841429Y-68565238D01*
X174889048Y-68755714D01*
X174889048Y-69089048D01*
X174841429Y-69279524D01*
X174746191Y-69374762D01*
X174650953Y-69422381D01*
X174460476Y-69422381D01*
X174365238Y-69374762D01*
X174270000Y-69279524D01*
X174222381Y-69089048D01*
X174222381Y-68755714D01*
X174270000Y-68565238D01*
X174365238Y-68470000D01*
X174460476Y-68422381D01*
X172184286Y-66834762D02*
X172327143Y-66882381D01*
X172565239Y-66882381D01*
X172660477Y-66834762D01*
X172708096Y-66787143D01*
X172755715Y-66691905D01*
X172755715Y-66596667D01*
X172708096Y-66501429D01*
X172660477Y-66453810D01*
X172565239Y-66406190D01*
X172374762Y-66358571D01*
X172279524Y-66310952D01*
X172231905Y-66263333D01*
X172184286Y-66168095D01*
X172184286Y-66072857D01*
X172231905Y-65977619D01*
X172279524Y-65930000D01*
X172374762Y-65882381D01*
X172612858Y-65882381D01*
X172755715Y-65930000D01*
X173755715Y-66787143D02*
X173708096Y-66834762D01*
X173565239Y-66882381D01*
X173470001Y-66882381D01*
X173327143Y-66834762D01*
X173231905Y-66739524D01*
X173184286Y-66644286D01*
X173136667Y-66453810D01*
X173136667Y-66310952D01*
X173184286Y-66120476D01*
X173231905Y-66025238D01*
X173327143Y-65930000D01*
X173470001Y-65882381D01*
X173565239Y-65882381D01*
X173708096Y-65930000D01*
X173755715Y-65977619D01*
X174184286Y-66882381D02*
X174184286Y-65882381D01*
X174755715Y-66882381D02*
X174327143Y-66310952D01*
X174755715Y-65882381D02*
X174184286Y-66453810D01*
X161073810Y-23432381D02*
X161073810Y-22432381D01*
X161502381Y-22527619D02*
X161550000Y-22480000D01*
X161645238Y-22432381D01*
X161883334Y-22432381D01*
X161978572Y-22480000D01*
X162026191Y-22527619D01*
X162073810Y-22622857D01*
X162073810Y-22718095D01*
X162026191Y-22860952D01*
X161454762Y-23432381D01*
X162073810Y-23432381D01*
X163073810Y-23337143D02*
X163026191Y-23384762D01*
X162883334Y-23432381D01*
X162788096Y-23432381D01*
X162645238Y-23384762D01*
X162550000Y-23289524D01*
X162502381Y-23194286D01*
X162454762Y-23003810D01*
X162454762Y-22860952D01*
X162502381Y-22670476D01*
X162550000Y-22575238D01*
X162645238Y-22480000D01*
X162788096Y-22432381D01*
X162883334Y-22432381D01*
X163026191Y-22480000D01*
X163073810Y-22527619D01*
X167549524Y-28014762D02*
X167692381Y-28062381D01*
X167930477Y-28062381D01*
X168025715Y-28014762D01*
X168073334Y-27967143D01*
X168120953Y-27871905D01*
X168120953Y-27776667D01*
X168073334Y-27681429D01*
X168025715Y-27633810D01*
X167930477Y-27586190D01*
X167740000Y-27538571D01*
X167644762Y-27490952D01*
X167597143Y-27443333D01*
X167549524Y-27348095D01*
X167549524Y-27252857D01*
X167597143Y-27157619D01*
X167644762Y-27110000D01*
X167740000Y-27062381D01*
X167978096Y-27062381D01*
X168120953Y-27110000D01*
X169120953Y-27967143D02*
X169073334Y-28014762D01*
X168930477Y-28062381D01*
X168835239Y-28062381D01*
X168692381Y-28014762D01*
X168597143Y-27919524D01*
X168549524Y-27824286D01*
X168501905Y-27633810D01*
X168501905Y-27490952D01*
X168549524Y-27300476D01*
X168597143Y-27205238D01*
X168692381Y-27110000D01*
X168835239Y-27062381D01*
X168930477Y-27062381D01*
X169073334Y-27110000D01*
X169120953Y-27157619D01*
X170025715Y-28062381D02*
X169549524Y-28062381D01*
X169549524Y-27062381D01*
X167525714Y-25474762D02*
X167668571Y-25522381D01*
X167906667Y-25522381D01*
X168001905Y-25474762D01*
X168049524Y-25427143D01*
X168097143Y-25331905D01*
X168097143Y-25236667D01*
X168049524Y-25141429D01*
X168001905Y-25093810D01*
X167906667Y-25046190D01*
X167716190Y-24998571D01*
X167620952Y-24950952D01*
X167573333Y-24903333D01*
X167525714Y-24808095D01*
X167525714Y-24712857D01*
X167573333Y-24617619D01*
X167620952Y-24570000D01*
X167716190Y-24522381D01*
X167954286Y-24522381D01*
X168097143Y-24570000D01*
X168525714Y-25522381D02*
X168525714Y-24522381D01*
X168763809Y-24522381D01*
X168906667Y-24570000D01*
X169001905Y-24665238D01*
X169049524Y-24760476D01*
X169097143Y-24950952D01*
X169097143Y-25093810D01*
X169049524Y-25284286D01*
X169001905Y-25379524D01*
X168906667Y-25474762D01*
X168763809Y-25522381D01*
X168525714Y-25522381D01*
X169478095Y-25236667D02*
X169954286Y-25236667D01*
X169382857Y-25522381D02*
X169716190Y-24522381D01*
X170049524Y-25522381D01*
D10*
X145338095Y-62468094D02*
X145576190Y-62468094D01*
X145076190Y-62634761D02*
X145338095Y-62468094D01*
X145076190Y-62301428D01*
X145576190Y-61872857D02*
X145576190Y-62158571D01*
X145576190Y-62015714D02*
X145076190Y-62015714D01*
X145147619Y-62063333D01*
X145195238Y-62110952D01*
X145219048Y-62158571D01*
D12*
X153242381Y-50786666D02*
X152766190Y-51120000D01*
X153242381Y-51358095D02*
X152242381Y-51358095D01*
X152242381Y-50977142D01*
X152290000Y-50881904D01*
X152337619Y-50834285D01*
X152432857Y-50786666D01*
X152575714Y-50786666D01*
X152670952Y-50834285D01*
X152718571Y-50881904D01*
X152766190Y-50977142D01*
X152766190Y-51358095D01*
X152242381Y-50453333D02*
X152242381Y-49834285D01*
X152623333Y-50167619D01*
X152623333Y-50024761D01*
X152670952Y-49929523D01*
X152718571Y-49881904D01*
X152813810Y-49834285D01*
X153051905Y-49834285D01*
X153147143Y-49881904D01*
X153194762Y-49929523D01*
X153242381Y-50024761D01*
X153242381Y-50310476D01*
X153194762Y-50405714D01*
X153147143Y-50453333D01*
X154282381Y-41358095D02*
X153806190Y-41691429D01*
X154282381Y-41929524D02*
X153282381Y-41929524D01*
X153282381Y-41548571D01*
X153330000Y-41453333D01*
X153377619Y-41405714D01*
X153472857Y-41358095D01*
X153615714Y-41358095D01*
X153710952Y-41405714D01*
X153758571Y-41453333D01*
X153806190Y-41548571D01*
X153806190Y-41929524D01*
X154234762Y-40548571D02*
X154282381Y-40643809D01*
X154282381Y-40834286D01*
X154234762Y-40929524D01*
X154139524Y-40977143D01*
X153758571Y-40977143D01*
X153663333Y-40929524D01*
X153615714Y-40834286D01*
X153615714Y-40643809D01*
X153663333Y-40548571D01*
X153758571Y-40500952D01*
X153853810Y-40500952D01*
X153949048Y-40977143D01*
X154234762Y-40120000D02*
X154282381Y-40024762D01*
X154282381Y-39834286D01*
X154234762Y-39739047D01*
X154139524Y-39691428D01*
X154091905Y-39691428D01*
X153996667Y-39739047D01*
X153949048Y-39834286D01*
X153949048Y-39977143D01*
X153901429Y-40072381D01*
X153806190Y-40120000D01*
X153758571Y-40120000D01*
X153663333Y-40072381D01*
X153615714Y-39977143D01*
X153615714Y-39834286D01*
X153663333Y-39739047D01*
X154234762Y-38881904D02*
X154282381Y-38977142D01*
X154282381Y-39167619D01*
X154234762Y-39262857D01*
X154139524Y-39310476D01*
X153758571Y-39310476D01*
X153663333Y-39262857D01*
X153615714Y-39167619D01*
X153615714Y-38977142D01*
X153663333Y-38881904D01*
X153758571Y-38834285D01*
X153853810Y-38834285D01*
X153949048Y-39310476D01*
X153615714Y-38548571D02*
X153615714Y-38167619D01*
X153282381Y-38405714D02*
X154139524Y-38405714D01*
X154234762Y-38358095D01*
X154282381Y-38262857D01*
X154282381Y-38167619D01*
X92292381Y-53735238D02*
X93292381Y-53401905D01*
X92292381Y-53068571D01*
X93292381Y-52735238D02*
X92292381Y-52735238D01*
X92292381Y-52497143D01*
X92340000Y-52354285D01*
X92435238Y-52259047D01*
X92530476Y-52211428D01*
X92720952Y-52163809D01*
X92863810Y-52163809D01*
X93054286Y-52211428D01*
X93149524Y-52259047D01*
X93244762Y-52354285D01*
X93292381Y-52497143D01*
X93292381Y-52735238D01*
X93292381Y-51735238D02*
X92292381Y-51735238D01*
X92292381Y-51497143D01*
X92340000Y-51354285D01*
X92435238Y-51259047D01*
X92530476Y-51211428D01*
X92720952Y-51163809D01*
X92863810Y-51163809D01*
X93054286Y-51211428D01*
X93149524Y-51259047D01*
X93244762Y-51354285D01*
X93292381Y-51497143D01*
X93292381Y-51735238D01*
X93292381Y-49449523D02*
X93292381Y-50020952D01*
X93292381Y-49735238D02*
X92292381Y-49735238D01*
X92435238Y-49830476D01*
X92530476Y-49925714D01*
X92578095Y-50020952D01*
X92387619Y-49068571D02*
X92340000Y-49020952D01*
X92292381Y-48925714D01*
X92292381Y-48687618D01*
X92340000Y-48592380D01*
X92387619Y-48544761D01*
X92482857Y-48497142D01*
X92578095Y-48497142D01*
X92720952Y-48544761D01*
X93292381Y-49116190D01*
X93292381Y-48497142D01*
X92292381Y-48211428D02*
X93292381Y-47878095D01*
X92292381Y-47544761D01*
X82809981Y-50164847D02*
X82809981Y-50736276D01*
X82809981Y-50450562D02*
X81809981Y-50450562D01*
X81952838Y-50545800D01*
X82048076Y-50641038D01*
X82095695Y-50736276D01*
X81905219Y-49783895D02*
X81857600Y-49736276D01*
X81809981Y-49641038D01*
X81809981Y-49402942D01*
X81857600Y-49307704D01*
X81905219Y-49260085D01*
X82000457Y-49212466D01*
X82095695Y-49212466D01*
X82238552Y-49260085D01*
X82809981Y-49831514D01*
X82809981Y-49212466D01*
X81809981Y-48926752D02*
X82809981Y-48593419D01*
X81809981Y-48260085D01*
X82809981Y-54064847D02*
X82809981Y-54636276D01*
X82809981Y-54350562D02*
X81809981Y-54350562D01*
X81952838Y-54445800D01*
X82048076Y-54541038D01*
X82095695Y-54636276D01*
X81905219Y-53683895D02*
X81857600Y-53636276D01*
X81809981Y-53541038D01*
X81809981Y-53302942D01*
X81857600Y-53207704D01*
X81905219Y-53160085D01*
X82000457Y-53112466D01*
X82095695Y-53112466D01*
X82238552Y-53160085D01*
X82809981Y-53731514D01*
X82809981Y-53112466D01*
X81809981Y-52826752D02*
X82809981Y-52493419D01*
X81809981Y-52160085D01*
X81857600Y-58107704D02*
X81809981Y-58202942D01*
X81809981Y-58345799D01*
X81857600Y-58488657D01*
X81952838Y-58583895D01*
X82048076Y-58631514D01*
X82238552Y-58679133D01*
X82381410Y-58679133D01*
X82571886Y-58631514D01*
X82667124Y-58583895D01*
X82762362Y-58488657D01*
X82809981Y-58345799D01*
X82809981Y-58250561D01*
X82762362Y-58107704D01*
X82714743Y-58060085D01*
X82381410Y-58060085D01*
X82381410Y-58250561D01*
X82809981Y-57631514D02*
X81809981Y-57631514D01*
X82809981Y-57060085D01*
X81809981Y-57060085D01*
X82809981Y-56583895D02*
X81809981Y-56583895D01*
X81809981Y-56345800D01*
X81857600Y-56202942D01*
X81952838Y-56107704D01*
X82048076Y-56060085D01*
X82238552Y-56012466D01*
X82381410Y-56012466D01*
X82571886Y-56060085D01*
X82667124Y-56107704D01*
X82762362Y-56202942D01*
X82809981Y-56345800D01*
X82809981Y-56583895D01*
X81857600Y-62007704D02*
X81809981Y-62102942D01*
X81809981Y-62245799D01*
X81857600Y-62388657D01*
X81952838Y-62483895D01*
X82048076Y-62531514D01*
X82238552Y-62579133D01*
X82381410Y-62579133D01*
X82571886Y-62531514D01*
X82667124Y-62483895D01*
X82762362Y-62388657D01*
X82809981Y-62245799D01*
X82809981Y-62150561D01*
X82762362Y-62007704D01*
X82714743Y-61960085D01*
X82381410Y-61960085D01*
X82381410Y-62150561D01*
X82809981Y-61531514D02*
X81809981Y-61531514D01*
X82809981Y-60960085D01*
X81809981Y-60960085D01*
X82809981Y-60483895D02*
X81809981Y-60483895D01*
X81809981Y-60245800D01*
X81857600Y-60102942D01*
X81952838Y-60007704D01*
X82048076Y-59960085D01*
X82238552Y-59912466D01*
X82381410Y-59912466D01*
X82571886Y-59960085D01*
X82667124Y-60007704D01*
X82762362Y-60102942D01*
X82809981Y-60245800D01*
X82809981Y-60483895D01*
X166730952Y-108722381D02*
X167064285Y-109722381D01*
X167397619Y-108722381D01*
X167730952Y-109722381D02*
X167730952Y-108722381D01*
X167969047Y-108722381D01*
X168111905Y-108770000D01*
X168207143Y-108865238D01*
X168254762Y-108960476D01*
X168302381Y-109150952D01*
X168302381Y-109293810D01*
X168254762Y-109484286D01*
X168207143Y-109579524D01*
X168111905Y-109674762D01*
X167969047Y-109722381D01*
X167730952Y-109722381D01*
X168730952Y-109722381D02*
X168730952Y-108722381D01*
X168969047Y-108722381D01*
X169111905Y-108770000D01*
X169207143Y-108865238D01*
X169254762Y-108960476D01*
X169302381Y-109150952D01*
X169302381Y-109293810D01*
X169254762Y-109484286D01*
X169207143Y-109579524D01*
X169111905Y-109674762D01*
X168969047Y-109722381D01*
X168730952Y-109722381D01*
X170969048Y-108722381D02*
X170492857Y-108722381D01*
X170445238Y-109198571D01*
X170492857Y-109150952D01*
X170588095Y-109103333D01*
X170826191Y-109103333D01*
X170921429Y-109150952D01*
X170969048Y-109198571D01*
X171016667Y-109293810D01*
X171016667Y-109531905D01*
X170969048Y-109627143D01*
X170921429Y-109674762D01*
X170826191Y-109722381D01*
X170588095Y-109722381D01*
X170492857Y-109674762D01*
X170445238Y-109627143D01*
X171302381Y-108722381D02*
X171635714Y-109722381D01*
X171969048Y-108722381D01*
X169723724Y-110739981D02*
X169247533Y-110739981D01*
X169199914Y-111216171D01*
X169247533Y-111168552D01*
X169342771Y-111120933D01*
X169580867Y-111120933D01*
X169676105Y-111168552D01*
X169723724Y-111216171D01*
X169771343Y-111311410D01*
X169771343Y-111549505D01*
X169723724Y-111644743D01*
X169676105Y-111692362D01*
X169580867Y-111739981D01*
X169342771Y-111739981D01*
X169247533Y-111692362D01*
X169199914Y-111644743D01*
X170057057Y-110739981D02*
X170390390Y-111739981D01*
X170723724Y-110739981D01*
X165823724Y-110739981D02*
X165347533Y-110739981D01*
X165299914Y-111216171D01*
X165347533Y-111168552D01*
X165442771Y-111120933D01*
X165680867Y-111120933D01*
X165776105Y-111168552D01*
X165823724Y-111216171D01*
X165871343Y-111311410D01*
X165871343Y-111549505D01*
X165823724Y-111644743D01*
X165776105Y-111692362D01*
X165680867Y-111739981D01*
X165442771Y-111739981D01*
X165347533Y-111692362D01*
X165299914Y-111644743D01*
X166157057Y-110739981D02*
X166490390Y-111739981D01*
X166823724Y-110739981D01*
X161352296Y-110787600D02*
X161257058Y-110739981D01*
X161114201Y-110739981D01*
X160971343Y-110787600D01*
X160876105Y-110882838D01*
X160828486Y-110978076D01*
X160780867Y-111168552D01*
X160780867Y-111311410D01*
X160828486Y-111501886D01*
X160876105Y-111597124D01*
X160971343Y-111692362D01*
X161114201Y-111739981D01*
X161209439Y-111739981D01*
X161352296Y-111692362D01*
X161399915Y-111644743D01*
X161399915Y-111311410D01*
X161209439Y-111311410D01*
X161828486Y-111739981D02*
X161828486Y-110739981D01*
X162399915Y-111739981D01*
X162399915Y-110739981D01*
X162876105Y-111739981D02*
X162876105Y-110739981D01*
X163114200Y-110739981D01*
X163257058Y-110787600D01*
X163352296Y-110882838D01*
X163399915Y-110978076D01*
X163447534Y-111168552D01*
X163447534Y-111311410D01*
X163399915Y-111501886D01*
X163352296Y-111597124D01*
X163257058Y-111692362D01*
X163114200Y-111739981D01*
X162876105Y-111739981D01*
X157452296Y-110787600D02*
X157357058Y-110739981D01*
X157214201Y-110739981D01*
X157071343Y-110787600D01*
X156976105Y-110882838D01*
X156928486Y-110978076D01*
X156880867Y-111168552D01*
X156880867Y-111311410D01*
X156928486Y-111501886D01*
X156976105Y-111597124D01*
X157071343Y-111692362D01*
X157214201Y-111739981D01*
X157309439Y-111739981D01*
X157452296Y-111692362D01*
X157499915Y-111644743D01*
X157499915Y-111311410D01*
X157309439Y-111311410D01*
X157928486Y-111739981D02*
X157928486Y-110739981D01*
X158499915Y-111739981D01*
X158499915Y-110739981D01*
X158976105Y-111739981D02*
X158976105Y-110739981D01*
X159214200Y-110739981D01*
X159357058Y-110787600D01*
X159452296Y-110882838D01*
X159499915Y-110978076D01*
X159547534Y-111168552D01*
X159547534Y-111311410D01*
X159499915Y-111501886D01*
X159452296Y-111597124D01*
X159357058Y-111692362D01*
X159214200Y-111739981D01*
X158976105Y-111739981D01*
X134172381Y-26905238D02*
X133696190Y-27238572D01*
X134172381Y-27476667D02*
X133172381Y-27476667D01*
X133172381Y-27095714D01*
X133220000Y-27000476D01*
X133267619Y-26952857D01*
X133362857Y-26905238D01*
X133505714Y-26905238D01*
X133600952Y-26952857D01*
X133648571Y-27000476D01*
X133696190Y-27095714D01*
X133696190Y-27476667D01*
X134124762Y-26524286D02*
X134172381Y-26381429D01*
X134172381Y-26143333D01*
X134124762Y-26048095D01*
X134077143Y-26000476D01*
X133981905Y-25952857D01*
X133886667Y-25952857D01*
X133791429Y-26000476D01*
X133743810Y-26048095D01*
X133696190Y-26143333D01*
X133648571Y-26333810D01*
X133600952Y-26429048D01*
X133553333Y-26476667D01*
X133458095Y-26524286D01*
X133362857Y-26524286D01*
X133267619Y-26476667D01*
X133220000Y-26429048D01*
X133172381Y-26333810D01*
X133172381Y-26095714D01*
X133220000Y-25952857D01*
X133267619Y-25571905D02*
X133220000Y-25524286D01*
X133172381Y-25429048D01*
X133172381Y-25190952D01*
X133220000Y-25095714D01*
X133267619Y-25048095D01*
X133362857Y-25000476D01*
X133458095Y-25000476D01*
X133600952Y-25048095D01*
X134172381Y-25619524D01*
X134172381Y-25000476D01*
X133172381Y-24667143D02*
X133172381Y-24048095D01*
X133553333Y-24381429D01*
X133553333Y-24238571D01*
X133600952Y-24143333D01*
X133648571Y-24095714D01*
X133743810Y-24048095D01*
X133981905Y-24048095D01*
X134077143Y-24095714D01*
X134124762Y-24143333D01*
X134172381Y-24238571D01*
X134172381Y-24524286D01*
X134124762Y-24619524D01*
X134077143Y-24667143D01*
X133267619Y-23667143D02*
X133220000Y-23619524D01*
X133172381Y-23524286D01*
X133172381Y-23286190D01*
X133220000Y-23190952D01*
X133267619Y-23143333D01*
X133362857Y-23095714D01*
X133458095Y-23095714D01*
X133600952Y-23143333D01*
X134172381Y-23714762D01*
X134172381Y-23095714D01*
X135680461Y-28932596D02*
X135680461Y-28361167D01*
X136680461Y-28646882D02*
X135680461Y-28646882D01*
X136680461Y-28123072D02*
X136013794Y-27599262D01*
X136013794Y-28123072D02*
X136680461Y-27599262D01*
X139220461Y-28337358D02*
X138744270Y-28670692D01*
X139220461Y-28908787D02*
X138220461Y-28908787D01*
X138220461Y-28527834D01*
X138268080Y-28432596D01*
X138315699Y-28384977D01*
X138410937Y-28337358D01*
X138553794Y-28337358D01*
X138649032Y-28384977D01*
X138696651Y-28432596D01*
X138744270Y-28527834D01*
X138744270Y-28908787D01*
X139220461Y-28004025D02*
X138553794Y-27480215D01*
X138553794Y-28004025D02*
X139220461Y-27480215D01*
X141020000Y-29121904D02*
X140972381Y-29217142D01*
X140972381Y-29359999D01*
X141020000Y-29502857D01*
X141115238Y-29598095D01*
X141210476Y-29645714D01*
X141400952Y-29693333D01*
X141543810Y-29693333D01*
X141734286Y-29645714D01*
X141829524Y-29598095D01*
X141924762Y-29502857D01*
X141972381Y-29359999D01*
X141972381Y-29264761D01*
X141924762Y-29121904D01*
X141877143Y-29074285D01*
X141543810Y-29074285D01*
X141543810Y-29264761D01*
X141972381Y-28645714D02*
X140972381Y-28645714D01*
X141972381Y-28074285D01*
X140972381Y-28074285D01*
X141972381Y-27598095D02*
X140972381Y-27598095D01*
X140972381Y-27360000D01*
X141020000Y-27217142D01*
X141115238Y-27121904D01*
X141210476Y-27074285D01*
X141400952Y-27026666D01*
X141543810Y-27026666D01*
X141734286Y-27074285D01*
X141829524Y-27121904D01*
X141924762Y-27217142D01*
X141972381Y-27360000D01*
X141972381Y-27598095D01*
X96330952Y-27374762D02*
X96473809Y-27422381D01*
X96711905Y-27422381D01*
X96807143Y-27374762D01*
X96854762Y-27327143D01*
X96902381Y-27231905D01*
X96902381Y-27136667D01*
X96854762Y-27041429D01*
X96807143Y-26993810D01*
X96711905Y-26946190D01*
X96521428Y-26898571D01*
X96426190Y-26850952D01*
X96378571Y-26803333D01*
X96330952Y-26708095D01*
X96330952Y-26612857D01*
X96378571Y-26517619D01*
X96426190Y-26470000D01*
X96521428Y-26422381D01*
X96759524Y-26422381D01*
X96902381Y-26470000D01*
X97330952Y-27422381D02*
X97330952Y-26422381D01*
X97711905Y-26422381D01*
X97807143Y-26470000D01*
X97854762Y-26517619D01*
X97902381Y-26612857D01*
X97902381Y-26755714D01*
X97854762Y-26850952D01*
X97807143Y-26898571D01*
X97711905Y-26946190D01*
X97330952Y-26946190D01*
X98330952Y-26898571D02*
X98664286Y-26898571D01*
X98807143Y-27422381D02*
X98330952Y-27422381D01*
X98330952Y-26422381D01*
X98807143Y-26422381D01*
X99188095Y-27136667D02*
X99664286Y-27136667D01*
X99092857Y-27422381D02*
X99426190Y-26422381D01*
X99759524Y-27422381D01*
X100092857Y-27422381D02*
X100092857Y-26422381D01*
X100664286Y-27422381D02*
X100235714Y-26850952D01*
X100664286Y-26422381D02*
X100092857Y-26993810D01*
X101092857Y-26898571D02*
X101426191Y-26898571D01*
X101569048Y-27422381D02*
X101092857Y-27422381D01*
X101092857Y-26422381D01*
X101569048Y-26422381D01*
X102569048Y-27422381D02*
X102235714Y-26946190D01*
X101997619Y-27422381D02*
X101997619Y-26422381D01*
X102378572Y-26422381D01*
X102473810Y-26470000D01*
X102521429Y-26517619D01*
X102569048Y-26612857D01*
X102569048Y-26755714D01*
X102521429Y-26850952D01*
X102473810Y-26898571D01*
X102378572Y-26946190D01*
X101997619Y-26946190D01*
X165573334Y-101327143D02*
X165525715Y-101374762D01*
X165382858Y-101422381D01*
X165287620Y-101422381D01*
X165144762Y-101374762D01*
X165049524Y-101279524D01*
X165001905Y-101184286D01*
X164954286Y-100993810D01*
X164954286Y-100850952D01*
X165001905Y-100660476D01*
X165049524Y-100565238D01*
X165144762Y-100470000D01*
X165287620Y-100422381D01*
X165382858Y-100422381D01*
X165525715Y-100470000D01*
X165573334Y-100517619D01*
X166144762Y-100850952D02*
X166049524Y-100803333D01*
X166001905Y-100755714D01*
X165954286Y-100660476D01*
X165954286Y-100612857D01*
X166001905Y-100517619D01*
X166049524Y-100470000D01*
X166144762Y-100422381D01*
X166335239Y-100422381D01*
X166430477Y-100470000D01*
X166478096Y-100517619D01*
X166525715Y-100612857D01*
X166525715Y-100660476D01*
X166478096Y-100755714D01*
X166430477Y-100803333D01*
X166335239Y-100850952D01*
X166144762Y-100850952D01*
X166049524Y-100898571D01*
X166001905Y-100946190D01*
X165954286Y-101041429D01*
X165954286Y-101231905D01*
X166001905Y-101327143D01*
X166049524Y-101374762D01*
X166144762Y-101422381D01*
X166335239Y-101422381D01*
X166430477Y-101374762D01*
X166478096Y-101327143D01*
X166525715Y-101231905D01*
X166525715Y-101041429D01*
X166478096Y-100946190D01*
X166430477Y-100898571D01*
X166335239Y-100850952D01*
X168763334Y-106957143D02*
X168715715Y-107004762D01*
X168572858Y-107052381D01*
X168477620Y-107052381D01*
X168334762Y-107004762D01*
X168239524Y-106909524D01*
X168191905Y-106814286D01*
X168144286Y-106623810D01*
X168144286Y-106480952D01*
X168191905Y-106290476D01*
X168239524Y-106195238D01*
X168334762Y-106100000D01*
X168477620Y-106052381D01*
X168572858Y-106052381D01*
X168715715Y-106100000D01*
X168763334Y-106147619D01*
X169239524Y-107052381D02*
X169430000Y-107052381D01*
X169525239Y-107004762D01*
X169572858Y-106957143D01*
X169668096Y-106814286D01*
X169715715Y-106623810D01*
X169715715Y-106242857D01*
X169668096Y-106147619D01*
X169620477Y-106100000D01*
X169525239Y-106052381D01*
X169334762Y-106052381D01*
X169239524Y-106100000D01*
X169191905Y-106147619D01*
X169144286Y-106242857D01*
X169144286Y-106480952D01*
X169191905Y-106576190D01*
X169239524Y-106623810D01*
X169334762Y-106671429D01*
X169525239Y-106671429D01*
X169620477Y-106623810D01*
X169668096Y-106576190D01*
X169715715Y-106480952D01*
X152817143Y-33617143D02*
X152769524Y-33664762D01*
X152626667Y-33712381D01*
X152531429Y-33712381D01*
X152388571Y-33664762D01*
X152293333Y-33569524D01*
X152245714Y-33474286D01*
X152198095Y-33283810D01*
X152198095Y-33140952D01*
X152245714Y-32950476D01*
X152293333Y-32855238D01*
X152388571Y-32760000D01*
X152531429Y-32712381D01*
X152626667Y-32712381D01*
X152769524Y-32760000D01*
X152817143Y-32807619D01*
X153769524Y-33712381D02*
X153198095Y-33712381D01*
X153483809Y-33712381D02*
X153483809Y-32712381D01*
X153388571Y-32855238D01*
X153293333Y-32950476D01*
X153198095Y-32998095D01*
X154388571Y-32712381D02*
X154483810Y-32712381D01*
X154579048Y-32760000D01*
X154626667Y-32807619D01*
X154674286Y-32902857D01*
X154721905Y-33093333D01*
X154721905Y-33331429D01*
X154674286Y-33521905D01*
X154626667Y-33617143D01*
X154579048Y-33664762D01*
X154483810Y-33712381D01*
X154388571Y-33712381D01*
X154293333Y-33664762D01*
X154245714Y-33617143D01*
X154198095Y-33521905D01*
X154150476Y-33331429D01*
X154150476Y-33093333D01*
X154198095Y-32902857D01*
X154245714Y-32807619D01*
X154293333Y-32760000D01*
X154388571Y-32712381D01*
X148057619Y-23452381D02*
X147724285Y-22976190D01*
X147486190Y-23452381D02*
X147486190Y-22452381D01*
X147867143Y-22452381D01*
X147962381Y-22500000D01*
X148010000Y-22547619D01*
X148057619Y-22642857D01*
X148057619Y-22785714D01*
X148010000Y-22880952D01*
X147962381Y-22928571D01*
X147867143Y-22976190D01*
X147486190Y-22976190D01*
X148486190Y-22928571D02*
X148819524Y-22928571D01*
X148962381Y-23452381D02*
X148486190Y-23452381D01*
X148486190Y-22452381D01*
X148962381Y-22452381D01*
X149343333Y-23404762D02*
X149486190Y-23452381D01*
X149724286Y-23452381D01*
X149819524Y-23404762D01*
X149867143Y-23357143D01*
X149914762Y-23261905D01*
X149914762Y-23166667D01*
X149867143Y-23071429D01*
X149819524Y-23023810D01*
X149724286Y-22976190D01*
X149533809Y-22928571D01*
X149438571Y-22880952D01*
X149390952Y-22833333D01*
X149343333Y-22738095D01*
X149343333Y-22642857D01*
X149390952Y-22547619D01*
X149438571Y-22500000D01*
X149533809Y-22452381D01*
X149771905Y-22452381D01*
X149914762Y-22500000D01*
X150343333Y-22928571D02*
X150676667Y-22928571D01*
X150819524Y-23452381D02*
X150343333Y-23452381D01*
X150343333Y-22452381D01*
X150819524Y-22452381D01*
X151105238Y-22452381D02*
X151676667Y-22452381D01*
X151390952Y-23452381D02*
X151390952Y-22452381D01*
X148512061Y-31373059D02*
X148035870Y-31706393D01*
X148512061Y-31944488D02*
X147512061Y-31944488D01*
X147512061Y-31563535D01*
X147559680Y-31468297D01*
X147607299Y-31420678D01*
X147702537Y-31373059D01*
X147845394Y-31373059D01*
X147940632Y-31420678D01*
X147988251Y-31468297D01*
X148035870Y-31563535D01*
X148035870Y-31944488D01*
X148464442Y-30992107D02*
X148512061Y-30849250D01*
X148512061Y-30611154D01*
X148464442Y-30515916D01*
X148416823Y-30468297D01*
X148321585Y-30420678D01*
X148226347Y-30420678D01*
X148131109Y-30468297D01*
X148083490Y-30515916D01*
X148035870Y-30611154D01*
X147988251Y-30801631D01*
X147940632Y-30896869D01*
X147893013Y-30944488D01*
X147797775Y-30992107D01*
X147702537Y-30992107D01*
X147607299Y-30944488D01*
X147559680Y-30896869D01*
X147512061Y-30801631D01*
X147512061Y-30563535D01*
X147559680Y-30420678D01*
X147512061Y-30134964D02*
X147512061Y-29563535D01*
X148512061Y-29849250D02*
X147512061Y-29849250D01*
X151138421Y-31983537D02*
X150138421Y-31983537D01*
X150138421Y-31745442D01*
X150186040Y-31602584D01*
X150281278Y-31507346D01*
X150376516Y-31459727D01*
X150566992Y-31412108D01*
X150709850Y-31412108D01*
X150900326Y-31459727D01*
X150995564Y-31507346D01*
X151090802Y-31602584D01*
X151138421Y-31745442D01*
X151138421Y-31983537D01*
X150138421Y-31126394D02*
X150138421Y-30554965D01*
X151138421Y-30840680D02*
X150138421Y-30840680D01*
X151138421Y-29650203D02*
X150662230Y-29983537D01*
X151138421Y-30221632D02*
X150138421Y-30221632D01*
X150138421Y-29840679D01*
X150186040Y-29745441D01*
X150233659Y-29697822D01*
X150328897Y-29650203D01*
X150471754Y-29650203D01*
X150566992Y-29697822D01*
X150614611Y-29745441D01*
X150662230Y-29840679D01*
X150662230Y-30221632D01*
X158539524Y-57092381D02*
X158539524Y-57806667D01*
X158491904Y-57949524D01*
X158396666Y-58044762D01*
X158253809Y-58092381D01*
X158158571Y-58092381D01*
X158777619Y-58187619D02*
X159539524Y-58187619D01*
X159730000Y-57806667D02*
X160206191Y-57806667D01*
X159634762Y-58092381D02*
X159968095Y-57092381D01*
X160301429Y-58092381D01*
X160634762Y-58092381D02*
X160634762Y-57425714D01*
X160634762Y-57616190D02*
X160682381Y-57520952D01*
X160730000Y-57473333D01*
X160825238Y-57425714D01*
X160920477Y-57425714D01*
X161634763Y-58044762D02*
X161539525Y-58092381D01*
X161349048Y-58092381D01*
X161253810Y-58044762D01*
X161206191Y-57949524D01*
X161206191Y-57568571D01*
X161253810Y-57473333D01*
X161349048Y-57425714D01*
X161539525Y-57425714D01*
X161634763Y-57473333D01*
X161682382Y-57568571D01*
X161682382Y-57663810D01*
X161206191Y-57759048D01*
X161968096Y-57425714D02*
X162349048Y-57425714D01*
X162110953Y-58092381D02*
X162110953Y-57235238D01*
X162158572Y-57140000D01*
X162253810Y-57092381D01*
X162349048Y-57092381D01*
X83376667Y-22952381D02*
X83043333Y-22476190D01*
X82805238Y-22952381D02*
X82805238Y-21952381D01*
X83186191Y-21952381D01*
X83281429Y-22000000D01*
X83329048Y-22047619D01*
X83376667Y-22142857D01*
X83376667Y-22285714D01*
X83329048Y-22380952D01*
X83281429Y-22428571D01*
X83186191Y-22476190D01*
X82805238Y-22476190D01*
X83805238Y-22428571D02*
X84138572Y-22428571D01*
X84281429Y-22952381D02*
X83805238Y-22952381D01*
X83805238Y-21952381D01*
X84281429Y-21952381D01*
X85043334Y-22428571D02*
X84710000Y-22428571D01*
X84710000Y-22952381D02*
X84710000Y-21952381D01*
X85186191Y-21952381D01*
X85710000Y-21952381D02*
X85710000Y-22190476D01*
X85471905Y-22095238D02*
X85710000Y-22190476D01*
X85948096Y-22095238D01*
X85567143Y-22380952D02*
X85710000Y-22190476D01*
X85852858Y-22380952D01*
X86471905Y-21952381D02*
X86471905Y-22190476D01*
X86233810Y-22095238D02*
X86471905Y-22190476D01*
X86710001Y-22095238D01*
X86329048Y-22380952D02*
X86471905Y-22190476D01*
X86614763Y-22380952D01*
X83326667Y-113942381D02*
X82993333Y-113466190D01*
X82755238Y-113942381D02*
X82755238Y-112942381D01*
X83136191Y-112942381D01*
X83231429Y-112990000D01*
X83279048Y-113037619D01*
X83326667Y-113132857D01*
X83326667Y-113275714D01*
X83279048Y-113370952D01*
X83231429Y-113418571D01*
X83136191Y-113466190D01*
X82755238Y-113466190D01*
X83755238Y-113418571D02*
X84088572Y-113418571D01*
X84231429Y-113942381D02*
X83755238Y-113942381D01*
X83755238Y-112942381D01*
X84231429Y-112942381D01*
X84993334Y-113418571D02*
X84660000Y-113418571D01*
X84660000Y-113942381D02*
X84660000Y-112942381D01*
X85136191Y-112942381D01*
X85660000Y-112942381D02*
X85660000Y-113180476D01*
X85421905Y-113085238D02*
X85660000Y-113180476D01*
X85898096Y-113085238D01*
X85517143Y-113370952D02*
X85660000Y-113180476D01*
X85802858Y-113370952D01*
X86421905Y-112942381D02*
X86421905Y-113180476D01*
X86183810Y-113085238D02*
X86421905Y-113180476D01*
X86660001Y-113085238D01*
X86279048Y-113370952D02*
X86421905Y-113180476D01*
X86564763Y-113370952D01*
X174186667Y-113982381D02*
X173853333Y-113506190D01*
X173615238Y-113982381D02*
X173615238Y-112982381D01*
X173996191Y-112982381D01*
X174091429Y-113030000D01*
X174139048Y-113077619D01*
X174186667Y-113172857D01*
X174186667Y-113315714D01*
X174139048Y-113410952D01*
X174091429Y-113458571D01*
X173996191Y-113506190D01*
X173615238Y-113506190D01*
X174615238Y-113458571D02*
X174948572Y-113458571D01*
X175091429Y-113982381D02*
X174615238Y-113982381D01*
X174615238Y-112982381D01*
X175091429Y-112982381D01*
X175853334Y-113458571D02*
X175520000Y-113458571D01*
X175520000Y-113982381D02*
X175520000Y-112982381D01*
X175996191Y-112982381D01*
X176520000Y-112982381D02*
X176520000Y-113220476D01*
X176281905Y-113125238D02*
X176520000Y-113220476D01*
X176758096Y-113125238D01*
X176377143Y-113410952D02*
X176520000Y-113220476D01*
X176662858Y-113410952D01*
X177281905Y-112982381D02*
X177281905Y-113220476D01*
X177043810Y-113125238D02*
X177281905Y-113220476D01*
X177520001Y-113125238D01*
X177139048Y-113410952D02*
X177281905Y-113220476D01*
X177424763Y-113410952D01*
X172646667Y-23912381D02*
X172313333Y-23436190D01*
X172075238Y-23912381D02*
X172075238Y-22912381D01*
X172456191Y-22912381D01*
X172551429Y-22960000D01*
X172599048Y-23007619D01*
X172646667Y-23102857D01*
X172646667Y-23245714D01*
X172599048Y-23340952D01*
X172551429Y-23388571D01*
X172456191Y-23436190D01*
X172075238Y-23436190D01*
X173075238Y-23388571D02*
X173408572Y-23388571D01*
X173551429Y-23912381D02*
X173075238Y-23912381D01*
X173075238Y-22912381D01*
X173551429Y-22912381D01*
X174313334Y-23388571D02*
X173980000Y-23388571D01*
X173980000Y-23912381D02*
X173980000Y-22912381D01*
X174456191Y-22912381D01*
X174980000Y-22912381D02*
X174980000Y-23150476D01*
X174741905Y-23055238D02*
X174980000Y-23150476D01*
X175218096Y-23055238D01*
X174837143Y-23340952D02*
X174980000Y-23150476D01*
X175122858Y-23340952D01*
X175741905Y-22912381D02*
X175741905Y-23150476D01*
X175503810Y-23055238D02*
X175741905Y-23150476D01*
X175980001Y-23055238D01*
X175599048Y-23340952D02*
X175741905Y-23150476D01*
X175884763Y-23340952D01*
M02*
