%FSLAX45Y45*%
G04 Gerber Fmt 4.5, Leading zero omitted, Abs format (unit mm)*
G04 Created by KiCad (PCBNEW 4.0.6) date 10/03/17 06:58:42*
%MOMM*%
%LPD*%
G01*
G04 APERTURE LIST*
%ADD10C,0.127000*%
%ADD11C,0.150000*%
%ADD12C,0.200000*%
%ADD13C,0.300000*%
G04 APERTURE END LIST*
D10*
D11*
X18000000Y-2200000D02*
X18000000Y-12200000D01*
X8000000Y-12200000D02*
X18000000Y-12200000D01*
X8000000Y-2200000D02*
X8000000Y-12200000D01*
X8000000Y-2200000D02*
X18000000Y-2200000D01*
D12*
X11819000Y-5143000D02*
X11859000Y-5183000D01*
X11859000Y-5143000D02*
X11819000Y-5183000D01*
X11892000Y-4936000D02*
X11932000Y-4976000D01*
X11932000Y-4936000D02*
X11892000Y-4976000D01*
X11892000Y-5069000D02*
X11932000Y-5109000D01*
X11932000Y-5069000D02*
X11892000Y-5109000D01*
X14277000Y-5252000D02*
X14317000Y-5292000D01*
X14317000Y-5252000D02*
X14277000Y-5292000D01*
X14498000Y-5793000D02*
X14538000Y-5833000D01*
X14538000Y-5793000D02*
X14498000Y-5833000D01*
X14516000Y-5694000D02*
X14556000Y-5734000D01*
X14556000Y-5694000D02*
X14516000Y-5734000D01*
X15110000Y-4701000D02*
X15150000Y-4741000D01*
X15150000Y-4701000D02*
X15110000Y-4741000D01*
X15740000Y-5904000D02*
X15780000Y-5944000D01*
X15780000Y-5904000D02*
X15740000Y-5944000D01*
X16082000Y-3442000D02*
X16122000Y-3482000D01*
X16122000Y-3442000D02*
X16082000Y-3482000D01*
X16263000Y-3749000D02*
X16303000Y-3789000D01*
X16303000Y-3749000D02*
X16263000Y-3789000D01*
X16287000Y-5042000D02*
X16327000Y-5082000D01*
X16327000Y-5042000D02*
X16287000Y-5082000D01*
X16362000Y-5485000D02*
X16402000Y-5525000D01*
X16402000Y-5485000D02*
X16362000Y-5525000D01*
X16566000Y-5944000D02*
X16606000Y-5984000D01*
X16606000Y-5944000D02*
X16566000Y-5984000D01*
X17155000Y-2544000D02*
X17195000Y-2584000D01*
X17195000Y-2544000D02*
X17155000Y-2584000D01*
X8894000Y-4669000D02*
G75*
G03X8894000Y-4669000I-25000J0D01*
G01*
X13633000Y-5004000D02*
G75*
G03X13633000Y-5004000I-25000J0D01*
G01*
X13653000Y-6120000D02*
G75*
G03X13653000Y-6120000I-25000J0D01*
G01*
X13655000Y-6337000D02*
G75*
G03X13655000Y-6337000I-25000J0D01*
G01*
X13843000Y-5689000D02*
G75*
G03X13843000Y-5689000I-25000J0D01*
G01*
X13848000Y-5902000D02*
G75*
G03X13848000Y-5902000I-25000J0D01*
G01*
X15171000Y-4511000D02*
G75*
G03X15171000Y-4511000I-25000J0D01*
G01*
X15174000Y-3536000D02*
G75*
G03X15174000Y-3536000I-25000J0D01*
G01*
X16271000Y-10270000D02*
G75*
G03X16271000Y-10270000I-25000J0D01*
G01*
X16282000Y-10561000D02*
G75*
G03X16282000Y-10561000I-25000J0D01*
G01*
X16361000Y-6193000D02*
G75*
G03X16361000Y-6193000I-25000J0D01*
G01*
X9809000Y-2403200D02*
X9809000Y-2504800D01*
X9758200Y-2454000D02*
X9859800Y-2454000D01*
X10063000Y-2403200D02*
X10063000Y-2504800D01*
X10012200Y-2454000D02*
X10113800Y-2454000D01*
X10679000Y-2402200D02*
X10679000Y-2503800D01*
X10628200Y-2453000D02*
X10729800Y-2453000D01*
X10679000Y-2656200D02*
X10679000Y-2757800D01*
X10628200Y-2707000D02*
X10729800Y-2707000D01*
X10865000Y-5352200D02*
X10865000Y-5453800D01*
X10814200Y-5403000D02*
X10915800Y-5403000D01*
X10933000Y-2402200D02*
X10933000Y-2503800D01*
X10882200Y-2453000D02*
X10983800Y-2453000D01*
X10933000Y-2656200D02*
X10933000Y-2757800D01*
X10882200Y-2707000D02*
X10983800Y-2707000D01*
X11119000Y-5352200D02*
X11119000Y-5453800D01*
X11068200Y-5403000D02*
X11169800Y-5403000D01*
X11187000Y-2402200D02*
X11187000Y-2503800D01*
X11136200Y-2453000D02*
X11237800Y-2453000D01*
X11187000Y-2656200D02*
X11187000Y-2757800D01*
X11136200Y-2707000D02*
X11237800Y-2707000D01*
X11441000Y-2402200D02*
X11441000Y-2503800D01*
X11390200Y-2453000D02*
X11491800Y-2453000D01*
X11441000Y-2656200D02*
X11441000Y-2757800D01*
X11390200Y-2707000D02*
X11491800Y-2707000D01*
X11695000Y-2402200D02*
X11695000Y-2503800D01*
X11644200Y-2453000D02*
X11745800Y-2453000D01*
X11695000Y-2656200D02*
X11695000Y-2757800D01*
X11644200Y-2707000D02*
X11745800Y-2707000D01*
X11949000Y-2402200D02*
X11949000Y-2503800D01*
X11898200Y-2453000D02*
X11999800Y-2453000D01*
X11949000Y-2656200D02*
X11949000Y-2757800D01*
X11898200Y-2707000D02*
X11999800Y-2707000D01*
X12203000Y-2402200D02*
X12203000Y-2503800D01*
X12152200Y-2453000D02*
X12253800Y-2453000D01*
X12203000Y-2656200D02*
X12203000Y-2757800D01*
X12152200Y-2707000D02*
X12253800Y-2707000D01*
X12457000Y-2402200D02*
X12457000Y-2503800D01*
X12406200Y-2453000D02*
X12507800Y-2453000D01*
X12457000Y-2656200D02*
X12457000Y-2757800D01*
X12406200Y-2707000D02*
X12507800Y-2707000D01*
X12711000Y-2402200D02*
X12711000Y-2503800D01*
X12660200Y-2453000D02*
X12761800Y-2453000D01*
X12711000Y-2656200D02*
X12711000Y-2757800D01*
X12660200Y-2707000D02*
X12761800Y-2707000D01*
X12965000Y-2402200D02*
X12965000Y-2503800D01*
X12914200Y-2453000D02*
X13015800Y-2453000D01*
X12965000Y-2656200D02*
X12965000Y-2757800D01*
X12914200Y-2707000D02*
X13015800Y-2707000D01*
X13173000Y-5362200D02*
X13173000Y-5463800D01*
X13122200Y-5413000D02*
X13223800Y-5413000D01*
X13427000Y-5362200D02*
X13427000Y-5463800D01*
X13376200Y-5413000D02*
X13477800Y-5413000D01*
X13635000Y-2480200D02*
X13635000Y-2581800D01*
X13584200Y-2531000D02*
X13685800Y-2531000D01*
X13889000Y-2480200D02*
X13889000Y-2581800D01*
X13838200Y-2531000D02*
X13939800Y-2531000D01*
X14143000Y-2480200D02*
X14143000Y-2581800D01*
X14092200Y-2531000D02*
X14193800Y-2531000D01*
X14808000Y-2489200D02*
X14808000Y-2590800D01*
X14757200Y-2540000D02*
X14858800Y-2540000D01*
X14808000Y-2743200D02*
X14808000Y-2844800D01*
X14757200Y-2794000D02*
X14858800Y-2794000D01*
X15062000Y-2489200D02*
X15062000Y-2590800D01*
X15011200Y-2540000D02*
X15112800Y-2540000D01*
X15062000Y-2743200D02*
X15062000Y-2844800D01*
X15011200Y-2794000D02*
X15112800Y-2794000D01*
X15824000Y-2456200D02*
X15824000Y-2557800D01*
X15773200Y-2507000D02*
X15874800Y-2507000D01*
X15824000Y-2710200D02*
X15824000Y-2811800D01*
X15773200Y-2761000D02*
X15874800Y-2761000D01*
X16078000Y-2456200D02*
X16078000Y-2557800D01*
X16027200Y-2507000D02*
X16128800Y-2507000D01*
X16078000Y-2710200D02*
X16078000Y-2811800D01*
X16027200Y-2761000D02*
X16128800Y-2761000D01*
X16332000Y-2456200D02*
X16332000Y-2557800D01*
X16281200Y-2507000D02*
X16382800Y-2507000D01*
X16332000Y-2710200D02*
X16332000Y-2811800D01*
X16281200Y-2761000D02*
X16382800Y-2761000D01*
X16586000Y-2456200D02*
X16586000Y-2557800D01*
X16535200Y-2507000D02*
X16636800Y-2507000D01*
X16586000Y-2710200D02*
X16586000Y-2811800D01*
X16535200Y-2761000D02*
X16636800Y-2761000D01*
X17399000Y-3327200D02*
X17399000Y-3428800D01*
X17348200Y-3378000D02*
X17449800Y-3378000D01*
X17399000Y-3581200D02*
X17399000Y-3682800D01*
X17348200Y-3632000D02*
X17449800Y-3632000D01*
X17399000Y-3835200D02*
X17399000Y-3936800D01*
X17348200Y-3886000D02*
X17449800Y-3886000D01*
X17399000Y-4089200D02*
X17399000Y-4190800D01*
X17348200Y-4140000D02*
X17449800Y-4140000D01*
X17399000Y-4343200D02*
X17399000Y-4444800D01*
X17348200Y-4394000D02*
X17449800Y-4394000D01*
X17399000Y-4597200D02*
X17399000Y-4698800D01*
X17348200Y-4648000D02*
X17449800Y-4648000D01*
X17399000Y-4851200D02*
X17399000Y-4952800D01*
X17348200Y-4902000D02*
X17449800Y-4902000D01*
X17399000Y-5105200D02*
X17399000Y-5206800D01*
X17348200Y-5156000D02*
X17449800Y-5156000D01*
X17399000Y-5359200D02*
X17399000Y-5460800D01*
X17348200Y-5410000D02*
X17449800Y-5410000D01*
X17399000Y-5613200D02*
X17399000Y-5714800D01*
X17348200Y-5664000D02*
X17449800Y-5664000D01*
X17437000Y-8003200D02*
X17437000Y-8104800D01*
X17386200Y-8054000D02*
X17487800Y-8054000D01*
X17437000Y-8257200D02*
X17437000Y-8358800D01*
X17386200Y-8308000D02*
X17487800Y-8308000D01*
X17437000Y-8511200D02*
X17437000Y-8612800D01*
X17386200Y-8562000D02*
X17487800Y-8562000D01*
X17437000Y-8765200D02*
X17437000Y-8866800D01*
X17386200Y-8816000D02*
X17487800Y-8816000D01*
X17437000Y-9019200D02*
X17437000Y-9120800D01*
X17386200Y-9070000D02*
X17487800Y-9070000D01*
X17437000Y-9273200D02*
X17437000Y-9374800D01*
X17386200Y-9324000D02*
X17487800Y-9324000D01*
X17437000Y-9527200D02*
X17437000Y-9628800D01*
X17386200Y-9578000D02*
X17487800Y-9578000D01*
X17437000Y-9781200D02*
X17437000Y-9882800D01*
X17386200Y-9832000D02*
X17487800Y-9832000D01*
X17437000Y-10035200D02*
X17437000Y-10136800D01*
X17386200Y-10086000D02*
X17487800Y-10086000D01*
X17437000Y-10289200D02*
X17437000Y-10390800D01*
X17386200Y-10340000D02*
X17487800Y-10340000D01*
X17647000Y-6592200D02*
X17647000Y-6693800D01*
X17596200Y-6643000D02*
X17697800Y-6643000D01*
X17647000Y-6846200D02*
X17647000Y-6947800D01*
X17596200Y-6897000D02*
X17697800Y-6897000D01*
X17647000Y-7100200D02*
X17647000Y-7201800D01*
X17596200Y-7151000D02*
X17697800Y-7151000D01*
X17647000Y-7354200D02*
X17647000Y-7455800D01*
X17596200Y-7405000D02*
X17697800Y-7405000D01*
X17653000Y-3327200D02*
X17653000Y-3428800D01*
X17602200Y-3378000D02*
X17703800Y-3378000D01*
X17653000Y-3581200D02*
X17653000Y-3682800D01*
X17602200Y-3632000D02*
X17703800Y-3632000D01*
X17653000Y-3835200D02*
X17653000Y-3936800D01*
X17602200Y-3886000D02*
X17703800Y-3886000D01*
X17653000Y-4089200D02*
X17653000Y-4190800D01*
X17602200Y-4140000D02*
X17703800Y-4140000D01*
X17653000Y-4343200D02*
X17653000Y-4444800D01*
X17602200Y-4394000D02*
X17703800Y-4394000D01*
X17653000Y-4597200D02*
X17653000Y-4698800D01*
X17602200Y-4648000D02*
X17703800Y-4648000D01*
X17653000Y-4851200D02*
X17653000Y-4952800D01*
X17602200Y-4902000D02*
X17703800Y-4902000D01*
X17653000Y-5105200D02*
X17653000Y-5206800D01*
X17602200Y-5156000D02*
X17703800Y-5156000D01*
X17653000Y-5359200D02*
X17653000Y-5460800D01*
X17602200Y-5410000D02*
X17703800Y-5410000D01*
X17653000Y-5613200D02*
X17653000Y-5714800D01*
X17602200Y-5664000D02*
X17703800Y-5664000D01*
X17691000Y-8003200D02*
X17691000Y-8104800D01*
X17640200Y-8054000D02*
X17741800Y-8054000D01*
X17691000Y-8257200D02*
X17691000Y-8358800D01*
X17640200Y-8308000D02*
X17741800Y-8308000D01*
X17691000Y-8511200D02*
X17691000Y-8612800D01*
X17640200Y-8562000D02*
X17741800Y-8562000D01*
X17691000Y-8765200D02*
X17691000Y-8866800D01*
X17640200Y-8816000D02*
X17741800Y-8816000D01*
X17691000Y-9019200D02*
X17691000Y-9120800D01*
X17640200Y-9070000D02*
X17741800Y-9070000D01*
X17691000Y-9273200D02*
X17691000Y-9374800D01*
X17640200Y-9324000D02*
X17741800Y-9324000D01*
X17691000Y-9527200D02*
X17691000Y-9628800D01*
X17640200Y-9578000D02*
X17741800Y-9578000D01*
X17691000Y-9781200D02*
X17691000Y-9882800D01*
X17640200Y-9832000D02*
X17741800Y-9832000D01*
X17691000Y-10035200D02*
X17691000Y-10136800D01*
X17640200Y-10086000D02*
X17741800Y-10086000D01*
X17691000Y-10289200D02*
X17691000Y-10390800D01*
X17640200Y-10340000D02*
X17741800Y-10340000D01*
X8695671Y-4990565D02*
X8695671Y-4863223D01*
X8568329Y-4863223D01*
X8568329Y-4990565D01*
X8695671Y-4990565D01*
X8695671Y-5386551D02*
X8695671Y-5259209D01*
X8568329Y-5259209D01*
X8568329Y-5386551D01*
X8695671Y-5386551D01*
X8695671Y-5782791D02*
X8695671Y-5655449D01*
X8568329Y-5655449D01*
X8568329Y-5782791D01*
X8695671Y-5782791D01*
X8695671Y-6178777D02*
X8695671Y-6051435D01*
X8568329Y-6051435D01*
X8568329Y-6178777D01*
X8695671Y-6178777D01*
X15894565Y-11588671D02*
X15894565Y-11461329D01*
X15767223Y-11461329D01*
X15767223Y-11588671D01*
X15894565Y-11588671D01*
X16290551Y-11588671D02*
X16290551Y-11461329D01*
X16163209Y-11461329D01*
X16163209Y-11588671D01*
X16290551Y-11588671D01*
X16686791Y-11588671D02*
X16686791Y-11461329D01*
X16559449Y-11461329D01*
X16559449Y-11588671D01*
X16686791Y-11588671D01*
X17082777Y-11588671D02*
X17082777Y-11461329D01*
X16955435Y-11461329D01*
X16955435Y-11588671D01*
X17082777Y-11588671D01*
D13*
X8263928Y-12673214D02*
X8263928Y-12373214D01*
X8335357Y-12373214D01*
X8378214Y-12387500D01*
X8406786Y-12416071D01*
X8421071Y-12444643D01*
X8435357Y-12501786D01*
X8435357Y-12544643D01*
X8421071Y-12601786D01*
X8406786Y-12630357D01*
X8378214Y-12658929D01*
X8335357Y-12673214D01*
X8263928Y-12673214D01*
X8563929Y-12673214D02*
X8563929Y-12473214D01*
X8563929Y-12530357D02*
X8578214Y-12501786D01*
X8592500Y-12487500D01*
X8621071Y-12473214D01*
X8649643Y-12473214D01*
X8749643Y-12673214D02*
X8749643Y-12473214D01*
X8749643Y-12373214D02*
X8735357Y-12387500D01*
X8749643Y-12401786D01*
X8763929Y-12387500D01*
X8749643Y-12373214D01*
X8749643Y-12401786D01*
X8935357Y-12673214D02*
X8906786Y-12658929D01*
X8892500Y-12630357D01*
X8892500Y-12373214D01*
X9092500Y-12673214D02*
X9063929Y-12658929D01*
X9049643Y-12630357D01*
X9049643Y-12373214D01*
X9435357Y-12673214D02*
X9435357Y-12373214D01*
X9535357Y-12587500D01*
X9635357Y-12373214D01*
X9635357Y-12673214D01*
X9906786Y-12673214D02*
X9906786Y-12516071D01*
X9892500Y-12487500D01*
X9863929Y-12473214D01*
X9806786Y-12473214D01*
X9778214Y-12487500D01*
X9906786Y-12658929D02*
X9878214Y-12673214D01*
X9806786Y-12673214D01*
X9778214Y-12658929D01*
X9763929Y-12630357D01*
X9763929Y-12601786D01*
X9778214Y-12573214D01*
X9806786Y-12558929D01*
X9878214Y-12558929D01*
X9906786Y-12544643D01*
X10049643Y-12473214D02*
X10049643Y-12773214D01*
X10049643Y-12487500D02*
X10078214Y-12473214D01*
X10135357Y-12473214D01*
X10163929Y-12487500D01*
X10178214Y-12501786D01*
X10192500Y-12530357D01*
X10192500Y-12616071D01*
X10178214Y-12644643D01*
X10163929Y-12658929D01*
X10135357Y-12673214D01*
X10078214Y-12673214D01*
X10049643Y-12658929D01*
X10321071Y-12644643D02*
X10335357Y-12658929D01*
X10321071Y-12673214D01*
X10306786Y-12658929D01*
X10321071Y-12644643D01*
X10321071Y-12673214D01*
X10321071Y-12487500D02*
X10335357Y-12501786D01*
X10321071Y-12516071D01*
X10306786Y-12501786D01*
X10321071Y-12487500D01*
X10321071Y-12516071D01*
X7952500Y-13147500D02*
X7992500Y-13187500D01*
X7992500Y-13147500D02*
X7952500Y-13187500D01*
X8321071Y-13003214D02*
X8349643Y-13003214D01*
X8378214Y-13017500D01*
X8392500Y-13031786D01*
X8406786Y-13060357D01*
X8421071Y-13117500D01*
X8421071Y-13188929D01*
X8406786Y-13246071D01*
X8392500Y-13274643D01*
X8378214Y-13288929D01*
X8349643Y-13303214D01*
X8321071Y-13303214D01*
X8292500Y-13288929D01*
X8278214Y-13274643D01*
X8263928Y-13246071D01*
X8249643Y-13188929D01*
X8249643Y-13117500D01*
X8263928Y-13060357D01*
X8278214Y-13031786D01*
X8292500Y-13017500D01*
X8321071Y-13003214D01*
X8549643Y-13274643D02*
X8563929Y-13288929D01*
X8549643Y-13303214D01*
X8535357Y-13288929D01*
X8549643Y-13274643D01*
X8549643Y-13303214D01*
X8821071Y-13103214D02*
X8821071Y-13303214D01*
X8749643Y-12988929D02*
X8678214Y-13203214D01*
X8863928Y-13203214D01*
X9035357Y-13003214D02*
X9063929Y-13003214D01*
X9092500Y-13017500D01*
X9106786Y-13031786D01*
X9121071Y-13060357D01*
X9135357Y-13117500D01*
X9135357Y-13188929D01*
X9121071Y-13246071D01*
X9106786Y-13274643D01*
X9092500Y-13288929D01*
X9063929Y-13303214D01*
X9035357Y-13303214D01*
X9006786Y-13288929D01*
X8992500Y-13274643D01*
X8978214Y-13246071D01*
X8963929Y-13188929D01*
X8963929Y-13117500D01*
X8978214Y-13060357D01*
X8992500Y-13031786D01*
X9006786Y-13017500D01*
X9035357Y-13003214D01*
X9263929Y-13303214D02*
X9263929Y-13103214D01*
X9263929Y-13131786D02*
X9278214Y-13117500D01*
X9306786Y-13103214D01*
X9349643Y-13103214D01*
X9378214Y-13117500D01*
X9392500Y-13146071D01*
X9392500Y-13303214D01*
X9392500Y-13146071D02*
X9406786Y-13117500D01*
X9435357Y-13103214D01*
X9478214Y-13103214D01*
X9506786Y-13117500D01*
X9521071Y-13146071D01*
X9521071Y-13303214D01*
X9663929Y-13303214D02*
X9663929Y-13103214D01*
X9663929Y-13131786D02*
X9678214Y-13117500D01*
X9706786Y-13103214D01*
X9749643Y-13103214D01*
X9778214Y-13117500D01*
X9792500Y-13146071D01*
X9792500Y-13303214D01*
X9792500Y-13146071D02*
X9806786Y-13117500D01*
X9835357Y-13103214D01*
X9878214Y-13103214D01*
X9906786Y-13117500D01*
X9921071Y-13146071D01*
X9921071Y-13303214D01*
X10506786Y-12988929D02*
X10249643Y-13374643D01*
X10892500Y-13003214D02*
X10921071Y-13003214D01*
X10949643Y-13017500D01*
X10963928Y-13031786D01*
X10978214Y-13060357D01*
X10992500Y-13117500D01*
X10992500Y-13188929D01*
X10978214Y-13246071D01*
X10963928Y-13274643D01*
X10949643Y-13288929D01*
X10921071Y-13303214D01*
X10892500Y-13303214D01*
X10863928Y-13288929D01*
X10849643Y-13274643D01*
X10835357Y-13246071D01*
X10821071Y-13188929D01*
X10821071Y-13117500D01*
X10835357Y-13060357D01*
X10849643Y-13031786D01*
X10863928Y-13017500D01*
X10892500Y-13003214D01*
X11121071Y-13274643D02*
X11135357Y-13288929D01*
X11121071Y-13303214D01*
X11106786Y-13288929D01*
X11121071Y-13274643D01*
X11121071Y-13303214D01*
X11321071Y-13003214D02*
X11349643Y-13003214D01*
X11378214Y-13017500D01*
X11392500Y-13031786D01*
X11406785Y-13060357D01*
X11421071Y-13117500D01*
X11421071Y-13188929D01*
X11406785Y-13246071D01*
X11392500Y-13274643D01*
X11378214Y-13288929D01*
X11349643Y-13303214D01*
X11321071Y-13303214D01*
X11292500Y-13288929D01*
X11278214Y-13274643D01*
X11263928Y-13246071D01*
X11249643Y-13188929D01*
X11249643Y-13117500D01*
X11263928Y-13060357D01*
X11278214Y-13031786D01*
X11292500Y-13017500D01*
X11321071Y-13003214D01*
X11706785Y-13303214D02*
X11535357Y-13303214D01*
X11621071Y-13303214D02*
X11621071Y-13003214D01*
X11592500Y-13046071D01*
X11563928Y-13074643D01*
X11535357Y-13088929D01*
X11963928Y-13003214D02*
X11906785Y-13003214D01*
X11878214Y-13017500D01*
X11863928Y-13031786D01*
X11835357Y-13074643D01*
X11821071Y-13131786D01*
X11821071Y-13246071D01*
X11835357Y-13274643D01*
X11849643Y-13288929D01*
X11878214Y-13303214D01*
X11935357Y-13303214D01*
X11963928Y-13288929D01*
X11978214Y-13274643D01*
X11992500Y-13246071D01*
X11992500Y-13174643D01*
X11978214Y-13146071D01*
X11963928Y-13131786D01*
X11935357Y-13117500D01*
X11878214Y-13117500D01*
X11849643Y-13131786D01*
X11835357Y-13146071D01*
X11821071Y-13174643D01*
X12106786Y-13003214D02*
X12106786Y-13060357D01*
X12221071Y-13003214D02*
X12221071Y-13060357D01*
X12663928Y-13417500D02*
X12649643Y-13403214D01*
X12621071Y-13360357D01*
X12606785Y-13331786D01*
X12592500Y-13288929D01*
X12578214Y-13217500D01*
X12578214Y-13160357D01*
X12592500Y-13088929D01*
X12606785Y-13046071D01*
X12621071Y-13017500D01*
X12649643Y-12974643D01*
X12663928Y-12960357D01*
X12935357Y-13303214D02*
X12763928Y-13303214D01*
X12849643Y-13303214D02*
X12849643Y-13003214D01*
X12821071Y-13046071D01*
X12792500Y-13074643D01*
X12763928Y-13088929D01*
X13192500Y-13103214D02*
X13192500Y-13303214D01*
X13121071Y-12988929D02*
X13049643Y-13203214D01*
X13235357Y-13203214D01*
X13578214Y-13303214D02*
X13578214Y-13003214D01*
X13706785Y-13303214D02*
X13706785Y-13146071D01*
X13692500Y-13117500D01*
X13663928Y-13103214D01*
X13621071Y-13103214D01*
X13592500Y-13117500D01*
X13578214Y-13131786D01*
X13892500Y-13303214D02*
X13863928Y-13288929D01*
X13849643Y-13274643D01*
X13835357Y-13246071D01*
X13835357Y-13160357D01*
X13849643Y-13131786D01*
X13863928Y-13117500D01*
X13892500Y-13103214D01*
X13935357Y-13103214D01*
X13963928Y-13117500D01*
X13978214Y-13131786D01*
X13992500Y-13160357D01*
X13992500Y-13246071D01*
X13978214Y-13274643D01*
X13963928Y-13288929D01*
X13935357Y-13303214D01*
X13892500Y-13303214D01*
X14163928Y-13303214D02*
X14135357Y-13288929D01*
X14121071Y-13260357D01*
X14121071Y-13003214D01*
X14392500Y-13288929D02*
X14363928Y-13303214D01*
X14306786Y-13303214D01*
X14278214Y-13288929D01*
X14263928Y-13260357D01*
X14263928Y-13146071D01*
X14278214Y-13117500D01*
X14306786Y-13103214D01*
X14363928Y-13103214D01*
X14392500Y-13117500D01*
X14406786Y-13146071D01*
X14406786Y-13174643D01*
X14263928Y-13203214D01*
X14521071Y-13288929D02*
X14549643Y-13303214D01*
X14606786Y-13303214D01*
X14635357Y-13288929D01*
X14649643Y-13260357D01*
X14649643Y-13246071D01*
X14635357Y-13217500D01*
X14606786Y-13203214D01*
X14563928Y-13203214D01*
X14535357Y-13188929D01*
X14521071Y-13160357D01*
X14521071Y-13146071D01*
X14535357Y-13117500D01*
X14563928Y-13103214D01*
X14606786Y-13103214D01*
X14635357Y-13117500D01*
X14749643Y-13417500D02*
X14763928Y-13403214D01*
X14792500Y-13360357D01*
X14806786Y-13331786D01*
X14821071Y-13288929D01*
X14835357Y-13217500D01*
X14835357Y-13160357D01*
X14821071Y-13088929D01*
X14806786Y-13046071D01*
X14792500Y-13017500D01*
X14763928Y-12974643D01*
X14749643Y-12960357D01*
X7992500Y-13563500D02*
G75*
G03X7992500Y-13563500I-25000J0D01*
G01*
X8321071Y-13399214D02*
X8349643Y-13399214D01*
X8378214Y-13413500D01*
X8392500Y-13427786D01*
X8406786Y-13456357D01*
X8421071Y-13513500D01*
X8421071Y-13584929D01*
X8406786Y-13642071D01*
X8392500Y-13670643D01*
X8378214Y-13684929D01*
X8349643Y-13699214D01*
X8321071Y-13699214D01*
X8292500Y-13684929D01*
X8278214Y-13670643D01*
X8263928Y-13642071D01*
X8249643Y-13584929D01*
X8249643Y-13513500D01*
X8263928Y-13456357D01*
X8278214Y-13427786D01*
X8292500Y-13413500D01*
X8321071Y-13399214D01*
X8549643Y-13670643D02*
X8563929Y-13684929D01*
X8549643Y-13699214D01*
X8535357Y-13684929D01*
X8549643Y-13670643D01*
X8549643Y-13699214D01*
X8835357Y-13399214D02*
X8692500Y-13399214D01*
X8678214Y-13542071D01*
X8692500Y-13527786D01*
X8721071Y-13513500D01*
X8792500Y-13513500D01*
X8821071Y-13527786D01*
X8835357Y-13542071D01*
X8849643Y-13570643D01*
X8849643Y-13642071D01*
X8835357Y-13670643D01*
X8821071Y-13684929D01*
X8792500Y-13699214D01*
X8721071Y-13699214D01*
X8692500Y-13684929D01*
X8678214Y-13670643D01*
X9035357Y-13399214D02*
X9063929Y-13399214D01*
X9092500Y-13413500D01*
X9106786Y-13427786D01*
X9121071Y-13456357D01*
X9135357Y-13513500D01*
X9135357Y-13584929D01*
X9121071Y-13642071D01*
X9106786Y-13670643D01*
X9092500Y-13684929D01*
X9063929Y-13699214D01*
X9035357Y-13699214D01*
X9006786Y-13684929D01*
X8992500Y-13670643D01*
X8978214Y-13642071D01*
X8963929Y-13584929D01*
X8963929Y-13513500D01*
X8978214Y-13456357D01*
X8992500Y-13427786D01*
X9006786Y-13413500D01*
X9035357Y-13399214D01*
X9263929Y-13699214D02*
X9263929Y-13499214D01*
X9263929Y-13527786D02*
X9278214Y-13513500D01*
X9306786Y-13499214D01*
X9349643Y-13499214D01*
X9378214Y-13513500D01*
X9392500Y-13542071D01*
X9392500Y-13699214D01*
X9392500Y-13542071D02*
X9406786Y-13513500D01*
X9435357Y-13499214D01*
X9478214Y-13499214D01*
X9506786Y-13513500D01*
X9521071Y-13542071D01*
X9521071Y-13699214D01*
X9663929Y-13699214D02*
X9663929Y-13499214D01*
X9663929Y-13527786D02*
X9678214Y-13513500D01*
X9706786Y-13499214D01*
X9749643Y-13499214D01*
X9778214Y-13513500D01*
X9792500Y-13542071D01*
X9792500Y-13699214D01*
X9792500Y-13542071D02*
X9806786Y-13513500D01*
X9835357Y-13499214D01*
X9878214Y-13499214D01*
X9906786Y-13513500D01*
X9921071Y-13542071D01*
X9921071Y-13699214D01*
X10506786Y-13384929D02*
X10249643Y-13770643D01*
X10892500Y-13399214D02*
X10921071Y-13399214D01*
X10949643Y-13413500D01*
X10963928Y-13427786D01*
X10978214Y-13456357D01*
X10992500Y-13513500D01*
X10992500Y-13584929D01*
X10978214Y-13642071D01*
X10963928Y-13670643D01*
X10949643Y-13684929D01*
X10921071Y-13699214D01*
X10892500Y-13699214D01*
X10863928Y-13684929D01*
X10849643Y-13670643D01*
X10835357Y-13642071D01*
X10821071Y-13584929D01*
X10821071Y-13513500D01*
X10835357Y-13456357D01*
X10849643Y-13427786D01*
X10863928Y-13413500D01*
X10892500Y-13399214D01*
X11121071Y-13670643D02*
X11135357Y-13684929D01*
X11121071Y-13699214D01*
X11106786Y-13684929D01*
X11121071Y-13670643D01*
X11121071Y-13699214D01*
X11321071Y-13399214D02*
X11349643Y-13399214D01*
X11378214Y-13413500D01*
X11392500Y-13427786D01*
X11406785Y-13456357D01*
X11421071Y-13513500D01*
X11421071Y-13584929D01*
X11406785Y-13642071D01*
X11392500Y-13670643D01*
X11378214Y-13684929D01*
X11349643Y-13699214D01*
X11321071Y-13699214D01*
X11292500Y-13684929D01*
X11278214Y-13670643D01*
X11263928Y-13642071D01*
X11249643Y-13584929D01*
X11249643Y-13513500D01*
X11263928Y-13456357D01*
X11278214Y-13427786D01*
X11292500Y-13413500D01*
X11321071Y-13399214D01*
X11535357Y-13427786D02*
X11549643Y-13413500D01*
X11578214Y-13399214D01*
X11649643Y-13399214D01*
X11678214Y-13413500D01*
X11692500Y-13427786D01*
X11706785Y-13456357D01*
X11706785Y-13484929D01*
X11692500Y-13527786D01*
X11521071Y-13699214D01*
X11706785Y-13699214D01*
X11892500Y-13399214D02*
X11921071Y-13399214D01*
X11949643Y-13413500D01*
X11963928Y-13427786D01*
X11978214Y-13456357D01*
X11992500Y-13513500D01*
X11992500Y-13584929D01*
X11978214Y-13642071D01*
X11963928Y-13670643D01*
X11949643Y-13684929D01*
X11921071Y-13699214D01*
X11892500Y-13699214D01*
X11863928Y-13684929D01*
X11849643Y-13670643D01*
X11835357Y-13642071D01*
X11821071Y-13584929D01*
X11821071Y-13513500D01*
X11835357Y-13456357D01*
X11849643Y-13427786D01*
X11863928Y-13413500D01*
X11892500Y-13399214D01*
X12106786Y-13399214D02*
X12106786Y-13456357D01*
X12221071Y-13399214D02*
X12221071Y-13456357D01*
X12663928Y-13813500D02*
X12649643Y-13799214D01*
X12621071Y-13756357D01*
X12606785Y-13727786D01*
X12592500Y-13684929D01*
X12578214Y-13613500D01*
X12578214Y-13556357D01*
X12592500Y-13484929D01*
X12606785Y-13442071D01*
X12621071Y-13413500D01*
X12649643Y-13370643D01*
X12663928Y-13356357D01*
X12935357Y-13699214D02*
X12763928Y-13699214D01*
X12849643Y-13699214D02*
X12849643Y-13399214D01*
X12821071Y-13442071D01*
X12792500Y-13470643D01*
X12763928Y-13484929D01*
X13221071Y-13699214D02*
X13049643Y-13699214D01*
X13135357Y-13699214D02*
X13135357Y-13399214D01*
X13106785Y-13442071D01*
X13078214Y-13470643D01*
X13049643Y-13484929D01*
X13578214Y-13699214D02*
X13578214Y-13399214D01*
X13706785Y-13699214D02*
X13706785Y-13542071D01*
X13692500Y-13513500D01*
X13663928Y-13499214D01*
X13621071Y-13499214D01*
X13592500Y-13513500D01*
X13578214Y-13527786D01*
X13892500Y-13699214D02*
X13863928Y-13684929D01*
X13849643Y-13670643D01*
X13835357Y-13642071D01*
X13835357Y-13556357D01*
X13849643Y-13527786D01*
X13863928Y-13513500D01*
X13892500Y-13499214D01*
X13935357Y-13499214D01*
X13963928Y-13513500D01*
X13978214Y-13527786D01*
X13992500Y-13556357D01*
X13992500Y-13642071D01*
X13978214Y-13670643D01*
X13963928Y-13684929D01*
X13935357Y-13699214D01*
X13892500Y-13699214D01*
X14163928Y-13699214D02*
X14135357Y-13684929D01*
X14121071Y-13656357D01*
X14121071Y-13399214D01*
X14392500Y-13684929D02*
X14363928Y-13699214D01*
X14306786Y-13699214D01*
X14278214Y-13684929D01*
X14263928Y-13656357D01*
X14263928Y-13542071D01*
X14278214Y-13513500D01*
X14306786Y-13499214D01*
X14363928Y-13499214D01*
X14392500Y-13513500D01*
X14406786Y-13542071D01*
X14406786Y-13570643D01*
X14263928Y-13599214D01*
X14521071Y-13684929D02*
X14549643Y-13699214D01*
X14606786Y-13699214D01*
X14635357Y-13684929D01*
X14649643Y-13656357D01*
X14649643Y-13642071D01*
X14635357Y-13613500D01*
X14606786Y-13599214D01*
X14563928Y-13599214D01*
X14535357Y-13584929D01*
X14521071Y-13556357D01*
X14521071Y-13542071D01*
X14535357Y-13513500D01*
X14563928Y-13499214D01*
X14606786Y-13499214D01*
X14635357Y-13513500D01*
X14749643Y-13813500D02*
X14763928Y-13799214D01*
X14792500Y-13756357D01*
X14806786Y-13727786D01*
X14821071Y-13684929D01*
X14835357Y-13613500D01*
X14835357Y-13556357D01*
X14821071Y-13484929D01*
X14806786Y-13442071D01*
X14792500Y-13413500D01*
X14763928Y-13370643D01*
X14749643Y-13356357D01*
X7941700Y-13908700D02*
X7941700Y-14010300D01*
X7890900Y-13959500D02*
X7992500Y-13959500D01*
X8421071Y-14095214D02*
X8249643Y-14095214D01*
X8335357Y-14095214D02*
X8335357Y-13795214D01*
X8306786Y-13838071D01*
X8278214Y-13866643D01*
X8249643Y-13880929D01*
X8549643Y-14066643D02*
X8563929Y-14080929D01*
X8549643Y-14095214D01*
X8535357Y-14080929D01*
X8549643Y-14066643D01*
X8549643Y-14095214D01*
X8749643Y-13795214D02*
X8778214Y-13795214D01*
X8806786Y-13809500D01*
X8821071Y-13823786D01*
X8835357Y-13852357D01*
X8849643Y-13909500D01*
X8849643Y-13980929D01*
X8835357Y-14038071D01*
X8821071Y-14066643D01*
X8806786Y-14080929D01*
X8778214Y-14095214D01*
X8749643Y-14095214D01*
X8721071Y-14080929D01*
X8706786Y-14066643D01*
X8692500Y-14038071D01*
X8678214Y-13980929D01*
X8678214Y-13909500D01*
X8692500Y-13852357D01*
X8706786Y-13823786D01*
X8721071Y-13809500D01*
X8749643Y-13795214D01*
X8963929Y-13823786D02*
X8978214Y-13809500D01*
X9006786Y-13795214D01*
X9078214Y-13795214D01*
X9106786Y-13809500D01*
X9121071Y-13823786D01*
X9135357Y-13852357D01*
X9135357Y-13880929D01*
X9121071Y-13923786D01*
X8949643Y-14095214D01*
X9135357Y-14095214D01*
X9263929Y-14095214D02*
X9263929Y-13895214D01*
X9263929Y-13923786D02*
X9278214Y-13909500D01*
X9306786Y-13895214D01*
X9349643Y-13895214D01*
X9378214Y-13909500D01*
X9392500Y-13938071D01*
X9392500Y-14095214D01*
X9392500Y-13938071D02*
X9406786Y-13909500D01*
X9435357Y-13895214D01*
X9478214Y-13895214D01*
X9506786Y-13909500D01*
X9521071Y-13938071D01*
X9521071Y-14095214D01*
X9663929Y-14095214D02*
X9663929Y-13895214D01*
X9663929Y-13923786D02*
X9678214Y-13909500D01*
X9706786Y-13895214D01*
X9749643Y-13895214D01*
X9778214Y-13909500D01*
X9792500Y-13938071D01*
X9792500Y-14095214D01*
X9792500Y-13938071D02*
X9806786Y-13909500D01*
X9835357Y-13895214D01*
X9878214Y-13895214D01*
X9906786Y-13909500D01*
X9921071Y-13938071D01*
X9921071Y-14095214D01*
X10506786Y-13780929D02*
X10249643Y-14166643D01*
X10892500Y-13795214D02*
X10921071Y-13795214D01*
X10949643Y-13809500D01*
X10963928Y-13823786D01*
X10978214Y-13852357D01*
X10992500Y-13909500D01*
X10992500Y-13980929D01*
X10978214Y-14038071D01*
X10963928Y-14066643D01*
X10949643Y-14080929D01*
X10921071Y-14095214D01*
X10892500Y-14095214D01*
X10863928Y-14080929D01*
X10849643Y-14066643D01*
X10835357Y-14038071D01*
X10821071Y-13980929D01*
X10821071Y-13909500D01*
X10835357Y-13852357D01*
X10849643Y-13823786D01*
X10863928Y-13809500D01*
X10892500Y-13795214D01*
X11121071Y-14066643D02*
X11135357Y-14080929D01*
X11121071Y-14095214D01*
X11106786Y-14080929D01*
X11121071Y-14066643D01*
X11121071Y-14095214D01*
X11321071Y-13795214D02*
X11349643Y-13795214D01*
X11378214Y-13809500D01*
X11392500Y-13823786D01*
X11406785Y-13852357D01*
X11421071Y-13909500D01*
X11421071Y-13980929D01*
X11406785Y-14038071D01*
X11392500Y-14066643D01*
X11378214Y-14080929D01*
X11349643Y-14095214D01*
X11321071Y-14095214D01*
X11292500Y-14080929D01*
X11278214Y-14066643D01*
X11263928Y-14038071D01*
X11249643Y-13980929D01*
X11249643Y-13909500D01*
X11263928Y-13852357D01*
X11278214Y-13823786D01*
X11292500Y-13809500D01*
X11321071Y-13795214D01*
X11678214Y-13895214D02*
X11678214Y-14095214D01*
X11606785Y-13780929D02*
X11535357Y-13995214D01*
X11721071Y-13995214D01*
X11892500Y-13795214D02*
X11921071Y-13795214D01*
X11949643Y-13809500D01*
X11963928Y-13823786D01*
X11978214Y-13852357D01*
X11992500Y-13909500D01*
X11992500Y-13980929D01*
X11978214Y-14038071D01*
X11963928Y-14066643D01*
X11949643Y-14080929D01*
X11921071Y-14095214D01*
X11892500Y-14095214D01*
X11863928Y-14080929D01*
X11849643Y-14066643D01*
X11835357Y-14038071D01*
X11821071Y-13980929D01*
X11821071Y-13909500D01*
X11835357Y-13852357D01*
X11849643Y-13823786D01*
X11863928Y-13809500D01*
X11892500Y-13795214D01*
X12106786Y-13795214D02*
X12106786Y-13852357D01*
X12221071Y-13795214D02*
X12221071Y-13852357D01*
X12663928Y-14209500D02*
X12649643Y-14195214D01*
X12621071Y-14152357D01*
X12606785Y-14123786D01*
X12592500Y-14080929D01*
X12578214Y-14009500D01*
X12578214Y-13952357D01*
X12592500Y-13880929D01*
X12606785Y-13838071D01*
X12621071Y-13809500D01*
X12649643Y-13766643D01*
X12663928Y-13752357D01*
X12821071Y-13923786D02*
X12792500Y-13909500D01*
X12778214Y-13895214D01*
X12763928Y-13866643D01*
X12763928Y-13852357D01*
X12778214Y-13823786D01*
X12792500Y-13809500D01*
X12821071Y-13795214D01*
X12878214Y-13795214D01*
X12906785Y-13809500D01*
X12921071Y-13823786D01*
X12935357Y-13852357D01*
X12935357Y-13866643D01*
X12921071Y-13895214D01*
X12906785Y-13909500D01*
X12878214Y-13923786D01*
X12821071Y-13923786D01*
X12792500Y-13938071D01*
X12778214Y-13952357D01*
X12763928Y-13980929D01*
X12763928Y-14038071D01*
X12778214Y-14066643D01*
X12792500Y-14080929D01*
X12821071Y-14095214D01*
X12878214Y-14095214D01*
X12906785Y-14080929D01*
X12921071Y-14066643D01*
X12935357Y-14038071D01*
X12935357Y-13980929D01*
X12921071Y-13952357D01*
X12906785Y-13938071D01*
X12878214Y-13923786D01*
X13206785Y-13795214D02*
X13063928Y-13795214D01*
X13049643Y-13938071D01*
X13063928Y-13923786D01*
X13092500Y-13909500D01*
X13163928Y-13909500D01*
X13192500Y-13923786D01*
X13206785Y-13938071D01*
X13221071Y-13966643D01*
X13221071Y-14038071D01*
X13206785Y-14066643D01*
X13192500Y-14080929D01*
X13163928Y-14095214D01*
X13092500Y-14095214D01*
X13063928Y-14080929D01*
X13049643Y-14066643D01*
X13578214Y-14095214D02*
X13578214Y-13795214D01*
X13706785Y-14095214D02*
X13706785Y-13938071D01*
X13692500Y-13909500D01*
X13663928Y-13895214D01*
X13621071Y-13895214D01*
X13592500Y-13909500D01*
X13578214Y-13923786D01*
X13892500Y-14095214D02*
X13863928Y-14080929D01*
X13849643Y-14066643D01*
X13835357Y-14038071D01*
X13835357Y-13952357D01*
X13849643Y-13923786D01*
X13863928Y-13909500D01*
X13892500Y-13895214D01*
X13935357Y-13895214D01*
X13963928Y-13909500D01*
X13978214Y-13923786D01*
X13992500Y-13952357D01*
X13992500Y-14038071D01*
X13978214Y-14066643D01*
X13963928Y-14080929D01*
X13935357Y-14095214D01*
X13892500Y-14095214D01*
X14163928Y-14095214D02*
X14135357Y-14080929D01*
X14121071Y-14052357D01*
X14121071Y-13795214D01*
X14392500Y-14080929D02*
X14363928Y-14095214D01*
X14306786Y-14095214D01*
X14278214Y-14080929D01*
X14263928Y-14052357D01*
X14263928Y-13938071D01*
X14278214Y-13909500D01*
X14306786Y-13895214D01*
X14363928Y-13895214D01*
X14392500Y-13909500D01*
X14406786Y-13938071D01*
X14406786Y-13966643D01*
X14263928Y-13995214D01*
X14521071Y-14080929D02*
X14549643Y-14095214D01*
X14606786Y-14095214D01*
X14635357Y-14080929D01*
X14649643Y-14052357D01*
X14649643Y-14038071D01*
X14635357Y-14009500D01*
X14606786Y-13995214D01*
X14563928Y-13995214D01*
X14535357Y-13980929D01*
X14521071Y-13952357D01*
X14521071Y-13938071D01*
X14535357Y-13909500D01*
X14563928Y-13895214D01*
X14606786Y-13895214D01*
X14635357Y-13909500D01*
X14749643Y-14209500D02*
X14763928Y-14195214D01*
X14792500Y-14152357D01*
X14806786Y-14123786D01*
X14821071Y-14080929D01*
X14835357Y-14009500D01*
X14835357Y-13952357D01*
X14821071Y-13880929D01*
X14806786Y-13838071D01*
X14792500Y-13809500D01*
X14763928Y-13766643D01*
X14749643Y-13752357D01*
X7966127Y-14419171D02*
X7966127Y-14291829D01*
X7838786Y-14291829D01*
X7838786Y-14419171D01*
X7966127Y-14419171D01*
X8421071Y-14491214D02*
X8249643Y-14491214D01*
X8335357Y-14491214D02*
X8335357Y-14191214D01*
X8306786Y-14234071D01*
X8278214Y-14262643D01*
X8249643Y-14276929D01*
X8549643Y-14462643D02*
X8563929Y-14476929D01*
X8549643Y-14491214D01*
X8535357Y-14476929D01*
X8549643Y-14462643D01*
X8549643Y-14491214D01*
X8735357Y-14319786D02*
X8706786Y-14305500D01*
X8692500Y-14291214D01*
X8678214Y-14262643D01*
X8678214Y-14248357D01*
X8692500Y-14219786D01*
X8706786Y-14205500D01*
X8735357Y-14191214D01*
X8792500Y-14191214D01*
X8821071Y-14205500D01*
X8835357Y-14219786D01*
X8849643Y-14248357D01*
X8849643Y-14262643D01*
X8835357Y-14291214D01*
X8821071Y-14305500D01*
X8792500Y-14319786D01*
X8735357Y-14319786D01*
X8706786Y-14334071D01*
X8692500Y-14348357D01*
X8678214Y-14376929D01*
X8678214Y-14434071D01*
X8692500Y-14462643D01*
X8706786Y-14476929D01*
X8735357Y-14491214D01*
X8792500Y-14491214D01*
X8821071Y-14476929D01*
X8835357Y-14462643D01*
X8849643Y-14434071D01*
X8849643Y-14376929D01*
X8835357Y-14348357D01*
X8821071Y-14334071D01*
X8792500Y-14319786D01*
X9035357Y-14191214D02*
X9063929Y-14191214D01*
X9092500Y-14205500D01*
X9106786Y-14219786D01*
X9121071Y-14248357D01*
X9135357Y-14305500D01*
X9135357Y-14376929D01*
X9121071Y-14434071D01*
X9106786Y-14462643D01*
X9092500Y-14476929D01*
X9063929Y-14491214D01*
X9035357Y-14491214D01*
X9006786Y-14476929D01*
X8992500Y-14462643D01*
X8978214Y-14434071D01*
X8963929Y-14376929D01*
X8963929Y-14305500D01*
X8978214Y-14248357D01*
X8992500Y-14219786D01*
X9006786Y-14205500D01*
X9035357Y-14191214D01*
X9263929Y-14491214D02*
X9263929Y-14291214D01*
X9263929Y-14319786D02*
X9278214Y-14305500D01*
X9306786Y-14291214D01*
X9349643Y-14291214D01*
X9378214Y-14305500D01*
X9392500Y-14334071D01*
X9392500Y-14491214D01*
X9392500Y-14334071D02*
X9406786Y-14305500D01*
X9435357Y-14291214D01*
X9478214Y-14291214D01*
X9506786Y-14305500D01*
X9521071Y-14334071D01*
X9521071Y-14491214D01*
X9663929Y-14491214D02*
X9663929Y-14291214D01*
X9663929Y-14319786D02*
X9678214Y-14305500D01*
X9706786Y-14291214D01*
X9749643Y-14291214D01*
X9778214Y-14305500D01*
X9792500Y-14334071D01*
X9792500Y-14491214D01*
X9792500Y-14334071D02*
X9806786Y-14305500D01*
X9835357Y-14291214D01*
X9878214Y-14291214D01*
X9906786Y-14305500D01*
X9921071Y-14334071D01*
X9921071Y-14491214D01*
X10506786Y-14176929D02*
X10249643Y-14562643D01*
X10892500Y-14191214D02*
X10921071Y-14191214D01*
X10949643Y-14205500D01*
X10963928Y-14219786D01*
X10978214Y-14248357D01*
X10992500Y-14305500D01*
X10992500Y-14376929D01*
X10978214Y-14434071D01*
X10963928Y-14462643D01*
X10949643Y-14476929D01*
X10921071Y-14491214D01*
X10892500Y-14491214D01*
X10863928Y-14476929D01*
X10849643Y-14462643D01*
X10835357Y-14434071D01*
X10821071Y-14376929D01*
X10821071Y-14305500D01*
X10835357Y-14248357D01*
X10849643Y-14219786D01*
X10863928Y-14205500D01*
X10892500Y-14191214D01*
X11121071Y-14462643D02*
X11135357Y-14476929D01*
X11121071Y-14491214D01*
X11106786Y-14476929D01*
X11121071Y-14462643D01*
X11121071Y-14491214D01*
X11321071Y-14191214D02*
X11349643Y-14191214D01*
X11378214Y-14205500D01*
X11392500Y-14219786D01*
X11406785Y-14248357D01*
X11421071Y-14305500D01*
X11421071Y-14376929D01*
X11406785Y-14434071D01*
X11392500Y-14462643D01*
X11378214Y-14476929D01*
X11349643Y-14491214D01*
X11321071Y-14491214D01*
X11292500Y-14476929D01*
X11278214Y-14462643D01*
X11263928Y-14434071D01*
X11249643Y-14376929D01*
X11249643Y-14305500D01*
X11263928Y-14248357D01*
X11278214Y-14219786D01*
X11292500Y-14205500D01*
X11321071Y-14191214D01*
X11521071Y-14191214D02*
X11721071Y-14191214D01*
X11592500Y-14491214D01*
X11992500Y-14491214D02*
X11821071Y-14491214D01*
X11906785Y-14491214D02*
X11906785Y-14191214D01*
X11878214Y-14234071D01*
X11849643Y-14262643D01*
X11821071Y-14276929D01*
X12106786Y-14191214D02*
X12106786Y-14248357D01*
X12221071Y-14191214D02*
X12221071Y-14248357D01*
X12663928Y-14605500D02*
X12649643Y-14591214D01*
X12621071Y-14548357D01*
X12606785Y-14519786D01*
X12592500Y-14476929D01*
X12578214Y-14405500D01*
X12578214Y-14348357D01*
X12592500Y-14276929D01*
X12606785Y-14234071D01*
X12621071Y-14205500D01*
X12649643Y-14162643D01*
X12663928Y-14148357D01*
X12821071Y-14319786D02*
X12792500Y-14305500D01*
X12778214Y-14291214D01*
X12763928Y-14262643D01*
X12763928Y-14248357D01*
X12778214Y-14219786D01*
X12792500Y-14205500D01*
X12821071Y-14191214D01*
X12878214Y-14191214D01*
X12906785Y-14205500D01*
X12921071Y-14219786D01*
X12935357Y-14248357D01*
X12935357Y-14262643D01*
X12921071Y-14291214D01*
X12906785Y-14305500D01*
X12878214Y-14319786D01*
X12821071Y-14319786D01*
X12792500Y-14334071D01*
X12778214Y-14348357D01*
X12763928Y-14376929D01*
X12763928Y-14434071D01*
X12778214Y-14462643D01*
X12792500Y-14476929D01*
X12821071Y-14491214D01*
X12878214Y-14491214D01*
X12906785Y-14476929D01*
X12921071Y-14462643D01*
X12935357Y-14434071D01*
X12935357Y-14376929D01*
X12921071Y-14348357D01*
X12906785Y-14334071D01*
X12878214Y-14319786D01*
X13292500Y-14491214D02*
X13292500Y-14191214D01*
X13421071Y-14491214D02*
X13421071Y-14334071D01*
X13406785Y-14305500D01*
X13378214Y-14291214D01*
X13335357Y-14291214D01*
X13306785Y-14305500D01*
X13292500Y-14319786D01*
X13606785Y-14491214D02*
X13578214Y-14476929D01*
X13563928Y-14462643D01*
X13549643Y-14434071D01*
X13549643Y-14348357D01*
X13563928Y-14319786D01*
X13578214Y-14305500D01*
X13606785Y-14291214D01*
X13649643Y-14291214D01*
X13678214Y-14305500D01*
X13692500Y-14319786D01*
X13706785Y-14348357D01*
X13706785Y-14434071D01*
X13692500Y-14462643D01*
X13678214Y-14476929D01*
X13649643Y-14491214D01*
X13606785Y-14491214D01*
X13878214Y-14491214D02*
X13849643Y-14476929D01*
X13835357Y-14448357D01*
X13835357Y-14191214D01*
X14106786Y-14476929D02*
X14078214Y-14491214D01*
X14021071Y-14491214D01*
X13992500Y-14476929D01*
X13978214Y-14448357D01*
X13978214Y-14334071D01*
X13992500Y-14305500D01*
X14021071Y-14291214D01*
X14078214Y-14291214D01*
X14106786Y-14305500D01*
X14121071Y-14334071D01*
X14121071Y-14362643D01*
X13978214Y-14391214D01*
X14235357Y-14476929D02*
X14263928Y-14491214D01*
X14321071Y-14491214D01*
X14349643Y-14476929D01*
X14363928Y-14448357D01*
X14363928Y-14434071D01*
X14349643Y-14405500D01*
X14321071Y-14391214D01*
X14278214Y-14391214D01*
X14249643Y-14376929D01*
X14235357Y-14348357D01*
X14235357Y-14334071D01*
X14249643Y-14305500D01*
X14278214Y-14291214D01*
X14321071Y-14291214D01*
X14349643Y-14305500D01*
X14463928Y-14605500D02*
X14478214Y-14591214D01*
X14506786Y-14548357D01*
X14521071Y-14519786D01*
X14535357Y-14476929D01*
X14549643Y-14405500D01*
X14549643Y-14348357D01*
X14535357Y-14276929D01*
X14521071Y-14234071D01*
X14506786Y-14205500D01*
X14478214Y-14162643D01*
X14463928Y-14148357D01*
M02*
